%TF.GenerationSoftware,KiCad,Pcbnew,6.0.11+dfsg-1~bpo11+1*%
%TF.CreationDate,2023-03-28T16:11:37+00:00*%
%TF.ProjectId,UST5BATT18650V01,55535435-4241-4545-9431-383635305630,rev?*%
%TF.SameCoordinates,PX463f660PY87a6900*%
%TF.FileFunction,Legend,Bot*%
%TF.FilePolarity,Positive*%
%FSLAX46Y46*%
G04 Gerber Fmt 4.6, Leading zero omitted, Abs format (unit mm)*
G04 Created by KiCad (PCBNEW 6.0.11+dfsg-1~bpo11+1) date 2023-03-28 16:11:37*
%MOMM*%
%LPD*%
G01*
G04 APERTURE LIST*
%ADD10C,0.200000*%
%ADD11C,0.300000*%
%ADD12C,0.304800*%
%ADD13C,0.150000*%
%ADD14C,0.120000*%
G04 APERTURE END LIST*
D10*
X2051595Y54606286D02*
X3103976Y54606286D01*
X3227785Y54544381D01*
X3289690Y54482477D01*
X3351595Y54358667D01*
X3351595Y54111048D01*
X3289690Y53987239D01*
X3227785Y53925334D01*
X3103976Y53863429D01*
X2051595Y53863429D01*
X3289690Y53306286D02*
X3351595Y53120572D01*
X3351595Y52811048D01*
X3289690Y52687239D01*
X3227785Y52625334D01*
X3103976Y52563429D01*
X2980166Y52563429D01*
X2856357Y52625334D01*
X2794452Y52687239D01*
X2732547Y52811048D01*
X2670642Y53058667D01*
X2608738Y53182477D01*
X2546833Y53244381D01*
X2423023Y53306286D01*
X2299214Y53306286D01*
X2175404Y53244381D01*
X2113500Y53182477D01*
X2051595Y53058667D01*
X2051595Y52749143D01*
X2113500Y52563429D01*
X2051595Y52192000D02*
X2051595Y51449143D01*
X3351595Y51820572D02*
X2051595Y51820572D01*
X3227785Y51015810D02*
X3289690Y50953905D01*
X3351595Y51015810D01*
X3289690Y51077715D01*
X3227785Y51015810D01*
X3351595Y51015810D01*
X3227785Y49653905D02*
X3289690Y49715810D01*
X3351595Y49901524D01*
X3351595Y50025334D01*
X3289690Y50211048D01*
X3165880Y50334858D01*
X3042071Y50396762D01*
X2794452Y50458667D01*
X2608738Y50458667D01*
X2361119Y50396762D01*
X2237309Y50334858D01*
X2113500Y50211048D01*
X2051595Y50025334D01*
X2051595Y49901524D01*
X2113500Y49715810D01*
X2175404Y49653905D01*
X2051595Y49220572D02*
X2051595Y48353905D01*
X3351595Y49220572D01*
X3351595Y48353905D01*
X4144595Y61384858D02*
X5196976Y61384858D01*
X5320785Y61322953D01*
X5382690Y61261048D01*
X5444595Y61137239D01*
X5444595Y60889620D01*
X5382690Y60765810D01*
X5320785Y60703905D01*
X5196976Y60642000D01*
X4144595Y60642000D01*
X5382690Y60084858D02*
X5444595Y59899143D01*
X5444595Y59589620D01*
X5382690Y59465810D01*
X5320785Y59403905D01*
X5196976Y59342000D01*
X5073166Y59342000D01*
X4949357Y59403905D01*
X4887452Y59465810D01*
X4825547Y59589620D01*
X4763642Y59837239D01*
X4701738Y59961048D01*
X4639833Y60022953D01*
X4516023Y60084858D01*
X4392214Y60084858D01*
X4268404Y60022953D01*
X4206500Y59961048D01*
X4144595Y59837239D01*
X4144595Y59527715D01*
X4206500Y59342000D01*
X4144595Y58970572D02*
X4144595Y58227715D01*
X5444595Y58599143D02*
X4144595Y58599143D01*
X4144595Y57175334D02*
X4144595Y57794381D01*
X4763642Y57856286D01*
X4701738Y57794381D01*
X4639833Y57670572D01*
X4639833Y57361048D01*
X4701738Y57237239D01*
X4763642Y57175334D01*
X4887452Y57113429D01*
X5196976Y57113429D01*
X5320785Y57175334D01*
X5382690Y57237239D01*
X5444595Y57361048D01*
X5444595Y57670572D01*
X5382690Y57794381D01*
X5320785Y57856286D01*
X4763642Y56122953D02*
X4825547Y55937239D01*
X4887452Y55875334D01*
X5011261Y55813429D01*
X5196976Y55813429D01*
X5320785Y55875334D01*
X5382690Y55937239D01*
X5444595Y56061048D01*
X5444595Y56556286D01*
X4144595Y56556286D01*
X4144595Y56122953D01*
X4206500Y55999143D01*
X4268404Y55937239D01*
X4392214Y55875334D01*
X4516023Y55875334D01*
X4639833Y55937239D01*
X4701738Y55999143D01*
X4763642Y56122953D01*
X4763642Y56556286D01*
X5073166Y55318191D02*
X5073166Y54699143D01*
X5444595Y55442000D02*
X4144595Y55008667D01*
X5444595Y54575334D01*
X4144595Y54327715D02*
X4144595Y53584858D01*
X5444595Y53956286D02*
X4144595Y53956286D01*
X4144595Y53337239D02*
X4144595Y52594381D01*
X5444595Y52965810D02*
X4144595Y52965810D01*
X5444595Y51480096D02*
X5444595Y52222953D01*
X5444595Y51851524D02*
X4144595Y51851524D01*
X4330309Y51975334D01*
X4454119Y52099143D01*
X4516023Y52222953D01*
X4701738Y50737239D02*
X4639833Y50861048D01*
X4577928Y50922953D01*
X4454119Y50984858D01*
X4392214Y50984858D01*
X4268404Y50922953D01*
X4206500Y50861048D01*
X4144595Y50737239D01*
X4144595Y50489620D01*
X4206500Y50365810D01*
X4268404Y50303905D01*
X4392214Y50242000D01*
X4454119Y50242000D01*
X4577928Y50303905D01*
X4639833Y50365810D01*
X4701738Y50489620D01*
X4701738Y50737239D01*
X4763642Y50861048D01*
X4825547Y50922953D01*
X4949357Y50984858D01*
X5196976Y50984858D01*
X5320785Y50922953D01*
X5382690Y50861048D01*
X5444595Y50737239D01*
X5444595Y50489620D01*
X5382690Y50365810D01*
X5320785Y50303905D01*
X5196976Y50242000D01*
X4949357Y50242000D01*
X4825547Y50303905D01*
X4763642Y50365810D01*
X4701738Y50489620D01*
X4144595Y49127715D02*
X4144595Y49375334D01*
X4206500Y49499143D01*
X4268404Y49561048D01*
X4454119Y49684858D01*
X4701738Y49746762D01*
X5196976Y49746762D01*
X5320785Y49684858D01*
X5382690Y49622953D01*
X5444595Y49499143D01*
X5444595Y49251524D01*
X5382690Y49127715D01*
X5320785Y49065810D01*
X5196976Y49003905D01*
X4887452Y49003905D01*
X4763642Y49065810D01*
X4701738Y49127715D01*
X4639833Y49251524D01*
X4639833Y49499143D01*
X4701738Y49622953D01*
X4763642Y49684858D01*
X4887452Y49746762D01*
X4144595Y47827715D02*
X4144595Y48446762D01*
X4763642Y48508667D01*
X4701738Y48446762D01*
X4639833Y48322953D01*
X4639833Y48013429D01*
X4701738Y47889620D01*
X4763642Y47827715D01*
X4887452Y47765810D01*
X5196976Y47765810D01*
X5320785Y47827715D01*
X5382690Y47889620D01*
X5444595Y48013429D01*
X5444595Y48322953D01*
X5382690Y48446762D01*
X5320785Y48508667D01*
X4144595Y46961048D02*
X4144595Y46837239D01*
X4206500Y46713429D01*
X4268404Y46651524D01*
X4392214Y46589620D01*
X4639833Y46527715D01*
X4949357Y46527715D01*
X5196976Y46589620D01*
X5320785Y46651524D01*
X5382690Y46713429D01*
X5444595Y46837239D01*
X5444595Y46961048D01*
X5382690Y47084858D01*
X5320785Y47146762D01*
X5196976Y47208667D01*
X4949357Y47270572D01*
X4639833Y47270572D01*
X4392214Y47208667D01*
X4268404Y47146762D01*
X4206500Y47084858D01*
X4144595Y46961048D01*
X4144595Y46156286D02*
X5444595Y45722953D01*
X4144595Y45289620D01*
X4144595Y44608667D02*
X4144595Y44484858D01*
X4206500Y44361048D01*
X4268404Y44299143D01*
X4392214Y44237239D01*
X4639833Y44175334D01*
X4949357Y44175334D01*
X5196976Y44237239D01*
X5320785Y44299143D01*
X5382690Y44361048D01*
X5444595Y44484858D01*
X5444595Y44608667D01*
X5382690Y44732477D01*
X5320785Y44794381D01*
X5196976Y44856286D01*
X4949357Y44918191D01*
X4639833Y44918191D01*
X4392214Y44856286D01*
X4268404Y44794381D01*
X4206500Y44732477D01*
X4144595Y44608667D01*
X5444595Y42937239D02*
X5444595Y43680096D01*
X5444595Y43308667D02*
X4144595Y43308667D01*
X4330309Y43432477D01*
X4454119Y43556286D01*
X4516023Y43680096D01*
X4763642Y41946762D02*
X4825547Y41761048D01*
X4887452Y41699143D01*
X5011261Y41637239D01*
X5196976Y41637239D01*
X5320785Y41699143D01*
X5382690Y41761048D01*
X5444595Y41884858D01*
X5444595Y42380096D01*
X4144595Y42380096D01*
X4144595Y41946762D01*
X4206500Y41822953D01*
X4268404Y41761048D01*
X4392214Y41699143D01*
X4516023Y41699143D01*
X4639833Y41761048D01*
X4701738Y41822953D01*
X4763642Y41946762D01*
X4763642Y42380096D01*
X92930285Y13115810D02*
X92992190Y13177715D01*
X93054095Y13363429D01*
X93054095Y13487239D01*
X92992190Y13672953D01*
X92868380Y13796762D01*
X92744571Y13858667D01*
X92496952Y13920572D01*
X92311238Y13920572D01*
X92063619Y13858667D01*
X91939809Y13796762D01*
X91816000Y13672953D01*
X91754095Y13487239D01*
X91754095Y13363429D01*
X91816000Y13177715D01*
X91877904Y13115810D01*
X93054095Y12558667D02*
X91754095Y12558667D01*
X92373142Y12558667D02*
X92373142Y11815810D01*
X93054095Y11815810D02*
X91754095Y11815810D01*
X92682666Y11258667D02*
X92682666Y10639620D01*
X93054095Y11382477D02*
X91754095Y10949143D01*
X93054095Y10515810D01*
X93054095Y9339620D02*
X92435047Y9772953D01*
X93054095Y10082477D02*
X91754095Y10082477D01*
X91754095Y9587239D01*
X91816000Y9463429D01*
X91877904Y9401524D01*
X92001714Y9339620D01*
X92187428Y9339620D01*
X92311238Y9401524D01*
X92373142Y9463429D01*
X92435047Y9587239D01*
X92435047Y10082477D01*
X91816000Y8101524D02*
X91754095Y8225334D01*
X91754095Y8411048D01*
X91816000Y8596762D01*
X91939809Y8720572D01*
X92063619Y8782477D01*
X92311238Y8844381D01*
X92496952Y8844381D01*
X92744571Y8782477D01*
X92868380Y8720572D01*
X92992190Y8596762D01*
X93054095Y8411048D01*
X93054095Y8287239D01*
X92992190Y8101524D01*
X92930285Y8039620D01*
X92496952Y8039620D01*
X92496952Y8287239D01*
X92373142Y7482477D02*
X92373142Y7049143D01*
X93054095Y6863429D02*
X93054095Y7482477D01*
X91754095Y7482477D01*
X91754095Y6863429D01*
X93054095Y5563429D02*
X92435047Y5996762D01*
X93054095Y6306286D02*
X91754095Y6306286D01*
X91754095Y5811048D01*
X91816000Y5687239D01*
X91877904Y5625334D01*
X92001714Y5563429D01*
X92187428Y5563429D01*
X92311238Y5625334D01*
X92373142Y5687239D01*
X92435047Y5811048D01*
X92435047Y6306286D01*
X95523595Y37816334D02*
X96452166Y37816334D01*
X96637880Y37878239D01*
X96761690Y38002048D01*
X96823595Y38187762D01*
X96823595Y38311572D01*
X96452166Y37259191D02*
X96452166Y36640143D01*
X96823595Y37383000D02*
X95523595Y36949667D01*
X96823595Y36516334D01*
X96699785Y35340143D02*
X96761690Y35402048D01*
X96823595Y35587762D01*
X96823595Y35711572D01*
X96761690Y35897286D01*
X96637880Y36021096D01*
X96514071Y36083000D01*
X96266452Y36144905D01*
X96080738Y36144905D01*
X95833119Y36083000D01*
X95709309Y36021096D01*
X95585500Y35897286D01*
X95523595Y35711572D01*
X95523595Y35587762D01*
X95585500Y35402048D01*
X95647404Y35340143D01*
X96823595Y34783000D02*
X95523595Y34783000D01*
X96142642Y34783000D02*
X96142642Y34040143D01*
X96823595Y34040143D02*
X95523595Y34040143D01*
X95523595Y33173477D02*
X95523595Y32925858D01*
X95585500Y32802048D01*
X95709309Y32678239D01*
X95956928Y32616334D01*
X96390261Y32616334D01*
X96637880Y32678239D01*
X96761690Y32802048D01*
X96823595Y32925858D01*
X96823595Y33173477D01*
X96761690Y33297286D01*
X96637880Y33421096D01*
X96390261Y33483000D01*
X95956928Y33483000D01*
X95709309Y33421096D01*
X95585500Y33297286D01*
X95523595Y33173477D01*
X97740404Y37661572D02*
X97678500Y37599667D01*
X97616595Y37475858D01*
X97616595Y37166334D01*
X97678500Y37042524D01*
X97740404Y36980620D01*
X97864214Y36918715D01*
X97988023Y36918715D01*
X98173738Y36980620D01*
X98916595Y37723477D01*
X98916595Y36918715D01*
X97616595Y36113953D02*
X97616595Y35990143D01*
X97678500Y35866334D01*
X97740404Y35804429D01*
X97864214Y35742524D01*
X98111833Y35680620D01*
X98421357Y35680620D01*
X98668976Y35742524D01*
X98792785Y35804429D01*
X98854690Y35866334D01*
X98916595Y35990143D01*
X98916595Y36113953D01*
X98854690Y36237762D01*
X98792785Y36299667D01*
X98668976Y36361572D01*
X98421357Y36423477D01*
X98111833Y36423477D01*
X97864214Y36361572D01*
X97740404Y36299667D01*
X97678500Y36237762D01*
X97616595Y36113953D01*
X97740404Y35185381D02*
X97678500Y35123477D01*
X97616595Y34999667D01*
X97616595Y34690143D01*
X97678500Y34566334D01*
X97740404Y34504429D01*
X97864214Y34442524D01*
X97988023Y34442524D01*
X98173738Y34504429D01*
X98916595Y35247286D01*
X98916595Y34442524D01*
X97616595Y34009191D02*
X97616595Y33204429D01*
X98111833Y33637762D01*
X98111833Y33452048D01*
X98173738Y33328239D01*
X98235642Y33266334D01*
X98359452Y33204429D01*
X98668976Y33204429D01*
X98792785Y33266334D01*
X98854690Y33328239D01*
X98916595Y33452048D01*
X98916595Y33823477D01*
X98854690Y33947286D01*
X98792785Y34009191D01*
D11*
X80904761Y64147620D02*
X82904761Y63671429D01*
X81476190Y63290477D01*
X82904761Y62909524D01*
X80904761Y62433334D01*
X82904761Y60814286D02*
X81857142Y60814286D01*
X81666666Y60909524D01*
X81571428Y61100000D01*
X81571428Y61480953D01*
X81666666Y61671429D01*
X82809523Y60814286D02*
X82904761Y61004762D01*
X82904761Y61480953D01*
X82809523Y61671429D01*
X82619047Y61766667D01*
X82428571Y61766667D01*
X82238095Y61671429D01*
X82142857Y61480953D01*
X82142857Y61004762D01*
X82047619Y60814286D01*
X82904761Y59861905D02*
X81571428Y59861905D01*
X81952380Y59861905D02*
X81761904Y59766667D01*
X81666666Y59671429D01*
X81571428Y59480953D01*
X81571428Y59290477D01*
X81571428Y58623810D02*
X82904761Y58623810D01*
X81761904Y58623810D02*
X81666666Y58528572D01*
X81571428Y58338096D01*
X81571428Y58052381D01*
X81666666Y57861905D01*
X81857142Y57766667D01*
X82904761Y57766667D01*
X82904761Y56814286D02*
X81571428Y56814286D01*
X80904761Y56814286D02*
X81000000Y56909524D01*
X81095238Y56814286D01*
X81000000Y56719048D01*
X80904761Y56814286D01*
X81095238Y56814286D01*
X81571428Y55861905D02*
X82904761Y55861905D01*
X81761904Y55861905D02*
X81666666Y55766667D01*
X81571428Y55576191D01*
X81571428Y55290477D01*
X81666666Y55100000D01*
X81857142Y55004762D01*
X82904761Y55004762D01*
X81571428Y53195239D02*
X83190476Y53195239D01*
X83380952Y53290477D01*
X83476190Y53385715D01*
X83571428Y53576191D01*
X83571428Y53861905D01*
X83476190Y54052381D01*
X82809523Y53195239D02*
X82904761Y53385715D01*
X82904761Y53766667D01*
X82809523Y53957143D01*
X82714285Y54052381D01*
X82523809Y54147620D01*
X81952380Y54147620D01*
X81761904Y54052381D01*
X81666666Y53957143D01*
X81571428Y53766667D01*
X81571428Y53385715D01*
X81666666Y53195239D01*
X82714285Y52242858D02*
X82809523Y52147620D01*
X82904761Y52242858D01*
X82809523Y52338096D01*
X82714285Y52242858D01*
X82904761Y52242858D01*
X82142857Y52242858D02*
X81000000Y52338096D01*
X80904761Y52242858D01*
X81000000Y52147620D01*
X82142857Y52242858D01*
X80904761Y52242858D01*
D10*
X37879214Y57897715D02*
X37950642Y57969143D01*
X38022071Y58183429D01*
X38022071Y58326286D01*
X37950642Y58540572D01*
X37807785Y58683429D01*
X37664928Y58754858D01*
X37379214Y58826286D01*
X37164928Y58826286D01*
X36879214Y58754858D01*
X36736357Y58683429D01*
X36593500Y58540572D01*
X36522071Y58326286D01*
X36522071Y58183429D01*
X36593500Y57969143D01*
X36664928Y57897715D01*
X37950642Y56683429D02*
X38022071Y56826286D01*
X38022071Y57112000D01*
X37950642Y57254858D01*
X37807785Y57326286D01*
X37236357Y57326286D01*
X37093500Y57254858D01*
X37022071Y57112000D01*
X37022071Y56826286D01*
X37093500Y56683429D01*
X37236357Y56612000D01*
X37379214Y56612000D01*
X37522071Y57326286D01*
X38022071Y55754858D02*
X37950642Y55897715D01*
X37807785Y55969143D01*
X36522071Y55969143D01*
X38022071Y54969143D02*
X37950642Y55112000D01*
X37807785Y55183429D01*
X36522071Y55183429D01*
X37950642Y54469143D02*
X38022071Y54326286D01*
X38022071Y54040572D01*
X37950642Y53897715D01*
X37807785Y53826286D01*
X37736357Y53826286D01*
X37593500Y53897715D01*
X37522071Y54040572D01*
X37522071Y54254858D01*
X37450642Y54397715D01*
X37307785Y54469143D01*
X37236357Y54469143D01*
X37093500Y54397715D01*
X37022071Y54254858D01*
X37022071Y54040572D01*
X37093500Y53897715D01*
X38022071Y51397715D02*
X37236357Y51397715D01*
X37093500Y51469143D01*
X37022071Y51612000D01*
X37022071Y51897715D01*
X37093500Y52040572D01*
X37950642Y51397715D02*
X38022071Y51540572D01*
X38022071Y51897715D01*
X37950642Y52040572D01*
X37807785Y52112000D01*
X37664928Y52112000D01*
X37522071Y52040572D01*
X37450642Y51897715D01*
X37450642Y51540572D01*
X37379214Y51397715D01*
X37022071Y50683429D02*
X38022071Y50683429D01*
X37164928Y50683429D02*
X37093500Y50612000D01*
X37022071Y50469143D01*
X37022071Y50254858D01*
X37093500Y50112000D01*
X37236357Y50040572D01*
X38022071Y50040572D01*
X38022071Y48683429D02*
X36522071Y48683429D01*
X37950642Y48683429D02*
X38022071Y48826286D01*
X38022071Y49112000D01*
X37950642Y49254858D01*
X37879214Y49326286D01*
X37736357Y49397715D01*
X37307785Y49397715D01*
X37164928Y49326286D01*
X37093500Y49254858D01*
X37022071Y49112000D01*
X37022071Y48826286D01*
X37093500Y48683429D01*
X38022071Y46826286D02*
X36522071Y46826286D01*
X38022071Y46183429D02*
X37236357Y46183429D01*
X37093500Y46254858D01*
X37022071Y46397715D01*
X37022071Y46612000D01*
X37093500Y46754858D01*
X37164928Y46826286D01*
X38022071Y45254858D02*
X37950642Y45397715D01*
X37879214Y45469143D01*
X37736357Y45540572D01*
X37307785Y45540572D01*
X37164928Y45469143D01*
X37093500Y45397715D01*
X37022071Y45254858D01*
X37022071Y45040572D01*
X37093500Y44897715D01*
X37164928Y44826286D01*
X37307785Y44754858D01*
X37736357Y44754858D01*
X37879214Y44826286D01*
X37950642Y44897715D01*
X38022071Y45040572D01*
X38022071Y45254858D01*
X38022071Y43897715D02*
X37950642Y44040572D01*
X37807785Y44112000D01*
X36522071Y44112000D01*
X38022071Y42683429D02*
X36522071Y42683429D01*
X37950642Y42683429D02*
X38022071Y42826286D01*
X38022071Y43112000D01*
X37950642Y43254858D01*
X37879214Y43326286D01*
X37736357Y43397715D01*
X37307785Y43397715D01*
X37164928Y43326286D01*
X37093500Y43254858D01*
X37022071Y43112000D01*
X37022071Y42826286D01*
X37093500Y42683429D01*
X37950642Y41397715D02*
X38022071Y41540572D01*
X38022071Y41826286D01*
X37950642Y41969143D01*
X37807785Y42040572D01*
X37236357Y42040572D01*
X37093500Y41969143D01*
X37022071Y41826286D01*
X37022071Y41540572D01*
X37093500Y41397715D01*
X37236357Y41326286D01*
X37379214Y41326286D01*
X37522071Y42040572D01*
X38022071Y40683429D02*
X37022071Y40683429D01*
X37307785Y40683429D02*
X37164928Y40612000D01*
X37093500Y40540572D01*
X37022071Y40397715D01*
X37022071Y40254858D01*
X37950642Y39826286D02*
X38022071Y39683429D01*
X38022071Y39397715D01*
X37950642Y39254858D01*
X37807785Y39183429D01*
X37736357Y39183429D01*
X37593500Y39254858D01*
X37522071Y39397715D01*
X37522071Y39612000D01*
X37450642Y39754858D01*
X37307785Y39826286D01*
X37236357Y39826286D01*
X37093500Y39754858D01*
X37022071Y39612000D01*
X37022071Y39397715D01*
X37093500Y39254858D01*
X38022071Y37397715D02*
X37022071Y37397715D01*
X37164928Y37397715D02*
X37093500Y37326286D01*
X37022071Y37183429D01*
X37022071Y36969143D01*
X37093500Y36826286D01*
X37236357Y36754858D01*
X38022071Y36754858D01*
X37236357Y36754858D02*
X37093500Y36683429D01*
X37022071Y36540572D01*
X37022071Y36326286D01*
X37093500Y36183429D01*
X37236357Y36112000D01*
X38022071Y36112000D01*
X38022071Y34754858D02*
X37236357Y34754858D01*
X37093500Y34826286D01*
X37022071Y34969143D01*
X37022071Y35254858D01*
X37093500Y35397715D01*
X37950642Y34754858D02*
X38022071Y34897715D01*
X38022071Y35254858D01*
X37950642Y35397715D01*
X37807785Y35469143D01*
X37664928Y35469143D01*
X37522071Y35397715D01*
X37450642Y35254858D01*
X37450642Y34897715D01*
X37379214Y34754858D01*
X37022071Y34183429D02*
X38022071Y33826286D01*
X37022071Y33469143D02*
X38022071Y33826286D01*
X38379214Y33969143D01*
X38450642Y34040572D01*
X38522071Y34183429D01*
X38022071Y31754858D02*
X36522071Y31754858D01*
X37093500Y31754858D02*
X37022071Y31612000D01*
X37022071Y31326286D01*
X37093500Y31183429D01*
X37164928Y31112000D01*
X37307785Y31040572D01*
X37736357Y31040572D01*
X37879214Y31112000D01*
X37950642Y31183429D01*
X38022071Y31326286D01*
X38022071Y31612000D01*
X37950642Y31754858D01*
X37950642Y29826286D02*
X38022071Y29969143D01*
X38022071Y30254858D01*
X37950642Y30397715D01*
X37807785Y30469143D01*
X37236357Y30469143D01*
X37093500Y30397715D01*
X37022071Y30254858D01*
X37022071Y29969143D01*
X37093500Y29826286D01*
X37236357Y29754858D01*
X37379214Y29754858D01*
X37522071Y30469143D01*
X40437071Y58112000D02*
X38937071Y58112000D01*
X40365642Y58112000D02*
X40437071Y58254858D01*
X40437071Y58540572D01*
X40365642Y58683429D01*
X40294214Y58754858D01*
X40151357Y58826286D01*
X39722785Y58826286D01*
X39579928Y58754858D01*
X39508500Y58683429D01*
X39437071Y58540572D01*
X39437071Y58254858D01*
X39508500Y58112000D01*
X40437071Y56754858D02*
X39651357Y56754858D01*
X39508500Y56826286D01*
X39437071Y56969143D01*
X39437071Y57254858D01*
X39508500Y57397715D01*
X40365642Y56754858D02*
X40437071Y56897715D01*
X40437071Y57254858D01*
X40365642Y57397715D01*
X40222785Y57469143D01*
X40079928Y57469143D01*
X39937071Y57397715D01*
X39865642Y57254858D01*
X39865642Y56897715D01*
X39794214Y56754858D01*
X40437071Y56040572D02*
X39437071Y56040572D01*
X39579928Y56040572D02*
X39508500Y55969143D01*
X39437071Y55826286D01*
X39437071Y55612000D01*
X39508500Y55469143D01*
X39651357Y55397715D01*
X40437071Y55397715D01*
X39651357Y55397715D02*
X39508500Y55326286D01*
X39437071Y55183429D01*
X39437071Y54969143D01*
X39508500Y54826286D01*
X39651357Y54754858D01*
X40437071Y54754858D01*
X40437071Y53397715D02*
X39651357Y53397715D01*
X39508500Y53469143D01*
X39437071Y53612000D01*
X39437071Y53897715D01*
X39508500Y54040572D01*
X40365642Y53397715D02*
X40437071Y53540572D01*
X40437071Y53897715D01*
X40365642Y54040572D01*
X40222785Y54112000D01*
X40079928Y54112000D01*
X39937071Y54040572D01*
X39865642Y53897715D01*
X39865642Y53540572D01*
X39794214Y53397715D01*
X39437071Y52040572D02*
X40651357Y52040572D01*
X40794214Y52112000D01*
X40865642Y52183429D01*
X40937071Y52326286D01*
X40937071Y52540572D01*
X40865642Y52683429D01*
X40365642Y52040572D02*
X40437071Y52183429D01*
X40437071Y52469143D01*
X40365642Y52612000D01*
X40294214Y52683429D01*
X40151357Y52754858D01*
X39722785Y52754858D01*
X39579928Y52683429D01*
X39508500Y52612000D01*
X39437071Y52469143D01*
X39437071Y52183429D01*
X39508500Y52040572D01*
X40365642Y50754858D02*
X40437071Y50897715D01*
X40437071Y51183429D01*
X40365642Y51326286D01*
X40222785Y51397715D01*
X39651357Y51397715D01*
X39508500Y51326286D01*
X39437071Y51183429D01*
X39437071Y50897715D01*
X39508500Y50754858D01*
X39651357Y50683429D01*
X39794214Y50683429D01*
X39937071Y51397715D01*
X40437071Y49397715D02*
X38937071Y49397715D01*
X40365642Y49397715D02*
X40437071Y49540572D01*
X40437071Y49826286D01*
X40365642Y49969143D01*
X40294214Y50040572D01*
X40151357Y50112000D01*
X39722785Y50112000D01*
X39579928Y50040572D01*
X39508500Y49969143D01*
X39437071Y49826286D01*
X39437071Y49540572D01*
X39508500Y49397715D01*
X40437071Y46397715D02*
X38937071Y46397715D01*
X39508500Y46397715D02*
X39437071Y46254858D01*
X39437071Y45969143D01*
X39508500Y45826286D01*
X39579928Y45754858D01*
X39722785Y45683429D01*
X40151357Y45683429D01*
X40294214Y45754858D01*
X40365642Y45826286D01*
X40437071Y45969143D01*
X40437071Y46254858D01*
X40365642Y46397715D01*
X39437071Y45183429D02*
X40437071Y44826286D01*
X39437071Y44469143D02*
X40437071Y44826286D01*
X40794214Y44969143D01*
X40865642Y45040572D01*
X40937071Y45183429D01*
X40437071Y41612000D02*
X39437071Y41612000D01*
X38937071Y41612000D02*
X39008500Y41683429D01*
X39079928Y41612000D01*
X39008500Y41540572D01*
X38937071Y41612000D01*
X39079928Y41612000D01*
X40437071Y40897715D02*
X39437071Y40897715D01*
X39579928Y40897715D02*
X39508500Y40826286D01*
X39437071Y40683429D01*
X39437071Y40469143D01*
X39508500Y40326286D01*
X39651357Y40254858D01*
X40437071Y40254858D01*
X39651357Y40254858D02*
X39508500Y40183429D01*
X39437071Y40040572D01*
X39437071Y39826286D01*
X39508500Y39683429D01*
X39651357Y39612000D01*
X40437071Y39612000D01*
X39437071Y38897715D02*
X40937071Y38897715D01*
X39508500Y38897715D02*
X39437071Y38754858D01*
X39437071Y38469143D01*
X39508500Y38326286D01*
X39579928Y38254858D01*
X39722785Y38183429D01*
X40151357Y38183429D01*
X40294214Y38254858D01*
X40365642Y38326286D01*
X40437071Y38469143D01*
X40437071Y38754858D01*
X40365642Y38897715D01*
X40437071Y37540572D02*
X39437071Y37540572D01*
X39722785Y37540572D02*
X39579928Y37469143D01*
X39508500Y37397715D01*
X39437071Y37254858D01*
X39437071Y37112000D01*
X40437071Y36397715D02*
X40365642Y36540572D01*
X40294214Y36612000D01*
X40151357Y36683429D01*
X39722785Y36683429D01*
X39579928Y36612000D01*
X39508500Y36540572D01*
X39437071Y36397715D01*
X39437071Y36183429D01*
X39508500Y36040572D01*
X39579928Y35969143D01*
X39722785Y35897715D01*
X40151357Y35897715D01*
X40294214Y35969143D01*
X40365642Y36040572D01*
X40437071Y36183429D01*
X40437071Y36397715D01*
X39437071Y35254858D02*
X40937071Y35254858D01*
X39508500Y35254858D02*
X39437071Y35112000D01*
X39437071Y34826286D01*
X39508500Y34683429D01*
X39579928Y34612000D01*
X39722785Y34540572D01*
X40151357Y34540572D01*
X40294214Y34612000D01*
X40365642Y34683429D01*
X40437071Y34826286D01*
X40437071Y35112000D01*
X40365642Y35254858D01*
X40365642Y33326286D02*
X40437071Y33469143D01*
X40437071Y33754858D01*
X40365642Y33897715D01*
X40222785Y33969143D01*
X39651357Y33969143D01*
X39508500Y33897715D01*
X39437071Y33754858D01*
X39437071Y33469143D01*
X39508500Y33326286D01*
X39651357Y33254858D01*
X39794214Y33254858D01*
X39937071Y33969143D01*
X40437071Y32612000D02*
X39437071Y32612000D01*
X39722785Y32612000D02*
X39579928Y32540572D01*
X39508500Y32469143D01*
X39437071Y32326286D01*
X39437071Y32183429D01*
X42852071Y58754858D02*
X41352071Y58754858D01*
X42852071Y58112000D02*
X42066357Y58112000D01*
X41923500Y58183429D01*
X41852071Y58326286D01*
X41852071Y58540572D01*
X41923500Y58683429D01*
X41994928Y58754858D01*
X42852071Y56754858D02*
X42066357Y56754858D01*
X41923500Y56826286D01*
X41852071Y56969143D01*
X41852071Y57254858D01*
X41923500Y57397715D01*
X42780642Y56754858D02*
X42852071Y56897715D01*
X42852071Y57254858D01*
X42780642Y57397715D01*
X42637785Y57469143D01*
X42494928Y57469143D01*
X42352071Y57397715D01*
X42280642Y57254858D01*
X42280642Y56897715D01*
X42209214Y56754858D01*
X41852071Y56040572D02*
X42852071Y56040572D01*
X41994928Y56040572D02*
X41923500Y55969143D01*
X41852071Y55826286D01*
X41852071Y55612000D01*
X41923500Y55469143D01*
X42066357Y55397715D01*
X42852071Y55397715D01*
X42852071Y54040572D02*
X41352071Y54040572D01*
X42780642Y54040572D02*
X42852071Y54183429D01*
X42852071Y54469143D01*
X42780642Y54612000D01*
X42709214Y54683429D01*
X42566357Y54754858D01*
X42137785Y54754858D01*
X41994928Y54683429D01*
X41923500Y54612000D01*
X41852071Y54469143D01*
X41852071Y54183429D01*
X41923500Y54040572D01*
X42852071Y53112000D02*
X42780642Y53254858D01*
X42637785Y53326286D01*
X41352071Y53326286D01*
X42852071Y52540572D02*
X41852071Y52540572D01*
X41352071Y52540572D02*
X41423500Y52612000D01*
X41494928Y52540572D01*
X41423500Y52469143D01*
X41352071Y52540572D01*
X41494928Y52540572D01*
X41852071Y51826286D02*
X42852071Y51826286D01*
X41994928Y51826286D02*
X41923500Y51754858D01*
X41852071Y51612000D01*
X41852071Y51397715D01*
X41923500Y51254858D01*
X42066357Y51183429D01*
X42852071Y51183429D01*
X41852071Y49826286D02*
X43066357Y49826286D01*
X43209214Y49897715D01*
X43280642Y49969143D01*
X43352071Y50112000D01*
X43352071Y50326286D01*
X43280642Y50469143D01*
X42780642Y49826286D02*
X42852071Y49969143D01*
X42852071Y50254858D01*
X42780642Y50397715D01*
X42709214Y50469143D01*
X42566357Y50540572D01*
X42137785Y50540572D01*
X41994928Y50469143D01*
X41923500Y50397715D01*
X41852071Y50254858D01*
X41852071Y49969143D01*
X41923500Y49826286D01*
X42709214Y49112000D02*
X42780642Y49040572D01*
X42852071Y49112000D01*
X42780642Y49183429D01*
X42709214Y49112000D01*
X42852071Y49112000D01*
X42852071Y45254858D02*
X42137785Y45754858D01*
X42852071Y46112000D02*
X41352071Y46112000D01*
X41352071Y45540572D01*
X41423500Y45397715D01*
X41494928Y45326286D01*
X41637785Y45254858D01*
X41852071Y45254858D01*
X41994928Y45326286D01*
X42066357Y45397715D01*
X42137785Y45540572D01*
X42137785Y46112000D01*
X42780642Y44040572D02*
X42852071Y44183429D01*
X42852071Y44469143D01*
X42780642Y44612000D01*
X42637785Y44683429D01*
X42066357Y44683429D01*
X41923500Y44612000D01*
X41852071Y44469143D01*
X41852071Y44183429D01*
X41923500Y44040572D01*
X42066357Y43969143D01*
X42209214Y43969143D01*
X42352071Y44683429D01*
X42852071Y42683429D02*
X42066357Y42683429D01*
X41923500Y42754858D01*
X41852071Y42897715D01*
X41852071Y43183429D01*
X41923500Y43326286D01*
X42780642Y42683429D02*
X42852071Y42826286D01*
X42852071Y43183429D01*
X42780642Y43326286D01*
X42637785Y43397715D01*
X42494928Y43397715D01*
X42352071Y43326286D01*
X42280642Y43183429D01*
X42280642Y42826286D01*
X42209214Y42683429D01*
X42852071Y41326286D02*
X41352071Y41326286D01*
X42780642Y41326286D02*
X42852071Y41469143D01*
X42852071Y41754858D01*
X42780642Y41897715D01*
X42709214Y41969143D01*
X42566357Y42040572D01*
X42137785Y42040572D01*
X41994928Y41969143D01*
X41923500Y41897715D01*
X41852071Y41754858D01*
X41852071Y41469143D01*
X41923500Y41326286D01*
X41852071Y38540572D02*
X41852071Y37969143D01*
X41352071Y38326286D02*
X42637785Y38326286D01*
X42780642Y38254858D01*
X42852071Y38112000D01*
X42852071Y37969143D01*
X42852071Y37469143D02*
X41352071Y37469143D01*
X42852071Y36826286D02*
X42066357Y36826286D01*
X41923500Y36897715D01*
X41852071Y37040572D01*
X41852071Y37254858D01*
X41923500Y37397715D01*
X41994928Y37469143D01*
X42780642Y35540572D02*
X42852071Y35683429D01*
X42852071Y35969143D01*
X42780642Y36112000D01*
X42637785Y36183429D01*
X42066357Y36183429D01*
X41923500Y36112000D01*
X41852071Y35969143D01*
X41852071Y35683429D01*
X41923500Y35540572D01*
X42066357Y35469143D01*
X42209214Y35469143D01*
X42352071Y36183429D01*
X45267071Y58754858D02*
X44267071Y58754858D01*
X43767071Y58754858D02*
X43838500Y58826286D01*
X43909928Y58754858D01*
X43838500Y58683429D01*
X43767071Y58754858D01*
X43909928Y58754858D01*
X44267071Y58040572D02*
X45267071Y58040572D01*
X44409928Y58040572D02*
X44338500Y57969143D01*
X44267071Y57826286D01*
X44267071Y57612000D01*
X44338500Y57469143D01*
X44481357Y57397715D01*
X45267071Y57397715D01*
X45195642Y56754858D02*
X45267071Y56612000D01*
X45267071Y56326286D01*
X45195642Y56183429D01*
X45052785Y56112000D01*
X44981357Y56112000D01*
X44838500Y56183429D01*
X44767071Y56326286D01*
X44767071Y56540572D01*
X44695642Y56683429D01*
X44552785Y56754858D01*
X44481357Y56754858D01*
X44338500Y56683429D01*
X44267071Y56540572D01*
X44267071Y56326286D01*
X44338500Y56183429D01*
X44267071Y55683429D02*
X44267071Y55112000D01*
X43767071Y55469143D02*
X45052785Y55469143D01*
X45195642Y55397715D01*
X45267071Y55254858D01*
X45267071Y55112000D01*
X45267071Y54612000D02*
X44267071Y54612000D01*
X44552785Y54612000D02*
X44409928Y54540572D01*
X44338500Y54469143D01*
X44267071Y54326286D01*
X44267071Y54183429D01*
X44267071Y53040572D02*
X45267071Y53040572D01*
X44267071Y53683429D02*
X45052785Y53683429D01*
X45195642Y53612000D01*
X45267071Y53469143D01*
X45267071Y53254858D01*
X45195642Y53112000D01*
X45124214Y53040572D01*
X45195642Y51683429D02*
X45267071Y51826286D01*
X45267071Y52112000D01*
X45195642Y52254858D01*
X45124214Y52326286D01*
X44981357Y52397715D01*
X44552785Y52397715D01*
X44409928Y52326286D01*
X44338500Y52254858D01*
X44267071Y52112000D01*
X44267071Y51826286D01*
X44338500Y51683429D01*
X44267071Y51254858D02*
X44267071Y50683429D01*
X43767071Y51040572D02*
X45052785Y51040572D01*
X45195642Y50969143D01*
X45267071Y50826286D01*
X45267071Y50683429D01*
X45267071Y50183429D02*
X44267071Y50183429D01*
X43767071Y50183429D02*
X43838500Y50254858D01*
X43909928Y50183429D01*
X43838500Y50112000D01*
X43767071Y50183429D01*
X43909928Y50183429D01*
X45267071Y49254858D02*
X45195642Y49397715D01*
X45124214Y49469143D01*
X44981357Y49540572D01*
X44552785Y49540572D01*
X44409928Y49469143D01*
X44338500Y49397715D01*
X44267071Y49254858D01*
X44267071Y49040572D01*
X44338500Y48897715D01*
X44409928Y48826286D01*
X44552785Y48754858D01*
X44981357Y48754858D01*
X45124214Y48826286D01*
X45195642Y48897715D01*
X45267071Y49040572D01*
X45267071Y49254858D01*
X44267071Y48112000D02*
X45267071Y48112000D01*
X44409928Y48112000D02*
X44338500Y48040572D01*
X44267071Y47897715D01*
X44267071Y47683429D01*
X44338500Y47540572D01*
X44481357Y47469143D01*
X45267071Y47469143D01*
X45195642Y46826286D02*
X45267071Y46683429D01*
X45267071Y46397715D01*
X45195642Y46254858D01*
X45052785Y46183429D01*
X44981357Y46183429D01*
X44838500Y46254858D01*
X44767071Y46397715D01*
X44767071Y46612000D01*
X44695642Y46754858D01*
X44552785Y46826286D01*
X44481357Y46826286D01*
X44338500Y46754858D01*
X44267071Y46612000D01*
X44267071Y46397715D01*
X44338500Y46254858D01*
X45267071Y44397715D02*
X43767071Y44397715D01*
X44338500Y44397715D02*
X44267071Y44254858D01*
X44267071Y43969143D01*
X44338500Y43826286D01*
X44409928Y43754858D01*
X44552785Y43683429D01*
X44981357Y43683429D01*
X45124214Y43754858D01*
X45195642Y43826286D01*
X45267071Y43969143D01*
X45267071Y44254858D01*
X45195642Y44397715D01*
X45195642Y42469143D02*
X45267071Y42612000D01*
X45267071Y42897715D01*
X45195642Y43040572D01*
X45052785Y43112000D01*
X44481357Y43112000D01*
X44338500Y43040572D01*
X44267071Y42897715D01*
X44267071Y42612000D01*
X44338500Y42469143D01*
X44481357Y42397715D01*
X44624214Y42397715D01*
X44767071Y43112000D01*
X44267071Y41969143D02*
X44267071Y41397715D01*
X45267071Y41754858D02*
X43981357Y41754858D01*
X43838500Y41683429D01*
X43767071Y41540572D01*
X43767071Y41397715D01*
X45267071Y40683429D02*
X45195642Y40826286D01*
X45124214Y40897715D01*
X44981357Y40969143D01*
X44552785Y40969143D01*
X44409928Y40897715D01*
X44338500Y40826286D01*
X44267071Y40683429D01*
X44267071Y40469143D01*
X44338500Y40326286D01*
X44409928Y40254858D01*
X44552785Y40183429D01*
X44981357Y40183429D01*
X45124214Y40254858D01*
X45195642Y40326286D01*
X45267071Y40469143D01*
X45267071Y40683429D01*
X45267071Y39540572D02*
X44267071Y39540572D01*
X44552785Y39540572D02*
X44409928Y39469143D01*
X44338500Y39397715D01*
X44267071Y39254858D01*
X44267071Y39112000D01*
X45195642Y38040572D02*
X45267071Y38183429D01*
X45267071Y38469143D01*
X45195642Y38612000D01*
X45052785Y38683429D01*
X44481357Y38683429D01*
X44338500Y38612000D01*
X44267071Y38469143D01*
X44267071Y38183429D01*
X44338500Y38040572D01*
X44481357Y37969143D01*
X44624214Y37969143D01*
X44767071Y38683429D01*
X44267071Y35540572D02*
X45267071Y35540572D01*
X44267071Y36183429D02*
X45052785Y36183429D01*
X45195642Y36112000D01*
X45267071Y35969143D01*
X45267071Y35754858D01*
X45195642Y35612000D01*
X45124214Y35540572D01*
X45195642Y34897715D02*
X45267071Y34754858D01*
X45267071Y34469143D01*
X45195642Y34326286D01*
X45052785Y34254858D01*
X44981357Y34254858D01*
X44838500Y34326286D01*
X44767071Y34469143D01*
X44767071Y34683429D01*
X44695642Y34826286D01*
X44552785Y34897715D01*
X44481357Y34897715D01*
X44338500Y34826286D01*
X44267071Y34683429D01*
X44267071Y34469143D01*
X44338500Y34326286D01*
X45195642Y33040572D02*
X45267071Y33183429D01*
X45267071Y33469143D01*
X45195642Y33612000D01*
X45052785Y33683429D01*
X44481357Y33683429D01*
X44338500Y33612000D01*
X44267071Y33469143D01*
X44267071Y33183429D01*
X44338500Y33040572D01*
X44481357Y32969143D01*
X44624214Y32969143D01*
X44767071Y33683429D01*
X45124214Y32326286D02*
X45195642Y32254858D01*
X45267071Y32326286D01*
X45195642Y32397715D01*
X45124214Y32326286D01*
X45267071Y32326286D01*
X92838095Y59554762D02*
X91538095Y59554762D01*
X91538095Y59059524D01*
X91600000Y58935715D01*
X91661904Y58873810D01*
X91785714Y58811905D01*
X91971428Y58811905D01*
X92095238Y58873810D01*
X92157142Y58935715D01*
X92219047Y59059524D01*
X92219047Y59554762D01*
X91538095Y58007143D02*
X91538095Y57759524D01*
X91600000Y57635715D01*
X91723809Y57511905D01*
X91971428Y57450000D01*
X92404761Y57450000D01*
X92652380Y57511905D01*
X92776190Y57635715D01*
X92838095Y57759524D01*
X92838095Y58007143D01*
X92776190Y58130953D01*
X92652380Y58254762D01*
X92404761Y58316667D01*
X91971428Y58316667D01*
X91723809Y58254762D01*
X91600000Y58130953D01*
X91538095Y58007143D01*
X91538095Y57016667D02*
X92838095Y56707143D01*
X91909523Y56459524D01*
X92838095Y56211905D01*
X91538095Y55902381D01*
X92157142Y55407143D02*
X92157142Y54973810D01*
X92838095Y54788096D02*
X92838095Y55407143D01*
X91538095Y55407143D01*
X91538095Y54788096D01*
X92838095Y53488096D02*
X92219047Y53921429D01*
X92838095Y54230953D02*
X91538095Y54230953D01*
X91538095Y53735715D01*
X91600000Y53611905D01*
X91661904Y53550000D01*
X91785714Y53488096D01*
X91971428Y53488096D01*
X92095238Y53550000D01*
X92157142Y53611905D01*
X92219047Y53735715D01*
X92219047Y54230953D01*
X91538095Y51692858D02*
X91538095Y51445239D01*
X91600000Y51321429D01*
X91723809Y51197620D01*
X91971428Y51135715D01*
X92404761Y51135715D01*
X92652380Y51197620D01*
X92776190Y51321429D01*
X92838095Y51445239D01*
X92838095Y51692858D01*
X92776190Y51816667D01*
X92652380Y51940477D01*
X92404761Y52002381D01*
X91971428Y52002381D01*
X91723809Y51940477D01*
X91600000Y51816667D01*
X91538095Y51692858D01*
X91538095Y50578572D02*
X92590476Y50578572D01*
X92714285Y50516667D01*
X92776190Y50454762D01*
X92838095Y50330953D01*
X92838095Y50083334D01*
X92776190Y49959524D01*
X92714285Y49897620D01*
X92590476Y49835715D01*
X91538095Y49835715D01*
X91538095Y49402381D02*
X91538095Y48659524D01*
X92838095Y49030953D02*
X91538095Y49030953D01*
D11*
X34080285Y57565810D02*
X34175523Y57661048D01*
X34270761Y57946762D01*
X34270761Y58137239D01*
X34175523Y58422953D01*
X33985047Y58613429D01*
X33794571Y58708667D01*
X33413619Y58803905D01*
X33127904Y58803905D01*
X32746952Y58708667D01*
X32556476Y58613429D01*
X32366000Y58422953D01*
X32270761Y58137239D01*
X32270761Y57946762D01*
X32366000Y57661048D01*
X32461238Y57565810D01*
X34270761Y55851524D02*
X33223142Y55851524D01*
X33032666Y55946762D01*
X32937428Y56137239D01*
X32937428Y56518191D01*
X33032666Y56708667D01*
X34175523Y55851524D02*
X34270761Y56042000D01*
X34270761Y56518191D01*
X34175523Y56708667D01*
X33985047Y56803905D01*
X33794571Y56803905D01*
X33604095Y56708667D01*
X33508857Y56518191D01*
X33508857Y56042000D01*
X33413619Y55851524D01*
X32937428Y54042000D02*
X34270761Y54042000D01*
X32937428Y54899143D02*
X33985047Y54899143D01*
X34175523Y54803905D01*
X34270761Y54613429D01*
X34270761Y54327715D01*
X34175523Y54137239D01*
X34080285Y54042000D01*
X32937428Y53375334D02*
X32937428Y52613429D01*
X32270761Y53089620D02*
X33985047Y53089620D01*
X34175523Y52994381D01*
X34270761Y52803905D01*
X34270761Y52613429D01*
X34270761Y51946762D02*
X32937428Y51946762D01*
X32270761Y51946762D02*
X32366000Y52042000D01*
X32461238Y51946762D01*
X32366000Y51851524D01*
X32270761Y51946762D01*
X32461238Y51946762D01*
X34270761Y50708667D02*
X34175523Y50899143D01*
X34080285Y50994381D01*
X33889809Y51089620D01*
X33318380Y51089620D01*
X33127904Y50994381D01*
X33032666Y50899143D01*
X32937428Y50708667D01*
X32937428Y50422953D01*
X33032666Y50232477D01*
X33127904Y50137239D01*
X33318380Y50042000D01*
X33889809Y50042000D01*
X34080285Y50137239D01*
X34175523Y50232477D01*
X34270761Y50422953D01*
X34270761Y50708667D01*
X32937428Y49184858D02*
X34270761Y49184858D01*
X33127904Y49184858D02*
X33032666Y49089620D01*
X32937428Y48899143D01*
X32937428Y48613429D01*
X33032666Y48422953D01*
X33223142Y48327715D01*
X34270761Y48327715D01*
X34080285Y47375334D02*
X34175523Y47280096D01*
X34270761Y47375334D01*
X34175523Y47470572D01*
X34080285Y47375334D01*
X34270761Y47375334D01*
X33508857Y47375334D02*
X32366000Y47470572D01*
X32270761Y47375334D01*
X32366000Y47280096D01*
X33508857Y47375334D01*
X32270761Y47375334D01*
D10*
X62421071Y22862858D02*
X63635357Y22862858D01*
X63778214Y22791429D01*
X63849642Y22720000D01*
X63921071Y22577143D01*
X63921071Y22291429D01*
X63849642Y22148572D01*
X63778214Y22077143D01*
X63635357Y22005715D01*
X62421071Y22005715D01*
X63849642Y21362858D02*
X63921071Y21220000D01*
X63921071Y20934286D01*
X63849642Y20791429D01*
X63706785Y20720000D01*
X63635357Y20720000D01*
X63492500Y20791429D01*
X63421071Y20934286D01*
X63421071Y21148572D01*
X63349642Y21291429D01*
X63206785Y21362858D01*
X63135357Y21362858D01*
X62992500Y21291429D01*
X62921071Y21148572D01*
X62921071Y20934286D01*
X62992500Y20791429D01*
X63849642Y19505715D02*
X63921071Y19648572D01*
X63921071Y19934286D01*
X63849642Y20077143D01*
X63706785Y20148572D01*
X63135357Y20148572D01*
X62992500Y20077143D01*
X62921071Y19934286D01*
X62921071Y19648572D01*
X62992500Y19505715D01*
X63135357Y19434286D01*
X63278214Y19434286D01*
X63421071Y20148572D01*
X63921071Y17005715D02*
X63135357Y17005715D01*
X62992500Y17077143D01*
X62921071Y17220000D01*
X62921071Y17505715D01*
X62992500Y17648572D01*
X63849642Y17005715D02*
X63921071Y17148572D01*
X63921071Y17505715D01*
X63849642Y17648572D01*
X63706785Y17720000D01*
X63563928Y17720000D01*
X63421071Y17648572D01*
X63349642Y17505715D01*
X63349642Y17148572D01*
X63278214Y17005715D01*
X62921071Y16291429D02*
X64421071Y16291429D01*
X62992500Y16291429D02*
X62921071Y16148572D01*
X62921071Y15862858D01*
X62992500Y15720000D01*
X63063928Y15648572D01*
X63206785Y15577143D01*
X63635357Y15577143D01*
X63778214Y15648572D01*
X63849642Y15720000D01*
X63921071Y15862858D01*
X63921071Y16148572D01*
X63849642Y16291429D01*
X62921071Y14934286D02*
X64421071Y14934286D01*
X62992500Y14934286D02*
X62921071Y14791429D01*
X62921071Y14505715D01*
X62992500Y14362858D01*
X63063928Y14291429D01*
X63206785Y14220000D01*
X63635357Y14220000D01*
X63778214Y14291429D01*
X63849642Y14362858D01*
X63921071Y14505715D01*
X63921071Y14791429D01*
X63849642Y14934286D01*
X63921071Y13577143D02*
X62921071Y13577143D01*
X63206785Y13577143D02*
X63063928Y13505715D01*
X62992500Y13434286D01*
X62921071Y13291429D01*
X62921071Y13148572D01*
X63921071Y12434286D02*
X63849642Y12577143D01*
X63778214Y12648572D01*
X63635357Y12720000D01*
X63206785Y12720000D01*
X63063928Y12648572D01*
X62992500Y12577143D01*
X62921071Y12434286D01*
X62921071Y12220000D01*
X62992500Y12077143D01*
X63063928Y12005715D01*
X63206785Y11934286D01*
X63635357Y11934286D01*
X63778214Y12005715D01*
X63849642Y12077143D01*
X63921071Y12220000D01*
X63921071Y12434286D01*
X62921071Y11291429D02*
X64421071Y11291429D01*
X62992500Y11291429D02*
X62921071Y11148572D01*
X62921071Y10862858D01*
X62992500Y10720000D01*
X63063928Y10648572D01*
X63206785Y10577143D01*
X63635357Y10577143D01*
X63778214Y10648572D01*
X63849642Y10720000D01*
X63921071Y10862858D01*
X63921071Y11148572D01*
X63849642Y11291429D01*
X63921071Y9934286D02*
X62921071Y9934286D01*
X63206785Y9934286D02*
X63063928Y9862858D01*
X62992500Y9791429D01*
X62921071Y9648572D01*
X62921071Y9505715D01*
X63921071Y9005715D02*
X62921071Y9005715D01*
X62421071Y9005715D02*
X62492500Y9077143D01*
X62563928Y9005715D01*
X62492500Y8934286D01*
X62421071Y9005715D01*
X62563928Y9005715D01*
X63921071Y7648572D02*
X63135357Y7648572D01*
X62992500Y7720000D01*
X62921071Y7862858D01*
X62921071Y8148572D01*
X62992500Y8291429D01*
X63849642Y7648572D02*
X63921071Y7791429D01*
X63921071Y8148572D01*
X63849642Y8291429D01*
X63706785Y8362858D01*
X63563928Y8362858D01*
X63421071Y8291429D01*
X63349642Y8148572D01*
X63349642Y7791429D01*
X63278214Y7648572D01*
X62921071Y7148572D02*
X62921071Y6577143D01*
X62421071Y6934286D02*
X63706785Y6934286D01*
X63849642Y6862858D01*
X63921071Y6720000D01*
X63921071Y6577143D01*
X63849642Y5505715D02*
X63921071Y5648572D01*
X63921071Y5934286D01*
X63849642Y6077143D01*
X63706785Y6148572D01*
X63135357Y6148572D01*
X62992500Y6077143D01*
X62921071Y5934286D01*
X62921071Y5648572D01*
X62992500Y5505715D01*
X63135357Y5434286D01*
X63278214Y5434286D01*
X63421071Y6148572D01*
X66264642Y22220000D02*
X66336071Y22362858D01*
X66336071Y22648572D01*
X66264642Y22791429D01*
X66193214Y22862858D01*
X66050357Y22934286D01*
X65621785Y22934286D01*
X65478928Y22862858D01*
X65407500Y22791429D01*
X65336071Y22648572D01*
X65336071Y22362858D01*
X65407500Y22220000D01*
X66336071Y21577143D02*
X64836071Y21577143D01*
X66336071Y20934286D02*
X65550357Y20934286D01*
X65407500Y21005715D01*
X65336071Y21148572D01*
X65336071Y21362858D01*
X65407500Y21505715D01*
X65478928Y21577143D01*
X66336071Y19577143D02*
X65550357Y19577143D01*
X65407500Y19648572D01*
X65336071Y19791429D01*
X65336071Y20077143D01*
X65407500Y20220000D01*
X66264642Y19577143D02*
X66336071Y19720000D01*
X66336071Y20077143D01*
X66264642Y20220000D01*
X66121785Y20291429D01*
X65978928Y20291429D01*
X65836071Y20220000D01*
X65764642Y20077143D01*
X65764642Y19720000D01*
X65693214Y19577143D01*
X66336071Y18862858D02*
X65336071Y18862858D01*
X65621785Y18862858D02*
X65478928Y18791429D01*
X65407500Y18720000D01*
X65336071Y18577143D01*
X65336071Y18434286D01*
X65336071Y17291429D02*
X66550357Y17291429D01*
X66693214Y17362858D01*
X66764642Y17434286D01*
X66836071Y17577143D01*
X66836071Y17791429D01*
X66764642Y17934286D01*
X66264642Y17291429D02*
X66336071Y17434286D01*
X66336071Y17720000D01*
X66264642Y17862858D01*
X66193214Y17934286D01*
X66050357Y18005715D01*
X65621785Y18005715D01*
X65478928Y17934286D01*
X65407500Y17862858D01*
X65336071Y17720000D01*
X65336071Y17434286D01*
X65407500Y17291429D01*
X66264642Y16005715D02*
X66336071Y16148572D01*
X66336071Y16434286D01*
X66264642Y16577143D01*
X66121785Y16648572D01*
X65550357Y16648572D01*
X65407500Y16577143D01*
X65336071Y16434286D01*
X65336071Y16148572D01*
X65407500Y16005715D01*
X65550357Y15934286D01*
X65693214Y15934286D01*
X65836071Y16648572D01*
X66336071Y15291429D02*
X65336071Y15291429D01*
X65621785Y15291429D02*
X65478928Y15220000D01*
X65407500Y15148572D01*
X65336071Y15005715D01*
X65336071Y14862858D01*
X66336071Y13005715D02*
X66264642Y13148572D01*
X66193214Y13220000D01*
X66050357Y13291429D01*
X65621785Y13291429D01*
X65478928Y13220000D01*
X65407500Y13148572D01*
X65336071Y13005715D01*
X65336071Y12791429D01*
X65407500Y12648572D01*
X65478928Y12577143D01*
X65621785Y12505715D01*
X66050357Y12505715D01*
X66193214Y12577143D01*
X66264642Y12648572D01*
X66336071Y12791429D01*
X66336071Y13005715D01*
X65336071Y11862858D02*
X66336071Y11862858D01*
X65478928Y11862858D02*
X65407500Y11791429D01*
X65336071Y11648572D01*
X65336071Y11434286D01*
X65407500Y11291429D01*
X65550357Y11220000D01*
X66336071Y11220000D01*
X66336071Y10291429D02*
X66264642Y10434286D01*
X66121785Y10505715D01*
X64836071Y10505715D01*
X65336071Y9862858D02*
X66336071Y9505715D01*
X65336071Y9148572D02*
X66336071Y9505715D01*
X66693214Y9648572D01*
X66764642Y9720000D01*
X66836071Y9862858D01*
X66193214Y8577143D02*
X66264642Y8505715D01*
X66336071Y8577143D01*
X66264642Y8648572D01*
X66193214Y8577143D01*
X66336071Y8577143D01*
X86171071Y64162858D02*
X84671071Y64162858D01*
X84671071Y63805715D01*
X84742500Y63591429D01*
X84885357Y63448572D01*
X85028214Y63377143D01*
X85313928Y63305715D01*
X85528214Y63305715D01*
X85813928Y63377143D01*
X85956785Y63448572D01*
X86099642Y63591429D01*
X86171071Y63805715D01*
X86171071Y64162858D01*
X86171071Y62448572D02*
X86099642Y62591429D01*
X86028214Y62662858D01*
X85885357Y62734286D01*
X85456785Y62734286D01*
X85313928Y62662858D01*
X85242500Y62591429D01*
X85171071Y62448572D01*
X85171071Y62234286D01*
X85242500Y62091429D01*
X85313928Y62020000D01*
X85456785Y61948572D01*
X85885357Y61948572D01*
X86028214Y62020000D01*
X86099642Y62091429D01*
X86171071Y62234286D01*
X86171071Y62448572D01*
X85171071Y60162858D02*
X86171071Y60162858D01*
X85313928Y60162858D02*
X85242500Y60091429D01*
X85171071Y59948572D01*
X85171071Y59734286D01*
X85242500Y59591429D01*
X85385357Y59520000D01*
X86171071Y59520000D01*
X86171071Y58591429D02*
X86099642Y58734286D01*
X86028214Y58805715D01*
X85885357Y58877143D01*
X85456785Y58877143D01*
X85313928Y58805715D01*
X85242500Y58734286D01*
X85171071Y58591429D01*
X85171071Y58377143D01*
X85242500Y58234286D01*
X85313928Y58162858D01*
X85456785Y58091429D01*
X85885357Y58091429D01*
X86028214Y58162858D01*
X86099642Y58234286D01*
X86171071Y58377143D01*
X86171071Y58591429D01*
X85171071Y57662858D02*
X85171071Y57091429D01*
X84671071Y57448572D02*
X85956785Y57448572D01*
X86099642Y57377143D01*
X86171071Y57234286D01*
X86171071Y57091429D01*
X86099642Y54805715D02*
X86171071Y54948572D01*
X86171071Y55234286D01*
X86099642Y55377143D01*
X86028214Y55448572D01*
X85885357Y55520000D01*
X85456785Y55520000D01*
X85313928Y55448572D01*
X85242500Y55377143D01*
X85171071Y55234286D01*
X85171071Y54948572D01*
X85242500Y54805715D01*
X86171071Y54162858D02*
X84671071Y54162858D01*
X86171071Y53520000D02*
X85385357Y53520000D01*
X85242500Y53591429D01*
X85171071Y53734286D01*
X85171071Y53948572D01*
X85242500Y54091429D01*
X85313928Y54162858D01*
X86171071Y52162858D02*
X85385357Y52162858D01*
X85242500Y52234286D01*
X85171071Y52377143D01*
X85171071Y52662858D01*
X85242500Y52805715D01*
X86099642Y52162858D02*
X86171071Y52305715D01*
X86171071Y52662858D01*
X86099642Y52805715D01*
X85956785Y52877143D01*
X85813928Y52877143D01*
X85671071Y52805715D01*
X85599642Y52662858D01*
X85599642Y52305715D01*
X85528214Y52162858D01*
X86171071Y51448572D02*
X85171071Y51448572D01*
X85456785Y51448572D02*
X85313928Y51377143D01*
X85242500Y51305715D01*
X85171071Y51162858D01*
X85171071Y51020000D01*
X85171071Y49877143D02*
X86385357Y49877143D01*
X86528214Y49948572D01*
X86599642Y50020000D01*
X86671071Y50162858D01*
X86671071Y50377143D01*
X86599642Y50520000D01*
X86099642Y49877143D02*
X86171071Y50020000D01*
X86171071Y50305715D01*
X86099642Y50448572D01*
X86028214Y50520000D01*
X85885357Y50591429D01*
X85456785Y50591429D01*
X85313928Y50520000D01*
X85242500Y50448572D01*
X85171071Y50305715D01*
X85171071Y50020000D01*
X85242500Y49877143D01*
X86099642Y48591429D02*
X86171071Y48734286D01*
X86171071Y49020000D01*
X86099642Y49162858D01*
X85956785Y49234286D01*
X85385357Y49234286D01*
X85242500Y49162858D01*
X85171071Y49020000D01*
X85171071Y48734286D01*
X85242500Y48591429D01*
X85385357Y48520000D01*
X85528214Y48520000D01*
X85671071Y49234286D01*
X85171071Y46948572D02*
X85171071Y46377143D01*
X84671071Y46734286D02*
X85956785Y46734286D01*
X86099642Y46662858D01*
X86171071Y46520000D01*
X86171071Y46377143D01*
X86171071Y45877143D02*
X84671071Y45877143D01*
X86171071Y45234286D02*
X85385357Y45234286D01*
X85242500Y45305715D01*
X85171071Y45448572D01*
X85171071Y45662858D01*
X85242500Y45805715D01*
X85313928Y45877143D01*
X86171071Y44520000D02*
X85171071Y44520000D01*
X85456785Y44520000D02*
X85313928Y44448572D01*
X85242500Y44377143D01*
X85171071Y44234286D01*
X85171071Y44091429D01*
X86171071Y43377143D02*
X86099642Y43520000D01*
X86028214Y43591429D01*
X85885357Y43662858D01*
X85456785Y43662858D01*
X85313928Y43591429D01*
X85242500Y43520000D01*
X85171071Y43377143D01*
X85171071Y43162858D01*
X85242500Y43020000D01*
X85313928Y42948572D01*
X85456785Y42877143D01*
X85885357Y42877143D01*
X86028214Y42948572D01*
X86099642Y43020000D01*
X86171071Y43162858D01*
X86171071Y43377143D01*
X85171071Y41591429D02*
X86171071Y41591429D01*
X85171071Y42234286D02*
X85956785Y42234286D01*
X86099642Y42162858D01*
X86171071Y42020000D01*
X86171071Y41805715D01*
X86099642Y41662858D01*
X86028214Y41591429D01*
X85171071Y40234286D02*
X86385357Y40234286D01*
X86528214Y40305715D01*
X86599642Y40377143D01*
X86671071Y40520000D01*
X86671071Y40734286D01*
X86599642Y40877143D01*
X86099642Y40234286D02*
X86171071Y40377143D01*
X86171071Y40662858D01*
X86099642Y40805715D01*
X86028214Y40877143D01*
X85885357Y40948572D01*
X85456785Y40948572D01*
X85313928Y40877143D01*
X85242500Y40805715D01*
X85171071Y40662858D01*
X85171071Y40377143D01*
X85242500Y40234286D01*
X86171071Y39520000D02*
X84671071Y39520000D01*
X86171071Y38877143D02*
X85385357Y38877143D01*
X85242500Y38948572D01*
X85171071Y39091429D01*
X85171071Y39305715D01*
X85242500Y39448572D01*
X85313928Y39520000D01*
X87586071Y64377143D02*
X87586071Y63805715D01*
X87086071Y64162858D02*
X88371785Y64162858D01*
X88514642Y64091429D01*
X88586071Y63948572D01*
X88586071Y63805715D01*
X88586071Y63305715D02*
X87086071Y63305715D01*
X88586071Y62662858D02*
X87800357Y62662858D01*
X87657500Y62734286D01*
X87586071Y62877143D01*
X87586071Y63091429D01*
X87657500Y63234286D01*
X87728928Y63305715D01*
X88514642Y61377143D02*
X88586071Y61520000D01*
X88586071Y61805715D01*
X88514642Y61948572D01*
X88371785Y62020000D01*
X87800357Y62020000D01*
X87657500Y61948572D01*
X87586071Y61805715D01*
X87586071Y61520000D01*
X87657500Y61377143D01*
X87800357Y61305715D01*
X87943214Y61305715D01*
X88086071Y62020000D01*
X88514642Y60734286D02*
X88586071Y60591429D01*
X88586071Y60305715D01*
X88514642Y60162858D01*
X88371785Y60091429D01*
X88300357Y60091429D01*
X88157500Y60162858D01*
X88086071Y60305715D01*
X88086071Y60520000D01*
X88014642Y60662858D01*
X87871785Y60734286D01*
X87800357Y60734286D01*
X87657500Y60662858D01*
X87586071Y60520000D01*
X87586071Y60305715D01*
X87657500Y60162858D01*
X88514642Y58877143D02*
X88586071Y59020000D01*
X88586071Y59305715D01*
X88514642Y59448572D01*
X88371785Y59520000D01*
X87800357Y59520000D01*
X87657500Y59448572D01*
X87586071Y59305715D01*
X87586071Y59020000D01*
X87657500Y58877143D01*
X87800357Y58805715D01*
X87943214Y58805715D01*
X88086071Y59520000D01*
X88514642Y56377143D02*
X88586071Y56520000D01*
X88586071Y56805715D01*
X88514642Y56948572D01*
X88443214Y57020000D01*
X88300357Y57091429D01*
X87871785Y57091429D01*
X87728928Y57020000D01*
X87657500Y56948572D01*
X87586071Y56805715D01*
X87586071Y56520000D01*
X87657500Y56377143D01*
X88586071Y55520000D02*
X88514642Y55662858D01*
X88443214Y55734286D01*
X88300357Y55805715D01*
X87871785Y55805715D01*
X87728928Y55734286D01*
X87657500Y55662858D01*
X87586071Y55520000D01*
X87586071Y55305715D01*
X87657500Y55162858D01*
X87728928Y55091429D01*
X87871785Y55020000D01*
X88300357Y55020000D01*
X88443214Y55091429D01*
X88514642Y55162858D01*
X88586071Y55305715D01*
X88586071Y55520000D01*
X87586071Y54377143D02*
X88586071Y54377143D01*
X87728928Y54377143D02*
X87657500Y54305715D01*
X87586071Y54162858D01*
X87586071Y53948572D01*
X87657500Y53805715D01*
X87800357Y53734286D01*
X88586071Y53734286D01*
X87586071Y53020000D02*
X88586071Y53020000D01*
X87728928Y53020000D02*
X87657500Y52948572D01*
X87586071Y52805715D01*
X87586071Y52591429D01*
X87657500Y52448572D01*
X87800357Y52377143D01*
X88586071Y52377143D01*
X88514642Y51091429D02*
X88586071Y51234286D01*
X88586071Y51520000D01*
X88514642Y51662858D01*
X88371785Y51734286D01*
X87800357Y51734286D01*
X87657500Y51662858D01*
X87586071Y51520000D01*
X87586071Y51234286D01*
X87657500Y51091429D01*
X87800357Y51020000D01*
X87943214Y51020000D01*
X88086071Y51734286D01*
X88514642Y49734286D02*
X88586071Y49877143D01*
X88586071Y50162858D01*
X88514642Y50305715D01*
X88443214Y50377143D01*
X88300357Y50448572D01*
X87871785Y50448572D01*
X87728928Y50377143D01*
X87657500Y50305715D01*
X87586071Y50162858D01*
X87586071Y49877143D01*
X87657500Y49734286D01*
X87586071Y49305715D02*
X87586071Y48734286D01*
X87086071Y49091429D02*
X88371785Y49091429D01*
X88514642Y49020000D01*
X88586071Y48877143D01*
X88586071Y48734286D01*
X88586071Y48020000D02*
X88514642Y48162858D01*
X88443214Y48234286D01*
X88300357Y48305715D01*
X87871785Y48305715D01*
X87728928Y48234286D01*
X87657500Y48162858D01*
X87586071Y48020000D01*
X87586071Y47805715D01*
X87657500Y47662858D01*
X87728928Y47591429D01*
X87871785Y47520000D01*
X88300357Y47520000D01*
X88443214Y47591429D01*
X88514642Y47662858D01*
X88586071Y47805715D01*
X88586071Y48020000D01*
X88586071Y46877143D02*
X87586071Y46877143D01*
X87871785Y46877143D02*
X87728928Y46805715D01*
X87657500Y46734286D01*
X87586071Y46591429D01*
X87586071Y46448572D01*
X88514642Y46020000D02*
X88586071Y45877143D01*
X88586071Y45591429D01*
X88514642Y45448572D01*
X88371785Y45377143D01*
X88300357Y45377143D01*
X88157500Y45448572D01*
X88086071Y45591429D01*
X88086071Y45805715D01*
X88014642Y45948572D01*
X87871785Y46020000D01*
X87800357Y46020000D01*
X87657500Y45948572D01*
X87586071Y45805715D01*
X87586071Y45591429D01*
X87657500Y45448572D01*
X88443214Y44734286D02*
X88514642Y44662858D01*
X88586071Y44734286D01*
X88514642Y44805715D01*
X88443214Y44734286D01*
X88586071Y44734286D01*
D11*
X60714285Y21776191D02*
X60809523Y21871429D01*
X60904761Y22157143D01*
X60904761Y22347620D01*
X60809523Y22633334D01*
X60619047Y22823810D01*
X60428571Y22919048D01*
X60047619Y23014286D01*
X59761904Y23014286D01*
X59380952Y22919048D01*
X59190476Y22823810D01*
X59000000Y22633334D01*
X58904761Y22347620D01*
X58904761Y22157143D01*
X59000000Y21871429D01*
X59095238Y21776191D01*
X60904761Y20919048D02*
X58904761Y20919048D01*
X60904761Y20061905D02*
X59857142Y20061905D01*
X59666666Y20157143D01*
X59571428Y20347620D01*
X59571428Y20633334D01*
X59666666Y20823810D01*
X59761904Y20919048D01*
X60904761Y18252381D02*
X59857142Y18252381D01*
X59666666Y18347620D01*
X59571428Y18538096D01*
X59571428Y18919048D01*
X59666666Y19109524D01*
X60809523Y18252381D02*
X60904761Y18442858D01*
X60904761Y18919048D01*
X60809523Y19109524D01*
X60619047Y19204762D01*
X60428571Y19204762D01*
X60238095Y19109524D01*
X60142857Y18919048D01*
X60142857Y18442858D01*
X60047619Y18252381D01*
X60904761Y17300000D02*
X59571428Y17300000D01*
X59952380Y17300000D02*
X59761904Y17204762D01*
X59666666Y17109524D01*
X59571428Y16919048D01*
X59571428Y16728572D01*
X59571428Y15204762D02*
X61190476Y15204762D01*
X61380952Y15300000D01*
X61476190Y15395239D01*
X61571428Y15585715D01*
X61571428Y15871429D01*
X61476190Y16061905D01*
X60809523Y15204762D02*
X60904761Y15395239D01*
X60904761Y15776191D01*
X60809523Y15966667D01*
X60714285Y16061905D01*
X60523809Y16157143D01*
X59952380Y16157143D01*
X59761904Y16061905D01*
X59666666Y15966667D01*
X59571428Y15776191D01*
X59571428Y15395239D01*
X59666666Y15204762D01*
X60809523Y13490477D02*
X60904761Y13680953D01*
X60904761Y14061905D01*
X60809523Y14252381D01*
X60619047Y14347620D01*
X59857142Y14347620D01*
X59666666Y14252381D01*
X59571428Y14061905D01*
X59571428Y13680953D01*
X59666666Y13490477D01*
X59857142Y13395239D01*
X60047619Y13395239D01*
X60238095Y14347620D01*
X60904761Y12538096D02*
X59571428Y12538096D01*
X59952380Y12538096D02*
X59761904Y12442858D01*
X59666666Y12347620D01*
X59571428Y12157143D01*
X59571428Y11966667D01*
X60904761Y11300000D02*
X59571428Y11300000D01*
X58904761Y11300000D02*
X59000000Y11395239D01*
X59095238Y11300000D01*
X59000000Y11204762D01*
X58904761Y11300000D01*
X59095238Y11300000D01*
X59571428Y10347620D02*
X60904761Y10347620D01*
X59761904Y10347620D02*
X59666666Y10252381D01*
X59571428Y10061905D01*
X59571428Y9776191D01*
X59666666Y9585715D01*
X59857142Y9490477D01*
X60904761Y9490477D01*
X59571428Y7680953D02*
X61190476Y7680953D01*
X61380952Y7776191D01*
X61476190Y7871429D01*
X61571428Y8061905D01*
X61571428Y8347620D01*
X61476190Y8538096D01*
X60809523Y7680953D02*
X60904761Y7871429D01*
X60904761Y8252381D01*
X60809523Y8442858D01*
X60714285Y8538096D01*
X60523809Y8633334D01*
X59952380Y8633334D01*
X59761904Y8538096D01*
X59666666Y8442858D01*
X59571428Y8252381D01*
X59571428Y7871429D01*
X59666666Y7680953D01*
D12*
%TO.C,F2*%
X65057142Y68326000D02*
X65057142Y68834000D01*
X65855428Y68834000D02*
X64331428Y68834000D01*
X64331428Y68108286D01*
X64476571Y67600286D02*
X64404000Y67527715D01*
X64331428Y67382572D01*
X64331428Y67019715D01*
X64404000Y66874572D01*
X64476571Y66802000D01*
X64621714Y66729429D01*
X64766857Y66729429D01*
X64984571Y66802000D01*
X65855428Y67672858D01*
X65855428Y66729429D01*
D13*
%TO.C,C5*%
X84748666Y26185858D02*
X84796285Y26138239D01*
X84939142Y26090620D01*
X85034380Y26090620D01*
X85177238Y26138239D01*
X85272476Y26233477D01*
X85320095Y26328715D01*
X85367714Y26519191D01*
X85367714Y26662048D01*
X85320095Y26852524D01*
X85272476Y26947762D01*
X85177238Y27043000D01*
X85034380Y27090620D01*
X84939142Y27090620D01*
X84796285Y27043000D01*
X84748666Y26995381D01*
X83843904Y27090620D02*
X84320095Y27090620D01*
X84367714Y26614429D01*
X84320095Y26662048D01*
X84224857Y26709667D01*
X83986761Y26709667D01*
X83891523Y26662048D01*
X83843904Y26614429D01*
X83796285Y26519191D01*
X83796285Y26281096D01*
X83843904Y26185858D01*
X83891523Y26138239D01*
X83986761Y26090620D01*
X84224857Y26090620D01*
X84320095Y26138239D01*
X84367714Y26185858D01*
D12*
%TO.C,F7*%
X34943142Y10668000D02*
X34943142Y11176000D01*
X35741428Y11176000D02*
X34217428Y11176000D01*
X34217428Y10450286D01*
X34217428Y10014858D02*
X34217428Y8998858D01*
X35741428Y9652000D01*
D13*
%TO.C,J2*%
X96226380Y64214334D02*
X96940666Y64214334D01*
X97083523Y64261953D01*
X97178761Y64357191D01*
X97226380Y64500048D01*
X97226380Y64595286D01*
X96321619Y63785762D02*
X96274000Y63738143D01*
X96226380Y63642905D01*
X96226380Y63404810D01*
X96274000Y63309572D01*
X96321619Y63261953D01*
X96416857Y63214334D01*
X96512095Y63214334D01*
X96654952Y63261953D01*
X97226380Y63833381D01*
X97226380Y63214334D01*
D12*
%TO.C,F4*%
X80957142Y75350000D02*
X80957142Y75858000D01*
X81755428Y75858000D02*
X80231428Y75858000D01*
X80231428Y75132286D01*
X80739428Y73898572D02*
X81755428Y73898572D01*
X80158857Y74261429D02*
X81247428Y74624286D01*
X81247428Y73680858D01*
%TO.C,F8*%
X24657142Y67691000D02*
X24657142Y68199000D01*
X25455428Y68199000D02*
X23931428Y68199000D01*
X23931428Y67473286D01*
X24584571Y66675000D02*
X24512000Y66820143D01*
X24439428Y66892715D01*
X24294285Y66965286D01*
X24221714Y66965286D01*
X24076571Y66892715D01*
X24004000Y66820143D01*
X23931428Y66675000D01*
X23931428Y66384715D01*
X24004000Y66239572D01*
X24076571Y66167000D01*
X24221714Y66094429D01*
X24294285Y66094429D01*
X24439428Y66167000D01*
X24512000Y66239572D01*
X24584571Y66384715D01*
X24584571Y66675000D01*
X24657142Y66820143D01*
X24729714Y66892715D01*
X24874857Y66965286D01*
X25165142Y66965286D01*
X25310285Y66892715D01*
X25382857Y66820143D01*
X25455428Y66675000D01*
X25455428Y66384715D01*
X25382857Y66239572D01*
X25310285Y66167000D01*
X25165142Y66094429D01*
X24874857Y66094429D01*
X24729714Y66167000D01*
X24657142Y66239572D01*
X24584571Y66384715D01*
D13*
%TO.C,R3*%
X72683666Y30027620D02*
X73017000Y30503810D01*
X73255095Y30027620D02*
X73255095Y31027620D01*
X72874142Y31027620D01*
X72778904Y30980000D01*
X72731285Y30932381D01*
X72683666Y30837143D01*
X72683666Y30694286D01*
X72731285Y30599048D01*
X72778904Y30551429D01*
X72874142Y30503810D01*
X73255095Y30503810D01*
X72350333Y31027620D02*
X71731285Y31027620D01*
X72064619Y30646667D01*
X71921761Y30646667D01*
X71826523Y30599048D01*
X71778904Y30551429D01*
X71731285Y30456191D01*
X71731285Y30218096D01*
X71778904Y30122858D01*
X71826523Y30075239D01*
X71921761Y30027620D01*
X72207476Y30027620D01*
X72302714Y30075239D01*
X72350333Y30122858D01*
D12*
%TO.C,F6*%
X15657142Y68326000D02*
X15657142Y68834000D01*
X16455428Y68834000D02*
X14931428Y68834000D01*
X14931428Y68108286D01*
X14931428Y66874572D02*
X14931428Y67164858D01*
X15004000Y67310000D01*
X15076571Y67382572D01*
X15294285Y67527715D01*
X15584571Y67600286D01*
X16165142Y67600286D01*
X16310285Y67527715D01*
X16382857Y67455143D01*
X16455428Y67310000D01*
X16455428Y67019715D01*
X16382857Y66874572D01*
X16310285Y66802000D01*
X16165142Y66729429D01*
X15802285Y66729429D01*
X15657142Y66802000D01*
X15584571Y66874572D01*
X15512000Y67019715D01*
X15512000Y67310000D01*
X15584571Y67455143D01*
X15657142Y67527715D01*
X15802285Y67600286D01*
D13*
%TO.C,C4*%
X72556666Y27582858D02*
X72604285Y27535239D01*
X72747142Y27487620D01*
X72842380Y27487620D01*
X72985238Y27535239D01*
X73080476Y27630477D01*
X73128095Y27725715D01*
X73175714Y27916191D01*
X73175714Y28059048D01*
X73128095Y28249524D01*
X73080476Y28344762D01*
X72985238Y28440000D01*
X72842380Y28487620D01*
X72747142Y28487620D01*
X72604285Y28440000D01*
X72556666Y28392381D01*
X71699523Y28154286D02*
X71699523Y27487620D01*
X71937619Y28535239D02*
X72175714Y27820953D01*
X71556666Y27820953D01*
D12*
%TO.C,F9*%
X54247142Y10541000D02*
X54247142Y11049000D01*
X55045428Y11049000D02*
X53521428Y11049000D01*
X53521428Y10323286D01*
X55045428Y9670143D02*
X55045428Y9379858D01*
X54972857Y9234715D01*
X54900285Y9162143D01*
X54682571Y9017000D01*
X54392285Y8944429D01*
X53811714Y8944429D01*
X53666571Y9017000D01*
X53594000Y9089572D01*
X53521428Y9234715D01*
X53521428Y9525000D01*
X53594000Y9670143D01*
X53666571Y9742715D01*
X53811714Y9815286D01*
X54174571Y9815286D01*
X54319714Y9742715D01*
X54392285Y9670143D01*
X54464857Y9525000D01*
X54464857Y9234715D01*
X54392285Y9089572D01*
X54319714Y9017000D01*
X54174571Y8944429D01*
D13*
%TO.C,R1*%
X72707166Y34599620D02*
X73040500Y35075810D01*
X73278595Y34599620D02*
X73278595Y35599620D01*
X72897642Y35599620D01*
X72802404Y35552000D01*
X72754785Y35504381D01*
X72707166Y35409143D01*
X72707166Y35266286D01*
X72754785Y35171048D01*
X72802404Y35123429D01*
X72897642Y35075810D01*
X73278595Y35075810D01*
X71754785Y34599620D02*
X72326214Y34599620D01*
X72040500Y34599620D02*
X72040500Y35599620D01*
X72135738Y35456762D01*
X72230976Y35361524D01*
X72326214Y35313905D01*
%TO.C,C7*%
X85256666Y31646858D02*
X85304285Y31599239D01*
X85447142Y31551620D01*
X85542380Y31551620D01*
X85685238Y31599239D01*
X85780476Y31694477D01*
X85828095Y31789715D01*
X85875714Y31980191D01*
X85875714Y32123048D01*
X85828095Y32313524D01*
X85780476Y32408762D01*
X85685238Y32504000D01*
X85542380Y32551620D01*
X85447142Y32551620D01*
X85304285Y32504000D01*
X85256666Y32456381D01*
X84923333Y32551620D02*
X84256666Y32551620D01*
X84685238Y31551620D01*
D12*
%TO.C,F10*%
X44057142Y68416715D02*
X44057142Y68924715D01*
X44855428Y68924715D02*
X43331428Y68924715D01*
X43331428Y68199000D01*
X44855428Y66820143D02*
X44855428Y67691000D01*
X44855428Y67255572D02*
X43331428Y67255572D01*
X43549142Y67400715D01*
X43694285Y67545858D01*
X43766857Y67691000D01*
X43331428Y65876715D02*
X43331428Y65731572D01*
X43404000Y65586429D01*
X43476571Y65513858D01*
X43621714Y65441286D01*
X43912000Y65368715D01*
X44274857Y65368715D01*
X44565142Y65441286D01*
X44710285Y65513858D01*
X44782857Y65586429D01*
X44855428Y65731572D01*
X44855428Y65876715D01*
X44782857Y66021858D01*
X44710285Y66094429D01*
X44565142Y66167000D01*
X44274857Y66239572D01*
X43912000Y66239572D01*
X43621714Y66167000D01*
X43476571Y66094429D01*
X43404000Y66021858D01*
X43331428Y65876715D01*
D13*
%TO.C,JP1*%
X76921333Y16597620D02*
X76921333Y15883334D01*
X76968952Y15740477D01*
X77064190Y15645239D01*
X77207047Y15597620D01*
X77302285Y15597620D01*
X76445142Y15597620D02*
X76445142Y16597620D01*
X76064190Y16597620D01*
X75968952Y16550000D01*
X75921333Y16502381D01*
X75873714Y16407143D01*
X75873714Y16264286D01*
X75921333Y16169048D01*
X75968952Y16121429D01*
X76064190Y16073810D01*
X76445142Y16073810D01*
X74921333Y15597620D02*
X75492761Y15597620D01*
X75207047Y15597620D02*
X75207047Y16597620D01*
X75302285Y16454762D01*
X75397523Y16359524D01*
X75492761Y16311905D01*
%TO.C,C3*%
X73353142Y25058667D02*
X73400761Y25106286D01*
X73448380Y25249143D01*
X73448380Y25344381D01*
X73400761Y25487239D01*
X73305523Y25582477D01*
X73210285Y25630096D01*
X73019809Y25677715D01*
X72876952Y25677715D01*
X72686476Y25630096D01*
X72591238Y25582477D01*
X72496000Y25487239D01*
X72448380Y25344381D01*
X72448380Y25249143D01*
X72496000Y25106286D01*
X72543619Y25058667D01*
X72448380Y24725334D02*
X72448380Y24106286D01*
X72829333Y24439620D01*
X72829333Y24296762D01*
X72876952Y24201524D01*
X72924571Y24153905D01*
X73019809Y24106286D01*
X73257904Y24106286D01*
X73353142Y24153905D01*
X73400761Y24201524D01*
X73448380Y24296762D01*
X73448380Y24582477D01*
X73400761Y24677715D01*
X73353142Y24725334D01*
D12*
%TO.C,L1*%
X89843428Y22860000D02*
X89843428Y23585715D01*
X88319428Y23585715D01*
X89843428Y21553715D02*
X89843428Y22424572D01*
X89843428Y21989143D02*
X88319428Y21989143D01*
X88537142Y22134286D01*
X88682285Y22279429D01*
X88754857Y22424572D01*
D13*
%TO.C,C6*%
X85383666Y29995858D02*
X85431285Y29948239D01*
X85574142Y29900620D01*
X85669380Y29900620D01*
X85812238Y29948239D01*
X85907476Y30043477D01*
X85955095Y30138715D01*
X86002714Y30329191D01*
X86002714Y30472048D01*
X85955095Y30662524D01*
X85907476Y30757762D01*
X85812238Y30853000D01*
X85669380Y30900620D01*
X85574142Y30900620D01*
X85431285Y30853000D01*
X85383666Y30805381D01*
X84526523Y30900620D02*
X84717000Y30900620D01*
X84812238Y30853000D01*
X84859857Y30805381D01*
X84955095Y30662524D01*
X85002714Y30472048D01*
X85002714Y30091096D01*
X84955095Y29995858D01*
X84907476Y29948239D01*
X84812238Y29900620D01*
X84621761Y29900620D01*
X84526523Y29948239D01*
X84478904Y29995858D01*
X84431285Y30091096D01*
X84431285Y30329191D01*
X84478904Y30424429D01*
X84526523Y30472048D01*
X84621761Y30519667D01*
X84812238Y30519667D01*
X84907476Y30472048D01*
X84955095Y30424429D01*
X85002714Y30329191D01*
D12*
%TO.C,F3*%
X84241142Y10688000D02*
X84241142Y11196000D01*
X85039428Y11196000D02*
X83515428Y11196000D01*
X83515428Y10470286D01*
X83515428Y10034858D02*
X83515428Y9091429D01*
X84096000Y9599429D01*
X84096000Y9381715D01*
X84168571Y9236572D01*
X84241142Y9164000D01*
X84386285Y9091429D01*
X84749142Y9091429D01*
X84894285Y9164000D01*
X84966857Y9236572D01*
X85039428Y9381715D01*
X85039428Y9817143D01*
X84966857Y9962286D01*
X84894285Y10034858D01*
D13*
%TO.C,C1*%
X83097666Y13993858D02*
X83145285Y13946239D01*
X83288142Y13898620D01*
X83383380Y13898620D01*
X83526238Y13946239D01*
X83621476Y14041477D01*
X83669095Y14136715D01*
X83716714Y14327191D01*
X83716714Y14470048D01*
X83669095Y14660524D01*
X83621476Y14755762D01*
X83526238Y14851000D01*
X83383380Y14898620D01*
X83288142Y14898620D01*
X83145285Y14851000D01*
X83097666Y14803381D01*
X82145285Y13898620D02*
X82716714Y13898620D01*
X82431000Y13898620D02*
X82431000Y14898620D01*
X82526238Y14755762D01*
X82621476Y14660524D01*
X82716714Y14612905D01*
%TO.C,R2*%
X72683666Y32186620D02*
X73017000Y32662810D01*
X73255095Y32186620D02*
X73255095Y33186620D01*
X72874142Y33186620D01*
X72778904Y33139000D01*
X72731285Y33091381D01*
X72683666Y32996143D01*
X72683666Y32853286D01*
X72731285Y32758048D01*
X72778904Y32710429D01*
X72874142Y32662810D01*
X73255095Y32662810D01*
X72302714Y33091381D02*
X72255095Y33139000D01*
X72159857Y33186620D01*
X71921761Y33186620D01*
X71826523Y33139000D01*
X71778904Y33091381D01*
X71731285Y32996143D01*
X71731285Y32900905D01*
X71778904Y32758048D01*
X72350333Y32186620D01*
X71731285Y32186620D01*
%TO.C,X1*%
X81240380Y23415524D02*
X82240380Y22748858D01*
X81240380Y22748858D02*
X82240380Y23415524D01*
X82240380Y21844096D02*
X82240380Y22415524D01*
X82240380Y22129810D02*
X81240380Y22129810D01*
X81383238Y22225048D01*
X81478476Y22320286D01*
X81526095Y22415524D01*
%TO.C,J1*%
X95618380Y14375334D02*
X96332666Y14375334D01*
X96475523Y14422953D01*
X96570761Y14518191D01*
X96618380Y14661048D01*
X96618380Y14756286D01*
X96618380Y13375334D02*
X96618380Y13946762D01*
X96618380Y13661048D02*
X95618380Y13661048D01*
X95761238Y13756286D01*
X95856476Y13851524D01*
X95904095Y13946762D01*
%TO.C,J3*%
X100126380Y50573334D02*
X100840666Y50573334D01*
X100983523Y50620953D01*
X101078761Y50716191D01*
X101126380Y50859048D01*
X101126380Y50954286D01*
X100126380Y50192381D02*
X100126380Y49573334D01*
X100507333Y49906667D01*
X100507333Y49763810D01*
X100554952Y49668572D01*
X100602571Y49620953D01*
X100697809Y49573334D01*
X100935904Y49573334D01*
X101031142Y49620953D01*
X101078761Y49668572D01*
X101126380Y49763810D01*
X101126380Y50049524D01*
X101078761Y50144762D01*
X101031142Y50192381D01*
D12*
%TO.C,F5*%
X15591142Y10815000D02*
X15591142Y11323000D01*
X16389428Y11323000D02*
X14865428Y11323000D01*
X14865428Y10597286D01*
X14865428Y9291000D02*
X14865428Y10016715D01*
X15591142Y10089286D01*
X15518571Y10016715D01*
X15446000Y9871572D01*
X15446000Y9508715D01*
X15518571Y9363572D01*
X15591142Y9291000D01*
X15736285Y9218429D01*
X16099142Y9218429D01*
X16244285Y9291000D01*
X16316857Y9363572D01*
X16389428Y9508715D01*
X16389428Y9871572D01*
X16316857Y10016715D01*
X16244285Y10089286D01*
%TO.C,F1*%
X75541142Y10688000D02*
X75541142Y11196000D01*
X76339428Y11196000D02*
X74815428Y11196000D01*
X74815428Y10470286D01*
X76339428Y9091429D02*
X76339428Y9962286D01*
X76339428Y9526858D02*
X74815428Y9526858D01*
X75033142Y9672000D01*
X75178285Y9817143D01*
X75250857Y9962286D01*
%TO.C,F11*%
X77191142Y39183715D02*
X77191142Y39691715D01*
X77989428Y39691715D02*
X76465428Y39691715D01*
X76465428Y38966000D01*
X77989428Y37587143D02*
X77989428Y38458000D01*
X77989428Y38022572D02*
X76465428Y38022572D01*
X76683142Y38167715D01*
X76828285Y38312858D01*
X76900857Y38458000D01*
X77989428Y36135715D02*
X77989428Y37006572D01*
X77989428Y36571143D02*
X76465428Y36571143D01*
X76683142Y36716286D01*
X76828285Y36861429D01*
X76900857Y37006572D01*
D13*
%TO.C,F2*%
X63388000Y74041000D02*
X63388000Y71755000D01*
X66944000Y74041000D02*
X66944000Y71755000D01*
D14*
%TO.C,C5*%
X80525252Y28167000D02*
X80002748Y28167000D01*
X80525252Y26697000D02*
X80002748Y26697000D01*
D13*
%TO.C,F7*%
X36830000Y6223000D02*
X36830000Y3937000D01*
X33274000Y6223000D02*
X33274000Y3937000D01*
D14*
%TO.C,C2*%
X80525252Y17299000D02*
X80002748Y17299000D01*
X80525252Y18769000D02*
X80002748Y18769000D01*
%TO.C,J2*%
X95064000Y60611000D02*
X94074000Y60611000D01*
X96514000Y62411000D02*
X95064000Y62411000D01*
X96514000Y55191000D02*
X95064000Y55191000D01*
X99334000Y61141000D02*
X99334000Y56461000D01*
X95064000Y62411000D02*
X95064000Y60611000D01*
X95064000Y55191000D02*
X95064000Y56991000D01*
D13*
%TO.C,F4*%
X86144000Y74041000D02*
X86144000Y71755000D01*
X82588000Y74041000D02*
X82588000Y71755000D01*
%TO.C,F8*%
X22988000Y74041000D02*
X22988000Y71755000D01*
X26544000Y74041000D02*
X26544000Y71755000D01*
D14*
%TO.C,R3*%
X76076436Y31215000D02*
X76530564Y31215000D01*
X76076436Y29745000D02*
X76530564Y29745000D01*
D13*
%TO.C,F6*%
X13988000Y74041000D02*
X13988000Y71755000D01*
X17544000Y74041000D02*
X17544000Y71755000D01*
D14*
%TO.C,C4*%
X76564752Y27205000D02*
X76042248Y27205000D01*
X76564752Y28675000D02*
X76042248Y28675000D01*
D13*
%TO.C,F9*%
X52578000Y6223000D02*
X52578000Y3937000D01*
X56134000Y6223000D02*
X56134000Y3937000D01*
D14*
%TO.C,R1*%
X76099936Y34317000D02*
X76554064Y34317000D01*
X76099936Y35787000D02*
X76554064Y35787000D01*
%TO.C,C7*%
X80525252Y32739000D02*
X80002748Y32739000D01*
X80525252Y31269000D02*
X80002748Y31269000D01*
D13*
%TO.C,F10*%
X45944000Y74041000D02*
X45944000Y71755000D01*
X42388000Y74041000D02*
X42388000Y71755000D01*
D14*
%TO.C,JP1*%
X77488000Y17734000D02*
X77488000Y18334000D01*
X74688000Y18334000D02*
X74688000Y17734000D01*
X75388000Y17034000D02*
X76788000Y17034000D01*
X76788000Y19034000D02*
X75388000Y19034000D01*
X77488000Y18334000D02*
G75*
G03*
X76788000Y19034000I-700000J0D01*
G01*
X74688000Y17734000D02*
G75*
G03*
X75388000Y17034000I699999J-1D01*
G01*
X76788000Y17034000D02*
G75*
G03*
X77488000Y17734000I0J700000D01*
G01*
X75388000Y19034000D02*
G75*
G03*
X74688000Y18334000I-1J-699999D01*
G01*
%TO.C,C3*%
X73941000Y25153252D02*
X73941000Y24630748D01*
X75411000Y25153252D02*
X75411000Y24630748D01*
%TO.C,G1*%
G36*
X19085307Y27057680D02*
G01*
X19325168Y26902290D01*
X19498326Y26647500D01*
X19531786Y26551890D01*
X19581651Y26267616D01*
X19592097Y25944607D01*
X19563267Y25640710D01*
X19495302Y25413771D01*
X19327150Y25175158D01*
X19055924Y24985321D01*
X18728227Y24919900D01*
X18615393Y24924445D01*
X18396985Y24976260D01*
X18215426Y25102399D01*
X18046820Y25323400D01*
X17867269Y25659801D01*
X17805599Y25784438D01*
X17653364Y26048955D01*
X17524644Y26191805D01*
X17408070Y26222707D01*
X17292272Y26151381D01*
X17211879Y26022508D01*
X17181068Y25796661D01*
X17237374Y25564640D01*
X17374895Y25381435D01*
X17408601Y25353267D01*
X17530733Y25191082D01*
X17564342Y24969889D01*
X17555362Y24810791D01*
X17508570Y24728083D01*
X17398390Y24709403D01*
X17348971Y24713409D01*
X17133164Y24800253D01*
X16920763Y24974887D01*
X16756034Y25203274D01*
X16718986Y25300904D01*
X16670976Y25535934D01*
X16652188Y25796972D01*
X16656224Y25929940D01*
X16728522Y26311781D01*
X16889270Y26588734D01*
X17135749Y26757398D01*
X17465244Y26814375D01*
X17530874Y26812617D01*
X17769262Y26763034D01*
X17969237Y26631369D01*
X18152035Y26398973D01*
X18338897Y26047194D01*
X18393859Y25932655D01*
X18531064Y25683857D01*
X18648588Y25547546D01*
X18763908Y25508074D01*
X18894503Y25549793D01*
X18907319Y25557119D01*
X19033289Y25704102D01*
X19089121Y25916232D01*
X19076828Y26145761D01*
X18998420Y26344938D01*
X18855909Y26466018D01*
X18764765Y26514204D01*
X18702498Y26618464D01*
X18686994Y26812639D01*
X18687232Y26862298D01*
X18701296Y27018180D01*
X18757007Y27082469D01*
X18881879Y27095038D01*
X19085307Y27057680D01*
G37*
G36*
X17003016Y38040895D02*
G01*
X17001380Y38024452D01*
X16944383Y37970729D01*
X16910058Y37953141D01*
X16787874Y37858054D01*
X16605251Y37699014D01*
X16387010Y37497110D01*
X16358657Y37470053D01*
X16086633Y37188829D01*
X15880352Y36918262D01*
X15719153Y36620862D01*
X15582375Y36259135D01*
X15449359Y35795591D01*
X15381388Y35470079D01*
X15323513Y34952739D01*
X15308179Y34398005D01*
X15333444Y33840644D01*
X15397365Y33315422D01*
X15498001Y32857105D01*
X15633410Y32500458D01*
X15826160Y32205126D01*
X16132479Y31912045D01*
X16485601Y31722893D01*
X16859200Y31655812D01*
X16957952Y31660060D01*
X17215528Y31733582D01*
X17366984Y31895950D01*
X17411483Y32143922D01*
X17348187Y32474257D01*
X17176260Y32883712D01*
X17152912Y32930632D01*
X16912441Y33563989D01*
X16811929Y34196496D01*
X16851059Y34830060D01*
X16892428Y35038132D01*
X17048693Y35581669D01*
X17265501Y36119628D01*
X17527911Y36625202D01*
X17820981Y37071583D01*
X18129769Y37431965D01*
X18439332Y37679539D01*
X18551228Y37743352D01*
X19052997Y37951244D01*
X19535723Y38020208D01*
X19998567Y37950343D01*
X20440693Y37741748D01*
X20861262Y37394521D01*
X20874148Y37381324D01*
X21190435Y36983262D01*
X21440893Y36501511D01*
X21638913Y35910520D01*
X21694032Y35628591D01*
X21737126Y35199819D01*
X21756473Y34706391D01*
X21752515Y34188187D01*
X21725697Y33685085D01*
X21676462Y33236967D01*
X21605253Y32883712D01*
X21568446Y32758534D01*
X21302216Y32088229D01*
X20950535Y31527984D01*
X20514129Y31078764D01*
X19993723Y30741531D01*
X19780184Y30642234D01*
X19615691Y30579839D01*
X19539368Y30569552D01*
X19548833Y30597515D01*
X19636973Y30704182D01*
X19796816Y30868064D01*
X20007779Y31067291D01*
X20078181Y31132251D01*
X20410663Y31470243D01*
X20654951Y31792527D01*
X20840350Y32143603D01*
X20996170Y32567967D01*
X21047394Y32744464D01*
X21169345Y33368453D01*
X21224605Y34040710D01*
X21213241Y34718266D01*
X21135321Y35358148D01*
X20990912Y35917384D01*
X20873384Y36191105D01*
X20645445Y36540501D01*
X20372909Y36805428D01*
X20074290Y36976404D01*
X19768104Y37043948D01*
X19472866Y36998580D01*
X19207091Y36830818D01*
X19121940Y36730743D01*
X19047989Y36512756D01*
X19087743Y36243942D01*
X19241763Y35909381D01*
X19289871Y35821285D01*
X19534507Y35207772D01*
X19657160Y34539401D01*
X19656263Y33831439D01*
X19530247Y33099151D01*
X19405633Y32711209D01*
X19131750Y32147449D01*
X18774234Y31639494D01*
X18353680Y31214948D01*
X17890682Y30901416D01*
X17495496Y30758184D01*
X17058338Y30703401D01*
X16629335Y30738858D01*
X16257229Y30865624D01*
X16225519Y30882737D01*
X15795887Y31195752D01*
X15421140Y31622890D01*
X15115121Y32145112D01*
X14891674Y32743381D01*
X14853203Y32931106D01*
X14815262Y33283105D01*
X14793895Y33713127D01*
X14788738Y34185800D01*
X14799429Y34665753D01*
X14825606Y35117616D01*
X14866906Y35506019D01*
X14922965Y35795591D01*
X14986702Y36002042D01*
X15124267Y36364175D01*
X15283039Y36708835D01*
X15444158Y36996580D01*
X15588763Y37187967D01*
X15682510Y37293384D01*
X15748804Y37395800D01*
X15757470Y37409669D01*
X15853381Y37498528D01*
X16028902Y37633224D01*
X16254226Y37790483D01*
X16273775Y37803503D01*
X16575449Y37986205D01*
X16805267Y38089252D01*
X16951649Y38108773D01*
X17003016Y38040895D01*
G37*
G36*
X17213514Y23871860D02*
G01*
X17217175Y23734665D01*
X17246261Y23568515D01*
X17307815Y23516585D01*
X17339168Y23519675D01*
X17493964Y23544770D01*
X17747004Y23590996D01*
X18071688Y23653413D01*
X18441414Y23727083D01*
X18629830Y23765163D01*
X18969399Y23833347D01*
X19244702Y23888032D01*
X19431323Y23924387D01*
X19504847Y23937580D01*
X19511588Y23925354D01*
X19524044Y23816445D01*
X19528983Y23631397D01*
X19528983Y23325215D01*
X17219745Y22867203D01*
X17199088Y22437612D01*
X17195176Y22357708D01*
X17179302Y22155089D01*
X17145620Y22048497D01*
X17075070Y22003559D01*
X16948587Y21985900D01*
X16718743Y21963779D01*
X16738090Y23073469D01*
X16757436Y24183160D01*
X17213514Y24227134D01*
X17213514Y23871860D01*
G37*
G36*
X18886317Y29831408D02*
G01*
X19048940Y29776481D01*
X19242908Y29646205D01*
X19420693Y29478425D01*
X19534767Y29310982D01*
X19563595Y29173275D01*
X19580258Y28943166D01*
X19580265Y28673458D01*
X19546273Y28341855D01*
X19433538Y28008472D01*
X19231367Y27760489D01*
X18927021Y27576513D01*
X18819715Y27537564D01*
X18580584Y27467913D01*
X18267735Y27387142D01*
X17916032Y27303209D01*
X17560338Y27224073D01*
X17235517Y27157693D01*
X16976434Y27112029D01*
X16817953Y27095038D01*
X16796242Y27098957D01*
X16740233Y27187178D01*
X16722353Y27400065D01*
X16722353Y27705092D01*
X17441552Y27830755D01*
X17926744Y27921464D01*
X18321538Y28011155D01*
X18610014Y28099382D01*
X18809423Y28191474D01*
X18937014Y28292761D01*
X19024540Y28447172D01*
X19068513Y28687398D01*
X19043470Y28928266D01*
X18948551Y29108857D01*
X18941432Y29115887D01*
X18885277Y29159834D01*
X18811293Y29183143D01*
X18695553Y29184295D01*
X18514131Y29161769D01*
X18243101Y29114045D01*
X17858536Y29039602D01*
X17741863Y29016789D01*
X17397585Y28950911D01*
X17108552Y28897706D01*
X16902213Y28862141D01*
X16806021Y28849182D01*
X16790300Y28852973D01*
X16740391Y28947552D01*
X16722353Y29152151D01*
X16722353Y29455120D01*
X17728695Y29643311D01*
X17867802Y29669068D01*
X18226197Y29733023D01*
X18533887Y29784574D01*
X18761845Y29818980D01*
X18881046Y29831502D01*
X18886317Y29831408D01*
G37*
D13*
%TO.C,L1*%
X95654000Y29106000D02*
X95654000Y16106000D01*
X95654000Y16106000D02*
X92154000Y16106000D01*
X92154000Y29106000D02*
X95654000Y29106000D01*
X82654000Y29106000D02*
X86154000Y29106000D01*
X86154000Y16106000D02*
X82654000Y16106000D01*
X82654000Y16106000D02*
X82654000Y29106000D01*
D14*
%TO.C,C6*%
X80525252Y30453000D02*
X80002748Y30453000D01*
X80525252Y28983000D02*
X80002748Y28983000D01*
D13*
%TO.C,F3*%
X86128000Y6243000D02*
X86128000Y3957000D01*
X82572000Y6243000D02*
X82572000Y3957000D01*
D14*
%TO.C,C1*%
X80525252Y16229000D02*
X80002748Y16229000D01*
X80525252Y14759000D02*
X80002748Y14759000D01*
%TO.C,R2*%
X76554064Y32031000D02*
X76099936Y32031000D01*
X76554064Y33501000D02*
X76099936Y33501000D01*
%TO.C,X1*%
X77578000Y24305000D02*
X77328000Y24305000D01*
X80378000Y24305000D02*
X80628000Y24305000D01*
X77328000Y23640000D02*
X77328000Y24305000D01*
X80628000Y21005000D02*
X80628000Y21670000D01*
X80628000Y23640000D02*
X80628000Y24305000D01*
X77328000Y21005000D02*
X77578000Y21005000D01*
X77328000Y21005000D02*
X77328000Y21670000D01*
%TO.C,J1*%
X95064000Y3639000D02*
X95064000Y5439000D01*
X96514000Y12109000D02*
X95064000Y12109000D01*
X95064000Y12109000D02*
X95064000Y10309000D01*
X99334000Y10839000D02*
X99334000Y4909000D01*
X95064000Y10309000D02*
X94074000Y10309000D01*
X96514000Y3639000D02*
X95064000Y3639000D01*
%TO.C,J3*%
X97034000Y53850000D02*
X98484000Y53850000D01*
X97034000Y46630000D02*
X98484000Y46630000D01*
X98484000Y53850000D02*
X98484000Y52050000D01*
X98484000Y48430000D02*
X99474000Y48430000D01*
X98484000Y46630000D02*
X98484000Y48430000D01*
X94214000Y47900000D02*
X94214000Y52580000D01*
D13*
%TO.C,F5*%
X17478000Y6243000D02*
X17478000Y3957000D01*
X13922000Y6243000D02*
X13922000Y3957000D01*
%TO.C,F1*%
X77428000Y6243000D02*
X77428000Y3957000D01*
X73872000Y6243000D02*
X73872000Y3957000D01*
%TO.C,F11*%
X82423000Y36195000D02*
X82423000Y38481000D01*
X78867000Y36195000D02*
X78867000Y38481000D01*
%TD*%
M02*
