%TF.GenerationSoftware,KiCad,Pcbnew,6.0.4-6f826c9f35~116~ubuntu20.04.1*%
%TF.CreationDate,2022-10-18T09:56:38+00:00*%
%TF.ProjectId,UST5BATT18650V01A,55535435-4241-4545-9431-383635305630,rev?*%
%TF.SameCoordinates,PX463f660PY87a6900*%
%TF.FileFunction,Copper,L1,Top*%
%TF.FilePolarity,Positive*%
%FSLAX46Y46*%
G04 Gerber Fmt 4.6, Leading zero omitted, Abs format (unit mm)*
G04 Created by KiCad (PCBNEW 6.0.4-6f826c9f35~116~ubuntu20.04.1) date 2022-10-18 09:56:38*
%MOMM*%
%LPD*%
G01*
G04 APERTURE LIST*
%TA.AperFunction,ComponentPad*%
%ADD10R,4.000000X4.000000*%
%TD*%
%TA.AperFunction,ComponentPad*%
%ADD11C,0.600000*%
%TD*%
%TA.AperFunction,SMDPad,CuDef*%
%ADD12R,2.300000X2.300000*%
%TD*%
%TA.AperFunction,ViaPad*%
%ADD13C,0.800000*%
%TD*%
G04 APERTURE END LIST*
D10*
%TO.P,BT2,1+,+*%
%TO.N,Net-(BT2-Pad1+)*%
X10545000Y2750000D03*
%TO.P,BT2,1-,-*%
%TO.N,GND*%
X10545000Y75250000D03*
%TO.P,BT2,2+,+*%
%TO.N,Net-(BT2-Pad2+)*%
X29845000Y2750000D03*
%TO.P,BT2,2-,-*%
%TO.N,GND*%
X29845000Y75250000D03*
%TO.P,BT2,3+,+*%
%TO.N,Net-(BT2-Pad3+)*%
X49145000Y2750000D03*
%TO.P,BT2,3-,-*%
%TO.N,GND*%
X49145000Y75250000D03*
%TD*%
%TO.P,BT1,1+,+*%
%TO.N,Net-(BT1-Pad1+)*%
X70300000Y2700000D03*
%TO.P,BT1,1-,-*%
%TO.N,GND*%
X70300000Y75300000D03*
%TO.P,BT1,2+,+*%
%TO.N,Net-(BT1-Pad2+)*%
X89600000Y2700000D03*
%TO.P,BT1,2-,-*%
%TO.N,GND*%
X89600000Y75300000D03*
%TD*%
D11*
%TO.P,X1,11,PGND*%
%TO.N,GND*%
X78978000Y22655000D03*
X79478000Y23155000D03*
D12*
X78978000Y22654000D03*
D11*
X78478000Y22155000D03*
X79478000Y22155000D03*
X78478000Y23155000D03*
%TD*%
D13*
%TO.N,GND*%
X83566000Y22225000D03*
X28725090Y71628000D03*
X24649545Y71628000D03*
X85471000Y23114000D03*
X87733905Y42164000D03*
X44692455Y13716000D03*
X56919090Y13716000D03*
X73533000Y21844000D03*
X84455000Y28448000D03*
X87376000Y23114000D03*
X89858265Y71628000D03*
X34751820Y42164000D03*
X76390500Y22733000D03*
X95885005Y42164000D03*
X83947000Y17526000D03*
X16163640Y13716000D03*
X18449640Y42164000D03*
X61329450Y71628000D03*
X82613500Y22225000D03*
X87376000Y22225000D03*
X73914000Y33020000D03*
X88328500Y23114000D03*
X51054000Y42164000D03*
X83185000Y18288000D03*
X74168000Y2032000D03*
X23495000Y2032000D03*
X74485500Y20955000D03*
X71431725Y42164000D03*
X80518000Y19812000D03*
X32465820Y13716000D03*
X74485500Y21844000D03*
X81788000Y33655000D03*
X63436500Y2032000D03*
X83693000Y27686000D03*
X20574000Y2032000D03*
X81407000Y25400000D03*
X89523450Y13716000D03*
X81661000Y23114000D03*
X76390500Y20955000D03*
X44704000Y2032000D03*
X97674550Y13716000D03*
X94869000Y52070000D03*
X83566000Y15494000D03*
X12088095Y13716000D03*
X82550000Y17526000D03*
X89281000Y22225000D03*
X82677000Y27813000D03*
X73914000Y35052000D03*
X80391000Y25400000D03*
X90233500Y22225000D03*
X75507270Y42164000D03*
X83693000Y30861000D03*
X73221270Y13716000D03*
X86423500Y22225000D03*
X97028000Y57023000D03*
X55129545Y42164000D03*
X73914000Y34036000D03*
X66802000Y2032000D03*
X82550000Y16510000D03*
X82677000Y32893000D03*
X49102815Y71628000D03*
X82169000Y26162000D03*
X8012550Y13716000D03*
X81707175Y71628000D03*
X81534000Y19812000D03*
X69145725Y13716000D03*
X73914000Y32004000D03*
X83566000Y23114000D03*
X30676275Y42164000D03*
X76200000Y25019000D03*
X83566000Y16510000D03*
X94869000Y48387000D03*
X42902910Y42164000D03*
X53178360Y71628000D03*
X73533000Y22733000D03*
X84518500Y22225000D03*
X84709000Y16764000D03*
X84518500Y23114000D03*
X82931000Y26924000D03*
X40616910Y13716000D03*
X82677000Y29845000D03*
X85471000Y22225000D03*
X76327000Y26797000D03*
X73914000Y29972000D03*
X77216000Y25019000D03*
X98679000Y60579000D03*
X76073000Y25908000D03*
X26416000Y2032000D03*
X96520000Y2032000D03*
X41846500Y2032000D03*
X53340000Y2032000D03*
X63280635Y42164000D03*
X75438000Y22733000D03*
X93598995Y13716000D03*
X93933820Y71628000D03*
X36876180Y71628000D03*
X75438000Y20955000D03*
X98679000Y57023000D03*
X85782720Y71628000D03*
X91809450Y42164000D03*
X77893333Y2032000D03*
X36541365Y13716000D03*
X83693000Y29845000D03*
X10298550Y42164000D03*
X90233500Y23114000D03*
X52843545Y13716000D03*
X59205090Y42164000D03*
X17653000Y2032000D03*
X82677000Y30861000D03*
X75438000Y21844000D03*
X73556085Y71628000D03*
X46978455Y42164000D03*
X81661000Y22225000D03*
X65070180Y13716000D03*
X20574000Y71628000D03*
X60994635Y13716000D03*
X60071000Y2032000D03*
X14374095Y42164000D03*
X82677000Y28829000D03*
X82550000Y15494000D03*
X57253905Y71628000D03*
X65404995Y71628000D03*
X85447905Y13716000D03*
X96266000Y52070000D03*
X14732000Y2032000D03*
X48768000Y13716000D03*
X36131500Y2032000D03*
X86423500Y23114000D03*
X83693000Y31877000D03*
X40951725Y71628000D03*
X32800635Y71628000D03*
X24314730Y13716000D03*
X77296815Y13716000D03*
X20239185Y13716000D03*
X33274000Y2032000D03*
X69480540Y71628000D03*
X16498455Y71628000D03*
X56705500Y2032000D03*
X96266000Y48387000D03*
X82423000Y19050000D03*
X6223005Y42164000D03*
X93218000Y2032000D03*
X80645000Y33655000D03*
X73914000Y27940000D03*
X38989000Y2032000D03*
X38827365Y42164000D03*
X22525185Y42164000D03*
X82613500Y23114000D03*
X97028000Y60579000D03*
X76962000Y25908000D03*
X81372360Y13716000D03*
X26600730Y42164000D03*
X45027270Y71628000D03*
X81618666Y2032000D03*
X76390500Y21844000D03*
X89281000Y23114000D03*
X4271820Y71628000D03*
X67356180Y42164000D03*
X73533000Y20955000D03*
X28390275Y13716000D03*
X88328500Y22225000D03*
X83693000Y32893000D03*
X73914000Y28956000D03*
X85344000Y2032000D03*
X77631630Y71628000D03*
X8347365Y71628000D03*
X83693000Y28829000D03*
X82677000Y31877000D03*
X74485500Y22733000D03*
X73914000Y30988000D03*
X12422910Y71628000D03*
%TD*%
%TA.AperFunction,Conductor*%
%TO.N,GND*%
G36*
X8233433Y77480593D02*
G01*
X8269397Y77431093D01*
X8269397Y77369907D01*
X8265788Y77360470D01*
X8251000Y77327020D01*
X8247127Y77312815D01*
X8245332Y77297420D01*
X8245000Y77291708D01*
X8245000Y75415680D01*
X8249122Y75402995D01*
X8253243Y75400000D01*
X12829320Y75400000D01*
X12842005Y75404122D01*
X12845000Y75408243D01*
X12845000Y77291639D01*
X12844654Y77297485D01*
X12842766Y77313353D01*
X12838872Y77327519D01*
X12824306Y77360312D01*
X12817963Y77421168D01*
X12848602Y77474129D01*
X12904520Y77498967D01*
X12914782Y77499500D01*
X27475242Y77499500D01*
X27533433Y77480593D01*
X27569397Y77431093D01*
X27569397Y77369907D01*
X27565788Y77360470D01*
X27551000Y77327020D01*
X27547127Y77312815D01*
X27545332Y77297420D01*
X27545000Y77291708D01*
X27545000Y75415680D01*
X27549122Y75402995D01*
X27553243Y75400000D01*
X32129320Y75400000D01*
X32142005Y75404122D01*
X32145000Y75408243D01*
X32145000Y77291639D01*
X32144654Y77297485D01*
X32142766Y77313353D01*
X32138872Y77327519D01*
X32124306Y77360312D01*
X32117963Y77421168D01*
X32148602Y77474129D01*
X32204520Y77498967D01*
X32214782Y77499500D01*
X46775242Y77499500D01*
X46833433Y77480593D01*
X46869397Y77431093D01*
X46869397Y77369907D01*
X46865788Y77360470D01*
X46851000Y77327020D01*
X46847127Y77312815D01*
X46845332Y77297420D01*
X46845000Y77291708D01*
X46845000Y75415680D01*
X46849122Y75402995D01*
X46853243Y75400000D01*
X51429320Y75400000D01*
X51442005Y75404122D01*
X51445000Y75408243D01*
X51445000Y77291639D01*
X51444654Y77297485D01*
X51442766Y77313353D01*
X51438872Y77327519D01*
X51424306Y77360312D01*
X51417963Y77421168D01*
X51448602Y77474129D01*
X51504520Y77498967D01*
X51514782Y77499500D01*
X67909787Y77499500D01*
X67967978Y77480593D01*
X68003942Y77431093D01*
X68005301Y77374461D01*
X68002127Y77362819D01*
X68000332Y77347420D01*
X68000000Y77341708D01*
X68000000Y75465680D01*
X68004122Y75452995D01*
X68008243Y75450000D01*
X72584320Y75450000D01*
X72597005Y75454122D01*
X72600000Y75458243D01*
X72600000Y77341639D01*
X72599654Y77347485D01*
X72597766Y77363351D01*
X72594767Y77374261D01*
X72597576Y77435382D01*
X72635774Y77483179D01*
X72690227Y77499500D01*
X87209787Y77499500D01*
X87267978Y77480593D01*
X87303942Y77431093D01*
X87305301Y77374461D01*
X87302127Y77362819D01*
X87300332Y77347420D01*
X87300000Y77341708D01*
X87300000Y75465680D01*
X87304122Y75452995D01*
X87308243Y75450000D01*
X91884320Y75450000D01*
X91897005Y75454122D01*
X91900000Y75458243D01*
X91900000Y77341639D01*
X91899654Y77347485D01*
X91897766Y77363351D01*
X91894767Y77374261D01*
X91897576Y77435382D01*
X91935774Y77483179D01*
X91990227Y77499500D01*
X99400500Y77499500D01*
X99458691Y77480593D01*
X99494655Y77431093D01*
X99499500Y77400500D01*
X99499500Y599500D01*
X99480593Y541309D01*
X99431093Y505345D01*
X99400500Y500500D01*
X91990739Y500500D01*
X91932548Y519407D01*
X91896584Y568907D01*
X91895248Y624566D01*
X91897506Y629673D01*
X91898656Y639530D01*
X91900168Y652506D01*
X91900168Y652507D01*
X91900500Y655354D01*
X91900500Y4744646D01*
X91897382Y4770846D01*
X91851939Y4873153D01*
X91772713Y4952241D01*
X91743591Y4965116D01*
X91677136Y4994496D01*
X91677134Y4994496D01*
X91670327Y4997506D01*
X91656322Y4999139D01*
X91647494Y5000168D01*
X91647493Y5000168D01*
X91644646Y5000500D01*
X87555354Y5000500D01*
X87538951Y4998548D01*
X87536531Y4998260D01*
X87536530Y4998260D01*
X87529154Y4997382D01*
X87426847Y4951939D01*
X87347759Y4872713D01*
X87344064Y4864355D01*
X87314505Y4797494D01*
X87302494Y4770327D01*
X87299500Y4744646D01*
X87299500Y655354D01*
X87302618Y629154D01*
X87304653Y624572D01*
X87301898Y564617D01*
X87263699Y516820D01*
X87209247Y500500D01*
X72690739Y500500D01*
X72632548Y519407D01*
X72596584Y568907D01*
X72595248Y624566D01*
X72597506Y629673D01*
X72598656Y639530D01*
X72600168Y652506D01*
X72600168Y652507D01*
X72600500Y655354D01*
X72600500Y4744646D01*
X72597382Y4770846D01*
X72551939Y4873153D01*
X72472713Y4952241D01*
X72443591Y4965116D01*
X72377136Y4994496D01*
X72377134Y4994496D01*
X72370327Y4997506D01*
X72356322Y4999139D01*
X72347494Y5000168D01*
X72347493Y5000168D01*
X72344646Y5000500D01*
X68255354Y5000500D01*
X68238951Y4998548D01*
X68236531Y4998260D01*
X68236530Y4998260D01*
X68229154Y4997382D01*
X68126847Y4951939D01*
X68047759Y4872713D01*
X68044064Y4864355D01*
X68014505Y4797494D01*
X68002494Y4770327D01*
X67999500Y4744646D01*
X67999500Y655354D01*
X68002618Y629154D01*
X68004653Y624572D01*
X68001898Y564617D01*
X67963699Y516820D01*
X67909247Y500500D01*
X51515305Y500500D01*
X51457114Y519407D01*
X51421150Y568907D01*
X51421150Y630093D01*
X51424759Y639530D01*
X51439496Y672864D01*
X51439496Y672866D01*
X51442506Y679673D01*
X51445500Y705354D01*
X51445500Y4794646D01*
X51442382Y4820846D01*
X51396939Y4923153D01*
X51317713Y5002241D01*
X51288591Y5015116D01*
X51222136Y5044496D01*
X51222134Y5044496D01*
X51215327Y5047506D01*
X51201322Y5049139D01*
X51192494Y5050168D01*
X51192493Y5050168D01*
X51189646Y5050500D01*
X47100354Y5050500D01*
X47083951Y5048548D01*
X47081531Y5048260D01*
X47081530Y5048260D01*
X47074154Y5047382D01*
X46971847Y5001939D01*
X46892759Y4922713D01*
X46889064Y4914355D01*
X46873513Y4879179D01*
X46847494Y4820327D01*
X46844500Y4794646D01*
X46844500Y705354D01*
X46847618Y679154D01*
X46850634Y672365D01*
X46865148Y639688D01*
X46871491Y578832D01*
X46840851Y525871D01*
X46784934Y501033D01*
X46774672Y500500D01*
X32215305Y500500D01*
X32157114Y519407D01*
X32121150Y568907D01*
X32121150Y630093D01*
X32124759Y639530D01*
X32139496Y672864D01*
X32139496Y672866D01*
X32142506Y679673D01*
X32145500Y705354D01*
X32145500Y4794646D01*
X32142382Y4820846D01*
X32096939Y4923153D01*
X32017713Y5002241D01*
X31988591Y5015116D01*
X31922136Y5044496D01*
X31922134Y5044496D01*
X31915327Y5047506D01*
X31901322Y5049139D01*
X31892494Y5050168D01*
X31892493Y5050168D01*
X31889646Y5050500D01*
X27800354Y5050500D01*
X27783951Y5048548D01*
X27781531Y5048260D01*
X27781530Y5048260D01*
X27774154Y5047382D01*
X27671847Y5001939D01*
X27592759Y4922713D01*
X27589064Y4914355D01*
X27573513Y4879179D01*
X27547494Y4820327D01*
X27544500Y4794646D01*
X27544500Y705354D01*
X27547618Y679154D01*
X27550634Y672365D01*
X27565148Y639688D01*
X27571491Y578832D01*
X27540851Y525871D01*
X27484934Y501033D01*
X27474672Y500500D01*
X12915305Y500500D01*
X12857114Y519407D01*
X12821150Y568907D01*
X12821150Y630093D01*
X12824759Y639530D01*
X12839496Y672864D01*
X12839496Y672866D01*
X12842506Y679673D01*
X12845500Y705354D01*
X12845500Y4794646D01*
X12842382Y4820846D01*
X12796939Y4923153D01*
X12717713Y5002241D01*
X12688591Y5015116D01*
X12622136Y5044496D01*
X12622134Y5044496D01*
X12615327Y5047506D01*
X12601322Y5049139D01*
X12592494Y5050168D01*
X12592493Y5050168D01*
X12589646Y5050500D01*
X8500354Y5050500D01*
X8483951Y5048548D01*
X8481531Y5048260D01*
X8481530Y5048260D01*
X8474154Y5047382D01*
X8371847Y5001939D01*
X8292759Y4922713D01*
X8289064Y4914355D01*
X8273513Y4879179D01*
X8247494Y4820327D01*
X8244500Y4794646D01*
X8244500Y705354D01*
X8247618Y679154D01*
X8250634Y672365D01*
X8265148Y639688D01*
X8271491Y578832D01*
X8240851Y525871D01*
X8184934Y501033D01*
X8174672Y500500D01*
X599500Y500500D01*
X541309Y519407D01*
X505345Y568907D01*
X500500Y599500D01*
X500500Y11151767D01*
X8639906Y11151767D01*
X8640246Y11148205D01*
X8640246Y11148198D01*
X8658751Y10954252D01*
X8666102Y10877208D01*
X8731657Y10609306D01*
X8835199Y10353674D01*
X8837010Y10350581D01*
X8837011Y10350579D01*
X8839939Y10345579D01*
X8974558Y10115665D01*
X9146816Y9900268D01*
X9348364Y9711992D01*
X9574979Y9554784D01*
X9578184Y9553189D01*
X9578190Y9553186D01*
X9818699Y9433534D01*
X9818704Y9433532D01*
X9821914Y9431935D01*
X9825325Y9430817D01*
X9825327Y9430816D01*
X10080593Y9347136D01*
X10080596Y9347135D01*
X10083998Y9346020D01*
X10355738Y9298838D01*
X10406160Y9296328D01*
X10441644Y9294561D01*
X10441657Y9294561D01*
X10442876Y9294500D01*
X10615070Y9294500D01*
X10820083Y9309375D01*
X10850490Y9316088D01*
X11085904Y9368063D01*
X11085910Y9368065D01*
X11089403Y9368836D01*
X11092752Y9370105D01*
X11092756Y9370106D01*
X11239800Y9425816D01*
X11347319Y9466551D01*
X11576283Y9593729D01*
X11585285Y9598729D01*
X11585287Y9598730D01*
X11588428Y9600475D01*
X11807678Y9767802D01*
X12000477Y9965026D01*
X12104445Y10107862D01*
X12160682Y10185124D01*
X12162787Y10188016D01*
X12291206Y10432101D01*
X12383045Y10692168D01*
X12436380Y10962768D01*
X12445789Y11151767D01*
X27939906Y11151767D01*
X27940246Y11148205D01*
X27940246Y11148198D01*
X27958751Y10954252D01*
X27966102Y10877208D01*
X28031657Y10609306D01*
X28135199Y10353674D01*
X28137010Y10350581D01*
X28137011Y10350579D01*
X28139939Y10345579D01*
X28274558Y10115665D01*
X28446816Y9900268D01*
X28648364Y9711992D01*
X28874979Y9554784D01*
X28878184Y9553189D01*
X28878190Y9553186D01*
X29118699Y9433534D01*
X29118704Y9433532D01*
X29121914Y9431935D01*
X29125325Y9430817D01*
X29125327Y9430816D01*
X29380593Y9347136D01*
X29380596Y9347135D01*
X29383998Y9346020D01*
X29655738Y9298838D01*
X29706160Y9296328D01*
X29741644Y9294561D01*
X29741657Y9294561D01*
X29742876Y9294500D01*
X29915070Y9294500D01*
X30120083Y9309375D01*
X30150490Y9316088D01*
X30385904Y9368063D01*
X30385910Y9368065D01*
X30389403Y9368836D01*
X30392752Y9370105D01*
X30392756Y9370106D01*
X30539800Y9425816D01*
X30647319Y9466551D01*
X30876283Y9593729D01*
X30885285Y9598729D01*
X30885287Y9598730D01*
X30888428Y9600475D01*
X31107678Y9767802D01*
X31300477Y9965026D01*
X31404445Y10107862D01*
X31460682Y10185124D01*
X31462787Y10188016D01*
X31591206Y10432101D01*
X31683045Y10692168D01*
X31736380Y10962768D01*
X31745789Y11151767D01*
X47239906Y11151767D01*
X47240246Y11148205D01*
X47240246Y11148198D01*
X47258751Y10954252D01*
X47266102Y10877208D01*
X47331657Y10609306D01*
X47435199Y10353674D01*
X47437010Y10350581D01*
X47437011Y10350579D01*
X47439939Y10345579D01*
X47574558Y10115665D01*
X47746816Y9900268D01*
X47948364Y9711992D01*
X48174979Y9554784D01*
X48178184Y9553189D01*
X48178190Y9553186D01*
X48418699Y9433534D01*
X48418704Y9433532D01*
X48421914Y9431935D01*
X48425325Y9430817D01*
X48425327Y9430816D01*
X48680593Y9347136D01*
X48680596Y9347135D01*
X48683998Y9346020D01*
X48955738Y9298838D01*
X49006160Y9296328D01*
X49041644Y9294561D01*
X49041657Y9294561D01*
X49042876Y9294500D01*
X49215070Y9294500D01*
X49420083Y9309375D01*
X49450490Y9316088D01*
X49685904Y9368063D01*
X49685910Y9368065D01*
X49689403Y9368836D01*
X49692752Y9370105D01*
X49692756Y9370106D01*
X49839800Y9425816D01*
X49947319Y9466551D01*
X50176283Y9593729D01*
X50185285Y9598729D01*
X50185287Y9598730D01*
X50188428Y9600475D01*
X50407678Y9767802D01*
X50600477Y9965026D01*
X50704445Y10107862D01*
X50760682Y10185124D01*
X50762787Y10188016D01*
X50891206Y10432101D01*
X50983045Y10692168D01*
X51036380Y10962768D01*
X51045540Y11146767D01*
X68394906Y11146767D01*
X68395246Y11143205D01*
X68395246Y11143198D01*
X68413274Y10954252D01*
X68421102Y10872208D01*
X68486657Y10604306D01*
X68590199Y10348674D01*
X68729558Y10110665D01*
X68901816Y9895268D01*
X68904439Y9892818D01*
X69100201Y9709947D01*
X69103364Y9706992D01*
X69106312Y9704947D01*
X69322772Y9554784D01*
X69329979Y9549784D01*
X69333184Y9548189D01*
X69333190Y9548186D01*
X69573699Y9428534D01*
X69573704Y9428532D01*
X69576914Y9426935D01*
X69580325Y9425817D01*
X69580327Y9425816D01*
X69835593Y9342136D01*
X69835596Y9342135D01*
X69838998Y9341020D01*
X70110738Y9293838D01*
X70161160Y9291328D01*
X70196644Y9289561D01*
X70196657Y9289561D01*
X70197876Y9289500D01*
X70370070Y9289500D01*
X70575083Y9304375D01*
X70605490Y9311088D01*
X70840904Y9363063D01*
X70840910Y9363065D01*
X70844403Y9363836D01*
X70847752Y9365105D01*
X70847756Y9365106D01*
X71010951Y9426935D01*
X71102319Y9461551D01*
X71343428Y9595475D01*
X71352838Y9602656D01*
X71486870Y9704947D01*
X71562678Y9762802D01*
X71755477Y9960026D01*
X71759117Y9965026D01*
X71915682Y10180124D01*
X71917787Y10183016D01*
X71922084Y10191182D01*
X72044536Y10423927D01*
X72046206Y10427101D01*
X72138045Y10687168D01*
X72139031Y10692168D01*
X72190687Y10954252D01*
X72191380Y10957768D01*
X72200789Y11146767D01*
X87694906Y11146767D01*
X87695246Y11143205D01*
X87695246Y11143198D01*
X87713274Y10954252D01*
X87721102Y10872208D01*
X87786657Y10604306D01*
X87890199Y10348674D01*
X88029558Y10110665D01*
X88201816Y9895268D01*
X88204439Y9892818D01*
X88400201Y9709947D01*
X88403364Y9706992D01*
X88406312Y9704947D01*
X88622772Y9554784D01*
X88629979Y9549784D01*
X88633184Y9548189D01*
X88633190Y9548186D01*
X88873699Y9428534D01*
X88873704Y9428532D01*
X88876914Y9426935D01*
X88880325Y9425817D01*
X88880327Y9425816D01*
X89135593Y9342136D01*
X89135596Y9342135D01*
X89138998Y9341020D01*
X89410738Y9293838D01*
X89461160Y9291328D01*
X89496644Y9289561D01*
X89496657Y9289561D01*
X89497876Y9289500D01*
X89670070Y9289500D01*
X89875083Y9304375D01*
X89905490Y9311088D01*
X90140904Y9363063D01*
X90140910Y9363065D01*
X90144403Y9363836D01*
X90147752Y9365105D01*
X90147756Y9365106D01*
X90310951Y9426935D01*
X90402319Y9461551D01*
X90643428Y9595475D01*
X90652838Y9602656D01*
X90786870Y9704947D01*
X90862678Y9762802D01*
X91055477Y9960026D01*
X91059117Y9965026D01*
X91215682Y10180124D01*
X91217787Y10183016D01*
X91222084Y10191182D01*
X91344536Y10423927D01*
X91346206Y10427101D01*
X91438045Y10687168D01*
X91439031Y10692168D01*
X91490687Y10954252D01*
X91491380Y10957768D01*
X91505094Y11233233D01*
X91504754Y11236795D01*
X91504754Y11236802D01*
X91479239Y11504221D01*
X91479238Y11504225D01*
X91478898Y11507792D01*
X91413343Y11775694D01*
X91309801Y12031326D01*
X91306874Y12036326D01*
X91172253Y12266242D01*
X91170442Y12269335D01*
X90998184Y12484732D01*
X90796636Y12673008D01*
X90570021Y12830216D01*
X90566816Y12831811D01*
X90566810Y12831814D01*
X90326301Y12951466D01*
X90326296Y12951468D01*
X90323086Y12953065D01*
X90319675Y12954183D01*
X90319673Y12954184D01*
X90064407Y13037864D01*
X90064404Y13037865D01*
X90061002Y13038980D01*
X89789262Y13086162D01*
X89738840Y13088672D01*
X89703356Y13090439D01*
X89703343Y13090439D01*
X89702124Y13090500D01*
X89529930Y13090500D01*
X89324917Y13075625D01*
X89321406Y13074850D01*
X89321407Y13074850D01*
X89059096Y13016937D01*
X89059090Y13016935D01*
X89055597Y13016164D01*
X89052248Y13014895D01*
X89052244Y13014894D01*
X88948185Y12975470D01*
X88797681Y12918449D01*
X88650710Y12836814D01*
X88565574Y12789525D01*
X88556572Y12784525D01*
X88337322Y12617198D01*
X88144523Y12419974D01*
X88142414Y12417077D01*
X88142411Y12417073D01*
X87987957Y12204876D01*
X87982213Y12196984D01*
X87853794Y11952899D01*
X87761955Y11692832D01*
X87708620Y11422232D01*
X87694906Y11146767D01*
X72200789Y11146767D01*
X72205094Y11233233D01*
X72204754Y11236795D01*
X72204754Y11236802D01*
X72179239Y11504221D01*
X72179238Y11504225D01*
X72178898Y11507792D01*
X72113343Y11775694D01*
X72009801Y12031326D01*
X72006874Y12036326D01*
X71872253Y12266242D01*
X71870442Y12269335D01*
X71698184Y12484732D01*
X71496636Y12673008D01*
X71270021Y12830216D01*
X71266816Y12831811D01*
X71266810Y12831814D01*
X71026301Y12951466D01*
X71026296Y12951468D01*
X71023086Y12953065D01*
X71019675Y12954183D01*
X71019673Y12954184D01*
X70764407Y13037864D01*
X70764404Y13037865D01*
X70761002Y13038980D01*
X70489262Y13086162D01*
X70438840Y13088672D01*
X70403356Y13090439D01*
X70403343Y13090439D01*
X70402124Y13090500D01*
X70229930Y13090500D01*
X70024917Y13075625D01*
X70021406Y13074850D01*
X70021407Y13074850D01*
X69759096Y13016937D01*
X69759090Y13016935D01*
X69755597Y13016164D01*
X69752248Y13014895D01*
X69752244Y13014894D01*
X69648185Y12975470D01*
X69497681Y12918449D01*
X69350710Y12836814D01*
X69265574Y12789525D01*
X69256572Y12784525D01*
X69037322Y12617198D01*
X68844523Y12419974D01*
X68842414Y12417077D01*
X68842411Y12417073D01*
X68687957Y12204876D01*
X68682213Y12196984D01*
X68553794Y11952899D01*
X68461955Y11692832D01*
X68408620Y11422232D01*
X68394906Y11146767D01*
X51045540Y11146767D01*
X51050094Y11238233D01*
X51049754Y11241795D01*
X51049754Y11241802D01*
X51024239Y11509221D01*
X51024238Y11509225D01*
X51023898Y11512792D01*
X50958343Y11780694D01*
X50854801Y12036326D01*
X50715442Y12274335D01*
X50543184Y12489732D01*
X50349611Y12670558D01*
X50344259Y12675558D01*
X50344257Y12675560D01*
X50341636Y12678008D01*
X50125173Y12828173D01*
X50117966Y12833173D01*
X50115021Y12835216D01*
X50111816Y12836811D01*
X50111810Y12836814D01*
X49871301Y12956466D01*
X49871296Y12956468D01*
X49868086Y12958065D01*
X49864675Y12959183D01*
X49864673Y12959184D01*
X49609407Y13042864D01*
X49609404Y13042865D01*
X49606002Y13043980D01*
X49334262Y13091162D01*
X49283840Y13093672D01*
X49248356Y13095439D01*
X49248343Y13095439D01*
X49247124Y13095500D01*
X49074930Y13095500D01*
X48869917Y13080625D01*
X48866406Y13079850D01*
X48866407Y13079850D01*
X48604096Y13021937D01*
X48604090Y13021935D01*
X48600597Y13021164D01*
X48597248Y13019895D01*
X48597244Y13019894D01*
X48493185Y12980470D01*
X48342681Y12923449D01*
X48101572Y12789525D01*
X48098716Y12787345D01*
X48098714Y12787344D01*
X48030085Y12734968D01*
X47882322Y12622198D01*
X47689523Y12424974D01*
X47687414Y12422077D01*
X47687411Y12422073D01*
X47576236Y12269335D01*
X47527213Y12201984D01*
X47525549Y12198821D01*
X47525547Y12198818D01*
X47441685Y12039421D01*
X47398794Y11957899D01*
X47306955Y11697832D01*
X47306261Y11694311D01*
X47305276Y11689311D01*
X47253620Y11427232D01*
X47239906Y11151767D01*
X31745789Y11151767D01*
X31750094Y11238233D01*
X31749754Y11241795D01*
X31749754Y11241802D01*
X31724239Y11509221D01*
X31724238Y11509225D01*
X31723898Y11512792D01*
X31658343Y11780694D01*
X31554801Y12036326D01*
X31415442Y12274335D01*
X31243184Y12489732D01*
X31049611Y12670558D01*
X31044259Y12675558D01*
X31044257Y12675560D01*
X31041636Y12678008D01*
X30825173Y12828173D01*
X30817966Y12833173D01*
X30815021Y12835216D01*
X30811816Y12836811D01*
X30811810Y12836814D01*
X30571301Y12956466D01*
X30571296Y12956468D01*
X30568086Y12958065D01*
X30564675Y12959183D01*
X30564673Y12959184D01*
X30309407Y13042864D01*
X30309404Y13042865D01*
X30306002Y13043980D01*
X30034262Y13091162D01*
X29983840Y13093672D01*
X29948356Y13095439D01*
X29948343Y13095439D01*
X29947124Y13095500D01*
X29774930Y13095500D01*
X29569917Y13080625D01*
X29566406Y13079850D01*
X29566407Y13079850D01*
X29304096Y13021937D01*
X29304090Y13021935D01*
X29300597Y13021164D01*
X29297248Y13019895D01*
X29297244Y13019894D01*
X29193185Y12980470D01*
X29042681Y12923449D01*
X28801572Y12789525D01*
X28798716Y12787345D01*
X28798714Y12787344D01*
X28730085Y12734968D01*
X28582322Y12622198D01*
X28389523Y12424974D01*
X28387414Y12422077D01*
X28387411Y12422073D01*
X28276236Y12269335D01*
X28227213Y12201984D01*
X28225549Y12198821D01*
X28225547Y12198818D01*
X28141685Y12039421D01*
X28098794Y11957899D01*
X28006955Y11697832D01*
X28006261Y11694311D01*
X28005276Y11689311D01*
X27953620Y11427232D01*
X27939906Y11151767D01*
X12445789Y11151767D01*
X12450094Y11238233D01*
X12449754Y11241795D01*
X12449754Y11241802D01*
X12424239Y11509221D01*
X12424238Y11509225D01*
X12423898Y11512792D01*
X12358343Y11780694D01*
X12254801Y12036326D01*
X12115442Y12274335D01*
X11943184Y12489732D01*
X11749611Y12670558D01*
X11744259Y12675558D01*
X11744257Y12675560D01*
X11741636Y12678008D01*
X11525173Y12828173D01*
X11517966Y12833173D01*
X11515021Y12835216D01*
X11511816Y12836811D01*
X11511810Y12836814D01*
X11271301Y12956466D01*
X11271296Y12956468D01*
X11268086Y12958065D01*
X11264675Y12959183D01*
X11264673Y12959184D01*
X11009407Y13042864D01*
X11009404Y13042865D01*
X11006002Y13043980D01*
X10734262Y13091162D01*
X10683840Y13093672D01*
X10648356Y13095439D01*
X10648343Y13095439D01*
X10647124Y13095500D01*
X10474930Y13095500D01*
X10269917Y13080625D01*
X10266406Y13079850D01*
X10266407Y13079850D01*
X10004096Y13021937D01*
X10004090Y13021935D01*
X10000597Y13021164D01*
X9997248Y13019895D01*
X9997244Y13019894D01*
X9893185Y12980470D01*
X9742681Y12923449D01*
X9501572Y12789525D01*
X9498716Y12787345D01*
X9498714Y12787344D01*
X9430085Y12734968D01*
X9282322Y12622198D01*
X9089523Y12424974D01*
X9087414Y12422077D01*
X9087411Y12422073D01*
X8976236Y12269335D01*
X8927213Y12201984D01*
X8925549Y12198821D01*
X8925547Y12198818D01*
X8841685Y12039421D01*
X8798794Y11957899D01*
X8706955Y11697832D01*
X8706261Y11694311D01*
X8705276Y11689311D01*
X8653620Y11427232D01*
X8639906Y11151767D01*
X500500Y11151767D01*
X500500Y21462361D01*
X77528000Y21462361D01*
X77528346Y21456515D01*
X77530234Y21440647D01*
X77534128Y21426481D01*
X77572770Y21339486D01*
X77582946Y21324679D01*
X77649108Y21258633D01*
X77663931Y21248483D01*
X77750980Y21210000D01*
X77765185Y21206127D01*
X77780580Y21204332D01*
X77786292Y21204000D01*
X78812320Y21204000D01*
X78825005Y21208122D01*
X78828000Y21212243D01*
X78828000Y21219680D01*
X79128000Y21219680D01*
X79132122Y21206995D01*
X79136243Y21204000D01*
X80169639Y21204000D01*
X80175485Y21204346D01*
X80191353Y21206234D01*
X80205519Y21210128D01*
X80292514Y21248770D01*
X80307321Y21258946D01*
X80373367Y21325108D01*
X80383517Y21339931D01*
X80422000Y21426980D01*
X80425873Y21441185D01*
X80427668Y21456580D01*
X80428000Y21462292D01*
X80428000Y22488320D01*
X80423878Y22501005D01*
X80419757Y22504000D01*
X80049776Y22504000D01*
X80034009Y22498877D01*
X79153276Y21618144D01*
X79152904Y21617955D01*
X79129537Y21594588D01*
X79128000Y21588186D01*
X79128000Y21219680D01*
X78828000Y21219680D01*
X78828000Y21584224D01*
X78823500Y21598075D01*
X78818663Y21602205D01*
X78266665Y22154203D01*
X78695164Y22154203D01*
X78695960Y22149172D01*
X78816914Y22028218D01*
X78826657Y22023254D01*
X78828000Y22028850D01*
X78828000Y22032812D01*
X79128000Y22032812D01*
X79131380Y22022410D01*
X79136282Y22025414D01*
X79254782Y22143914D01*
X79260836Y22155797D01*
X79260040Y22160828D01*
X79139086Y22281782D01*
X79129343Y22286746D01*
X79128000Y22281150D01*
X79128000Y22032812D01*
X78828000Y22032812D01*
X78828000Y22277188D01*
X78824620Y22287590D01*
X78819718Y22284586D01*
X78701218Y22166086D01*
X78695164Y22154203D01*
X78266665Y22154203D01*
X77925112Y22495756D01*
X77918478Y22500573D01*
X77918431Y22500620D01*
X78346410Y22500620D01*
X78349414Y22495718D01*
X78466914Y22378218D01*
X78478797Y22372164D01*
X78483828Y22372960D01*
X78603782Y22492914D01*
X78607708Y22500620D01*
X79346410Y22500620D01*
X79349414Y22495718D01*
X79466914Y22378218D01*
X79478797Y22372164D01*
X79483828Y22372960D01*
X79603782Y22492914D01*
X79608746Y22502657D01*
X79603150Y22504000D01*
X79356812Y22504000D01*
X79346410Y22500620D01*
X78607708Y22500620D01*
X78608746Y22502657D01*
X78603150Y22504000D01*
X78356812Y22504000D01*
X78346410Y22500620D01*
X77918431Y22500620D01*
X77916588Y22502463D01*
X77910186Y22504000D01*
X77543680Y22504000D01*
X77530995Y22499878D01*
X77528000Y22495757D01*
X77528000Y21462361D01*
X500500Y21462361D01*
X500500Y22819680D01*
X77528000Y22819680D01*
X77532122Y22806995D01*
X77536243Y22804000D01*
X77908224Y22804000D01*
X77912357Y22805343D01*
X78345254Y22805343D01*
X78350850Y22804000D01*
X78601188Y22804000D01*
X78605321Y22805343D01*
X79345254Y22805343D01*
X79350850Y22804000D01*
X79601188Y22804000D01*
X79611590Y22807380D01*
X79608586Y22812282D01*
X79489086Y22931782D01*
X79477203Y22937836D01*
X79472172Y22937040D01*
X79350218Y22815086D01*
X79345254Y22805343D01*
X78605321Y22805343D01*
X78611590Y22807380D01*
X78608586Y22812282D01*
X78489086Y22931782D01*
X78477203Y22937836D01*
X78472172Y22937040D01*
X78350218Y22815086D01*
X78345254Y22805343D01*
X77912357Y22805343D01*
X77920909Y22808122D01*
X77921429Y22808837D01*
X77931518Y22820650D01*
X78265071Y23154203D01*
X78695164Y23154203D01*
X78695960Y23149172D01*
X78816914Y23028218D01*
X78826657Y23023254D01*
X78828000Y23028850D01*
X78828000Y23032812D01*
X79128000Y23032812D01*
X79131380Y23022410D01*
X79136282Y23025414D01*
X79254782Y23143914D01*
X79260836Y23155797D01*
X79260040Y23160828D01*
X79139086Y23281782D01*
X79129343Y23286746D01*
X79128000Y23281150D01*
X79128000Y23032812D01*
X78828000Y23032812D01*
X78828000Y23277188D01*
X78824620Y23287590D01*
X78819718Y23284586D01*
X78701218Y23166086D01*
X78695164Y23154203D01*
X78265071Y23154203D01*
X78802724Y23691856D01*
X78803096Y23692045D01*
X78826463Y23715412D01*
X78828000Y23721814D01*
X78828000Y23725776D01*
X79128000Y23725776D01*
X79132500Y23711925D01*
X79137337Y23707795D01*
X80013479Y22831653D01*
X80015747Y22827202D01*
X80037412Y22805537D01*
X80043814Y22804000D01*
X80412320Y22804000D01*
X80425005Y22808122D01*
X80428000Y22812243D01*
X80428000Y23845639D01*
X80427654Y23851485D01*
X80425766Y23867353D01*
X80421872Y23881519D01*
X80383230Y23968514D01*
X80373054Y23983321D01*
X80306892Y24049367D01*
X80292069Y24059517D01*
X80205020Y24098000D01*
X80190815Y24101873D01*
X80175420Y24103668D01*
X80169708Y24104000D01*
X79143680Y24104000D01*
X79130995Y24099878D01*
X79128000Y24095757D01*
X79128000Y23725776D01*
X78828000Y23725776D01*
X78828000Y24088320D01*
X78823878Y24101005D01*
X78819757Y24104000D01*
X77786361Y24104000D01*
X77780515Y24103654D01*
X77764647Y24101766D01*
X77750481Y24097872D01*
X77663486Y24059230D01*
X77648679Y24049054D01*
X77582633Y23982892D01*
X77572483Y23968069D01*
X77534000Y23881020D01*
X77530127Y23866815D01*
X77528332Y23851420D01*
X77528000Y23845708D01*
X77528000Y22819680D01*
X500500Y22819680D01*
X500500Y66761767D01*
X8639906Y66761767D01*
X8640246Y66758205D01*
X8640246Y66758198D01*
X8658274Y66569252D01*
X8666102Y66487208D01*
X8731657Y66219306D01*
X8835199Y65963674D01*
X8974558Y65725665D01*
X9146816Y65510268D01*
X9149439Y65507818D01*
X9345201Y65324947D01*
X9348364Y65321992D01*
X9351312Y65319947D01*
X9567772Y65169784D01*
X9574979Y65164784D01*
X9578184Y65163189D01*
X9578190Y65163186D01*
X9818699Y65043534D01*
X9818704Y65043532D01*
X9821914Y65041935D01*
X9825325Y65040817D01*
X9825327Y65040816D01*
X10080593Y64957136D01*
X10080596Y64957135D01*
X10083998Y64956020D01*
X10355738Y64908838D01*
X10406160Y64906328D01*
X10441644Y64904561D01*
X10441657Y64904561D01*
X10442876Y64904500D01*
X10615070Y64904500D01*
X10820083Y64919375D01*
X10850490Y64926088D01*
X11085904Y64978063D01*
X11085910Y64978065D01*
X11089403Y64978836D01*
X11092752Y64980105D01*
X11092756Y64980106D01*
X11255951Y65041935D01*
X11347319Y65076551D01*
X11588428Y65210475D01*
X11597838Y65217656D01*
X11731870Y65319947D01*
X11807678Y65377802D01*
X12000477Y65575026D01*
X12004117Y65580026D01*
X12160682Y65795124D01*
X12162787Y65798016D01*
X12167084Y65806182D01*
X12289536Y66038927D01*
X12291206Y66042101D01*
X12383045Y66302168D01*
X12384031Y66307168D01*
X12435687Y66569252D01*
X12436380Y66572768D01*
X12445789Y66761767D01*
X27939906Y66761767D01*
X27940246Y66758205D01*
X27940246Y66758198D01*
X27958274Y66569252D01*
X27966102Y66487208D01*
X28031657Y66219306D01*
X28135199Y65963674D01*
X28274558Y65725665D01*
X28446816Y65510268D01*
X28449439Y65507818D01*
X28645201Y65324947D01*
X28648364Y65321992D01*
X28651312Y65319947D01*
X28867772Y65169784D01*
X28874979Y65164784D01*
X28878184Y65163189D01*
X28878190Y65163186D01*
X29118699Y65043534D01*
X29118704Y65043532D01*
X29121914Y65041935D01*
X29125325Y65040817D01*
X29125327Y65040816D01*
X29380593Y64957136D01*
X29380596Y64957135D01*
X29383998Y64956020D01*
X29655738Y64908838D01*
X29706160Y64906328D01*
X29741644Y64904561D01*
X29741657Y64904561D01*
X29742876Y64904500D01*
X29915070Y64904500D01*
X30120083Y64919375D01*
X30150490Y64926088D01*
X30385904Y64978063D01*
X30385910Y64978065D01*
X30389403Y64978836D01*
X30392752Y64980105D01*
X30392756Y64980106D01*
X30555951Y65041935D01*
X30647319Y65076551D01*
X30888428Y65210475D01*
X30897838Y65217656D01*
X31031870Y65319947D01*
X31107678Y65377802D01*
X31300477Y65575026D01*
X31304117Y65580026D01*
X31460682Y65795124D01*
X31462787Y65798016D01*
X31467084Y65806182D01*
X31589536Y66038927D01*
X31591206Y66042101D01*
X31683045Y66302168D01*
X31684031Y66307168D01*
X31735687Y66569252D01*
X31736380Y66572768D01*
X31745789Y66761767D01*
X47239906Y66761767D01*
X47240246Y66758205D01*
X47240246Y66758198D01*
X47258274Y66569252D01*
X47266102Y66487208D01*
X47331657Y66219306D01*
X47435199Y65963674D01*
X47574558Y65725665D01*
X47746816Y65510268D01*
X47749439Y65507818D01*
X47945201Y65324947D01*
X47948364Y65321992D01*
X47951312Y65319947D01*
X48167772Y65169784D01*
X48174979Y65164784D01*
X48178184Y65163189D01*
X48178190Y65163186D01*
X48418699Y65043534D01*
X48418704Y65043532D01*
X48421914Y65041935D01*
X48425325Y65040817D01*
X48425327Y65040816D01*
X48680593Y64957136D01*
X48680596Y64957135D01*
X48683998Y64956020D01*
X48955738Y64908838D01*
X49006160Y64906328D01*
X49041644Y64904561D01*
X49041657Y64904561D01*
X49042876Y64904500D01*
X49215070Y64904500D01*
X49420083Y64919375D01*
X49450490Y64926088D01*
X49685904Y64978063D01*
X49685910Y64978065D01*
X49689403Y64978836D01*
X49692752Y64980105D01*
X49692756Y64980106D01*
X49855951Y65041935D01*
X49947319Y65076551D01*
X50188428Y65210475D01*
X50197838Y65217656D01*
X50331870Y65319947D01*
X50407678Y65377802D01*
X50600477Y65575026D01*
X50604117Y65580026D01*
X50760682Y65795124D01*
X50762787Y65798016D01*
X50767084Y65806182D01*
X50889536Y66038927D01*
X50891206Y66042101D01*
X50983045Y66302168D01*
X50984031Y66307168D01*
X51035687Y66569252D01*
X51036380Y66572768D01*
X51046038Y66766767D01*
X68394906Y66766767D01*
X68395246Y66763205D01*
X68395246Y66763198D01*
X68413751Y66569252D01*
X68421102Y66492208D01*
X68486657Y66224306D01*
X68590199Y65968674D01*
X68592010Y65965581D01*
X68592011Y65965579D01*
X68594939Y65960579D01*
X68729558Y65730665D01*
X68901816Y65515268D01*
X69103364Y65326992D01*
X69329979Y65169784D01*
X69333184Y65168189D01*
X69333190Y65168186D01*
X69573699Y65048534D01*
X69573704Y65048532D01*
X69576914Y65046935D01*
X69580325Y65045817D01*
X69580327Y65045816D01*
X69835593Y64962136D01*
X69835596Y64962135D01*
X69838998Y64961020D01*
X70110738Y64913838D01*
X70161160Y64911328D01*
X70196644Y64909561D01*
X70196657Y64909561D01*
X70197876Y64909500D01*
X70370070Y64909500D01*
X70575083Y64924375D01*
X70605490Y64931088D01*
X70840904Y64983063D01*
X70840910Y64983065D01*
X70844403Y64983836D01*
X70847752Y64985105D01*
X70847756Y64985106D01*
X70994800Y65040816D01*
X71102319Y65081551D01*
X71331283Y65208729D01*
X71340285Y65213729D01*
X71340287Y65213730D01*
X71343428Y65215475D01*
X71562678Y65382802D01*
X71755477Y65580026D01*
X71859445Y65722862D01*
X71915682Y65800124D01*
X71917787Y65803016D01*
X72046206Y66047101D01*
X72138045Y66307168D01*
X72191380Y66577768D01*
X72200789Y66766767D01*
X87694906Y66766767D01*
X87695246Y66763205D01*
X87695246Y66763198D01*
X87713751Y66569252D01*
X87721102Y66492208D01*
X87786657Y66224306D01*
X87890199Y65968674D01*
X87892010Y65965581D01*
X87892011Y65965579D01*
X87894939Y65960579D01*
X88029558Y65730665D01*
X88201816Y65515268D01*
X88403364Y65326992D01*
X88629979Y65169784D01*
X88633184Y65168189D01*
X88633190Y65168186D01*
X88873699Y65048534D01*
X88873704Y65048532D01*
X88876914Y65046935D01*
X88880325Y65045817D01*
X88880327Y65045816D01*
X89135593Y64962136D01*
X89135596Y64962135D01*
X89138998Y64961020D01*
X89410738Y64913838D01*
X89461160Y64911328D01*
X89496644Y64909561D01*
X89496657Y64909561D01*
X89497876Y64909500D01*
X89670070Y64909500D01*
X89875083Y64924375D01*
X89905490Y64931088D01*
X90140904Y64983063D01*
X90140910Y64983065D01*
X90144403Y64983836D01*
X90147752Y64985105D01*
X90147756Y64985106D01*
X90294800Y65040816D01*
X90402319Y65081551D01*
X90631283Y65208729D01*
X90640285Y65213729D01*
X90640287Y65213730D01*
X90643428Y65215475D01*
X90862678Y65382802D01*
X91055477Y65580026D01*
X91159445Y65722862D01*
X91215682Y65800124D01*
X91217787Y65803016D01*
X91346206Y66047101D01*
X91438045Y66307168D01*
X91491380Y66577768D01*
X91505094Y66853233D01*
X91504754Y66856795D01*
X91504754Y66856802D01*
X91479239Y67124221D01*
X91479238Y67124225D01*
X91478898Y67127792D01*
X91413343Y67395694D01*
X91309801Y67651326D01*
X91170442Y67889335D01*
X90998184Y68104732D01*
X90804611Y68285558D01*
X90799259Y68290558D01*
X90799257Y68290560D01*
X90796636Y68293008D01*
X90580173Y68443173D01*
X90572966Y68448173D01*
X90570021Y68450216D01*
X90566816Y68451811D01*
X90566810Y68451814D01*
X90326301Y68571466D01*
X90326296Y68571468D01*
X90323086Y68573065D01*
X90319675Y68574183D01*
X90319673Y68574184D01*
X90064407Y68657864D01*
X90064404Y68657865D01*
X90061002Y68658980D01*
X89789262Y68706162D01*
X89738840Y68708672D01*
X89703356Y68710439D01*
X89703343Y68710439D01*
X89702124Y68710500D01*
X89529930Y68710500D01*
X89324917Y68695625D01*
X89321406Y68694850D01*
X89321407Y68694850D01*
X89059096Y68636937D01*
X89059090Y68636935D01*
X89055597Y68636164D01*
X89052248Y68634895D01*
X89052244Y68634894D01*
X88948185Y68595470D01*
X88797681Y68538449D01*
X88556572Y68404525D01*
X88553716Y68402345D01*
X88553714Y68402344D01*
X88485085Y68349968D01*
X88337322Y68237198D01*
X88144523Y68039974D01*
X88142414Y68037077D01*
X88142411Y68037073D01*
X88031236Y67884335D01*
X87982213Y67816984D01*
X87980549Y67813821D01*
X87980547Y67813818D01*
X87896685Y67654421D01*
X87853794Y67572899D01*
X87761955Y67312832D01*
X87761261Y67309311D01*
X87760276Y67304311D01*
X87708620Y67042232D01*
X87694906Y66766767D01*
X72200789Y66766767D01*
X72205094Y66853233D01*
X72204754Y66856795D01*
X72204754Y66856802D01*
X72179239Y67124221D01*
X72179238Y67124225D01*
X72178898Y67127792D01*
X72113343Y67395694D01*
X72009801Y67651326D01*
X71870442Y67889335D01*
X71698184Y68104732D01*
X71504611Y68285558D01*
X71499259Y68290558D01*
X71499257Y68290560D01*
X71496636Y68293008D01*
X71280173Y68443173D01*
X71272966Y68448173D01*
X71270021Y68450216D01*
X71266816Y68451811D01*
X71266810Y68451814D01*
X71026301Y68571466D01*
X71026296Y68571468D01*
X71023086Y68573065D01*
X71019675Y68574183D01*
X71019673Y68574184D01*
X70764407Y68657864D01*
X70764404Y68657865D01*
X70761002Y68658980D01*
X70489262Y68706162D01*
X70438840Y68708672D01*
X70403356Y68710439D01*
X70403343Y68710439D01*
X70402124Y68710500D01*
X70229930Y68710500D01*
X70024917Y68695625D01*
X70021406Y68694850D01*
X70021407Y68694850D01*
X69759096Y68636937D01*
X69759090Y68636935D01*
X69755597Y68636164D01*
X69752248Y68634895D01*
X69752244Y68634894D01*
X69648185Y68595470D01*
X69497681Y68538449D01*
X69256572Y68404525D01*
X69253716Y68402345D01*
X69253714Y68402344D01*
X69185085Y68349968D01*
X69037322Y68237198D01*
X68844523Y68039974D01*
X68842414Y68037077D01*
X68842411Y68037073D01*
X68731236Y67884335D01*
X68682213Y67816984D01*
X68680549Y67813821D01*
X68680547Y67813818D01*
X68596685Y67654421D01*
X68553794Y67572899D01*
X68461955Y67312832D01*
X68461261Y67309311D01*
X68460276Y67304311D01*
X68408620Y67042232D01*
X68394906Y66766767D01*
X51046038Y66766767D01*
X51050094Y66848233D01*
X51049754Y66851795D01*
X51049754Y66851802D01*
X51024239Y67119221D01*
X51024238Y67119225D01*
X51023898Y67122792D01*
X50958343Y67390694D01*
X50854801Y67646326D01*
X50851874Y67651326D01*
X50717253Y67881242D01*
X50715442Y67884335D01*
X50543184Y68099732D01*
X50341636Y68288008D01*
X50115021Y68445216D01*
X50111816Y68446811D01*
X50111810Y68446814D01*
X49871301Y68566466D01*
X49871296Y68566468D01*
X49868086Y68568065D01*
X49864675Y68569183D01*
X49864673Y68569184D01*
X49609407Y68652864D01*
X49609404Y68652865D01*
X49606002Y68653980D01*
X49334262Y68701162D01*
X49283840Y68703672D01*
X49248356Y68705439D01*
X49248343Y68705439D01*
X49247124Y68705500D01*
X49074930Y68705500D01*
X48869917Y68690625D01*
X48866406Y68689850D01*
X48866407Y68689850D01*
X48604096Y68631937D01*
X48604090Y68631935D01*
X48600597Y68631164D01*
X48597248Y68629895D01*
X48597244Y68629894D01*
X48493185Y68590470D01*
X48342681Y68533449D01*
X48195710Y68451814D01*
X48110574Y68404525D01*
X48101572Y68399525D01*
X47882322Y68232198D01*
X47689523Y68034974D01*
X47687414Y68032077D01*
X47687411Y68032073D01*
X47532957Y67819876D01*
X47527213Y67811984D01*
X47398794Y67567899D01*
X47306955Y67307832D01*
X47253620Y67037232D01*
X47239906Y66761767D01*
X31745789Y66761767D01*
X31750094Y66848233D01*
X31749754Y66851795D01*
X31749754Y66851802D01*
X31724239Y67119221D01*
X31724238Y67119225D01*
X31723898Y67122792D01*
X31658343Y67390694D01*
X31554801Y67646326D01*
X31551874Y67651326D01*
X31417253Y67881242D01*
X31415442Y67884335D01*
X31243184Y68099732D01*
X31041636Y68288008D01*
X30815021Y68445216D01*
X30811816Y68446811D01*
X30811810Y68446814D01*
X30571301Y68566466D01*
X30571296Y68566468D01*
X30568086Y68568065D01*
X30564675Y68569183D01*
X30564673Y68569184D01*
X30309407Y68652864D01*
X30309404Y68652865D01*
X30306002Y68653980D01*
X30034262Y68701162D01*
X29983840Y68703672D01*
X29948356Y68705439D01*
X29948343Y68705439D01*
X29947124Y68705500D01*
X29774930Y68705500D01*
X29569917Y68690625D01*
X29566406Y68689850D01*
X29566407Y68689850D01*
X29304096Y68631937D01*
X29304090Y68631935D01*
X29300597Y68631164D01*
X29297248Y68629895D01*
X29297244Y68629894D01*
X29193185Y68590470D01*
X29042681Y68533449D01*
X28895710Y68451814D01*
X28810574Y68404525D01*
X28801572Y68399525D01*
X28582322Y68232198D01*
X28389523Y68034974D01*
X28387414Y68032077D01*
X28387411Y68032073D01*
X28232957Y67819876D01*
X28227213Y67811984D01*
X28098794Y67567899D01*
X28006955Y67307832D01*
X27953620Y67037232D01*
X27939906Y66761767D01*
X12445789Y66761767D01*
X12450094Y66848233D01*
X12449754Y66851795D01*
X12449754Y66851802D01*
X12424239Y67119221D01*
X12424238Y67119225D01*
X12423898Y67122792D01*
X12358343Y67390694D01*
X12254801Y67646326D01*
X12251874Y67651326D01*
X12117253Y67881242D01*
X12115442Y67884335D01*
X11943184Y68099732D01*
X11741636Y68288008D01*
X11515021Y68445216D01*
X11511816Y68446811D01*
X11511810Y68446814D01*
X11271301Y68566466D01*
X11271296Y68566468D01*
X11268086Y68568065D01*
X11264675Y68569183D01*
X11264673Y68569184D01*
X11009407Y68652864D01*
X11009404Y68652865D01*
X11006002Y68653980D01*
X10734262Y68701162D01*
X10683840Y68703672D01*
X10648356Y68705439D01*
X10648343Y68705439D01*
X10647124Y68705500D01*
X10474930Y68705500D01*
X10269917Y68690625D01*
X10266406Y68689850D01*
X10266407Y68689850D01*
X10004096Y68631937D01*
X10004090Y68631935D01*
X10000597Y68631164D01*
X9997248Y68629895D01*
X9997244Y68629894D01*
X9893185Y68590470D01*
X9742681Y68533449D01*
X9595710Y68451814D01*
X9510574Y68404525D01*
X9501572Y68399525D01*
X9282322Y68232198D01*
X9089523Y68034974D01*
X9087414Y68032077D01*
X9087411Y68032073D01*
X8932957Y67819876D01*
X8927213Y67811984D01*
X8798794Y67567899D01*
X8706955Y67307832D01*
X8653620Y67037232D01*
X8639906Y66761767D01*
X500500Y66761767D01*
X500500Y73208361D01*
X8245000Y73208361D01*
X8245346Y73202515D01*
X8247234Y73186647D01*
X8251128Y73172481D01*
X8289770Y73085486D01*
X8299946Y73070679D01*
X8366108Y73004633D01*
X8380931Y72994483D01*
X8467980Y72956000D01*
X8482185Y72952127D01*
X8497580Y72950332D01*
X8503292Y72950000D01*
X10379320Y72950000D01*
X10392005Y72954122D01*
X10395000Y72958243D01*
X10395000Y72965680D01*
X10695000Y72965680D01*
X10699122Y72952995D01*
X10703243Y72950000D01*
X12586639Y72950000D01*
X12592485Y72950346D01*
X12608353Y72952234D01*
X12622519Y72956128D01*
X12709514Y72994770D01*
X12724321Y73004946D01*
X12790367Y73071108D01*
X12800517Y73085931D01*
X12839000Y73172980D01*
X12842873Y73187185D01*
X12844668Y73202580D01*
X12845000Y73208292D01*
X12845000Y73208361D01*
X27545000Y73208361D01*
X27545346Y73202515D01*
X27547234Y73186647D01*
X27551128Y73172481D01*
X27589770Y73085486D01*
X27599946Y73070679D01*
X27666108Y73004633D01*
X27680931Y72994483D01*
X27767980Y72956000D01*
X27782185Y72952127D01*
X27797580Y72950332D01*
X27803292Y72950000D01*
X29679320Y72950000D01*
X29692005Y72954122D01*
X29695000Y72958243D01*
X29695000Y72965680D01*
X29995000Y72965680D01*
X29999122Y72952995D01*
X30003243Y72950000D01*
X31886639Y72950000D01*
X31892485Y72950346D01*
X31908353Y72952234D01*
X31922519Y72956128D01*
X32009514Y72994770D01*
X32024321Y73004946D01*
X32090367Y73071108D01*
X32100517Y73085931D01*
X32139000Y73172980D01*
X32142873Y73187185D01*
X32144668Y73202580D01*
X32145000Y73208292D01*
X32145000Y73208361D01*
X46845000Y73208361D01*
X46845346Y73202515D01*
X46847234Y73186647D01*
X46851128Y73172481D01*
X46889770Y73085486D01*
X46899946Y73070679D01*
X46966108Y73004633D01*
X46980931Y72994483D01*
X47067980Y72956000D01*
X47082185Y72952127D01*
X47097580Y72950332D01*
X47103292Y72950000D01*
X48979320Y72950000D01*
X48992005Y72954122D01*
X48995000Y72958243D01*
X48995000Y72965680D01*
X49295000Y72965680D01*
X49299122Y72952995D01*
X49303243Y72950000D01*
X51186639Y72950000D01*
X51192485Y72950346D01*
X51208353Y72952234D01*
X51222519Y72956128D01*
X51309514Y72994770D01*
X51324321Y73004946D01*
X51390367Y73071108D01*
X51400517Y73085931D01*
X51439000Y73172980D01*
X51442873Y73187185D01*
X51444668Y73202580D01*
X51445000Y73208292D01*
X51445000Y73258361D01*
X68000000Y73258361D01*
X68000346Y73252515D01*
X68002234Y73236647D01*
X68006128Y73222481D01*
X68044770Y73135486D01*
X68054946Y73120679D01*
X68121108Y73054633D01*
X68135931Y73044483D01*
X68222980Y73006000D01*
X68237185Y73002127D01*
X68252580Y73000332D01*
X68258292Y73000000D01*
X70134320Y73000000D01*
X70147005Y73004122D01*
X70150000Y73008243D01*
X70150000Y73015680D01*
X70450000Y73015680D01*
X70454122Y73002995D01*
X70458243Y73000000D01*
X72341639Y73000000D01*
X72347485Y73000346D01*
X72363353Y73002234D01*
X72377519Y73006128D01*
X72464514Y73044770D01*
X72479321Y73054946D01*
X72545367Y73121108D01*
X72555517Y73135931D01*
X72594000Y73222980D01*
X72597873Y73237185D01*
X72599668Y73252580D01*
X72600000Y73258292D01*
X72600000Y73258361D01*
X87300000Y73258361D01*
X87300346Y73252515D01*
X87302234Y73236647D01*
X87306128Y73222481D01*
X87344770Y73135486D01*
X87354946Y73120679D01*
X87421108Y73054633D01*
X87435931Y73044483D01*
X87522980Y73006000D01*
X87537185Y73002127D01*
X87552580Y73000332D01*
X87558292Y73000000D01*
X89434320Y73000000D01*
X89447005Y73004122D01*
X89450000Y73008243D01*
X89450000Y73015680D01*
X89750000Y73015680D01*
X89754122Y73002995D01*
X89758243Y73000000D01*
X91641639Y73000000D01*
X91647485Y73000346D01*
X91663353Y73002234D01*
X91677519Y73006128D01*
X91764514Y73044770D01*
X91779321Y73054946D01*
X91845367Y73121108D01*
X91855517Y73135931D01*
X91894000Y73222980D01*
X91897873Y73237185D01*
X91899668Y73252580D01*
X91900000Y73258292D01*
X91900000Y75134320D01*
X91895878Y75147005D01*
X91891757Y75150000D01*
X89765680Y75150000D01*
X89752995Y75145878D01*
X89750000Y75141757D01*
X89750000Y73015680D01*
X89450000Y73015680D01*
X89450000Y75134320D01*
X89445878Y75147005D01*
X89441757Y75150000D01*
X87315680Y75150000D01*
X87302995Y75145878D01*
X87300000Y75141757D01*
X87300000Y73258361D01*
X72600000Y73258361D01*
X72600000Y75134320D01*
X72595878Y75147005D01*
X72591757Y75150000D01*
X70465680Y75150000D01*
X70452995Y75145878D01*
X70450000Y75141757D01*
X70450000Y73015680D01*
X70150000Y73015680D01*
X70150000Y75134320D01*
X70145878Y75147005D01*
X70141757Y75150000D01*
X68015680Y75150000D01*
X68002995Y75145878D01*
X68000000Y75141757D01*
X68000000Y73258361D01*
X51445000Y73258361D01*
X51445000Y75084320D01*
X51440878Y75097005D01*
X51436757Y75100000D01*
X49310680Y75100000D01*
X49297995Y75095878D01*
X49295000Y75091757D01*
X49295000Y72965680D01*
X48995000Y72965680D01*
X48995000Y75084320D01*
X48990878Y75097005D01*
X48986757Y75100000D01*
X46860680Y75100000D01*
X46847995Y75095878D01*
X46845000Y75091757D01*
X46845000Y73208361D01*
X32145000Y73208361D01*
X32145000Y75084320D01*
X32140878Y75097005D01*
X32136757Y75100000D01*
X30010680Y75100000D01*
X29997995Y75095878D01*
X29995000Y75091757D01*
X29995000Y72965680D01*
X29695000Y72965680D01*
X29695000Y75084320D01*
X29690878Y75097005D01*
X29686757Y75100000D01*
X27560680Y75100000D01*
X27547995Y75095878D01*
X27545000Y75091757D01*
X27545000Y73208361D01*
X12845000Y73208361D01*
X12845000Y75084320D01*
X12840878Y75097005D01*
X12836757Y75100000D01*
X10710680Y75100000D01*
X10697995Y75095878D01*
X10695000Y75091757D01*
X10695000Y72965680D01*
X10395000Y72965680D01*
X10395000Y75084320D01*
X10390878Y75097005D01*
X10386757Y75100000D01*
X8260680Y75100000D01*
X8247995Y75095878D01*
X8245000Y75091757D01*
X8245000Y73208361D01*
X500500Y73208361D01*
X500500Y77400500D01*
X519407Y77458691D01*
X568907Y77494655D01*
X599500Y77499500D01*
X8175242Y77499500D01*
X8233433Y77480593D01*
G37*
%TD.AperFunction*%
%TD*%
M02*
