%TF.GenerationSoftware,KiCad,Pcbnew,6.0.4-6f826c9f35~116~ubuntu20.04.1*%
%TF.CreationDate,2023-02-17T22:07:31+00:00*%
%TF.ProjectId,UST5BATT18650V01A,55535435-4241-4545-9431-383635305630,rev?*%
%TF.SameCoordinates,PX463f660PY87a6900*%
%TF.FileFunction,Legend,Top*%
%TF.FilePolarity,Positive*%
%FSLAX46Y46*%
G04 Gerber Fmt 4.6, Leading zero omitted, Abs format (unit mm)*
G04 Created by KiCad (PCBNEW 6.0.4-6f826c9f35~116~ubuntu20.04.1) date 2023-02-17 22:07:31*
%MOMM*%
%LPD*%
G01*
G04 APERTURE LIST*
%ADD10C,0.200000*%
%ADD11C,0.150000*%
%ADD12C,0.127000*%
G04 APERTURE END LIST*
D10*
X2051595Y53704715D02*
X3103976Y53704715D01*
X3227785Y53766620D01*
X3289690Y53828524D01*
X3351595Y53952334D01*
X3351595Y54199953D01*
X3289690Y54323762D01*
X3227785Y54385667D01*
X3103976Y54447572D01*
X2051595Y54447572D01*
X3289690Y55004715D02*
X3351595Y55190429D01*
X3351595Y55499953D01*
X3289690Y55623762D01*
X3227785Y55685667D01*
X3103976Y55747572D01*
X2980166Y55747572D01*
X2856357Y55685667D01*
X2794452Y55623762D01*
X2732547Y55499953D01*
X2670642Y55252334D01*
X2608738Y55128524D01*
X2546833Y55066620D01*
X2423023Y55004715D01*
X2299214Y55004715D01*
X2175404Y55066620D01*
X2113500Y55128524D01*
X2051595Y55252334D01*
X2051595Y55561858D01*
X2113500Y55747572D01*
X2051595Y56119000D02*
X2051595Y56861858D01*
X3351595Y56490429D02*
X2051595Y56490429D01*
X3227785Y57295191D02*
X3289690Y57357096D01*
X3351595Y57295191D01*
X3289690Y57233286D01*
X3227785Y57295191D01*
X3351595Y57295191D01*
X3227785Y58657096D02*
X3289690Y58595191D01*
X3351595Y58409477D01*
X3351595Y58285667D01*
X3289690Y58099953D01*
X3165880Y57976143D01*
X3042071Y57914239D01*
X2794452Y57852334D01*
X2608738Y57852334D01*
X2361119Y57914239D01*
X2237309Y57976143D01*
X2113500Y58099953D01*
X2051595Y58285667D01*
X2051595Y58409477D01*
X2113500Y58595191D01*
X2175404Y58657096D01*
X2051595Y59090429D02*
X2051595Y59957096D01*
X3351595Y59090429D01*
X3351595Y59957096D01*
X4144595Y47019000D02*
X5196976Y47019000D01*
X5320785Y47080905D01*
X5382690Y47142810D01*
X5444595Y47266620D01*
X5444595Y47514239D01*
X5382690Y47638048D01*
X5320785Y47699953D01*
X5196976Y47761858D01*
X4144595Y47761858D01*
X5382690Y48319000D02*
X5444595Y48504715D01*
X5444595Y48814239D01*
X5382690Y48938048D01*
X5320785Y48999953D01*
X5196976Y49061858D01*
X5073166Y49061858D01*
X4949357Y48999953D01*
X4887452Y48938048D01*
X4825547Y48814239D01*
X4763642Y48566620D01*
X4701738Y48442810D01*
X4639833Y48380905D01*
X4516023Y48319000D01*
X4392214Y48319000D01*
X4268404Y48380905D01*
X4206500Y48442810D01*
X4144595Y48566620D01*
X4144595Y48876143D01*
X4206500Y49061858D01*
X4144595Y49433286D02*
X4144595Y50176143D01*
X5444595Y49804715D02*
X4144595Y49804715D01*
X4144595Y51228524D02*
X4144595Y50609477D01*
X4763642Y50547572D01*
X4701738Y50609477D01*
X4639833Y50733286D01*
X4639833Y51042810D01*
X4701738Y51166620D01*
X4763642Y51228524D01*
X4887452Y51290429D01*
X5196976Y51290429D01*
X5320785Y51228524D01*
X5382690Y51166620D01*
X5444595Y51042810D01*
X5444595Y50733286D01*
X5382690Y50609477D01*
X5320785Y50547572D01*
X4763642Y52280905D02*
X4825547Y52466620D01*
X4887452Y52528524D01*
X5011261Y52590429D01*
X5196976Y52590429D01*
X5320785Y52528524D01*
X5382690Y52466620D01*
X5444595Y52342810D01*
X5444595Y51847572D01*
X4144595Y51847572D01*
X4144595Y52280905D01*
X4206500Y52404715D01*
X4268404Y52466620D01*
X4392214Y52528524D01*
X4516023Y52528524D01*
X4639833Y52466620D01*
X4701738Y52404715D01*
X4763642Y52280905D01*
X4763642Y51847572D01*
X5073166Y53085667D02*
X5073166Y53704715D01*
X5444595Y52961858D02*
X4144595Y53395191D01*
X5444595Y53828524D01*
X4144595Y54076143D02*
X4144595Y54819000D01*
X5444595Y54447572D02*
X4144595Y54447572D01*
X4144595Y55066620D02*
X4144595Y55809477D01*
X5444595Y55438048D02*
X4144595Y55438048D01*
X5444595Y56923762D02*
X5444595Y56180905D01*
X5444595Y56552334D02*
X4144595Y56552334D01*
X4330309Y56428524D01*
X4454119Y56304715D01*
X4516023Y56180905D01*
X4701738Y57666620D02*
X4639833Y57542810D01*
X4577928Y57480905D01*
X4454119Y57419000D01*
X4392214Y57419000D01*
X4268404Y57480905D01*
X4206500Y57542810D01*
X4144595Y57666620D01*
X4144595Y57914239D01*
X4206500Y58038048D01*
X4268404Y58099953D01*
X4392214Y58161858D01*
X4454119Y58161858D01*
X4577928Y58099953D01*
X4639833Y58038048D01*
X4701738Y57914239D01*
X4701738Y57666620D01*
X4763642Y57542810D01*
X4825547Y57480905D01*
X4949357Y57419000D01*
X5196976Y57419000D01*
X5320785Y57480905D01*
X5382690Y57542810D01*
X5444595Y57666620D01*
X5444595Y57914239D01*
X5382690Y58038048D01*
X5320785Y58099953D01*
X5196976Y58161858D01*
X4949357Y58161858D01*
X4825547Y58099953D01*
X4763642Y58038048D01*
X4701738Y57914239D01*
X4144595Y59276143D02*
X4144595Y59028524D01*
X4206500Y58904715D01*
X4268404Y58842810D01*
X4454119Y58719000D01*
X4701738Y58657096D01*
X5196976Y58657096D01*
X5320785Y58719000D01*
X5382690Y58780905D01*
X5444595Y58904715D01*
X5444595Y59152334D01*
X5382690Y59276143D01*
X5320785Y59338048D01*
X5196976Y59399953D01*
X4887452Y59399953D01*
X4763642Y59338048D01*
X4701738Y59276143D01*
X4639833Y59152334D01*
X4639833Y58904715D01*
X4701738Y58780905D01*
X4763642Y58719000D01*
X4887452Y58657096D01*
X4144595Y60576143D02*
X4144595Y59957096D01*
X4763642Y59895191D01*
X4701738Y59957096D01*
X4639833Y60080905D01*
X4639833Y60390429D01*
X4701738Y60514239D01*
X4763642Y60576143D01*
X4887452Y60638048D01*
X5196976Y60638048D01*
X5320785Y60576143D01*
X5382690Y60514239D01*
X5444595Y60390429D01*
X5444595Y60080905D01*
X5382690Y59957096D01*
X5320785Y59895191D01*
X4144595Y61442810D02*
X4144595Y61566620D01*
X4206500Y61690429D01*
X4268404Y61752334D01*
X4392214Y61814239D01*
X4639833Y61876143D01*
X4949357Y61876143D01*
X5196976Y61814239D01*
X5320785Y61752334D01*
X5382690Y61690429D01*
X5444595Y61566620D01*
X5444595Y61442810D01*
X5382690Y61319000D01*
X5320785Y61257096D01*
X5196976Y61195191D01*
X4949357Y61133286D01*
X4639833Y61133286D01*
X4392214Y61195191D01*
X4268404Y61257096D01*
X4206500Y61319000D01*
X4144595Y61442810D01*
X4144595Y62247572D02*
X5444595Y62680905D01*
X4144595Y63114239D01*
X4144595Y63795191D02*
X4144595Y63919000D01*
X4206500Y64042810D01*
X4268404Y64104715D01*
X4392214Y64166620D01*
X4639833Y64228524D01*
X4949357Y64228524D01*
X5196976Y64166620D01*
X5320785Y64104715D01*
X5382690Y64042810D01*
X5444595Y63919000D01*
X5444595Y63795191D01*
X5382690Y63671381D01*
X5320785Y63609477D01*
X5196976Y63547572D01*
X4949357Y63485667D01*
X4639833Y63485667D01*
X4392214Y63547572D01*
X4268404Y63609477D01*
X4206500Y63671381D01*
X4144595Y63795191D01*
X5444595Y65466620D02*
X5444595Y64723762D01*
X5444595Y65095191D02*
X4144595Y65095191D01*
X4330309Y64971381D01*
X4454119Y64847572D01*
X4516023Y64723762D01*
X5073166Y65961858D02*
X5073166Y66580905D01*
X5444595Y65838048D02*
X4144595Y66271381D01*
X5444595Y66704715D01*
X95523595Y5363667D02*
X96452166Y5363667D01*
X96637880Y5301762D01*
X96761690Y5177953D01*
X96823595Y4992239D01*
X96823595Y4868429D01*
X96452166Y5920810D02*
X96452166Y6539858D01*
X96823595Y5797000D02*
X95523595Y6230334D01*
X96823595Y6663667D01*
X96699785Y7839858D02*
X96761690Y7777953D01*
X96823595Y7592239D01*
X96823595Y7468429D01*
X96761690Y7282715D01*
X96637880Y7158905D01*
X96514071Y7097000D01*
X96266452Y7035096D01*
X96080738Y7035096D01*
X95833119Y7097000D01*
X95709309Y7158905D01*
X95585500Y7282715D01*
X95523595Y7468429D01*
X95523595Y7592239D01*
X95585500Y7777953D01*
X95647404Y7839858D01*
X96823595Y8397000D02*
X95523595Y8397000D01*
X96142642Y8397000D02*
X96142642Y9139858D01*
X96823595Y9139858D02*
X95523595Y9139858D01*
X95523595Y10006524D02*
X95523595Y10254143D01*
X95585500Y10377953D01*
X95709309Y10501762D01*
X95956928Y10563667D01*
X96390261Y10563667D01*
X96637880Y10501762D01*
X96761690Y10377953D01*
X96823595Y10254143D01*
X96823595Y10006524D01*
X96761690Y9882715D01*
X96637880Y9758905D01*
X96390261Y9697000D01*
X95956928Y9697000D01*
X95709309Y9758905D01*
X95585500Y9882715D01*
X95523595Y10006524D01*
X97740404Y5518429D02*
X97678500Y5580334D01*
X97616595Y5704143D01*
X97616595Y6013667D01*
X97678500Y6137477D01*
X97740404Y6199381D01*
X97864214Y6261286D01*
X97988023Y6261286D01*
X98173738Y6199381D01*
X98916595Y5456524D01*
X98916595Y6261286D01*
X97616595Y7066048D02*
X97616595Y7189858D01*
X97678500Y7313667D01*
X97740404Y7375572D01*
X97864214Y7437477D01*
X98111833Y7499381D01*
X98421357Y7499381D01*
X98668976Y7437477D01*
X98792785Y7375572D01*
X98854690Y7313667D01*
X98916595Y7189858D01*
X98916595Y7066048D01*
X98854690Y6942239D01*
X98792785Y6880334D01*
X98668976Y6818429D01*
X98421357Y6756524D01*
X98111833Y6756524D01*
X97864214Y6818429D01*
X97740404Y6880334D01*
X97678500Y6942239D01*
X97616595Y7066048D01*
X97740404Y7994620D02*
X97678500Y8056524D01*
X97616595Y8180334D01*
X97616595Y8489858D01*
X97678500Y8613667D01*
X97740404Y8675572D01*
X97864214Y8737477D01*
X97988023Y8737477D01*
X98173738Y8675572D01*
X98916595Y7932715D01*
X98916595Y8737477D01*
X97740404Y9232715D02*
X97678500Y9294620D01*
X97616595Y9418429D01*
X97616595Y9727953D01*
X97678500Y9851762D01*
X97740404Y9913667D01*
X97864214Y9975572D01*
X97988023Y9975572D01*
X98173738Y9913667D01*
X98916595Y9170810D01*
X98916595Y9975572D01*
%TO.C,BT2*%
X49287857Y61098096D02*
X49287857Y62621905D01*
X29987857Y15378096D02*
X29987857Y16901905D01*
X30749761Y16140000D02*
X29225952Y16140000D01*
X10687857Y61098096D02*
X10687857Y62621905D01*
X10687857Y15378096D02*
X10687857Y16901905D01*
X11449761Y16140000D02*
X9925952Y16140000D01*
X29987857Y61098096D02*
X29987857Y62621905D01*
X49287857Y15378096D02*
X49287857Y16901905D01*
X50049761Y16140000D02*
X48525952Y16140000D01*
D11*
%TO.C,BT1*%
X75874571Y38584286D02*
X75922190Y38727143D01*
X75969809Y38774762D01*
X76065047Y38822381D01*
X76207904Y38822381D01*
X76303142Y38774762D01*
X76350761Y38727143D01*
X76398380Y38631905D01*
X76398380Y38250953D01*
X75398380Y38250953D01*
X75398380Y38584286D01*
X75446000Y38679524D01*
X75493619Y38727143D01*
X75588857Y38774762D01*
X75684095Y38774762D01*
X75779333Y38727143D01*
X75826952Y38679524D01*
X75874571Y38584286D01*
X75874571Y38250953D01*
X75398380Y39108096D02*
X75398380Y39679524D01*
X76398380Y39393810D02*
X75398380Y39393810D01*
X76398380Y40536667D02*
X76398380Y39965239D01*
X76398380Y40250953D02*
X75398380Y40250953D01*
X75541238Y40155715D01*
X75636476Y40060477D01*
X75684095Y39965239D01*
D10*
X89742857Y61098096D02*
X89742857Y62621905D01*
X70408413Y15317997D02*
X70408413Y16841806D01*
X71170317Y16079901D02*
X69646508Y16079901D01*
X70442857Y61098096D02*
X70442857Y62621905D01*
X89708413Y15317997D02*
X89708413Y16841806D01*
X90470317Y16079901D02*
X88946508Y16079901D01*
D12*
%TO.C,BT2*%
X59690000Y77850000D02*
X59690000Y150000D01*
X0Y150000D02*
X0Y77850000D01*
X0Y77850000D02*
X59690000Y77850000D01*
X59690000Y150000D02*
X0Y150000D01*
%TO.C,G1*%
G36*
X29011100Y27225413D02*
G01*
X28993441Y27098930D01*
X28948503Y27028380D01*
X28841911Y26994698D01*
X28639292Y26978824D01*
X28559388Y26974912D01*
X28129797Y26954255D01*
X27671785Y24645017D01*
X27365603Y24645017D01*
X27180555Y24649956D01*
X27071646Y24662412D01*
X27059420Y24669153D01*
X27072613Y24742677D01*
X27108968Y24929298D01*
X27163653Y25204601D01*
X27231837Y25544170D01*
X27269917Y25732586D01*
X27343587Y26102312D01*
X27406004Y26426996D01*
X27452230Y26680036D01*
X27477325Y26834832D01*
X27480415Y26866185D01*
X27428485Y26927739D01*
X27262335Y26956825D01*
X27125140Y26960486D01*
X26769866Y26960486D01*
X26813840Y27416564D01*
X27923531Y27435910D01*
X29033221Y27455257D01*
X29011100Y27225413D01*
G37*
G36*
X25461066Y27503024D02*
G01*
X25696096Y27455014D01*
X25793726Y27417966D01*
X26022113Y27253237D01*
X26196747Y27040836D01*
X26283591Y26825029D01*
X26287597Y26775610D01*
X26268917Y26665430D01*
X26186209Y26618638D01*
X26027111Y26609658D01*
X25805918Y26643267D01*
X25643733Y26765399D01*
X25615565Y26799105D01*
X25432360Y26936626D01*
X25200339Y26992932D01*
X24974492Y26962121D01*
X24845619Y26881728D01*
X24774293Y26765930D01*
X24805195Y26649356D01*
X24948045Y26520636D01*
X25212562Y26368401D01*
X25337199Y26306731D01*
X25673600Y26127180D01*
X25894601Y25958574D01*
X26020740Y25777015D01*
X26072555Y25558607D01*
X26077100Y25445773D01*
X26011679Y25118076D01*
X25821842Y24846850D01*
X25583229Y24678698D01*
X25356290Y24610733D01*
X25052393Y24581903D01*
X24729384Y24592349D01*
X24445110Y24642214D01*
X24349500Y24675674D01*
X24094710Y24848832D01*
X23939320Y25088693D01*
X23901962Y25292121D01*
X23914531Y25416993D01*
X23978820Y25472704D01*
X24134702Y25486768D01*
X24184361Y25487006D01*
X24378536Y25471502D01*
X24482796Y25409235D01*
X24530982Y25318091D01*
X24652062Y25175580D01*
X24851239Y25097172D01*
X25080768Y25084879D01*
X25292898Y25140711D01*
X25439881Y25266681D01*
X25447207Y25279497D01*
X25488926Y25410092D01*
X25449454Y25525412D01*
X25313143Y25642936D01*
X25064345Y25780141D01*
X24949806Y25835103D01*
X24598027Y26021965D01*
X24365631Y26204763D01*
X24233966Y26404738D01*
X24184383Y26643126D01*
X24182625Y26708756D01*
X24239602Y27038251D01*
X24408266Y27284730D01*
X24685219Y27445478D01*
X25067060Y27517776D01*
X25200028Y27521812D01*
X25461066Y27503024D01*
G37*
G36*
X17283873Y29380105D02*
G01*
X17713895Y29358738D01*
X18065894Y29320797D01*
X18253619Y29282326D01*
X18851888Y29058879D01*
X19374110Y28752860D01*
X19801248Y28378113D01*
X20114263Y27948481D01*
X20131376Y27916771D01*
X20258142Y27544665D01*
X20293599Y27115662D01*
X20238816Y26678504D01*
X20095584Y26283318D01*
X19782052Y25820320D01*
X19357506Y25399766D01*
X18849551Y25042250D01*
X18285791Y24768367D01*
X17897849Y24643753D01*
X17165561Y24517737D01*
X16457599Y24516840D01*
X15789228Y24639493D01*
X15175715Y24884129D01*
X15087619Y24932237D01*
X14753058Y25086257D01*
X14484244Y25126011D01*
X14266257Y25052060D01*
X14166182Y24966909D01*
X13998420Y24701134D01*
X13953052Y24405896D01*
X14020596Y24099710D01*
X14191572Y23801091D01*
X14456499Y23528555D01*
X14805895Y23300616D01*
X15079616Y23183088D01*
X15638852Y23038679D01*
X16278734Y22960759D01*
X16956290Y22949395D01*
X17628547Y23004655D01*
X18252536Y23126606D01*
X18429033Y23177830D01*
X18853397Y23333650D01*
X19204473Y23519049D01*
X19526757Y23763337D01*
X19864749Y24095819D01*
X19929709Y24166221D01*
X20128936Y24377184D01*
X20292818Y24537027D01*
X20399485Y24625167D01*
X20427448Y24634632D01*
X20417161Y24558309D01*
X20354766Y24393816D01*
X20255469Y24180277D01*
X19918236Y23659871D01*
X19469016Y23223465D01*
X18908771Y22871784D01*
X18238466Y22605554D01*
X18113288Y22568747D01*
X17760033Y22497538D01*
X17311915Y22448303D01*
X16808813Y22421485D01*
X16290609Y22417527D01*
X15797181Y22436874D01*
X15368409Y22479968D01*
X15086480Y22535087D01*
X14495489Y22733107D01*
X14013738Y22983565D01*
X13615676Y23299852D01*
X13602479Y23312738D01*
X13255252Y23733307D01*
X13046657Y24175433D01*
X12976792Y24638277D01*
X13045756Y25121003D01*
X13253648Y25622772D01*
X13317461Y25734668D01*
X13565035Y26044231D01*
X13925417Y26353019D01*
X14371798Y26646089D01*
X14877372Y26908499D01*
X15415331Y27125307D01*
X15958868Y27281572D01*
X16166940Y27322941D01*
X16800504Y27362071D01*
X17433011Y27261559D01*
X18066368Y27021088D01*
X18113288Y26997740D01*
X18522743Y26825813D01*
X18853078Y26762517D01*
X19101050Y26807016D01*
X19263418Y26958472D01*
X19336940Y27216048D01*
X19341188Y27314800D01*
X19274107Y27688399D01*
X19084955Y28041521D01*
X18791874Y28347840D01*
X18496542Y28540590D01*
X18139895Y28675999D01*
X17681578Y28776635D01*
X17156356Y28840556D01*
X16598995Y28865821D01*
X16044261Y28850487D01*
X15526921Y28792612D01*
X15201409Y28724641D01*
X14737865Y28591625D01*
X14376138Y28454847D01*
X14078738Y28293648D01*
X13808171Y28087367D01*
X13526947Y27815343D01*
X13499890Y27786990D01*
X13297986Y27568749D01*
X13138946Y27386126D01*
X13043859Y27263942D01*
X13026271Y27229617D01*
X12972548Y27172620D01*
X12956105Y27170984D01*
X12888227Y27222351D01*
X12907748Y27368733D01*
X13010795Y27598551D01*
X13193497Y27900225D01*
X13206517Y27919774D01*
X13363776Y28145098D01*
X13498472Y28320619D01*
X13587331Y28416530D01*
X13601200Y28425196D01*
X13703616Y28491490D01*
X13809033Y28585237D01*
X14000420Y28729842D01*
X14288165Y28890961D01*
X14632825Y29049733D01*
X14994958Y29187298D01*
X15201409Y29251035D01*
X15490981Y29307094D01*
X15879384Y29348394D01*
X16331247Y29374571D01*
X16811200Y29385262D01*
X17283873Y29380105D01*
G37*
G36*
X22049448Y27433609D02*
G01*
X22144027Y27383700D01*
X22147818Y27367979D01*
X22134859Y27271787D01*
X22099294Y27065448D01*
X22046089Y26776415D01*
X21980211Y26432137D01*
X21957398Y26315464D01*
X21882955Y25930899D01*
X21835231Y25659869D01*
X21812705Y25478447D01*
X21813857Y25362707D01*
X21837166Y25288723D01*
X21881113Y25232568D01*
X21888143Y25225449D01*
X22068734Y25130530D01*
X22309602Y25105487D01*
X22549828Y25149460D01*
X22704239Y25236986D01*
X22805526Y25364577D01*
X22897618Y25563986D01*
X22985845Y25852462D01*
X23075536Y26247256D01*
X23166245Y26732448D01*
X23291908Y27451647D01*
X23596935Y27451647D01*
X23809822Y27433767D01*
X23898043Y27377758D01*
X23901962Y27356047D01*
X23884971Y27197566D01*
X23839307Y26938483D01*
X23772927Y26613662D01*
X23693791Y26257968D01*
X23609858Y25906265D01*
X23529087Y25593416D01*
X23459436Y25354285D01*
X23420487Y25246979D01*
X23236511Y24942633D01*
X22988528Y24740462D01*
X22655145Y24627727D01*
X22323542Y24593735D01*
X22053834Y24593742D01*
X21823725Y24610405D01*
X21686018Y24639233D01*
X21518575Y24753307D01*
X21350795Y24931092D01*
X21220519Y25125060D01*
X21165592Y25287683D01*
X21165498Y25292954D01*
X21178020Y25412155D01*
X21212426Y25640113D01*
X21263977Y25947803D01*
X21327932Y26306198D01*
X21353689Y26445305D01*
X21541880Y27451647D01*
X21844849Y27451647D01*
X22049448Y27433609D01*
G37*
%TO.C,BT1*%
X100055000Y150000D02*
X59845000Y150000D01*
X59845000Y150000D02*
X59845000Y77850000D01*
X100055000Y77850000D02*
X100055000Y150000D01*
X59845000Y77850000D02*
X100055000Y77850000D01*
%TD*%
M02*
