M48
; DRILL file {KiCad 6.0.4-6f826c9f35~116~ubuntu20.04.1} date Sun Oct 16 07:24:19 2022
; FORMAT={-:-/ absolute / metric / decimal}
; #@! TF.CreationDate,2022-10-16T07:24:19+00:00
; #@! TF.GenerationSoftware,Kicad,Pcbnew,6.0.4-6f826c9f35~116~ubuntu20.04.1
; #@! TF.FileFunction,Plated,1,2,PTH
FMAT,2
METRIC
; #@! TA.AperFunction,Plated,PTH,ComponentDrill
T1C0.300
; #@! TA.AperFunction,Plated,PTH,ViaDrill
T2C0.400
; #@! TA.AperFunction,Plated,PTH,ComponentDrill
T3C1.600
%
G90
G05
T1
X78.478Y23.155
X78.478Y22.155
X78.978Y22.655
X79.478Y23.155
X79.478Y22.155
T2
X4.272Y71.628
X6.223Y42.164
X8.013Y13.716
X8.347Y71.628
X10.299Y42.164
X12.088Y13.716
X12.423Y71.628
X14.374Y42.164
X14.732Y2.032
X16.164Y13.716
X16.498Y71.628
X17.653Y2.032
X18.45Y42.164
X20.239Y13.716
X20.574Y71.628
X20.574Y2.032
X22.525Y42.164
X23.495Y2.032
X24.315Y13.716
X24.65Y71.628
X26.416Y2.032
X26.601Y42.164
X28.39Y13.716
X28.725Y71.628
X30.676Y42.164
X32.466Y13.716
X32.801Y71.628
X33.274Y2.032
X34.752Y42.164
X36.131Y2.032
X36.541Y13.716
X36.876Y71.628
X38.827Y42.164
X38.989Y2.032
X40.617Y13.716
X40.952Y71.628
X41.846Y2.032
X42.903Y42.164
X44.692Y13.716
X44.704Y2.032
X45.027Y71.628
X46.978Y42.164
X48.768Y13.716
X49.103Y71.628
X51.054Y42.164
X52.844Y13.716
X53.178Y71.628
X53.34Y2.032
X55.13Y42.164
X56.706Y2.032
X56.919Y13.716
X57.254Y71.628
X59.205Y42.164
X60.071Y2.032
X60.995Y13.716
X61.329Y71.628
X63.281Y42.164
X63.436Y2.032
X65.07Y13.716
X65.405Y71.628
X66.802Y2.032
X67.356Y42.164
X69.146Y13.716
X69.481Y71.628
X71.432Y42.164
X73.221Y13.716
X73.533Y22.733
X73.533Y21.844
X73.556Y71.628
X73.914Y33.02
X73.914Y32.004
X73.914Y30.988
X73.914Y29.972
X73.914Y28.956
X73.914Y27.94
X74.168Y2.032
X74.486Y22.733
X74.486Y21.844
X75.438Y22.733
X75.438Y21.844
X75.507Y42.164
X76.073Y25.908
X76.2Y25.019
X76.327Y26.797
X76.391Y22.733
X76.391Y21.844
X76.962Y25.908
X77.216Y25.019
X77.297Y13.716
X77.632Y71.628
X77.893Y2.032
X79.583Y42.164
X80.391Y25.4
X80.518Y19.812
X81.372Y13.716
X81.407Y25.4
X81.534Y19.812
X81.619Y2.032
X81.661Y23.114
X81.661Y22.225
X81.707Y71.628
X82.169Y26.162
X82.423Y19.05
X82.55Y17.526
X82.55Y16.51
X82.55Y15.494
X82.614Y23.114
X82.614Y22.225
X82.677Y32.893
X82.677Y31.877
X82.677Y30.861
X82.677Y29.845
X82.677Y28.829
X82.677Y27.813
X82.931Y26.924
X83.185Y18.288
X83.566Y23.114
X83.566Y22.225
X83.566Y16.51
X83.566Y15.494
X83.658Y42.164
X83.693Y32.893
X83.693Y31.877
X83.693Y30.861
X83.693Y29.845
X83.693Y28.829
X83.693Y27.686
X83.947Y17.526
X84.455Y28.448
X84.519Y23.114
X84.519Y22.225
X84.709Y16.764
X85.344Y2.032
X85.448Y13.716
X85.471Y23.114
X85.471Y22.225
X85.783Y71.628
X86.423Y23.114
X86.423Y22.225
X87.376Y23.114
X87.376Y22.225
X87.734Y42.164
X89.523Y13.716
X89.858Y71.628
X91.809Y42.164
X93.218Y2.032
X93.599Y13.716
X93.934Y71.628
X94.869Y52.07
X94.869Y48.387
X95.885Y42.164
X96.266Y52.07
X96.266Y48.387
X96.52Y2.032
X97.028Y60.579
X97.028Y57.023
X97.675Y13.716
X98.679Y60.579
X98.679Y57.023
T3
X10.545Y75.25
X10.545Y2.75
X29.845Y75.25
X29.845Y2.75
X49.145Y75.25
X49.145Y2.75
X70.3Y75.3
X70.3Y2.7
X89.6Y75.3
X89.6Y2.7
T0
M30
