%TF.GenerationSoftware,KiCad,Pcbnew,6.0.4-6f826c9f35~116~ubuntu20.04.1*%
%TF.CreationDate,2022-10-18T09:56:38+00:00*%
%TF.ProjectId,UST5BATT18650V01A,55535435-4241-4545-9431-383635305630,rev?*%
%TF.SameCoordinates,PX463f660PY87a6900*%
%TF.FileFunction,Paste,Bot*%
%TF.FilePolarity,Positive*%
%FSLAX46Y46*%
G04 Gerber Fmt 4.6, Leading zero omitted, Abs format (unit mm)*
G04 Created by KiCad (PCBNEW 6.0.4-6f826c9f35~116~ubuntu20.04.1) date 2022-10-18 09:56:38*
%MOMM*%
%LPD*%
G01*
G04 APERTURE LIST*
G04 Aperture macros list*
%AMRoundRect*
0 Rectangle with rounded corners*
0 $1 Rounding radius*
0 $2 $3 $4 $5 $6 $7 $8 $9 X,Y pos of 4 corners*
0 Add a 4 corners polygon primitive as box body*
4,1,4,$2,$3,$4,$5,$6,$7,$8,$9,$2,$3,0*
0 Add four circle primitives for the rounded corners*
1,1,$1+$1,$2,$3*
1,1,$1+$1,$4,$5*
1,1,$1+$1,$6,$7*
1,1,$1+$1,$8,$9*
0 Add four rect primitives between the rounded corners*
20,1,$1+$1,$2,$3,$4,$5,0*
20,1,$1+$1,$4,$5,$6,$7,0*
20,1,$1+$1,$6,$7,$8,$9,0*
20,1,$1+$1,$8,$9,$2,$3,0*%
G04 Aperture macros list end*
%ADD10RoundRect,0.250000X0.250000X0.475000X-0.250000X0.475000X-0.250000X-0.475000X0.250000X-0.475000X0*%
%ADD11RoundRect,0.243750X-0.456250X0.243750X-0.456250X-0.243750X0.456250X-0.243750X0.456250X0.243750X0*%
%ADD12RoundRect,0.150000X-0.700000X0.150000X-0.700000X-0.150000X0.700000X-0.150000X0.700000X0.150000X0*%
%ADD13RoundRect,0.250000X-1.100000X0.250000X-1.100000X-0.250000X1.100000X-0.250000X1.100000X0.250000X0*%
%ADD14RoundRect,0.250000X-0.262500X-0.450000X0.262500X-0.450000X0.262500X0.450000X-0.262500X0.450000X0*%
%ADD15RoundRect,0.250000X-0.475000X0.250000X-0.475000X-0.250000X0.475000X-0.250000X0.475000X0.250000X0*%
%ADD16R,5.500000X3.000000*%
%ADD17RoundRect,0.250000X0.262500X0.450000X-0.262500X0.450000X-0.262500X-0.450000X0.262500X-0.450000X0*%
%ADD18R,0.230000X0.230000*%
%ADD19O,0.230000X0.800000*%
%ADD20R,0.600000X0.150000*%
%ADD21R,0.600000X0.230000*%
%ADD22R,0.900000X0.650000*%
%ADD23RoundRect,0.150000X0.700000X-0.150000X0.700000X0.150000X-0.700000X0.150000X-0.700000X-0.150000X0*%
%ADD24RoundRect,0.250000X1.100000X-0.250000X1.100000X0.250000X-1.100000X0.250000X-1.100000X-0.250000X0*%
%ADD25R,3.400000X1.900000*%
G04 APERTURE END LIST*
D10*
%TO.C,C5*%
X81214000Y27432000D03*
X79314000Y27432000D03*
%TD*%
D11*
%TO.C,F4*%
X35052000Y6017500D03*
X35052000Y4142500D03*
%TD*%
D10*
%TO.C,C2*%
X81214000Y18034000D03*
X79314000Y18034000D03*
%TD*%
D12*
%TO.C,J1*%
X94924000Y60051000D03*
X94924000Y58801000D03*
X94924000Y57551000D03*
D13*
X98124000Y61901000D03*
X98124000Y55701000D03*
%TD*%
D14*
%TO.C,R2*%
X75391000Y30480000D03*
X77216000Y30480000D03*
%TD*%
D10*
%TO.C,C4*%
X77253500Y27940000D03*
X75353500Y27940000D03*
%TD*%
D11*
%TO.C,F5*%
X54356000Y6017500D03*
X54356000Y4142500D03*
%TD*%
D14*
%TO.C,R1*%
X75414500Y35052000D03*
X77239500Y35052000D03*
%TD*%
D10*
%TO.C,C7*%
X81214000Y32004000D03*
X79314000Y32004000D03*
%TD*%
D15*
%TO.C,C3*%
X74676000Y25842000D03*
X74676000Y23942000D03*
%TD*%
D16*
%TO.C,L1*%
X89154000Y17606000D03*
X89154000Y27606000D03*
%TD*%
D10*
%TO.C,C6*%
X81214000Y29718000D03*
X79314000Y29718000D03*
%TD*%
D11*
%TO.C,F2*%
X83566000Y6017500D03*
X83566000Y4142500D03*
%TD*%
D10*
%TO.C,C1*%
X81214000Y15494000D03*
X79314000Y15494000D03*
%TD*%
D17*
%TO.C,R3*%
X77239500Y32766000D03*
X75414500Y32766000D03*
%TD*%
D18*
%TO.C,X1*%
X79978000Y20895000D03*
D19*
X79978000Y21180000D03*
D18*
X79478000Y20895000D03*
D19*
X79478000Y21180000D03*
D18*
X78978000Y20895000D03*
D19*
X78978000Y21180000D03*
X78478000Y21180000D03*
D18*
X78478000Y20895000D03*
X77978000Y20895000D03*
D19*
X77978000Y21180000D03*
X77978000Y24130000D03*
D18*
X77978000Y24415000D03*
D19*
X78478000Y24130000D03*
D18*
X78478000Y24415000D03*
D19*
X78978000Y24130000D03*
D18*
X78978000Y24415000D03*
D19*
X79478000Y24130000D03*
D18*
X79478000Y24415000D03*
X79978000Y24415000D03*
D19*
X79978000Y24130000D03*
D20*
X77553000Y22055000D03*
X77553000Y23255000D03*
D21*
X77553000Y22055000D03*
D20*
X80403000Y22055000D03*
D22*
X79538000Y23090000D03*
D20*
X80403000Y22855000D03*
D21*
X77553000Y22455000D03*
X80403000Y22855000D03*
D20*
X77553000Y22855000D03*
X80403000Y23255000D03*
D21*
X77553000Y22855000D03*
D20*
X80403000Y22455000D03*
D22*
X78418000Y22220000D03*
D21*
X80403000Y22055000D03*
D22*
X79538000Y22220000D03*
X78418000Y23090000D03*
D20*
X77553000Y22455000D03*
D21*
X80403000Y23255000D03*
X77553000Y23255000D03*
X80403000Y22455000D03*
%TD*%
D23*
%TO.C,J2*%
X98624000Y48990000D03*
X98624000Y50240000D03*
X98624000Y51490000D03*
D24*
X95424000Y47140000D03*
X95424000Y53340000D03*
%TD*%
D11*
%TO.C,F3*%
X16256000Y6017500D03*
X16256000Y4142500D03*
%TD*%
%TO.C,F1*%
X75946000Y6017500D03*
X75946000Y4142500D03*
%TD*%
D25*
%TO.C,F6*%
X80645000Y35388000D03*
X80645000Y39288000D03*
%TD*%
M02*
