M48
; DRILL file {KiCad 6.0.11+dfsg-1~bpo11+1} date Tue Mar 28 16:47:10 2023
; FORMAT={-:-/ absolute / metric / decimal}
; #@! TF.CreationDate,2023-03-28T16:47:10+00:00
; #@! TF.GenerationSoftware,Kicad,Pcbnew,6.0.11+dfsg-1~bpo11+1
; #@! TF.FileFunction,Plated,1,2,PTH
FMAT,2
METRIC
; #@! TA.AperFunction,Plated,PTH,ComponentDrill
T1C0.300
; #@! TA.AperFunction,Plated,PTH,ViaDrill
T2C0.400
; #@! TA.AperFunction,Plated,PTH,ComponentDrill
T3C1.600
%
G90
G05
T1
X78.478Y23.155
X78.478Y22.155
X78.978Y22.655
X79.478Y23.155
X79.478Y22.155
T2
X4.272Y71.628
X6.223Y42.164
X8.013Y13.716
X8.347Y71.628
X10.299Y42.164
X12.088Y13.716
X12.423Y71.628
X14.374Y42.164
X14.859Y1.27
X16.164Y13.716
X17.653Y1.27
X18.45Y42.164
X18.923Y70.358
X20.239Y13.716
X20.574Y71.628
X20.574Y2.032
X22.525Y42.164
X23.495Y2.032
X24.315Y13.716
X26.416Y2.032
X26.601Y42.164
X27.305Y70.358
X28.39Y13.716
X28.725Y71.628
X30.676Y42.164
X32.466Y13.716
X32.801Y71.628
X33.274Y1.27
X34.752Y42.164
X36.195Y1.27
X36.541Y13.716
X36.876Y71.628
X38.827Y42.164
X38.989Y2.032
X40.513Y71.628
X40.617Y13.716
X41.846Y2.032
X42.903Y42.164
X44.692Y13.716
X44.704Y2.032
X46.866Y71.642
X46.978Y42.164
X48.768Y13.716
X49.103Y71.628
X51.054Y42.164
X52.844Y13.716
X53.178Y71.628
X53.34Y1.27
X55.13Y42.164
X56.642Y1.27
X56.919Y13.716
X57.254Y71.628
X59.205Y42.164
X60.071Y2.032
X60.995Y13.716
X61.329Y71.628
X61.976Y69.469
X63.281Y42.164
X63.436Y2.032
X65.07Y13.716
X66.802Y2.032
X67.356Y42.164
X69.146Y13.716
X69.481Y71.628
X71.432Y42.164
X73.221Y13.716
X73.533Y22.733
X73.533Y21.844
X73.533Y20.955
X73.556Y71.628
X73.787Y30.988
X73.787Y29.972
X73.787Y28.956
X73.787Y27.94
X73.914Y35.052
X73.914Y34.036
X73.914Y33.02
X73.914Y32.004
X74.168Y1.143
X74.486Y22.733
X74.486Y21.844
X74.486Y20.955
X75.438Y22.733
X75.438Y21.844
X75.438Y20.955
X75.507Y42.164
X76.391Y22.733
X76.391Y21.844
X76.391Y20.955
X77.297Y13.716
X77.632Y71.628
X77.851Y1.143
X78.359Y33.909
X80.391Y25.4
X80.518Y19.812
X80.645Y33.655
X80.899Y71.628
X81.372Y13.716
X81.407Y25.4
X81.534Y19.812
X81.661Y23.114
X81.661Y22.225
X81.661Y1.143
X81.788Y33.655
X82.169Y26.162
X82.423Y19.05
X82.55Y17.526
X82.55Y16.51
X82.55Y15.494
X82.614Y23.114
X82.614Y22.225
X82.677Y32.893
X82.677Y31.877
X82.677Y30.861
X82.677Y29.845
X82.677Y28.829
X82.677Y27.813
X82.931Y26.924
X83.185Y18.288
X83.566Y23.114
X83.566Y22.225
X83.566Y16.51
X83.566Y15.494
X83.693Y32.893
X83.693Y31.877
X83.693Y30.861
X83.693Y29.845
X83.693Y28.829
X83.693Y27.686
X83.947Y17.526
X84.455Y28.448
X84.519Y23.114
X84.519Y22.225
X84.709Y16.764
X85.344Y1.143
X85.448Y13.716
X85.471Y23.114
X85.471Y22.225
X86.423Y23.114
X86.423Y22.225
X87.376Y23.114
X87.376Y22.225
X87.734Y42.164
X88.266Y71.642
X88.328Y23.114
X88.328Y22.225
X89.281Y23.114
X89.281Y22.225
X89.523Y13.716
X89.858Y71.628
X90.233Y23.114
X90.233Y22.225
X91.809Y42.164
X93.218Y2.032
X93.934Y71.628
X94.166Y13.716
X94.869Y52.07
X94.869Y48.387
X95.885Y42.164
X96.266Y52.07
X96.266Y48.387
X96.52Y2.032
X97.028Y60.579
X97.028Y57.023
X97.675Y13.716
X98.679Y60.579
X98.679Y57.023
T3
X10.545Y75.25
X10.545Y2.75
X29.845Y75.25
X29.845Y2.75
X49.145Y75.25
X49.145Y2.75
X70.3Y75.3
X70.3Y2.7
X89.6Y75.3
X89.6Y2.7
T0
M30
