%TF.GenerationSoftware,KiCad,Pcbnew,6.0.11+dfsg-1*%
%TF.CreationDate,2024-03-28T01:05:38+00:00*%
%TF.ProjectId,UST5BATT18650V01,55535435-4241-4545-9431-383635305630,rev?*%
%TF.SameCoordinates,PX463f660PY87a6900*%
%TF.FileFunction,Copper,L2,Bot*%
%TF.FilePolarity,Positive*%
%FSLAX46Y46*%
G04 Gerber Fmt 4.6, Leading zero omitted, Abs format (unit mm)*
G04 Created by KiCad (PCBNEW 6.0.11+dfsg-1) date 2024-03-28 01:05:38*
%MOMM*%
%LPD*%
G01*
G04 APERTURE LIST*
G04 Aperture macros list*
%AMRoundRect*
0 Rectangle with rounded corners*
0 $1 Rounding radius*
0 $2 $3 $4 $5 $6 $7 $8 $9 X,Y pos of 4 corners*
0 Add a 4 corners polygon primitive as box body*
4,1,4,$2,$3,$4,$5,$6,$7,$8,$9,$2,$3,0*
0 Add four circle primitives for the rounded corners*
1,1,$1+$1,$2,$3*
1,1,$1+$1,$4,$5*
1,1,$1+$1,$6,$7*
1,1,$1+$1,$8,$9*
0 Add four rect primitives between the rounded corners*
20,1,$1+$1,$2,$3,$4,$5,0*
20,1,$1+$1,$4,$5,$6,$7,0*
20,1,$1+$1,$6,$7,$8,$9,0*
20,1,$1+$1,$8,$9,$2,$3,0*%
%AMFreePoly0*
4,1,22,0.500000,-0.750000,0.000000,-0.750000,0.000000,-0.745033,-0.079941,-0.743568,-0.215256,-0.701293,-0.333266,-0.622738,-0.424486,-0.514219,-0.481581,-0.384460,-0.499164,-0.250000,-0.500000,-0.250000,-0.500000,0.250000,-0.499164,0.250000,-0.499963,0.256109,-0.478152,0.396186,-0.417904,0.524511,-0.324060,0.630769,-0.204165,0.706417,-0.067858,0.745374,0.000000,0.744959,0.000000,0.750000,
0.500000,0.750000,0.500000,-0.750000,0.500000,-0.750000,$1*%
%AMFreePoly1*
4,1,20,0.000000,0.744959,0.073905,0.744508,0.209726,0.703889,0.328688,0.626782,0.421226,0.519385,0.479903,0.390333,0.500000,0.250000,0.500000,-0.250000,0.499851,-0.262216,0.476331,-0.402017,0.414519,-0.529596,0.319384,-0.634700,0.198574,-0.708877,0.061801,-0.746166,0.000000,-0.745033,0.000000,-0.750000,-0.500000,-0.750000,-0.500000,0.750000,0.000000,0.750000,0.000000,0.744959,
0.000000,0.744959,$1*%
G04 Aperture macros list end*
%ADD10C,0.300000*%
%TA.AperFunction,NonConductor*%
%ADD11C,0.300000*%
%TD*%
%TA.AperFunction,ComponentPad*%
%ADD12R,4.000000X4.000000*%
%TD*%
%TA.AperFunction,SMDPad,CuDef*%
%ADD13R,3.400000X1.900000*%
%TD*%
%TA.AperFunction,SMDPad,CuDef*%
%ADD14RoundRect,0.250000X0.250000X0.475000X-0.250000X0.475000X-0.250000X-0.475000X0.250000X-0.475000X0*%
%TD*%
%TA.AperFunction,SMDPad,CuDef*%
%ADD15C,0.500000*%
%TD*%
%TA.AperFunction,SMDPad,CuDef*%
%ADD16RoundRect,0.150000X-0.700000X0.150000X-0.700000X-0.150000X0.700000X-0.150000X0.700000X0.150000X0*%
%TD*%
%TA.AperFunction,SMDPad,CuDef*%
%ADD17RoundRect,0.250000X-1.100000X0.250000X-1.100000X-0.250000X1.100000X-0.250000X1.100000X0.250000X0*%
%TD*%
%TA.AperFunction,SMDPad,CuDef*%
%ADD18RoundRect,0.250000X-0.262500X-0.450000X0.262500X-0.450000X0.262500X0.450000X-0.262500X0.450000X0*%
%TD*%
%TA.AperFunction,SMDPad,CuDef*%
%ADD19FreePoly0,0.000000*%
%TD*%
%TA.AperFunction,SMDPad,CuDef*%
%ADD20FreePoly1,0.000000*%
%TD*%
%TA.AperFunction,SMDPad,CuDef*%
%ADD21RoundRect,0.250000X-0.475000X0.250000X-0.475000X-0.250000X0.475000X-0.250000X0.475000X0.250000X0*%
%TD*%
%TA.AperFunction,SMDPad,CuDef*%
%ADD22R,5.500000X3.000000*%
%TD*%
%TA.AperFunction,SMDPad,CuDef*%
%ADD23RoundRect,0.250000X0.262500X0.450000X-0.262500X0.450000X-0.262500X-0.450000X0.262500X-0.450000X0*%
%TD*%
%TA.AperFunction,SMDPad,CuDef*%
%ADD24R,0.280000X0.280000*%
%TD*%
%TA.AperFunction,SMDPad,CuDef*%
%ADD25O,0.280000X0.850000*%
%TD*%
%TA.AperFunction,SMDPad,CuDef*%
%ADD26R,0.700000X0.250000*%
%TD*%
%TA.AperFunction,SMDPad,CuDef*%
%ADD27R,0.600000X0.230000*%
%TD*%
%TA.AperFunction,ComponentPad*%
%ADD28C,0.600000*%
%TD*%
%TA.AperFunction,SMDPad,CuDef*%
%ADD29R,2.150000X1.700000*%
%TD*%
%TA.AperFunction,SMDPad,CuDef*%
%ADD30R,0.900000X0.650000*%
%TD*%
%TA.AperFunction,SMDPad,CuDef*%
%ADD31RoundRect,0.150000X0.700000X-0.150000X0.700000X0.150000X-0.700000X0.150000X-0.700000X-0.150000X0*%
%TD*%
%TA.AperFunction,SMDPad,CuDef*%
%ADD32RoundRect,0.250000X1.100000X-0.250000X1.100000X0.250000X-1.100000X0.250000X-1.100000X-0.250000X0*%
%TD*%
%TA.AperFunction,ViaPad*%
%ADD33C,0.800000*%
%TD*%
%TA.AperFunction,Conductor*%
%ADD34C,0.300000*%
%TD*%
%TA.AperFunction,Conductor*%
%ADD35C,0.500000*%
%TD*%
%TA.AperFunction,Conductor*%
%ADD36C,1.000000*%
%TD*%
%TA.AperFunction,Conductor*%
%ADD37C,2.000000*%
%TD*%
G04 APERTURE END LIST*
D10*
D11*
X2162071Y34015715D02*
X3376357Y34015715D01*
X3519214Y33944286D01*
X3590642Y33872858D01*
X3662071Y33730000D01*
X3662071Y33444286D01*
X3590642Y33301429D01*
X3519214Y33230000D01*
X3376357Y33158572D01*
X2162071Y33158572D01*
X3590642Y32515715D02*
X3662071Y32301429D01*
X3662071Y31944286D01*
X3590642Y31801429D01*
X3519214Y31730000D01*
X3376357Y31658572D01*
X3233500Y31658572D01*
X3090642Y31730000D01*
X3019214Y31801429D01*
X2947785Y31944286D01*
X2876357Y32230000D01*
X2804928Y32372858D01*
X2733500Y32444286D01*
X2590642Y32515715D01*
X2447785Y32515715D01*
X2304928Y32444286D01*
X2233500Y32372858D01*
X2162071Y32230000D01*
X2162071Y31872858D01*
X2233500Y31658572D01*
X2162071Y31230000D02*
X2162071Y30372858D01*
X3662071Y30801429D02*
X2162071Y30801429D01*
X3519214Y29872858D02*
X3590642Y29801429D01*
X3662071Y29872858D01*
X3590642Y29944286D01*
X3519214Y29872858D01*
X3662071Y29872858D01*
X3519214Y28301429D02*
X3590642Y28372858D01*
X3662071Y28587143D01*
X3662071Y28730000D01*
X3590642Y28944286D01*
X3447785Y29087143D01*
X3304928Y29158572D01*
X3019214Y29230000D01*
X2804928Y29230000D01*
X2519214Y29158572D01*
X2376357Y29087143D01*
X2233500Y28944286D01*
X2162071Y28730000D01*
X2162071Y28587143D01*
X2233500Y28372858D01*
X2304928Y28301429D01*
X2162071Y27801429D02*
X2162071Y26801429D01*
X3662071Y27801429D01*
X3662071Y26801429D01*
X4719928Y33051429D02*
X4648500Y32980000D01*
X4577071Y32837143D01*
X4577071Y32480000D01*
X4648500Y32337143D01*
X4719928Y32265715D01*
X4862785Y32194286D01*
X5005642Y32194286D01*
X5219928Y32265715D01*
X6077071Y33122858D01*
X6077071Y32194286D01*
X4577071Y31265715D02*
X4577071Y31122858D01*
X4648500Y30980000D01*
X4719928Y30908572D01*
X4862785Y30837143D01*
X5148500Y30765715D01*
X5505642Y30765715D01*
X5791357Y30837143D01*
X5934214Y30908572D01*
X6005642Y30980000D01*
X6077071Y31122858D01*
X6077071Y31265715D01*
X6005642Y31408572D01*
X5934214Y31480000D01*
X5791357Y31551429D01*
X5505642Y31622858D01*
X5148500Y31622858D01*
X4862785Y31551429D01*
X4719928Y31480000D01*
X4648500Y31408572D01*
X4577071Y31265715D01*
X4719928Y30194286D02*
X4648500Y30122858D01*
X4577071Y29980000D01*
X4577071Y29622858D01*
X4648500Y29480000D01*
X4719928Y29408572D01*
X4862785Y29337143D01*
X5005642Y29337143D01*
X5219928Y29408572D01*
X6077071Y30265715D01*
X6077071Y29337143D01*
X4577071Y28837143D02*
X4577071Y27908572D01*
X5148500Y28408572D01*
X5148500Y28194286D01*
X5219928Y28051429D01*
X5291357Y27980000D01*
X5434214Y27908572D01*
X5791357Y27908572D01*
X5934214Y27980000D01*
X6005642Y28051429D01*
X6077071Y28194286D01*
X6077071Y28622858D01*
X6005642Y28765715D01*
X5934214Y28837143D01*
%TO.C,JP2*%
G36*
X78466000Y25192000D02*
G01*
X77466000Y25192000D01*
X77466000Y25692000D01*
X78466000Y25692000D01*
X78466000Y25192000D01*
G37*
%TD*%
D12*
%TO.P,BT2,1+,+*%
%TO.N,Net-(BT2-Pad1+)*%
X10545000Y2750000D03*
%TO.P,BT2,1-,-*%
%TO.N,Net-(BT2-Pad1-)*%
X10545000Y75250000D03*
%TO.P,BT2,2+,+*%
%TO.N,Net-(BT2-Pad2+)*%
X29845000Y2750000D03*
%TO.P,BT2,2-,-*%
%TO.N,Net-(BT2-Pad2-)*%
X29845000Y75250000D03*
%TO.P,BT2,3+,+*%
%TO.N,Net-(BT2-Pad3+)*%
X49145000Y2750000D03*
%TO.P,BT2,3-,-*%
%TO.N,Net-(BT2-Pad3-)*%
X49145000Y75250000D03*
%TD*%
%TO.P,BT1,1+,+*%
%TO.N,Net-(BT1-Pad1+)*%
X70300000Y2700000D03*
%TO.P,BT1,1-,-*%
%TO.N,Net-(BT1-Pad1-)*%
X70300000Y75300000D03*
%TO.P,BT1,2+,+*%
%TO.N,Net-(BT1-Pad2+)*%
X89600000Y2700000D03*
%TO.P,BT1,2-,-*%
%TO.N,Net-(BT1-Pad2-)*%
X89600000Y75300000D03*
%TD*%
D13*
%TO.P,F2,1*%
%TO.N,Net-(BT1-Pad1-)*%
X65166000Y74848000D03*
%TO.P,F2,2*%
%TO.N,GND*%
X65166000Y70948000D03*
%TD*%
D14*
%TO.P,C5,1*%
%TO.N,GND*%
X81214000Y27432000D03*
%TO.P,C5,2*%
%TO.N,Net-(C5-Pad2)*%
X79314000Y27432000D03*
%TD*%
D15*
%TO.P,JP2,1,A*%
%TO.N,GND*%
X78466000Y25442000D03*
%TO.P,JP2,2,B*%
%TO.N,GND1*%
X77466000Y25442000D03*
%TD*%
D13*
%TO.P,F7,1*%
%TO.N,Net-(C1-Pad2)*%
X35052000Y7030000D03*
%TO.P,F7,2*%
%TO.N,Net-(BT2-Pad2+)*%
X35052000Y3130000D03*
%TD*%
D14*
%TO.P,C2,1*%
%TO.N,GND*%
X81214000Y18034000D03*
%TO.P,C2,2*%
%TO.N,Net-(C1-Pad2)*%
X79314000Y18034000D03*
%TD*%
D16*
%TO.P,J2,1*%
%TO.N,GND*%
X94924000Y60051000D03*
%TO.P,J2,2*%
%TO.N,VDD*%
X94924000Y58801000D03*
%TO.P,J2,3*%
%TO.N,GND*%
X94924000Y57551000D03*
D17*
%TO.P,J2,MP*%
X98124000Y61901000D03*
X98124000Y55701000D03*
%TD*%
D13*
%TO.P,F4,1*%
%TO.N,Net-(BT1-Pad2-)*%
X84366000Y74848000D03*
%TO.P,F4,2*%
%TO.N,GND*%
X84366000Y70948000D03*
%TD*%
%TO.P,F8,1*%
%TO.N,Net-(BT2-Pad2-)*%
X24766000Y74848000D03*
%TO.P,F8,2*%
%TO.N,GND*%
X24766000Y70948000D03*
%TD*%
D18*
%TO.P,R3,1*%
%TO.N,GND1*%
X75391000Y30480000D03*
%TO.P,R3,2*%
%TO.N,Net-(C4-Pad1)*%
X77216000Y30480000D03*
%TD*%
D13*
%TO.P,F6,1*%
%TO.N,Net-(BT2-Pad1-)*%
X15766000Y74848000D03*
%TO.P,F6,2*%
%TO.N,GND*%
X15766000Y70948000D03*
%TD*%
D14*
%TO.P,C4,1*%
%TO.N,Net-(C4-Pad1)*%
X77253500Y27940000D03*
%TO.P,C4,2*%
%TO.N,GND1*%
X75353500Y27940000D03*
%TD*%
D13*
%TO.P,F9,1*%
%TO.N,Net-(C1-Pad2)*%
X54356000Y7030000D03*
%TO.P,F9,2*%
%TO.N,Net-(BT2-Pad3+)*%
X54356000Y3130000D03*
%TD*%
D18*
%TO.P,R1,1*%
%TO.N,Net-(R1-Pad1)*%
X75414500Y35052000D03*
%TO.P,R1,2*%
%TO.N,Net-(C5-Pad2)*%
X77239500Y35052000D03*
%TD*%
D14*
%TO.P,C7,1*%
%TO.N,GND*%
X81214000Y32004000D03*
%TO.P,C7,2*%
%TO.N,Net-(C5-Pad2)*%
X79314000Y32004000D03*
%TD*%
D13*
%TO.P,F10,1*%
%TO.N,Net-(BT2-Pad3-)*%
X44166000Y74848000D03*
%TO.P,F10,2*%
%TO.N,GND*%
X44166000Y70948000D03*
%TD*%
D19*
%TO.P,JP1,1,A*%
%TO.N,GND*%
X75438000Y18034000D03*
D20*
%TO.P,JP1,2,B*%
%TO.N,Net-(JP1-Pad2)*%
X76738000Y18034000D03*
%TD*%
D21*
%TO.P,C3,1*%
%TO.N,GND1*%
X74676000Y25842000D03*
%TO.P,C3,2*%
%TO.N,Net-(C3-Pad2)*%
X74676000Y23942000D03*
%TD*%
D22*
%TO.P,L1,1*%
%TO.N,Net-(L1-Pad1)*%
X89154000Y17606000D03*
%TO.P,L1,2*%
%TO.N,Net-(L1-Pad2)*%
X89154000Y27606000D03*
%TD*%
D14*
%TO.P,C6,1*%
%TO.N,GND*%
X81214000Y29718000D03*
%TO.P,C6,2*%
%TO.N,Net-(C5-Pad2)*%
X79314000Y29718000D03*
%TD*%
D13*
%TO.P,F3,1*%
%TO.N,Net-(C1-Pad2)*%
X84350000Y7050000D03*
%TO.P,F3,2*%
%TO.N,Net-(BT1-Pad2+)*%
X84350000Y3150000D03*
%TD*%
D14*
%TO.P,C1,1*%
%TO.N,GND*%
X81214000Y15494000D03*
%TO.P,C1,2*%
%TO.N,Net-(C1-Pad2)*%
X79314000Y15494000D03*
%TD*%
D23*
%TO.P,R2,1*%
%TO.N,Net-(C4-Pad1)*%
X77239500Y32766000D03*
%TO.P,R2,2*%
%TO.N,Net-(R1-Pad1)*%
X75414500Y32766000D03*
%TD*%
D24*
%TO.P,X1,1,L1*%
%TO.N,Net-(L1-Pad1)*%
X79978000Y20895000D03*
D25*
X79978000Y21180000D03*
D24*
%TO.P,X1,2,VIN*%
%TO.N,Net-(C1-Pad2)*%
X79478000Y20895000D03*
D25*
X79478000Y21180000D03*
D24*
%TO.P,X1,3,EN*%
X78978000Y20895000D03*
D25*
X78978000Y21180000D03*
%TO.P,X1,4,PS/SYNC*%
%TO.N,Net-(JP1-Pad2)*%
X78478000Y21180000D03*
D24*
X78478000Y20895000D03*
%TO.P,X1,5,PG*%
%TO.N,unconnected-(X1-Pad5)*%
X77978000Y20895000D03*
D25*
X77978000Y21180000D03*
%TO.P,X1,6,VAUX*%
%TO.N,Net-(C3-Pad2)*%
X77978000Y24130000D03*
D24*
X77978000Y24415000D03*
D25*
%TO.P,X1,7,GND*%
%TO.N,GND*%
X78478000Y24130000D03*
D24*
X78478000Y24415000D03*
D25*
%TO.P,X1,8,FB*%
%TO.N,Net-(C4-Pad1)*%
X78978000Y24130000D03*
D24*
X78978000Y24415000D03*
D25*
%TO.P,X1,9,VOUT*%
%TO.N,Net-(C5-Pad2)*%
X79478000Y24130000D03*
D24*
X79478000Y24415000D03*
%TO.P,X1,10,L2*%
%TO.N,Net-(L1-Pad2)*%
X79978000Y24415000D03*
D25*
X79978000Y24130000D03*
D26*
%TO.P,X1,11,PGND*%
%TO.N,GND*%
X77553000Y22055000D03*
X77553000Y23255000D03*
D27*
X77553000Y22055000D03*
D28*
X78978000Y22655000D03*
D26*
X80403000Y22055000D03*
D29*
X78978000Y22655000D03*
D30*
X79538000Y23090000D03*
D26*
X80403000Y22855000D03*
D27*
X77553000Y22455000D03*
X80403000Y22855000D03*
D28*
X79478000Y23155000D03*
D26*
X77553000Y22855000D03*
X80403000Y23255000D03*
D28*
X78478000Y22155000D03*
D27*
X77553000Y22855000D03*
D26*
X80403000Y22455000D03*
D28*
X79478000Y22155000D03*
D30*
X78418000Y22220000D03*
D27*
X80403000Y22055000D03*
D28*
X78478000Y23155000D03*
D30*
X79538000Y22220000D03*
X78418000Y23090000D03*
D26*
X77553000Y22455000D03*
D27*
X80403000Y23255000D03*
X77553000Y23255000D03*
X80403000Y22455000D03*
%TD*%
D16*
%TO.P,J1,1*%
%TO.N,GND*%
X94924000Y9749000D03*
%TO.P,J1,2*%
%TO.N,Net-(C1-Pad2)*%
X94924000Y8499000D03*
%TO.P,J1,3*%
X94924000Y7249000D03*
%TO.P,J1,4*%
%TO.N,GND*%
X94924000Y5999000D03*
D17*
%TO.P,J1,MP*%
X98124000Y11599000D03*
X98124000Y4149000D03*
%TD*%
D31*
%TO.P,J3,1*%
%TO.N,GND*%
X98624000Y48990000D03*
%TO.P,J3,2*%
%TO.N,VDD*%
X98624000Y50240000D03*
%TO.P,J3,3*%
%TO.N,GND*%
X98624000Y51490000D03*
D32*
%TO.P,J3,MP*%
X95424000Y47140000D03*
X95424000Y53340000D03*
%TD*%
D13*
%TO.P,F5,1*%
%TO.N,Net-(C1-Pad2)*%
X15700000Y7050000D03*
%TO.P,F5,2*%
%TO.N,Net-(BT2-Pad1+)*%
X15700000Y3150000D03*
%TD*%
%TO.P,F1,1*%
%TO.N,Net-(C1-Pad2)*%
X75650000Y7050000D03*
%TO.P,F1,2*%
%TO.N,Net-(BT1-Pad1+)*%
X75650000Y3150000D03*
%TD*%
%TO.P,F11,1*%
%TO.N,Net-(C5-Pad2)*%
X80645000Y35388000D03*
%TO.P,F11,2*%
%TO.N,VDD*%
X80645000Y39288000D03*
%TD*%
D33*
%TO.N,GND*%
X83566000Y22225000D03*
X28725090Y71628000D03*
X27305000Y70358000D03*
X85471000Y23114000D03*
X87733905Y42164000D03*
X44692455Y13716000D03*
X56919090Y13716000D03*
X73533000Y21844000D03*
X84455000Y28448000D03*
X87376000Y23114000D03*
X89858265Y71628000D03*
X34751820Y42164000D03*
X76390500Y22733000D03*
X95885005Y42164000D03*
X83947000Y17526000D03*
X16163640Y13716000D03*
X18449640Y42164000D03*
X61329450Y71628000D03*
X82613500Y22225000D03*
X78359000Y33909000D03*
X87376000Y22225000D03*
X73914000Y33020000D03*
X88328500Y23114000D03*
X51054000Y42164000D03*
X83185000Y18288000D03*
X74168000Y1143000D03*
X23495000Y2032000D03*
X74485500Y20955000D03*
X71431725Y42164000D03*
X80518000Y19812000D03*
X32465820Y13716000D03*
X74485500Y21844000D03*
X81788000Y33655000D03*
X63436500Y2032000D03*
X83693000Y27686000D03*
X20574000Y2032000D03*
X81407000Y25400000D03*
X89523450Y13716000D03*
X81661000Y23114000D03*
X76390500Y20955000D03*
X44704000Y2032000D03*
X97674550Y13716000D03*
X94869000Y52070000D03*
X83566000Y15494000D03*
X12088095Y13716000D03*
X82550000Y17526000D03*
X89281000Y22225000D03*
X82677000Y27813000D03*
X73914000Y35052000D03*
X80391000Y25400000D03*
X90233500Y22225000D03*
X75507270Y42164000D03*
X83693000Y30861000D03*
X73221270Y13716000D03*
X86423500Y22225000D03*
X97028000Y57023000D03*
X55129545Y42164000D03*
X73914000Y34036000D03*
X66802000Y2032000D03*
X82550000Y16510000D03*
X82677000Y32893000D03*
X49102815Y71628000D03*
X82169000Y26162000D03*
X8012550Y13716000D03*
X80899000Y71628000D03*
X81534000Y19812000D03*
X69145725Y13716000D03*
X73914000Y32004000D03*
X83566000Y23114000D03*
X30676275Y42164000D03*
X83566000Y16510000D03*
X94869000Y48387000D03*
X42902910Y42164000D03*
X53178360Y71628000D03*
X73533000Y22733000D03*
X84518500Y22225000D03*
X84709000Y16764000D03*
X84518500Y23114000D03*
X82931000Y26924000D03*
X40616910Y13716000D03*
X82677000Y29845000D03*
X85471000Y22225000D03*
X73787000Y29972000D03*
X98679000Y60579000D03*
X26416000Y2032000D03*
X96520000Y2032000D03*
X41846500Y2032000D03*
X53340000Y1270000D03*
X63280635Y42164000D03*
X75438000Y22733000D03*
X94166000Y13716000D03*
X93933820Y71628000D03*
X36876180Y71628000D03*
X75438000Y20955000D03*
X98679000Y57023000D03*
X88266000Y71642000D03*
X91809450Y42164000D03*
X77851000Y1143000D03*
X36541365Y13716000D03*
X83693000Y29845000D03*
X10298550Y42164000D03*
X90233500Y23114000D03*
X52843545Y13716000D03*
X59205090Y42164000D03*
X17653000Y1270000D03*
X82677000Y30861000D03*
X75438000Y21844000D03*
X73556085Y71628000D03*
X46978455Y42164000D03*
X81661000Y22225000D03*
X65070180Y13716000D03*
X20574000Y71628000D03*
X60994635Y13716000D03*
X60071000Y2032000D03*
X14374095Y42164000D03*
X82677000Y28829000D03*
X82550000Y15494000D03*
X57253905Y71628000D03*
X61976000Y69469000D03*
X85447905Y13716000D03*
X96266000Y52070000D03*
X14859000Y1270000D03*
X48768000Y13716000D03*
X36195000Y1270000D03*
X86423500Y23114000D03*
X83693000Y31877000D03*
X40513000Y71628000D03*
X32800635Y71628000D03*
X24314730Y13716000D03*
X77296815Y13716000D03*
X20239185Y13716000D03*
X33274000Y1270000D03*
X69480540Y71628000D03*
X18923000Y70358000D03*
X56642000Y1270000D03*
X96266000Y48387000D03*
X82423000Y19050000D03*
X6223005Y42164000D03*
X93218000Y2032000D03*
X80645000Y33655000D03*
X73787000Y27940000D03*
X38989000Y2032000D03*
X38827365Y42164000D03*
X22525185Y42164000D03*
X82613500Y23114000D03*
X97028000Y60579000D03*
X81372360Y13716000D03*
X26600730Y42164000D03*
X46866000Y71642000D03*
X81661000Y1143000D03*
X76390500Y21844000D03*
X89281000Y23114000D03*
X4271820Y71628000D03*
X67356180Y42164000D03*
X73533000Y20955000D03*
X28390275Y13716000D03*
X88328500Y22225000D03*
X83693000Y32893000D03*
X73787000Y28956000D03*
X85344000Y1143000D03*
X77631630Y71628000D03*
X8347365Y71628000D03*
X83693000Y28829000D03*
X82677000Y31877000D03*
X74485500Y22733000D03*
X73787000Y30988000D03*
X12422910Y71628000D03*
%TD*%
D34*
%TO.N,GND*%
X76224000Y22455000D02*
X76200000Y22479000D01*
X81520000Y23255000D02*
X81661000Y23114000D01*
X81402000Y22855000D02*
X81661000Y23114000D01*
X78478000Y24130000D02*
X78478000Y23155000D01*
X80403000Y23255000D02*
X81520000Y23255000D01*
X76200000Y22860000D02*
X76200000Y23241000D01*
X77553000Y22455000D02*
X76224000Y22455000D01*
X81491000Y22055000D02*
X81661000Y22225000D01*
X76205000Y22855000D02*
X76200000Y22860000D01*
X77553000Y22855000D02*
X76205000Y22855000D01*
X78478000Y24415000D02*
X78478000Y25430000D01*
X80403000Y22055000D02*
X81491000Y22055000D01*
X77553000Y22055000D02*
X76243000Y22055000D01*
X80403000Y22855000D02*
X81402000Y22855000D01*
X76200000Y22098000D02*
X76243000Y22055000D01*
X76200000Y22098000D02*
X76200000Y22479000D01*
X80403000Y22455000D02*
X81431000Y22455000D01*
X76214000Y23255000D02*
X76200000Y23241000D01*
X81431000Y22455000D02*
X81661000Y22225000D01*
X77553000Y23255000D02*
X76214000Y23255000D01*
X76200000Y22479000D02*
X76200000Y22860000D01*
%TO.N,Net-(C3-Pad2)*%
X74864000Y24130000D02*
X74676000Y23942000D01*
X77978000Y24130000D02*
X74864000Y24130000D01*
%TO.N,Net-(C4-Pad1)*%
X78978000Y25930000D02*
X77253500Y27654500D01*
D35*
X77216000Y27977500D02*
X77253500Y27940000D01*
X77216000Y30480000D02*
X77216000Y32742500D01*
D34*
X77253500Y27654500D02*
X77253500Y27940000D01*
D35*
X77216000Y30480000D02*
X77216000Y27977500D01*
X77216000Y32742500D02*
X77239500Y32766000D01*
D34*
X78978000Y24130000D02*
X78978000Y25930000D01*
D35*
%TO.N,Net-(C5-Pad2)*%
X80309000Y35052000D02*
X80645000Y35388000D01*
D34*
X79478000Y24130000D02*
X79478000Y27268000D01*
D35*
X79314000Y29718000D02*
X79314000Y27432000D01*
X78994000Y35052000D02*
X80309000Y35052000D01*
X80092000Y35388000D02*
X79375000Y34671000D01*
X80645000Y35388000D02*
X80092000Y35388000D01*
X79314000Y34732000D02*
X78994000Y35052000D01*
X80645000Y35388000D02*
X80346000Y35388000D01*
X79314000Y34356000D02*
X79314000Y34732000D01*
X77239500Y35052000D02*
X78994000Y35052000D01*
X79314000Y32004000D02*
X79314000Y29718000D01*
X80346000Y35388000D02*
X79314000Y34356000D01*
X79314000Y34356000D02*
X79314000Y32004000D01*
D34*
X79478000Y27268000D02*
X79314000Y27432000D01*
%TO.N,Net-(JP1-Pad2)*%
X76738000Y18034000D02*
X77724000Y18034000D01*
X78478000Y20454000D02*
X78478000Y20895000D01*
X78366000Y18676000D02*
X78366000Y20342000D01*
X78366000Y20342000D02*
X78478000Y20454000D01*
X77724000Y18034000D02*
X78366000Y18676000D01*
D36*
%TO.N,Net-(BT1-Pad1+)*%
X75946000Y3130000D02*
X75901000Y3175000D01*
X70775000Y3175000D02*
X70300000Y2700000D01*
D37*
X75901000Y3175000D02*
X70775000Y3175000D01*
D36*
%TO.N,Net-(BT1-Pad2+)*%
X89125000Y3175000D02*
X89600000Y2700000D01*
X83566000Y3130000D02*
X83611000Y3175000D01*
D37*
X83611000Y3175000D02*
X89125000Y3175000D01*
D36*
%TO.N,Net-(BT2-Pad1+)*%
X10970000Y3175000D02*
X10545000Y2750000D01*
X16256000Y3130000D02*
X16211000Y3175000D01*
D37*
X16211000Y3175000D02*
X10970000Y3175000D01*
D36*
%TO.N,Net-(BT2-Pad2+)*%
X35052000Y3130000D02*
X35007000Y3175000D01*
D37*
X35007000Y3175000D02*
X30270000Y3175000D01*
D36*
X30270000Y3175000D02*
X29845000Y2750000D01*
%TO.N,Net-(BT2-Pad3+)*%
X49570000Y3175000D02*
X49145000Y2750000D01*
D37*
X54311000Y3175000D02*
X49570000Y3175000D01*
D36*
X54356000Y3130000D02*
X54311000Y3175000D01*
%TO.N,Net-(C1-Pad2)*%
X79314000Y15494000D02*
X79314000Y20042000D01*
D34*
X78978000Y21180000D02*
X78978000Y18370000D01*
X79478000Y18198000D02*
X79314000Y18034000D01*
X79478000Y21180000D02*
X79478000Y18198000D01*
D36*
X79326500Y15481500D02*
X79314000Y15494000D01*
D34*
X78978000Y18370000D02*
X79314000Y18034000D01*
D36*
X79326500Y6302500D02*
X79326500Y15481500D01*
D35*
%TO.N,VDD*%
X90118000Y57860000D02*
X91059000Y58801000D01*
X91059000Y58801000D02*
X94924000Y58801000D01*
X90118000Y50240000D02*
X98624000Y50240000D01*
X90118000Y50240000D02*
X90118000Y57860000D01*
X83947000Y44069000D02*
X90118000Y50240000D01*
%TO.N,Net-(R1-Pad1)*%
X75414500Y32766000D02*
X75414500Y35052000D01*
D36*
%TO.N,Net-(BT1-Pad1-)*%
X65222000Y75300000D02*
X64770000Y74848000D01*
D37*
X70300000Y74942000D02*
X65222000Y74942000D01*
%TO.N,Net-(BT1-Pad2-)*%
X89600000Y74842000D02*
X84272000Y74842000D01*
D36*
X84272000Y75300000D02*
X83820000Y74848000D01*
%TO.N,Net-(BT2-Pad1-)*%
X15600000Y75250000D02*
X16002000Y74848000D01*
D37*
X10538500Y74942000D02*
X15593500Y74942000D01*
%TO.N,Net-(BT2-Pad2-)*%
X29845000Y74942000D02*
X24786000Y74942000D01*
D36*
X24786000Y75250000D02*
X24384000Y74848000D01*
D37*
%TO.N,Net-(BT2-Pad3-)*%
X49145000Y74942000D02*
X43709000Y74942000D01*
%TD*%
%TA.AperFunction,Conductor*%
%TO.N,GND*%
G36*
X8232886Y77480593D02*
G01*
X8268850Y77431093D01*
X8268850Y77369907D01*
X8265241Y77360470D01*
X8258245Y77344646D01*
X8247494Y77320327D01*
X8244500Y77294646D01*
X8244500Y73205354D01*
X8247618Y73179154D01*
X8293061Y73076847D01*
X8372287Y72997759D01*
X8380645Y72994064D01*
X8467864Y72955504D01*
X8467866Y72955504D01*
X8474673Y72952494D01*
X8482067Y72951632D01*
X8497378Y72949847D01*
X8500354Y72949500D01*
X12589646Y72949500D01*
X12607561Y72951632D01*
X12608469Y72951740D01*
X12608470Y72951740D01*
X12615846Y72952618D01*
X12718153Y72998061D01*
X12797241Y73077287D01*
X12810116Y73106409D01*
X12839496Y73172864D01*
X12839496Y73172866D01*
X12842506Y73179673D01*
X12845500Y73205354D01*
X12845500Y73542500D01*
X12864407Y73600691D01*
X12913907Y73636655D01*
X12944500Y73641500D01*
X13882012Y73641500D01*
X13922043Y73633046D01*
X13945687Y73622593D01*
X13995673Y73600494D01*
X14003064Y73599632D01*
X14003065Y73599632D01*
X14018506Y73597832D01*
X14021354Y73597500D01*
X17510646Y73597500D01*
X17528561Y73599632D01*
X17529469Y73599740D01*
X17529470Y73599740D01*
X17536846Y73600618D01*
X17639153Y73646061D01*
X17718241Y73725287D01*
X17763506Y73827673D01*
X17766500Y73853354D01*
X17766500Y75842646D01*
X17763382Y75868846D01*
X17717939Y75971153D01*
X17638713Y76050241D01*
X17609591Y76063116D01*
X17543136Y76092496D01*
X17543134Y76092496D01*
X17536327Y76095506D01*
X17522322Y76097139D01*
X17513494Y76098168D01*
X17513493Y76098168D01*
X17510646Y76098500D01*
X16212570Y76098500D01*
X16170731Y76107776D01*
X16043916Y76166911D01*
X16043917Y76166911D01*
X16039996Y76168739D01*
X15950937Y76192602D01*
X15824369Y76226516D01*
X15824367Y76226516D01*
X15820192Y76227635D01*
X15775705Y76231527D01*
X15652450Y76242311D01*
X15652439Y76242311D01*
X15650284Y76242500D01*
X12944500Y76242500D01*
X12886309Y76261407D01*
X12850345Y76310907D01*
X12845500Y76341500D01*
X12845500Y77294646D01*
X12842382Y77320846D01*
X12824852Y77360312D01*
X12818509Y77421168D01*
X12849149Y77474129D01*
X12905066Y77498967D01*
X12915328Y77499500D01*
X27474695Y77499500D01*
X27532886Y77480593D01*
X27568850Y77431093D01*
X27568850Y77369907D01*
X27565241Y77360470D01*
X27558245Y77344646D01*
X27547494Y77320327D01*
X27544500Y77294646D01*
X27544500Y76341500D01*
X27525593Y76283309D01*
X27476093Y76247345D01*
X27445500Y76242500D01*
X24729216Y76242500D01*
X24727061Y76242311D01*
X24727050Y76242311D01*
X24603795Y76231527D01*
X24559308Y76227635D01*
X24555133Y76226516D01*
X24555131Y76226516D01*
X24428563Y76192602D01*
X24339504Y76168739D01*
X24335583Y76166911D01*
X24335584Y76166911D01*
X24208769Y76107776D01*
X24166930Y76098500D01*
X23021354Y76098500D01*
X23004951Y76096548D01*
X23002531Y76096260D01*
X23002530Y76096260D01*
X22995154Y76095382D01*
X22892847Y76049939D01*
X22813759Y75970713D01*
X22768494Y75868327D01*
X22765500Y75842646D01*
X22765500Y73853354D01*
X22768618Y73827154D01*
X22814061Y73724847D01*
X22893287Y73645759D01*
X22901645Y73642064D01*
X22988864Y73603504D01*
X22988866Y73603504D01*
X22995673Y73600494D01*
X23003067Y73599632D01*
X23018378Y73597847D01*
X23021354Y73597500D01*
X26510646Y73597500D01*
X26528561Y73599632D01*
X26529469Y73599740D01*
X26529470Y73599740D01*
X26536846Y73600618D01*
X26609694Y73632976D01*
X26649883Y73641500D01*
X27445500Y73641500D01*
X27503691Y73622593D01*
X27539655Y73573093D01*
X27544500Y73542500D01*
X27544500Y73205354D01*
X27547618Y73179154D01*
X27593061Y73076847D01*
X27672287Y72997759D01*
X27680645Y72994064D01*
X27767864Y72955504D01*
X27767866Y72955504D01*
X27774673Y72952494D01*
X27782067Y72951632D01*
X27797378Y72949847D01*
X27800354Y72949500D01*
X31889646Y72949500D01*
X31907561Y72951632D01*
X31908469Y72951740D01*
X31908470Y72951740D01*
X31915846Y72952618D01*
X32018153Y72998061D01*
X32097241Y73077287D01*
X32110116Y73106409D01*
X32139496Y73172864D01*
X32139496Y73172866D01*
X32142506Y73179673D01*
X32145500Y73205354D01*
X32145500Y77294646D01*
X32142382Y77320846D01*
X32124852Y77360312D01*
X32118509Y77421168D01*
X32149149Y77474129D01*
X32205066Y77498967D01*
X32215328Y77499500D01*
X46774695Y77499500D01*
X46832886Y77480593D01*
X46868850Y77431093D01*
X46868850Y77369907D01*
X46865241Y77360470D01*
X46858245Y77344646D01*
X46847494Y77320327D01*
X46844500Y77294646D01*
X46844500Y76341500D01*
X46825593Y76283309D01*
X46776093Y76247345D01*
X46745500Y76242500D01*
X43652216Y76242500D01*
X43650061Y76242311D01*
X43650050Y76242311D01*
X43526795Y76231527D01*
X43482308Y76227635D01*
X43478133Y76226516D01*
X43478131Y76226516D01*
X43351563Y76192602D01*
X43262504Y76168739D01*
X43258583Y76166911D01*
X43258584Y76166911D01*
X43131769Y76107776D01*
X43089930Y76098500D01*
X42421354Y76098500D01*
X42404951Y76096548D01*
X42402531Y76096260D01*
X42402530Y76096260D01*
X42395154Y76095382D01*
X42292847Y76049939D01*
X42213759Y75970713D01*
X42168494Y75868327D01*
X42165500Y75842646D01*
X42165500Y73853354D01*
X42168618Y73827154D01*
X42214061Y73724847D01*
X42293287Y73645759D01*
X42301645Y73642064D01*
X42388864Y73603504D01*
X42388866Y73603504D01*
X42395673Y73600494D01*
X42403067Y73599632D01*
X42418378Y73597847D01*
X42421354Y73597500D01*
X45910646Y73597500D01*
X45928561Y73599632D01*
X45929469Y73599740D01*
X45929470Y73599740D01*
X45936846Y73600618D01*
X46009694Y73632976D01*
X46049883Y73641500D01*
X46745500Y73641500D01*
X46803691Y73622593D01*
X46839655Y73573093D01*
X46844500Y73542500D01*
X46844500Y73205354D01*
X46847618Y73179154D01*
X46893061Y73076847D01*
X46972287Y72997759D01*
X46980645Y72994064D01*
X47067864Y72955504D01*
X47067866Y72955504D01*
X47074673Y72952494D01*
X47082067Y72951632D01*
X47097378Y72949847D01*
X47100354Y72949500D01*
X51189646Y72949500D01*
X51207561Y72951632D01*
X51208469Y72951740D01*
X51208470Y72951740D01*
X51215846Y72952618D01*
X51318153Y72998061D01*
X51397241Y73077287D01*
X51410116Y73106409D01*
X51439496Y73172864D01*
X51439496Y73172866D01*
X51442506Y73179673D01*
X51445500Y73205354D01*
X51445500Y77294646D01*
X51442382Y77320846D01*
X51424852Y77360312D01*
X51418509Y77421168D01*
X51449149Y77474129D01*
X51505066Y77498967D01*
X51515328Y77499500D01*
X67909261Y77499500D01*
X67967452Y77480593D01*
X68003416Y77431093D01*
X68004752Y77375434D01*
X68002494Y77370327D01*
X68001632Y77362931D01*
X68001631Y77362928D01*
X68001326Y77360312D01*
X67999500Y77344646D01*
X67999500Y76341500D01*
X67980593Y76283309D01*
X67931093Y76247345D01*
X67900500Y76242500D01*
X65165216Y76242500D01*
X65163061Y76242311D01*
X65163050Y76242311D01*
X65039795Y76231527D01*
X64995308Y76227635D01*
X64991133Y76226516D01*
X64991131Y76226516D01*
X64864563Y76192602D01*
X64775504Y76168739D01*
X64771583Y76166911D01*
X64771584Y76166911D01*
X64644769Y76107776D01*
X64602930Y76098500D01*
X63421354Y76098500D01*
X63404951Y76096548D01*
X63402531Y76096260D01*
X63402530Y76096260D01*
X63395154Y76095382D01*
X63292847Y76049939D01*
X63213759Y75970713D01*
X63168494Y75868327D01*
X63165500Y75842646D01*
X63165500Y73853354D01*
X63168618Y73827154D01*
X63214061Y73724847D01*
X63293287Y73645759D01*
X63301645Y73642064D01*
X63388864Y73603504D01*
X63388866Y73603504D01*
X63395673Y73600494D01*
X63403067Y73599632D01*
X63418378Y73597847D01*
X63421354Y73597500D01*
X66910646Y73597500D01*
X66928561Y73599632D01*
X66929469Y73599740D01*
X66929470Y73599740D01*
X66936846Y73600618D01*
X67009694Y73632976D01*
X67049883Y73641500D01*
X67900500Y73641500D01*
X67958691Y73622593D01*
X67994655Y73573093D01*
X67999500Y73542500D01*
X67999500Y73255354D01*
X68002618Y73229154D01*
X68048061Y73126847D01*
X68127287Y73047759D01*
X68135645Y73044064D01*
X68222864Y73005504D01*
X68222866Y73005504D01*
X68229673Y73002494D01*
X68237067Y73001632D01*
X68252378Y72999847D01*
X68255354Y72999500D01*
X72344646Y72999500D01*
X72362561Y73001632D01*
X72363469Y73001740D01*
X72363470Y73001740D01*
X72370846Y73002618D01*
X72473153Y73048061D01*
X72552241Y73127287D01*
X72572391Y73172864D01*
X72594496Y73222864D01*
X72594496Y73222866D01*
X72597506Y73229673D01*
X72600500Y73255354D01*
X72600500Y77344646D01*
X72597382Y77370846D01*
X72595347Y77375428D01*
X72598102Y77435383D01*
X72636301Y77483180D01*
X72690753Y77499500D01*
X87209261Y77499500D01*
X87267452Y77480593D01*
X87303416Y77431093D01*
X87304752Y77375434D01*
X87302494Y77370327D01*
X87301632Y77362931D01*
X87301631Y77362928D01*
X87301326Y77360312D01*
X87299500Y77344646D01*
X87299500Y76241500D01*
X87280593Y76183309D01*
X87231093Y76147345D01*
X87200500Y76142500D01*
X84215216Y76142500D01*
X84213061Y76142311D01*
X84213050Y76142311D01*
X84089795Y76131527D01*
X84045308Y76127635D01*
X84041133Y76126516D01*
X84041131Y76126516D01*
X83949162Y76101873D01*
X83923539Y76098500D01*
X82621354Y76098500D01*
X82604951Y76096548D01*
X82602531Y76096260D01*
X82602530Y76096260D01*
X82595154Y76095382D01*
X82492847Y76049939D01*
X82413759Y75970713D01*
X82368494Y75868327D01*
X82365500Y75842646D01*
X82365500Y73853354D01*
X82368618Y73827154D01*
X82414061Y73724847D01*
X82493287Y73645759D01*
X82501645Y73642064D01*
X82588864Y73603504D01*
X82588866Y73603504D01*
X82595673Y73600494D01*
X82603067Y73599632D01*
X82618378Y73597847D01*
X82621354Y73597500D01*
X83878754Y73597500D01*
X83904377Y73594127D01*
X84041131Y73557484D01*
X84041133Y73557484D01*
X84045308Y73556365D01*
X84089795Y73552473D01*
X84213050Y73541689D01*
X84213061Y73541689D01*
X84215216Y73541500D01*
X87200500Y73541500D01*
X87258691Y73522593D01*
X87294655Y73473093D01*
X87299500Y73442500D01*
X87299500Y73255354D01*
X87302618Y73229154D01*
X87348061Y73126847D01*
X87427287Y73047759D01*
X87435645Y73044064D01*
X87522864Y73005504D01*
X87522866Y73005504D01*
X87529673Y73002494D01*
X87537067Y73001632D01*
X87552378Y72999847D01*
X87555354Y72999500D01*
X91644646Y72999500D01*
X91662561Y73001632D01*
X91663469Y73001740D01*
X91663470Y73001740D01*
X91670846Y73002618D01*
X91773153Y73048061D01*
X91852241Y73127287D01*
X91872391Y73172864D01*
X91894496Y73222864D01*
X91894496Y73222866D01*
X91897506Y73229673D01*
X91900500Y73255354D01*
X91900500Y77344646D01*
X91897382Y77370846D01*
X91895347Y77375428D01*
X91898102Y77435383D01*
X91936301Y77483180D01*
X91990753Y77499500D01*
X99400500Y77499500D01*
X99458691Y77480593D01*
X99494655Y77431093D01*
X99499500Y77400500D01*
X99499500Y50937799D01*
X99480593Y50879608D01*
X99431093Y50843644D01*
X99391183Y50839238D01*
X99386283Y50839701D01*
X99380143Y50840282D01*
X99380137Y50840282D01*
X99377834Y50840500D01*
X97870166Y50840500D01*
X97867865Y50840282D01*
X97867855Y50840282D01*
X97844639Y50838087D01*
X97844638Y50838087D01*
X97838631Y50837519D01*
X97723992Y50797261D01*
X97720663Y50796092D01*
X97687861Y50790500D01*
X90767500Y50790500D01*
X90709309Y50809407D01*
X90673345Y50858907D01*
X90668500Y50889500D01*
X90668500Y57590967D01*
X90687407Y57649158D01*
X90697496Y57660971D01*
X91258028Y58221504D01*
X91312545Y58249281D01*
X91328032Y58250500D01*
X93987861Y58250500D01*
X94020663Y58244908D01*
X94138631Y58203481D01*
X94144638Y58202913D01*
X94144639Y58202913D01*
X94167855Y58200718D01*
X94167865Y58200718D01*
X94170166Y58200500D01*
X95677834Y58200500D01*
X95680135Y58200718D01*
X95680145Y58200718D01*
X95703361Y58202913D01*
X95703362Y58202913D01*
X95709369Y58203481D01*
X95837184Y58248366D01*
X95850243Y58258011D01*
X95940193Y58324450D01*
X95946150Y58328850D01*
X96026634Y58437816D01*
X96071519Y58565631D01*
X96074500Y58597166D01*
X96074500Y59004834D01*
X96071519Y59036369D01*
X96026634Y59164184D01*
X96013929Y59181386D01*
X95950550Y59267193D01*
X95946150Y59273150D01*
X95915291Y59295943D01*
X95843136Y59349238D01*
X95843135Y59349239D01*
X95837184Y59353634D01*
X95709369Y59398519D01*
X95703362Y59399087D01*
X95703361Y59399087D01*
X95680145Y59401282D01*
X95680135Y59401282D01*
X95677834Y59401500D01*
X94170166Y59401500D01*
X94167865Y59401282D01*
X94167855Y59401282D01*
X94144639Y59399087D01*
X94144638Y59399087D01*
X94138631Y59398519D01*
X94023992Y59358261D01*
X94020663Y59357092D01*
X93987861Y59351500D01*
X91073435Y59351500D01*
X91069289Y59351587D01*
X91006706Y59354210D01*
X91000133Y59352668D01*
X91000130Y59352668D01*
X90963107Y59343984D01*
X90953937Y59342284D01*
X90944523Y59340994D01*
X90909568Y59336206D01*
X90893554Y59329276D01*
X90876856Y59323753D01*
X90859864Y59319768D01*
X90853951Y59316517D01*
X90853945Y59316515D01*
X90820613Y59298191D01*
X90812240Y59294089D01*
X90777339Y59278986D01*
X90777335Y59278984D01*
X90771145Y59276305D01*
X90765902Y59272060D01*
X90765901Y59272059D01*
X90757590Y59265329D01*
X90742986Y59255516D01*
X90732235Y59249605D01*
X90732232Y59249603D01*
X90727692Y59247107D01*
X90719578Y59240103D01*
X90694031Y59214556D01*
X90686331Y59207624D01*
X90653930Y59181386D01*
X90650022Y59175887D01*
X90641723Y59164209D01*
X90631029Y59151554D01*
X89738951Y58259475D01*
X89735958Y58256605D01*
X89689844Y58214201D01*
X89686287Y58208464D01*
X89666243Y58176136D01*
X89660959Y58168449D01*
X89637973Y58138166D01*
X89637970Y58138161D01*
X89633888Y58132783D01*
X89627467Y58116566D01*
X89619560Y58100845D01*
X89613922Y58091752D01*
X89613920Y58091747D01*
X89610365Y58086014D01*
X89608483Y58079536D01*
X89597872Y58043012D01*
X89594850Y58034187D01*
X89580849Y57998826D01*
X89580847Y57998819D01*
X89578364Y57992547D01*
X89577659Y57985838D01*
X89576540Y57975194D01*
X89573153Y57957932D01*
X89568285Y57941175D01*
X89567500Y57930485D01*
X89567500Y57894369D01*
X89566958Y57884021D01*
X89562599Y57842546D01*
X89563724Y57835895D01*
X89566114Y57821764D01*
X89567500Y57805254D01*
X89567500Y50509033D01*
X89548593Y50450842D01*
X89538504Y50439029D01*
X84645972Y45546496D01*
X84591455Y45518719D01*
X84575968Y45517500D01*
X76807000Y45517500D01*
X76759214Y45513739D01*
X76728621Y45508894D01*
X76698246Y45502487D01*
X76596838Y45454309D01*
X76547338Y45418345D01*
X76490081Y45364177D01*
X76436359Y45265594D01*
X76417452Y45207403D01*
X76402500Y45113000D01*
X76402500Y38580000D01*
X76406261Y38532214D01*
X76411106Y38501621D01*
X76417513Y38471246D01*
X76465691Y38369838D01*
X76501655Y38320338D01*
X76555823Y38263081D01*
X76654406Y38209359D01*
X76658754Y38207946D01*
X76658757Y38207945D01*
X76694528Y38196323D01*
X76712597Y38190452D01*
X76777699Y38180141D01*
X76803154Y38176109D01*
X76803156Y38176109D01*
X76807000Y38175500D01*
X78641432Y38175500D01*
X78699623Y38156593D01*
X78711374Y38146566D01*
X78772287Y38085759D01*
X78780645Y38082064D01*
X78867864Y38043504D01*
X78867866Y38043504D01*
X78874673Y38040494D01*
X78882067Y38039632D01*
X78897378Y38037847D01*
X78900354Y38037500D01*
X82389646Y38037500D01*
X82407561Y38039632D01*
X82408469Y38039740D01*
X82408470Y38039740D01*
X82415846Y38040618D01*
X82518153Y38086061D01*
X82524610Y38092529D01*
X82524614Y38092532D01*
X82578431Y38146443D01*
X82632923Y38174268D01*
X82648495Y38175500D01*
X84991000Y38175500D01*
X85038786Y38179261D01*
X85069379Y38184106D01*
X85099754Y38190513D01*
X85201162Y38238691D01*
X85250662Y38274655D01*
X85307919Y38328823D01*
X85361641Y38427406D01*
X85380548Y38485597D01*
X85395500Y38580000D01*
X85395500Y44697967D01*
X85414407Y44756158D01*
X85424496Y44767971D01*
X90317028Y49660504D01*
X90371545Y49688281D01*
X90387032Y49689500D01*
X97687861Y49689500D01*
X97720663Y49683908D01*
X97838631Y49642481D01*
X97844638Y49641913D01*
X97844639Y49641913D01*
X97867855Y49639718D01*
X97867865Y49639718D01*
X97870166Y49639500D01*
X99377834Y49639500D01*
X99380137Y49639718D01*
X99380143Y49639718D01*
X99386283Y49640299D01*
X99391183Y49640762D01*
X99450894Y49627415D01*
X99491357Y49581520D01*
X99499500Y49542201D01*
X99499500Y599500D01*
X99480593Y541309D01*
X99431093Y505345D01*
X99400500Y500500D01*
X91990739Y500500D01*
X91932548Y519407D01*
X91896584Y568907D01*
X91895248Y624566D01*
X91897506Y629673D01*
X91898656Y639530D01*
X91900168Y652506D01*
X91900168Y652507D01*
X91900500Y655354D01*
X91900500Y4744646D01*
X91897382Y4770846D01*
X91851939Y4873153D01*
X91772713Y4952241D01*
X91743591Y4965116D01*
X91677136Y4994496D01*
X91677134Y4994496D01*
X91670327Y4997506D01*
X91656322Y4999139D01*
X91647494Y5000168D01*
X91647493Y5000168D01*
X91644646Y5000500D01*
X87555354Y5000500D01*
X87538951Y4998548D01*
X87536531Y4998260D01*
X87536530Y4998260D01*
X87529154Y4997382D01*
X87426847Y4951939D01*
X87347759Y4872713D01*
X87344064Y4864355D01*
X87314505Y4797494D01*
X87302494Y4770327D01*
X87299500Y4744646D01*
X87299500Y4574500D01*
X87280593Y4516309D01*
X87231093Y4480345D01*
X87200500Y4475500D01*
X83554216Y4475500D01*
X83552061Y4475311D01*
X83552050Y4475311D01*
X83428795Y4464527D01*
X83384308Y4460635D01*
X83380133Y4459516D01*
X83380131Y4459516D01*
X83172468Y4403873D01*
X83146845Y4400500D01*
X82605354Y4400500D01*
X82588951Y4398548D01*
X82586531Y4398260D01*
X82586530Y4398260D01*
X82579154Y4397382D01*
X82476847Y4351939D01*
X82470390Y4345471D01*
X82470389Y4345470D01*
X82436976Y4311998D01*
X82397759Y4272713D01*
X82352494Y4170327D01*
X82349500Y4144646D01*
X82349500Y3504801D01*
X82346127Y3479178D01*
X82325365Y3401692D01*
X82305532Y3175000D01*
X82325365Y2948308D01*
X82326484Y2944133D01*
X82326484Y2944131D01*
X82346127Y2870822D01*
X82349500Y2845199D01*
X82349500Y2155354D01*
X82352618Y2129154D01*
X82398061Y2026847D01*
X82404529Y2020390D01*
X82404530Y2020389D01*
X82417655Y2007287D01*
X82477287Y1947759D01*
X82485645Y1944064D01*
X82572864Y1905504D01*
X82572866Y1905504D01*
X82579673Y1902494D01*
X82587067Y1901632D01*
X82602378Y1899847D01*
X82605354Y1899500D01*
X83333448Y1899500D01*
X83359070Y1896127D01*
X83380128Y1890485D01*
X83384308Y1889365D01*
X83426954Y1885634D01*
X83552050Y1874689D01*
X83552061Y1874689D01*
X83554216Y1874500D01*
X87200500Y1874500D01*
X87258691Y1855593D01*
X87294655Y1806093D01*
X87299500Y1775500D01*
X87299500Y655354D01*
X87302618Y629154D01*
X87304653Y624572D01*
X87301898Y564617D01*
X87263699Y516820D01*
X87209247Y500500D01*
X72690739Y500500D01*
X72632548Y519407D01*
X72596584Y568907D01*
X72595248Y624566D01*
X72597506Y629673D01*
X72598656Y639530D01*
X72600168Y652506D01*
X72600168Y652507D01*
X72600500Y655354D01*
X72600500Y1775500D01*
X72619407Y1833691D01*
X72668907Y1869655D01*
X72699500Y1874500D01*
X75957784Y1874500D01*
X75959939Y1874689D01*
X75959950Y1874689D01*
X76085046Y1885634D01*
X76127692Y1889365D01*
X76131872Y1890485D01*
X76152930Y1896127D01*
X76178552Y1899500D01*
X77394646Y1899500D01*
X77412561Y1901632D01*
X77413469Y1901740D01*
X77413470Y1901740D01*
X77420846Y1902618D01*
X77523153Y1948061D01*
X77602241Y2027287D01*
X77647506Y2129673D01*
X77650500Y2155354D01*
X77650500Y4144646D01*
X77647382Y4170846D01*
X77601939Y4273153D01*
X77522713Y4352241D01*
X77472374Y4374496D01*
X77427136Y4394496D01*
X77427134Y4394496D01*
X77420327Y4397506D01*
X77399664Y4399915D01*
X77397494Y4400168D01*
X77397493Y4400168D01*
X77394646Y4400500D01*
X76365155Y4400500D01*
X76339532Y4403873D01*
X76131869Y4459516D01*
X76131867Y4459516D01*
X76127692Y4460635D01*
X76083205Y4464527D01*
X75959950Y4475311D01*
X75959939Y4475311D01*
X75957784Y4475500D01*
X72699500Y4475500D01*
X72641309Y4494407D01*
X72605345Y4543907D01*
X72600500Y4574500D01*
X72600500Y4744646D01*
X72597382Y4770846D01*
X72551939Y4873153D01*
X72472713Y4952241D01*
X72443591Y4965116D01*
X72377136Y4994496D01*
X72377134Y4994496D01*
X72370327Y4997506D01*
X72356322Y4999139D01*
X72347494Y5000168D01*
X72347493Y5000168D01*
X72344646Y5000500D01*
X68255354Y5000500D01*
X68238951Y4998548D01*
X68236531Y4998260D01*
X68236530Y4998260D01*
X68229154Y4997382D01*
X68126847Y4951939D01*
X68047759Y4872713D01*
X68044064Y4864355D01*
X68014505Y4797494D01*
X68002494Y4770327D01*
X67999500Y4744646D01*
X67999500Y655354D01*
X68002618Y629154D01*
X68004653Y624572D01*
X68001898Y564617D01*
X67963699Y516820D01*
X67909247Y500500D01*
X51515305Y500500D01*
X51457114Y519407D01*
X51421150Y568907D01*
X51421150Y630093D01*
X51424759Y639530D01*
X51439496Y672864D01*
X51439496Y672866D01*
X51442506Y679673D01*
X51445500Y705354D01*
X51445500Y1775500D01*
X51464407Y1833691D01*
X51513907Y1869655D01*
X51544500Y1874500D01*
X54367784Y1874500D01*
X54369939Y1874689D01*
X54369950Y1874689D01*
X54420625Y1879123D01*
X54429253Y1879500D01*
X56100646Y1879500D01*
X56117049Y1881452D01*
X56119469Y1881740D01*
X56119470Y1881740D01*
X56126846Y1882618D01*
X56229153Y1928061D01*
X56255261Y1954214D01*
X56301786Y2000821D01*
X56308241Y2007287D01*
X56353506Y2109673D01*
X56356500Y2135354D01*
X56356500Y4124646D01*
X56353382Y4150846D01*
X56307939Y4253153D01*
X56296718Y4264355D01*
X56235179Y4325786D01*
X56228713Y4332241D01*
X56175117Y4355936D01*
X56133136Y4374496D01*
X56133134Y4374496D01*
X56126327Y4377506D01*
X56100646Y4380500D01*
X54824990Y4380500D01*
X54783154Y4389774D01*
X54757496Y4401739D01*
X54668437Y4425602D01*
X54541869Y4459516D01*
X54541867Y4459516D01*
X54537692Y4460635D01*
X54493205Y4464527D01*
X54369950Y4475311D01*
X54369939Y4475311D01*
X54367784Y4475500D01*
X51544500Y4475500D01*
X51486309Y4494407D01*
X51450345Y4543907D01*
X51445500Y4574500D01*
X51445500Y4794646D01*
X51442382Y4820846D01*
X51396939Y4923153D01*
X51317713Y5002241D01*
X51288591Y5015116D01*
X51222136Y5044496D01*
X51222134Y5044496D01*
X51215327Y5047506D01*
X51201322Y5049139D01*
X51192494Y5050168D01*
X51192493Y5050168D01*
X51189646Y5050500D01*
X47100354Y5050500D01*
X47083951Y5048548D01*
X47081531Y5048260D01*
X47081530Y5048260D01*
X47074154Y5047382D01*
X46971847Y5001939D01*
X46892759Y4922713D01*
X46889064Y4914355D01*
X46873513Y4879179D01*
X46847494Y4820327D01*
X46844500Y4794646D01*
X46844500Y705354D01*
X46847618Y679154D01*
X46850634Y672365D01*
X46865148Y639688D01*
X46871491Y578832D01*
X46840851Y525871D01*
X46784934Y501033D01*
X46774672Y500500D01*
X32215305Y500500D01*
X32157114Y519407D01*
X32121150Y568907D01*
X32121150Y630093D01*
X32124759Y639530D01*
X32139496Y672864D01*
X32139496Y672866D01*
X32142506Y679673D01*
X32145500Y705354D01*
X32145500Y1775500D01*
X32164407Y1833691D01*
X32213907Y1869655D01*
X32244500Y1874500D01*
X35063784Y1874500D01*
X35065939Y1874689D01*
X35065950Y1874689D01*
X35116625Y1879123D01*
X35125253Y1879500D01*
X36796646Y1879500D01*
X36813049Y1881452D01*
X36815469Y1881740D01*
X36815470Y1881740D01*
X36822846Y1882618D01*
X36925153Y1928061D01*
X36951261Y1954214D01*
X36997786Y2000821D01*
X37004241Y2007287D01*
X37049506Y2109673D01*
X37052500Y2135354D01*
X37052500Y4124646D01*
X37049382Y4150846D01*
X37003939Y4253153D01*
X36992718Y4264355D01*
X36931179Y4325786D01*
X36924713Y4332241D01*
X36871117Y4355936D01*
X36829136Y4374496D01*
X36829134Y4374496D01*
X36822327Y4377506D01*
X36796646Y4380500D01*
X35520990Y4380500D01*
X35479154Y4389774D01*
X35453496Y4401739D01*
X35364437Y4425602D01*
X35237869Y4459516D01*
X35237867Y4459516D01*
X35233692Y4460635D01*
X35189205Y4464527D01*
X35065950Y4475311D01*
X35065939Y4475311D01*
X35063784Y4475500D01*
X32244500Y4475500D01*
X32186309Y4494407D01*
X32150345Y4543907D01*
X32145500Y4574500D01*
X32145500Y4794646D01*
X32142382Y4820846D01*
X32096939Y4923153D01*
X32017713Y5002241D01*
X31988591Y5015116D01*
X31922136Y5044496D01*
X31922134Y5044496D01*
X31915327Y5047506D01*
X31901322Y5049139D01*
X31892494Y5050168D01*
X31892493Y5050168D01*
X31889646Y5050500D01*
X27800354Y5050500D01*
X27783951Y5048548D01*
X27781531Y5048260D01*
X27781530Y5048260D01*
X27774154Y5047382D01*
X27671847Y5001939D01*
X27592759Y4922713D01*
X27589064Y4914355D01*
X27573513Y4879179D01*
X27547494Y4820327D01*
X27544500Y4794646D01*
X27544500Y705354D01*
X27547618Y679154D01*
X27550634Y672365D01*
X27565148Y639688D01*
X27571491Y578832D01*
X27540851Y525871D01*
X27484934Y501033D01*
X27474672Y500500D01*
X12915305Y500500D01*
X12857114Y519407D01*
X12821150Y568907D01*
X12821150Y630093D01*
X12824759Y639530D01*
X12839496Y672864D01*
X12839496Y672866D01*
X12842506Y679673D01*
X12845500Y705354D01*
X12845500Y1775500D01*
X12864407Y1833691D01*
X12913907Y1869655D01*
X12944500Y1874500D01*
X16267784Y1874500D01*
X16269939Y1874689D01*
X16269950Y1874689D01*
X16395046Y1885634D01*
X16437692Y1889365D01*
X16441872Y1890485D01*
X16462930Y1896127D01*
X16488552Y1899500D01*
X17444646Y1899500D01*
X17462561Y1901632D01*
X17463469Y1901740D01*
X17463470Y1901740D01*
X17470846Y1902618D01*
X17573153Y1948061D01*
X17652241Y2027287D01*
X17697506Y2129673D01*
X17700500Y2155354D01*
X17700500Y4144646D01*
X17697382Y4170846D01*
X17651939Y4273153D01*
X17572713Y4352241D01*
X17522374Y4374496D01*
X17477136Y4394496D01*
X17477134Y4394496D01*
X17470327Y4397506D01*
X17449664Y4399915D01*
X17447494Y4400168D01*
X17447493Y4400168D01*
X17444646Y4400500D01*
X16675155Y4400500D01*
X16649532Y4403873D01*
X16441869Y4459516D01*
X16441867Y4459516D01*
X16437692Y4460635D01*
X16393205Y4464527D01*
X16269950Y4475311D01*
X16269939Y4475311D01*
X16267784Y4475500D01*
X12944500Y4475500D01*
X12886309Y4494407D01*
X12850345Y4543907D01*
X12845500Y4574500D01*
X12845500Y4794646D01*
X12842382Y4820846D01*
X12796939Y4923153D01*
X12717713Y5002241D01*
X12688591Y5015116D01*
X12622136Y5044496D01*
X12622134Y5044496D01*
X12615327Y5047506D01*
X12601322Y5049139D01*
X12592494Y5050168D01*
X12592493Y5050168D01*
X12589646Y5050500D01*
X8500354Y5050500D01*
X8483951Y5048548D01*
X8481531Y5048260D01*
X8481530Y5048260D01*
X8474154Y5047382D01*
X8371847Y5001939D01*
X8292759Y4922713D01*
X8289064Y4914355D01*
X8273513Y4879179D01*
X8247494Y4820327D01*
X8244500Y4794646D01*
X8244500Y705354D01*
X8247618Y679154D01*
X8250634Y672365D01*
X8265148Y639688D01*
X8271491Y578832D01*
X8240851Y525871D01*
X8184934Y501033D01*
X8174672Y500500D01*
X599500Y500500D01*
X541309Y519407D01*
X505345Y568907D01*
X500500Y599500D01*
X500500Y6055354D01*
X13699500Y6055354D01*
X13702618Y6029154D01*
X13748061Y5926847D01*
X13827287Y5847759D01*
X13835645Y5844064D01*
X13922864Y5805504D01*
X13922866Y5805504D01*
X13929673Y5802494D01*
X13955354Y5799500D01*
X15110678Y5799500D01*
X15168869Y5780593D01*
X15204833Y5731093D01*
X15206593Y5724983D01*
X15206867Y5723721D01*
X15217825Y5685512D01*
X15274504Y5588599D01*
X15320997Y5534943D01*
X15322816Y5533228D01*
X15360579Y5497621D01*
X15360582Y5497619D01*
X15365733Y5492762D01*
X15372042Y5489554D01*
X15372045Y5489552D01*
X15435109Y5457487D01*
X15465810Y5441877D01*
X15470204Y5440587D01*
X15470206Y5440586D01*
X15495245Y5433234D01*
X15533931Y5421875D01*
X15620000Y5409500D01*
X93290559Y5409500D01*
X93292076Y5409593D01*
X93292081Y5409593D01*
X93326297Y5411687D01*
X93326310Y5411688D01*
X93327810Y5411780D01*
X93329312Y5411965D01*
X93329317Y5411965D01*
X93335872Y5412770D01*
X93358310Y5415527D01*
X93369880Y5417173D01*
X93374634Y5418883D01*
X93471222Y5453626D01*
X93471224Y5453627D01*
X93475525Y5455174D01*
X93536778Y5491071D01*
X93604777Y5545265D01*
X93787218Y5739109D01*
X93805501Y5760418D01*
X93806185Y5761293D01*
X93806196Y5761307D01*
X93811473Y5768062D01*
X93819746Y5778653D01*
X93872123Y5880654D01*
X93892125Y5948775D01*
X93904500Y6034844D01*
X93904500Y6360690D01*
X93923407Y6418881D01*
X93942050Y6438310D01*
X94059283Y6531120D01*
X94120733Y6552500D01*
X95632000Y6552500D01*
X95675239Y6557148D01*
X95694315Y6559199D01*
X95694317Y6559199D01*
X95696937Y6559481D01*
X95699507Y6560040D01*
X95699513Y6560041D01*
X95727468Y6566122D01*
X95749279Y6570867D01*
X95760634Y6574124D01*
X95781534Y6580117D01*
X95781537Y6580118D01*
X95787488Y6581825D01*
X95884401Y6638504D01*
X95938057Y6684997D01*
X95945062Y6692426D01*
X95975379Y6724579D01*
X95975381Y6724582D01*
X95980238Y6729733D01*
X95983446Y6736042D01*
X95983448Y6736045D01*
X96029047Y6825727D01*
X96031123Y6829810D01*
X96051125Y6897931D01*
X96063500Y6984000D01*
X96063994Y6983929D01*
X96068186Y7004140D01*
X96069519Y7007937D01*
X96071519Y7013631D01*
X96074500Y7045166D01*
X96074500Y7452834D01*
X96071519Y7484369D01*
X96069092Y7491281D01*
X96068533Y7494559D01*
X96068227Y7495953D01*
X96068293Y7495967D01*
X96063500Y7524082D01*
X96063500Y8223918D01*
X96068293Y8252033D01*
X96068227Y8252047D01*
X96068533Y8253441D01*
X96069092Y8256721D01*
X96069520Y8257940D01*
X96071519Y8263631D01*
X96074500Y8295166D01*
X96074500Y8702834D01*
X96071519Y8734369D01*
X96026634Y8862184D01*
X95946150Y8971150D01*
X95867479Y9029258D01*
X95843136Y9047238D01*
X95843135Y9047239D01*
X95837184Y9051634D01*
X95709369Y9096519D01*
X95703362Y9097087D01*
X95703361Y9097087D01*
X95680145Y9099282D01*
X95680135Y9099282D01*
X95677834Y9099500D01*
X94170166Y9099500D01*
X94167865Y9099282D01*
X94167855Y9099282D01*
X94144639Y9097087D01*
X94144638Y9097087D01*
X94138631Y9096519D01*
X94010816Y9051634D01*
X94004867Y9047240D01*
X93992926Y9038420D01*
X93977885Y9029258D01*
X93899268Y8990498D01*
X92782210Y8208557D01*
X92766266Y8197396D01*
X92709493Y8179500D01*
X86336537Y8179500D01*
X86278346Y8198407D01*
X86266594Y8208436D01*
X86254701Y8220309D01*
X86222713Y8252241D01*
X86214357Y8255935D01*
X86214356Y8255936D01*
X86127136Y8294496D01*
X86127134Y8294496D01*
X86120327Y8297506D01*
X86106322Y8299139D01*
X86097494Y8300168D01*
X86097493Y8300168D01*
X86094646Y8300500D01*
X82605354Y8300500D01*
X82588951Y8298548D01*
X82586531Y8298260D01*
X82586530Y8298260D01*
X82579154Y8297382D01*
X82476847Y8251939D01*
X82470389Y8245470D01*
X82470388Y8245469D01*
X82433540Y8208557D01*
X82379048Y8180732D01*
X82363476Y8179500D01*
X80226000Y8179500D01*
X80167809Y8198407D01*
X80131845Y8247907D01*
X80127000Y8278500D01*
X80127000Y11146767D01*
X87694906Y11146767D01*
X87695246Y11143205D01*
X87695246Y11143198D01*
X87713274Y10954252D01*
X87721102Y10872208D01*
X87786657Y10604306D01*
X87890199Y10348674D01*
X88029558Y10110665D01*
X88201816Y9895268D01*
X88204439Y9892818D01*
X88400201Y9709947D01*
X88403364Y9706992D01*
X88406312Y9704947D01*
X88622772Y9554784D01*
X88629979Y9549784D01*
X88633184Y9548189D01*
X88633190Y9548186D01*
X88873699Y9428534D01*
X88873704Y9428532D01*
X88876914Y9426935D01*
X88880325Y9425817D01*
X88880327Y9425816D01*
X89135593Y9342136D01*
X89135596Y9342135D01*
X89138998Y9341020D01*
X89410738Y9293838D01*
X89461160Y9291328D01*
X89496644Y9289561D01*
X89496657Y9289561D01*
X89497876Y9289500D01*
X89670070Y9289500D01*
X89875083Y9304375D01*
X89905490Y9311088D01*
X90140904Y9363063D01*
X90140910Y9363065D01*
X90144403Y9363836D01*
X90147752Y9365105D01*
X90147756Y9365106D01*
X90310951Y9426935D01*
X90402319Y9461551D01*
X90643428Y9595475D01*
X90652838Y9602656D01*
X90786870Y9704947D01*
X90862678Y9762802D01*
X91055477Y9960026D01*
X91059117Y9965026D01*
X91215682Y10180124D01*
X91217787Y10183016D01*
X91222084Y10191182D01*
X91344536Y10423927D01*
X91346206Y10427101D01*
X91438045Y10687168D01*
X91439031Y10692168D01*
X91490687Y10954252D01*
X91491380Y10957768D01*
X91505094Y11233233D01*
X91504754Y11236795D01*
X91504754Y11236802D01*
X91479239Y11504221D01*
X91479238Y11504225D01*
X91478898Y11507792D01*
X91413343Y11775694D01*
X91309801Y12031326D01*
X91306874Y12036326D01*
X91172253Y12266242D01*
X91170442Y12269335D01*
X90998184Y12484732D01*
X90796636Y12673008D01*
X90570021Y12830216D01*
X90566816Y12831811D01*
X90566810Y12831814D01*
X90326301Y12951466D01*
X90326296Y12951468D01*
X90323086Y12953065D01*
X90319675Y12954183D01*
X90319673Y12954184D01*
X90064407Y13037864D01*
X90064404Y13037865D01*
X90061002Y13038980D01*
X89789262Y13086162D01*
X89738840Y13088672D01*
X89703356Y13090439D01*
X89703343Y13090439D01*
X89702124Y13090500D01*
X89529930Y13090500D01*
X89324917Y13075625D01*
X89321406Y13074850D01*
X89321407Y13074850D01*
X89059096Y13016937D01*
X89059090Y13016935D01*
X89055597Y13016164D01*
X89052248Y13014895D01*
X89052244Y13014894D01*
X88948185Y12975470D01*
X88797681Y12918449D01*
X88650710Y12836814D01*
X88565574Y12789525D01*
X88556572Y12784525D01*
X88337322Y12617198D01*
X88144523Y12419974D01*
X88142414Y12417077D01*
X88142411Y12417073D01*
X87987957Y12204876D01*
X87982213Y12196984D01*
X87853794Y11952899D01*
X87761955Y11692832D01*
X87708620Y11422232D01*
X87694906Y11146767D01*
X80127000Y11146767D01*
X80127000Y15472463D01*
X80127005Y15473499D01*
X80127883Y15557373D01*
X80127941Y15562907D01*
X80118593Y15606146D01*
X80116976Y15616020D01*
X80115117Y15632596D01*
X80114500Y15643630D01*
X80114500Y20087155D01*
X80099546Y20220472D01*
X80063862Y20322943D01*
X80062580Y20384114D01*
X80097500Y20434356D01*
X80156784Y20454308D01*
X80156783Y20454326D01*
X80156850Y20454330D01*
X80157355Y20454500D01*
X80162646Y20454500D01*
X80188846Y20457618D01*
X80188909Y20457092D01*
X80203048Y20459000D01*
X81683950Y20459000D01*
X81742141Y20440093D01*
X81753954Y20430004D01*
X86051483Y16132475D01*
X86052189Y16131822D01*
X86052205Y16131807D01*
X86061490Y16123225D01*
X86069101Y16116189D01*
X86070694Y16114829D01*
X86102662Y16062661D01*
X86104700Y16051267D01*
X86106618Y16035154D01*
X86152061Y15932847D01*
X86231287Y15853759D01*
X86239645Y15850064D01*
X86326864Y15811504D01*
X86326866Y15811504D01*
X86333673Y15808494D01*
X86341067Y15807632D01*
X86356378Y15805847D01*
X86359354Y15805500D01*
X91948646Y15805500D01*
X91966561Y15807632D01*
X91967469Y15807740D01*
X91967470Y15807740D01*
X91974846Y15808618D01*
X92077153Y15854061D01*
X92156241Y15933287D01*
X92201506Y16035673D01*
X92204500Y16061354D01*
X92204500Y19150646D01*
X92201382Y19176846D01*
X92155939Y19279153D01*
X92076713Y19358241D01*
X92047591Y19371116D01*
X91981136Y19400496D01*
X91981134Y19400496D01*
X91974327Y19403506D01*
X91948646Y19406500D01*
X91683550Y19406500D01*
X91625359Y19425407D01*
X91613546Y19435496D01*
X89335517Y21713525D01*
X89334811Y21714178D01*
X89334795Y21714193D01*
X89318619Y21729145D01*
X89317899Y21729811D01*
X89306086Y21739900D01*
X89301840Y21742278D01*
X89206331Y21795764D01*
X89206329Y21795765D01*
X89202086Y21798141D01*
X89143895Y21817048D01*
X89078793Y21827359D01*
X89053338Y21831391D01*
X89053336Y21831391D01*
X89049492Y21832000D01*
X80249906Y21832000D01*
X80200182Y21845393D01*
X80188887Y21851954D01*
X80141991Y21879193D01*
X80134782Y21880864D01*
X80020163Y21907432D01*
X80020160Y21907432D01*
X80012952Y21909103D01*
X79966184Y21905791D01*
X79888202Y21900270D01*
X79888199Y21900269D01*
X79880822Y21899747D01*
X79873921Y21897077D01*
X79873920Y21897077D01*
X79760567Y21853224D01*
X79699474Y21849862D01*
X79675123Y21859948D01*
X79641991Y21879193D01*
X79634785Y21880863D01*
X79634783Y21880864D01*
X79520163Y21907432D01*
X79520160Y21907432D01*
X79512952Y21909103D01*
X79466184Y21905791D01*
X79388202Y21900270D01*
X79388199Y21900269D01*
X79380822Y21899747D01*
X79373921Y21897077D01*
X79373920Y21897077D01*
X79260567Y21853224D01*
X79199474Y21849862D01*
X79175123Y21859948D01*
X79141991Y21879193D01*
X79134785Y21880863D01*
X79134783Y21880864D01*
X79020163Y21907432D01*
X79020160Y21907432D01*
X79012952Y21909103D01*
X78966184Y21905791D01*
X78888202Y21900270D01*
X78888199Y21900269D01*
X78880822Y21899747D01*
X78873921Y21897077D01*
X78873920Y21897077D01*
X78760567Y21853224D01*
X78699474Y21849862D01*
X78675123Y21859948D01*
X78641991Y21879193D01*
X78634785Y21880863D01*
X78634783Y21880864D01*
X78520163Y21907432D01*
X78520160Y21907432D01*
X78512952Y21909103D01*
X78466184Y21905791D01*
X78388202Y21900270D01*
X78388199Y21900269D01*
X78380822Y21899747D01*
X78373921Y21897077D01*
X78373920Y21897077D01*
X78260567Y21853224D01*
X78199474Y21849862D01*
X78175123Y21859948D01*
X78141991Y21879193D01*
X78134785Y21880863D01*
X78134783Y21880864D01*
X78020163Y21907432D01*
X78020160Y21907432D01*
X78012952Y21909103D01*
X77966184Y21905791D01*
X77888202Y21900270D01*
X77888199Y21900269D01*
X77880822Y21899747D01*
X77873921Y21897077D01*
X77873920Y21897077D01*
X77764188Y21854625D01*
X77764186Y21854624D01*
X77757285Y21851954D01*
X77731201Y21831391D01*
X77659075Y21774532D01*
X77659074Y21774530D01*
X77653262Y21769949D01*
X77649055Y21763862D01*
X77649054Y21763861D01*
X77614265Y21713525D01*
X77577950Y21660982D01*
X77538009Y21534688D01*
X77537500Y21528221D01*
X77537500Y20710354D01*
X77540618Y20684154D01*
X77586061Y20581847D01*
X77665287Y20502759D01*
X77673645Y20499064D01*
X77760864Y20460504D01*
X77760866Y20460504D01*
X77767673Y20457494D01*
X77775067Y20456632D01*
X77790378Y20454847D01*
X77793354Y20454500D01*
X77816500Y20454500D01*
X77874691Y20435593D01*
X77910655Y20386093D01*
X77915500Y20355500D01*
X77915500Y20353459D01*
X77915424Y20349572D01*
X77914378Y20322942D01*
X77913162Y20292006D01*
X77914959Y20285228D01*
X77915500Y20275403D01*
X77915500Y18903611D01*
X77896593Y18845420D01*
X77886504Y18833607D01*
X77634662Y18581765D01*
X77580145Y18553988D01*
X77519713Y18563559D01*
X77474536Y18610793D01*
X77443305Y18679483D01*
X77443304Y18679486D01*
X77441848Y18682687D01*
X77395150Y18755707D01*
X77392856Y18758370D01*
X77392851Y18758376D01*
X77303963Y18861535D01*
X77301660Y18864208D01*
X77236343Y18921188D01*
X77116158Y18999088D01*
X77037473Y19035445D01*
X77034104Y19036453D01*
X77034100Y19036454D01*
X76954810Y19060166D01*
X76900255Y19076481D01*
X76814533Y19089292D01*
X76671312Y19090167D01*
X76668901Y19089837D01*
X76664846Y19089705D01*
X76238000Y19089705D01*
X76209793Y19088401D01*
X76204289Y19086835D01*
X76110557Y19060166D01*
X76110556Y19060166D01*
X76101736Y19057656D01*
X76012081Y18989952D01*
X75952939Y18894433D01*
X75951254Y18885418D01*
X75951253Y18885416D01*
X75941568Y18833607D01*
X75932295Y18784000D01*
X75932295Y18354269D01*
X75931516Y18344197D01*
X75931665Y18344185D01*
X75931372Y18340685D01*
X75930830Y18337201D01*
X75929771Y18250534D01*
X75930228Y18247040D01*
X75931459Y18237625D01*
X75932295Y18224789D01*
X75932295Y17854269D01*
X75931516Y17844197D01*
X75931665Y17844185D01*
X75931372Y17840685D01*
X75930830Y17837201D01*
X75929771Y17750534D01*
X75930228Y17747040D01*
X75931459Y17737625D01*
X75932295Y17724789D01*
X75932295Y17284000D01*
X75933599Y17255793D01*
X75964344Y17147736D01*
X76032048Y17058081D01*
X76127567Y16998939D01*
X76136582Y16997254D01*
X76136584Y16997253D01*
X76233494Y16979137D01*
X76233498Y16979137D01*
X76238000Y16978295D01*
X76727502Y16978295D01*
X76729317Y16978278D01*
X76794833Y16977077D01*
X76880848Y16987791D01*
X77019028Y17025464D01*
X77098574Y17059887D01*
X77101573Y17061728D01*
X77101578Y17061731D01*
X77217626Y17132985D01*
X77220626Y17134827D01*
X77287314Y17190192D01*
X77346694Y17255793D01*
X77381059Y17293758D01*
X77381064Y17293764D01*
X77383428Y17296376D01*
X77385404Y17299305D01*
X77429927Y17365314D01*
X77429930Y17365320D01*
X77431898Y17368237D01*
X77494345Y17497129D01*
X77495415Y17500483D01*
X77495419Y17500492D01*
X77499920Y17514597D01*
X77535623Y17564286D01*
X77594234Y17583500D01*
X77691373Y17583500D01*
X77703009Y17582814D01*
X77738310Y17578636D01*
X77745586Y17579965D01*
X77745589Y17579965D01*
X77776288Y17585572D01*
X77796430Y17589251D01*
X77799476Y17589758D01*
X77857962Y17598551D01*
X77864475Y17601679D01*
X77871573Y17602975D01*
X77923982Y17630199D01*
X77926762Y17631588D01*
X77973408Y17653987D01*
X77973411Y17653989D01*
X77980079Y17657191D01*
X77984521Y17661297D01*
X77986781Y17662820D01*
X77991788Y17665421D01*
X77996828Y17669725D01*
X78034460Y17707357D01*
X78037263Y17710051D01*
X78074124Y17744124D01*
X78074126Y17744127D01*
X78079556Y17749146D01*
X78083078Y17755210D01*
X78089638Y17762535D01*
X78344496Y18017393D01*
X78399013Y18045170D01*
X78459445Y18035599D01*
X78502710Y17992334D01*
X78513500Y17947389D01*
X78513500Y15502991D01*
X78513495Y15501954D01*
X78512559Y15412593D01*
X78513247Y15409411D01*
X78513500Y15404417D01*
X78513500Y14976228D01*
X78513859Y14973262D01*
X78524364Y14886453D01*
X78524066Y14886417D01*
X78526000Y14870940D01*
X78526000Y8278500D01*
X78507093Y8220309D01*
X78457593Y8184345D01*
X78427000Y8179500D01*
X77636537Y8179500D01*
X77578346Y8198407D01*
X77566594Y8208436D01*
X77554701Y8220309D01*
X77522713Y8252241D01*
X77514357Y8255935D01*
X77514356Y8255936D01*
X77427136Y8294496D01*
X77427134Y8294496D01*
X77420327Y8297506D01*
X77406322Y8299139D01*
X77397494Y8300168D01*
X77397493Y8300168D01*
X77394646Y8300500D01*
X73905354Y8300500D01*
X73888951Y8298548D01*
X73886531Y8298260D01*
X73886530Y8298260D01*
X73879154Y8297382D01*
X73776847Y8251939D01*
X73770389Y8245470D01*
X73770388Y8245469D01*
X73733540Y8208557D01*
X73679048Y8180732D01*
X73663476Y8179500D01*
X56322504Y8179500D01*
X56264313Y8198407D01*
X56252562Y8208435D01*
X56235182Y8225784D01*
X56235180Y8225786D01*
X56228713Y8232241D01*
X56170584Y8257940D01*
X56133136Y8274496D01*
X56133134Y8274496D01*
X56126327Y8277506D01*
X56112322Y8279139D01*
X56103494Y8280168D01*
X56103493Y8280168D01*
X56100646Y8280500D01*
X52611354Y8280500D01*
X52594951Y8278548D01*
X52592531Y8278260D01*
X52592530Y8278260D01*
X52585154Y8277382D01*
X52482847Y8231939D01*
X52459507Y8208558D01*
X52405015Y8180732D01*
X52389442Y8179500D01*
X37018504Y8179500D01*
X36960313Y8198407D01*
X36948562Y8208435D01*
X36931182Y8225784D01*
X36931180Y8225786D01*
X36924713Y8232241D01*
X36866584Y8257940D01*
X36829136Y8274496D01*
X36829134Y8274496D01*
X36822327Y8277506D01*
X36808322Y8279139D01*
X36799494Y8280168D01*
X36799493Y8280168D01*
X36796646Y8280500D01*
X33307354Y8280500D01*
X33290951Y8278548D01*
X33288531Y8278260D01*
X33288530Y8278260D01*
X33281154Y8277382D01*
X33178847Y8231939D01*
X33155507Y8208558D01*
X33101015Y8180732D01*
X33085442Y8179500D01*
X17686537Y8179500D01*
X17628346Y8198407D01*
X17616594Y8208436D01*
X17604701Y8220309D01*
X17572713Y8252241D01*
X17564357Y8255935D01*
X17564356Y8255936D01*
X17477136Y8294496D01*
X17477134Y8294496D01*
X17470327Y8297506D01*
X17456322Y8299139D01*
X17447494Y8300168D01*
X17447493Y8300168D01*
X17444646Y8300500D01*
X13955354Y8300500D01*
X13938951Y8298548D01*
X13936531Y8298260D01*
X13936530Y8298260D01*
X13929154Y8297382D01*
X13826847Y8251939D01*
X13820390Y8245471D01*
X13820389Y8245470D01*
X13800423Y8225469D01*
X13747759Y8172713D01*
X13702494Y8070327D01*
X13699500Y8044646D01*
X13699500Y6055354D01*
X500500Y6055354D01*
X500500Y11151767D01*
X8639906Y11151767D01*
X8640246Y11148205D01*
X8640246Y11148198D01*
X8658751Y10954252D01*
X8666102Y10877208D01*
X8731657Y10609306D01*
X8835199Y10353674D01*
X8837010Y10350581D01*
X8837011Y10350579D01*
X8839939Y10345579D01*
X8974558Y10115665D01*
X9146816Y9900268D01*
X9348364Y9711992D01*
X9574979Y9554784D01*
X9578184Y9553189D01*
X9578190Y9553186D01*
X9818699Y9433534D01*
X9818704Y9433532D01*
X9821914Y9431935D01*
X9825325Y9430817D01*
X9825327Y9430816D01*
X10080593Y9347136D01*
X10080596Y9347135D01*
X10083998Y9346020D01*
X10355738Y9298838D01*
X10406160Y9296328D01*
X10441644Y9294561D01*
X10441657Y9294561D01*
X10442876Y9294500D01*
X10615070Y9294500D01*
X10820083Y9309375D01*
X10850490Y9316088D01*
X11085904Y9368063D01*
X11085910Y9368065D01*
X11089403Y9368836D01*
X11092752Y9370105D01*
X11092756Y9370106D01*
X11239800Y9425816D01*
X11347319Y9466551D01*
X11576283Y9593729D01*
X11585285Y9598729D01*
X11585287Y9598730D01*
X11588428Y9600475D01*
X11807678Y9767802D01*
X12000477Y9965026D01*
X12104445Y10107862D01*
X12160682Y10185124D01*
X12162787Y10188016D01*
X12291206Y10432101D01*
X12383045Y10692168D01*
X12436380Y10962768D01*
X12445789Y11151767D01*
X27939906Y11151767D01*
X27940246Y11148205D01*
X27940246Y11148198D01*
X27958751Y10954252D01*
X27966102Y10877208D01*
X28031657Y10609306D01*
X28135199Y10353674D01*
X28137010Y10350581D01*
X28137011Y10350579D01*
X28139939Y10345579D01*
X28274558Y10115665D01*
X28446816Y9900268D01*
X28648364Y9711992D01*
X28874979Y9554784D01*
X28878184Y9553189D01*
X28878190Y9553186D01*
X29118699Y9433534D01*
X29118704Y9433532D01*
X29121914Y9431935D01*
X29125325Y9430817D01*
X29125327Y9430816D01*
X29380593Y9347136D01*
X29380596Y9347135D01*
X29383998Y9346020D01*
X29655738Y9298838D01*
X29706160Y9296328D01*
X29741644Y9294561D01*
X29741657Y9294561D01*
X29742876Y9294500D01*
X29915070Y9294500D01*
X30120083Y9309375D01*
X30150490Y9316088D01*
X30385904Y9368063D01*
X30385910Y9368065D01*
X30389403Y9368836D01*
X30392752Y9370105D01*
X30392756Y9370106D01*
X30539800Y9425816D01*
X30647319Y9466551D01*
X30876283Y9593729D01*
X30885285Y9598729D01*
X30885287Y9598730D01*
X30888428Y9600475D01*
X31107678Y9767802D01*
X31300477Y9965026D01*
X31404445Y10107862D01*
X31460682Y10185124D01*
X31462787Y10188016D01*
X31591206Y10432101D01*
X31683045Y10692168D01*
X31736380Y10962768D01*
X31745789Y11151767D01*
X47239906Y11151767D01*
X47240246Y11148205D01*
X47240246Y11148198D01*
X47258751Y10954252D01*
X47266102Y10877208D01*
X47331657Y10609306D01*
X47435199Y10353674D01*
X47437010Y10350581D01*
X47437011Y10350579D01*
X47439939Y10345579D01*
X47574558Y10115665D01*
X47746816Y9900268D01*
X47948364Y9711992D01*
X48174979Y9554784D01*
X48178184Y9553189D01*
X48178190Y9553186D01*
X48418699Y9433534D01*
X48418704Y9433532D01*
X48421914Y9431935D01*
X48425325Y9430817D01*
X48425327Y9430816D01*
X48680593Y9347136D01*
X48680596Y9347135D01*
X48683998Y9346020D01*
X48955738Y9298838D01*
X49006160Y9296328D01*
X49041644Y9294561D01*
X49041657Y9294561D01*
X49042876Y9294500D01*
X49215070Y9294500D01*
X49420083Y9309375D01*
X49450490Y9316088D01*
X49685904Y9368063D01*
X49685910Y9368065D01*
X49689403Y9368836D01*
X49692752Y9370105D01*
X49692756Y9370106D01*
X49839800Y9425816D01*
X49947319Y9466551D01*
X50176283Y9593729D01*
X50185285Y9598729D01*
X50185287Y9598730D01*
X50188428Y9600475D01*
X50407678Y9767802D01*
X50600477Y9965026D01*
X50704445Y10107862D01*
X50760682Y10185124D01*
X50762787Y10188016D01*
X50891206Y10432101D01*
X50983045Y10692168D01*
X51036380Y10962768D01*
X51045540Y11146767D01*
X68394906Y11146767D01*
X68395246Y11143205D01*
X68395246Y11143198D01*
X68413274Y10954252D01*
X68421102Y10872208D01*
X68486657Y10604306D01*
X68590199Y10348674D01*
X68729558Y10110665D01*
X68901816Y9895268D01*
X68904439Y9892818D01*
X69100201Y9709947D01*
X69103364Y9706992D01*
X69106312Y9704947D01*
X69322772Y9554784D01*
X69329979Y9549784D01*
X69333184Y9548189D01*
X69333190Y9548186D01*
X69573699Y9428534D01*
X69573704Y9428532D01*
X69576914Y9426935D01*
X69580325Y9425817D01*
X69580327Y9425816D01*
X69835593Y9342136D01*
X69835596Y9342135D01*
X69838998Y9341020D01*
X70110738Y9293838D01*
X70161160Y9291328D01*
X70196644Y9289561D01*
X70196657Y9289561D01*
X70197876Y9289500D01*
X70370070Y9289500D01*
X70575083Y9304375D01*
X70605490Y9311088D01*
X70840904Y9363063D01*
X70840910Y9363065D01*
X70844403Y9363836D01*
X70847752Y9365105D01*
X70847756Y9365106D01*
X71010951Y9426935D01*
X71102319Y9461551D01*
X71343428Y9595475D01*
X71352838Y9602656D01*
X71486870Y9704947D01*
X71562678Y9762802D01*
X71755477Y9960026D01*
X71759117Y9965026D01*
X71915682Y10180124D01*
X71917787Y10183016D01*
X71922084Y10191182D01*
X72044536Y10423927D01*
X72046206Y10427101D01*
X72138045Y10687168D01*
X72139031Y10692168D01*
X72190687Y10954252D01*
X72191380Y10957768D01*
X72205094Y11233233D01*
X72204754Y11236795D01*
X72204754Y11236802D01*
X72179239Y11504221D01*
X72179238Y11504225D01*
X72178898Y11507792D01*
X72113343Y11775694D01*
X72009801Y12031326D01*
X72006874Y12036326D01*
X71872253Y12266242D01*
X71870442Y12269335D01*
X71698184Y12484732D01*
X71496636Y12673008D01*
X71270021Y12830216D01*
X71266816Y12831811D01*
X71266810Y12831814D01*
X71026301Y12951466D01*
X71026296Y12951468D01*
X71023086Y12953065D01*
X71019675Y12954183D01*
X71019673Y12954184D01*
X70764407Y13037864D01*
X70764404Y13037865D01*
X70761002Y13038980D01*
X70489262Y13086162D01*
X70438840Y13088672D01*
X70403356Y13090439D01*
X70403343Y13090439D01*
X70402124Y13090500D01*
X70229930Y13090500D01*
X70024917Y13075625D01*
X70021406Y13074850D01*
X70021407Y13074850D01*
X69759096Y13016937D01*
X69759090Y13016935D01*
X69755597Y13016164D01*
X69752248Y13014895D01*
X69752244Y13014894D01*
X69648185Y12975470D01*
X69497681Y12918449D01*
X69350710Y12836814D01*
X69265574Y12789525D01*
X69256572Y12784525D01*
X69037322Y12617198D01*
X68844523Y12419974D01*
X68842414Y12417077D01*
X68842411Y12417073D01*
X68687957Y12204876D01*
X68682213Y12196984D01*
X68553794Y11952899D01*
X68461955Y11692832D01*
X68408620Y11422232D01*
X68394906Y11146767D01*
X51045540Y11146767D01*
X51050094Y11238233D01*
X51049754Y11241795D01*
X51049754Y11241802D01*
X51024239Y11509221D01*
X51024238Y11509225D01*
X51023898Y11512792D01*
X50958343Y11780694D01*
X50854801Y12036326D01*
X50715442Y12274335D01*
X50543184Y12489732D01*
X50349611Y12670558D01*
X50344259Y12675558D01*
X50344257Y12675560D01*
X50341636Y12678008D01*
X50125173Y12828173D01*
X50117966Y12833173D01*
X50115021Y12835216D01*
X50111816Y12836811D01*
X50111810Y12836814D01*
X49871301Y12956466D01*
X49871296Y12956468D01*
X49868086Y12958065D01*
X49864675Y12959183D01*
X49864673Y12959184D01*
X49609407Y13042864D01*
X49609404Y13042865D01*
X49606002Y13043980D01*
X49334262Y13091162D01*
X49283840Y13093672D01*
X49248356Y13095439D01*
X49248343Y13095439D01*
X49247124Y13095500D01*
X49074930Y13095500D01*
X48869917Y13080625D01*
X48866406Y13079850D01*
X48866407Y13079850D01*
X48604096Y13021937D01*
X48604090Y13021935D01*
X48600597Y13021164D01*
X48597248Y13019895D01*
X48597244Y13019894D01*
X48493185Y12980470D01*
X48342681Y12923449D01*
X48101572Y12789525D01*
X48098716Y12787345D01*
X48098714Y12787344D01*
X48030085Y12734968D01*
X47882322Y12622198D01*
X47689523Y12424974D01*
X47687414Y12422077D01*
X47687411Y12422073D01*
X47576236Y12269335D01*
X47527213Y12201984D01*
X47525549Y12198821D01*
X47525547Y12198818D01*
X47441685Y12039421D01*
X47398794Y11957899D01*
X47306955Y11697832D01*
X47306261Y11694311D01*
X47305276Y11689311D01*
X47253620Y11427232D01*
X47239906Y11151767D01*
X31745789Y11151767D01*
X31750094Y11238233D01*
X31749754Y11241795D01*
X31749754Y11241802D01*
X31724239Y11509221D01*
X31724238Y11509225D01*
X31723898Y11512792D01*
X31658343Y11780694D01*
X31554801Y12036326D01*
X31415442Y12274335D01*
X31243184Y12489732D01*
X31049611Y12670558D01*
X31044259Y12675558D01*
X31044257Y12675560D01*
X31041636Y12678008D01*
X30825173Y12828173D01*
X30817966Y12833173D01*
X30815021Y12835216D01*
X30811816Y12836811D01*
X30811810Y12836814D01*
X30571301Y12956466D01*
X30571296Y12956468D01*
X30568086Y12958065D01*
X30564675Y12959183D01*
X30564673Y12959184D01*
X30309407Y13042864D01*
X30309404Y13042865D01*
X30306002Y13043980D01*
X30034262Y13091162D01*
X29983840Y13093672D01*
X29948356Y13095439D01*
X29948343Y13095439D01*
X29947124Y13095500D01*
X29774930Y13095500D01*
X29569917Y13080625D01*
X29566406Y13079850D01*
X29566407Y13079850D01*
X29304096Y13021937D01*
X29304090Y13021935D01*
X29300597Y13021164D01*
X29297248Y13019895D01*
X29297244Y13019894D01*
X29193185Y12980470D01*
X29042681Y12923449D01*
X28801572Y12789525D01*
X28798716Y12787345D01*
X28798714Y12787344D01*
X28730085Y12734968D01*
X28582322Y12622198D01*
X28389523Y12424974D01*
X28387414Y12422077D01*
X28387411Y12422073D01*
X28276236Y12269335D01*
X28227213Y12201984D01*
X28225549Y12198821D01*
X28225547Y12198818D01*
X28141685Y12039421D01*
X28098794Y11957899D01*
X28006955Y11697832D01*
X28006261Y11694311D01*
X28005276Y11689311D01*
X27953620Y11427232D01*
X27939906Y11151767D01*
X12445789Y11151767D01*
X12450094Y11238233D01*
X12449754Y11241795D01*
X12449754Y11241802D01*
X12424239Y11509221D01*
X12424238Y11509225D01*
X12423898Y11512792D01*
X12358343Y11780694D01*
X12254801Y12036326D01*
X12115442Y12274335D01*
X11943184Y12489732D01*
X11749611Y12670558D01*
X11744259Y12675558D01*
X11744257Y12675560D01*
X11741636Y12678008D01*
X11525173Y12828173D01*
X11517966Y12833173D01*
X11515021Y12835216D01*
X11511816Y12836811D01*
X11511810Y12836814D01*
X11271301Y12956466D01*
X11271296Y12956468D01*
X11268086Y12958065D01*
X11264675Y12959183D01*
X11264673Y12959184D01*
X11009407Y13042864D01*
X11009404Y13042865D01*
X11006002Y13043980D01*
X10734262Y13091162D01*
X10683840Y13093672D01*
X10648356Y13095439D01*
X10648343Y13095439D01*
X10647124Y13095500D01*
X10474930Y13095500D01*
X10269917Y13080625D01*
X10266406Y13079850D01*
X10266407Y13079850D01*
X10004096Y13021937D01*
X10004090Y13021935D01*
X10000597Y13021164D01*
X9997248Y13019895D01*
X9997244Y13019894D01*
X9893185Y12980470D01*
X9742681Y12923449D01*
X9501572Y12789525D01*
X9498716Y12787345D01*
X9498714Y12787344D01*
X9430085Y12734968D01*
X9282322Y12622198D01*
X9089523Y12424974D01*
X9087414Y12422077D01*
X9087411Y12422073D01*
X8976236Y12269335D01*
X8927213Y12201984D01*
X8925549Y12198821D01*
X8925547Y12198818D01*
X8841685Y12039421D01*
X8798794Y11957899D01*
X8706955Y11697832D01*
X8706261Y11694311D01*
X8705276Y11689311D01*
X8653620Y11427232D01*
X8639906Y11151767D01*
X500500Y11151767D01*
X500500Y23649228D01*
X73650500Y23649228D01*
X73661364Y23559453D01*
X73716887Y23419217D01*
X73720967Y23413842D01*
X73720968Y23413840D01*
X73803995Y23304457D01*
X73808078Y23299078D01*
X73813457Y23294995D01*
X73922840Y23211968D01*
X73922842Y23211967D01*
X73928217Y23207887D01*
X74068453Y23152364D01*
X74158228Y23141500D01*
X75193772Y23141500D01*
X75283547Y23152364D01*
X75423783Y23207887D01*
X75429158Y23211967D01*
X75429160Y23211968D01*
X75538543Y23294995D01*
X75543922Y23299078D01*
X75548005Y23304457D01*
X75631032Y23413840D01*
X75631033Y23413842D01*
X75635113Y23419217D01*
X75690636Y23559453D01*
X75694622Y23592394D01*
X75720383Y23647891D01*
X75773844Y23677648D01*
X75792905Y23679500D01*
X77506506Y23679500D01*
X77564697Y23660593D01*
X77595750Y23623354D01*
X77609555Y23594605D01*
X77614578Y23589172D01*
X77614578Y23589171D01*
X77633458Y23568747D01*
X77699469Y23497337D01*
X77814009Y23430807D01*
X77821218Y23429136D01*
X77935837Y23402568D01*
X77935840Y23402568D01*
X77943048Y23400897D01*
X77989816Y23404209D01*
X78067798Y23409730D01*
X78067801Y23409731D01*
X78075178Y23410253D01*
X78084450Y23413840D01*
X78191812Y23455375D01*
X78191814Y23455376D01*
X78198715Y23458046D01*
X78255451Y23502773D01*
X78296925Y23535468D01*
X78296926Y23535470D01*
X78302738Y23540051D01*
X78320512Y23565767D01*
X78373841Y23642928D01*
X78378050Y23649018D01*
X78384204Y23668477D01*
X78419779Y23718258D01*
X78477820Y23737621D01*
X78536157Y23719171D01*
X78567839Y23681479D01*
X78577868Y23660593D01*
X78606351Y23601276D01*
X78606353Y23601273D01*
X78609555Y23594605D01*
X78614578Y23589172D01*
X78614578Y23589171D01*
X78633458Y23568747D01*
X78699469Y23497337D01*
X78814009Y23430807D01*
X78821218Y23429136D01*
X78935837Y23402568D01*
X78935840Y23402568D01*
X78943048Y23400897D01*
X78989816Y23404209D01*
X79067798Y23409730D01*
X79067801Y23409731D01*
X79075178Y23410253D01*
X79084450Y23413840D01*
X79195433Y23456776D01*
X79256526Y23460138D01*
X79280875Y23450053D01*
X79314009Y23430807D01*
X79321215Y23429137D01*
X79321217Y23429136D01*
X79435837Y23402568D01*
X79435840Y23402568D01*
X79443048Y23400897D01*
X79489816Y23404209D01*
X79567798Y23409730D01*
X79567801Y23409731D01*
X79575178Y23410253D01*
X79584450Y23413840D01*
X79695433Y23456776D01*
X79756526Y23460138D01*
X79780875Y23450053D01*
X79814009Y23430807D01*
X79821215Y23429137D01*
X79821217Y23429136D01*
X79935837Y23402568D01*
X79935840Y23402568D01*
X79943048Y23400897D01*
X79989816Y23404209D01*
X80067798Y23409730D01*
X80067801Y23409731D01*
X80075178Y23410253D01*
X80084450Y23413840D01*
X80191812Y23455375D01*
X80191814Y23455376D01*
X80198715Y23458046D01*
X80255451Y23502773D01*
X80296925Y23535468D01*
X80296926Y23535470D01*
X80302738Y23540051D01*
X80303242Y23540781D01*
X80354114Y23568747D01*
X80372663Y23570500D01*
X89112992Y23570500D01*
X89113922Y23570537D01*
X89113946Y23570537D01*
X89127760Y23571080D01*
X89136964Y23571442D01*
X89152451Y23572661D01*
X89179948Y23580416D01*
X89262491Y23603695D01*
X89262495Y23603696D01*
X89267170Y23605015D01*
X89321687Y23632792D01*
X89399017Y23688975D01*
X91486546Y25776504D01*
X91541063Y25804281D01*
X91556550Y25805500D01*
X91948646Y25805500D01*
X91965049Y25807452D01*
X91967469Y25807740D01*
X91967470Y25807740D01*
X91974846Y25808618D01*
X92077153Y25854061D01*
X92156241Y25933287D01*
X92201506Y26035673D01*
X92204500Y26061354D01*
X92204500Y29150646D01*
X92201382Y29176846D01*
X92155939Y29279153D01*
X92076713Y29358241D01*
X92047591Y29371116D01*
X91981136Y29400496D01*
X91981134Y29400496D01*
X91974327Y29403506D01*
X91960322Y29405139D01*
X91951494Y29406168D01*
X91951493Y29406168D01*
X91948646Y29406500D01*
X86359354Y29406500D01*
X86342951Y29404548D01*
X86340531Y29404260D01*
X86340530Y29404260D01*
X86333154Y29403382D01*
X86230847Y29357939D01*
X86217368Y29344436D01*
X86199029Y29329965D01*
X86195784Y29327976D01*
X86192313Y29326208D01*
X86114983Y29270025D01*
X81817454Y24972496D01*
X81762937Y24944719D01*
X81747450Y24943500D01*
X80027500Y24943500D01*
X79969309Y24962407D01*
X79933345Y25011907D01*
X79928500Y25042500D01*
X79928500Y26495944D01*
X79947407Y26554135D01*
X79954013Y26561870D01*
X79956922Y26564078D01*
X80048113Y26684217D01*
X80103636Y26824453D01*
X80114500Y26914228D01*
X80114500Y27949772D01*
X80103636Y28039547D01*
X80048113Y28179783D01*
X79956922Y28299922D01*
X79903644Y28340363D01*
X79868725Y28390606D01*
X79864500Y28419219D01*
X79864500Y28730781D01*
X79883407Y28788972D01*
X79903644Y28809637D01*
X79951543Y28845995D01*
X79956922Y28850078D01*
X80048113Y28970217D01*
X80103636Y29110453D01*
X80114500Y29200228D01*
X80114500Y30235772D01*
X80103636Y30325547D01*
X80048113Y30465783D01*
X79956922Y30585922D01*
X79903644Y30626363D01*
X79868725Y30676606D01*
X79864500Y30705219D01*
X79864500Y31016781D01*
X79883407Y31074972D01*
X79903644Y31095637D01*
X79951543Y31131995D01*
X79956922Y31136078D01*
X79990083Y31179766D01*
X80044032Y31250840D01*
X80044033Y31250842D01*
X80048113Y31256217D01*
X80103636Y31396453D01*
X80114500Y31486228D01*
X80114500Y32521772D01*
X80103636Y32611547D01*
X80048113Y32751783D01*
X79956922Y32871922D01*
X79903644Y32912363D01*
X79868725Y32962606D01*
X79864500Y32991219D01*
X79864500Y34038500D01*
X79883407Y34096691D01*
X79932907Y34132655D01*
X79963500Y34137500D01*
X82389646Y34137500D01*
X82406049Y34139452D01*
X82408469Y34139740D01*
X82408470Y34139740D01*
X82415846Y34140618D01*
X82518153Y34186061D01*
X82597241Y34265287D01*
X82642506Y34367673D01*
X82645500Y34393354D01*
X82645500Y36382646D01*
X82642382Y36408846D01*
X82596939Y36511153D01*
X82517713Y36590241D01*
X82488591Y36603116D01*
X82422136Y36632496D01*
X82422134Y36632496D01*
X82415327Y36635506D01*
X82401322Y36637139D01*
X82392494Y36638168D01*
X82392493Y36638168D01*
X82389646Y36638500D01*
X78900354Y36638500D01*
X78883951Y36636548D01*
X78881531Y36636260D01*
X78881530Y36636260D01*
X78874154Y36635382D01*
X78771847Y36589939D01*
X78692759Y36510713D01*
X78647494Y36408327D01*
X78644500Y36382646D01*
X78644500Y35701500D01*
X78625593Y35643309D01*
X78576093Y35607345D01*
X78545500Y35602500D01*
X78121605Y35602500D01*
X78063414Y35621407D01*
X78029557Y35665056D01*
X77988598Y35768507D01*
X77988597Y35768508D01*
X77986113Y35774783D01*
X77894922Y35894922D01*
X77889543Y35899005D01*
X77780160Y35982032D01*
X77780158Y35982033D01*
X77774783Y35986113D01*
X77634547Y36041636D01*
X77544772Y36052500D01*
X76934228Y36052500D01*
X76844453Y36041636D01*
X76704217Y35986113D01*
X76698842Y35982033D01*
X76698840Y35982032D01*
X76589457Y35899005D01*
X76584078Y35894922D01*
X76492887Y35774783D01*
X76437364Y35634547D01*
X76426500Y35544772D01*
X76426500Y34559228D01*
X76437364Y34469453D01*
X76492887Y34329217D01*
X76496967Y34323842D01*
X76496968Y34323840D01*
X76535408Y34273198D01*
X76584078Y34209078D01*
X76589457Y34204995D01*
X76698840Y34121968D01*
X76698842Y34121967D01*
X76704217Y34117887D01*
X76710492Y34115403D01*
X76710493Y34115402D01*
X76743407Y34102370D01*
X76844453Y34062364D01*
X76934228Y34051500D01*
X77544772Y34051500D01*
X77634547Y34062364D01*
X77735593Y34102370D01*
X77768507Y34115402D01*
X77768508Y34115403D01*
X77774783Y34117887D01*
X77780158Y34121967D01*
X77780160Y34121968D01*
X77889543Y34204995D01*
X77894922Y34209078D01*
X77943592Y34273198D01*
X77982032Y34323840D01*
X77982033Y34323842D01*
X77986113Y34329217D01*
X78010379Y34390506D01*
X78029557Y34438944D01*
X78068558Y34486088D01*
X78121605Y34501500D01*
X78545500Y34501500D01*
X78603691Y34482593D01*
X78639655Y34433093D01*
X78644500Y34402500D01*
X78644500Y34393354D01*
X78647618Y34367154D01*
X78693061Y34264847D01*
X78699527Y34258392D01*
X78699528Y34258391D01*
X78734443Y34223537D01*
X78762268Y34169045D01*
X78763500Y34153473D01*
X78763500Y32991219D01*
X78744593Y32933028D01*
X78724356Y32912363D01*
X78671078Y32871922D01*
X78579887Y32751783D01*
X78524364Y32611547D01*
X78513500Y32521772D01*
X78513500Y31486228D01*
X78524364Y31396453D01*
X78579887Y31256217D01*
X78583967Y31250842D01*
X78583968Y31250840D01*
X78637917Y31179766D01*
X78671078Y31136078D01*
X78676457Y31131995D01*
X78724356Y31095637D01*
X78759275Y31045394D01*
X78763500Y31016781D01*
X78763500Y30705219D01*
X78744593Y30647028D01*
X78724356Y30626363D01*
X78671078Y30585922D01*
X78579887Y30465783D01*
X78524364Y30325547D01*
X78513500Y30235772D01*
X78513500Y29200228D01*
X78524364Y29110453D01*
X78579887Y28970217D01*
X78671078Y28850078D01*
X78676457Y28845995D01*
X78724356Y28809637D01*
X78759275Y28759394D01*
X78763500Y28730781D01*
X78763500Y28419219D01*
X78744593Y28361028D01*
X78724356Y28340363D01*
X78671078Y28299922D01*
X78579887Y28179783D01*
X78524364Y28039547D01*
X78513500Y27949772D01*
X78513500Y27270611D01*
X78494593Y27212420D01*
X78445093Y27176456D01*
X78383907Y27176456D01*
X78344496Y27200607D01*
X78082996Y27462107D01*
X78055219Y27516624D01*
X78054000Y27532111D01*
X78054000Y28457772D01*
X78043136Y28547547D01*
X77987613Y28687783D01*
X77896422Y28807922D01*
X77846263Y28845995D01*
X77805644Y28876827D01*
X77770725Y28927069D01*
X77766500Y28955683D01*
X77766500Y29508293D01*
X77785407Y29566484D01*
X77805644Y29587149D01*
X77866043Y29632995D01*
X77871422Y29637078D01*
X77962613Y29757217D01*
X78018136Y29897453D01*
X78029000Y29987228D01*
X78029000Y30972772D01*
X78018136Y31062547D01*
X77962613Y31202783D01*
X77917291Y31262493D01*
X77875505Y31317543D01*
X77871422Y31322922D01*
X77805644Y31372851D01*
X77770725Y31423094D01*
X77766500Y31451707D01*
X77766500Y31776456D01*
X77785407Y31834647D01*
X77805645Y31855312D01*
X77889540Y31918992D01*
X77889543Y31918995D01*
X77894922Y31923078D01*
X77986113Y32043217D01*
X78041636Y32183453D01*
X78052500Y32273228D01*
X78052500Y33258772D01*
X78041636Y33348547D01*
X77986113Y33488783D01*
X77894922Y33608922D01*
X77889543Y33613005D01*
X77780160Y33696032D01*
X77780158Y33696033D01*
X77774783Y33700113D01*
X77752100Y33709094D01*
X77735593Y33715630D01*
X77634547Y33755636D01*
X77544772Y33766500D01*
X76934228Y33766500D01*
X76844453Y33755636D01*
X76743407Y33715630D01*
X76726901Y33709094D01*
X76704217Y33700113D01*
X76698842Y33696033D01*
X76698840Y33696032D01*
X76589457Y33613005D01*
X76584078Y33608922D01*
X76492887Y33488783D01*
X76437364Y33348547D01*
X76426500Y33258772D01*
X76426500Y32273228D01*
X76437364Y32183453D01*
X76492887Y32043217D01*
X76584078Y31923078D01*
X76589457Y31918995D01*
X76626356Y31890987D01*
X76661275Y31840745D01*
X76665500Y31812131D01*
X76665500Y31451707D01*
X76646593Y31393516D01*
X76626356Y31372851D01*
X76560578Y31322922D01*
X76556495Y31317543D01*
X76514710Y31262493D01*
X76469387Y31202783D01*
X76468302Y31200041D01*
X76424493Y31159756D01*
X76363714Y31152723D01*
X76313276Y31179766D01*
X76064017Y31429025D01*
X76063311Y31429678D01*
X76063295Y31429693D01*
X76047119Y31444645D01*
X76046399Y31445311D01*
X76034586Y31455400D01*
X75985448Y31482918D01*
X75934831Y31511264D01*
X75934829Y31511265D01*
X75930586Y31513641D01*
X75872395Y31532548D01*
X75799970Y31544019D01*
X75781838Y31546891D01*
X75781836Y31546891D01*
X75777992Y31547500D01*
X74971008Y31547500D01*
X74970078Y31547463D01*
X74970054Y31547463D01*
X74956240Y31546920D01*
X74947036Y31546558D01*
X74931549Y31545339D01*
X74926868Y31544019D01*
X74926869Y31544019D01*
X74821509Y31514305D01*
X74821505Y31514304D01*
X74816830Y31512985D01*
X74762313Y31485208D01*
X74684983Y31429025D01*
X74361975Y31106017D01*
X74361322Y31105311D01*
X74361307Y31105295D01*
X74352725Y31096010D01*
X74345689Y31088399D01*
X74335600Y31076586D01*
X74333223Y31072341D01*
X74333222Y31072340D01*
X74302109Y31016781D01*
X74277359Y30972586D01*
X74258452Y30914395D01*
X74243500Y30819992D01*
X74243500Y27472550D01*
X74224593Y27414359D01*
X74214504Y27402546D01*
X73853975Y27042017D01*
X73853322Y27041311D01*
X73853307Y27041295D01*
X73844725Y27032010D01*
X73837689Y27024399D01*
X73827600Y27012586D01*
X73825223Y27008341D01*
X73825222Y27008340D01*
X73772519Y26914228D01*
X73769359Y26908586D01*
X73750452Y26850395D01*
X73735500Y26755992D01*
X73735500Y26421923D01*
X73722751Y26373325D01*
X73720966Y26370157D01*
X73716887Y26364783D01*
X73661364Y26224547D01*
X73650500Y26134772D01*
X73650500Y25549228D01*
X73661364Y25459453D01*
X73716887Y25319217D01*
X73720966Y25313843D01*
X73722751Y25310675D01*
X73735500Y25262077D01*
X73735500Y24991000D01*
X73739261Y24943214D01*
X73744106Y24912621D01*
X73750513Y24882246D01*
X73798691Y24780838D01*
X73833087Y24733496D01*
X73834655Y24731338D01*
X73834105Y24730938D01*
X73855676Y24676752D01*
X73840570Y24617461D01*
X73816742Y24591499D01*
X73813457Y24589005D01*
X73808078Y24584922D01*
X73716887Y24464783D01*
X73661364Y24324547D01*
X73650500Y24234772D01*
X73650500Y23649228D01*
X500500Y23649228D01*
X500500Y26136643D01*
X1250500Y26136643D01*
X7131500Y26136643D01*
X7131500Y32273228D01*
X74601500Y32273228D01*
X74612364Y32183453D01*
X74667887Y32043217D01*
X74759078Y31923078D01*
X74764457Y31918995D01*
X74873840Y31835968D01*
X74873842Y31835967D01*
X74879217Y31831887D01*
X74885492Y31829403D01*
X74885493Y31829402D01*
X74918407Y31816370D01*
X75019453Y31776364D01*
X75109228Y31765500D01*
X75719772Y31765500D01*
X75809547Y31776364D01*
X75910593Y31816370D01*
X75943507Y31829402D01*
X75943508Y31829403D01*
X75949783Y31831887D01*
X75955158Y31835967D01*
X75955160Y31835968D01*
X76064543Y31918995D01*
X76069922Y31923078D01*
X76161113Y32043217D01*
X76216636Y32183453D01*
X76227500Y32273228D01*
X76227500Y33258772D01*
X76216636Y33348547D01*
X76161113Y33488783D01*
X76069922Y33608922D01*
X76004144Y33658851D01*
X75969225Y33709094D01*
X75965000Y33737707D01*
X75965000Y34080293D01*
X75983907Y34138484D01*
X76004144Y34159149D01*
X76064543Y34204995D01*
X76069922Y34209078D01*
X76118592Y34273198D01*
X76157032Y34323840D01*
X76157033Y34323842D01*
X76161113Y34329217D01*
X76216636Y34469453D01*
X76227500Y34559228D01*
X76227500Y35544772D01*
X76216636Y35634547D01*
X76161113Y35774783D01*
X76069922Y35894922D01*
X76064543Y35899005D01*
X75955160Y35982032D01*
X75955158Y35982033D01*
X75949783Y35986113D01*
X75809547Y36041636D01*
X75719772Y36052500D01*
X75109228Y36052500D01*
X75019453Y36041636D01*
X74879217Y35986113D01*
X74873842Y35982033D01*
X74873840Y35982032D01*
X74764457Y35899005D01*
X74759078Y35894922D01*
X74667887Y35774783D01*
X74612364Y35634547D01*
X74601500Y35544772D01*
X74601500Y34559228D01*
X74612364Y34469453D01*
X74667887Y34329217D01*
X74671967Y34323842D01*
X74671968Y34323840D01*
X74710408Y34273198D01*
X74759078Y34209078D01*
X74764457Y34204995D01*
X74824856Y34159149D01*
X74859775Y34108906D01*
X74864000Y34080293D01*
X74864000Y33737707D01*
X74845093Y33679516D01*
X74824856Y33658851D01*
X74759078Y33608922D01*
X74667887Y33488783D01*
X74612364Y33348547D01*
X74601500Y33258772D01*
X74601500Y32273228D01*
X7131500Y32273228D01*
X7131500Y34823357D01*
X1250500Y34823357D01*
X1250500Y26136643D01*
X500500Y26136643D01*
X500500Y66761767D01*
X8639906Y66761767D01*
X8640246Y66758205D01*
X8640246Y66758198D01*
X8658274Y66569252D01*
X8666102Y66487208D01*
X8731657Y66219306D01*
X8835199Y65963674D01*
X8974558Y65725665D01*
X9146816Y65510268D01*
X9149439Y65507818D01*
X9345201Y65324947D01*
X9348364Y65321992D01*
X9351312Y65319947D01*
X9567772Y65169784D01*
X9574979Y65164784D01*
X9578184Y65163189D01*
X9578190Y65163186D01*
X9818699Y65043534D01*
X9818704Y65043532D01*
X9821914Y65041935D01*
X9825325Y65040817D01*
X9825327Y65040816D01*
X10080593Y64957136D01*
X10080596Y64957135D01*
X10083998Y64956020D01*
X10355738Y64908838D01*
X10406160Y64906328D01*
X10441644Y64904561D01*
X10441657Y64904561D01*
X10442876Y64904500D01*
X10615070Y64904500D01*
X10820083Y64919375D01*
X10850490Y64926088D01*
X11085904Y64978063D01*
X11085910Y64978065D01*
X11089403Y64978836D01*
X11092752Y64980105D01*
X11092756Y64980106D01*
X11255951Y65041935D01*
X11347319Y65076551D01*
X11588428Y65210475D01*
X11597838Y65217656D01*
X11731870Y65319947D01*
X11807678Y65377802D01*
X12000477Y65575026D01*
X12004117Y65580026D01*
X12160682Y65795124D01*
X12162787Y65798016D01*
X12167084Y65806182D01*
X12289536Y66038927D01*
X12291206Y66042101D01*
X12383045Y66302168D01*
X12384031Y66307168D01*
X12435687Y66569252D01*
X12436380Y66572768D01*
X12445789Y66761767D01*
X27939906Y66761767D01*
X27940246Y66758205D01*
X27940246Y66758198D01*
X27958274Y66569252D01*
X27966102Y66487208D01*
X28031657Y66219306D01*
X28135199Y65963674D01*
X28274558Y65725665D01*
X28446816Y65510268D01*
X28449439Y65507818D01*
X28645201Y65324947D01*
X28648364Y65321992D01*
X28651312Y65319947D01*
X28867772Y65169784D01*
X28874979Y65164784D01*
X28878184Y65163189D01*
X28878190Y65163186D01*
X29118699Y65043534D01*
X29118704Y65043532D01*
X29121914Y65041935D01*
X29125325Y65040817D01*
X29125327Y65040816D01*
X29380593Y64957136D01*
X29380596Y64957135D01*
X29383998Y64956020D01*
X29655738Y64908838D01*
X29706160Y64906328D01*
X29741644Y64904561D01*
X29741657Y64904561D01*
X29742876Y64904500D01*
X29915070Y64904500D01*
X30120083Y64919375D01*
X30150490Y64926088D01*
X30385904Y64978063D01*
X30385910Y64978065D01*
X30389403Y64978836D01*
X30392752Y64980105D01*
X30392756Y64980106D01*
X30555951Y65041935D01*
X30647319Y65076551D01*
X30888428Y65210475D01*
X30897838Y65217656D01*
X31031870Y65319947D01*
X31107678Y65377802D01*
X31300477Y65575026D01*
X31304117Y65580026D01*
X31460682Y65795124D01*
X31462787Y65798016D01*
X31467084Y65806182D01*
X31589536Y66038927D01*
X31591206Y66042101D01*
X31683045Y66302168D01*
X31684031Y66307168D01*
X31735687Y66569252D01*
X31736380Y66572768D01*
X31745789Y66761767D01*
X47239906Y66761767D01*
X47240246Y66758205D01*
X47240246Y66758198D01*
X47258274Y66569252D01*
X47266102Y66487208D01*
X47331657Y66219306D01*
X47435199Y65963674D01*
X47574558Y65725665D01*
X47746816Y65510268D01*
X47749439Y65507818D01*
X47945201Y65324947D01*
X47948364Y65321992D01*
X47951312Y65319947D01*
X48167772Y65169784D01*
X48174979Y65164784D01*
X48178184Y65163189D01*
X48178190Y65163186D01*
X48418699Y65043534D01*
X48418704Y65043532D01*
X48421914Y65041935D01*
X48425325Y65040817D01*
X48425327Y65040816D01*
X48680593Y64957136D01*
X48680596Y64957135D01*
X48683998Y64956020D01*
X48955738Y64908838D01*
X49006160Y64906328D01*
X49041644Y64904561D01*
X49041657Y64904561D01*
X49042876Y64904500D01*
X49215070Y64904500D01*
X49420083Y64919375D01*
X49450490Y64926088D01*
X49685904Y64978063D01*
X49685910Y64978065D01*
X49689403Y64978836D01*
X49692752Y64980105D01*
X49692756Y64980106D01*
X49855951Y65041935D01*
X49947319Y65076551D01*
X50188428Y65210475D01*
X50197838Y65217656D01*
X50331870Y65319947D01*
X50407678Y65377802D01*
X50600477Y65575026D01*
X50604117Y65580026D01*
X50760682Y65795124D01*
X50762787Y65798016D01*
X50767084Y65806182D01*
X50889536Y66038927D01*
X50891206Y66042101D01*
X50983045Y66302168D01*
X50984031Y66307168D01*
X51035687Y66569252D01*
X51036380Y66572768D01*
X51046038Y66766767D01*
X68394906Y66766767D01*
X68395246Y66763205D01*
X68395246Y66763198D01*
X68413751Y66569252D01*
X68421102Y66492208D01*
X68486657Y66224306D01*
X68590199Y65968674D01*
X68592010Y65965581D01*
X68592011Y65965579D01*
X68594939Y65960579D01*
X68729558Y65730665D01*
X68901816Y65515268D01*
X69103364Y65326992D01*
X69329979Y65169784D01*
X69333184Y65168189D01*
X69333190Y65168186D01*
X69573699Y65048534D01*
X69573704Y65048532D01*
X69576914Y65046935D01*
X69580325Y65045817D01*
X69580327Y65045816D01*
X69835593Y64962136D01*
X69835596Y64962135D01*
X69838998Y64961020D01*
X70110738Y64913838D01*
X70161160Y64911328D01*
X70196644Y64909561D01*
X70196657Y64909561D01*
X70197876Y64909500D01*
X70370070Y64909500D01*
X70575083Y64924375D01*
X70605490Y64931088D01*
X70840904Y64983063D01*
X70840910Y64983065D01*
X70844403Y64983836D01*
X70847752Y64985105D01*
X70847756Y64985106D01*
X70994800Y65040816D01*
X71102319Y65081551D01*
X71331283Y65208729D01*
X71340285Y65213729D01*
X71340287Y65213730D01*
X71343428Y65215475D01*
X71562678Y65382802D01*
X71755477Y65580026D01*
X71859445Y65722862D01*
X71915682Y65800124D01*
X71917787Y65803016D01*
X72046206Y66047101D01*
X72138045Y66307168D01*
X72191380Y66577768D01*
X72200789Y66766767D01*
X87694906Y66766767D01*
X87695246Y66763205D01*
X87695246Y66763198D01*
X87713751Y66569252D01*
X87721102Y66492208D01*
X87786657Y66224306D01*
X87890199Y65968674D01*
X87892010Y65965581D01*
X87892011Y65965579D01*
X87894939Y65960579D01*
X88029558Y65730665D01*
X88201816Y65515268D01*
X88403364Y65326992D01*
X88629979Y65169784D01*
X88633184Y65168189D01*
X88633190Y65168186D01*
X88873699Y65048534D01*
X88873704Y65048532D01*
X88876914Y65046935D01*
X88880325Y65045817D01*
X88880327Y65045816D01*
X89135593Y64962136D01*
X89135596Y64962135D01*
X89138998Y64961020D01*
X89410738Y64913838D01*
X89461160Y64911328D01*
X89496644Y64909561D01*
X89496657Y64909561D01*
X89497876Y64909500D01*
X89670070Y64909500D01*
X89875083Y64924375D01*
X89905490Y64931088D01*
X90140904Y64983063D01*
X90140910Y64983065D01*
X90144403Y64983836D01*
X90147752Y64985105D01*
X90147756Y64985106D01*
X90294800Y65040816D01*
X90402319Y65081551D01*
X90631283Y65208729D01*
X90640285Y65213729D01*
X90640287Y65213730D01*
X90643428Y65215475D01*
X90862678Y65382802D01*
X91055477Y65580026D01*
X91159445Y65722862D01*
X91215682Y65800124D01*
X91217787Y65803016D01*
X91346206Y66047101D01*
X91438045Y66307168D01*
X91491380Y66577768D01*
X91505094Y66853233D01*
X91504754Y66856795D01*
X91504754Y66856802D01*
X91479239Y67124221D01*
X91479238Y67124225D01*
X91478898Y67127792D01*
X91413343Y67395694D01*
X91309801Y67651326D01*
X91170442Y67889335D01*
X90998184Y68104732D01*
X90804611Y68285558D01*
X90799259Y68290558D01*
X90799257Y68290560D01*
X90796636Y68293008D01*
X90580173Y68443173D01*
X90572966Y68448173D01*
X90570021Y68450216D01*
X90566816Y68451811D01*
X90566810Y68451814D01*
X90326301Y68571466D01*
X90326296Y68571468D01*
X90323086Y68573065D01*
X90319675Y68574183D01*
X90319673Y68574184D01*
X90064407Y68657864D01*
X90064404Y68657865D01*
X90061002Y68658980D01*
X89789262Y68706162D01*
X89738840Y68708672D01*
X89703356Y68710439D01*
X89703343Y68710439D01*
X89702124Y68710500D01*
X89529930Y68710500D01*
X89324917Y68695625D01*
X89321406Y68694850D01*
X89321407Y68694850D01*
X89059096Y68636937D01*
X89059090Y68636935D01*
X89055597Y68636164D01*
X89052248Y68634895D01*
X89052244Y68634894D01*
X88948185Y68595470D01*
X88797681Y68538449D01*
X88556572Y68404525D01*
X88553716Y68402345D01*
X88553714Y68402344D01*
X88485085Y68349968D01*
X88337322Y68237198D01*
X88144523Y68039974D01*
X88142414Y68037077D01*
X88142411Y68037073D01*
X88031236Y67884335D01*
X87982213Y67816984D01*
X87980549Y67813821D01*
X87980547Y67813818D01*
X87896685Y67654421D01*
X87853794Y67572899D01*
X87761955Y67312832D01*
X87761261Y67309311D01*
X87760276Y67304311D01*
X87708620Y67042232D01*
X87694906Y66766767D01*
X72200789Y66766767D01*
X72205094Y66853233D01*
X72204754Y66856795D01*
X72204754Y66856802D01*
X72179239Y67124221D01*
X72179238Y67124225D01*
X72178898Y67127792D01*
X72113343Y67395694D01*
X72009801Y67651326D01*
X71870442Y67889335D01*
X71698184Y68104732D01*
X71504611Y68285558D01*
X71499259Y68290558D01*
X71499257Y68290560D01*
X71496636Y68293008D01*
X71280173Y68443173D01*
X71272966Y68448173D01*
X71270021Y68450216D01*
X71266816Y68451811D01*
X71266810Y68451814D01*
X71026301Y68571466D01*
X71026296Y68571468D01*
X71023086Y68573065D01*
X71019675Y68574183D01*
X71019673Y68574184D01*
X70764407Y68657864D01*
X70764404Y68657865D01*
X70761002Y68658980D01*
X70489262Y68706162D01*
X70438840Y68708672D01*
X70403356Y68710439D01*
X70403343Y68710439D01*
X70402124Y68710500D01*
X70229930Y68710500D01*
X70024917Y68695625D01*
X70021406Y68694850D01*
X70021407Y68694850D01*
X69759096Y68636937D01*
X69759090Y68636935D01*
X69755597Y68636164D01*
X69752248Y68634895D01*
X69752244Y68634894D01*
X69648185Y68595470D01*
X69497681Y68538449D01*
X69256572Y68404525D01*
X69253716Y68402345D01*
X69253714Y68402344D01*
X69185085Y68349968D01*
X69037322Y68237198D01*
X68844523Y68039974D01*
X68842414Y68037077D01*
X68842411Y68037073D01*
X68731236Y67884335D01*
X68682213Y67816984D01*
X68680549Y67813821D01*
X68680547Y67813818D01*
X68596685Y67654421D01*
X68553794Y67572899D01*
X68461955Y67312832D01*
X68461261Y67309311D01*
X68460276Y67304311D01*
X68408620Y67042232D01*
X68394906Y66766767D01*
X51046038Y66766767D01*
X51050094Y66848233D01*
X51049754Y66851795D01*
X51049754Y66851802D01*
X51024239Y67119221D01*
X51024238Y67119225D01*
X51023898Y67122792D01*
X50958343Y67390694D01*
X50854801Y67646326D01*
X50851874Y67651326D01*
X50717253Y67881242D01*
X50715442Y67884335D01*
X50543184Y68099732D01*
X50341636Y68288008D01*
X50115021Y68445216D01*
X50111816Y68446811D01*
X50111810Y68446814D01*
X49871301Y68566466D01*
X49871296Y68566468D01*
X49868086Y68568065D01*
X49864675Y68569183D01*
X49864673Y68569184D01*
X49609407Y68652864D01*
X49609404Y68652865D01*
X49606002Y68653980D01*
X49334262Y68701162D01*
X49283840Y68703672D01*
X49248356Y68705439D01*
X49248343Y68705439D01*
X49247124Y68705500D01*
X49074930Y68705500D01*
X48869917Y68690625D01*
X48866406Y68689850D01*
X48866407Y68689850D01*
X48604096Y68631937D01*
X48604090Y68631935D01*
X48600597Y68631164D01*
X48597248Y68629895D01*
X48597244Y68629894D01*
X48493185Y68590470D01*
X48342681Y68533449D01*
X48195710Y68451814D01*
X48110574Y68404525D01*
X48101572Y68399525D01*
X47882322Y68232198D01*
X47689523Y68034974D01*
X47687414Y68032077D01*
X47687411Y68032073D01*
X47532957Y67819876D01*
X47527213Y67811984D01*
X47398794Y67567899D01*
X47306955Y67307832D01*
X47253620Y67037232D01*
X47239906Y66761767D01*
X31745789Y66761767D01*
X31750094Y66848233D01*
X31749754Y66851795D01*
X31749754Y66851802D01*
X31724239Y67119221D01*
X31724238Y67119225D01*
X31723898Y67122792D01*
X31658343Y67390694D01*
X31554801Y67646326D01*
X31551874Y67651326D01*
X31417253Y67881242D01*
X31415442Y67884335D01*
X31243184Y68099732D01*
X31041636Y68288008D01*
X30815021Y68445216D01*
X30811816Y68446811D01*
X30811810Y68446814D01*
X30571301Y68566466D01*
X30571296Y68566468D01*
X30568086Y68568065D01*
X30564675Y68569183D01*
X30564673Y68569184D01*
X30309407Y68652864D01*
X30309404Y68652865D01*
X30306002Y68653980D01*
X30034262Y68701162D01*
X29983840Y68703672D01*
X29948356Y68705439D01*
X29948343Y68705439D01*
X29947124Y68705500D01*
X29774930Y68705500D01*
X29569917Y68690625D01*
X29566406Y68689850D01*
X29566407Y68689850D01*
X29304096Y68631937D01*
X29304090Y68631935D01*
X29300597Y68631164D01*
X29297248Y68629895D01*
X29297244Y68629894D01*
X29193185Y68590470D01*
X29042681Y68533449D01*
X28895710Y68451814D01*
X28810574Y68404525D01*
X28801572Y68399525D01*
X28582322Y68232198D01*
X28389523Y68034974D01*
X28387414Y68032077D01*
X28387411Y68032073D01*
X28232957Y67819876D01*
X28227213Y67811984D01*
X28098794Y67567899D01*
X28006955Y67307832D01*
X27953620Y67037232D01*
X27939906Y66761767D01*
X12445789Y66761767D01*
X12450094Y66848233D01*
X12449754Y66851795D01*
X12449754Y66851802D01*
X12424239Y67119221D01*
X12424238Y67119225D01*
X12423898Y67122792D01*
X12358343Y67390694D01*
X12254801Y67646326D01*
X12251874Y67651326D01*
X12117253Y67881242D01*
X12115442Y67884335D01*
X11943184Y68099732D01*
X11741636Y68288008D01*
X11515021Y68445216D01*
X11511816Y68446811D01*
X11511810Y68446814D01*
X11271301Y68566466D01*
X11271296Y68566468D01*
X11268086Y68568065D01*
X11264675Y68569183D01*
X11264673Y68569184D01*
X11009407Y68652864D01*
X11009404Y68652865D01*
X11006002Y68653980D01*
X10734262Y68701162D01*
X10683840Y68703672D01*
X10648356Y68705439D01*
X10648343Y68705439D01*
X10647124Y68705500D01*
X10474930Y68705500D01*
X10269917Y68690625D01*
X10266406Y68689850D01*
X10266407Y68689850D01*
X10004096Y68631937D01*
X10004090Y68631935D01*
X10000597Y68631164D01*
X9997248Y68629895D01*
X9997244Y68629894D01*
X9893185Y68590470D01*
X9742681Y68533449D01*
X9595710Y68451814D01*
X9510574Y68404525D01*
X9501572Y68399525D01*
X9282322Y68232198D01*
X9089523Y68034974D01*
X9087414Y68032077D01*
X9087411Y68032073D01*
X8932957Y67819876D01*
X8927213Y67811984D01*
X8798794Y67567899D01*
X8706955Y67307832D01*
X8653620Y67037232D01*
X8639906Y66761767D01*
X500500Y66761767D01*
X500500Y77400500D01*
X519407Y77458691D01*
X568907Y77494655D01*
X599500Y77499500D01*
X8174695Y77499500D01*
X8232886Y77480593D01*
G37*
%TD.AperFunction*%
%TD*%
%TA.AperFunction,Conductor*%
%TO.N,VDD*%
G36*
X85049191Y45193093D02*
G01*
X85085155Y45143593D01*
X85090000Y45113000D01*
X85090000Y38580000D01*
X85071093Y38521809D01*
X85021593Y38485845D01*
X84991000Y38481000D01*
X76807000Y38481000D01*
X76748809Y38499907D01*
X76712845Y38549407D01*
X76708000Y38580000D01*
X76708000Y45113000D01*
X76726907Y45171191D01*
X76776407Y45207155D01*
X76807000Y45212000D01*
X84991000Y45212000D01*
X85049191Y45193093D01*
G37*
%TD.AperFunction*%
%TD*%
%TA.AperFunction,Conductor*%
%TO.N,Net-(C1-Pad2)*%
G36*
X95700121Y8742998D02*
G01*
X95746614Y8689342D01*
X95758000Y8637000D01*
X95758000Y6984000D01*
X95737998Y6915879D01*
X95684342Y6869386D01*
X95632000Y6858000D01*
X93980000Y6858000D01*
X93599000Y6556375D01*
X93599000Y6034844D01*
X93578998Y5966723D01*
X93564753Y5948488D01*
X93382312Y5754644D01*
X93321059Y5718747D01*
X93290559Y5715000D01*
X15620000Y5715000D01*
X15551879Y5735002D01*
X15505386Y5788658D01*
X15494000Y5841000D01*
X15494000Y7748000D01*
X15514002Y7816121D01*
X15567658Y7862614D01*
X15620000Y7874000D01*
X92837000Y7874000D01*
X92852884Y7885119D01*
X92852885Y7885119D01*
X94074461Y8740223D01*
X94146717Y8763000D01*
X95632000Y8763000D01*
X95700121Y8742998D01*
G37*
%TD.AperFunction*%
%TD*%
%TA.AperFunction,Conductor*%
%TO.N,GND1*%
G36*
X75836183Y31223093D02*
G01*
X75847996Y31213004D01*
X76171004Y30889996D01*
X76198781Y30835479D01*
X76200000Y30819992D01*
X76200000Y27051000D01*
X76210940Y27045671D01*
X76210941Y27045670D01*
X78010356Y26169106D01*
X78054389Y26126625D01*
X78066000Y26080105D01*
X78066000Y25672224D01*
X78056615Y25630151D01*
X78030754Y25575068D01*
X78010901Y25447560D01*
X78027633Y25319606D01*
X78030471Y25313155D01*
X78030472Y25313153D01*
X78057616Y25251464D01*
X78066000Y25211592D01*
X78066000Y24991000D01*
X78047093Y24932809D01*
X77997593Y24896845D01*
X77967000Y24892000D01*
X74140000Y24892000D01*
X74081809Y24910907D01*
X74045845Y24960407D01*
X74041000Y24991000D01*
X74041000Y26755992D01*
X74059907Y26814183D01*
X74069996Y26825996D01*
X74549000Y27305000D01*
X74549000Y30819992D01*
X74567907Y30878183D01*
X74577996Y30889996D01*
X74901004Y31213004D01*
X74955521Y31240781D01*
X74971008Y31242000D01*
X75777992Y31242000D01*
X75836183Y31223093D01*
G37*
%TD.AperFunction*%
%TD*%
%TA.AperFunction,Conductor*%
%TO.N,Net-(L1-Pad2)*%
G36*
X91526191Y29064093D02*
G01*
X91562155Y29014593D01*
X91567000Y28984000D01*
X91567000Y26330008D01*
X91548093Y26271817D01*
X91538004Y26260004D01*
X89182996Y23904996D01*
X89128479Y23877219D01*
X89112992Y23876000D01*
X79982000Y23876000D01*
X79923809Y23894907D01*
X79887845Y23944407D01*
X79883000Y23975000D01*
X79883000Y24539000D01*
X79901907Y24597191D01*
X79951407Y24633155D01*
X79982000Y24638000D01*
X81915000Y24638000D01*
X86331004Y29054004D01*
X86385521Y29081781D01*
X86401008Y29083000D01*
X91468000Y29083000D01*
X91526191Y29064093D01*
G37*
%TD.AperFunction*%
%TD*%
%TA.AperFunction,Conductor*%
%TO.N,Net-(L1-Pad1)*%
G36*
X89107683Y21507593D02*
G01*
X89119496Y21497504D01*
X91474504Y19142496D01*
X91502281Y19087979D01*
X91503500Y19072492D01*
X91503500Y16418500D01*
X91484593Y16360309D01*
X91435093Y16324345D01*
X91404500Y16319500D01*
X86337508Y16319500D01*
X86279317Y16338407D01*
X86267504Y16348496D01*
X81851500Y20764500D01*
X79927500Y20764500D01*
X79869309Y20783407D01*
X79833345Y20832907D01*
X79828500Y20863500D01*
X79828500Y21209115D01*
X79820843Y21255119D01*
X79819500Y21271373D01*
X79819500Y21427500D01*
X79838407Y21485691D01*
X79887907Y21521655D01*
X79918500Y21526500D01*
X89049492Y21526500D01*
X89107683Y21507593D01*
G37*
%TD.AperFunction*%
%TD*%
M02*
