%TF.GenerationSoftware,KiCad,Pcbnew,6.0.4-6f826c9f35~116~ubuntu20.04.1*%
%TF.CreationDate,2022-10-16T07:24:19+00:00*%
%TF.ProjectId,UST5BATT18650V01A,55535435-4241-4545-9431-383635305630,rev?*%
%TF.SameCoordinates,PX463f660PY87a6900*%
%TF.FileFunction,Soldermask,Bot*%
%TF.FilePolarity,Negative*%
%FSLAX46Y46*%
G04 Gerber Fmt 4.6, Leading zero omitted, Abs format (unit mm)*
G04 Created by KiCad (PCBNEW 6.0.4-6f826c9f35~116~ubuntu20.04.1) date 2022-10-16 07:24:19*
%MOMM*%
%LPD*%
G01*
G04 APERTURE LIST*
G04 Aperture macros list*
%AMRoundRect*
0 Rectangle with rounded corners*
0 $1 Rounding radius*
0 $2 $3 $4 $5 $6 $7 $8 $9 X,Y pos of 4 corners*
0 Add a 4 corners polygon primitive as box body*
4,1,4,$2,$3,$4,$5,$6,$7,$8,$9,$2,$3,0*
0 Add four circle primitives for the rounded corners*
1,1,$1+$1,$2,$3*
1,1,$1+$1,$4,$5*
1,1,$1+$1,$6,$7*
1,1,$1+$1,$8,$9*
0 Add four rect primitives between the rounded corners*
20,1,$1+$1,$2,$3,$4,$5,0*
20,1,$1+$1,$4,$5,$6,$7,0*
20,1,$1+$1,$6,$7,$8,$9,0*
20,1,$1+$1,$8,$9,$2,$3,0*%
%AMFreePoly0*
4,1,41,0.586777,0.930194,0.656366,0.874698,0.694986,0.794504,0.700000,0.750000,0.700000,-0.750000,0.680194,-0.836777,0.624698,-0.906366,0.544504,-0.944986,0.500000,-0.950000,0.000000,-0.950000,-0.023504,-0.944635,-0.083606,-0.943534,-0.139582,-0.934468,-0.274897,-0.892193,-0.326080,-0.867780,-0.444090,-0.789225,-0.486362,-0.751429,-0.577582,-0.642910,-0.607548,-0.594768,-0.664643,-0.465009,
-0.679893,-0.410393,-0.697476,-0.275933,-0.697084,-0.275882,-0.700000,-0.250000,-0.700000,0.250000,-0.697921,0.259109,-0.697582,0.286880,-0.675771,0.426957,-0.659192,0.481183,-0.598944,0.609508,-0.567811,0.656904,-0.473967,0.763162,-0.430783,0.799915,-0.310888,0.875563,-0.259125,0.898717,-0.122818,0.937674,-0.066635,0.945370,-0.042411,0.945222,0.000000,0.950000,0.500000,0.950000,
0.586777,0.930194,0.586777,0.930194,$1*%
%AMFreePoly1*
4,1,41,0.022678,0.944824,0.075125,0.944504,0.131210,0.936123,0.267031,0.895504,0.318507,0.871718,0.437469,0.794611,0.480202,0.757333,0.572740,0.649936,0.603290,0.602165,0.661967,0.473113,0.677883,0.418686,0.697980,0.278353,0.700000,0.250000,0.700000,-0.250000,0.699985,-0.252439,0.699836,-0.264655,0.697079,-0.295398,0.673559,-0.435199,0.656318,-0.489221,0.594506,-0.616800,
0.562797,-0.663810,0.467662,-0.768914,0.424032,-0.805137,0.303222,-0.879314,0.251181,-0.901834,0.114408,-0.939123,0.058135,-0.946132,0.037663,-0.945757,0.000000,-0.950000,-0.500000,-0.950000,-0.586777,-0.930194,-0.656366,-0.874698,-0.694986,-0.794504,-0.700000,-0.750000,-0.700000,0.750000,-0.680194,0.836777,-0.624698,0.906366,-0.544504,0.944986,-0.500000,0.950000,0.000000,0.950000,
0.022678,0.944824,0.022678,0.944824,$1*%
G04 Aperture macros list end*
%ADD10C,3.600000*%
%ADD11RoundRect,0.200000X2.000000X-2.000000X2.000000X2.000000X-2.000000X2.000000X-2.000000X-2.000000X0*%
%ADD12RoundRect,0.450000X0.250000X0.475000X-0.250000X0.475000X-0.250000X-0.475000X0.250000X-0.475000X0*%
%ADD13RoundRect,0.443750X-0.456250X0.243750X-0.456250X-0.243750X0.456250X-0.243750X0.456250X0.243750X0*%
%ADD14RoundRect,0.350000X-0.700000X0.150000X-0.700000X-0.150000X0.700000X-0.150000X0.700000X0.150000X0*%
%ADD15RoundRect,0.450000X-1.100000X0.250000X-1.100000X-0.250000X1.100000X-0.250000X1.100000X0.250000X0*%
%ADD16RoundRect,0.450000X-0.262500X-0.450000X0.262500X-0.450000X0.262500X0.450000X-0.262500X0.450000X0*%
%ADD17FreePoly0,0.000000*%
%ADD18FreePoly1,0.000000*%
%ADD19RoundRect,0.450000X-0.475000X0.250000X-0.475000X-0.250000X0.475000X-0.250000X0.475000X0.250000X0*%
%ADD20RoundRect,0.200000X-2.750000X1.500000X-2.750000X-1.500000X2.750000X-1.500000X2.750000X1.500000X0*%
%ADD21RoundRect,0.070000X0.140000X-0.140000X0.140000X0.140000X-0.140000X0.140000X-0.140000X-0.140000X0*%
%ADD22O,0.420000X0.990000*%
%ADD23RoundRect,0.200000X0.350000X-0.125000X0.350000X0.125000X-0.350000X0.125000X-0.350000X-0.125000X0*%
%ADD24RoundRect,0.200000X0.300000X-0.115000X0.300000X0.115000X-0.300000X0.115000X-0.300000X-0.115000X0*%
%ADD25C,1.000000*%
%ADD26RoundRect,0.200000X1.075000X-0.850000X1.075000X0.850000X-1.075000X0.850000X-1.075000X-0.850000X0*%
%ADD27RoundRect,0.200000X0.450000X-0.325000X0.450000X0.325000X-0.450000X0.325000X-0.450000X-0.325000X0*%
%ADD28RoundRect,0.350000X0.700000X-0.150000X0.700000X0.150000X-0.700000X0.150000X-0.700000X-0.150000X0*%
%ADD29RoundRect,0.450000X1.100000X-0.250000X1.100000X0.250000X-1.100000X0.250000X-1.100000X-0.250000X0*%
G04 APERTURE END LIST*
D10*
%TO.C,BT2*%
X10545000Y11195000D03*
X49145000Y66805000D03*
X29845000Y66805000D03*
X49145000Y11195000D03*
X10545000Y66805000D03*
X29845000Y11195000D03*
D11*
X10545000Y2750000D03*
X10545000Y75250000D03*
X29845000Y2750000D03*
X29845000Y75250000D03*
X49145000Y2750000D03*
X49145000Y75250000D03*
%TD*%
D10*
%TO.C,BT1*%
X70300000Y11190000D03*
X89600000Y11190000D03*
X89600000Y66810000D03*
X70300000Y66810000D03*
D11*
X70300000Y2700000D03*
X70300000Y75300000D03*
X89600000Y2700000D03*
X89600000Y75300000D03*
%TD*%
D12*
%TO.C,C5*%
X81214000Y27432000D03*
X79314000Y27432000D03*
%TD*%
D13*
%TO.C,F4*%
X35052000Y6017500D03*
X35052000Y4142500D03*
%TD*%
D12*
%TO.C,C2*%
X81214000Y18034000D03*
X79314000Y18034000D03*
%TD*%
D14*
%TO.C,J1*%
X94924000Y60051000D03*
X94924000Y58801000D03*
X94924000Y57551000D03*
D15*
X98124000Y61901000D03*
X98124000Y55701000D03*
%TD*%
D16*
%TO.C,R2*%
X75391000Y30480000D03*
X77216000Y30480000D03*
%TD*%
D12*
%TO.C,C4*%
X77253500Y27940000D03*
X75353500Y27940000D03*
%TD*%
D13*
%TO.C,F5*%
X54356000Y6017500D03*
X54356000Y4142500D03*
%TD*%
D16*
%TO.C,R1*%
X75391000Y33020000D03*
X77216000Y33020000D03*
%TD*%
D12*
%TO.C,C7*%
X81214000Y32004000D03*
X79314000Y32004000D03*
%TD*%
D17*
%TO.C,JP1*%
X75438000Y18034000D03*
D18*
X76738000Y18034000D03*
%TD*%
D19*
%TO.C,C3*%
X74676000Y25842000D03*
X74676000Y23942000D03*
%TD*%
D20*
%TO.C,L1*%
X89154000Y17606000D03*
X89154000Y27606000D03*
%TD*%
D12*
%TO.C,C6*%
X81214000Y29718000D03*
X79314000Y29718000D03*
%TD*%
D13*
%TO.C,F2*%
X83566000Y6017500D03*
X83566000Y4142500D03*
%TD*%
D12*
%TO.C,C1*%
X81214000Y15494000D03*
X79314000Y15494000D03*
%TD*%
D21*
%TO.C,X1*%
X79978000Y20895000D03*
D22*
X79978000Y21180000D03*
D21*
X79478000Y20895000D03*
D22*
X79478000Y21180000D03*
D21*
X78978000Y20895000D03*
D22*
X78978000Y21180000D03*
X78478000Y21180000D03*
D21*
X78478000Y20895000D03*
X77978000Y20895000D03*
D22*
X77978000Y21180000D03*
X77978000Y24130000D03*
D21*
X77978000Y24415000D03*
D22*
X78478000Y24130000D03*
D21*
X78478000Y24415000D03*
D22*
X78978000Y24130000D03*
D21*
X78978000Y24415000D03*
D22*
X79478000Y24130000D03*
D21*
X79478000Y24415000D03*
X79978000Y24415000D03*
D22*
X79978000Y24130000D03*
D23*
X77553000Y22055000D03*
X77553000Y23255000D03*
D24*
X77553000Y22055000D03*
D25*
X78978000Y22655000D03*
D23*
X80403000Y22055000D03*
D26*
X78978000Y22655000D03*
D27*
X79538000Y23090000D03*
D23*
X80403000Y22855000D03*
D24*
X77553000Y22455000D03*
X80403000Y22855000D03*
D25*
X79478000Y23155000D03*
D23*
X77553000Y22855000D03*
X80403000Y23255000D03*
D25*
X78478000Y22155000D03*
D24*
X77553000Y22855000D03*
D23*
X80403000Y22455000D03*
D25*
X79478000Y22155000D03*
D27*
X78418000Y22220000D03*
D24*
X80403000Y22055000D03*
D25*
X78478000Y23155000D03*
D27*
X79538000Y22220000D03*
X78418000Y23090000D03*
D23*
X77553000Y22455000D03*
D24*
X80403000Y23255000D03*
X77553000Y23255000D03*
X80403000Y22455000D03*
%TD*%
D28*
%TO.C,J2*%
X98624000Y48990000D03*
X98624000Y50240000D03*
X98624000Y51490000D03*
D29*
X95424000Y47140000D03*
X95424000Y53340000D03*
%TD*%
D13*
%TO.C,F3*%
X16256000Y6017500D03*
X16256000Y4142500D03*
%TD*%
%TO.C,F1*%
X75946000Y6017500D03*
X75946000Y4142500D03*
%TD*%
M02*
