  0
SECTION
  2
HEADER
  9
$ANGBASE
  50
0.0
  9
$ANGDIR
  70
1
  9
$MEASUREMENT
  70
0
  0
ENDSEC
  0
SECTION
  2
TABLES
  0
TABLE
  2
LTYPE
  70
4
  0
LTYPE
  5
40F
  2
CONTINUOUS
  70
0
  3
Solid line
  72
65
  73
0
  40
0.0
  0
LTYPE
  5
410
  2
DASHDOT
 70
0
  3
Dash Dot ____ _ ____ _
 72
65
 73
4
 40
2.0
 49
1.25
 49
-0.25
 49
0.25
 49
-0.25
  0
LTYPE
  5
411
  2
DASHED
 70
0
  3
Dashed __ __ __ __ __
 72
65
 73
2
 40
0.75
 49
0.5
 49
-0.25
  0
LTYPE
  5
43B
  2
DOTTED
 70
0
  3
Dotted .  .  .  .
 72
65
 73
2
 40
0.2
 49
0.0
 49
-0.2
  0
ENDTAB
  0
TABLE
  2
STYLE
  70
4
  0
STYLE
  2
KICAD
  70
0
  40
0
  41
1
  42
1
  50
0
  71
0
  3
isocp.shx
  0
STYLE
  2
KICADB
  70
0
  40
0
  41
1
  42
1
  50
0
  71
0
  3
isocp.shx
  0
STYLE
  2
KICADI
  70
0
  40
0
  41
1
  42
1
  50
15
  71
0
  3
isocp.shx
  0
STYLE
  2
KICADBI
  70
0
  40
0
  41
1
  42
1
  50
15
  71
0
  3
isocp.shx
  0
ENDTAB
  0
TABLE
  2
LAYER
  70
1
  0
LAYER
  2
BLACK
  70
0
  62
7
  6
CONTINUOUS
  0
ENDTAB
  0
ENDSEC
  0
SECTION
  2
ENTITIES
0
LINE
8
BLACK
6
CONTINUOUS
10
3.01164
20
0.181553
11
3.01475
21
0.179473
0
LINE
8
BLACK
6
CONTINUOUS
10
3.01475
20
0.179473
11
3.01683
21
0.176359
0
LINE
8
BLACK
6
CONTINUOUS
10
3.01683
20
0.176359
11
3.01756
21
0.172687
0
LINE
8
BLACK
6
CONTINUOUS
10
3.01756
20
0.172687
11
3.01756
21
0.153494
0
LINE
8
BLACK
6
CONTINUOUS
10
3.01756
20
0.153494
11
3.01683
21
0.149822
0
LINE
8
BLACK
6
CONTINUOUS
10
3.01683
20
0.149822
11
3.01475
21
0.146708
0
LINE
8
BLACK
6
CONTINUOUS
10
3.01475
20
0.146708
11
3.01164
21
0.144628
0
LINE
8
BLACK
6
CONTINUOUS
10
3.01164
20
0.144628
11
3.00796
21
0.143898
0
LINE
8
BLACK
6
CONTINUOUS
10
3.00796
20
0.143898
11
2.97204
21
0.143898
0
LINE
8
BLACK
6
CONTINUOUS
10
2.97204
20
0.143898
11
2.96836
21
0.144628
0
LINE
8
BLACK
6
CONTINUOUS
10
2.96836
20
0.144628
11
2.96525
21
0.146708
0
LINE
8
BLACK
6
CONTINUOUS
10
2.96525
20
0.146708
11
2.96317
21
0.149822
0
LINE
8
BLACK
6
CONTINUOUS
10
2.96317
20
0.149822
11
2.96244
21
0.153494
0
LINE
8
BLACK
6
CONTINUOUS
10
2.96244
20
0.153494
11
2.96244
21
0.172687
0
LINE
8
BLACK
6
CONTINUOUS
10
2.96244
20
0.172687
11
2.96317
21
0.176359
0
LINE
8
BLACK
6
CONTINUOUS
10
2.96317
20
0.176359
11
2.96525
21
0.179473
0
LINE
8
BLACK
6
CONTINUOUS
10
2.96525
20
0.179473
11
2.96836
21
0.181553
0
LINE
8
BLACK
6
CONTINUOUS
10
2.96836
20
0.181553
11
2.97204
21
0.182283
0
LINE
8
BLACK
6
CONTINUOUS
10
2.97204
20
0.182283
11
3.00796
21
0.182283
0
LINE
8
BLACK
6
CONTINUOUS
10
3.00796
20
0.182283
11
3.01164
21
0.181553
0
LINE
8
BLACK
6
CONTINUOUS
10
3.31163
20
0.181553
11
3.31475
21
0.179473
0
LINE
8
BLACK
6
CONTINUOUS
10
3.31475
20
0.179473
11
3.31683
21
0.176359
0
LINE
8
BLACK
6
CONTINUOUS
10
3.31683
20
0.176359
11
3.31756
21
0.172687
0
LINE
8
BLACK
6
CONTINUOUS
10
3.31756
20
0.172687
11
3.31756
21
0.153494
0
LINE
8
BLACK
6
CONTINUOUS
10
3.31756
20
0.153494
11
3.31683
21
0.149822
0
LINE
8
BLACK
6
CONTINUOUS
10
3.31683
20
0.149822
11
3.31475
21
0.146708
0
LINE
8
BLACK
6
CONTINUOUS
10
3.31475
20
0.146708
11
3.31163
21
0.144628
0
LINE
8
BLACK
6
CONTINUOUS
10
3.31163
20
0.144628
11
3.30796
21
0.143898
0
LINE
8
BLACK
6
CONTINUOUS
10
3.30796
20
0.143898
11
3.27204
21
0.143898
0
LINE
8
BLACK
6
CONTINUOUS
10
3.27204
20
0.143898
11
3.26836
21
0.144628
0
LINE
8
BLACK
6
CONTINUOUS
10
3.26836
20
0.144628
11
3.26525
21
0.146708
0
LINE
8
BLACK
6
CONTINUOUS
10
3.26525
20
0.146708
11
3.26317
21
0.149822
0
LINE
8
BLACK
6
CONTINUOUS
10
3.26317
20
0.149822
11
3.26244
21
0.153494
0
LINE
8
BLACK
6
CONTINUOUS
10
3.26244
20
0.153494
11
3.26244
21
0.172687
0
LINE
8
BLACK
6
CONTINUOUS
10
3.26244
20
0.172687
11
3.26317
21
0.176359
0
LINE
8
BLACK
6
CONTINUOUS
10
3.26317
20
0.176359
11
3.26525
21
0.179473
0
LINE
8
BLACK
6
CONTINUOUS
10
3.26525
20
0.179473
11
3.26836
21
0.181553
0
LINE
8
BLACK
6
CONTINUOUS
10
3.26836
20
0.181553
11
3.27204
21
0.182283
0
LINE
8
BLACK
6
CONTINUOUS
10
3.27204
20
0.182283
11
3.30796
21
0.182283
0
LINE
8
BLACK
6
CONTINUOUS
10
3.30796
20
0.182283
11
3.31163
21
0.181553
0
LINE
8
BLACK
6
CONTINUOUS
10
1.40163
20
0.181553
11
1.40475
21
0.179473
0
LINE
8
BLACK
6
CONTINUOUS
10
1.40475
20
0.179473
11
1.40683
21
0.176359
0
LINE
8
BLACK
6
CONTINUOUS
10
1.40683
20
0.176359
11
1.40756
21
0.172687
0
LINE
8
BLACK
6
CONTINUOUS
10
1.40756
20
0.172687
11
1.40756
21
0.153494
0
LINE
8
BLACK
6
CONTINUOUS
10
1.40756
20
0.153494
11
1.40683
21
0.149822
0
LINE
8
BLACK
6
CONTINUOUS
10
1.40683
20
0.149822
11
1.40475
21
0.146708
0
LINE
8
BLACK
6
CONTINUOUS
10
1.40475
20
0.146708
11
1.40163
21
0.144628
0
LINE
8
BLACK
6
CONTINUOUS
10
1.40163
20
0.144628
11
1.39796
21
0.143898
0
LINE
8
BLACK
6
CONTINUOUS
10
1.39796
20
0.143898
11
1.36204
21
0.143898
0
LINE
8
BLACK
6
CONTINUOUS
10
1.36204
20
0.143898
11
1.35837
21
0.144628
0
LINE
8
BLACK
6
CONTINUOUS
10
1.35837
20
0.144628
11
1.35525
21
0.146708
0
LINE
8
BLACK
6
CONTINUOUS
10
1.35525
20
0.146708
11
1.35317
21
0.149822
0
LINE
8
BLACK
6
CONTINUOUS
10
1.35317
20
0.149822
11
1.35244
21
0.153494
0
LINE
8
BLACK
6
CONTINUOUS
10
1.35244
20
0.153494
11
1.35244
21
0.172687
0
LINE
8
BLACK
6
CONTINUOUS
10
1.35244
20
0.172687
11
1.35317
21
0.176359
0
LINE
8
BLACK
6
CONTINUOUS
10
1.35317
20
0.176359
11
1.35525
21
0.179473
0
LINE
8
BLACK
6
CONTINUOUS
10
1.35525
20
0.179473
11
1.35837
21
0.181553
0
LINE
8
BLACK
6
CONTINUOUS
10
1.35837
20
0.181553
11
1.36204
21
0.182283
0
LINE
8
BLACK
6
CONTINUOUS
10
1.36204
20
0.182283
11
1.39796
21
0.182283
0
LINE
8
BLACK
6
CONTINUOUS
10
1.39796
20
0.182283
11
1.40163
21
0.181553
0
LINE
8
BLACK
6
CONTINUOUS
10
2.16163
20
0.181553
11
2.16475
21
0.179473
0
LINE
8
BLACK
6
CONTINUOUS
10
2.16475
20
0.179473
11
2.16683
21
0.176359
0
LINE
8
BLACK
6
CONTINUOUS
10
2.16683
20
0.176359
11
2.16756
21
0.172687
0
LINE
8
BLACK
6
CONTINUOUS
10
2.16756
20
0.172687
11
2.16756
21
0.153494
0
LINE
8
BLACK
6
CONTINUOUS
10
2.16756
20
0.153494
11
2.16683
21
0.149822
0
LINE
8
BLACK
6
CONTINUOUS
10
2.16683
20
0.149822
11
2.16475
21
0.146708
0
LINE
8
BLACK
6
CONTINUOUS
10
2.16475
20
0.146708
11
2.16163
21
0.144628
0
LINE
8
BLACK
6
CONTINUOUS
10
2.16163
20
0.144628
11
2.15796
21
0.143898
0
LINE
8
BLACK
6
CONTINUOUS
10
2.15796
20
0.143898
11
2.12204
21
0.143898
0
LINE
8
BLACK
6
CONTINUOUS
10
2.12204
20
0.143898
11
2.11836
21
0.144628
0
LINE
8
BLACK
6
CONTINUOUS
10
2.11836
20
0.144628
11
2.11525
21
0.146708
0
LINE
8
BLACK
6
CONTINUOUS
10
2.11525
20
0.146708
11
2.11317
21
0.149822
0
LINE
8
BLACK
6
CONTINUOUS
10
2.11317
20
0.149822
11
2.11244
21
0.153494
0
LINE
8
BLACK
6
CONTINUOUS
10
2.11244
20
0.153494
11
2.11244
21
0.172687
0
LINE
8
BLACK
6
CONTINUOUS
10
2.11244
20
0.172687
11
2.11317
21
0.176359
0
LINE
8
BLACK
6
CONTINUOUS
10
2.11317
20
0.176359
11
2.11525
21
0.179473
0
LINE
8
BLACK
6
CONTINUOUS
10
2.11525
20
0.179473
11
2.11836
21
0.181553
0
LINE
8
BLACK
6
CONTINUOUS
10
2.11836
20
0.181553
11
2.12204
21
0.182283
0
LINE
8
BLACK
6
CONTINUOUS
10
2.12204
20
0.182283
11
2.15796
21
0.182283
0
LINE
8
BLACK
6
CONTINUOUS
10
2.15796
20
0.182283
11
2.16163
21
0.181553
0
LINE
8
BLACK
6
CONTINUOUS
10
0.661635
20
0.181553
11
0.664748
21
0.179473
0
LINE
8
BLACK
6
CONTINUOUS
10
0.664748
20
0.179473
11
0.666829
21
0.176359
0
LINE
8
BLACK
6
CONTINUOUS
10
0.666829
20
0.176359
11
0.667559
21
0.172687
0
LINE
8
BLACK
6
CONTINUOUS
10
0.667559
20
0.172687
11
0.667559
21
0.153494
0
LINE
8
BLACK
6
CONTINUOUS
10
0.667559
20
0.153494
11
0.666829
21
0.149822
0
LINE
8
BLACK
6
CONTINUOUS
10
0.666829
20
0.149822
11
0.664748
21
0.146708
0
LINE
8
BLACK
6
CONTINUOUS
10
0.664748
20
0.146708
11
0.661635
21
0.144628
0
LINE
8
BLACK
6
CONTINUOUS
10
0.661635
20
0.144628
11
0.657963
21
0.143898
0
LINE
8
BLACK
6
CONTINUOUS
10
0.657963
20
0.143898
11
0.622037
21
0.143898
0
LINE
8
BLACK
6
CONTINUOUS
10
0.622037
20
0.143898
11
0.618365
21
0.144628
0
LINE
8
BLACK
6
CONTINUOUS
10
0.618365
20
0.144628
11
0.615252
21
0.146708
0
LINE
8
BLACK
6
CONTINUOUS
10
0.615252
20
0.146708
11
0.613171
21
0.149822
0
LINE
8
BLACK
6
CONTINUOUS
10
0.613171
20
0.149822
11
0.612441
21
0.153494
0
LINE
8
BLACK
6
CONTINUOUS
10
0.612441
20
0.153494
11
0.612441
21
0.172687
0
LINE
8
BLACK
6
CONTINUOUS
10
0.612441
20
0.172687
11
0.613171
21
0.176359
0
LINE
8
BLACK
6
CONTINUOUS
10
0.613171
20
0.176359
11
0.615252
21
0.179473
0
LINE
8
BLACK
6
CONTINUOUS
10
0.615252
20
0.179473
11
0.618365
21
0.181553
0
LINE
8
BLACK
6
CONTINUOUS
10
0.618365
20
0.181553
11
0.622037
21
0.182283
0
LINE
8
BLACK
6
CONTINUOUS
10
0.622037
20
0.182283
11
0.657963
21
0.182283
0
LINE
8
BLACK
6
CONTINUOUS
10
0.657963
20
0.182283
11
0.661635
21
0.181553
0
LINE
8
BLACK
6
CONTINUOUS
10
3.31163
20
0.255372
11
3.31475
21
0.253292
0
LINE
8
BLACK
6
CONTINUOUS
10
3.31475
20
0.253292
11
3.31683
21
0.250178
0
LINE
8
BLACK
6
CONTINUOUS
10
3.31683
20
0.250178
11
3.31756
21
0.246506
0
LINE
8
BLACK
6
CONTINUOUS
10
3.31756
20
0.246506
11
3.31756
21
0.227313
0
LINE
8
BLACK
6
CONTINUOUS
10
3.31756
20
0.227313
11
3.31683
21
0.223641
0
LINE
8
BLACK
6
CONTINUOUS
10
3.31683
20
0.223641
11
3.31475
21
0.220527
0
LINE
8
BLACK
6
CONTINUOUS
10
3.31475
20
0.220527
11
3.31163
21
0.218447
0
LINE
8
BLACK
6
CONTINUOUS
10
3.31163
20
0.218447
11
3.30796
21
0.217717
0
LINE
8
BLACK
6
CONTINUOUS
10
3.30796
20
0.217717
11
3.27204
21
0.217717
0
LINE
8
BLACK
6
CONTINUOUS
10
3.27204
20
0.217717
11
3.26836
21
0.218447
0
LINE
8
BLACK
6
CONTINUOUS
10
3.26836
20
0.218447
11
3.26525
21
0.220527
0
LINE
8
BLACK
6
CONTINUOUS
10
3.26525
20
0.220527
11
3.26317
21
0.223641
0
LINE
8
BLACK
6
CONTINUOUS
10
3.26317
20
0.223641
11
3.26244
21
0.227313
0
LINE
8
BLACK
6
CONTINUOUS
10
3.26244
20
0.227313
11
3.26244
21
0.246506
0
LINE
8
BLACK
6
CONTINUOUS
10
3.26244
20
0.246506
11
3.26317
21
0.250178
0
LINE
8
BLACK
6
CONTINUOUS
10
3.26317
20
0.250178
11
3.26525
21
0.253292
0
LINE
8
BLACK
6
CONTINUOUS
10
3.26525
20
0.253292
11
3.26836
21
0.255372
0
LINE
8
BLACK
6
CONTINUOUS
10
3.26836
20
0.255372
11
3.27204
21
0.256102
0
LINE
8
BLACK
6
CONTINUOUS
10
3.27204
20
0.256102
11
3.30796
21
0.256102
0
LINE
8
BLACK
6
CONTINUOUS
10
3.30796
20
0.256102
11
3.31163
21
0.255372
0
LINE
8
BLACK
6
CONTINUOUS
10
2.16163
20
0.255372
11
2.16475
21
0.253292
0
LINE
8
BLACK
6
CONTINUOUS
10
2.16475
20
0.253292
11
2.16683
21
0.250178
0
LINE
8
BLACK
6
CONTINUOUS
10
2.16683
20
0.250178
11
2.16756
21
0.246506
0
LINE
8
BLACK
6
CONTINUOUS
10
2.16756
20
0.246506
11
2.16756
21
0.227313
0
LINE
8
BLACK
6
CONTINUOUS
10
2.16756
20
0.227313
11
2.16683
21
0.223641
0
LINE
8
BLACK
6
CONTINUOUS
10
2.16683
20
0.223641
11
2.16475
21
0.220527
0
LINE
8
BLACK
6
CONTINUOUS
10
2.16475
20
0.220527
11
2.16163
21
0.218447
0
LINE
8
BLACK
6
CONTINUOUS
10
2.16163
20
0.218447
11
2.15796
21
0.217717
0
LINE
8
BLACK
6
CONTINUOUS
10
2.15796
20
0.217717
11
2.12204
21
0.217717
0
LINE
8
BLACK
6
CONTINUOUS
10
2.12204
20
0.217717
11
2.11836
21
0.218447
0
LINE
8
BLACK
6
CONTINUOUS
10
2.11836
20
0.218447
11
2.11525
21
0.220527
0
LINE
8
BLACK
6
CONTINUOUS
10
2.11525
20
0.220527
11
2.11317
21
0.223641
0
LINE
8
BLACK
6
CONTINUOUS
10
2.11317
20
0.223641
11
2.11244
21
0.227313
0
LINE
8
BLACK
6
CONTINUOUS
10
2.11244
20
0.227313
11
2.11244
21
0.246506
0
LINE
8
BLACK
6
CONTINUOUS
10
2.11244
20
0.246506
11
2.11317
21
0.250178
0
LINE
8
BLACK
6
CONTINUOUS
10
2.11317
20
0.250178
11
2.11525
21
0.253292
0
LINE
8
BLACK
6
CONTINUOUS
10
2.11525
20
0.253292
11
2.11836
21
0.255372
0
LINE
8
BLACK
6
CONTINUOUS
10
2.11836
20
0.255372
11
2.12204
21
0.256102
0
LINE
8
BLACK
6
CONTINUOUS
10
2.12204
20
0.256102
11
2.15796
21
0.256102
0
LINE
8
BLACK
6
CONTINUOUS
10
2.15796
20
0.256102
11
2.16163
21
0.255372
0
LINE
8
BLACK
6
CONTINUOUS
10
0.661635
20
0.255372
11
0.664748
21
0.253292
0
LINE
8
BLACK
6
CONTINUOUS
10
0.664748
20
0.253292
11
0.666829
21
0.250178
0
LINE
8
BLACK
6
CONTINUOUS
10
0.666829
20
0.250178
11
0.667559
21
0.246506
0
LINE
8
BLACK
6
CONTINUOUS
10
0.667559
20
0.246506
11
0.667559
21
0.227313
0
LINE
8
BLACK
6
CONTINUOUS
10
0.667559
20
0.227313
11
0.666829
21
0.223641
0
LINE
8
BLACK
6
CONTINUOUS
10
0.666829
20
0.223641
11
0.664748
21
0.220527
0
LINE
8
BLACK
6
CONTINUOUS
10
0.664748
20
0.220527
11
0.661635
21
0.218447
0
LINE
8
BLACK
6
CONTINUOUS
10
0.661635
20
0.218447
11
0.657963
21
0.217717
0
LINE
8
BLACK
6
CONTINUOUS
10
0.657963
20
0.217717
11
0.622037
21
0.217717
0
LINE
8
BLACK
6
CONTINUOUS
10
0.622037
20
0.217717
11
0.618365
21
0.218447
0
LINE
8
BLACK
6
CONTINUOUS
10
0.618365
20
0.218447
11
0.615252
21
0.220527
0
LINE
8
BLACK
6
CONTINUOUS
10
0.615252
20
0.220527
11
0.613171
21
0.223641
0
LINE
8
BLACK
6
CONTINUOUS
10
0.613171
20
0.223641
11
0.612441
21
0.227313
0
LINE
8
BLACK
6
CONTINUOUS
10
0.612441
20
0.227313
11
0.612441
21
0.246506
0
LINE
8
BLACK
6
CONTINUOUS
10
0.612441
20
0.246506
11
0.613171
21
0.250178
0
LINE
8
BLACK
6
CONTINUOUS
10
0.613171
20
0.250178
11
0.615252
21
0.253292
0
LINE
8
BLACK
6
CONTINUOUS
10
0.615252
20
0.253292
11
0.618365
21
0.255372
0
LINE
8
BLACK
6
CONTINUOUS
10
0.618365
20
0.255372
11
0.622037
21
0.256102
0
LINE
8
BLACK
6
CONTINUOUS
10
0.622037
20
0.256102
11
0.657963
21
0.256102
0
LINE
8
BLACK
6
CONTINUOUS
10
0.657963
20
0.256102
11
0.661635
21
0.255372
0
LINE
8
BLACK
6
CONTINUOUS
10
3.01164
20
0.255372
11
3.01475
21
0.253292
0
LINE
8
BLACK
6
CONTINUOUS
10
3.01475
20
0.253292
11
3.01683
21
0.250178
0
LINE
8
BLACK
6
CONTINUOUS
10
3.01683
20
0.250178
11
3.01756
21
0.246506
0
LINE
8
BLACK
6
CONTINUOUS
10
3.01756
20
0.246506
11
3.01756
21
0.227313
0
LINE
8
BLACK
6
CONTINUOUS
10
3.01756
20
0.227313
11
3.01683
21
0.223641
0
LINE
8
BLACK
6
CONTINUOUS
10
3.01683
20
0.223641
11
3.01475
21
0.220527
0
LINE
8
BLACK
6
CONTINUOUS
10
3.01475
20
0.220527
11
3.01164
21
0.218447
0
LINE
8
BLACK
6
CONTINUOUS
10
3.01164
20
0.218447
11
3.00796
21
0.217717
0
LINE
8
BLACK
6
CONTINUOUS
10
3.00796
20
0.217717
11
2.97204
21
0.217717
0
LINE
8
BLACK
6
CONTINUOUS
10
2.97204
20
0.217717
11
2.96836
21
0.218447
0
LINE
8
BLACK
6
CONTINUOUS
10
2.96836
20
0.218447
11
2.96525
21
0.220527
0
LINE
8
BLACK
6
CONTINUOUS
10
2.96525
20
0.220527
11
2.96317
21
0.223641
0
LINE
8
BLACK
6
CONTINUOUS
10
2.96317
20
0.223641
11
2.96244
21
0.227313
0
LINE
8
BLACK
6
CONTINUOUS
10
2.96244
20
0.227313
11
2.96244
21
0.246506
0
LINE
8
BLACK
6
CONTINUOUS
10
2.96244
20
0.246506
11
2.96317
21
0.250178
0
LINE
8
BLACK
6
CONTINUOUS
10
2.96317
20
0.250178
11
2.96525
21
0.253292
0
LINE
8
BLACK
6
CONTINUOUS
10
2.96525
20
0.253292
11
2.96836
21
0.255372
0
LINE
8
BLACK
6
CONTINUOUS
10
2.96836
20
0.255372
11
2.97204
21
0.256102
0
LINE
8
BLACK
6
CONTINUOUS
10
2.97204
20
0.256102
11
3.00796
21
0.256102
0
LINE
8
BLACK
6
CONTINUOUS
10
3.00796
20
0.256102
11
3.01164
21
0.255372
0
LINE
8
BLACK
6
CONTINUOUS
10
1.40163
20
0.255372
11
1.40475
21
0.253292
0
LINE
8
BLACK
6
CONTINUOUS
10
1.40475
20
0.253292
11
1.40683
21
0.250178
0
LINE
8
BLACK
6
CONTINUOUS
10
1.40683
20
0.250178
11
1.40756
21
0.246506
0
LINE
8
BLACK
6
CONTINUOUS
10
1.40756
20
0.246506
11
1.40756
21
0.227313
0
LINE
8
BLACK
6
CONTINUOUS
10
1.40756
20
0.227313
11
1.40683
21
0.223641
0
LINE
8
BLACK
6
CONTINUOUS
10
1.40683
20
0.223641
11
1.40475
21
0.220527
0
LINE
8
BLACK
6
CONTINUOUS
10
1.40475
20
0.220527
11
1.40163
21
0.218447
0
LINE
8
BLACK
6
CONTINUOUS
10
1.40163
20
0.218447
11
1.39796
21
0.217717
0
LINE
8
BLACK
6
CONTINUOUS
10
1.39796
20
0.217717
11
1.36204
21
0.217717
0
LINE
8
BLACK
6
CONTINUOUS
10
1.36204
20
0.217717
11
1.35837
21
0.218447
0
LINE
8
BLACK
6
CONTINUOUS
10
1.35837
20
0.218447
11
1.35525
21
0.220527
0
LINE
8
BLACK
6
CONTINUOUS
10
1.35525
20
0.220527
11
1.35317
21
0.223641
0
LINE
8
BLACK
6
CONTINUOUS
10
1.35317
20
0.223641
11
1.35244
21
0.227313
0
LINE
8
BLACK
6
CONTINUOUS
10
1.35244
20
0.227313
11
1.35244
21
0.246506
0
LINE
8
BLACK
6
CONTINUOUS
10
1.35244
20
0.246506
11
1.35317
21
0.250178
0
LINE
8
BLACK
6
CONTINUOUS
10
1.35317
20
0.250178
11
1.35525
21
0.253292
0
LINE
8
BLACK
6
CONTINUOUS
10
1.35525
20
0.253292
11
1.35837
21
0.255372
0
LINE
8
BLACK
6
CONTINUOUS
10
1.35837
20
0.255372
11
1.36204
21
0.256102
0
LINE
8
BLACK
6
CONTINUOUS
10
1.36204
20
0.256102
11
1.39796
21
0.256102
0
LINE
8
BLACK
6
CONTINUOUS
10
1.39796
20
0.256102
11
1.40163
21
0.255372
0
LINE
8
BLACK
6
CONTINUOUS
10
3.21101
20
0.637794
11
3.2142
21
0.635661
0
LINE
8
BLACK
6
CONTINUOUS
10
3.2142
20
0.635661
11
3.21634
21
0.632467
0
LINE
8
BLACK
6
CONTINUOUS
10
3.21634
20
0.632467
11
3.21709
21
0.628701
0
LINE
8
BLACK
6
CONTINUOUS
10
3.21709
20
0.628701
11
3.21709
21
0.591299
0
LINE
8
BLACK
6
CONTINUOUS
10
3.21709
20
0.591299
11
3.21634
21
0.587533
0
LINE
8
BLACK
6
CONTINUOUS
10
3.21634
20
0.587533
11
3.2142
21
0.584339
0
LINE
8
BLACK
6
CONTINUOUS
10
3.2142
20
0.584339
11
3.21101
21
0.582206
0
LINE
8
BLACK
6
CONTINUOUS
10
3.21101
20
0.582206
11
3.20724
21
0.581457
0
LINE
8
BLACK
6
CONTINUOUS
10
3.20724
20
0.581457
11
3.18756
21
0.581457
0
LINE
8
BLACK
6
CONTINUOUS
10
3.18756
20
0.581457
11
3.18379
21
0.582206
0
LINE
8
BLACK
6
CONTINUOUS
10
3.18379
20
0.582206
11
3.1806
21
0.584339
0
LINE
8
BLACK
6
CONTINUOUS
10
3.1806
20
0.584339
11
3.17847
21
0.587533
0
LINE
8
BLACK
6
CONTINUOUS
10
3.17847
20
0.587533
11
3.17772
21
0.591299
0
LINE
8
BLACK
6
CONTINUOUS
10
3.17772
20
0.591299
11
3.17772
21
0.628701
0
LINE
8
BLACK
6
CONTINUOUS
10
3.17772
20
0.628701
11
3.17847
21
0.632467
0
LINE
8
BLACK
6
CONTINUOUS
10
3.17847
20
0.632467
11
3.1806
21
0.635661
0
LINE
8
BLACK
6
CONTINUOUS
10
3.1806
20
0.635661
11
3.18379
21
0.637794
0
LINE
8
BLACK
6
CONTINUOUS
10
3.18379
20
0.637794
11
3.18756
21
0.638543
0
LINE
8
BLACK
6
CONTINUOUS
10
3.18756
20
0.638543
11
3.20724
21
0.638543
0
LINE
8
BLACK
6
CONTINUOUS
10
3.20724
20
0.638543
11
3.21101
21
0.637794
0
LINE
8
BLACK
6
CONTINUOUS
10
3.13621
20
0.637794
11
3.1394
21
0.635661
0
LINE
8
BLACK
6
CONTINUOUS
10
3.1394
20
0.635661
11
3.14153
21
0.632467
0
LINE
8
BLACK
6
CONTINUOUS
10
3.14153
20
0.632467
11
3.14228
21
0.628701
0
LINE
8
BLACK
6
CONTINUOUS
10
3.14228
20
0.628701
11
3.14228
21
0.591299
0
LINE
8
BLACK
6
CONTINUOUS
10
3.14228
20
0.591299
11
3.14153
21
0.587533
0
LINE
8
BLACK
6
CONTINUOUS
10
3.14153
20
0.587533
11
3.1394
21
0.584339
0
LINE
8
BLACK
6
CONTINUOUS
10
3.1394
20
0.584339
11
3.13621
21
0.582206
0
LINE
8
BLACK
6
CONTINUOUS
10
3.13621
20
0.582206
11
3.13244
21
0.581457
0
LINE
8
BLACK
6
CONTINUOUS
10
3.13244
20
0.581457
11
3.11276
21
0.581457
0
LINE
8
BLACK
6
CONTINUOUS
10
3.11276
20
0.581457
11
3.10899
21
0.582206
0
LINE
8
BLACK
6
CONTINUOUS
10
3.10899
20
0.582206
11
3.1058
21
0.584339
0
LINE
8
BLACK
6
CONTINUOUS
10
3.1058
20
0.584339
11
3.10366
21
0.587533
0
LINE
8
BLACK
6
CONTINUOUS
10
3.10366
20
0.587533
11
3.10291
21
0.591299
0
LINE
8
BLACK
6
CONTINUOUS
10
3.10291
20
0.591299
11
3.10291
21
0.628701
0
LINE
8
BLACK
6
CONTINUOUS
10
3.10291
20
0.628701
11
3.10366
21
0.632467
0
LINE
8
BLACK
6
CONTINUOUS
10
3.10366
20
0.632467
11
3.1058
21
0.635661
0
LINE
8
BLACK
6
CONTINUOUS
10
3.1058
20
0.635661
11
3.10899
21
0.637794
0
LINE
8
BLACK
6
CONTINUOUS
10
3.10899
20
0.637794
11
3.11276
21
0.638543
0
LINE
8
BLACK
6
CONTINUOUS
10
3.11276
20
0.638543
11
3.13244
21
0.638543
0
LINE
8
BLACK
6
CONTINUOUS
10
3.13244
20
0.638543
11
3.13621
21
0.637794
0
LINE
8
BLACK
6
CONTINUOUS
10
3.61827
20
0.634094
11
3.40173
21
0.634094
0
LINE
8
BLACK
6
CONTINUOUS
10
3.40173
20
0.634094
11
3.40173
21
0.752205
0
LINE
8
BLACK
6
CONTINUOUS
10
3.40173
20
0.752205
11
3.61827
21
0.752205
0
LINE
8
BLACK
6
CONTINUOUS
10
3.61827
20
0.752205
11
3.61827
21
0.634094
0
LINE
8
BLACK
6
CONTINUOUS
10
3.13621
20
0.737794
11
3.1394
21
0.735661
0
LINE
8
BLACK
6
CONTINUOUS
10
3.1394
20
0.735661
11
3.14153
21
0.732467
0
LINE
8
BLACK
6
CONTINUOUS
10
3.14153
20
0.732467
11
3.14228
21
0.728701
0
LINE
8
BLACK
6
CONTINUOUS
10
3.14228
20
0.728701
11
3.14228
21
0.691299
0
LINE
8
BLACK
6
CONTINUOUS
10
3.14228
20
0.691299
11
3.14153
21
0.687533
0
LINE
8
BLACK
6
CONTINUOUS
10
3.14153
20
0.687533
11
3.1394
21
0.684339
0
LINE
8
BLACK
6
CONTINUOUS
10
3.1394
20
0.684339
11
3.13621
21
0.682206
0
LINE
8
BLACK
6
CONTINUOUS
10
3.13621
20
0.682206
11
3.13244
21
0.681457
0
LINE
8
BLACK
6
CONTINUOUS
10
3.13244
20
0.681457
11
3.11276
21
0.681457
0
LINE
8
BLACK
6
CONTINUOUS
10
3.11276
20
0.681457
11
3.10899
21
0.682206
0
LINE
8
BLACK
6
CONTINUOUS
10
3.10899
20
0.682206
11
3.1058
21
0.684339
0
LINE
8
BLACK
6
CONTINUOUS
10
3.1058
20
0.684339
11
3.10366
21
0.687533
0
LINE
8
BLACK
6
CONTINUOUS
10
3.10366
20
0.687533
11
3.10291
21
0.691299
0
LINE
8
BLACK
6
CONTINUOUS
10
3.10291
20
0.691299
11
3.10291
21
0.728701
0
LINE
8
BLACK
6
CONTINUOUS
10
3.10291
20
0.728701
11
3.10366
21
0.732467
0
LINE
8
BLACK
6
CONTINUOUS
10
3.10366
20
0.732467
11
3.1058
21
0.735661
0
LINE
8
BLACK
6
CONTINUOUS
10
3.1058
20
0.735661
11
3.10899
21
0.737794
0
LINE
8
BLACK
6
CONTINUOUS
10
3.10899
20
0.737794
11
3.11276
21
0.738543
0
LINE
8
BLACK
6
CONTINUOUS
10
3.11276
20
0.738543
11
3.13244
21
0.738543
0
LINE
8
BLACK
6
CONTINUOUS
10
3.13244
20
0.738543
11
3.13621
21
0.737794
0
LINE
8
BLACK
6
CONTINUOUS
10
3.21101
20
0.737794
11
3.2142
21
0.735661
0
LINE
8
BLACK
6
CONTINUOUS
10
3.2142
20
0.735661
11
3.21634
21
0.732467
0
LINE
8
BLACK
6
CONTINUOUS
10
3.21634
20
0.732467
11
3.21709
21
0.728701
0
LINE
8
BLACK
6
CONTINUOUS
10
3.21709
20
0.728701
11
3.21709
21
0.691299
0
LINE
8
BLACK
6
CONTINUOUS
10
3.21709
20
0.691299
11
3.21634
21
0.687533
0
LINE
8
BLACK
6
CONTINUOUS
10
3.21634
20
0.687533
11
3.2142
21
0.684339
0
LINE
8
BLACK
6
CONTINUOUS
10
3.2142
20
0.684339
11
3.21101
21
0.682206
0
LINE
8
BLACK
6
CONTINUOUS
10
3.21101
20
0.682206
11
3.20724
21
0.681457
0
LINE
8
BLACK
6
CONTINUOUS
10
3.20724
20
0.681457
11
3.18756
21
0.681457
0
LINE
8
BLACK
6
CONTINUOUS
10
3.18756
20
0.681457
11
3.18379
21
0.682206
0
LINE
8
BLACK
6
CONTINUOUS
10
3.18379
20
0.682206
11
3.1806
21
0.684339
0
LINE
8
BLACK
6
CONTINUOUS
10
3.1806
20
0.684339
11
3.17847
21
0.687533
0
LINE
8
BLACK
6
CONTINUOUS
10
3.17847
20
0.687533
11
3.17772
21
0.691299
0
LINE
8
BLACK
6
CONTINUOUS
10
3.17772
20
0.691299
11
3.17772
21
0.728701
0
LINE
8
BLACK
6
CONTINUOUS
10
3.17772
20
0.728701
11
3.17847
21
0.732467
0
LINE
8
BLACK
6
CONTINUOUS
10
3.17847
20
0.732467
11
3.1806
21
0.735661
0
LINE
8
BLACK
6
CONTINUOUS
10
3.1806
20
0.735661
11
3.18379
21
0.737794
0
LINE
8
BLACK
6
CONTINUOUS
10
3.18379
20
0.737794
11
3.18756
21
0.738543
0
LINE
8
BLACK
6
CONTINUOUS
10
3.18756
20
0.738543
11
3.20724
21
0.738543
0
LINE
8
BLACK
6
CONTINUOUS
10
3.20724
20
0.738543
11
3.21101
21
0.737794
0
LINE
8
BLACK
6
CONTINUOUS
10
3.06547
20
0.81811
11
3.06547
21
0.845079
0
LINE
8
BLACK
6
CONTINUOUS
10
3.06547
20
0.845079
11
3.06582
21
0.846811
0
LINE
8
BLACK
6
CONTINUOUS
10
3.06582
20
0.846811
11
3.0668
21
0.84828
0
LINE
8
BLACK
6
CONTINUOUS
10
3.0668
20
0.84828
11
3.06827
21
0.849262
0
LINE
8
BLACK
6
CONTINUOUS
10
3.06827
20
0.849262
11
3.07
21
0.849606
0
LINE
8
BLACK
6
CONTINUOUS
10
3.07
20
0.849606
11
3.07173
21
0.849262
0
LINE
8
BLACK
6
CONTINUOUS
10
3.07173
20
0.849262
11
3.0732
21
0.84828
0
LINE
8
BLACK
6
CONTINUOUS
10
3.0732
20
0.84828
11
3.07418
21
0.846811
0
LINE
8
BLACK
6
CONTINUOUS
10
3.07418
20
0.846811
11
3.07453
21
0.845079
0
LINE
8
BLACK
6
CONTINUOUS
10
3.07453
20
0.845079
11
3.07453
21
0.81811
0
LINE
8
BLACK
6
CONTINUOUS
10
3.07453
20
0.81811
11
3.06547
21
0.81811
0
LINE
8
BLACK
6
CONTINUOUS
10
3.14421
20
0.81811
11
3.14421
21
0.845079
0
LINE
8
BLACK
6
CONTINUOUS
10
3.14421
20
0.845079
11
3.14456
21
0.846811
0
LINE
8
BLACK
6
CONTINUOUS
10
3.14456
20
0.846811
11
3.14554
21
0.84828
0
LINE
8
BLACK
6
CONTINUOUS
10
3.14554
20
0.84828
11
3.14701
21
0.849262
0
LINE
8
BLACK
6
CONTINUOUS
10
3.14701
20
0.849262
11
3.14874
21
0.849606
0
LINE
8
BLACK
6
CONTINUOUS
10
3.14874
20
0.849606
11
3.15047
21
0.849262
0
LINE
8
BLACK
6
CONTINUOUS
10
3.15047
20
0.849262
11
3.15194
21
0.84828
0
LINE
8
BLACK
6
CONTINUOUS
10
3.15194
20
0.84828
11
3.15292
21
0.846811
0
LINE
8
BLACK
6
CONTINUOUS
10
3.15292
20
0.846811
11
3.15327
21
0.845079
0
LINE
8
BLACK
6
CONTINUOUS
10
3.15327
20
0.845079
11
3.15327
21
0.81811
0
LINE
8
BLACK
6
CONTINUOUS
10
3.15327
20
0.81811
11
3.14421
21
0.81811
0
LINE
8
BLACK
6
CONTINUOUS
10
3.12453
20
0.81811
11
3.12453
21
0.845079
0
LINE
8
BLACK
6
CONTINUOUS
10
3.12453
20
0.845079
11
3.12487
21
0.846811
0
LINE
8
BLACK
6
CONTINUOUS
10
3.12487
20
0.846811
11
3.12585
21
0.84828
0
LINE
8
BLACK
6
CONTINUOUS
10
3.12585
20
0.84828
11
3.12732
21
0.849262
0
LINE
8
BLACK
6
CONTINUOUS
10
3.12732
20
0.849262
11
3.12906
21
0.849606
0
LINE
8
BLACK
6
CONTINUOUS
10
3.12906
20
0.849606
11
3.13079
21
0.849262
0
LINE
8
BLACK
6
CONTINUOUS
10
3.13079
20
0.849262
11
3.13226
21
0.84828
0
LINE
8
BLACK
6
CONTINUOUS
10
3.13226
20
0.84828
11
3.13324
21
0.846811
0
LINE
8
BLACK
6
CONTINUOUS
10
3.13324
20
0.846811
11
3.13358
21
0.845079
0
LINE
8
BLACK
6
CONTINUOUS
10
3.13358
20
0.845079
11
3.13358
21
0.81811
0
LINE
8
BLACK
6
CONTINUOUS
10
3.13358
20
0.81811
11
3.12453
21
0.81811
0
LINE
8
BLACK
6
CONTINUOUS
10
3.10484
20
0.81811
11
3.10484
21
0.845079
0
LINE
8
BLACK
6
CONTINUOUS
10
3.10484
20
0.845079
11
3.10519
21
0.846811
0
LINE
8
BLACK
6
CONTINUOUS
10
3.10519
20
0.846811
11
3.10617
21
0.84828
0
LINE
8
BLACK
6
CONTINUOUS
10
3.10617
20
0.84828
11
3.10764
21
0.849262
0
LINE
8
BLACK
6
CONTINUOUS
10
3.10764
20
0.849262
11
3.10937
21
0.849606
0
LINE
8
BLACK
6
CONTINUOUS
10
3.10937
20
0.849606
11
3.1111
21
0.849262
0
LINE
8
BLACK
6
CONTINUOUS
10
3.1111
20
0.849262
11
3.11257
21
0.84828
0
LINE
8
BLACK
6
CONTINUOUS
10
3.11257
20
0.84828
11
3.11355
21
0.846811
0
LINE
8
BLACK
6
CONTINUOUS
10
3.11355
20
0.846811
11
3.1139
21
0.845079
0
LINE
8
BLACK
6
CONTINUOUS
10
3.1139
20
0.845079
11
3.1139
21
0.81811
0
LINE
8
BLACK
6
CONTINUOUS
10
3.1139
20
0.81811
11
3.10484
21
0.81811
0
LINE
8
BLACK
6
CONTINUOUS
10
3.08516
20
0.81811
11
3.08516
21
0.845079
0
LINE
8
BLACK
6
CONTINUOUS
10
3.08516
20
0.845079
11
3.0855
21
0.846811
0
LINE
8
BLACK
6
CONTINUOUS
10
3.0855
20
0.846811
11
3.08648
21
0.84828
0
LINE
8
BLACK
6
CONTINUOUS
10
3.08648
20
0.84828
11
3.08795
21
0.849262
0
LINE
8
BLACK
6
CONTINUOUS
10
3.08795
20
0.849262
11
3.08969
21
0.849606
0
LINE
8
BLACK
6
CONTINUOUS
10
3.08969
20
0.849606
11
3.09142
21
0.849262
0
LINE
8
BLACK
6
CONTINUOUS
10
3.09142
20
0.849262
11
3.09289
21
0.84828
0
LINE
8
BLACK
6
CONTINUOUS
10
3.09289
20
0.84828
11
3.09387
21
0.846811
0
LINE
8
BLACK
6
CONTINUOUS
10
3.09387
20
0.846811
11
3.09421
21
0.845079
0
LINE
8
BLACK
6
CONTINUOUS
10
3.09421
20
0.845079
11
3.09421
21
0.81811
0
LINE
8
BLACK
6
CONTINUOUS
10
3.09421
20
0.81811
11
3.08516
21
0.81811
0
LINE
8
BLACK
6
CONTINUOUS
10
3.14913
20
0.862008
11
3.1137
21
0.862008
0
LINE
8
BLACK
6
CONTINUOUS
10
3.1137
20
0.862008
11
3.1137
21
0.887598
0
LINE
8
BLACK
6
CONTINUOUS
10
3.1137
20
0.887598
11
3.14913
21
0.887598
0
LINE
8
BLACK
6
CONTINUOUS
10
3.14913
20
0.887598
11
3.14913
21
0.862008
0
LINE
8
BLACK
6
CONTINUOUS
10
3.10504
20
0.862008
11
3.06961
21
0.862008
0
LINE
8
BLACK
6
CONTINUOUS
10
3.06961
20
0.862008
11
3.06961
21
0.887598
0
LINE
8
BLACK
6
CONTINUOUS
10
3.06961
20
0.887598
11
3.10504
21
0.887598
0
LINE
8
BLACK
6
CONTINUOUS
10
3.10504
20
0.887598
11
3.10504
21
0.862008
0
LINE
8
BLACK
6
CONTINUOUS
10
3.04146
20
0.86378
11
3.04146
21
0.872835
0
LINE
8
BLACK
6
CONTINUOUS
10
3.04146
20
0.872835
11
3.06508
21
0.872835
0
LINE
8
BLACK
6
CONTINUOUS
10
3.06508
20
0.872835
11
3.06508
21
0.86378
0
LINE
8
BLACK
6
CONTINUOUS
10
3.06508
20
0.86378
11
3.04146
21
0.86378
0
LINE
8
BLACK
6
CONTINUOUS
10
3.15366
20
0.86378
11
3.15366
21
0.872835
0
LINE
8
BLACK
6
CONTINUOUS
10
3.15366
20
0.872835
11
3.17728
21
0.872835
0
LINE
8
BLACK
6
CONTINUOUS
10
3.17728
20
0.872835
11
3.17728
21
0.86378
0
LINE
8
BLACK
6
CONTINUOUS
10
3.17728
20
0.86378
11
3.15366
21
0.86378
0
LINE
8
BLACK
6
CONTINUOUS
10
3.15366
20
0.879528
11
3.15366
21
0.888583
0
LINE
8
BLACK
6
CONTINUOUS
10
3.15366
20
0.888583
11
3.17728
21
0.888583
0
LINE
8
BLACK
6
CONTINUOUS
10
3.17728
20
0.888583
11
3.17728
21
0.879528
0
LINE
8
BLACK
6
CONTINUOUS
10
3.17728
20
0.879528
11
3.15366
21
0.879528
0
LINE
8
BLACK
6
CONTINUOUS
10
3.04146
20
0.879528
11
3.04146
21
0.888583
0
LINE
8
BLACK
6
CONTINUOUS
10
3.04146
20
0.888583
11
3.06508
21
0.888583
0
LINE
8
BLACK
6
CONTINUOUS
10
3.06508
20
0.888583
11
3.06508
21
0.879528
0
LINE
8
BLACK
6
CONTINUOUS
10
3.06508
20
0.879528
11
3.04146
21
0.879528
0
LINE
8
BLACK
6
CONTINUOUS
10
3.15366
20
0.895276
11
3.15366
21
0.904331
0
LINE
8
BLACK
6
CONTINUOUS
10
3.15366
20
0.904331
11
3.17728
21
0.904331
0
LINE
8
BLACK
6
CONTINUOUS
10
3.17728
20
0.904331
11
3.17728
21
0.895276
0
LINE
8
BLACK
6
CONTINUOUS
10
3.17728
20
0.895276
11
3.15366
21
0.895276
0
LINE
8
BLACK
6
CONTINUOUS
10
3.04146
20
0.895276
11
3.04146
21
0.904331
0
LINE
8
BLACK
6
CONTINUOUS
10
3.04146
20
0.904331
11
3.06508
21
0.904331
0
LINE
8
BLACK
6
CONTINUOUS
10
3.06508
20
0.904331
11
3.06508
21
0.895276
0
LINE
8
BLACK
6
CONTINUOUS
10
3.06508
20
0.895276
11
3.04146
21
0.895276
0
LINE
8
BLACK
6
CONTINUOUS
10
3.14913
20
0.89626
11
3.1137
21
0.89626
0
LINE
8
BLACK
6
CONTINUOUS
10
3.1137
20
0.89626
11
3.1137
21
0.92185
0
LINE
8
BLACK
6
CONTINUOUS
10
3.1137
20
0.92185
11
3.14913
21
0.92185
0
LINE
8
BLACK
6
CONTINUOUS
10
3.14913
20
0.92185
11
3.14913
21
0.89626
0
LINE
8
BLACK
6
CONTINUOUS
10
3.10504
20
0.89626
11
3.06961
21
0.89626
0
LINE
8
BLACK
6
CONTINUOUS
10
3.06961
20
0.89626
11
3.06961
21
0.92185
0
LINE
8
BLACK
6
CONTINUOUS
10
3.06961
20
0.92185
11
3.10504
21
0.92185
0
LINE
8
BLACK
6
CONTINUOUS
10
3.10504
20
0.92185
11
3.10504
21
0.89626
0
LINE
8
BLACK
6
CONTINUOUS
10
3.15366
20
0.911024
11
3.15366
21
0.920079
0
LINE
8
BLACK
6
CONTINUOUS
10
3.15366
20
0.920079
11
3.17728
21
0.920079
0
LINE
8
BLACK
6
CONTINUOUS
10
3.17728
20
0.920079
11
3.17728
21
0.911024
0
LINE
8
BLACK
6
CONTINUOUS
10
3.17728
20
0.911024
11
3.15366
21
0.911024
0
LINE
8
BLACK
6
CONTINUOUS
10
3.04146
20
0.911024
11
3.04146
21
0.920079
0
LINE
8
BLACK
6
CONTINUOUS
10
3.04146
20
0.920079
11
3.06508
21
0.920079
0
LINE
8
BLACK
6
CONTINUOUS
10
3.06508
20
0.920079
11
3.06508
21
0.911024
0
LINE
8
BLACK
6
CONTINUOUS
10
3.06508
20
0.911024
11
3.04146
21
0.911024
0
LINE
8
BLACK
6
CONTINUOUS
10
2.96247
20
0.961534
11
2.96566
21
0.959401
0
LINE
8
BLACK
6
CONTINUOUS
10
2.96566
20
0.959401
11
2.96779
21
0.956208
0
LINE
8
BLACK
6
CONTINUOUS
10
2.96779
20
0.956208
11
2.96854
21
0.952441
0
LINE
8
BLACK
6
CONTINUOUS
10
2.96854
20
0.952441
11
2.96854
21
0.932756
0
LINE
8
BLACK
6
CONTINUOUS
10
2.96854
20
0.932756
11
2.96779
21
0.928989
0
LINE
8
BLACK
6
CONTINUOUS
10
2.96779
20
0.928989
11
2.96566
21
0.925796
0
LINE
8
BLACK
6
CONTINUOUS
10
2.96566
20
0.925796
11
2.96247
21
0.923663
0
LINE
8
BLACK
6
CONTINUOUS
10
2.96247
20
0.923663
11
2.9587
21
0.922913
0
LINE
8
BLACK
6
CONTINUOUS
10
2.9587
20
0.922913
11
2.9213
21
0.922913
0
LINE
8
BLACK
6
CONTINUOUS
10
2.9213
20
0.922913
11
2.91753
21
0.923663
0
LINE
8
BLACK
6
CONTINUOUS
10
2.91753
20
0.923663
11
2.91434
21
0.925796
0
LINE
8
BLACK
6
CONTINUOUS
10
2.91434
20
0.925796
11
2.91221
21
0.928989
0
LINE
8
BLACK
6
CONTINUOUS
10
2.91221
20
0.928989
11
2.91146
21
0.932756
0
LINE
8
BLACK
6
CONTINUOUS
10
2.91146
20
0.932756
11
2.91146
21
0.952441
0
LINE
8
BLACK
6
CONTINUOUS
10
2.91146
20
0.952441
11
2.91221
21
0.956208
0
LINE
8
BLACK
6
CONTINUOUS
10
2.91221
20
0.956208
11
2.91434
21
0.959401
0
LINE
8
BLACK
6
CONTINUOUS
10
2.91434
20
0.959401
11
2.91753
21
0.961534
0
LINE
8
BLACK
6
CONTINUOUS
10
2.91753
20
0.961534
11
2.9213
21
0.962283
0
LINE
8
BLACK
6
CONTINUOUS
10
2.9213
20
0.962283
11
2.9587
21
0.962283
0
LINE
8
BLACK
6
CONTINUOUS
10
2.9587
20
0.962283
11
2.96247
21
0.961534
0
LINE
8
BLACK
6
CONTINUOUS
10
3.07418
20
0.937047
11
3.0732
21
0.935578
0
LINE
8
BLACK
6
CONTINUOUS
10
3.0732
20
0.935578
11
3.07173
21
0.934597
0
LINE
8
BLACK
6
CONTINUOUS
10
3.07173
20
0.934597
11
3.07
21
0.934252
0
LINE
8
BLACK
6
CONTINUOUS
10
3.07
20
0.934252
11
3.06827
21
0.934597
0
LINE
8
BLACK
6
CONTINUOUS
10
3.06827
20
0.934597
11
3.0668
21
0.935578
0
LINE
8
BLACK
6
CONTINUOUS
10
3.0668
20
0.935578
11
3.06582
21
0.937047
0
LINE
8
BLACK
6
CONTINUOUS
10
3.06582
20
0.937047
11
3.06547
21
0.93878
0
LINE
8
BLACK
6
CONTINUOUS
10
3.06547
20
0.93878
11
3.06547
21
0.965748
0
LINE
8
BLACK
6
CONTINUOUS
10
3.06547
20
0.965748
11
3.07453
21
0.965748
0
LINE
8
BLACK
6
CONTINUOUS
10
3.07453
20
0.965748
11
3.07453
21
0.93878
0
LINE
8
BLACK
6
CONTINUOUS
10
3.07453
20
0.93878
11
3.07418
21
0.937047
0
LINE
8
BLACK
6
CONTINUOUS
10
3.09387
20
0.937047
11
3.09289
21
0.935578
0
LINE
8
BLACK
6
CONTINUOUS
10
3.09289
20
0.935578
11
3.09142
21
0.934597
0
LINE
8
BLACK
6
CONTINUOUS
10
3.09142
20
0.934597
11
3.08969
21
0.934252
0
LINE
8
BLACK
6
CONTINUOUS
10
3.08969
20
0.934252
11
3.08795
21
0.934597
0
LINE
8
BLACK
6
CONTINUOUS
10
3.08795
20
0.934597
11
3.08648
21
0.935578
0
LINE
8
BLACK
6
CONTINUOUS
10
3.08648
20
0.935578
11
3.0855
21
0.937047
0
LINE
8
BLACK
6
CONTINUOUS
10
3.0855
20
0.937047
11
3.08516
21
0.93878
0
LINE
8
BLACK
6
CONTINUOUS
10
3.08516
20
0.93878
11
3.08516
21
0.965748
0
LINE
8
BLACK
6
CONTINUOUS
10
3.08516
20
0.965748
11
3.09421
21
0.965748
0
LINE
8
BLACK
6
CONTINUOUS
10
3.09421
20
0.965748
11
3.09421
21
0.93878
0
LINE
8
BLACK
6
CONTINUOUS
10
3.09421
20
0.93878
11
3.09387
21
0.937047
0
LINE
8
BLACK
6
CONTINUOUS
10
3.11355
20
0.937047
11
3.11257
21
0.935578
0
LINE
8
BLACK
6
CONTINUOUS
10
3.11257
20
0.935578
11
3.1111
21
0.934597
0
LINE
8
BLACK
6
CONTINUOUS
10
3.1111
20
0.934597
11
3.10937
21
0.934252
0
LINE
8
BLACK
6
CONTINUOUS
10
3.10937
20
0.934252
11
3.10764
21
0.934597
0
LINE
8
BLACK
6
CONTINUOUS
10
3.10764
20
0.934597
11
3.10617
21
0.935578
0
LINE
8
BLACK
6
CONTINUOUS
10
3.10617
20
0.935578
11
3.10519
21
0.937047
0
LINE
8
BLACK
6
CONTINUOUS
10
3.10519
20
0.937047
11
3.10484
21
0.93878
0
LINE
8
BLACK
6
CONTINUOUS
10
3.10484
20
0.93878
11
3.10484
21
0.965748
0
LINE
8
BLACK
6
CONTINUOUS
10
3.10484
20
0.965748
11
3.1139
21
0.965748
0
LINE
8
BLACK
6
CONTINUOUS
10
3.1139
20
0.965748
11
3.1139
21
0.93878
0
LINE
8
BLACK
6
CONTINUOUS
10
3.1139
20
0.93878
11
3.11355
21
0.937047
0
LINE
8
BLACK
6
CONTINUOUS
10
3.13324
20
0.937047
11
3.13226
21
0.935578
0
LINE
8
BLACK
6
CONTINUOUS
10
3.13226
20
0.935578
11
3.13079
21
0.934597
0
LINE
8
BLACK
6
CONTINUOUS
10
3.13079
20
0.934597
11
3.12906
21
0.934252
0
LINE
8
BLACK
6
CONTINUOUS
10
3.12906
20
0.934252
11
3.12732
21
0.934597
0
LINE
8
BLACK
6
CONTINUOUS
10
3.12732
20
0.934597
11
3.12585
21
0.935578
0
LINE
8
BLACK
6
CONTINUOUS
10
3.12585
20
0.935578
11
3.12487
21
0.937047
0
LINE
8
BLACK
6
CONTINUOUS
10
3.12487
20
0.937047
11
3.12453
21
0.93878
0
LINE
8
BLACK
6
CONTINUOUS
10
3.12453
20
0.93878
11
3.12453
21
0.965748
0
LINE
8
BLACK
6
CONTINUOUS
10
3.12453
20
0.965748
11
3.13358
21
0.965748
0
LINE
8
BLACK
6
CONTINUOUS
10
3.13358
20
0.965748
11
3.13358
21
0.93878
0
LINE
8
BLACK
6
CONTINUOUS
10
3.13358
20
0.93878
11
3.13324
21
0.937047
0
LINE
8
BLACK
6
CONTINUOUS
10
3.15292
20
0.937047
11
3.15194
21
0.935578
0
LINE
8
BLACK
6
CONTINUOUS
10
3.15194
20
0.935578
11
3.15047
21
0.934597
0
LINE
8
BLACK
6
CONTINUOUS
10
3.15047
20
0.934597
11
3.14874
21
0.934252
0
LINE
8
BLACK
6
CONTINUOUS
10
3.14874
20
0.934252
11
3.14701
21
0.934597
0
LINE
8
BLACK
6
CONTINUOUS
10
3.14701
20
0.934597
11
3.14554
21
0.935578
0
LINE
8
BLACK
6
CONTINUOUS
10
3.14554
20
0.935578
11
3.14456
21
0.937047
0
LINE
8
BLACK
6
CONTINUOUS
10
3.14456
20
0.937047
11
3.14421
21
0.93878
0
LINE
8
BLACK
6
CONTINUOUS
10
3.14421
20
0.93878
11
3.14421
21
0.965748
0
LINE
8
BLACK
6
CONTINUOUS
10
3.14421
20
0.965748
11
3.15327
21
0.965748
0
LINE
8
BLACK
6
CONTINUOUS
10
3.15327
20
0.965748
11
3.15327
21
0.93878
0
LINE
8
BLACK
6
CONTINUOUS
10
3.15327
20
0.93878
11
3.15292
21
0.937047
0
LINE
8
BLACK
6
CONTINUOUS
10
2.96247
20
1.03634
11
2.96566
21
1.0342
0
LINE
8
BLACK
6
CONTINUOUS
10
2.96566
20
1.0342
11
2.96779
21
1.03101
0
LINE
8
BLACK
6
CONTINUOUS
10
2.96779
20
1.03101
11
2.96854
21
1.02724
0
LINE
8
BLACK
6
CONTINUOUS
10
2.96854
20
1.02724
11
2.96854
21
1.00756
0
LINE
8
BLACK
6
CONTINUOUS
10
2.96854
20
1.00756
11
2.96779
21
1.00379
0
LINE
8
BLACK
6
CONTINUOUS
10
2.96779
20
1.00379
11
2.96566
21
1.0006
0
LINE
8
BLACK
6
CONTINUOUS
10
2.96566
20
1.0006
11
2.96247
21
0.998466
0
LINE
8
BLACK
6
CONTINUOUS
10
2.96247
20
0.998466
11
2.9587
21
0.997717
0
LINE
8
BLACK
6
CONTINUOUS
10
2.9587
20
0.997717
11
2.9213
21
0.997717
0
LINE
8
BLACK
6
CONTINUOUS
10
2.9213
20
0.997717
11
2.91753
21
0.998466
0
LINE
8
BLACK
6
CONTINUOUS
10
2.91753
20
0.998466
11
2.91434
21
1.0006
0
LINE
8
BLACK
6
CONTINUOUS
10
2.91434
20
1.0006
11
2.91221
21
1.00379
0
LINE
8
BLACK
6
CONTINUOUS
10
2.91221
20
1.00379
11
2.91146
21
1.00756
0
LINE
8
BLACK
6
CONTINUOUS
10
2.91146
20
1.00756
11
2.91146
21
1.02724
0
LINE
8
BLACK
6
CONTINUOUS
10
2.91146
20
1.02724
11
2.91221
21
1.03101
0
LINE
8
BLACK
6
CONTINUOUS
10
2.91221
20
1.03101
11
2.91434
21
1.0342
0
LINE
8
BLACK
6
CONTINUOUS
10
2.91434
20
1.0342
11
2.91753
21
1.03634
0
LINE
8
BLACK
6
CONTINUOUS
10
2.91753
20
1.03634
11
2.9213
21
1.03709
0
LINE
8
BLACK
6
CONTINUOUS
10
2.9213
20
1.03709
11
2.9587
21
1.03709
0
LINE
8
BLACK
6
CONTINUOUS
10
2.9587
20
1.03709
11
2.96247
21
1.03634
0
LINE
8
BLACK
6
CONTINUOUS
10
3.61827
20
1.0278
11
3.40173
21
1.0278
0
LINE
8
BLACK
6
CONTINUOUS
10
3.40173
20
1.0278
11
3.40173
21
1.14591
0
LINE
8
BLACK
6
CONTINUOUS
10
3.40173
20
1.14591
11
3.61827
21
1.14591
0
LINE
8
BLACK
6
CONTINUOUS
10
3.61827
20
1.14591
11
3.61827
21
1.0278
0
LINE
8
BLACK
6
CONTINUOUS
10
3.13621
20
1.10779
11
3.1394
21
1.10566
0
LINE
8
BLACK
6
CONTINUOUS
10
3.1394
20
1.10566
11
3.14153
21
1.10247
0
LINE
8
BLACK
6
CONTINUOUS
10
3.14153
20
1.10247
11
3.14228
21
1.0987
0
LINE
8
BLACK
6
CONTINUOUS
10
3.14228
20
1.0987
11
3.14228
21
1.0613
0
LINE
8
BLACK
6
CONTINUOUS
10
3.14228
20
1.0613
11
3.14153
21
1.05753
0
LINE
8
BLACK
6
CONTINUOUS
10
3.14153
20
1.05753
11
3.1394
21
1.05434
0
LINE
8
BLACK
6
CONTINUOUS
10
3.1394
20
1.05434
11
3.13621
21
1.05221
0
LINE
8
BLACK
6
CONTINUOUS
10
3.13621
20
1.05221
11
3.13244
21
1.05146
0
LINE
8
BLACK
6
CONTINUOUS
10
3.13244
20
1.05146
11
3.11276
21
1.05146
0
LINE
8
BLACK
6
CONTINUOUS
10
3.11276
20
1.05146
11
3.10899
21
1.05221
0
LINE
8
BLACK
6
CONTINUOUS
10
3.10899
20
1.05221
11
3.1058
21
1.05434
0
LINE
8
BLACK
6
CONTINUOUS
10
3.1058
20
1.05434
11
3.10366
21
1.05753
0
LINE
8
BLACK
6
CONTINUOUS
10
3.10366
20
1.05753
11
3.10291
21
1.0613
0
LINE
8
BLACK
6
CONTINUOUS
10
3.10291
20
1.0613
11
3.10291
21
1.0987
0
LINE
8
BLACK
6
CONTINUOUS
10
3.10291
20
1.0987
11
3.10366
21
1.10247
0
LINE
8
BLACK
6
CONTINUOUS
10
3.10366
20
1.10247
11
3.1058
21
1.10566
0
LINE
8
BLACK
6
CONTINUOUS
10
3.1058
20
1.10566
11
3.10899
21
1.10779
0
LINE
8
BLACK
6
CONTINUOUS
10
3.10899
20
1.10779
11
3.11276
21
1.10854
0
LINE
8
BLACK
6
CONTINUOUS
10
3.11276
20
1.10854
11
3.13244
21
1.10854
0
LINE
8
BLACK
6
CONTINUOUS
10
3.13244
20
1.10854
11
3.13621
21
1.10779
0
LINE
8
BLACK
6
CONTINUOUS
10
3.21101
20
1.10779
11
3.2142
21
1.10566
0
LINE
8
BLACK
6
CONTINUOUS
10
3.2142
20
1.10566
11
3.21634
21
1.10247
0
LINE
8
BLACK
6
CONTINUOUS
10
3.21634
20
1.10247
11
3.21709
21
1.0987
0
LINE
8
BLACK
6
CONTINUOUS
10
3.21709
20
1.0987
11
3.21709
21
1.0613
0
LINE
8
BLACK
6
CONTINUOUS
10
3.21709
20
1.0613
11
3.21634
21
1.05753
0
LINE
8
BLACK
6
CONTINUOUS
10
3.21634
20
1.05753
11
3.2142
21
1.05434
0
LINE
8
BLACK
6
CONTINUOUS
10
3.2142
20
1.05434
11
3.21101
21
1.05221
0
LINE
8
BLACK
6
CONTINUOUS
10
3.21101
20
1.05221
11
3.20724
21
1.05146
0
LINE
8
BLACK
6
CONTINUOUS
10
3.20724
20
1.05146
11
3.18756
21
1.05146
0
LINE
8
BLACK
6
CONTINUOUS
10
3.18756
20
1.05146
11
3.18379
21
1.05221
0
LINE
8
BLACK
6
CONTINUOUS
10
3.18379
20
1.05221
11
3.1806
21
1.05434
0
LINE
8
BLACK
6
CONTINUOUS
10
3.1806
20
1.05434
11
3.17847
21
1.05753
0
LINE
8
BLACK
6
CONTINUOUS
10
3.17847
20
1.05753
11
3.17772
21
1.0613
0
LINE
8
BLACK
6
CONTINUOUS
10
3.17772
20
1.0613
11
3.17772
21
1.0987
0
LINE
8
BLACK
6
CONTINUOUS
10
3.17772
20
1.0987
11
3.17847
21
1.10247
0
LINE
8
BLACK
6
CONTINUOUS
10
3.17847
20
1.10247
11
3.1806
21
1.10566
0
LINE
8
BLACK
6
CONTINUOUS
10
3.1806
20
1.10566
11
3.18379
21
1.10779
0
LINE
8
BLACK
6
CONTINUOUS
10
3.18379
20
1.10779
11
3.18756
21
1.10854
0
LINE
8
BLACK
6
CONTINUOUS
10
3.18756
20
1.10854
11
3.20724
21
1.10854
0
LINE
8
BLACK
6
CONTINUOUS
10
3.20724
20
1.10854
11
3.21101
21
1.10779
0
LINE
8
BLACK
6
CONTINUOUS
10
3.05509
20
1.12779
11
3.05828
21
1.12566
0
LINE
8
BLACK
6
CONTINUOUS
10
3.05828
20
1.12566
11
3.06041
21
1.12247
0
LINE
8
BLACK
6
CONTINUOUS
10
3.06041
20
1.12247
11
3.06116
21
1.1187
0
LINE
8
BLACK
6
CONTINUOUS
10
3.06116
20
1.1187
11
3.06116
21
1.0813
0
LINE
8
BLACK
6
CONTINUOUS
10
3.06116
20
1.0813
11
3.06041
21
1.07753
0
LINE
8
BLACK
6
CONTINUOUS
10
3.06041
20
1.07753
11
3.05828
21
1.07434
0
LINE
8
BLACK
6
CONTINUOUS
10
3.05828
20
1.07434
11
3.05509
21
1.07221
0
LINE
8
BLACK
6
CONTINUOUS
10
3.05509
20
1.07221
11
3.05132
21
1.07146
0
LINE
8
BLACK
6
CONTINUOUS
10
3.05132
20
1.07146
11
3.03163
21
1.07146
0
LINE
8
BLACK
6
CONTINUOUS
10
3.03163
20
1.07146
11
3.02787
21
1.07221
0
LINE
8
BLACK
6
CONTINUOUS
10
3.02787
20
1.07221
11
3.02467
21
1.07434
0
LINE
8
BLACK
6
CONTINUOUS
10
3.02467
20
1.07434
11
3.02254
21
1.07753
0
LINE
8
BLACK
6
CONTINUOUS
10
3.02254
20
1.07753
11
3.02179
21
1.0813
0
LINE
8
BLACK
6
CONTINUOUS
10
3.02179
20
1.0813
11
3.02179
21
1.1187
0
LINE
8
BLACK
6
CONTINUOUS
10
3.02179
20
1.1187
11
3.02254
21
1.12247
0
LINE
8
BLACK
6
CONTINUOUS
10
3.02254
20
1.12247
11
3.02467
21
1.12566
0
LINE
8
BLACK
6
CONTINUOUS
10
3.02467
20
1.12566
11
3.02787
21
1.12779
0
LINE
8
BLACK
6
CONTINUOUS
10
3.02787
20
1.12779
11
3.03163
21
1.12854
0
LINE
8
BLACK
6
CONTINUOUS
10
3.03163
20
1.12854
11
3.05132
21
1.12854
0
LINE
8
BLACK
6
CONTINUOUS
10
3.05132
20
1.12854
11
3.05509
21
1.12779
0
LINE
8
BLACK
6
CONTINUOUS
10
2.98028
20
1.12779
11
2.98348
21
1.12566
0
LINE
8
BLACK
6
CONTINUOUS
10
2.98348
20
1.12566
11
2.98561
21
1.12247
0
LINE
8
BLACK
6
CONTINUOUS
10
2.98561
20
1.12247
11
2.98636
21
1.1187
0
LINE
8
BLACK
6
CONTINUOUS
10
2.98636
20
1.1187
11
2.98636
21
1.0813
0
LINE
8
BLACK
6
CONTINUOUS
10
2.98636
20
1.0813
11
2.98561
21
1.07753
0
LINE
8
BLACK
6
CONTINUOUS
10
2.98561
20
1.07753
11
2.98348
21
1.07434
0
LINE
8
BLACK
6
CONTINUOUS
10
2.98348
20
1.07434
11
2.98028
21
1.07221
0
LINE
8
BLACK
6
CONTINUOUS
10
2.98028
20
1.07221
11
2.97652
21
1.07146
0
LINE
8
BLACK
6
CONTINUOUS
10
2.97652
20
1.07146
11
2.95683
21
1.07146
0
LINE
8
BLACK
6
CONTINUOUS
10
2.95683
20
1.07146
11
2.95306
21
1.07221
0
LINE
8
BLACK
6
CONTINUOUS
10
2.95306
20
1.07221
11
2.94987
21
1.07434
0
LINE
8
BLACK
6
CONTINUOUS
10
2.94987
20
1.07434
11
2.94774
21
1.07753
0
LINE
8
BLACK
6
CONTINUOUS
10
2.94774
20
1.07753
11
2.94699
21
1.0813
0
LINE
8
BLACK
6
CONTINUOUS
10
2.94699
20
1.0813
11
2.94699
21
1.1187
0
LINE
8
BLACK
6
CONTINUOUS
10
2.94699
20
1.1187
11
2.94774
21
1.12247
0
LINE
8
BLACK
6
CONTINUOUS
10
2.94774
20
1.12247
11
2.94987
21
1.12566
0
LINE
8
BLACK
6
CONTINUOUS
10
2.94987
20
1.12566
11
2.95306
21
1.12779
0
LINE
8
BLACK
6
CONTINUOUS
10
2.95306
20
1.12779
11
2.95683
21
1.12854
0
LINE
8
BLACK
6
CONTINUOUS
10
2.95683
20
1.12854
11
2.97652
21
1.12854
0
LINE
8
BLACK
6
CONTINUOUS
10
2.97652
20
1.12854
11
2.98028
21
1.12779
0
LINE
8
BLACK
6
CONTINUOUS
10
3.21101
20
1.19779
11
3.2142
21
1.19566
0
LINE
8
BLACK
6
CONTINUOUS
10
3.2142
20
1.19566
11
3.21634
21
1.19247
0
LINE
8
BLACK
6
CONTINUOUS
10
3.21634
20
1.19247
11
3.21709
21
1.1887
0
LINE
8
BLACK
6
CONTINUOUS
10
3.21709
20
1.1887
11
3.21709
21
1.1513
0
LINE
8
BLACK
6
CONTINUOUS
10
3.21709
20
1.1513
11
3.21634
21
1.14753
0
LINE
8
BLACK
6
CONTINUOUS
10
3.21634
20
1.14753
11
3.2142
21
1.14434
0
LINE
8
BLACK
6
CONTINUOUS
10
3.2142
20
1.14434
11
3.21101
21
1.14221
0
LINE
8
BLACK
6
CONTINUOUS
10
3.21101
20
1.14221
11
3.20724
21
1.14146
0
LINE
8
BLACK
6
CONTINUOUS
10
3.20724
20
1.14146
11
3.18756
21
1.14146
0
LINE
8
BLACK
6
CONTINUOUS
10
3.18756
20
1.14146
11
3.18379
21
1.14221
0
LINE
8
BLACK
6
CONTINUOUS
10
3.18379
20
1.14221
11
3.1806
21
1.14434
0
LINE
8
BLACK
6
CONTINUOUS
10
3.1806
20
1.14434
11
3.17847
21
1.14753
0
LINE
8
BLACK
6
CONTINUOUS
10
3.17847
20
1.14753
11
3.17772
21
1.1513
0
LINE
8
BLACK
6
CONTINUOUS
10
3.17772
20
1.1513
11
3.17772
21
1.1887
0
LINE
8
BLACK
6
CONTINUOUS
10
3.17772
20
1.1887
11
3.17847
21
1.19247
0
LINE
8
BLACK
6
CONTINUOUS
10
3.17847
20
1.19247
11
3.1806
21
1.19566
0
LINE
8
BLACK
6
CONTINUOUS
10
3.1806
20
1.19566
11
3.18379
21
1.19779
0
LINE
8
BLACK
6
CONTINUOUS
10
3.18379
20
1.19779
11
3.18756
21
1.19854
0
LINE
8
BLACK
6
CONTINUOUS
10
3.18756
20
1.19854
11
3.20724
21
1.19854
0
LINE
8
BLACK
6
CONTINUOUS
10
3.20724
20
1.19854
11
3.21101
21
1.19779
0
LINE
8
BLACK
6
CONTINUOUS
10
3.13621
20
1.19779
11
3.1394
21
1.19566
0
LINE
8
BLACK
6
CONTINUOUS
10
3.1394
20
1.19566
11
3.14153
21
1.19247
0
LINE
8
BLACK
6
CONTINUOUS
10
3.14153
20
1.19247
11
3.14228
21
1.1887
0
LINE
8
BLACK
6
CONTINUOUS
10
3.14228
20
1.1887
11
3.14228
21
1.1513
0
LINE
8
BLACK
6
CONTINUOUS
10
3.14228
20
1.1513
11
3.14153
21
1.14753
0
LINE
8
BLACK
6
CONTINUOUS
10
3.14153
20
1.14753
11
3.1394
21
1.14434
0
LINE
8
BLACK
6
CONTINUOUS
10
3.1394
20
1.14434
11
3.13621
21
1.14221
0
LINE
8
BLACK
6
CONTINUOUS
10
3.13621
20
1.14221
11
3.13244
21
1.14146
0
LINE
8
BLACK
6
CONTINUOUS
10
3.13244
20
1.14146
11
3.11276
21
1.14146
0
LINE
8
BLACK
6
CONTINUOUS
10
3.11276
20
1.14146
11
3.10899
21
1.14221
0
LINE
8
BLACK
6
CONTINUOUS
10
3.10899
20
1.14221
11
3.1058
21
1.14434
0
LINE
8
BLACK
6
CONTINUOUS
10
3.1058
20
1.14434
11
3.10366
21
1.14753
0
LINE
8
BLACK
6
CONTINUOUS
10
3.10366
20
1.14753
11
3.10291
21
1.1513
0
LINE
8
BLACK
6
CONTINUOUS
10
3.10291
20
1.1513
11
3.10291
21
1.1887
0
LINE
8
BLACK
6
CONTINUOUS
10
3.10291
20
1.1887
11
3.10366
21
1.19247
0
LINE
8
BLACK
6
CONTINUOUS
10
3.10366
20
1.19247
11
3.1058
21
1.19566
0
LINE
8
BLACK
6
CONTINUOUS
10
3.1058
20
1.19566
11
3.10899
21
1.19779
0
LINE
8
BLACK
6
CONTINUOUS
10
3.10899
20
1.19779
11
3.11276
21
1.19854
0
LINE
8
BLACK
6
CONTINUOUS
10
3.11276
20
1.19854
11
3.13244
21
1.19854
0
LINE
8
BLACK
6
CONTINUOUS
10
3.13244
20
1.19854
11
3.13621
21
1.19779
0
LINE
8
BLACK
6
CONTINUOUS
10
2.98225
20
1.22681
11
2.98544
21
1.22468
0
LINE
8
BLACK
6
CONTINUOUS
10
2.98544
20
1.22468
11
2.98758
21
1.22148
0
LINE
8
BLACK
6
CONTINUOUS
10
2.98758
20
1.22148
11
2.98833
21
1.21772
0
LINE
8
BLACK
6
CONTINUOUS
10
2.98833
20
1.21772
11
2.98833
21
1.18228
0
LINE
8
BLACK
6
CONTINUOUS
10
2.98833
20
1.18228
11
2.98758
21
1.17852
0
LINE
8
BLACK
6
CONTINUOUS
10
2.98758
20
1.17852
11
2.98544
21
1.17532
0
LINE
8
BLACK
6
CONTINUOUS
10
2.98544
20
1.17532
11
2.98225
21
1.17319
0
LINE
8
BLACK
6
CONTINUOUS
10
2.98225
20
1.17319
11
2.97848
21
1.17244
0
LINE
8
BLACK
6
CONTINUOUS
10
2.97848
20
1.17244
11
2.95781
21
1.17244
0
LINE
8
BLACK
6
CONTINUOUS
10
2.95781
20
1.17244
11
2.95405
21
1.17319
0
LINE
8
BLACK
6
CONTINUOUS
10
2.95405
20
1.17319
11
2.95086
21
1.17532
0
LINE
8
BLACK
6
CONTINUOUS
10
2.95086
20
1.17532
11
2.94872
21
1.17852
0
LINE
8
BLACK
6
CONTINUOUS
10
2.94872
20
1.17852
11
2.94797
21
1.18228
0
LINE
8
BLACK
6
CONTINUOUS
10
2.94797
20
1.18228
11
2.94797
21
1.21772
0
LINE
8
BLACK
6
CONTINUOUS
10
2.94797
20
1.21772
11
2.94872
21
1.22148
0
LINE
8
BLACK
6
CONTINUOUS
10
2.94872
20
1.22148
11
2.95086
21
1.22468
0
LINE
8
BLACK
6
CONTINUOUS
10
2.95086
20
1.22468
11
2.95405
21
1.22681
0
LINE
8
BLACK
6
CONTINUOUS
10
2.95405
20
1.22681
11
2.95781
21
1.22756
0
LINE
8
BLACK
6
CONTINUOUS
10
2.95781
20
1.22756
11
2.97848
21
1.22756
0
LINE
8
BLACK
6
CONTINUOUS
10
2.97848
20
1.22756
11
2.98225
21
1.22681
0
LINE
8
BLACK
6
CONTINUOUS
10
3.0541
20
1.22681
11
3.05729
21
1.22468
0
LINE
8
BLACK
6
CONTINUOUS
10
3.05729
20
1.22468
11
3.05943
21
1.22148
0
LINE
8
BLACK
6
CONTINUOUS
10
3.05943
20
1.22148
11
3.06018
21
1.21772
0
LINE
8
BLACK
6
CONTINUOUS
10
3.06018
20
1.21772
11
3.06018
21
1.18228
0
LINE
8
BLACK
6
CONTINUOUS
10
3.06018
20
1.18228
11
3.05943
21
1.17852
0
LINE
8
BLACK
6
CONTINUOUS
10
3.05943
20
1.17852
11
3.05729
21
1.17532
0
LINE
8
BLACK
6
CONTINUOUS
10
3.05729
20
1.17532
11
3.0541
21
1.17319
0
LINE
8
BLACK
6
CONTINUOUS
10
3.0541
20
1.17319
11
3.05033
21
1.17244
0
LINE
8
BLACK
6
CONTINUOUS
10
3.05033
20
1.17244
11
3.02967
21
1.17244
0
LINE
8
BLACK
6
CONTINUOUS
10
3.02967
20
1.17244
11
3.0259
21
1.17319
0
LINE
8
BLACK
6
CONTINUOUS
10
3.0259
20
1.17319
11
3.02271
21
1.17532
0
LINE
8
BLACK
6
CONTINUOUS
10
3.02271
20
1.17532
11
3.02057
21
1.17852
0
LINE
8
BLACK
6
CONTINUOUS
10
3.02057
20
1.17852
11
3.01982
21
1.18228
0
LINE
8
BLACK
6
CONTINUOUS
10
3.01982
20
1.18228
11
3.01982
21
1.21772
0
LINE
8
BLACK
6
CONTINUOUS
10
3.01982
20
1.21772
11
3.02057
21
1.22148
0
LINE
8
BLACK
6
CONTINUOUS
10
3.02057
20
1.22148
11
3.02271
21
1.22468
0
LINE
8
BLACK
6
CONTINUOUS
10
3.02271
20
1.22468
11
3.0259
21
1.22681
0
LINE
8
BLACK
6
CONTINUOUS
10
3.0259
20
1.22681
11
3.02967
21
1.22756
0
LINE
8
BLACK
6
CONTINUOUS
10
3.02967
20
1.22756
11
3.05033
21
1.22756
0
LINE
8
BLACK
6
CONTINUOUS
10
3.05033
20
1.22756
11
3.0541
21
1.22681
0
LINE
8
BLACK
6
CONTINUOUS
10
3.13621
20
1.28779
11
3.1394
21
1.28566
0
LINE
8
BLACK
6
CONTINUOUS
10
3.1394
20
1.28566
11
3.14153
21
1.28247
0
LINE
8
BLACK
6
CONTINUOUS
10
3.14153
20
1.28247
11
3.14228
21
1.2787
0
LINE
8
BLACK
6
CONTINUOUS
10
3.14228
20
1.2787
11
3.14228
21
1.2413
0
LINE
8
BLACK
6
CONTINUOUS
10
3.14228
20
1.2413
11
3.14153
21
1.23753
0
LINE
8
BLACK
6
CONTINUOUS
10
3.14153
20
1.23753
11
3.1394
21
1.23434
0
LINE
8
BLACK
6
CONTINUOUS
10
3.1394
20
1.23434
11
3.13621
21
1.23221
0
LINE
8
BLACK
6
CONTINUOUS
10
3.13621
20
1.23221
11
3.13244
21
1.23146
0
LINE
8
BLACK
6
CONTINUOUS
10
3.13244
20
1.23146
11
3.11276
21
1.23146
0
LINE
8
BLACK
6
CONTINUOUS
10
3.11276
20
1.23146
11
3.10899
21
1.23221
0
LINE
8
BLACK
6
CONTINUOUS
10
3.10899
20
1.23221
11
3.1058
21
1.23434
0
LINE
8
BLACK
6
CONTINUOUS
10
3.1058
20
1.23434
11
3.10366
21
1.23753
0
LINE
8
BLACK
6
CONTINUOUS
10
3.10366
20
1.23753
11
3.10291
21
1.2413
0
LINE
8
BLACK
6
CONTINUOUS
10
3.10291
20
1.2413
11
3.10291
21
1.2787
0
LINE
8
BLACK
6
CONTINUOUS
10
3.10291
20
1.2787
11
3.10366
21
1.28247
0
LINE
8
BLACK
6
CONTINUOUS
10
3.10366
20
1.28247
11
3.1058
21
1.28566
0
LINE
8
BLACK
6
CONTINUOUS
10
3.1058
20
1.28566
11
3.10899
21
1.28779
0
LINE
8
BLACK
6
CONTINUOUS
10
3.10899
20
1.28779
11
3.11276
21
1.28854
0
LINE
8
BLACK
6
CONTINUOUS
10
3.11276
20
1.28854
11
3.13244
21
1.28854
0
LINE
8
BLACK
6
CONTINUOUS
10
3.13244
20
1.28854
11
3.13621
21
1.28779
0
LINE
8
BLACK
6
CONTINUOUS
10
3.21101
20
1.28779
11
3.2142
21
1.28566
0
LINE
8
BLACK
6
CONTINUOUS
10
3.2142
20
1.28566
11
3.21634
21
1.28247
0
LINE
8
BLACK
6
CONTINUOUS
10
3.21634
20
1.28247
11
3.21709
21
1.2787
0
LINE
8
BLACK
6
CONTINUOUS
10
3.21709
20
1.2787
11
3.21709
21
1.2413
0
LINE
8
BLACK
6
CONTINUOUS
10
3.21709
20
1.2413
11
3.21634
21
1.23753
0
LINE
8
BLACK
6
CONTINUOUS
10
3.21634
20
1.23753
11
3.2142
21
1.23434
0
LINE
8
BLACK
6
CONTINUOUS
10
3.2142
20
1.23434
11
3.21101
21
1.23221
0
LINE
8
BLACK
6
CONTINUOUS
10
3.21101
20
1.23221
11
3.20724
21
1.23146
0
LINE
8
BLACK
6
CONTINUOUS
10
3.20724
20
1.23146
11
3.18756
21
1.23146
0
LINE
8
BLACK
6
CONTINUOUS
10
3.18756
20
1.23146
11
3.18379
21
1.23221
0
LINE
8
BLACK
6
CONTINUOUS
10
3.18379
20
1.23221
11
3.1806
21
1.23434
0
LINE
8
BLACK
6
CONTINUOUS
10
3.1806
20
1.23434
11
3.17847
21
1.23753
0
LINE
8
BLACK
6
CONTINUOUS
10
3.17847
20
1.23753
11
3.17772
21
1.2413
0
LINE
8
BLACK
6
CONTINUOUS
10
3.17772
20
1.2413
11
3.17772
21
1.2787
0
LINE
8
BLACK
6
CONTINUOUS
10
3.17772
20
1.2787
11
3.17847
21
1.28247
0
LINE
8
BLACK
6
CONTINUOUS
10
3.17847
20
1.28247
11
3.1806
21
1.28566
0
LINE
8
BLACK
6
CONTINUOUS
10
3.1806
20
1.28566
11
3.18379
21
1.28779
0
LINE
8
BLACK
6
CONTINUOUS
10
3.18379
20
1.28779
11
3.18756
21
1.28854
0
LINE
8
BLACK
6
CONTINUOUS
10
3.18756
20
1.28854
11
3.20724
21
1.28854
0
LINE
8
BLACK
6
CONTINUOUS
10
3.20724
20
1.28854
11
3.21101
21
1.28779
0
LINE
8
BLACK
6
CONTINUOUS
10
3.0541
20
1.32681
11
3.05729
21
1.32468
0
LINE
8
BLACK
6
CONTINUOUS
10
3.05729
20
1.32468
11
3.05943
21
1.32148
0
LINE
8
BLACK
6
CONTINUOUS
10
3.05943
20
1.32148
11
3.06018
21
1.31772
0
LINE
8
BLACK
6
CONTINUOUS
10
3.06018
20
1.31772
11
3.06018
21
1.28228
0
LINE
8
BLACK
6
CONTINUOUS
10
3.06018
20
1.28228
11
3.05943
21
1.27852
0
LINE
8
BLACK
6
CONTINUOUS
10
3.05943
20
1.27852
11
3.05729
21
1.27532
0
LINE
8
BLACK
6
CONTINUOUS
10
3.05729
20
1.27532
11
3.0541
21
1.27319
0
LINE
8
BLACK
6
CONTINUOUS
10
3.0541
20
1.27319
11
3.05033
21
1.27244
0
LINE
8
BLACK
6
CONTINUOUS
10
3.05033
20
1.27244
11
3.02967
21
1.27244
0
LINE
8
BLACK
6
CONTINUOUS
10
3.02967
20
1.27244
11
3.0259
21
1.27319
0
LINE
8
BLACK
6
CONTINUOUS
10
3.0259
20
1.27319
11
3.02271
21
1.27532
0
LINE
8
BLACK
6
CONTINUOUS
10
3.02271
20
1.27532
11
3.02057
21
1.27852
0
LINE
8
BLACK
6
CONTINUOUS
10
3.02057
20
1.27852
11
3.01982
21
1.28228
0
LINE
8
BLACK
6
CONTINUOUS
10
3.01982
20
1.28228
11
3.01982
21
1.31772
0
LINE
8
BLACK
6
CONTINUOUS
10
3.01982
20
1.31772
11
3.02057
21
1.32148
0
LINE
8
BLACK
6
CONTINUOUS
10
3.02057
20
1.32148
11
3.02271
21
1.32468
0
LINE
8
BLACK
6
CONTINUOUS
10
3.02271
20
1.32468
11
3.0259
21
1.32681
0
LINE
8
BLACK
6
CONTINUOUS
10
3.0259
20
1.32681
11
3.02967
21
1.32756
0
LINE
8
BLACK
6
CONTINUOUS
10
3.02967
20
1.32756
11
3.05033
21
1.32756
0
LINE
8
BLACK
6
CONTINUOUS
10
3.05033
20
1.32756
11
3.0541
21
1.32681
0
LINE
8
BLACK
6
CONTINUOUS
10
2.98225
20
1.32681
11
2.98544
21
1.32468
0
LINE
8
BLACK
6
CONTINUOUS
10
2.98544
20
1.32468
11
2.98758
21
1.32148
0
LINE
8
BLACK
6
CONTINUOUS
10
2.98758
20
1.32148
11
2.98833
21
1.31772
0
LINE
8
BLACK
6
CONTINUOUS
10
2.98833
20
1.31772
11
2.98833
21
1.28228
0
LINE
8
BLACK
6
CONTINUOUS
10
2.98833
20
1.28228
11
2.98758
21
1.27852
0
LINE
8
BLACK
6
CONTINUOUS
10
2.98758
20
1.27852
11
2.98544
21
1.27532
0
LINE
8
BLACK
6
CONTINUOUS
10
2.98544
20
1.27532
11
2.98225
21
1.27319
0
LINE
8
BLACK
6
CONTINUOUS
10
2.98225
20
1.27319
11
2.97848
21
1.27244
0
LINE
8
BLACK
6
CONTINUOUS
10
2.97848
20
1.27244
11
2.95781
21
1.27244
0
LINE
8
BLACK
6
CONTINUOUS
10
2.95781
20
1.27244
11
2.95405
21
1.27319
0
LINE
8
BLACK
6
CONTINUOUS
10
2.95405
20
1.27319
11
2.95086
21
1.27532
0
LINE
8
BLACK
6
CONTINUOUS
10
2.95086
20
1.27532
11
2.94872
21
1.27852
0
LINE
8
BLACK
6
CONTINUOUS
10
2.94872
20
1.27852
11
2.94797
21
1.28228
0
LINE
8
BLACK
6
CONTINUOUS
10
2.94797
20
1.28228
11
2.94797
21
1.31772
0
LINE
8
BLACK
6
CONTINUOUS
10
2.94797
20
1.31772
11
2.94872
21
1.32148
0
LINE
8
BLACK
6
CONTINUOUS
10
2.94872
20
1.32148
11
2.95086
21
1.32468
0
LINE
8
BLACK
6
CONTINUOUS
10
2.95086
20
1.32468
11
2.95405
21
1.32681
0
LINE
8
BLACK
6
CONTINUOUS
10
2.95405
20
1.32681
11
2.95781
21
1.32756
0
LINE
8
BLACK
6
CONTINUOUS
10
2.95781
20
1.32756
11
2.97848
21
1.32756
0
LINE
8
BLACK
6
CONTINUOUS
10
2.97848
20
1.32756
11
2.98225
21
1.32681
0
LINE
8
BLACK
6
CONTINUOUS
10
3.80392
20
1.87484
11
3.80712
21
1.87271
0
LINE
8
BLACK
6
CONTINUOUS
10
3.80712
20
1.87271
11
3.80925
21
1.86951
0
LINE
8
BLACK
6
CONTINUOUS
10
3.80925
20
1.86951
11
3.81
21
1.86575
0
LINE
8
BLACK
6
CONTINUOUS
10
3.81
20
1.86575
11
3.81
21
1.84606
0
LINE
8
BLACK
6
CONTINUOUS
10
3.81
20
1.84606
11
3.80925
21
1.8423
0
LINE
8
BLACK
6
CONTINUOUS
10
3.80925
20
1.8423
11
3.80712
21
1.8391
0
LINE
8
BLACK
6
CONTINUOUS
10
3.80712
20
1.8391
11
3.80392
21
1.83697
0
LINE
8
BLACK
6
CONTINUOUS
10
3.80392
20
1.83697
11
3.80016
21
1.83622
0
LINE
8
BLACK
6
CONTINUOUS
10
3.80016
20
1.83622
11
3.71354
21
1.83622
0
LINE
8
BLACK
6
CONTINUOUS
10
3.71354
20
1.83622
11
3.70978
21
1.83697
0
LINE
8
BLACK
6
CONTINUOUS
10
3.70978
20
1.83697
11
3.70658
21
1.8391
0
LINE
8
BLACK
6
CONTINUOUS
10
3.70658
20
1.8391
11
3.70445
21
1.8423
0
LINE
8
BLACK
6
CONTINUOUS
10
3.70445
20
1.8423
11
3.7037
21
1.84606
0
LINE
8
BLACK
6
CONTINUOUS
10
3.7037
20
1.84606
11
3.7037
21
1.86575
0
LINE
8
BLACK
6
CONTINUOUS
10
3.7037
20
1.86575
11
3.70445
21
1.86951
0
LINE
8
BLACK
6
CONTINUOUS
10
3.70445
20
1.86951
11
3.70658
21
1.87271
0
LINE
8
BLACK
6
CONTINUOUS
10
3.70658
20
1.87271
11
3.70978
21
1.87484
0
LINE
8
BLACK
6
CONTINUOUS
10
3.70978
20
1.87484
11
3.71354
21
1.87559
0
LINE
8
BLACK
6
CONTINUOUS
10
3.71354
20
1.87559
11
3.80016
21
1.87559
0
LINE
8
BLACK
6
CONTINUOUS
10
3.80016
20
1.87559
11
3.80392
21
1.87484
0
LINE
8
BLACK
6
CONTINUOUS
10
3.91265
20
1.9401
11
3.91457
21
1.93882
0
LINE
8
BLACK
6
CONTINUOUS
10
3.91457
20
1.93882
11
3.91585
21
1.93691
0
LINE
8
BLACK
6
CONTINUOUS
10
3.91585
20
1.93691
11
3.9163
21
1.93465
0
LINE
8
BLACK
6
CONTINUOUS
10
3.9163
20
1.93465
11
3.9163
21
1.92283
0
LINE
8
BLACK
6
CONTINUOUS
10
3.9163
20
1.92283
11
3.91585
21
1.92057
0
LINE
8
BLACK
6
CONTINUOUS
10
3.91585
20
1.92057
11
3.91457
21
1.91866
0
LINE
8
BLACK
6
CONTINUOUS
10
3.91457
20
1.91866
11
3.91265
21
1.91738
0
LINE
8
BLACK
6
CONTINUOUS
10
3.91265
20
1.91738
11
3.91039
21
1.91693
0
LINE
8
BLACK
6
CONTINUOUS
10
3.91039
20
1.91693
11
3.85528
21
1.91693
0
LINE
8
BLACK
6
CONTINUOUS
10
3.85528
20
1.91693
11
3.85302
21
1.91738
0
LINE
8
BLACK
6
CONTINUOUS
10
3.85302
20
1.91738
11
3.8511
21
1.91866
0
LINE
8
BLACK
6
CONTINUOUS
10
3.8511
20
1.91866
11
3.84982
21
1.92057
0
LINE
8
BLACK
6
CONTINUOUS
10
3.84982
20
1.92057
11
3.84937
21
1.92283
0
LINE
8
BLACK
6
CONTINUOUS
10
3.84937
20
1.92283
11
3.84937
21
1.93465
0
LINE
8
BLACK
6
CONTINUOUS
10
3.84937
20
1.93465
11
3.84982
21
1.93691
0
LINE
8
BLACK
6
CONTINUOUS
10
3.84982
20
1.93691
11
3.8511
21
1.93882
0
LINE
8
BLACK
6
CONTINUOUS
10
3.8511
20
1.93882
11
3.85302
21
1.9401
0
LINE
8
BLACK
6
CONTINUOUS
10
3.85302
20
1.9401
11
3.85528
21
1.94055
0
LINE
8
BLACK
6
CONTINUOUS
10
3.85528
20
1.94055
11
3.91039
21
1.94055
0
LINE
8
BLACK
6
CONTINUOUS
10
3.91039
20
1.94055
11
3.91265
21
1.9401
0
LINE
8
BLACK
6
CONTINUOUS
10
3.91265
20
1.98931
11
3.91457
21
1.98803
0
LINE
8
BLACK
6
CONTINUOUS
10
3.91457
20
1.98803
11
3.91585
21
1.98612
0
LINE
8
BLACK
6
CONTINUOUS
10
3.91585
20
1.98612
11
3.9163
21
1.98386
0
LINE
8
BLACK
6
CONTINUOUS
10
3.9163
20
1.98386
11
3.9163
21
1.97205
0
LINE
8
BLACK
6
CONTINUOUS
10
3.9163
20
1.97205
11
3.91585
21
1.96979
0
LINE
8
BLACK
6
CONTINUOUS
10
3.91585
20
1.96979
11
3.91457
21
1.96787
0
LINE
8
BLACK
6
CONTINUOUS
10
3.91457
20
1.96787
11
3.91265
21
1.96659
0
LINE
8
BLACK
6
CONTINUOUS
10
3.91265
20
1.96659
11
3.91039
21
1.96614
0
LINE
8
BLACK
6
CONTINUOUS
10
3.91039
20
1.96614
11
3.85528
21
1.96614
0
LINE
8
BLACK
6
CONTINUOUS
10
3.85528
20
1.96614
11
3.85302
21
1.96659
0
LINE
8
BLACK
6
CONTINUOUS
10
3.85302
20
1.96659
11
3.8511
21
1.96787
0
LINE
8
BLACK
6
CONTINUOUS
10
3.8511
20
1.96787
11
3.84982
21
1.96979
0
LINE
8
BLACK
6
CONTINUOUS
10
3.84982
20
1.96979
11
3.84937
21
1.97205
0
LINE
8
BLACK
6
CONTINUOUS
10
3.84937
20
1.97205
11
3.84937
21
1.98386
0
LINE
8
BLACK
6
CONTINUOUS
10
3.84937
20
1.98386
11
3.84982
21
1.98612
0
LINE
8
BLACK
6
CONTINUOUS
10
3.84982
20
1.98612
11
3.8511
21
1.98803
0
LINE
8
BLACK
6
CONTINUOUS
10
3.8511
20
1.98803
11
3.85302
21
1.98931
0
LINE
8
BLACK
6
CONTINUOUS
10
3.85302
20
1.98931
11
3.85528
21
1.98976
0
LINE
8
BLACK
6
CONTINUOUS
10
3.85528
20
1.98976
11
3.91039
21
1.98976
0
LINE
8
BLACK
6
CONTINUOUS
10
3.91039
20
1.98976
11
3.91265
21
1.98931
0
LINE
8
BLACK
6
CONTINUOUS
10
3.91265
20
2.03853
11
3.91457
21
2.03725
0
LINE
8
BLACK
6
CONTINUOUS
10
3.91457
20
2.03725
11
3.91585
21
2.03533
0
LINE
8
BLACK
6
CONTINUOUS
10
3.91585
20
2.03533
11
3.9163
21
2.03307
0
LINE
8
BLACK
6
CONTINUOUS
10
3.9163
20
2.03307
11
3.9163
21
2.02126
0
LINE
8
BLACK
6
CONTINUOUS
10
3.9163
20
2.02126
11
3.91585
21
2.019
0
LINE
8
BLACK
6
CONTINUOUS
10
3.91585
20
2.019
11
3.91457
21
2.01708
0
LINE
8
BLACK
6
CONTINUOUS
10
3.91457
20
2.01708
11
3.91265
21
2.0158
0
LINE
8
BLACK
6
CONTINUOUS
10
3.91265
20
2.0158
11
3.91039
21
2.01535
0
LINE
8
BLACK
6
CONTINUOUS
10
3.91039
20
2.01535
11
3.85528
21
2.01535
0
LINE
8
BLACK
6
CONTINUOUS
10
3.85528
20
2.01535
11
3.85302
21
2.0158
0
LINE
8
BLACK
6
CONTINUOUS
10
3.85302
20
2.0158
11
3.8511
21
2.01708
0
LINE
8
BLACK
6
CONTINUOUS
10
3.8511
20
2.01708
11
3.84982
21
2.019
0
LINE
8
BLACK
6
CONTINUOUS
10
3.84982
20
2.019
11
3.84937
21
2.02126
0
LINE
8
BLACK
6
CONTINUOUS
10
3.84937
20
2.02126
11
3.84937
21
2.03307
0
LINE
8
BLACK
6
CONTINUOUS
10
3.84937
20
2.03307
11
3.84982
21
2.03533
0
LINE
8
BLACK
6
CONTINUOUS
10
3.84982
20
2.03533
11
3.8511
21
2.03725
0
LINE
8
BLACK
6
CONTINUOUS
10
3.8511
20
2.03725
11
3.85302
21
2.03853
0
LINE
8
BLACK
6
CONTINUOUS
10
3.85302
20
2.03853
11
3.85528
21
2.03898
0
LINE
8
BLACK
6
CONTINUOUS
10
3.85528
20
2.03898
11
3.91039
21
2.03898
0
LINE
8
BLACK
6
CONTINUOUS
10
3.91039
20
2.03898
11
3.91265
21
2.03853
0
LINE
8
BLACK
6
CONTINUOUS
10
3.80392
20
2.11894
11
3.80712
21
2.1168
0
LINE
8
BLACK
6
CONTINUOUS
10
3.80712
20
2.1168
11
3.80925
21
2.11361
0
LINE
8
BLACK
6
CONTINUOUS
10
3.80925
20
2.11361
11
3.81
21
2.10984
0
LINE
8
BLACK
6
CONTINUOUS
10
3.81
20
2.10984
11
3.81
21
2.09016
0
LINE
8
BLACK
6
CONTINUOUS
10
3.81
20
2.09016
11
3.80925
21
2.08639
0
LINE
8
BLACK
6
CONTINUOUS
10
3.80925
20
2.08639
11
3.80712
21
2.0832
0
LINE
8
BLACK
6
CONTINUOUS
10
3.80712
20
2.0832
11
3.80392
21
2.08106
0
LINE
8
BLACK
6
CONTINUOUS
10
3.80392
20
2.08106
11
3.80016
21
2.08031
0
LINE
8
BLACK
6
CONTINUOUS
10
3.80016
20
2.08031
11
3.71354
21
2.08031
0
LINE
8
BLACK
6
CONTINUOUS
10
3.71354
20
2.08031
11
3.70978
21
2.08106
0
LINE
8
BLACK
6
CONTINUOUS
10
3.70978
20
2.08106
11
3.70658
21
2.0832
0
LINE
8
BLACK
6
CONTINUOUS
10
3.70658
20
2.0832
11
3.70445
21
2.08639
0
LINE
8
BLACK
6
CONTINUOUS
10
3.70445
20
2.08639
11
3.7037
21
2.09016
0
LINE
8
BLACK
6
CONTINUOUS
10
3.7037
20
2.09016
11
3.7037
21
2.10984
0
LINE
8
BLACK
6
CONTINUOUS
10
3.7037
20
2.10984
11
3.70445
21
2.11361
0
LINE
8
BLACK
6
CONTINUOUS
10
3.70445
20
2.11361
11
3.70658
21
2.1168
0
LINE
8
BLACK
6
CONTINUOUS
10
3.70658
20
2.1168
11
3.70978
21
2.11894
0
LINE
8
BLACK
6
CONTINUOUS
10
3.70978
20
2.11894
11
3.71354
21
2.11969
0
LINE
8
BLACK
6
CONTINUOUS
10
3.71354
20
2.11969
11
3.80016
21
2.11969
0
LINE
8
BLACK
6
CONTINUOUS
10
3.80016
20
2.11969
11
3.80392
21
2.11894
0
LINE
8
BLACK
6
CONTINUOUS
10
3.91022
20
2.21189
11
3.91342
21
2.20975
0
LINE
8
BLACK
6
CONTINUOUS
10
3.91342
20
2.20975
11
3.91555
21
2.20656
0
LINE
8
BLACK
6
CONTINUOUS
10
3.91555
20
2.20656
11
3.9163
21
2.2028
0
LINE
8
BLACK
6
CONTINUOUS
10
3.9163
20
2.2028
11
3.9163
21
2.18311
0
LINE
8
BLACK
6
CONTINUOUS
10
3.9163
20
2.18311
11
3.91555
21
2.17934
0
LINE
8
BLACK
6
CONTINUOUS
10
3.91555
20
2.17934
11
3.91342
21
2.17615
0
LINE
8
BLACK
6
CONTINUOUS
10
3.91342
20
2.17615
11
3.91022
21
2.17402
0
LINE
8
BLACK
6
CONTINUOUS
10
3.91022
20
2.17402
11
3.90646
21
2.17327
0
LINE
8
BLACK
6
CONTINUOUS
10
3.90646
20
2.17327
11
3.81984
21
2.17327
0
LINE
8
BLACK
6
CONTINUOUS
10
3.81984
20
2.17327
11
3.81608
21
2.17402
0
LINE
8
BLACK
6
CONTINUOUS
10
3.81608
20
2.17402
11
3.81288
21
2.17615
0
LINE
8
BLACK
6
CONTINUOUS
10
3.81288
20
2.17615
11
3.81075
21
2.17934
0
LINE
8
BLACK
6
CONTINUOUS
10
3.81075
20
2.17934
11
3.81
21
2.18311
0
LINE
8
BLACK
6
CONTINUOUS
10
3.81
20
2.18311
11
3.81
21
2.2028
0
LINE
8
BLACK
6
CONTINUOUS
10
3.81
20
2.2028
11
3.81075
21
2.20656
0
LINE
8
BLACK
6
CONTINUOUS
10
3.81075
20
2.20656
11
3.81288
21
2.20975
0
LINE
8
BLACK
6
CONTINUOUS
10
3.81288
20
2.20975
11
3.81608
21
2.21189
0
LINE
8
BLACK
6
CONTINUOUS
10
3.81608
20
2.21189
11
3.81984
21
2.21264
0
LINE
8
BLACK
6
CONTINUOUS
10
3.81984
20
2.21264
11
3.90646
21
2.21264
0
LINE
8
BLACK
6
CONTINUOUS
10
3.90646
20
2.21264
11
3.91022
21
2.21189
0
LINE
8
BLACK
6
CONTINUOUS
10
3.76698
20
2.27715
11
3.7689
21
2.27587
0
LINE
8
BLACK
6
CONTINUOUS
10
3.7689
20
2.27587
11
3.77018
21
2.27395
0
LINE
8
BLACK
6
CONTINUOUS
10
3.77018
20
2.27395
11
3.77063
21
2.27169
0
LINE
8
BLACK
6
CONTINUOUS
10
3.77063
20
2.27169
11
3.77063
21
2.25988
0
LINE
8
BLACK
6
CONTINUOUS
10
3.77063
20
2.25988
11
3.77018
21
2.25762
0
LINE
8
BLACK
6
CONTINUOUS
10
3.77018
20
2.25762
11
3.7689
21
2.25571
0
LINE
8
BLACK
6
CONTINUOUS
10
3.7689
20
2.25571
11
3.76698
21
2.25443
0
LINE
8
BLACK
6
CONTINUOUS
10
3.76698
20
2.25443
11
3.76472
21
2.25398
0
LINE
8
BLACK
6
CONTINUOUS
10
3.76472
20
2.25398
11
3.70961
21
2.25398
0
LINE
8
BLACK
6
CONTINUOUS
10
3.70961
20
2.25398
11
3.70735
21
2.25443
0
LINE
8
BLACK
6
CONTINUOUS
10
3.70735
20
2.25443
11
3.70543
21
2.25571
0
LINE
8
BLACK
6
CONTINUOUS
10
3.70543
20
2.25571
11
3.70415
21
2.25762
0
LINE
8
BLACK
6
CONTINUOUS
10
3.70415
20
2.25762
11
3.7037
21
2.25988
0
LINE
8
BLACK
6
CONTINUOUS
10
3.7037
20
2.25988
11
3.7037
21
2.27169
0
LINE
8
BLACK
6
CONTINUOUS
10
3.7037
20
2.27169
11
3.70415
21
2.27395
0
LINE
8
BLACK
6
CONTINUOUS
10
3.70415
20
2.27395
11
3.70543
21
2.27587
0
LINE
8
BLACK
6
CONTINUOUS
10
3.70543
20
2.27587
11
3.70735
21
2.27715
0
LINE
8
BLACK
6
CONTINUOUS
10
3.70735
20
2.27715
11
3.70961
21
2.2776
0
LINE
8
BLACK
6
CONTINUOUS
10
3.70961
20
2.2776
11
3.76472
21
2.2776
0
LINE
8
BLACK
6
CONTINUOUS
10
3.76472
20
2.2776
11
3.76698
21
2.27715
0
LINE
8
BLACK
6
CONTINUOUS
10
3.76698
20
2.32636
11
3.7689
21
2.32508
0
LINE
8
BLACK
6
CONTINUOUS
10
3.7689
20
2.32508
11
3.77018
21
2.32317
0
LINE
8
BLACK
6
CONTINUOUS
10
3.77018
20
2.32317
11
3.77063
21
2.32091
0
LINE
8
BLACK
6
CONTINUOUS
10
3.77063
20
2.32091
11
3.77063
21
2.30909
0
LINE
8
BLACK
6
CONTINUOUS
10
3.77063
20
2.30909
11
3.77018
21
2.30683
0
LINE
8
BLACK
6
CONTINUOUS
10
3.77018
20
2.30683
11
3.7689
21
2.30492
0
LINE
8
BLACK
6
CONTINUOUS
10
3.7689
20
2.30492
11
3.76698
21
2.30364
0
LINE
8
BLACK
6
CONTINUOUS
10
3.76698
20
2.30364
11
3.76472
21
2.30319
0
LINE
8
BLACK
6
CONTINUOUS
10
3.76472
20
2.30319
11
3.70961
21
2.30319
0
LINE
8
BLACK
6
CONTINUOUS
10
3.70961
20
2.30319
11
3.70735
21
2.30364
0
LINE
8
BLACK
6
CONTINUOUS
10
3.70735
20
2.30364
11
3.70543
21
2.30492
0
LINE
8
BLACK
6
CONTINUOUS
10
3.70543
20
2.30492
11
3.70415
21
2.30683
0
LINE
8
BLACK
6
CONTINUOUS
10
3.70415
20
2.30683
11
3.7037
21
2.30909
0
LINE
8
BLACK
6
CONTINUOUS
10
3.7037
20
2.30909
11
3.7037
21
2.32091
0
LINE
8
BLACK
6
CONTINUOUS
10
3.7037
20
2.32091
11
3.70415
21
2.32317
0
LINE
8
BLACK
6
CONTINUOUS
10
3.70415
20
2.32317
11
3.70543
21
2.32508
0
LINE
8
BLACK
6
CONTINUOUS
10
3.70543
20
2.32508
11
3.70735
21
2.32636
0
LINE
8
BLACK
6
CONTINUOUS
10
3.70735
20
2.32636
11
3.70961
21
2.32681
0
LINE
8
BLACK
6
CONTINUOUS
10
3.70961
20
2.32681
11
3.76472
21
2.32681
0
LINE
8
BLACK
6
CONTINUOUS
10
3.76472
20
2.32681
11
3.76698
21
2.32636
0
LINE
8
BLACK
6
CONTINUOUS
10
3.76698
20
2.37557
11
3.7689
21
2.37429
0
LINE
8
BLACK
6
CONTINUOUS
10
3.7689
20
2.37429
11
3.77018
21
2.37238
0
LINE
8
BLACK
6
CONTINUOUS
10
3.77018
20
2.37238
11
3.77063
21
2.37012
0
LINE
8
BLACK
6
CONTINUOUS
10
3.77063
20
2.37012
11
3.77063
21
2.35831
0
LINE
8
BLACK
6
CONTINUOUS
10
3.77063
20
2.35831
11
3.77018
21
2.35605
0
LINE
8
BLACK
6
CONTINUOUS
10
3.77018
20
2.35605
11
3.7689
21
2.35413
0
LINE
8
BLACK
6
CONTINUOUS
10
3.7689
20
2.35413
11
3.76698
21
2.35285
0
LINE
8
BLACK
6
CONTINUOUS
10
3.76698
20
2.35285
11
3.76472
21
2.3524
0
LINE
8
BLACK
6
CONTINUOUS
10
3.76472
20
2.3524
11
3.70961
21
2.3524
0
LINE
8
BLACK
6
CONTINUOUS
10
3.70961
20
2.3524
11
3.70735
21
2.35285
0
LINE
8
BLACK
6
CONTINUOUS
10
3.70735
20
2.35285
11
3.70543
21
2.35413
0
LINE
8
BLACK
6
CONTINUOUS
10
3.70543
20
2.35413
11
3.70415
21
2.35605
0
LINE
8
BLACK
6
CONTINUOUS
10
3.70415
20
2.35605
11
3.7037
21
2.35831
0
LINE
8
BLACK
6
CONTINUOUS
10
3.7037
20
2.35831
11
3.7037
21
2.37012
0
LINE
8
BLACK
6
CONTINUOUS
10
3.7037
20
2.37012
11
3.70415
21
2.37238
0
LINE
8
BLACK
6
CONTINUOUS
10
3.70415
20
2.37238
11
3.70543
21
2.37429
0
LINE
8
BLACK
6
CONTINUOUS
10
3.70543
20
2.37429
11
3.70735
21
2.37557
0
LINE
8
BLACK
6
CONTINUOUS
10
3.70735
20
2.37557
11
3.70961
21
2.37602
0
LINE
8
BLACK
6
CONTINUOUS
10
3.70961
20
2.37602
11
3.76472
21
2.37602
0
LINE
8
BLACK
6
CONTINUOUS
10
3.76472
20
2.37602
11
3.76698
21
2.37557
0
LINE
8
BLACK
6
CONTINUOUS
10
3.91022
20
2.45598
11
3.91342
21
2.45385
0
LINE
8
BLACK
6
CONTINUOUS
10
3.91342
20
2.45385
11
3.91555
21
2.45066
0
LINE
8
BLACK
6
CONTINUOUS
10
3.91555
20
2.45066
11
3.9163
21
2.44689
0
LINE
8
BLACK
6
CONTINUOUS
10
3.9163
20
2.44689
11
3.9163
21
2.4272
0
LINE
8
BLACK
6
CONTINUOUS
10
3.9163
20
2.4272
11
3.91555
21
2.42344
0
LINE
8
BLACK
6
CONTINUOUS
10
3.91555
20
2.42344
11
3.91342
21
2.42024
0
LINE
8
BLACK
6
CONTINUOUS
10
3.91342
20
2.42024
11
3.91022
21
2.41811
0
LINE
8
BLACK
6
CONTINUOUS
10
3.91022
20
2.41811
11
3.90646
21
2.41736
0
LINE
8
BLACK
6
CONTINUOUS
10
3.90646
20
2.41736
11
3.81984
21
2.41736
0
LINE
8
BLACK
6
CONTINUOUS
10
3.81984
20
2.41736
11
3.81608
21
2.41811
0
LINE
8
BLACK
6
CONTINUOUS
10
3.81608
20
2.41811
11
3.81288
21
2.42024
0
LINE
8
BLACK
6
CONTINUOUS
10
3.81288
20
2.42024
11
3.81075
21
2.42344
0
LINE
8
BLACK
6
CONTINUOUS
10
3.81075
20
2.42344
11
3.81
21
2.4272
0
LINE
8
BLACK
6
CONTINUOUS
10
3.81
20
2.4272
11
3.81
21
2.44689
0
LINE
8
BLACK
6
CONTINUOUS
10
3.81
20
2.44689
11
3.81075
21
2.45066
0
LINE
8
BLACK
6
CONTINUOUS
10
3.81075
20
2.45066
11
3.81288
21
2.45385
0
LINE
8
BLACK
6
CONTINUOUS
10
3.81288
20
2.45385
11
3.81608
21
2.45598
0
LINE
8
BLACK
6
CONTINUOUS
10
3.81608
20
2.45598
11
3.81984
21
2.45673
0
LINE
8
BLACK
6
CONTINUOUS
10
3.81984
20
2.45673
11
3.90646
21
2.45673
0
LINE
8
BLACK
6
CONTINUOUS
10
3.90646
20
2.45673
11
3.91022
21
2.45598
  0
ENDSEC
  0
EOF
