  0
SECTION
  2
HEADER
  9
$ANGBASE
  50
0.0
  9
$ANGDIR
  70
1
  9
$MEASUREMENT
  70
0
  0
ENDSEC
  0
SECTION
  2
TABLES
  0
TABLE
  2
LTYPE
  70
4
  0
LTYPE
  5
40F
  2
CONTINUOUS
  70
0
  3
Solid line
  72
65
  73
0
  40
0.0
  0
LTYPE
  5
410
  2
DASHDOT
 70
0
  3
Dash Dot ____ _ ____ _
 72
65
 73
4
 40
2.0
 49
1.25
 49
-0.25
 49
0.25
 49
-0.25
  0
LTYPE
  5
411
  2
DASHED
 70
0
  3
Dashed __ __ __ __ __
 72
65
 73
2
 40
0.75
 49
0.5
 49
-0.25
  0
LTYPE
  5
43B
  2
DOTTED
 70
0
  3
Dotted .  .  .  .
 72
65
 73
2
 40
0.2
 49
0.0
 49
-0.2
  0
ENDTAB
  0
TABLE
  2
STYLE
  70
4
  0
STYLE
  2
KICAD
  70
0
  40
0
  41
1
  42
1
  50
0
  71
0
  3
isocp.shx
  0
STYLE
  2
KICADB
  70
0
  40
0
  41
1
  42
1
  50
0
  71
0
  3
isocp.shx
  0
STYLE
  2
KICADI
  70
0
  40
0
  41
1
  42
1
  50
15
  71
0
  3
isocp.shx
  0
STYLE
  2
KICADBI
  70
0
  40
0
  41
1
  42
1
  50
15
  71
0
  3
isocp.shx
  0
ENDTAB
  0
TABLE
  2
LAYER
  70
1
  0
LAYER
  2
BLACK
  70
0
  62
7
  6
CONTINUOUS
  0
ENDTAB
  0
ENDSEC
  0
SECTION
  2
ENTITIES
0
LINE
8
BLACK
6
CONTINUOUS
10
2.84646
20
0.0275591
11
2.68898
21
0.0275591
0
LINE
8
BLACK
6
CONTINUOUS
10
2.68898
20
0.0275591
11
2.68898
21
0.185039
0
LINE
8
BLACK
6
CONTINUOUS
10
2.68898
20
0.185039
11
2.84646
21
0.185039
0
LINE
8
BLACK
6
CONTINUOUS
10
2.84646
20
0.185039
11
2.84646
21
0.0275591
0
LINE
8
BLACK
6
CONTINUOUS
10
3.6063
20
0.0275591
11
3.44882
21
0.0275591
0
LINE
8
BLACK
6
CONTINUOUS
10
3.44882
20
0.0275591
11
3.44882
21
0.185039
0
LINE
8
BLACK
6
CONTINUOUS
10
3.44882
20
0.185039
11
3.6063
21
0.185039
0
LINE
8
BLACK
6
CONTINUOUS
10
3.6063
20
0.185039
11
3.6063
21
0.0275591
0
LINE
8
BLACK
6
CONTINUOUS
10
2.01358
20
0.0295276
11
1.8561
21
0.0295276
0
LINE
8
BLACK
6
CONTINUOUS
10
1.8561
20
0.0295276
11
1.8561
21
0.187008
0
LINE
8
BLACK
6
CONTINUOUS
10
1.8561
20
0.187008
11
2.01358
21
0.187008
0
LINE
8
BLACK
6
CONTINUOUS
10
2.01358
20
0.187008
11
2.01358
21
0.0295276
0
LINE
8
BLACK
6
CONTINUOUS
10
1.25374
20
0.0295276
11
1.09626
21
0.0295276
0
LINE
8
BLACK
6
CONTINUOUS
10
1.09626
20
0.0295276
11
1.09626
21
0.187008
0
LINE
8
BLACK
6
CONTINUOUS
10
1.09626
20
0.187008
11
1.25374
21
0.187008
0
LINE
8
BLACK
6
CONTINUOUS
10
1.25374
20
0.187008
11
1.25374
21
0.0295276
0
LINE
8
BLACK
6
CONTINUOUS
10
0.493898
20
0.0295276
11
0.336417
21
0.0295276
0
LINE
8
BLACK
6
CONTINUOUS
10
0.336417
20
0.0295276
11
0.336417
21
0.187008
0
LINE
8
BLACK
6
CONTINUOUS
10
0.336417
20
0.187008
11
0.493898
21
0.187008
0
LINE
8
BLACK
6
CONTINUOUS
10
0.493898
20
0.187008
11
0.493898
21
0.0295276
0
LINE
8
BLACK
6
CONTINUOUS
10
0.0204491
20
3.04955
11
0.0223979
21
3.05097
0
LINE
8
BLACK
6
CONTINUOUS
10
0.0223979
20
3.05097
11
0.0236024
21
3.05116
0
LINE
8
BLACK
6
CONTINUOUS
10
0.0236024
20
3.05116
11
0.32186
21
3.05116
0
LINE
8
BLACK
6
CONTINUOUS
10
0.32186
20
3.05116
11
0.324151
21
3.05042
0
LINE
8
BLACK
6
CONTINUOUS
10
0.324151
20
3.05042
11
0.325567
21
3.04847
0
LINE
8
BLACK
6
CONTINUOUS
10
0.325567
20
3.04847
11
0.325567
21
3.04606
0
LINE
8
BLACK
6
CONTINUOUS
10
0.325567
20
3.04606
11
0.325425
21
3.04569
0
LINE
8
BLACK
6
CONTINUOUS
10
0.325425
20
3.04569
11
0.324843
21
3.04437
0
LINE
8
BLACK
6
CONTINUOUS
10
0.324843
20
3.04437
11
0.32469
21
3.04381
0
LINE
8
BLACK
6
CONTINUOUS
10
0.32469
20
3.04381
11
0.324619
21
3.04321
0
LINE
8
BLACK
6
CONTINUOUS
10
0.324619
20
3.04321
11
0.324606
21
3.04298
0
LINE
8
BLACK
6
CONTINUOUS
10
0.324606
20
3.04298
11
0.324606
21
2.96912
0
LINE
8
BLACK
6
CONTINUOUS
10
0.324606
20
2.96912
11
0.324769
21
2.96862
0
LINE
8
BLACK
6
CONTINUOUS
10
0.324769
20
2.96862
11
0.324931
21
2.9685
0
LINE
8
BLACK
6
CONTINUOUS
10
0.324931
20
2.9685
11
0.336417
21
2.9685
0
LINE
8
BLACK
6
CONTINUOUS
10
0.336417
20
2.9685
11
0.336417
21
3.04134
0
LINE
8
BLACK
6
CONTINUOUS
10
0.336417
20
3.04134
11
0.493898
21
3.04134
0
LINE
8
BLACK
6
CONTINUOUS
10
0.493898
20
3.04134
11
0.493898
21
2.9685
0
LINE
8
BLACK
6
CONTINUOUS
10
0.493898
20
2.9685
11
0.505091
21
2.9685
0
LINE
8
BLACK
6
CONTINUOUS
10
0.505091
20
2.9685
11
0.505591
21
2.96867
0
LINE
8
BLACK
6
CONTINUOUS
10
0.505591
20
2.96867
11
0.505709
21
2.96883
0
LINE
8
BLACK
6
CONTINUOUS
10
0.505709
20
2.96883
11
0.505709
21
3.04298
0
LINE
8
BLACK
6
CONTINUOUS
10
0.505709
20
3.04298
11
0.505695
21
3.04321
0
LINE
8
BLACK
6
CONTINUOUS
10
0.505695
20
3.04321
11
0.505621
21
3.04383
0
LINE
8
BLACK
6
CONTINUOUS
10
0.505621
20
3.04383
11
0.505467
21
3.04439
0
LINE
8
BLACK
6
CONTINUOUS
10
0.505467
20
3.04439
11
0.504894
21
3.04568
0
LINE
8
BLACK
6
CONTINUOUS
10
0.504894
20
3.04568
11
0.504644
21
3.04808
0
LINE
8
BLACK
6
CONTINUOUS
10
0.504644
20
3.04808
11
0.50585
21
3.05016
0
LINE
8
BLACK
6
CONTINUOUS
10
0.50585
20
3.05016
11
0.508052
21
3.05114
0
LINE
8
BLACK
6
CONTINUOUS
10
0.508052
20
3.05114
11
0.508456
21
3.05116
0
LINE
8
BLACK
6
CONTINUOUS
10
0.508456
20
3.05116
11
1.0817
21
3.05116
0
LINE
8
BLACK
6
CONTINUOUS
10
1.0817
20
3.05116
11
1.08399
21
3.05042
0
LINE
8
BLACK
6
CONTINUOUS
10
1.08399
20
3.05042
11
1.08541
21
3.04847
0
LINE
8
BLACK
6
CONTINUOUS
10
1.08541
20
3.04847
11
1.08541
21
3.04606
0
LINE
8
BLACK
6
CONTINUOUS
10
1.08541
20
3.04606
11
1.08527
21
3.04569
0
LINE
8
BLACK
6
CONTINUOUS
10
1.08527
20
3.04569
11
1.08469
21
3.04437
0
LINE
8
BLACK
6
CONTINUOUS
10
1.08469
20
3.04437
11
1.08453
21
3.04381
0
LINE
8
BLACK
6
CONTINUOUS
10
1.08453
20
3.04381
11
1.08446
21
3.04321
0
LINE
8
BLACK
6
CONTINUOUS
10
1.08446
20
3.04321
11
1.08445
21
3.04298
0
LINE
8
BLACK
6
CONTINUOUS
10
1.08445
20
3.04298
11
1.08445
21
2.96912
0
LINE
8
BLACK
6
CONTINUOUS
10
1.08445
20
2.96912
11
1.08461
21
2.96862
0
LINE
8
BLACK
6
CONTINUOUS
10
1.08461
20
2.96862
11
1.08477
21
2.9685
0
LINE
8
BLACK
6
CONTINUOUS
10
1.08477
20
2.9685
11
1.09626
21
2.9685
0
LINE
8
BLACK
6
CONTINUOUS
10
1.09626
20
2.9685
11
1.09626
21
3.04134
0
LINE
8
BLACK
6
CONTINUOUS
10
1.09626
20
3.04134
11
1.25374
21
3.04134
0
LINE
8
BLACK
6
CONTINUOUS
10
1.25374
20
3.04134
11
1.25374
21
2.9685
0
LINE
8
BLACK
6
CONTINUOUS
10
1.25374
20
2.9685
11
1.26493
21
2.9685
0
LINE
8
BLACK
6
CONTINUOUS
10
1.26493
20
2.9685
11
1.26543
21
2.96867
0
LINE
8
BLACK
6
CONTINUOUS
10
1.26543
20
2.96867
11
1.26555
21
2.96883
0
LINE
8
BLACK
6
CONTINUOUS
10
1.26555
20
2.96883
11
1.26555
21
3.04298
0
LINE
8
BLACK
6
CONTINUOUS
10
1.26555
20
3.04298
11
1.26554
21
3.04321
0
LINE
8
BLACK
6
CONTINUOUS
10
1.26554
20
3.04321
11
1.26546
21
3.04383
0
LINE
8
BLACK
6
CONTINUOUS
10
1.26546
20
3.04383
11
1.26531
21
3.04439
0
LINE
8
BLACK
6
CONTINUOUS
10
1.26531
20
3.04439
11
1.26474
21
3.04568
0
LINE
8
BLACK
6
CONTINUOUS
10
1.26474
20
3.04568
11
1.26449
21
3.04808
0
LINE
8
BLACK
6
CONTINUOUS
10
1.26449
20
3.04808
11
1.26569
21
3.05016
0
LINE
8
BLACK
6
CONTINUOUS
10
1.26569
20
3.05016
11
1.26789
21
3.05114
0
LINE
8
BLACK
6
CONTINUOUS
10
1.26789
20
3.05114
11
1.2683
21
3.05116
0
LINE
8
BLACK
6
CONTINUOUS
10
1.2683
20
3.05116
11
1.84154
21
3.05116
0
LINE
8
BLACK
6
CONTINUOUS
10
1.84154
20
3.05116
11
1.84384
21
3.05042
0
LINE
8
BLACK
6
CONTINUOUS
10
1.84384
20
3.05042
11
1.84525
21
3.04847
0
LINE
8
BLACK
6
CONTINUOUS
10
1.84525
20
3.04847
11
1.84525
21
3.04606
0
LINE
8
BLACK
6
CONTINUOUS
10
1.84525
20
3.04606
11
1.84511
21
3.04569
0
LINE
8
BLACK
6
CONTINUOUS
10
1.84511
20
3.04569
11
1.84453
21
3.04437
0
LINE
8
BLACK
6
CONTINUOUS
10
1.84453
20
3.04437
11
1.84438
21
3.04381
0
LINE
8
BLACK
6
CONTINUOUS
10
1.84438
20
3.04381
11
1.8443
21
3.04321
0
LINE
8
BLACK
6
CONTINUOUS
10
1.8443
20
3.04321
11
1.84429
21
3.04298
0
LINE
8
BLACK
6
CONTINUOUS
10
1.84429
20
3.04298
11
1.84429
21
2.96912
0
LINE
8
BLACK
6
CONTINUOUS
10
1.84429
20
2.96912
11
1.84445
21
2.96862
0
LINE
8
BLACK
6
CONTINUOUS
10
1.84445
20
2.96862
11
1.84462
21
2.9685
0
LINE
8
BLACK
6
CONTINUOUS
10
1.84462
20
2.9685
11
1.8561
21
2.9685
0
LINE
8
BLACK
6
CONTINUOUS
10
1.8561
20
2.9685
11
1.8561
21
3.04134
0
LINE
8
BLACK
6
CONTINUOUS
10
1.8561
20
3.04134
11
2.01358
21
3.04134
0
LINE
8
BLACK
6
CONTINUOUS
10
2.01358
20
3.04134
11
2.01358
21
2.9685
0
LINE
8
BLACK
6
CONTINUOUS
10
2.01358
20
2.9685
11
2.02478
21
2.9685
0
LINE
8
BLACK
6
CONTINUOUS
10
2.02478
20
2.9685
11
2.02528
21
2.96867
0
LINE
8
BLACK
6
CONTINUOUS
10
2.02528
20
2.96867
11
2.02539
21
2.96883
0
LINE
8
BLACK
6
CONTINUOUS
10
2.02539
20
2.96883
11
2.02539
21
3.04298
0
LINE
8
BLACK
6
CONTINUOUS
10
2.02539
20
3.04298
11
2.02538
21
3.04321
0
LINE
8
BLACK
6
CONTINUOUS
10
2.02538
20
3.04321
11
2.02531
21
3.04383
0
LINE
8
BLACK
6
CONTINUOUS
10
2.02531
20
3.04383
11
2.02515
21
3.04439
0
LINE
8
BLACK
6
CONTINUOUS
10
2.02515
20
3.04439
11
2.02458
21
3.04568
0
LINE
8
BLACK
6
CONTINUOUS
10
2.02458
20
3.04568
11
2.02433
21
3.04808
0
LINE
8
BLACK
6
CONTINUOUS
10
2.02433
20
3.04808
11
2.02554
21
3.05016
0
LINE
8
BLACK
6
CONTINUOUS
10
2.02554
20
3.05016
11
2.02774
21
3.05114
0
LINE
8
BLACK
6
CONTINUOUS
10
2.02774
20
3.05114
11
2.02814
21
3.05116
0
LINE
8
BLACK
6
CONTINUOUS
10
2.02814
20
3.05116
11
2.67361
21
3.05116
0
LINE
8
BLACK
6
CONTINUOUS
10
2.67361
20
3.05116
11
2.6759
21
3.05042
0
LINE
8
BLACK
6
CONTINUOUS
10
2.6759
20
3.05042
11
2.67732
21
3.04847
0
LINE
8
BLACK
6
CONTINUOUS
10
2.67732
20
3.04847
11
2.67737
21
3.04624
0
LINE
8
BLACK
6
CONTINUOUS
10
2.67737
20
3.04624
11
2.67725
21
3.04578
0
LINE
8
BLACK
6
CONTINUOUS
10
2.67725
20
3.04578
11
2.67718
21
3.04517
0
LINE
8
BLACK
6
CONTINUOUS
10
2.67718
20
3.04517
11
2.67717
21
3.04495
0
LINE
8
BLACK
6
CONTINUOUS
10
2.67717
20
3.04495
11
2.67717
21
2.97109
0
LINE
8
BLACK
6
CONTINUOUS
10
2.67717
20
2.97109
11
2.67733
21
2.97059
0
LINE
8
BLACK
6
CONTINUOUS
10
2.67733
20
2.97059
11
2.67749
21
2.97047
0
LINE
8
BLACK
6
CONTINUOUS
10
2.67749
20
2.97047
11
2.68898
21
2.97047
0
LINE
8
BLACK
6
CONTINUOUS
10
2.68898
20
2.97047
11
2.68898
21
3.04331
0
LINE
8
BLACK
6
CONTINUOUS
10
2.68898
20
3.04331
11
2.84646
21
3.04331
0
LINE
8
BLACK
6
CONTINUOUS
10
2.84646
20
3.04331
11
2.84646
21
2.97047
0
LINE
8
BLACK
6
CONTINUOUS
10
2.84646
20
2.97047
11
2.85765
21
2.97047
0
LINE
8
BLACK
6
CONTINUOUS
10
2.85765
20
2.97047
11
2.85815
21
2.97063
0
LINE
8
BLACK
6
CONTINUOUS
10
2.85815
20
2.97063
11
2.85827
21
2.9708
0
LINE
8
BLACK
6
CONTINUOUS
10
2.85827
20
2.9708
11
2.85827
21
3.04495
0
LINE
8
BLACK
6
CONTINUOUS
10
2.85827
20
3.04495
11
2.85825
21
3.04518
0
LINE
8
BLACK
6
CONTINUOUS
10
2.85825
20
3.04518
11
2.85818
21
3.0458
0
LINE
8
BLACK
6
CONTINUOUS
10
2.85818
20
3.0458
11
2.85806
21
3.04623
0
LINE
8
BLACK
6
CONTINUOUS
10
2.85806
20
3.04623
11
2.85817
21
3.04864
0
LINE
8
BLACK
6
CONTINUOUS
10
2.85817
20
3.04864
11
2.85968
21
3.05052
0
LINE
8
BLACK
6
CONTINUOUS
10
2.85968
20
3.05052
11
2.86182
21
3.05116
0
LINE
8
BLACK
6
CONTINUOUS
10
2.86182
20
3.05116
11
3.43346
21
3.05116
0
LINE
8
BLACK
6
CONTINUOUS
10
3.43346
20
3.05116
11
3.43575
21
3.05042
0
LINE
8
BLACK
6
CONTINUOUS
10
3.43575
20
3.05042
11
3.43716
21
3.04847
0
LINE
8
BLACK
6
CONTINUOUS
10
3.43716
20
3.04847
11
3.43722
21
3.04624
0
LINE
8
BLACK
6
CONTINUOUS
10
3.43722
20
3.04624
11
3.43709
21
3.04578
0
LINE
8
BLACK
6
CONTINUOUS
10
3.43709
20
3.04578
11
3.43702
21
3.04517
0
LINE
8
BLACK
6
CONTINUOUS
10
3.43702
20
3.04517
11
3.43701
21
3.04495
0
LINE
8
BLACK
6
CONTINUOUS
10
3.43701
20
3.04495
11
3.43701
21
2.97109
0
LINE
8
BLACK
6
CONTINUOUS
10
3.43701
20
2.97109
11
3.43717
21
2.97059
0
LINE
8
BLACK
6
CONTINUOUS
10
3.43717
20
2.97059
11
3.43733
21
2.97047
0
LINE
8
BLACK
6
CONTINUOUS
10
3.43733
20
2.97047
11
3.44882
21
2.97047
0
LINE
8
BLACK
6
CONTINUOUS
10
3.44882
20
2.97047
11
3.44882
21
3.04331
0
LINE
8
BLACK
6
CONTINUOUS
10
3.44882
20
3.04331
11
3.6063
21
3.04331
0
LINE
8
BLACK
6
CONTINUOUS
10
3.6063
20
3.04331
11
3.6063
21
2.97047
0
LINE
8
BLACK
6
CONTINUOUS
10
3.6063
20
2.97047
11
3.61749
21
2.97047
0
LINE
8
BLACK
6
CONTINUOUS
10
3.61749
20
2.97047
11
3.61799
21
2.97063
0
LINE
8
BLACK
6
CONTINUOUS
10
3.61799
20
2.97063
11
3.61811
21
2.9708
0
LINE
8
BLACK
6
CONTINUOUS
10
3.61811
20
2.9708
11
3.61811
21
3.04495
0
LINE
8
BLACK
6
CONTINUOUS
10
3.61811
20
3.04495
11
3.6181
21
3.04518
0
LINE
8
BLACK
6
CONTINUOUS
10
3.6181
20
3.04518
11
3.61802
21
3.0458
0
LINE
8
BLACK
6
CONTINUOUS
10
3.61802
20
3.0458
11
3.6179
21
3.04623
0
LINE
8
BLACK
6
CONTINUOUS
10
3.6179
20
3.04623
11
3.61801
21
3.04864
0
LINE
8
BLACK
6
CONTINUOUS
10
3.61801
20
3.04864
11
3.61952
21
3.05052
0
LINE
8
BLACK
6
CONTINUOUS
10
3.61952
20
3.05052
11
3.62166
21
3.05116
0
LINE
8
BLACK
6
CONTINUOUS
10
3.62166
20
3.05116
11
3.91341
21
3.05116
0
LINE
8
BLACK
6
CONTINUOUS
10
3.91341
20
3.05116
11
3.9157
21
3.05042
0
LINE
8
BLACK
6
CONTINUOUS
10
3.9157
20
3.05042
11
3.91711
21
3.04847
0
LINE
8
BLACK
6
CONTINUOUS
10
3.91711
20
3.04847
11
3.9173
21
3.04726
0
LINE
8
BLACK
6
CONTINUOUS
10
3.9173
20
3.04726
11
3.9173
21
0.0236024
0
LINE
8
BLACK
6
CONTINUOUS
10
3.9173
20
0.0236024
11
3.91656
21
0.0213114
0
LINE
8
BLACK
6
CONTINUOUS
10
3.91656
20
0.0213114
11
3.91461
21
0.0198955
0
LINE
8
BLACK
6
CONTINUOUS
10
3.91461
20
0.0198955
11
3.91341
21
0.0197047
0
LINE
8
BLACK
6
CONTINUOUS
10
3.91341
20
0.0197047
11
3.62168
21
0.0197047
0
LINE
8
BLACK
6
CONTINUOUS
10
3.62168
20
0.0197047
11
3.61939
21
0.0204491
0
LINE
8
BLACK
6
CONTINUOUS
10
3.61939
20
0.0204491
11
3.61798
21
0.0223979
0
LINE
8
BLACK
6
CONTINUOUS
10
3.61798
20
0.0223979
11
3.61792
21
0.0245892
0
LINE
8
BLACK
6
CONTINUOUS
10
3.61792
20
0.0245892
11
3.61801
21
0.0247903
0
LINE
8
BLACK
6
CONTINUOUS
10
3.61801
20
0.0247903
11
3.61806
21
0.0251783
0
LINE
8
BLACK
6
CONTINUOUS
10
3.61806
20
0.0251783
11
3.61812
21
0.0256892
0
LINE
8
BLACK
6
CONTINUOUS
10
3.61812
20
0.0256892
11
3.61812
21
0.0256893
0
LINE
8
BLACK
6
CONTINUOUS
10
3.61812
20
0.0256893
11
3.61813
21
0.0258013
0
LINE
8
BLACK
6
CONTINUOUS
10
3.61813
20
0.0258013
11
3.61813
21
0.186797
0
LINE
8
BLACK
6
CONTINUOUS
10
3.61813
20
0.186797
11
3.61801
21
0.187829
0
LINE
8
BLACK
6
CONTINUOUS
10
3.61801
20
0.187829
11
3.61622
21
0.191856
0
LINE
8
BLACK
6
CONTINUOUS
10
3.61622
20
0.191856
11
3.6131
21
0.19497
0
LINE
8
BLACK
6
CONTINUOUS
10
3.6131
20
0.19497
11
3.61195
21
0.195477
0
LINE
8
BLACK
6
CONTINUOUS
10
3.61195
20
0.195477
11
3.60934
21
0.196634
0
LINE
8
BLACK
6
CONTINUOUS
10
3.60934
20
0.196634
11
3.60934
21
0.196634
0
LINE
8
BLACK
6
CONTINUOUS
10
3.60934
20
0.196634
11
3.60907
21
0.196752
0
LINE
8
BLACK
6
CONTINUOUS
10
3.60907
20
0.196752
11
3.60852
21
0.196816
0
LINE
8
BLACK
6
CONTINUOUS
10
3.60852
20
0.196816
11
3.60817
21
0.196857
0
LINE
8
BLACK
6
CONTINUOUS
10
3.60817
20
0.196857
11
3.60817
21
0.196857
0
LINE
8
BLACK
6
CONTINUOUS
10
3.60817
20
0.196857
11
3.60806
21
0.19687
0
LINE
8
BLACK
6
CONTINUOUS
10
3.60806
20
0.19687
11
3.44706
21
0.19687
0
LINE
8
BLACK
6
CONTINUOUS
10
3.44706
20
0.19687
11
3.44642
21
0.196793
0
LINE
8
BLACK
6
CONTINUOUS
10
3.44642
20
0.196793
11
3.44632
21
0.196782
0
LINE
8
BLACK
6
CONTINUOUS
10
3.44632
20
0.196782
11
3.44632
21
0.196782
0
LINE
8
BLACK
6
CONTINUOUS
10
3.44632
20
0.196782
11
3.44603
21
0.196747
0
LINE
8
BLACK
6
CONTINUOUS
10
3.44603
20
0.196747
11
3.442
21
0.194958
0
LINE
8
BLACK
6
CONTINUOUS
10
3.442
20
0.194958
11
3.43889
21
0.191839
0
LINE
8
BLACK
6
CONTINUOUS
10
3.43889
20
0.191839
11
3.43874
21
0.19151
0
LINE
8
BLACK
6
CONTINUOUS
10
3.43874
20
0.19151
11
3.43758
21
0.188878
0
LINE
8
BLACK
6
CONTINUOUS
10
3.43758
20
0.188878
11
3.43711
21
0.187808
0
LINE
8
BLACK
6
CONTINUOUS
10
3.43711
20
0.187808
11
3.43699
21
0.186797
0
LINE
8
BLACK
6
CONTINUOUS
10
3.43699
20
0.186797
11
3.43699
21
0.0258013
0
LINE
8
BLACK
6
CONTINUOUS
10
3.43699
20
0.0258013
11
3.43711
21
0.0247698
0
LINE
8
BLACK
6
CONTINUOUS
10
3.43711
20
0.0247698
11
3.43719
21
0.0245894
0
LINE
8
BLACK
6
CONTINUOUS
10
3.43719
20
0.0245894
11
3.43708
21
0.022229
0
LINE
8
BLACK
6
CONTINUOUS
10
3.43708
20
0.022229
11
3.43558
21
0.0203472
0
LINE
8
BLACK
6
CONTINUOUS
10
3.43558
20
0.0203472
11
3.43343
21
0.0197047
0
LINE
8
BLACK
6
CONTINUOUS
10
3.43343
20
0.0197047
11
2.86184
21
0.0197047
0
LINE
8
BLACK
6
CONTINUOUS
10
2.86184
20
0.0197047
11
2.85955
21
0.0204491
0
LINE
8
BLACK
6
CONTINUOUS
10
2.85955
20
0.0204491
11
2.85813
21
0.0223979
0
LINE
8
BLACK
6
CONTINUOUS
10
2.85813
20
0.0223979
11
2.85808
21
0.0245892
0
LINE
8
BLACK
6
CONTINUOUS
10
2.85808
20
0.0245892
11
2.85817
21
0.0247903
0
LINE
8
BLACK
6
CONTINUOUS
10
2.85817
20
0.0247903
11
2.85821
21
0.0251783
0
LINE
8
BLACK
6
CONTINUOUS
10
2.85821
20
0.0251783
11
2.85827
21
0.0256892
0
LINE
8
BLACK
6
CONTINUOUS
10
2.85827
20
0.0256892
11
2.85827
21
0.0256893
0
LINE
8
BLACK
6
CONTINUOUS
10
2.85827
20
0.0256893
11
2.85829
21
0.0258013
0
LINE
8
BLACK
6
CONTINUOUS
10
2.85829
20
0.0258013
11
2.85829
21
0.186797
0
LINE
8
BLACK
6
CONTINUOUS
10
2.85829
20
0.186797
11
2.85816
21
0.187829
0
LINE
8
BLACK
6
CONTINUOUS
10
2.85816
20
0.187829
11
2.85638
21
0.191856
0
LINE
8
BLACK
6
CONTINUOUS
10
2.85638
20
0.191856
11
2.85326
21
0.19497
0
LINE
8
BLACK
6
CONTINUOUS
10
2.85326
20
0.19497
11
2.85211
21
0.195477
0
LINE
8
BLACK
6
CONTINUOUS
10
2.85211
20
0.195477
11
2.84949
21
0.196634
0
LINE
8
BLACK
6
CONTINUOUS
10
2.84949
20
0.196634
11
2.84949
21
0.196634
0
LINE
8
BLACK
6
CONTINUOUS
10
2.84949
20
0.196634
11
2.84923
21
0.196752
0
LINE
8
BLACK
6
CONTINUOUS
10
2.84923
20
0.196752
11
2.84867
21
0.196816
0
LINE
8
BLACK
6
CONTINUOUS
10
2.84867
20
0.196816
11
2.84833
21
0.196857
0
LINE
8
BLACK
6
CONTINUOUS
10
2.84833
20
0.196857
11
2.84833
21
0.196857
0
LINE
8
BLACK
6
CONTINUOUS
10
2.84833
20
0.196857
11
2.84821
21
0.19687
0
LINE
8
BLACK
6
CONTINUOUS
10
2.84821
20
0.19687
11
2.68722
21
0.19687
0
LINE
8
BLACK
6
CONTINUOUS
10
2.68722
20
0.19687
11
2.68657
21
0.196793
0
LINE
8
BLACK
6
CONTINUOUS
10
2.68657
20
0.196793
11
2.68648
21
0.196782
0
LINE
8
BLACK
6
CONTINUOUS
10
2.68648
20
0.196782
11
2.68648
21
0.196782
0
LINE
8
BLACK
6
CONTINUOUS
10
2.68648
20
0.196782
11
2.68619
21
0.196747
0
LINE
8
BLACK
6
CONTINUOUS
10
2.68619
20
0.196747
11
2.68216
21
0.194958
0
LINE
8
BLACK
6
CONTINUOUS
10
2.68216
20
0.194958
11
2.67905
21
0.191839
0
LINE
8
BLACK
6
CONTINUOUS
10
2.67905
20
0.191839
11
2.6789
21
0.19151
0
LINE
8
BLACK
6
CONTINUOUS
10
2.6789
20
0.19151
11
2.67774
21
0.188878
0
LINE
8
BLACK
6
CONTINUOUS
10
2.67774
20
0.188878
11
2.67726
21
0.187808
0
LINE
8
BLACK
6
CONTINUOUS
10
2.67726
20
0.187808
11
2.67715
21
0.186797
0
LINE
8
BLACK
6
CONTINUOUS
10
2.67715
20
0.186797
11
2.67715
21
0.0258013
0
LINE
8
BLACK
6
CONTINUOUS
10
2.67715
20
0.0258013
11
2.67727
21
0.0247698
0
LINE
8
BLACK
6
CONTINUOUS
10
2.67727
20
0.0247698
11
2.67735
21
0.0245894
0
LINE
8
BLACK
6
CONTINUOUS
10
2.67735
20
0.0245894
11
2.67724
21
0.022229
0
LINE
8
BLACK
6
CONTINUOUS
10
2.67724
20
0.022229
11
2.67574
21
0.0203472
0
LINE
8
BLACK
6
CONTINUOUS
10
2.67574
20
0.0203472
11
2.67359
21
0.0197047
0
LINE
8
BLACK
6
CONTINUOUS
10
2.67359
20
0.0197047
11
2.02816
21
0.0197047
0
LINE
8
BLACK
6
CONTINUOUS
10
2.02816
20
0.0197047
11
2.02587
21
0.0204491
0
LINE
8
BLACK
6
CONTINUOUS
10
2.02587
20
0.0204491
11
2.02445
21
0.0223979
0
LINE
8
BLACK
6
CONTINUOUS
10
2.02445
20
0.0223979
11
2.02445
21
0.0248068
0
LINE
8
BLACK
6
CONTINUOUS
10
2.02445
20
0.0248068
11
2.0246
21
0.0251783
0
LINE
8
BLACK
6
CONTINUOUS
10
2.0246
20
0.0251783
11
2.02518
21
0.0264907
0
LINE
8
BLACK
6
CONTINUOUS
10
2.02518
20
0.0264907
11
2.02518
21
0.0264908
0
LINE
8
BLACK
6
CONTINUOUS
10
2.02518
20
0.0264908
11
2.0253
21
0.0267588
0
LINE
8
BLACK
6
CONTINUOUS
10
2.0253
20
0.0267588
11
2.02541
21
0.0277698
0
LINE
8
BLACK
6
CONTINUOUS
10
2.02541
20
0.0277698
11
2.02541
21
0.188766
0
LINE
8
BLACK
6
CONTINUOUS
10
2.02541
20
0.188766
11
2.02529
21
0.189797
0
LINE
8
BLACK
6
CONTINUOUS
10
2.02529
20
0.189797
11
2.0235
21
0.193825
0
LINE
8
BLACK
6
CONTINUOUS
10
2.0235
20
0.193825
11
2.02038
21
0.196939
0
LINE
8
BLACK
6
CONTINUOUS
10
2.02038
20
0.196939
11
2.01924
21
0.197446
0
LINE
8
BLACK
6
CONTINUOUS
10
2.01924
20
0.197446
11
2.01662
21
0.198602
0
LINE
8
BLACK
6
CONTINUOUS
10
2.01662
20
0.198602
11
2.01662
21
0.198602
0
LINE
8
BLACK
6
CONTINUOUS
10
2.01662
20
0.198602
11
2.01635
21
0.198721
0
LINE
8
BLACK
6
CONTINUOUS
10
2.01635
20
0.198721
11
2.0158
21
0.198785
0
LINE
8
BLACK
6
CONTINUOUS
10
2.0158
20
0.198785
11
2.01545
21
0.198826
0
LINE
8
BLACK
6
CONTINUOUS
10
2.01545
20
0.198826
11
2.01545
21
0.198826
0
LINE
8
BLACK
6
CONTINUOUS
10
2.01545
20
0.198826
11
2.01534
21
0.198839
0
LINE
8
BLACK
6
CONTINUOUS
10
2.01534
20
0.198839
11
1.85434
21
0.198839
0
LINE
8
BLACK
6
CONTINUOUS
10
1.85434
20
0.198839
11
1.8537
21
0.198762
0
LINE
8
BLACK
6
CONTINUOUS
10
1.8537
20
0.198762
11
1.8536
21
0.19875
0
LINE
8
BLACK
6
CONTINUOUS
10
1.8536
20
0.19875
11
1.8536
21
0.19875
0
LINE
8
BLACK
6
CONTINUOUS
10
1.8536
20
0.19875
11
1.85331
21
0.198716
0
LINE
8
BLACK
6
CONTINUOUS
10
1.85331
20
0.198716
11
1.84929
21
0.196927
0
LINE
8
BLACK
6
CONTINUOUS
10
1.84929
20
0.196927
11
1.84617
21
0.193808
0
LINE
8
BLACK
6
CONTINUOUS
10
1.84617
20
0.193808
11
1.84603
21
0.193479
0
LINE
8
BLACK
6
CONTINUOUS
10
1.84603
20
0.193479
11
1.84541
21
0.192094
0
LINE
8
BLACK
6
CONTINUOUS
10
1.84541
20
0.192094
11
1.84439
21
0.189777
0
LINE
8
BLACK
6
CONTINUOUS
10
1.84439
20
0.189777
11
1.84427
21
0.188766
0
LINE
8
BLACK
6
CONTINUOUS
10
1.84427
20
0.188766
11
1.84427
21
0.0277698
0
LINE
8
BLACK
6
CONTINUOUS
10
1.84427
20
0.0277698
11
1.84439
21
0.0267383
0
LINE
8
BLACK
6
CONTINUOUS
10
1.84439
20
0.0267383
11
1.84451
21
0.0264711
0
LINE
8
BLACK
6
CONTINUOUS
10
1.84451
20
0.0264711
11
1.84508
21
0.0251846
0
LINE
8
BLACK
6
CONTINUOUS
10
1.84508
20
0.0251846
11
1.84533
21
0.0227887
0
LINE
8
BLACK
6
CONTINUOUS
10
1.84533
20
0.0227887
11
1.84413
21
0.0207036
0
LINE
8
BLACK
6
CONTINUOUS
10
1.84413
20
0.0207036
11
1.84193
21
0.0197257
0
LINE
8
BLACK
6
CONTINUOUS
10
1.84193
20
0.0197257
11
1.84152
21
0.0197047
0
LINE
8
BLACK
6
CONTINUOUS
10
1.84152
20
0.0197047
11
1.26832
21
0.0197047
0
LINE
8
BLACK
6
CONTINUOUS
10
1.26832
20
0.0197047
11
1.26603
21
0.0204491
0
LINE
8
BLACK
6
CONTINUOUS
10
1.26603
20
0.0204491
11
1.26461
21
0.0223979
0
LINE
8
BLACK
6
CONTINUOUS
10
1.26461
20
0.0223979
11
1.26461
21
0.0248068
0
LINE
8
BLACK
6
CONTINUOUS
10
1.26461
20
0.0248068
11
1.26475
21
0.0251783
0
LINE
8
BLACK
6
CONTINUOUS
10
1.26475
20
0.0251783
11
1.26533
21
0.0264907
0
LINE
8
BLACK
6
CONTINUOUS
10
1.26533
20
0.0264907
11
1.26533
21
0.0264908
0
LINE
8
BLACK
6
CONTINUOUS
10
1.26533
20
0.0264908
11
1.26545
21
0.0267588
0
LINE
8
BLACK
6
CONTINUOUS
10
1.26545
20
0.0267588
11
1.26557
21
0.0277698
0
LINE
8
BLACK
6
CONTINUOUS
10
1.26557
20
0.0277698
11
1.26557
21
0.188766
0
LINE
8
BLACK
6
CONTINUOUS
10
1.26557
20
0.188766
11
1.26545
21
0.189797
0
LINE
8
BLACK
6
CONTINUOUS
10
1.26545
20
0.189797
11
1.26366
21
0.193825
0
LINE
8
BLACK
6
CONTINUOUS
10
1.26366
20
0.193825
11
1.26054
21
0.196939
0
LINE
8
BLACK
6
CONTINUOUS
10
1.26054
20
0.196939
11
1.25939
21
0.197446
0
LINE
8
BLACK
6
CONTINUOUS
10
1.25939
20
0.197446
11
1.25678
21
0.198602
0
LINE
8
BLACK
6
CONTINUOUS
10
1.25678
20
0.198602
11
1.25678
21
0.198602
0
LINE
8
BLACK
6
CONTINUOUS
10
1.25678
20
0.198602
11
1.25651
21
0.198721
0
LINE
8
BLACK
6
CONTINUOUS
10
1.25651
20
0.198721
11
1.25596
21
0.198785
0
LINE
8
BLACK
6
CONTINUOUS
10
1.25596
20
0.198785
11
1.25561
21
0.198826
0
LINE
8
BLACK
6
CONTINUOUS
10
1.25561
20
0.198826
11
1.25561
21
0.198826
0
LINE
8
BLACK
6
CONTINUOUS
10
1.25561
20
0.198826
11
1.2555
21
0.198839
0
LINE
8
BLACK
6
CONTINUOUS
10
1.2555
20
0.198839
11
1.0945
21
0.198839
0
LINE
8
BLACK
6
CONTINUOUS
10
1.0945
20
0.198839
11
1.09386
21
0.198762
0
LINE
8
BLACK
6
CONTINUOUS
10
1.09386
20
0.198762
11
1.09376
21
0.19875
0
LINE
8
BLACK
6
CONTINUOUS
10
1.09376
20
0.19875
11
1.09376
21
0.19875
0
LINE
8
BLACK
6
CONTINUOUS
10
1.09376
20
0.19875
11
1.09347
21
0.198716
0
LINE
8
BLACK
6
CONTINUOUS
10
1.09347
20
0.198716
11
1.08944
21
0.196927
0
LINE
8
BLACK
6
CONTINUOUS
10
1.08944
20
0.196927
11
1.08633
21
0.193808
0
LINE
8
BLACK
6
CONTINUOUS
10
1.08633
20
0.193808
11
1.08618
21
0.193479
0
LINE
8
BLACK
6
CONTINUOUS
10
1.08618
20
0.193479
11
1.08557
21
0.192094
0
LINE
8
BLACK
6
CONTINUOUS
10
1.08557
20
0.192094
11
1.08455
21
0.189777
0
LINE
8
BLACK
6
CONTINUOUS
10
1.08455
20
0.189777
11
1.08443
21
0.188766
0
LINE
8
BLACK
6
CONTINUOUS
10
1.08443
20
0.188766
11
1.08443
21
0.0277698
0
LINE
8
BLACK
6
CONTINUOUS
10
1.08443
20
0.0277698
11
1.08455
21
0.0267383
0
LINE
8
BLACK
6
CONTINUOUS
10
1.08455
20
0.0267383
11
1.08467
21
0.0264711
0
LINE
8
BLACK
6
CONTINUOUS
10
1.08467
20
0.0264711
11
1.08524
21
0.0251846
0
LINE
8
BLACK
6
CONTINUOUS
10
1.08524
20
0.0251846
11
1.08549
21
0.0227887
0
LINE
8
BLACK
6
CONTINUOUS
10
1.08549
20
0.0227887
11
1.08429
21
0.0207036
0
LINE
8
BLACK
6
CONTINUOUS
10
1.08429
20
0.0207036
11
1.08208
21
0.0197257
0
LINE
8
BLACK
6
CONTINUOUS
10
1.08208
20
0.0197257
11
1.08168
21
0.0197047
0
LINE
8
BLACK
6
CONTINUOUS
10
1.08168
20
0.0197047
11
0.508477
21
0.0197047
0
LINE
8
BLACK
6
CONTINUOUS
10
0.508477
20
0.0197047
11
0.506186
21
0.0204491
0
LINE
8
BLACK
6
CONTINUOUS
10
0.506186
20
0.0204491
11
0.50477
21
0.0223979
0
LINE
8
BLACK
6
CONTINUOUS
10
0.50477
20
0.0223979
11
0.50477
21
0.0248068
0
LINE
8
BLACK
6
CONTINUOUS
10
0.50477
20
0.0248068
11
0.504912
21
0.0251783
0
LINE
8
BLACK
6
CONTINUOUS
10
0.504912
20
0.0251783
11
0.505492
21
0.0264907
0
LINE
8
BLACK
6
CONTINUOUS
10
0.505492
20
0.0264907
11
0.505492
21
0.0264908
0
LINE
8
BLACK
6
CONTINUOUS
10
0.505492
20
0.0264908
11
0.50561
21
0.0267588
0
LINE
8
BLACK
6
CONTINUOUS
10
0.50561
20
0.0267588
11
0.505728
21
0.0277698
0
LINE
8
BLACK
6
CONTINUOUS
10
0.505728
20
0.0277698
11
0.505728
21
0.188766
0
LINE
8
BLACK
6
CONTINUOUS
10
0.505728
20
0.188766
11
0.505606
21
0.189797
0
LINE
8
BLACK
6
CONTINUOUS
10
0.505606
20
0.189797
11
0.503816
21
0.193825
0
LINE
8
BLACK
6
CONTINUOUS
10
0.503816
20
0.193825
11
0.500697
21
0.196939
0
LINE
8
BLACK
6
CONTINUOUS
10
0.500697
20
0.196939
11
0.499551
21
0.197446
0
LINE
8
BLACK
6
CONTINUOUS
10
0.499551
20
0.197446
11
0.496934
21
0.198602
0
LINE
8
BLACK
6
CONTINUOUS
10
0.496934
20
0.198602
11
0.496934
21
0.198602
0
LINE
8
BLACK
6
CONTINUOUS
10
0.496934
20
0.198602
11
0.496666
21
0.198721
0
LINE
8
BLACK
6
CONTINUOUS
10
0.496666
20
0.198721
11
0.496115
21
0.198785
0
LINE
8
BLACK
6
CONTINUOUS
10
0.496115
20
0.198785
11
0.495767
21
0.198826
0
LINE
8
BLACK
6
CONTINUOUS
10
0.495767
20
0.198826
11
0.495767
21
0.198826
0
LINE
8
BLACK
6
CONTINUOUS
10
0.495767
20
0.198826
11
0.495655
21
0.198839
0
LINE
8
BLACK
6
CONTINUOUS
10
0.495655
20
0.198839
11
0.33466
21
0.198839
0
LINE
8
BLACK
6
CONTINUOUS
10
0.33466
20
0.198839
11
0.334014
21
0.198762
0
LINE
8
BLACK
6
CONTINUOUS
10
0.334014
20
0.198762
11
0.333919
21
0.19875
0
LINE
8
BLACK
6
CONTINUOUS
10
0.333919
20
0.19875
11
0.333919
21
0.19875
0
LINE
8
BLACK
6
CONTINUOUS
10
0.333919
20
0.19875
11
0.333628
21
0.198716
0
LINE
8
BLACK
6
CONTINUOUS
10
0.333628
20
0.198716
11
0.3296
21
0.196927
0
LINE
8
BLACK
6
CONTINUOUS
10
0.3296
20
0.196927
11
0.326487
21
0.193808
0
LINE
8
BLACK
6
CONTINUOUS
10
0.326487
20
0.193808
11
0.326341
21
0.193479
0
LINE
8
BLACK
6
CONTINUOUS
10
0.326341
20
0.193479
11
0.325729
21
0.192094
0
LINE
8
BLACK
6
CONTINUOUS
10
0.325729
20
0.192094
11
0.324704
21
0.189777
0
LINE
8
BLACK
6
CONTINUOUS
10
0.324704
20
0.189777
11
0.324587
21
0.188766
0
LINE
8
BLACK
6
CONTINUOUS
10
0.324587
20
0.188766
11
0.324587
21
0.0277698
0
LINE
8
BLACK
6
CONTINUOUS
10
0.324587
20
0.0277698
11
0.324709
21
0.0267383
0
LINE
8
BLACK
6
CONTINUOUS
10
0.324709
20
0.0267383
11
0.324828
21
0.0264711
0
LINE
8
BLACK
6
CONTINUOUS
10
0.324828
20
0.0264711
11
0.3254
21
0.0251846
0
LINE
8
BLACK
6
CONTINUOUS
10
0.3254
20
0.0251846
11
0.325649
21
0.0227887
0
LINE
8
BLACK
6
CONTINUOUS
10
0.325649
20
0.0227887
11
0.324443
21
0.0207036
0
LINE
8
BLACK
6
CONTINUOUS
10
0.324443
20
0.0207036
11
0.322241
21
0.0197257
0
LINE
8
BLACK
6
CONTINUOUS
10
0.322241
20
0.0197257
11
0.321837
21
0.0197047
0
LINE
8
BLACK
6
CONTINUOUS
10
0.321837
20
0.0197047
11
0.0236024
21
0.0197047
0
LINE
8
BLACK
6
CONTINUOUS
10
0.0236024
20
0.0197047
11
0.0213114
21
0.0204491
0
LINE
8
BLACK
6
CONTINUOUS
10
0.0213114
20
0.0204491
11
0.0198955
21
0.0223979
0
LINE
8
BLACK
6
CONTINUOUS
10
0.0198955
20
0.0223979
11
0.0197047
21
0.0236024
0
LINE
8
BLACK
6
CONTINUOUS
10
0.0197047
20
0.0236024
11
0.0197047
21
3.04726
0
LINE
8
BLACK
6
CONTINUOUS
10
0.0197047
20
3.04726
11
0.0204491
21
3.04955
0
LINE
8
BLACK
6
CONTINUOUS
10
3.45257
20
0.438709
11
3.45328
21
0.43127
0
LINE
8
BLACK
6
CONTINUOUS
10
3.45328
20
0.43127
11
3.45359
21
0.42804
0
LINE
8
BLACK
6
CONTINUOUS
10
3.45359
20
0.42804
11
3.45617
21
0.417492
0
LINE
8
BLACK
6
CONTINUOUS
10
3.45617
20
0.417492
11
3.46024
21
0.407428
0
LINE
8
BLACK
6
CONTINUOUS
10
3.46024
20
0.407428
11
3.46573
21
0.398058
0
LINE
8
BLACK
6
CONTINUOUS
10
3.46573
20
0.398058
11
3.47251
21
0.389577
0
LINE
8
BLACK
6
CONTINUOUS
10
3.47251
20
0.389577
11
3.47262
21
0.389481
0
LINE
8
BLACK
6
CONTINUOUS
10
3.47262
20
0.389481
11
3.48032
21
0.382281
0
LINE
8
BLACK
6
CONTINUOUS
10
3.48032
20
0.382281
11
3.48045
21
0.382165
0
LINE
8
BLACK
6
CONTINUOUS
10
3.48045
20
0.382165
11
3.48056
21
0.382085
0
LINE
8
BLACK
6
CONTINUOUS
10
3.48056
20
0.382085
11
3.48909
21
0.376173
0
LINE
8
BLACK
6
CONTINUOUS
10
3.48909
20
0.376173
11
3.48937
21
0.375976
0
LINE
8
BLACK
6
CONTINUOUS
10
3.48937
20
0.375976
11
3.4895
21
0.375913
0
LINE
8
BLACK
6
CONTINUOUS
10
3.4895
20
0.375913
11
3.4895
21
0.375913
0
LINE
8
BLACK
6
CONTINUOUS
10
3.4895
20
0.375913
11
3.49896
21
0.371202
0
LINE
8
BLACK
6
CONTINUOUS
10
3.49896
20
0.371202
11
3.49896
21
0.371202
0
LINE
8
BLACK
6
CONTINUOUS
10
3.49896
20
0.371202
11
3.49909
21
0.371139
0
LINE
8
BLACK
6
CONTINUOUS
10
3.49909
20
0.371139
11
3.49923
21
0.371095
0
LINE
8
BLACK
6
CONTINUOUS
10
3.49923
20
0.371095
11
3.49923
21
0.371095
0
LINE
8
BLACK
6
CONTINUOUS
10
3.49923
20
0.371095
11
3.50928
21
0.367801
0
LINE
8
BLACK
6
CONTINUOUS
10
3.50928
20
0.367801
11
3.50928
21
0.367801
0
LINE
8
BLACK
6
CONTINUOUS
10
3.50928
20
0.367801
11
3.50941
21
0.367757
0
LINE
8
BLACK
6
CONTINUOUS
10
3.50941
20
0.367757
11
3.52011
21
0.365899
0
LINE
8
BLACK
6
CONTINUOUS
10
3.52011
20
0.365899
11
3.52209
21
0.3658
0
LINE
8
BLACK
6
CONTINUOUS
10
3.52209
20
0.3658
11
3.52349
21
0.365731
0
LINE
8
BLACK
6
CONTINUOUS
10
3.52349
20
0.365731
11
3.52349
21
0.365731
0
LINE
8
BLACK
6
CONTINUOUS
10
3.52349
20
0.365731
11
3.52354
21
0.365728
0
LINE
8
BLACK
6
CONTINUOUS
10
3.52354
20
0.365728
11
3.53032
21
0.365728
0
LINE
8
BLACK
6
CONTINUOUS
10
3.53032
20
0.365728
11
3.53839
21
0.366314
0
LINE
8
BLACK
6
CONTINUOUS
10
3.53839
20
0.366314
11
3.53959
21
0.366578
0
LINE
8
BLACK
6
CONTINUOUS
10
3.53959
20
0.366578
11
3.54885
21
0.368625
0
LINE
8
BLACK
6
CONTINUOUS
10
3.54885
20
0.368625
11
3.54885
21
0.368625
0
LINE
8
BLACK
6
CONTINUOUS
10
3.54885
20
0.368625
11
3.54899
21
0.368655
0
LINE
8
BLACK
6
CONTINUOUS
10
3.54899
20
0.368655
11
3.54912
21
0.368705
0
LINE
8
BLACK
6
CONTINUOUS
10
3.54912
20
0.368705
11
3.54912
21
0.368705
0
LINE
8
BLACK
6
CONTINUOUS
10
3.54912
20
0.368705
11
3.55555
21
0.371139
0
LINE
8
BLACK
6
CONTINUOUS
10
3.55555
20
0.371139
11
3.55915
21
0.372502
0
LINE
8
BLACK
6
CONTINUOUS
10
3.55915
20
0.372502
11
3.56864
21
0.377775
0
LINE
8
BLACK
6
CONTINUOUS
10
3.56864
20
0.377775
11
3.56901
21
0.378057
0
LINE
8
BLACK
6
CONTINUOUS
10
3.56901
20
0.378057
11
3.57429
21
0.382085
0
LINE
8
BLACK
6
CONTINUOUS
10
3.57429
20
0.382085
11
3.57727
21
0.384362
0
LINE
8
BLACK
6
CONTINUOUS
10
3.57727
20
0.384362
11
3.58486
21
0.392127
0
LINE
8
BLACK
6
CONTINUOUS
10
3.58486
20
0.392127
11
3.585
21
0.392324
0
LINE
8
BLACK
6
CONTINUOUS
10
3.585
20
0.392324
11
3.59117
21
0.400792
0
LINE
8
BLACK
6
CONTINUOUS
10
3.59117
20
0.400792
11
3.59125
21
0.400906
0
LINE
8
BLACK
6
CONTINUOUS
10
3.59125
20
0.400906
11
3.59142
21
0.401228
0
LINE
8
BLACK
6
CONTINUOUS
10
3.59142
20
0.401228
11
3.59624
21
0.410391
0
LINE
8
BLACK
6
CONTINUOUS
10
3.59624
20
0.410391
11
3.59631
21
0.410516
0
LINE
8
BLACK
6
CONTINUOUS
10
3.59631
20
0.410516
11
3.59992
21
0.420755
0
LINE
8
BLACK
6
CONTINUOUS
10
3.59992
20
0.420755
11
3.59996
21
0.420951
0
LINE
8
BLACK
6
CONTINUOUS
10
3.59996
20
0.420951
11
3.602
21
0.43127
0
LINE
8
BLACK
6
CONTINUOUS
10
3.602
20
0.43127
11
3.60202
21
0.431408
0
LINE
8
BLACK
6
CONTINUOUS
10
3.60202
20
0.431408
11
3.60256
21
0.442253
0
LINE
8
BLACK
6
CONTINUOUS
10
3.60256
20
0.442253
11
3.60255
21
0.442394
0
LINE
8
BLACK
6
CONTINUOUS
10
3.60255
20
0.442394
11
3.60255
21
0.442394
0
LINE
8
BLACK
6
CONTINUOUS
10
3.60255
20
0.442394
11
3.60154
21
0.452922
0
LINE
8
BLACK
6
CONTINUOUS
10
3.60154
20
0.452922
11
3.60154
21
0.452922
0
LINE
8
BLACK
6
CONTINUOUS
10
3.60154
20
0.452922
11
3.60153
21
0.453063
0
LINE
8
BLACK
6
CONTINUOUS
10
3.60153
20
0.453063
11
3.59895
21
0.46361
0
LINE
8
BLACK
6
CONTINUOUS
10
3.59895
20
0.46361
11
3.59487
21
0.473674
0
LINE
8
BLACK
6
CONTINUOUS
10
3.59487
20
0.473674
11
3.59476
21
0.473871
0
LINE
8
BLACK
6
CONTINUOUS
10
3.59476
20
0.473871
11
3.58946
21
0.482923
0
LINE
8
BLACK
6
CONTINUOUS
10
3.58946
20
0.482923
11
3.58939
21
0.483045
0
LINE
8
BLACK
6
CONTINUOUS
10
3.58939
20
0.483045
11
3.58261
21
0.491525
0
LINE
8
BLACK
6
CONTINUOUS
10
3.58261
20
0.491525
11
3.57467
21
0.498937
0
LINE
8
BLACK
6
CONTINUOUS
10
3.57467
20
0.498937
11
3.56575
21
0.505127
0
LINE
8
BLACK
6
CONTINUOUS
10
3.56575
20
0.505127
11
3.56562
21
0.505189
0
LINE
8
BLACK
6
CONTINUOUS
10
3.56562
20
0.505189
11
3.56562
21
0.50519
0
LINE
8
BLACK
6
CONTINUOUS
10
3.56562
20
0.50519
11
3.55615
21
0.5099
0
LINE
8
BLACK
6
CONTINUOUS
10
3.55615
20
0.5099
11
3.55615
21
0.5099
0
LINE
8
BLACK
6
CONTINUOUS
10
3.55615
20
0.5099
11
3.55603
21
0.509963
0
LINE
8
BLACK
6
CONTINUOUS
10
3.55603
20
0.509963
11
3.55589
21
0.510007
0
LINE
8
BLACK
6
CONTINUOUS
10
3.55589
20
0.510007
11
3.55589
21
0.510007
0
LINE
8
BLACK
6
CONTINUOUS
10
3.55589
20
0.510007
11
3.54584
21
0.513302
0
LINE
8
BLACK
6
CONTINUOUS
10
3.54584
20
0.513302
11
3.54584
21
0.513302
0
LINE
8
BLACK
6
CONTINUOUS
10
3.54584
20
0.513302
11
3.54571
21
0.513346
0
LINE
8
BLACK
6
CONTINUOUS
10
3.54571
20
0.513346
11
3.53501
21
0.515203
0
LINE
8
BLACK
6
CONTINUOUS
10
3.53501
20
0.515203
11
3.53303
21
0.515302
0
LINE
8
BLACK
6
CONTINUOUS
10
3.53303
20
0.515302
11
3.53163
21
0.515372
0
LINE
8
BLACK
6
CONTINUOUS
10
3.53163
20
0.515372
11
3.53163
21
0.515372
0
LINE
8
BLACK
6
CONTINUOUS
10
3.53163
20
0.515372
11
3.53158
21
0.515374
0
LINE
8
BLACK
6
CONTINUOUS
10
3.53158
20
0.515374
11
3.5248
21
0.515374
0
LINE
8
BLACK
6
CONTINUOUS
10
3.5248
20
0.515374
11
3.51673
21
0.514788
0
LINE
8
BLACK
6
CONTINUOUS
10
3.51673
20
0.514788
11
3.51659
21
0.514758
0
LINE
8
BLACK
6
CONTINUOUS
10
3.51659
20
0.514758
11
3.51659
21
0.514758
0
LINE
8
BLACK
6
CONTINUOUS
10
3.51659
20
0.514758
11
3.50626
21
0.512478
0
LINE
8
BLACK
6
CONTINUOUS
10
3.50626
20
0.512478
11
3.50626
21
0.512478
0
LINE
8
BLACK
6
CONTINUOUS
10
3.50626
20
0.512478
11
3.50613
21
0.512447
0
LINE
8
BLACK
6
CONTINUOUS
10
3.50613
20
0.512447
11
3.50599
21
0.512397
0
LINE
8
BLACK
6
CONTINUOUS
10
3.50599
20
0.512397
11
3.50599
21
0.512397
0
LINE
8
BLACK
6
CONTINUOUS
10
3.50599
20
0.512397
11
3.5019
21
0.510845
0
LINE
8
BLACK
6
CONTINUOUS
10
3.5019
20
0.510845
11
3.49597
21
0.5086
0
LINE
8
BLACK
6
CONTINUOUS
10
3.49597
20
0.5086
11
3.49019
21
0.505386
0
LINE
8
BLACK
6
CONTINUOUS
10
3.49019
20
0.505386
11
3.48683
21
0.503525
0
LINE
8
BLACK
6
CONTINUOUS
10
3.48683
20
0.503525
11
3.48648
21
0.503328
0
LINE
8
BLACK
6
CONTINUOUS
10
3.48648
20
0.503328
11
3.47785
21
0.49674
0
LINE
8
BLACK
6
CONTINUOUS
10
3.47785
20
0.49674
11
3.47026
21
0.488975
0
LINE
8
BLACK
6
CONTINUOUS
10
3.47026
20
0.488975
11
3.47017
21
0.488861
0
LINE
8
BLACK
6
CONTINUOUS
10
3.47017
20
0.488861
11
3.47017
21
0.488861
0
LINE
8
BLACK
6
CONTINUOUS
10
3.47017
20
0.488861
11
3.46409
21
0.480507
0
LINE
8
BLACK
6
CONTINUOUS
10
3.46409
20
0.480507
11
3.46387
21
0.480196
0
LINE
8
BLACK
6
CONTINUOUS
10
3.46387
20
0.480196
11
3.45881
21
0.470587
0
LINE
8
BLACK
6
CONTINUOUS
10
3.45881
20
0.470587
11
3.4552
21
0.460348
0
LINE
8
BLACK
6
CONTINUOUS
10
3.4552
20
0.460348
11
3.4531
21
0.449694
0
LINE
8
BLACK
6
CONTINUOUS
10
3.4531
20
0.449694
11
3.45256
21
0.438849
0
LINE
8
BLACK
6
CONTINUOUS
10
3.45256
20
0.438849
11
3.45257
21
0.438709
0
LINE
8
BLACK
6
CONTINUOUS
10
3.45257
20
0.438709
11
3.45257
21
0.438709
0
LINE
8
BLACK
6
CONTINUOUS
10
3.1156
20
0.834803
11
3.15629
21
0.834803
0
LINE
8
BLACK
6
CONTINUOUS
10
3.15629
20
0.834803
11
3.15652
21
0.834817
0
LINE
8
BLACK
6
CONTINUOUS
10
3.15652
20
0.834817
11
3.15714
21
0.834891
0
LINE
8
BLACK
6
CONTINUOUS
10
3.15714
20
0.834891
11
3.1577
21
0.835044
0
LINE
8
BLACK
6
CONTINUOUS
10
3.1577
20
0.835044
11
3.16112
21
0.836566
0
LINE
8
BLACK
6
CONTINUOUS
10
3.16112
20
0.836566
11
3.16171
21
0.836966
0
LINE
8
BLACK
6
CONTINUOUS
10
3.16171
20
0.836966
11
3.16431
21
0.839571
0
LINE
8
BLACK
6
CONTINUOUS
10
3.16431
20
0.839571
11
3.16471
21
0.840155
0
LINE
8
BLACK
6
CONTINUOUS
10
3.16471
20
0.840155
11
3.16622
21
0.843582
0
LINE
8
BLACK
6
CONTINUOUS
10
3.16622
20
0.843582
11
3.16637
21
0.844141
0
LINE
8
BLACK
6
CONTINUOUS
10
3.16637
20
0.844141
11
3.16644
21
0.844747
0
LINE
8
BLACK
6
CONTINUOUS
10
3.16644
20
0.844747
11
3.16646
21
0.844972
0
LINE
8
BLACK
6
CONTINUOUS
10
3.16646
20
0.844972
11
3.16646
21
0.885367
0
LINE
8
BLACK
6
CONTINUOUS
10
3.16646
20
0.885367
11
3.16629
21
0.885866
0
LINE
8
BLACK
6
CONTINUOUS
10
3.16629
20
0.885866
11
3.16613
21
0.885984
0
LINE
8
BLACK
6
CONTINUOUS
10
3.16613
20
0.885984
11
3.15465
21
0.885984
0
LINE
8
BLACK
6
CONTINUOUS
10
3.15465
20
0.885984
11
3.15465
21
0.846614
0
LINE
8
BLACK
6
CONTINUOUS
10
3.15465
20
0.846614
11
3.11528
21
0.846614
0
LINE
8
BLACK
6
CONTINUOUS
10
3.11528
20
0.846614
11
3.11528
21
0.83542
0
LINE
8
BLACK
6
CONTINUOUS
10
3.11528
20
0.83542
11
3.11544
21
0.834921
0
LINE
8
BLACK
6
CONTINUOUS
10
3.11544
20
0.834921
11
3.1156
21
0.834803
0
LINE
8
BLACK
6
CONTINUOUS
10
3.05261
20
0.897795
11
3.06409
21
0.897795
0
LINE
8
BLACK
6
CONTINUOUS
10
3.06409
20
0.897795
11
3.06409
21
0.937165
0
LINE
8
BLACK
6
CONTINUOUS
10
3.06409
20
0.937165
11
3.10346
21
0.937165
0
LINE
8
BLACK
6
CONTINUOUS
10
3.10346
20
0.937165
11
3.10346
21
0.948359
0
LINE
8
BLACK
6
CONTINUOUS
10
3.10346
20
0.948359
11
3.1033
21
0.948858
0
LINE
8
BLACK
6
CONTINUOUS
10
3.1033
20
0.948858
11
3.10314
21
0.948976
0
LINE
8
BLACK
6
CONTINUOUS
10
3.10314
20
0.948976
11
3.06246
21
0.948976
0
LINE
8
BLACK
6
CONTINUOUS
10
3.06246
20
0.948976
11
3.06222
21
0.948963
0
LINE
8
BLACK
6
CONTINUOUS
10
3.06222
20
0.948963
11
3.0616
21
0.948888
0
LINE
8
BLACK
6
CONTINUOUS
10
3.0616
20
0.948888
11
3.06104
21
0.948735
0
LINE
8
BLACK
6
CONTINUOUS
10
3.06104
20
0.948735
11
3.05762
21
0.947214
0
LINE
8
BLACK
6
CONTINUOUS
10
3.05762
20
0.947214
11
3.05703
21
0.946813
0
LINE
8
BLACK
6
CONTINUOUS
10
3.05703
20
0.946813
11
3.05443
21
0.944208
0
LINE
8
BLACK
6
CONTINUOUS
10
3.05443
20
0.944208
11
3.05403
21
0.943625
0
LINE
8
BLACK
6
CONTINUOUS
10
3.05403
20
0.943625
11
3.05252
21
0.940198
0
LINE
8
BLACK
6
CONTINUOUS
10
3.05252
20
0.940198
11
3.05237
21
0.939638
0
LINE
8
BLACK
6
CONTINUOUS
10
3.05237
20
0.939638
11
3.0523
21
0.939032
0
LINE
8
BLACK
6
CONTINUOUS
10
3.0523
20
0.939032
11
3.05228
21
0.938807
0
LINE
8
BLACK
6
CONTINUOUS
10
3.05228
20
0.938807
11
3.05228
21
0.898413
0
LINE
8
BLACK
6
CONTINUOUS
10
3.05228
20
0.898413
11
3.05245
21
0.897913
0
LINE
8
BLACK
6
CONTINUOUS
10
3.05245
20
0.897913
11
3.05261
21
0.897795
0
LINE
8
BLACK
6
CONTINUOUS
10
3.11589
20
0.948976
11
3.11539
21
0.948814
0
LINE
8
BLACK
6
CONTINUOUS
10
3.11539
20
0.948814
11
3.11528
21
0.948652
0
LINE
8
BLACK
6
CONTINUOUS
10
3.11528
20
0.948652
11
3.11528
21
0.937165
0
LINE
8
BLACK
6
CONTINUOUS
10
3.11528
20
0.937165
11
3.15465
21
0.937165
0
LINE
8
BLACK
6
CONTINUOUS
10
3.15465
20
0.937165
11
3.15465
21
0.897795
0
LINE
8
BLACK
6
CONTINUOUS
10
3.15465
20
0.897795
11
3.16584
21
0.897795
0
LINE
8
BLACK
6
CONTINUOUS
10
3.16584
20
0.897795
11
3.16634
21
0.897958
0
LINE
8
BLACK
6
CONTINUOUS
10
3.16634
20
0.897958
11
3.16646
21
0.89812
0
LINE
8
BLACK
6
CONTINUOUS
10
3.16646
20
0.89812
11
3.16646
21
0.938805
0
LINE
8
BLACK
6
CONTINUOUS
10
3.16646
20
0.938805
11
3.16644
21
0.939035
0
LINE
8
BLACK
6
CONTINUOUS
10
3.16644
20
0.939035
11
3.16637
21
0.93966
0
LINE
8
BLACK
6
CONTINUOUS
10
3.16637
20
0.93966
11
3.16622
21
0.940217
0
LINE
8
BLACK
6
CONTINUOUS
10
3.16622
20
0.940217
11
3.16469
21
0.943642
0
LINE
8
BLACK
6
CONTINUOUS
10
3.16469
20
0.943642
11
3.16429
21
0.944225
0
LINE
8
BLACK
6
CONTINUOUS
10
3.16429
20
0.944225
11
3.16169
21
0.946825
0
LINE
8
BLACK
6
CONTINUOUS
10
3.16169
20
0.946825
11
3.16111
21
0.947225
0
LINE
8
BLACK
6
CONTINUOUS
10
3.16111
20
0.947225
11
3.15768
21
0.94874
0
LINE
8
BLACK
6
CONTINUOUS
10
3.15768
20
0.94874
11
3.15712
21
0.948893
0
LINE
8
BLACK
6
CONTINUOUS
10
3.15712
20
0.948893
11
3.15651
21
0.948963
0
LINE
8
BLACK
6
CONTINUOUS
10
3.15651
20
0.948963
11
3.15629
21
0.948976
0
LINE
8
BLACK
6
CONTINUOUS
10
3.15629
20
0.948976
11
3.11589
21
0.948976
0
LINE
8
BLACK
6
CONTINUOUS
10
2.00983
20
0.44259
11
2.00983
21
0.442591
0
LINE
8
BLACK
6
CONTINUOUS
10
2.00983
20
0.442591
11
2.00883
21
0.453119
0
LINE
8
BLACK
6
CONTINUOUS
10
2.00883
20
0.453119
11
2.00883
21
0.453119
0
LINE
8
BLACK
6
CONTINUOUS
10
2.00883
20
0.453119
11
2.00881
21
0.45326
0
LINE
8
BLACK
6
CONTINUOUS
10
2.00881
20
0.45326
11
2.00623
21
0.463807
0
LINE
8
BLACK
6
CONTINUOUS
10
2.00623
20
0.463807
11
2.00216
21
0.473871
0
LINE
8
BLACK
6
CONTINUOUS
10
2.00216
20
0.473871
11
1.99667
21
0.483242
0
LINE
8
BLACK
6
CONTINUOUS
10
1.99667
20
0.483242
11
1.98989
21
0.491722
0
LINE
8
BLACK
6
CONTINUOUS
10
1.98989
20
0.491722
11
1.98227
21
0.498841
0
LINE
8
BLACK
6
CONTINUOUS
10
1.98227
20
0.498841
11
1.98206
21
0.499038
0
LINE
8
BLACK
6
CONTINUOUS
10
1.98206
20
0.499038
11
1.98206
21
0.499038
0
LINE
8
BLACK
6
CONTINUOUS
10
1.98206
20
0.499038
11
1.98195
21
0.499134
0
LINE
8
BLACK
6
CONTINUOUS
10
1.98195
20
0.499134
11
1.97343
21
0.505046
0
LINE
8
BLACK
6
CONTINUOUS
10
1.97343
20
0.505046
11
1.97315
21
0.505243
0
LINE
8
BLACK
6
CONTINUOUS
10
1.97315
20
0.505243
11
1.97303
21
0.505323
0
LINE
8
BLACK
6
CONTINUOUS
10
1.97303
20
0.505323
11
1.97291
21
0.505386
0
LINE
8
BLACK
6
CONTINUOUS
10
1.97291
20
0.505386
11
1.97291
21
0.505386
0
LINE
8
BLACK
6
CONTINUOUS
10
1.97291
20
0.505386
11
1.96344
21
0.510097
0
LINE
8
BLACK
6
CONTINUOUS
10
1.96344
20
0.510097
11
1.96344
21
0.510097
0
LINE
8
BLACK
6
CONTINUOUS
10
1.96344
20
0.510097
11
1.96331
21
0.51016
0
LINE
8
BLACK
6
CONTINUOUS
10
1.96331
20
0.51016
11
1.96318
21
0.510204
0
LINE
8
BLACK
6
CONTINUOUS
10
1.96318
20
0.510204
11
1.96318
21
0.510204
0
LINE
8
BLACK
6
CONTINUOUS
10
1.96318
20
0.510204
11
1.95313
21
0.513499
0
LINE
8
BLACK
6
CONTINUOUS
10
1.95313
20
0.513499
11
1.95313
21
0.513499
0
LINE
8
BLACK
6
CONTINUOUS
10
1.95313
20
0.513499
11
1.95299
21
0.513543
0
LINE
8
BLACK
6
CONTINUOUS
10
1.95299
20
0.513543
11
1.94229
21
0.5154
0
LINE
8
BLACK
6
CONTINUOUS
10
1.94229
20
0.5154
11
1.94031
21
0.515499
0
LINE
8
BLACK
6
CONTINUOUS
10
1.94031
20
0.515499
11
1.93891
21
0.515568
0
LINE
8
BLACK
6
CONTINUOUS
10
1.93891
20
0.515568
11
1.93891
21
0.515568
0
LINE
8
BLACK
6
CONTINUOUS
10
1.93891
20
0.515568
11
1.93886
21
0.515571
0
LINE
8
BLACK
6
CONTINUOUS
10
1.93886
20
0.515571
11
1.93208
21
0.515571
0
LINE
8
BLACK
6
CONTINUOUS
10
1.93208
20
0.515571
11
1.92401
21
0.514985
0
LINE
8
BLACK
6
CONTINUOUS
10
1.92401
20
0.514985
11
1.92387
21
0.514955
0
LINE
8
BLACK
6
CONTINUOUS
10
1.92387
20
0.514955
11
1.92387
21
0.514955
0
LINE
8
BLACK
6
CONTINUOUS
10
1.92387
20
0.514955
11
1.91355
21
0.512675
0
LINE
8
BLACK
6
CONTINUOUS
10
1.91355
20
0.512675
11
1.91355
21
0.512675
0
LINE
8
BLACK
6
CONTINUOUS
10
1.91355
20
0.512675
11
1.91341
21
0.512644
0
LINE
8
BLACK
6
CONTINUOUS
10
1.91341
20
0.512644
11
1.91328
21
0.512594
0
LINE
8
BLACK
6
CONTINUOUS
10
1.91328
20
0.512594
11
1.91328
21
0.512594
0
LINE
8
BLACK
6
CONTINUOUS
10
1.91328
20
0.512594
11
1.90918
21
0.511042
0
LINE
8
BLACK
6
CONTINUOUS
10
1.90918
20
0.511042
11
1.90326
21
0.508797
0
LINE
8
BLACK
6
CONTINUOUS
10
1.90326
20
0.508797
11
1.89376
21
0.503525
0
LINE
8
BLACK
6
CONTINUOUS
10
1.89376
20
0.503525
11
1.89365
21
0.503439
0
LINE
8
BLACK
6
CONTINUOUS
10
1.89365
20
0.503439
11
1.89365
21
0.503439
0
LINE
8
BLACK
6
CONTINUOUS
10
1.89365
20
0.503439
11
1.89095
21
0.501377
0
LINE
8
BLACK
6
CONTINUOUS
10
1.89095
20
0.501377
11
1.88513
21
0.496937
0
LINE
8
BLACK
6
CONTINUOUS
10
1.88513
20
0.496937
11
1.87754
21
0.489172
0
LINE
8
BLACK
6
CONTINUOUS
10
1.87754
20
0.489172
11
1.87746
21
0.489058
0
LINE
8
BLACK
6
CONTINUOUS
10
1.87746
20
0.489058
11
1.87746
21
0.489058
0
LINE
8
BLACK
6
CONTINUOUS
10
1.87746
20
0.489058
11
1.87308
21
0.483045
0
LINE
8
BLACK
6
CONTINUOUS
10
1.87308
20
0.483045
11
1.87115
21
0.480393
0
LINE
8
BLACK
6
CONTINUOUS
10
1.87115
20
0.480393
11
1.87108
21
0.480269
0
LINE
8
BLACK
6
CONTINUOUS
10
1.87108
20
0.480269
11
1.87108
21
0.480268
0
LINE
8
BLACK
6
CONTINUOUS
10
1.87108
20
0.480268
11
1.86778
21
0.473993
0
LINE
8
BLACK
6
CONTINUOUS
10
1.86778
20
0.473993
11
1.86609
21
0.470783
0
LINE
8
BLACK
6
CONTINUOUS
10
1.86609
20
0.470783
11
1.86248
21
0.460545
0
LINE
8
BLACK
6
CONTINUOUS
10
1.86248
20
0.460545
11
1.86245
21
0.460406
0
LINE
8
BLACK
6
CONTINUOUS
10
1.86245
20
0.460406
11
1.86241
21
0.460209
0
LINE
8
BLACK
6
CONTINUOUS
10
1.86241
20
0.460209
11
1.86038
21
0.449891
0
LINE
8
BLACK
6
CONTINUOUS
10
1.86038
20
0.449891
11
1.85984
21
0.439046
0
LINE
8
BLACK
6
CONTINUOUS
10
1.85984
20
0.439046
11
1.85985
21
0.438906
0
LINE
8
BLACK
6
CONTINUOUS
10
1.85985
20
0.438906
11
1.85985
21
0.438905
0
LINE
8
BLACK
6
CONTINUOUS
10
1.85985
20
0.438905
11
1.86058
21
0.43127
0
LINE
8
BLACK
6
CONTINUOUS
10
1.86058
20
0.43127
11
1.86087
21
0.428237
0
LINE
8
BLACK
6
CONTINUOUS
10
1.86087
20
0.428237
11
1.86345
21
0.417689
0
LINE
8
BLACK
6
CONTINUOUS
10
1.86345
20
0.417689
11
1.86753
21
0.407625
0
LINE
8
BLACK
6
CONTINUOUS
10
1.86753
20
0.407625
11
1.8676
21
0.407503
0
LINE
8
BLACK
6
CONTINUOUS
10
1.8676
20
0.407503
11
1.8676
21
0.407503
0
LINE
8
BLACK
6
CONTINUOUS
10
1.8676
20
0.407503
11
1.86771
21
0.407306
0
LINE
8
BLACK
6
CONTINUOUS
10
1.86771
20
0.407306
11
1.87301
21
0.398255
0
LINE
8
BLACK
6
CONTINUOUS
10
1.87301
20
0.398255
11
1.8798
21
0.389774
0
LINE
8
BLACK
6
CONTINUOUS
10
1.8798
20
0.389774
11
1.88773
21
0.382362
0
LINE
8
BLACK
6
CONTINUOUS
10
1.88773
20
0.382362
11
1.89665
21
0.376173
0
LINE
8
BLACK
6
CONTINUOUS
10
1.89665
20
0.376173
11
1.89678
21
0.37611
0
LINE
8
BLACK
6
CONTINUOUS
10
1.89678
20
0.37611
11
1.89678
21
0.37611
0
LINE
8
BLACK
6
CONTINUOUS
10
1.89678
20
0.37611
11
1.90625
21
0.371399
0
LINE
8
BLACK
6
CONTINUOUS
10
1.90625
20
0.371399
11
1.90625
21
0.371399
0
LINE
8
BLACK
6
CONTINUOUS
10
1.90625
20
0.371399
11
1.90637
21
0.371336
0
LINE
8
BLACK
6
CONTINUOUS
10
1.90637
20
0.371336
11
1.90651
21
0.371292
0
LINE
8
BLACK
6
CONTINUOUS
10
1.90651
20
0.371292
11
1.90651
21
0.371292
0
LINE
8
BLACK
6
CONTINUOUS
10
1.90651
20
0.371292
11
1.91656
21
0.367997
0
LINE
8
BLACK
6
CONTINUOUS
10
1.91656
20
0.367997
11
1.91656
21
0.367997
0
LINE
8
BLACK
6
CONTINUOUS
10
1.91656
20
0.367997
11
1.91669
21
0.367954
0
LINE
8
BLACK
6
CONTINUOUS
10
1.91669
20
0.367954
11
1.92739
21
0.366096
0
LINE
8
BLACK
6
CONTINUOUS
10
1.92739
20
0.366096
11
1.92938
21
0.365997
0
LINE
8
BLACK
6
CONTINUOUS
10
1.92938
20
0.365997
11
1.93077
21
0.365928
0
LINE
8
BLACK
6
CONTINUOUS
10
1.93077
20
0.365928
11
1.93077
21
0.365928
0
LINE
8
BLACK
6
CONTINUOUS
10
1.93077
20
0.365928
11
1.93082
21
0.365925
0
LINE
8
BLACK
6
CONTINUOUS
10
1.93082
20
0.365925
11
1.9376
21
0.365925
0
LINE
8
BLACK
6
CONTINUOUS
10
1.9376
20
0.365925
11
1.94567
21
0.366511
0
LINE
8
BLACK
6
CONTINUOUS
10
1.94567
20
0.366511
11
1.94687
21
0.366775
0
LINE
8
BLACK
6
CONTINUOUS
10
1.94687
20
0.366775
11
1.95614
21
0.368821
0
LINE
8
BLACK
6
CONTINUOUS
10
1.95614
20
0.368821
11
1.95614
21
0.368821
0
LINE
8
BLACK
6
CONTINUOUS
10
1.95614
20
0.368821
11
1.95628
21
0.368852
0
LINE
8
BLACK
6
CONTINUOUS
10
1.95628
20
0.368852
11
1.95641
21
0.368902
0
LINE
8
BLACK
6
CONTINUOUS
10
1.95641
20
0.368902
11
1.95641
21
0.368902
0
LINE
8
BLACK
6
CONTINUOUS
10
1.95641
20
0.368902
11
1.9622
21
0.371095
0
LINE
8
BLACK
6
CONTINUOUS
10
1.9622
20
0.371095
11
1.96643
21
0.372699
0
LINE
8
BLACK
6
CONTINUOUS
10
1.96643
20
0.372699
11
1.97544
21
0.377706
0
LINE
8
BLACK
6
CONTINUOUS
10
1.97544
20
0.377706
11
1.9758
21
0.377903
0
LINE
8
BLACK
6
CONTINUOUS
10
1.9758
20
0.377903
11
1.9758
21
0.377903
0
LINE
8
BLACK
6
CONTINUOUS
10
1.9758
20
0.377903
11
1.97592
21
0.377971
0
LINE
8
BLACK
6
CONTINUOUS
10
1.97592
20
0.377971
11
1.98455
21
0.384559
0
LINE
8
BLACK
6
CONTINUOUS
10
1.98455
20
0.384559
11
1.99214
21
0.392324
0
LINE
8
BLACK
6
CONTINUOUS
10
1.99214
20
0.392324
11
1.99624
21
0.397947
0
LINE
8
BLACK
6
CONTINUOUS
10
1.99624
20
0.397947
11
1.99845
21
0.400989
0
LINE
8
BLACK
6
CONTINUOUS
10
1.99845
20
0.400989
11
1.99853
21
0.401103
0
LINE
8
BLACK
6
CONTINUOUS
10
1.99853
20
0.401103
11
2.00359
21
0.410713
0
LINE
8
BLACK
6
CONTINUOUS
10
2.00359
20
0.410713
11
2.00721
21
0.420951
0
LINE
8
BLACK
6
CONTINUOUS
10
2.00721
20
0.420951
11
2.00931
21
0.431605
0
LINE
8
BLACK
6
CONTINUOUS
10
2.00931
20
0.431605
11
2.00967
21
0.438849
0
LINE
8
BLACK
6
CONTINUOUS
10
2.00967
20
0.438849
11
2.00985
21
0.44245
0
LINE
8
BLACK
6
CONTINUOUS
10
2.00985
20
0.44245
11
2.00983
21
0.44259
0
LINE
8
BLACK
6
CONTINUOUS
10
2.69273
20
0.438709
11
2.69344
21
0.43127
0
LINE
8
BLACK
6
CONTINUOUS
10
2.69344
20
0.43127
11
2.69374
21
0.42804
0
LINE
8
BLACK
6
CONTINUOUS
10
2.69374
20
0.42804
11
2.69633
21
0.417492
0
LINE
8
BLACK
6
CONTINUOUS
10
2.69633
20
0.417492
11
2.7004
21
0.407428
0
LINE
8
BLACK
6
CONTINUOUS
10
2.7004
20
0.407428
11
2.70589
21
0.398058
0
LINE
8
BLACK
6
CONTINUOUS
10
2.70589
20
0.398058
11
2.71267
21
0.389577
0
LINE
8
BLACK
6
CONTINUOUS
10
2.71267
20
0.389577
11
2.71277
21
0.389481
0
LINE
8
BLACK
6
CONTINUOUS
10
2.71277
20
0.389481
11
2.72048
21
0.382281
0
LINE
8
BLACK
6
CONTINUOUS
10
2.72048
20
0.382281
11
2.7206
21
0.382165
0
LINE
8
BLACK
6
CONTINUOUS
10
2.7206
20
0.382165
11
2.72072
21
0.382085
0
LINE
8
BLACK
6
CONTINUOUS
10
2.72072
20
0.382085
11
2.72924
21
0.376173
0
LINE
8
BLACK
6
CONTINUOUS
10
2.72924
20
0.376173
11
2.72953
21
0.375976
0
LINE
8
BLACK
6
CONTINUOUS
10
2.72953
20
0.375976
11
2.72965
21
0.375913
0
LINE
8
BLACK
6
CONTINUOUS
10
2.72965
20
0.375913
11
2.72965
21
0.375913
0
LINE
8
BLACK
6
CONTINUOUS
10
2.72965
20
0.375913
11
2.73912
21
0.371202
0
LINE
8
BLACK
6
CONTINUOUS
10
2.73912
20
0.371202
11
2.73912
21
0.371202
0
LINE
8
BLACK
6
CONTINUOUS
10
2.73912
20
0.371202
11
2.73925
21
0.371139
0
LINE
8
BLACK
6
CONTINUOUS
10
2.73925
20
0.371139
11
2.73938
21
0.371095
0
LINE
8
BLACK
6
CONTINUOUS
10
2.73938
20
0.371095
11
2.73938
21
0.371095
0
LINE
8
BLACK
6
CONTINUOUS
10
2.73938
20
0.371095
11
2.74943
21
0.367801
0
LINE
8
BLACK
6
CONTINUOUS
10
2.74943
20
0.367801
11
2.74943
21
0.367801
0
LINE
8
BLACK
6
CONTINUOUS
10
2.74943
20
0.367801
11
2.74957
21
0.367757
0
LINE
8
BLACK
6
CONTINUOUS
10
2.74957
20
0.367757
11
2.76027
21
0.365899
0
LINE
8
BLACK
6
CONTINUOUS
10
2.76027
20
0.365899
11
2.76225
21
0.3658
0
LINE
8
BLACK
6
CONTINUOUS
10
2.76225
20
0.3658
11
2.76365
21
0.365731
0
LINE
8
BLACK
6
CONTINUOUS
10
2.76365
20
0.365731
11
2.76365
21
0.365731
0
LINE
8
BLACK
6
CONTINUOUS
10
2.76365
20
0.365731
11
2.7637
21
0.365728
0
LINE
8
BLACK
6
CONTINUOUS
10
2.7637
20
0.365728
11
2.77048
21
0.365728
0
LINE
8
BLACK
6
CONTINUOUS
10
2.77048
20
0.365728
11
2.77855
21
0.366314
0
LINE
8
BLACK
6
CONTINUOUS
10
2.77855
20
0.366314
11
2.77974
21
0.366578
0
LINE
8
BLACK
6
CONTINUOUS
10
2.77974
20
0.366578
11
2.78901
21
0.368625
0
LINE
8
BLACK
6
CONTINUOUS
10
2.78901
20
0.368625
11
2.78901
21
0.368625
0
LINE
8
BLACK
6
CONTINUOUS
10
2.78901
20
0.368625
11
2.78915
21
0.368655
0
LINE
8
BLACK
6
CONTINUOUS
10
2.78915
20
0.368655
11
2.78928
21
0.368705
0
LINE
8
BLACK
6
CONTINUOUS
10
2.78928
20
0.368705
11
2.78928
21
0.368705
0
LINE
8
BLACK
6
CONTINUOUS
10
2.78928
20
0.368705
11
2.79571
21
0.371139
0
LINE
8
BLACK
6
CONTINUOUS
10
2.79571
20
0.371139
11
2.7993
21
0.372502
0
LINE
8
BLACK
6
CONTINUOUS
10
2.7993
20
0.372502
11
2.8088
21
0.377775
0
LINE
8
BLACK
6
CONTINUOUS
10
2.8088
20
0.377775
11
2.80917
21
0.378057
0
LINE
8
BLACK
6
CONTINUOUS
10
2.80917
20
0.378057
11
2.81444
21
0.382085
0
LINE
8
BLACK
6
CONTINUOUS
10
2.81444
20
0.382085
11
2.81743
21
0.384362
0
LINE
8
BLACK
6
CONTINUOUS
10
2.81743
20
0.384362
11
2.82502
21
0.392127
0
LINE
8
BLACK
6
CONTINUOUS
10
2.82502
20
0.392127
11
2.82516
21
0.392324
0
LINE
8
BLACK
6
CONTINUOUS
10
2.82516
20
0.392324
11
2.83133
21
0.400792
0
LINE
8
BLACK
6
CONTINUOUS
10
2.83133
20
0.400792
11
2.83141
21
0.400906
0
LINE
8
BLACK
6
CONTINUOUS
10
2.83141
20
0.400906
11
2.83158
21
0.401228
0
LINE
8
BLACK
6
CONTINUOUS
10
2.83158
20
0.401228
11
2.8364
21
0.410391
0
LINE
8
BLACK
6
CONTINUOUS
10
2.8364
20
0.410391
11
2.83646
21
0.410516
0
LINE
8
BLACK
6
CONTINUOUS
10
2.83646
20
0.410516
11
2.84008
21
0.420755
0
LINE
8
BLACK
6
CONTINUOUS
10
2.84008
20
0.420755
11
2.84012
21
0.420951
0
LINE
8
BLACK
6
CONTINUOUS
10
2.84012
20
0.420951
11
2.84215
21
0.43127
0
LINE
8
BLACK
6
CONTINUOUS
10
2.84215
20
0.43127
11
2.84218
21
0.431408
0
LINE
8
BLACK
6
CONTINUOUS
10
2.84218
20
0.431408
11
2.84255
21
0.438849
0
LINE
8
BLACK
6
CONTINUOUS
10
2.84255
20
0.438849
11
2.84272
21
0.442253
0
LINE
8
BLACK
6
CONTINUOUS
10
2.84272
20
0.442253
11
2.84271
21
0.442394
0
LINE
8
BLACK
6
CONTINUOUS
10
2.84271
20
0.442394
11
2.84271
21
0.442394
0
LINE
8
BLACK
6
CONTINUOUS
10
2.84271
20
0.442394
11
2.8417
21
0.452922
0
LINE
8
BLACK
6
CONTINUOUS
10
2.8417
20
0.452922
11
2.8417
21
0.452922
0
LINE
8
BLACK
6
CONTINUOUS
10
2.8417
20
0.452922
11
2.84169
21
0.453063
0
LINE
8
BLACK
6
CONTINUOUS
10
2.84169
20
0.453063
11
2.83911
21
0.46361
0
LINE
8
BLACK
6
CONTINUOUS
10
2.83911
20
0.46361
11
2.83503
21
0.473674
0
LINE
8
BLACK
6
CONTINUOUS
10
2.83503
20
0.473674
11
2.83492
21
0.473871
0
LINE
8
BLACK
6
CONTINUOUS
10
2.83492
20
0.473871
11
2.82962
21
0.482923
0
LINE
8
BLACK
6
CONTINUOUS
10
2.82962
20
0.482923
11
2.82954
21
0.483045
0
LINE
8
BLACK
6
CONTINUOUS
10
2.82954
20
0.483045
11
2.82276
21
0.491525
0
LINE
8
BLACK
6
CONTINUOUS
10
2.82276
20
0.491525
11
2.81483
21
0.498937
0
LINE
8
BLACK
6
CONTINUOUS
10
2.81483
20
0.498937
11
2.80591
21
0.505127
0
LINE
8
BLACK
6
CONTINUOUS
10
2.80591
20
0.505127
11
2.80578
21
0.505189
0
LINE
8
BLACK
6
CONTINUOUS
10
2.80578
20
0.505189
11
2.80578
21
0.50519
0
LINE
8
BLACK
6
CONTINUOUS
10
2.80578
20
0.50519
11
2.79631
21
0.5099
0
LINE
8
BLACK
6
CONTINUOUS
10
2.79631
20
0.5099
11
2.79631
21
0.5099
0
LINE
8
BLACK
6
CONTINUOUS
10
2.79631
20
0.5099
11
2.79618
21
0.509963
0
LINE
8
BLACK
6
CONTINUOUS
10
2.79618
20
0.509963
11
2.79605
21
0.510007
0
LINE
8
BLACK
6
CONTINUOUS
10
2.79605
20
0.510007
11
2.79605
21
0.510007
0
LINE
8
BLACK
6
CONTINUOUS
10
2.79605
20
0.510007
11
2.786
21
0.513302
0
LINE
8
BLACK
6
CONTINUOUS
10
2.786
20
0.513302
11
2.786
21
0.513302
0
LINE
8
BLACK
6
CONTINUOUS
10
2.786
20
0.513302
11
2.78587
21
0.513346
0
LINE
8
BLACK
6
CONTINUOUS
10
2.78587
20
0.513346
11
2.77517
21
0.515203
0
LINE
8
BLACK
6
CONTINUOUS
10
2.77517
20
0.515203
11
2.77318
21
0.515302
0
LINE
8
BLACK
6
CONTINUOUS
10
2.77318
20
0.515302
11
2.77179
21
0.515372
0
LINE
8
BLACK
6
CONTINUOUS
10
2.77179
20
0.515372
11
2.77179
21
0.515372
0
LINE
8
BLACK
6
CONTINUOUS
10
2.77179
20
0.515372
11
2.77174
21
0.515374
0
LINE
8
BLACK
6
CONTINUOUS
10
2.77174
20
0.515374
11
2.76496
21
0.515374
0
LINE
8
BLACK
6
CONTINUOUS
10
2.76496
20
0.515374
11
2.75689
21
0.514788
0
LINE
8
BLACK
6
CONTINUOUS
10
2.75689
20
0.514788
11
2.75675
21
0.514758
0
LINE
8
BLACK
6
CONTINUOUS
10
2.75675
20
0.514758
11
2.75675
21
0.514758
0
LINE
8
BLACK
6
CONTINUOUS
10
2.75675
20
0.514758
11
2.74642
21
0.512478
0
LINE
8
BLACK
6
CONTINUOUS
10
2.74642
20
0.512478
11
2.74642
21
0.512478
0
LINE
8
BLACK
6
CONTINUOUS
10
2.74642
20
0.512478
11
2.74628
21
0.512447
0
LINE
8
BLACK
6
CONTINUOUS
10
2.74628
20
0.512447
11
2.74615
21
0.512397
0
LINE
8
BLACK
6
CONTINUOUS
10
2.74615
20
0.512397
11
2.74615
21
0.512397
0
LINE
8
BLACK
6
CONTINUOUS
10
2.74615
20
0.512397
11
2.74205
21
0.510845
0
LINE
8
BLACK
6
CONTINUOUS
10
2.74205
20
0.510845
11
2.73613
21
0.5086
0
LINE
8
BLACK
6
CONTINUOUS
10
2.73613
20
0.5086
11
2.73034
21
0.505386
0
LINE
8
BLACK
6
CONTINUOUS
10
2.73034
20
0.505386
11
2.72699
21
0.503525
0
LINE
8
BLACK
6
CONTINUOUS
10
2.72699
20
0.503525
11
2.72664
21
0.503328
0
LINE
8
BLACK
6
CONTINUOUS
10
2.72664
20
0.503328
11
2.718
21
0.49674
0
LINE
8
BLACK
6
CONTINUOUS
10
2.718
20
0.49674
11
2.71041
21
0.488975
0
LINE
8
BLACK
6
CONTINUOUS
10
2.71041
20
0.488975
11
2.71033
21
0.488861
0
LINE
8
BLACK
6
CONTINUOUS
10
2.71033
20
0.488861
11
2.71033
21
0.488861
0
LINE
8
BLACK
6
CONTINUOUS
10
2.71033
20
0.488861
11
2.70425
21
0.480507
0
LINE
8
BLACK
6
CONTINUOUS
10
2.70425
20
0.480507
11
2.70402
21
0.480196
0
LINE
8
BLACK
6
CONTINUOUS
10
2.70402
20
0.480196
11
2.69897
21
0.470587
0
LINE
8
BLACK
6
CONTINUOUS
10
2.69897
20
0.470587
11
2.69535
21
0.460348
0
LINE
8
BLACK
6
CONTINUOUS
10
2.69535
20
0.460348
11
2.69325
21
0.449694
0
LINE
8
BLACK
6
CONTINUOUS
10
2.69325
20
0.449694
11
2.69271
21
0.438849
0
LINE
8
BLACK
6
CONTINUOUS
10
2.69271
20
0.438849
11
2.69273
21
0.438709
0
LINE
8
BLACK
6
CONTINUOUS
10
2.69273
20
0.438709
11
2.69273
21
0.438709
0
LINE
8
BLACK
6
CONTINUOUS
10
0.490148
20
0.44259
11
0.490148
21
0.442591
0
LINE
8
BLACK
6
CONTINUOUS
10
0.490148
20
0.442591
11
0.489143
21
0.453119
0
LINE
8
BLACK
6
CONTINUOUS
10
0.489143
20
0.453119
11
0.489143
21
0.453119
0
LINE
8
BLACK
6
CONTINUOUS
10
0.489143
20
0.453119
11
0.48913
21
0.45326
0
LINE
8
BLACK
6
CONTINUOUS
10
0.48913
20
0.45326
11
0.486549
21
0.463807
0
LINE
8
BLACK
6
CONTINUOUS
10
0.486549
20
0.463807
11
0.482472
21
0.473871
0
LINE
8
BLACK
6
CONTINUOUS
10
0.482472
20
0.473871
11
0.476986
21
0.483242
0
LINE
8
BLACK
6
CONTINUOUS
10
0.476986
20
0.483242
11
0.470204
21
0.491722
0
LINE
8
BLACK
6
CONTINUOUS
10
0.470204
20
0.491722
11
0.462583
21
0.498841
0
LINE
8
BLACK
6
CONTINUOUS
10
0.462583
20
0.498841
11
0.462372
21
0.499038
0
LINE
8
BLACK
6
CONTINUOUS
10
0.462372
20
0.499038
11
0.462372
21
0.499038
0
LINE
8
BLACK
6
CONTINUOUS
10
0.462372
20
0.499038
11
0.462269
21
0.499134
0
LINE
8
BLACK
6
CONTINUOUS
10
0.462269
20
0.499134
11
0.453747
21
0.505046
0
LINE
8
BLACK
6
CONTINUOUS
10
0.453747
20
0.505046
11
0.453463
21
0.505243
0
LINE
8
BLACK
6
CONTINUOUS
10
0.453463
20
0.505243
11
0.453347
21
0.505323
0
LINE
8
BLACK
6
CONTINUOUS
10
0.453347
20
0.505323
11
0.453221
21
0.505386
0
LINE
8
BLACK
6
CONTINUOUS
10
0.453221
20
0.505386
11
0.453221
21
0.505386
0
LINE
8
BLACK
6
CONTINUOUS
10
0.453221
20
0.505386
11
0.443752
21
0.510097
0
LINE
8
BLACK
6
CONTINUOUS
10
0.443752
20
0.510097
11
0.443752
21
0.510097
0
LINE
8
BLACK
6
CONTINUOUS
10
0.443752
20
0.510097
11
0.443625
21
0.51016
0
LINE
8
BLACK
6
CONTINUOUS
10
0.443625
20
0.51016
11
0.443491
21
0.510204
0
LINE
8
BLACK
6
CONTINUOUS
10
0.443491
20
0.510204
11
0.443491
21
0.510204
0
LINE
8
BLACK
6
CONTINUOUS
10
0.443491
20
0.510204
11
0.433441
21
0.513499
0
LINE
8
BLACK
6
CONTINUOUS
10
0.433441
20
0.513499
11
0.433441
21
0.513499
0
LINE
8
BLACK
6
CONTINUOUS
10
0.433441
20
0.513499
11
0.433307
21
0.513543
0
LINE
8
BLACK
6
CONTINUOUS
10
0.433307
20
0.513543
11
0.422609
21
0.5154
0
LINE
8
BLACK
6
CONTINUOUS
10
0.422609
20
0.5154
11
0.420624
21
0.515499
0
LINE
8
BLACK
6
CONTINUOUS
10
0.420624
20
0.515499
11
0.419227
21
0.515568
0
LINE
8
BLACK
6
CONTINUOUS
10
0.419227
20
0.515568
11
0.419226
21
0.515568
0
LINE
8
BLACK
6
CONTINUOUS
10
0.419226
20
0.515568
11
0.419178
21
0.515571
0
LINE
8
BLACK
6
CONTINUOUS
10
0.419178
20
0.515571
11
0.412399
21
0.515571
0
LINE
8
BLACK
6
CONTINUOUS
10
0.412399
20
0.515571
11
0.404327
21
0.514985
0
LINE
8
BLACK
6
CONTINUOUS
10
0.404327
20
0.514985
11
0.404189
21
0.514955
0
LINE
8
BLACK
6
CONTINUOUS
10
0.404189
20
0.514955
11
0.404189
21
0.514955
0
LINE
8
BLACK
6
CONTINUOUS
10
0.404189
20
0.514955
11
0.393862
21
0.512675
0
LINE
8
BLACK
6
CONTINUOUS
10
0.393862
20
0.512675
11
0.393862
21
0.512675
0
LINE
8
BLACK
6
CONTINUOUS
10
0.393862
20
0.512675
11
0.393724
21
0.512644
0
LINE
8
BLACK
6
CONTINUOUS
10
0.393724
20
0.512644
11
0.393592
21
0.512594
0
LINE
8
BLACK
6
CONTINUOUS
10
0.393592
20
0.512594
11
0.393592
21
0.512594
0
LINE
8
BLACK
6
CONTINUOUS
10
0.393592
20
0.512594
11
0.389495
21
0.511042
0
LINE
8
BLACK
6
CONTINUOUS
10
0.389495
20
0.511042
11
0.38357
21
0.508797
0
LINE
8
BLACK
6
CONTINUOUS
10
0.38357
20
0.508797
11
0.374078
21
0.503525
0
LINE
8
BLACK
6
CONTINUOUS
10
0.374078
20
0.503525
11
0.373965
21
0.503439
0
LINE
8
BLACK
6
CONTINUOUS
10
0.373965
20
0.503439
11
0.373965
21
0.503439
0
LINE
8
BLACK
6
CONTINUOUS
10
0.373965
20
0.503439
11
0.371263
21
0.501377
0
LINE
8
BLACK
6
CONTINUOUS
10
0.371263
20
0.501377
11
0.365446
21
0.496937
0
LINE
8
BLACK
6
CONTINUOUS
10
0.365446
20
0.496937
11
0.357855
21
0.489172
0
LINE
8
BLACK
6
CONTINUOUS
10
0.357855
20
0.489172
11
0.357772
21
0.489058
0
LINE
8
BLACK
6
CONTINUOUS
10
0.357772
20
0.489058
11
0.357772
21
0.489058
0
LINE
8
BLACK
6
CONTINUOUS
10
0.357772
20
0.489058
11
0.353395
21
0.483045
0
LINE
8
BLACK
6
CONTINUOUS
10
0.353395
20
0.483045
11
0.351465
21
0.480393
0
LINE
8
BLACK
6
CONTINUOUS
10
0.351465
20
0.480393
11
0.3514
21
0.480269
0
LINE
8
BLACK
6
CONTINUOUS
10
0.3514
20
0.480269
11
0.351399
21
0.480268
0
LINE
8
BLACK
6
CONTINUOUS
10
0.351399
20
0.480268
11
0.348098
21
0.473993
0
LINE
8
BLACK
6
CONTINUOUS
10
0.348098
20
0.473993
11
0.346409
21
0.470783
0
LINE
8
BLACK
6
CONTINUOUS
10
0.346409
20
0.470783
11
0.342794
21
0.460545
0
LINE
8
BLACK
6
CONTINUOUS
10
0.342794
20
0.460545
11
0.342766
21
0.460406
0
LINE
8
BLACK
6
CONTINUOUS
10
0.342766
20
0.460406
11
0.342727
21
0.460209
0
LINE
8
BLACK
6
CONTINUOUS
10
0.342727
20
0.460209
11
0.340694
21
0.449891
0
LINE
8
BLACK
6
CONTINUOUS
10
0.340694
20
0.449891
11
0.340154
21
0.439046
0
LINE
8
BLACK
6
CONTINUOUS
10
0.340154
20
0.439046
11
0.340167
21
0.438906
0
LINE
8
BLACK
6
CONTINUOUS
10
0.340167
20
0.438906
11
0.340167
21
0.438905
0
LINE
8
BLACK
6
CONTINUOUS
10
0.340167
20
0.438905
11
0.340896
21
0.43127
0
LINE
8
BLACK
6
CONTINUOUS
10
0.340896
20
0.43127
11
0.341185
21
0.428237
0
LINE
8
BLACK
6
CONTINUOUS
10
0.341185
20
0.428237
11
0.343766
21
0.417689
0
LINE
8
BLACK
6
CONTINUOUS
10
0.343766
20
0.417689
11
0.347842
21
0.407625
0
LINE
8
BLACK
6
CONTINUOUS
10
0.347842
20
0.407625
11
0.347914
21
0.407503
0
LINE
8
BLACK
6
CONTINUOUS
10
0.347914
20
0.407503
11
0.347914
21
0.407503
0
LINE
8
BLACK
6
CONTINUOUS
10
0.347914
20
0.407503
11
0.348029
21
0.407306
0
LINE
8
BLACK
6
CONTINUOUS
10
0.348029
20
0.407306
11
0.353329
21
0.398255
0
LINE
8
BLACK
6
CONTINUOUS
10
0.353329
20
0.398255
11
0.360111
21
0.389774
0
LINE
8
BLACK
6
CONTINUOUS
10
0.360111
20
0.389774
11
0.368046
21
0.382362
0
LINE
8
BLACK
6
CONTINUOUS
10
0.368046
20
0.382362
11
0.376968
21
0.376173
0
LINE
8
BLACK
6
CONTINUOUS
10
0.376968
20
0.376173
11
0.377094
21
0.37611
0
LINE
8
BLACK
6
CONTINUOUS
10
0.377094
20
0.37611
11
0.377094
21
0.37611
0
LINE
8
BLACK
6
CONTINUOUS
10
0.377094
20
0.37611
11
0.386563
21
0.371399
0
LINE
8
BLACK
6
CONTINUOUS
10
0.386563
20
0.371399
11
0.386563
21
0.371399
0
LINE
8
BLACK
6
CONTINUOUS
10
0.386563
20
0.371399
11
0.38669
21
0.371336
0
LINE
8
BLACK
6
CONTINUOUS
10
0.38669
20
0.371336
11
0.386824
21
0.371292
0
LINE
8
BLACK
6
CONTINUOUS
10
0.386824
20
0.371292
11
0.386824
21
0.371292
0
LINE
8
BLACK
6
CONTINUOUS
10
0.386824
20
0.371292
11
0.396874
21
0.367997
0
LINE
8
BLACK
6
CONTINUOUS
10
0.396874
20
0.367997
11
0.396874
21
0.367997
0
LINE
8
BLACK
6
CONTINUOUS
10
0.396874
20
0.367997
11
0.397008
21
0.367954
0
LINE
8
BLACK
6
CONTINUOUS
10
0.397008
20
0.367954
11
0.407706
21
0.366096
0
LINE
8
BLACK
6
CONTINUOUS
10
0.407706
20
0.366096
11
0.409691
21
0.365997
0
LINE
8
BLACK
6
CONTINUOUS
10
0.409691
20
0.365997
11
0.411088
21
0.365928
0
LINE
8
BLACK
6
CONTINUOUS
10
0.411088
20
0.365928
11
0.411089
21
0.365928
0
LINE
8
BLACK
6
CONTINUOUS
10
0.411089
20
0.365928
11
0.411137
21
0.365925
0
LINE
8
BLACK
6
CONTINUOUS
10
0.411137
20
0.365925
11
0.417916
21
0.365925
0
LINE
8
BLACK
6
CONTINUOUS
10
0.417916
20
0.365925
11
0.425988
21
0.366511
0
LINE
8
BLACK
6
CONTINUOUS
10
0.425988
20
0.366511
11
0.427185
21
0.366775
0
LINE
8
BLACK
6
CONTINUOUS
10
0.427185
20
0.366775
11
0.436453
21
0.368821
0
LINE
8
BLACK
6
CONTINUOUS
10
0.436453
20
0.368821
11
0.436453
21
0.368821
0
LINE
8
BLACK
6
CONTINUOUS
10
0.436453
20
0.368821
11
0.436591
21
0.368852
0
LINE
8
BLACK
6
CONTINUOUS
10
0.436591
20
0.368852
11
0.436723
21
0.368902
0
LINE
8
BLACK
6
CONTINUOUS
10
0.436723
20
0.368902
11
0.436723
21
0.368902
0
LINE
8
BLACK
6
CONTINUOUS
10
0.436723
20
0.368902
11
0.442512
21
0.371095
0
LINE
8
BLACK
6
CONTINUOUS
10
0.442512
20
0.371095
11
0.446745
21
0.372699
0
LINE
8
BLACK
6
CONTINUOUS
10
0.446745
20
0.372699
11
0.455759
21
0.377706
0
LINE
8
BLACK
6
CONTINUOUS
10
0.455759
20
0.377706
11
0.456114
21
0.377903
0
LINE
8
BLACK
6
CONTINUOUS
10
0.456114
20
0.377903
11
0.456114
21
0.377903
0
LINE
8
BLACK
6
CONTINUOUS
10
0.456114
20
0.377903
11
0.456237
21
0.377971
0
LINE
8
BLACK
6
CONTINUOUS
10
0.456237
20
0.377971
11
0.464869
21
0.384559
0
LINE
8
BLACK
6
CONTINUOUS
10
0.464869
20
0.384559
11
0.47246
21
0.392324
0
LINE
8
BLACK
6
CONTINUOUS
10
0.47246
20
0.392324
11
0.476553
21
0.397947
0
LINE
8
BLACK
6
CONTINUOUS
10
0.476553
20
0.397947
11
0.478767
21
0.400989
0
LINE
8
BLACK
6
CONTINUOUS
10
0.478767
20
0.400989
11
0.47885
21
0.401103
0
LINE
8
BLACK
6
CONTINUOUS
10
0.47885
20
0.401103
11
0.483906
21
0.410713
0
LINE
8
BLACK
6
CONTINUOUS
10
0.483906
20
0.410713
11
0.487521
21
0.420951
0
LINE
8
BLACK
6
CONTINUOUS
10
0.487521
20
0.420951
11
0.489621
21
0.431605
0
LINE
8
BLACK
6
CONTINUOUS
10
0.489621
20
0.431605
11
0.489992
21
0.439046
0
LINE
8
BLACK
6
CONTINUOUS
10
0.489992
20
0.439046
11
0.490161
21
0.44245
0
LINE
8
BLACK
6
CONTINUOUS
10
0.490161
20
0.44245
11
0.490148
21
0.44259
0
LINE
8
BLACK
6
CONTINUOUS
10
1.10001
20
0.438905
11
1.10074
21
0.43127
0
LINE
8
BLACK
6
CONTINUOUS
10
1.10074
20
0.43127
11
1.10103
21
0.428237
0
LINE
8
BLACK
6
CONTINUOUS
10
1.10103
20
0.428237
11
1.10361
21
0.417689
0
LINE
8
BLACK
6
CONTINUOUS
10
1.10361
20
0.417689
11
1.10769
21
0.407625
0
LINE
8
BLACK
6
CONTINUOUS
10
1.10769
20
0.407625
11
1.10776
21
0.407503
0
LINE
8
BLACK
6
CONTINUOUS
10
1.10776
20
0.407503
11
1.10776
21
0.407503
0
LINE
8
BLACK
6
CONTINUOUS
10
1.10776
20
0.407503
11
1.10787
21
0.407306
0
LINE
8
BLACK
6
CONTINUOUS
10
1.10787
20
0.407306
11
1.11317
21
0.398255
0
LINE
8
BLACK
6
CONTINUOUS
10
1.11317
20
0.398255
11
1.11995
21
0.389774
0
LINE
8
BLACK
6
CONTINUOUS
10
1.11995
20
0.389774
11
1.12789
21
0.382362
0
LINE
8
BLACK
6
CONTINUOUS
10
1.12789
20
0.382362
11
1.13681
21
0.376173
0
LINE
8
BLACK
6
CONTINUOUS
10
1.13681
20
0.376173
11
1.13694
21
0.37611
0
LINE
8
BLACK
6
CONTINUOUS
10
1.13694
20
0.37611
11
1.13694
21
0.37611
0
LINE
8
BLACK
6
CONTINUOUS
10
1.13694
20
0.37611
11
1.14641
21
0.371399
0
LINE
8
BLACK
6
CONTINUOUS
10
1.14641
20
0.371399
11
1.14641
21
0.371399
0
LINE
8
BLACK
6
CONTINUOUS
10
1.14641
20
0.371399
11
1.14653
21
0.371336
0
LINE
8
BLACK
6
CONTINUOUS
10
1.14653
20
0.371336
11
1.14667
21
0.371292
0
LINE
8
BLACK
6
CONTINUOUS
10
1.14667
20
0.371292
11
1.14667
21
0.371292
0
LINE
8
BLACK
6
CONTINUOUS
10
1.14667
20
0.371292
11
1.15672
21
0.367997
0
LINE
8
BLACK
6
CONTINUOUS
10
1.15672
20
0.367997
11
1.15672
21
0.367997
0
LINE
8
BLACK
6
CONTINUOUS
10
1.15672
20
0.367997
11
1.15685
21
0.367954
0
LINE
8
BLACK
6
CONTINUOUS
10
1.15685
20
0.367954
11
1.16755
21
0.366096
0
LINE
8
BLACK
6
CONTINUOUS
10
1.16755
20
0.366096
11
1.16953
21
0.365997
0
LINE
8
BLACK
6
CONTINUOUS
10
1.16953
20
0.365997
11
1.17093
21
0.365928
0
LINE
8
BLACK
6
CONTINUOUS
10
1.17093
20
0.365928
11
1.17093
21
0.365928
0
LINE
8
BLACK
6
CONTINUOUS
10
1.17093
20
0.365928
11
1.17098
21
0.365925
0
LINE
8
BLACK
6
CONTINUOUS
10
1.17098
20
0.365925
11
1.17776
21
0.365925
0
LINE
8
BLACK
6
CONTINUOUS
10
1.17776
20
0.365925
11
1.18583
21
0.366511
0
LINE
8
BLACK
6
CONTINUOUS
10
1.18583
20
0.366511
11
1.18703
21
0.366775
0
LINE
8
BLACK
6
CONTINUOUS
10
1.18703
20
0.366775
11
1.1963
21
0.368821
0
LINE
8
BLACK
6
CONTINUOUS
10
1.1963
20
0.368821
11
1.1963
21
0.368821
0
LINE
8
BLACK
6
CONTINUOUS
10
1.1963
20
0.368821
11
1.19643
21
0.368852
0
LINE
8
BLACK
6
CONTINUOUS
10
1.19643
20
0.368852
11
1.19657
21
0.368902
0
LINE
8
BLACK
6
CONTINUOUS
10
1.19657
20
0.368902
11
1.19657
21
0.368902
0
LINE
8
BLACK
6
CONTINUOUS
10
1.19657
20
0.368902
11
1.20235
21
0.371095
0
LINE
8
BLACK
6
CONTINUOUS
10
1.20235
20
0.371095
11
1.20659
21
0.372699
0
LINE
8
BLACK
6
CONTINUOUS
10
1.20659
20
0.372699
11
1.2156
21
0.377706
0
LINE
8
BLACK
6
CONTINUOUS
10
1.2156
20
0.377706
11
1.21596
21
0.377903
0
LINE
8
BLACK
6
CONTINUOUS
10
1.21596
20
0.377903
11
1.21596
21
0.377903
0
LINE
8
BLACK
6
CONTINUOUS
10
1.21596
20
0.377903
11
1.21608
21
0.377971
0
LINE
8
BLACK
6
CONTINUOUS
10
1.21608
20
0.377971
11
1.22471
21
0.384559
0
LINE
8
BLACK
6
CONTINUOUS
10
1.22471
20
0.384559
11
1.2323
21
0.392324
0
LINE
8
BLACK
6
CONTINUOUS
10
1.2323
20
0.392324
11
1.2364
21
0.397947
0
LINE
8
BLACK
6
CONTINUOUS
10
1.2364
20
0.397947
11
1.23861
21
0.400989
0
LINE
8
BLACK
6
CONTINUOUS
10
1.23861
20
0.400989
11
1.23869
21
0.401103
0
LINE
8
BLACK
6
CONTINUOUS
10
1.23869
20
0.401103
11
1.24375
21
0.410713
0
LINE
8
BLACK
6
CONTINUOUS
10
1.24375
20
0.410713
11
1.24736
21
0.420951
0
LINE
8
BLACK
6
CONTINUOUS
10
1.24736
20
0.420951
11
1.24946
21
0.431605
0
LINE
8
BLACK
6
CONTINUOUS
10
1.24946
20
0.431605
11
1.24983
21
0.439046
0
LINE
8
BLACK
6
CONTINUOUS
10
1.24983
20
0.439046
11
1.25
21
0.44245
0
LINE
8
BLACK
6
CONTINUOUS
10
1.25
20
0.44245
11
1.24999
21
0.44259
0
LINE
8
BLACK
6
CONTINUOUS
10
1.24999
20
0.44259
11
1.24999
21
0.442591
0
LINE
8
BLACK
6
CONTINUOUS
10
1.24999
20
0.442591
11
1.24899
21
0.453119
0
LINE
8
BLACK
6
CONTINUOUS
10
1.24899
20
0.453119
11
1.24899
21
0.453119
0
LINE
8
BLACK
6
CONTINUOUS
10
1.24899
20
0.453119
11
1.24897
21
0.45326
0
LINE
8
BLACK
6
CONTINUOUS
10
1.24897
20
0.45326
11
1.24639
21
0.463807
0
LINE
8
BLACK
6
CONTINUOUS
10
1.24639
20
0.463807
11
1.24232
21
0.473871
0
LINE
8
BLACK
6
CONTINUOUS
10
1.24232
20
0.473871
11
1.23683
21
0.483242
0
LINE
8
BLACK
6
CONTINUOUS
10
1.23683
20
0.483242
11
1.23005
21
0.491722
0
LINE
8
BLACK
6
CONTINUOUS
10
1.23005
20
0.491722
11
1.22243
21
0.498841
0
LINE
8
BLACK
6
CONTINUOUS
10
1.22243
20
0.498841
11
1.22221
21
0.499038
0
LINE
8
BLACK
6
CONTINUOUS
10
1.22221
20
0.499038
11
1.22221
21
0.499038
0
LINE
8
BLACK
6
CONTINUOUS
10
1.22221
20
0.499038
11
1.22211
21
0.499134
0
LINE
8
BLACK
6
CONTINUOUS
10
1.22211
20
0.499134
11
1.21359
21
0.505046
0
LINE
8
BLACK
6
CONTINUOUS
10
1.21359
20
0.505046
11
1.21331
21
0.505243
0
LINE
8
BLACK
6
CONTINUOUS
10
1.21331
20
0.505243
11
1.21319
21
0.505323
0
LINE
8
BLACK
6
CONTINUOUS
10
1.21319
20
0.505323
11
1.21306
21
0.505386
0
LINE
8
BLACK
6
CONTINUOUS
10
1.21306
20
0.505386
11
1.21306
21
0.505386
0
LINE
8
BLACK
6
CONTINUOUS
10
1.21306
20
0.505386
11
1.20359
21
0.510097
0
LINE
8
BLACK
6
CONTINUOUS
10
1.20359
20
0.510097
11
1.20359
21
0.510097
0
LINE
8
BLACK
6
CONTINUOUS
10
1.20359
20
0.510097
11
1.20347
21
0.51016
0
LINE
8
BLACK
6
CONTINUOUS
10
1.20347
20
0.51016
11
1.20333
21
0.510204
0
LINE
8
BLACK
6
CONTINUOUS
10
1.20333
20
0.510204
11
1.20333
21
0.510204
0
LINE
8
BLACK
6
CONTINUOUS
10
1.20333
20
0.510204
11
1.19328
21
0.513499
0
LINE
8
BLACK
6
CONTINUOUS
10
1.19328
20
0.513499
11
1.19328
21
0.513499
0
LINE
8
BLACK
6
CONTINUOUS
10
1.19328
20
0.513499
11
1.19315
21
0.513543
0
LINE
8
BLACK
6
CONTINUOUS
10
1.19315
20
0.513543
11
1.18245
21
0.5154
0
LINE
8
BLACK
6
CONTINUOUS
10
1.18245
20
0.5154
11
1.18047
21
0.515499
0
LINE
8
BLACK
6
CONTINUOUS
10
1.18047
20
0.515499
11
1.17907
21
0.515568
0
LINE
8
BLACK
6
CONTINUOUS
10
1.17907
20
0.515568
11
1.17907
21
0.515568
0
LINE
8
BLACK
6
CONTINUOUS
10
1.17907
20
0.515568
11
1.17902
21
0.515571
0
LINE
8
BLACK
6
CONTINUOUS
10
1.17902
20
0.515571
11
1.17224
21
0.515571
0
LINE
8
BLACK
6
CONTINUOUS
10
1.17224
20
0.515571
11
1.16417
21
0.514985
0
LINE
8
BLACK
6
CONTINUOUS
10
1.16417
20
0.514985
11
1.16403
21
0.514955
0
LINE
8
BLACK
6
CONTINUOUS
10
1.16403
20
0.514955
11
1.16403
21
0.514955
0
LINE
8
BLACK
6
CONTINUOUS
10
1.16403
20
0.514955
11
1.1537
21
0.512675
0
LINE
8
BLACK
6
CONTINUOUS
10
1.1537
20
0.512675
11
1.1537
21
0.512675
0
LINE
8
BLACK
6
CONTINUOUS
10
1.1537
20
0.512675
11
1.15357
21
0.512644
0
LINE
8
BLACK
6
CONTINUOUS
10
1.15357
20
0.512644
11
1.15343
21
0.512594
0
LINE
8
BLACK
6
CONTINUOUS
10
1.15343
20
0.512594
11
1.15343
21
0.512594
0
LINE
8
BLACK
6
CONTINUOUS
10
1.15343
20
0.512594
11
1.14934
21
0.511042
0
LINE
8
BLACK
6
CONTINUOUS
10
1.14934
20
0.511042
11
1.14341
21
0.508797
0
LINE
8
BLACK
6
CONTINUOUS
10
1.14341
20
0.508797
11
1.13392
21
0.503525
0
LINE
8
BLACK
6
CONTINUOUS
10
1.13392
20
0.503525
11
1.13381
21
0.503439
0
LINE
8
BLACK
6
CONTINUOUS
10
1.13381
20
0.503439
11
1.13381
21
0.503439
0
LINE
8
BLACK
6
CONTINUOUS
10
1.13381
20
0.503439
11
1.13111
21
0.501377
0
LINE
8
BLACK
6
CONTINUOUS
10
1.13111
20
0.501377
11
1.12529
21
0.496937
0
LINE
8
BLACK
6
CONTINUOUS
10
1.12529
20
0.496937
11
1.1177
21
0.489172
0
LINE
8
BLACK
6
CONTINUOUS
10
1.1177
20
0.489172
11
1.11761
21
0.489058
0
LINE
8
BLACK
6
CONTINUOUS
10
1.11761
20
0.489058
11
1.11761
21
0.489058
0
LINE
8
BLACK
6
CONTINUOUS
10
1.11761
20
0.489058
11
1.11324
21
0.483045
0
LINE
8
BLACK
6
CONTINUOUS
10
1.11324
20
0.483045
11
1.11131
21
0.480393
0
LINE
8
BLACK
6
CONTINUOUS
10
1.11131
20
0.480393
11
1.11124
21
0.480269
0
LINE
8
BLACK
6
CONTINUOUS
10
1.11124
20
0.480269
11
1.11124
21
0.480268
0
LINE
8
BLACK
6
CONTINUOUS
10
1.11124
20
0.480268
11
1.10794
21
0.473993
0
LINE
8
BLACK
6
CONTINUOUS
10
1.10794
20
0.473993
11
1.10625
21
0.470783
0
LINE
8
BLACK
6
CONTINUOUS
10
1.10625
20
0.470783
11
1.10264
21
0.460545
0
LINE
8
BLACK
6
CONTINUOUS
10
1.10264
20
0.460545
11
1.10261
21
0.460406
0
LINE
8
BLACK
6
CONTINUOUS
10
1.10261
20
0.460406
11
1.10257
21
0.460209
0
LINE
8
BLACK
6
CONTINUOUS
10
1.10257
20
0.460209
11
1.10054
21
0.449891
0
LINE
8
BLACK
6
CONTINUOUS
10
1.10054
20
0.449891
11
1.1
21
0.439046
0
LINE
8
BLACK
6
CONTINUOUS
10
1.1
20
0.439046
11
1.10001
21
0.438906
0
LINE
8
BLACK
6
CONTINUOUS
10
1.10001
20
0.438906
11
1.10001
21
0.438905
0
LINE
8
BLACK
6
CONTINUOUS
10
3.45257
20
2.62847
11
3.4533
21
2.62084
0
LINE
8
BLACK
6
CONTINUOUS
10
3.4533
20
2.62084
11
3.45359
21
2.6178
0
LINE
8
BLACK
6
CONTINUOUS
10
3.45359
20
2.6178
11
3.45617
21
2.60726
0
LINE
8
BLACK
6
CONTINUOUS
10
3.45617
20
2.60726
11
3.46024
21
2.59719
0
LINE
8
BLACK
6
CONTINUOUS
10
3.46024
20
2.59719
11
3.46032
21
2.59707
0
LINE
8
BLACK
6
CONTINUOUS
10
3.46032
20
2.59707
11
3.46032
21
2.59707
0
LINE
8
BLACK
6
CONTINUOUS
10
3.46032
20
2.59707
11
3.46043
21
2.59687
0
LINE
8
BLACK
6
CONTINUOUS
10
3.46043
20
2.59687
11
3.46573
21
2.58782
0
LINE
8
BLACK
6
CONTINUOUS
10
3.46573
20
2.58782
11
3.47251
21
2.57934
0
LINE
8
BLACK
6
CONTINUOUS
10
3.47251
20
2.57934
11
3.48045
21
2.57193
0
LINE
8
BLACK
6
CONTINUOUS
10
3.48045
20
2.57193
11
3.48937
21
2.56574
0
LINE
8
BLACK
6
CONTINUOUS
10
3.48937
20
2.56574
11
3.4895
21
2.56568
0
LINE
8
BLACK
6
CONTINUOUS
10
3.4895
20
2.56568
11
3.4895
21
2.56568
0
LINE
8
BLACK
6
CONTINUOUS
10
3.4895
20
2.56568
11
3.49896
21
2.56097
0
LINE
8
BLACK
6
CONTINUOUS
10
3.49896
20
2.56097
11
3.49896
21
2.56097
0
LINE
8
BLACK
6
CONTINUOUS
10
3.49896
20
2.56097
11
3.49909
21
2.5609
0
LINE
8
BLACK
6
CONTINUOUS
10
3.49909
20
2.5609
11
3.49923
21
2.56086
0
LINE
8
BLACK
6
CONTINUOUS
10
3.49923
20
2.56086
11
3.49923
21
2.56086
0
LINE
8
BLACK
6
CONTINUOUS
10
3.49923
20
2.56086
11
3.50928
21
2.55756
0
LINE
8
BLACK
6
CONTINUOUS
10
3.50928
20
2.55756
11
3.50928
21
2.55756
0
LINE
8
BLACK
6
CONTINUOUS
10
3.50928
20
2.55756
11
3.50941
21
2.55752
0
LINE
8
BLACK
6
CONTINUOUS
10
3.50941
20
2.55752
11
3.52011
21
2.55566
0
LINE
8
BLACK
6
CONTINUOUS
10
3.52011
20
2.55566
11
3.52209
21
2.55556
0
LINE
8
BLACK
6
CONTINUOUS
10
3.52209
20
2.55556
11
3.52349
21
2.55549
0
LINE
8
BLACK
6
CONTINUOUS
10
3.52349
20
2.55549
11
3.52349
21
2.55549
0
LINE
8
BLACK
6
CONTINUOUS
10
3.52349
20
2.55549
11
3.52354
21
2.55549
0
LINE
8
BLACK
6
CONTINUOUS
10
3.52354
20
2.55549
11
3.53032
21
2.55549
0
LINE
8
BLACK
6
CONTINUOUS
10
3.53032
20
2.55549
11
3.53839
21
2.55608
0
LINE
8
BLACK
6
CONTINUOUS
10
3.53839
20
2.55608
11
3.53959
21
2.55634
0
LINE
8
BLACK
6
CONTINUOUS
10
3.53959
20
2.55634
11
3.54885
21
2.55839
0
LINE
8
BLACK
6
CONTINUOUS
10
3.54885
20
2.55839
11
3.54885
21
2.55839
0
LINE
8
BLACK
6
CONTINUOUS
10
3.54885
20
2.55839
11
3.54899
21
2.55842
0
LINE
8
BLACK
6
CONTINUOUS
10
3.54899
20
2.55842
11
3.54912
21
2.55847
0
LINE
8
BLACK
6
CONTINUOUS
10
3.54912
20
2.55847
11
3.54912
21
2.55847
0
LINE
8
BLACK
6
CONTINUOUS
10
3.54912
20
2.55847
11
3.55491
21
2.56066
0
LINE
8
BLACK
6
CONTINUOUS
10
3.55491
20
2.56066
11
3.55915
21
2.56227
0
LINE
8
BLACK
6
CONTINUOUS
10
3.55915
20
2.56227
11
3.56816
21
2.56727
0
LINE
8
BLACK
6
CONTINUOUS
10
3.56816
20
2.56727
11
3.56852
21
2.56747
0
LINE
8
BLACK
6
CONTINUOUS
10
3.56852
20
2.56747
11
3.56852
21
2.56747
0
LINE
8
BLACK
6
CONTINUOUS
10
3.56852
20
2.56747
11
3.56864
21
2.56754
0
LINE
8
BLACK
6
CONTINUOUS
10
3.56864
20
2.56754
11
3.57727
21
2.57413
0
LINE
8
BLACK
6
CONTINUOUS
10
3.57727
20
2.57413
11
3.58486
21
2.58189
0
LINE
8
BLACK
6
CONTINUOUS
10
3.58486
20
2.58189
11
3.58895
21
2.58751
0
LINE
8
BLACK
6
CONTINUOUS
10
3.58895
20
2.58751
11
3.59117
21
2.59056
0
LINE
8
BLACK
6
CONTINUOUS
10
3.59117
20
2.59056
11
3.59125
21
2.59067
0
LINE
8
BLACK
6
CONTINUOUS
10
3.59125
20
2.59067
11
3.59631
21
2.60028
0
LINE
8
BLACK
6
CONTINUOUS
10
3.59631
20
2.60028
11
3.59992
21
2.61052
0
LINE
8
BLACK
6
CONTINUOUS
10
3.59992
20
2.61052
11
3.60202
21
2.62117
0
LINE
8
BLACK
6
CONTINUOUS
10
3.60202
20
2.62117
11
3.60256
21
2.63202
0
LINE
8
BLACK
6
CONTINUOUS
10
3.60256
20
2.63202
11
3.60255
21
2.63216
0
LINE
8
BLACK
6
CONTINUOUS
10
3.60255
20
2.63216
11
3.60255
21
2.63216
0
LINE
8
BLACK
6
CONTINUOUS
10
3.60255
20
2.63216
11
3.60154
21
2.64269
0
LINE
8
BLACK
6
CONTINUOUS
10
3.60154
20
2.64269
11
3.60154
21
2.64269
0
LINE
8
BLACK
6
CONTINUOUS
10
3.60154
20
2.64269
11
3.60153
21
2.64283
0
LINE
8
BLACK
6
CONTINUOUS
10
3.60153
20
2.64283
11
3.59895
21
2.65337
0
LINE
8
BLACK
6
CONTINUOUS
10
3.59895
20
2.65337
11
3.59487
21
2.66344
0
LINE
8
BLACK
6
CONTINUOUS
10
3.59487
20
2.66344
11
3.58939
21
2.67281
0
LINE
8
BLACK
6
CONTINUOUS
10
3.58939
20
2.67281
11
3.58261
21
2.68129
0
LINE
8
BLACK
6
CONTINUOUS
10
3.58261
20
2.68129
11
3.57498
21
2.68841
0
LINE
8
BLACK
6
CONTINUOUS
10
3.57498
20
2.68841
11
3.57477
21
2.6886
0
LINE
8
BLACK
6
CONTINUOUS
10
3.57477
20
2.6886
11
3.57477
21
2.6886
0
LINE
8
BLACK
6
CONTINUOUS
10
3.57477
20
2.6886
11
3.57467
21
2.6887
0
LINE
8
BLACK
6
CONTINUOUS
10
3.57467
20
2.6887
11
3.56615
21
2.69461
0
LINE
8
BLACK
6
CONTINUOUS
10
3.56615
20
2.69461
11
3.56586
21
2.69481
0
LINE
8
BLACK
6
CONTINUOUS
10
3.56586
20
2.69481
11
3.56575
21
2.69489
0
LINE
8
BLACK
6
CONTINUOUS
10
3.56575
20
2.69489
11
3.56562
21
2.69495
0
LINE
8
BLACK
6
CONTINUOUS
10
3.56562
20
2.69495
11
3.56562
21
2.69495
0
LINE
8
BLACK
6
CONTINUOUS
10
3.56562
20
2.69495
11
3.55615
21
2.69966
0
LINE
8
BLACK
6
CONTINUOUS
10
3.55615
20
2.69966
11
3.55615
21
2.69966
0
LINE
8
BLACK
6
CONTINUOUS
10
3.55615
20
2.69966
11
3.55603
21
2.69973
0
LINE
8
BLACK
6
CONTINUOUS
10
3.55603
20
2.69973
11
3.55589
21
2.69977
0
LINE
8
BLACK
6
CONTINUOUS
10
3.55589
20
2.69977
11
3.55589
21
2.69977
0
LINE
8
BLACK
6
CONTINUOUS
10
3.55589
20
2.69977
11
3.54584
21
2.70307
0
LINE
8
BLACK
6
CONTINUOUS
10
3.54584
20
2.70307
11
3.54584
21
2.70307
0
LINE
8
BLACK
6
CONTINUOUS
10
3.54584
20
2.70307
11
3.54571
21
2.70311
0
LINE
8
BLACK
6
CONTINUOUS
10
3.54571
20
2.70311
11
3.53501
21
2.70497
0
LINE
8
BLACK
6
CONTINUOUS
10
3.53501
20
2.70497
11
3.53303
21
2.70507
0
LINE
8
BLACK
6
CONTINUOUS
10
3.53303
20
2.70507
11
3.53163
21
2.70514
0
LINE
8
BLACK
6
CONTINUOUS
10
3.53163
20
2.70514
11
3.53163
21
2.70514
0
LINE
8
BLACK
6
CONTINUOUS
10
3.53163
20
2.70514
11
3.53158
21
2.70514
0
LINE
8
BLACK
6
CONTINUOUS
10
3.53158
20
2.70514
11
3.5248
21
2.70514
0
LINE
8
BLACK
6
CONTINUOUS
10
3.5248
20
2.70514
11
3.51673
21
2.70455
0
LINE
8
BLACK
6
CONTINUOUS
10
3.51673
20
2.70455
11
3.51659
21
2.70452
0
LINE
8
BLACK
6
CONTINUOUS
10
3.51659
20
2.70452
11
3.51659
21
2.70452
0
LINE
8
BLACK
6
CONTINUOUS
10
3.51659
20
2.70452
11
3.50626
21
2.70224
0
LINE
8
BLACK
6
CONTINUOUS
10
3.50626
20
2.70224
11
3.50626
21
2.70224
0
LINE
8
BLACK
6
CONTINUOUS
10
3.50626
20
2.70224
11
3.50613
21
2.70221
0
LINE
8
BLACK
6
CONTINUOUS
10
3.50613
20
2.70221
11
3.50599
21
2.70216
0
LINE
8
BLACK
6
CONTINUOUS
10
3.50599
20
2.70216
11
3.50599
21
2.70216
0
LINE
8
BLACK
6
CONTINUOUS
10
3.50599
20
2.70216
11
3.5019
21
2.70061
0
LINE
8
BLACK
6
CONTINUOUS
10
3.5019
20
2.70061
11
3.49597
21
2.69836
0
LINE
8
BLACK
6
CONTINUOUS
10
3.49597
20
2.69836
11
3.48648
21
2.69309
0
LINE
8
BLACK
6
CONTINUOUS
10
3.48648
20
2.69309
11
3.48637
21
2.69301
0
LINE
8
BLACK
6
CONTINUOUS
10
3.48637
20
2.69301
11
3.48637
21
2.69301
0
LINE
8
BLACK
6
CONTINUOUS
10
3.48637
20
2.69301
11
3.48366
21
2.69094
0
LINE
8
BLACK
6
CONTINUOUS
10
3.48366
20
2.69094
11
3.47785
21
2.6865
0
LINE
8
BLACK
6
CONTINUOUS
10
3.47785
20
2.6865
11
3.47026
21
2.67874
0
LINE
8
BLACK
6
CONTINUOUS
10
3.47026
20
2.67874
11
3.47017
21
2.67863
0
LINE
8
BLACK
6
CONTINUOUS
10
3.47017
20
2.67863
11
3.47017
21
2.67862
0
LINE
8
BLACK
6
CONTINUOUS
10
3.47017
20
2.67862
11
3.4658
21
2.67261
0
LINE
8
BLACK
6
CONTINUOUS
10
3.4658
20
2.67261
11
3.46387
21
2.66996
0
LINE
8
BLACK
6
CONTINUOUS
10
3.46387
20
2.66996
11
3.4638
21
2.66984
0
LINE
8
BLACK
6
CONTINUOUS
10
3.4638
20
2.66984
11
3.4638
21
2.66984
0
LINE
8
BLACK
6
CONTINUOUS
10
3.4638
20
2.66984
11
3.4605
21
2.66356
0
LINE
8
BLACK
6
CONTINUOUS
10
3.4605
20
2.66356
11
3.45881
21
2.66035
0
LINE
8
BLACK
6
CONTINUOUS
10
3.45881
20
2.66035
11
3.4552
21
2.65011
0
LINE
8
BLACK
6
CONTINUOUS
10
3.4552
20
2.65011
11
3.45517
21
2.64997
0
LINE
8
BLACK
6
CONTINUOUS
10
3.45517
20
2.64997
11
3.45513
21
2.64978
0
LINE
8
BLACK
6
CONTINUOUS
10
3.45513
20
2.64978
11
3.4531
21
2.63946
0
LINE
8
BLACK
6
CONTINUOUS
10
3.4531
20
2.63946
11
3.45256
21
2.62861
0
LINE
8
BLACK
6
CONTINUOUS
10
3.45256
20
2.62861
11
3.45257
21
2.62847
0
LINE
8
BLACK
6
CONTINUOUS
10
3.45257
20
2.62847
11
3.45257
21
2.62847
0
LINE
8
BLACK
6
CONTINUOUS
10
3.05237
20
0.84412
11
3.05252
21
0.843562
0
LINE
8
BLACK
6
CONTINUOUS
10
3.05252
20
0.843562
11
3.05405
21
0.840137
0
LINE
8
BLACK
6
CONTINUOUS
10
3.05405
20
0.840137
11
3.05445
21
0.839554
0
LINE
8
BLACK
6
CONTINUOUS
10
3.05445
20
0.839554
11
3.05705
21
0.836954
0
LINE
8
BLACK
6
CONTINUOUS
10
3.05705
20
0.836954
11
3.05764
21
0.836554
0
LINE
8
BLACK
6
CONTINUOUS
10
3.05764
20
0.836554
11
3.06106
21
0.835039
0
LINE
8
BLACK
6
CONTINUOUS
10
3.06106
20
0.835039
11
3.06162
21
0.834887
0
LINE
8
BLACK
6
CONTINUOUS
10
3.06162
20
0.834887
11
3.06223
21
0.834816
0
LINE
8
BLACK
6
CONTINUOUS
10
3.06223
20
0.834816
11
3.06245
21
0.834803
0
LINE
8
BLACK
6
CONTINUOUS
10
3.06245
20
0.834803
11
3.10285
21
0.834803
0
LINE
8
BLACK
6
CONTINUOUS
10
3.10285
20
0.834803
11
3.10335
21
0.834965
0
LINE
8
BLACK
6
CONTINUOUS
10
3.10335
20
0.834965
11
3.10346
21
0.835128
0
LINE
8
BLACK
6
CONTINUOUS
10
3.10346
20
0.835128
11
3.10346
21
0.846614
0
LINE
8
BLACK
6
CONTINUOUS
10
3.10346
20
0.846614
11
3.06409
21
0.846614
0
LINE
8
BLACK
6
CONTINUOUS
10
3.06409
20
0.846614
11
3.06409
21
0.885984
0
LINE
8
BLACK
6
CONTINUOUS
10
3.06409
20
0.885984
11
3.0529
21
0.885984
0
LINE
8
BLACK
6
CONTINUOUS
10
3.0529
20
0.885984
11
3.0524
21
0.885822
0
LINE
8
BLACK
6
CONTINUOUS
10
3.0524
20
0.885822
11
3.05228
21
0.88566
0
LINE
8
BLACK
6
CONTINUOUS
10
3.05228
20
0.88566
11
3.05228
21
0.844975
0
LINE
8
BLACK
6
CONTINUOUS
10
3.05228
20
0.844975
11
3.0523
21
0.844745
0
LINE
8
BLACK
6
CONTINUOUS
10
3.0523
20
0.844745
11
3.05237
21
0.84412
0
LINE
8
BLACK
6
CONTINUOUS
10
0.490148
20
2.63196
11
0.490148
21
2.63196
0
LINE
8
BLACK
6
CONTINUOUS
10
0.490148
20
2.63196
11
0.489143
21
2.64249
0
LINE
8
BLACK
6
CONTINUOUS
10
0.489143
20
2.64249
11
0.489143
21
2.64249
0
LINE
8
BLACK
6
CONTINUOUS
10
0.489143
20
2.64249
11
0.48913
21
2.64263
0
LINE
8
BLACK
6
CONTINUOUS
10
0.48913
20
2.64263
11
0.486549
21
2.65318
0
LINE
8
BLACK
6
CONTINUOUS
10
0.486549
20
2.65318
11
0.482472
21
2.66324
0
LINE
8
BLACK
6
CONTINUOUS
10
0.482472
20
2.66324
11
0.482357
21
2.66344
0
LINE
8
BLACK
6
CONTINUOUS
10
0.482357
20
2.66344
11
0.477057
21
2.67249
0
LINE
8
BLACK
6
CONTINUOUS
10
0.477057
20
2.67249
11
0.476986
21
2.67261
0
LINE
8
BLACK
6
CONTINUOUS
10
0.476986
20
2.67261
11
0.470204
21
2.68109
0
LINE
8
BLACK
6
CONTINUOUS
10
0.470204
20
2.68109
11
0.462269
21
2.6885
0
LINE
8
BLACK
6
CONTINUOUS
10
0.462269
20
2.6885
11
0.453347
21
2.69469
0
LINE
8
BLACK
6
CONTINUOUS
10
0.453347
20
2.69469
11
0.453221
21
2.69476
0
LINE
8
BLACK
6
CONTINUOUS
10
0.453221
20
2.69476
11
0.453221
21
2.69476
0
LINE
8
BLACK
6
CONTINUOUS
10
0.453221
20
2.69476
11
0.443752
21
2.69947
0
LINE
8
BLACK
6
CONTINUOUS
10
0.443752
20
2.69947
11
0.443752
21
2.69947
0
LINE
8
BLACK
6
CONTINUOUS
10
0.443752
20
2.69947
11
0.443625
21
2.69953
0
LINE
8
BLACK
6
CONTINUOUS
10
0.443625
20
2.69953
11
0.443491
21
2.69957
0
LINE
8
BLACK
6
CONTINUOUS
10
0.443491
20
2.69957
11
0.443491
21
2.69957
0
LINE
8
BLACK
6
CONTINUOUS
10
0.443491
20
2.69957
11
0.433441
21
2.70287
0
LINE
8
BLACK
6
CONTINUOUS
10
0.433441
20
2.70287
11
0.433441
21
2.70287
0
LINE
8
BLACK
6
CONTINUOUS
10
0.433441
20
2.70287
11
0.433307
21
2.70291
0
LINE
8
BLACK
6
CONTINUOUS
10
0.433307
20
2.70291
11
0.422609
21
2.70477
0
LINE
8
BLACK
6
CONTINUOUS
10
0.422609
20
2.70477
11
0.420624
21
2.70487
0
LINE
8
BLACK
6
CONTINUOUS
10
0.420624
20
2.70487
11
0.419227
21
2.70494
0
LINE
8
BLACK
6
CONTINUOUS
10
0.419227
20
2.70494
11
0.419226
21
2.70494
0
LINE
8
BLACK
6
CONTINUOUS
10
0.419226
20
2.70494
11
0.419178
21
2.70494
0
LINE
8
BLACK
6
CONTINUOUS
10
0.419178
20
2.70494
11
0.412399
21
2.70494
0
LINE
8
BLACK
6
CONTINUOUS
10
0.412399
20
2.70494
11
0.404327
21
2.70436
0
LINE
8
BLACK
6
CONTINUOUS
10
0.404327
20
2.70436
11
0.404189
21
2.70432
0
LINE
8
BLACK
6
CONTINUOUS
10
0.404189
20
2.70432
11
0.404189
21
2.70432
0
LINE
8
BLACK
6
CONTINUOUS
10
0.404189
20
2.70432
11
0.393862
21
2.70204
0
LINE
8
BLACK
6
CONTINUOUS
10
0.393862
20
2.70204
11
0.393862
21
2.70204
0
LINE
8
BLACK
6
CONTINUOUS
10
0.393862
20
2.70204
11
0.393724
21
2.70201
0
LINE
8
BLACK
6
CONTINUOUS
10
0.393724
20
2.70201
11
0.393592
21
2.70196
0
LINE
8
BLACK
6
CONTINUOUS
10
0.393592
20
2.70196
11
0.393592
21
2.70196
0
LINE
8
BLACK
6
CONTINUOUS
10
0.393592
20
2.70196
11
0.389495
21
2.70041
0
LINE
8
BLACK
6
CONTINUOUS
10
0.389495
20
2.70041
11
0.38357
21
2.69817
0
LINE
8
BLACK
6
CONTINUOUS
10
0.38357
20
2.69817
11
0.377784
21
2.69495
0
LINE
8
BLACK
6
CONTINUOUS
10
0.377784
20
2.69495
11
0.374432
21
2.69309
0
LINE
8
BLACK
6
CONTINUOUS
10
0.374432
20
2.69309
11
0.374078
21
2.69289
0
LINE
8
BLACK
6
CONTINUOUS
10
0.374078
20
2.69289
11
0.365446
21
2.68631
0
LINE
8
BLACK
6
CONTINUOUS
10
0.365446
20
2.68631
11
0.357855
21
2.67854
0
LINE
8
BLACK
6
CONTINUOUS
10
0.357855
20
2.67854
11
0.357772
21
2.67843
0
LINE
8
BLACK
6
CONTINUOUS
10
0.357772
20
2.67843
11
0.357772
21
2.67843
0
LINE
8
BLACK
6
CONTINUOUS
10
0.357772
20
2.67843
11
0.351691
21
2.67007
0
LINE
8
BLACK
6
CONTINUOUS
10
0.351691
20
2.67007
11
0.351465
21
2.66976
0
LINE
8
BLACK
6
CONTINUOUS
10
0.351465
20
2.66976
11
0.346409
21
2.66015
0
LINE
8
BLACK
6
CONTINUOUS
10
0.346409
20
2.66015
11
0.342794
21
2.64991
0
LINE
8
BLACK
6
CONTINUOUS
10
0.342794
20
2.64991
11
0.340694
21
2.63926
0
LINE
8
BLACK
6
CONTINUOUS
10
0.340694
20
2.63926
11
0.340154
21
2.62842
0
LINE
8
BLACK
6
CONTINUOUS
10
0.340154
20
2.62842
11
0.340167
21
2.62828
0
LINE
8
BLACK
6
CONTINUOUS
10
0.340167
20
2.62828
11
0.340167
21
2.62828
0
LINE
8
BLACK
6
CONTINUOUS
10
0.340167
20
2.62828
11
0.340877
21
2.62084
0
LINE
8
BLACK
6
CONTINUOUS
10
0.340877
20
2.62084
11
0.341185
21
2.61761
0
LINE
8
BLACK
6
CONTINUOUS
10
0.341185
20
2.61761
11
0.343766
21
2.60706
0
LINE
8
BLACK
6
CONTINUOUS
10
0.343766
20
2.60706
11
0.347842
21
2.597
0
LINE
8
BLACK
6
CONTINUOUS
10
0.347842
20
2.597
11
0.353329
21
2.58762
0
LINE
8
BLACK
6
CONTINUOUS
10
0.353329
20
2.58762
11
0.360111
21
2.57914
0
LINE
8
BLACK
6
CONTINUOUS
10
0.360111
20
2.57914
11
0.360214
21
2.57905
0
LINE
8
BLACK
6
CONTINUOUS
10
0.360214
20
2.57905
11
0.367921
21
2.57185
0
LINE
8
BLACK
6
CONTINUOUS
10
0.367921
20
2.57185
11
0.368046
21
2.57173
0
LINE
8
BLACK
6
CONTINUOUS
10
0.368046
20
2.57173
11
0.368162
21
2.57165
0
LINE
8
BLACK
6
CONTINUOUS
10
0.368162
20
2.57165
11
0.376684
21
2.56574
0
LINE
8
BLACK
6
CONTINUOUS
10
0.376684
20
2.56574
11
0.376968
21
2.56554
0
LINE
8
BLACK
6
CONTINUOUS
10
0.376968
20
2.56554
11
0.377094
21
2.56548
0
LINE
8
BLACK
6
CONTINUOUS
10
0.377094
20
2.56548
11
0.377094
21
2.56548
0
LINE
8
BLACK
6
CONTINUOUS
10
0.377094
20
2.56548
11
0.386563
21
2.56077
0
LINE
8
BLACK
6
CONTINUOUS
10
0.386563
20
2.56077
11
0.386563
21
2.56077
0
LINE
8
BLACK
6
CONTINUOUS
10
0.386563
20
2.56077
11
0.38669
21
2.56071
0
LINE
8
BLACK
6
CONTINUOUS
10
0.38669
20
2.56071
11
0.386824
21
2.56066
0
LINE
8
BLACK
6
CONTINUOUS
10
0.386824
20
2.56066
11
0.386824
21
2.56066
0
LINE
8
BLACK
6
CONTINUOUS
10
0.386824
20
2.56066
11
0.396874
21
2.55737
0
LINE
8
BLACK
6
CONTINUOUS
10
0.396874
20
2.55737
11
0.396874
21
2.55737
0
LINE
8
BLACK
6
CONTINUOUS
10
0.396874
20
2.55737
11
0.397008
21
2.55732
0
LINE
8
BLACK
6
CONTINUOUS
10
0.397008
20
2.55732
11
0.407706
21
2.55547
0
LINE
8
BLACK
6
CONTINUOUS
10
0.407706
20
2.55547
11
0.409691
21
2.55537
0
LINE
8
BLACK
6
CONTINUOUS
10
0.409691
20
2.55537
11
0.411088
21
2.5553
0
LINE
8
BLACK
6
CONTINUOUS
10
0.411088
20
2.5553
11
0.411089
21
2.5553
0
LINE
8
BLACK
6
CONTINUOUS
10
0.411089
20
2.5553
11
0.411137
21
2.5553
0
LINE
8
BLACK
6
CONTINUOUS
10
0.411137
20
2.5553
11
0.417916
21
2.5553
0
LINE
8
BLACK
6
CONTINUOUS
10
0.417916
20
2.5553
11
0.425988
21
2.55588
0
LINE
8
BLACK
6
CONTINUOUS
10
0.425988
20
2.55588
11
0.427185
21
2.55615
0
LINE
8
BLACK
6
CONTINUOUS
10
0.427185
20
2.55615
11
0.436453
21
2.55819
0
LINE
8
BLACK
6
CONTINUOUS
10
0.436453
20
2.55819
11
0.436453
21
2.55819
0
LINE
8
BLACK
6
CONTINUOUS
10
0.436453
20
2.55819
11
0.436591
21
2.55822
0
LINE
8
BLACK
6
CONTINUOUS
10
0.436591
20
2.55822
11
0.436723
21
2.55827
0
LINE
8
BLACK
6
CONTINUOUS
10
0.436723
20
2.55827
11
0.436723
21
2.55827
0
LINE
8
BLACK
6
CONTINUOUS
10
0.436723
20
2.55827
11
0.443148
21
2.56071
0
LINE
8
BLACK
6
CONTINUOUS
10
0.443148
20
2.56071
11
0.446745
21
2.56207
0
LINE
8
BLACK
6
CONTINUOUS
10
0.446745
20
2.56207
11
0.456237
21
2.56734
0
LINE
8
BLACK
6
CONTINUOUS
10
0.456237
20
2.56734
11
0.456608
21
2.56762
0
LINE
8
BLACK
6
CONTINUOUS
10
0.456608
20
2.56762
11
0.461885
21
2.57165
0
LINE
8
BLACK
6
CONTINUOUS
10
0.461885
20
2.57165
11
0.464869
21
2.57393
0
LINE
8
BLACK
6
CONTINUOUS
10
0.464869
20
2.57393
11
0.47246
21
2.58169
0
LINE
8
BLACK
6
CONTINUOUS
10
0.47246
20
2.58169
11
0.472603
21
2.58189
0
LINE
8
BLACK
6
CONTINUOUS
10
0.472603
20
2.58189
11
0.478767
21
2.59036
0
LINE
8
BLACK
6
CONTINUOUS
10
0.478767
20
2.59036
11
0.47885
21
2.59047
0
LINE
8
BLACK
6
CONTINUOUS
10
0.47885
20
2.59047
11
0.479019
21
2.59079
0
LINE
8
BLACK
6
CONTINUOUS
10
0.479019
20
2.59079
11
0.48384
21
2.59996
0
LINE
8
BLACK
6
CONTINUOUS
10
0.48384
20
2.59996
11
0.483906
21
2.60008
0
LINE
8
BLACK
6
CONTINUOUS
10
0.483906
20
2.60008
11
0.487521
21
2.61032
0
LINE
8
BLACK
6
CONTINUOUS
10
0.487521
20
2.61032
11
0.48756
21
2.61052
0
LINE
8
BLACK
6
CONTINUOUS
10
0.48756
20
2.61052
11
0.489594
21
2.62084
0
LINE
8
BLACK
6
CONTINUOUS
10
0.489594
20
2.62084
11
0.489621
21
2.62098
0
LINE
8
BLACK
6
CONTINUOUS
10
0.489621
20
2.62098
11
0.489992
21
2.62842
0
LINE
8
BLACK
6
CONTINUOUS
10
0.489992
20
2.62842
11
0.490161
21
2.63182
0
LINE
8
BLACK
6
CONTINUOUS
10
0.490161
20
2.63182
11
0.490148
21
2.63196
0
LINE
8
BLACK
6
CONTINUOUS
10
1.10001
20
2.62828
11
1.10072
21
2.62084
0
LINE
8
BLACK
6
CONTINUOUS
10
1.10072
20
2.62084
11
1.10103
21
2.61761
0
LINE
8
BLACK
6
CONTINUOUS
10
1.10103
20
2.61761
11
1.10361
21
2.60706
0
LINE
8
BLACK
6
CONTINUOUS
10
1.10361
20
2.60706
11
1.10769
21
2.597
0
LINE
8
BLACK
6
CONTINUOUS
10
1.10769
20
2.597
11
1.11317
21
2.58762
0
LINE
8
BLACK
6
CONTINUOUS
10
1.11317
20
2.58762
11
1.11995
21
2.57914
0
LINE
8
BLACK
6
CONTINUOUS
10
1.11995
20
2.57914
11
1.12006
21
2.57905
0
LINE
8
BLACK
6
CONTINUOUS
10
1.12006
20
2.57905
11
1.12776
21
2.57185
0
LINE
8
BLACK
6
CONTINUOUS
10
1.12776
20
2.57185
11
1.12789
21
2.57173
0
LINE
8
BLACK
6
CONTINUOUS
10
1.12789
20
2.57173
11
1.128
21
2.57165
0
LINE
8
BLACK
6
CONTINUOUS
10
1.128
20
2.57165
11
1.13653
21
2.56574
0
LINE
8
BLACK
6
CONTINUOUS
10
1.13653
20
2.56574
11
1.13681
21
2.56554
0
LINE
8
BLACK
6
CONTINUOUS
10
1.13681
20
2.56554
11
1.13694
21
2.56548
0
LINE
8
BLACK
6
CONTINUOUS
10
1.13694
20
2.56548
11
1.13694
21
2.56548
0
LINE
8
BLACK
6
CONTINUOUS
10
1.13694
20
2.56548
11
1.14641
21
2.56077
0
LINE
8
BLACK
6
CONTINUOUS
10
1.14641
20
2.56077
11
1.14641
21
2.56077
0
LINE
8
BLACK
6
CONTINUOUS
10
1.14641
20
2.56077
11
1.14653
21
2.56071
0
LINE
8
BLACK
6
CONTINUOUS
10
1.14653
20
2.56071
11
1.14667
21
2.56066
0
LINE
8
BLACK
6
CONTINUOUS
10
1.14667
20
2.56066
11
1.14667
21
2.56066
0
LINE
8
BLACK
6
CONTINUOUS
10
1.14667
20
2.56066
11
1.15672
21
2.55737
0
LINE
8
BLACK
6
CONTINUOUS
10
1.15672
20
2.55737
11
1.15672
21
2.55737
0
LINE
8
BLACK
6
CONTINUOUS
10
1.15672
20
2.55737
11
1.15685
21
2.55732
0
LINE
8
BLACK
6
CONTINUOUS
10
1.15685
20
2.55732
11
1.16755
21
2.55547
0
LINE
8
BLACK
6
CONTINUOUS
10
1.16755
20
2.55547
11
1.16953
21
2.55537
0
LINE
8
BLACK
6
CONTINUOUS
10
1.16953
20
2.55537
11
1.17093
21
2.5553
0
LINE
8
BLACK
6
CONTINUOUS
10
1.17093
20
2.5553
11
1.17093
21
2.5553
0
LINE
8
BLACK
6
CONTINUOUS
10
1.17093
20
2.5553
11
1.17098
21
2.5553
0
LINE
8
BLACK
6
CONTINUOUS
10
1.17098
20
2.5553
11
1.17776
21
2.5553
0
LINE
8
BLACK
6
CONTINUOUS
10
1.17776
20
2.5553
11
1.18583
21
2.55588
0
LINE
8
BLACK
6
CONTINUOUS
10
1.18583
20
2.55588
11
1.18703
21
2.55615
0
LINE
8
BLACK
6
CONTINUOUS
10
1.18703
20
2.55615
11
1.1963
21
2.55819
0
LINE
8
BLACK
6
CONTINUOUS
10
1.1963
20
2.55819
11
1.1963
21
2.55819
0
LINE
8
BLACK
6
CONTINUOUS
10
1.1963
20
2.55819
11
1.19643
21
2.55822
0
LINE
8
BLACK
6
CONTINUOUS
10
1.19643
20
2.55822
11
1.19657
21
2.55827
0
LINE
8
BLACK
6
CONTINUOUS
10
1.19657
20
2.55827
11
1.19657
21
2.55827
0
LINE
8
BLACK
6
CONTINUOUS
10
1.19657
20
2.55827
11
1.20299
21
2.56071
0
LINE
8
BLACK
6
CONTINUOUS
10
1.20299
20
2.56071
11
1.20659
21
2.56207
0
LINE
8
BLACK
6
CONTINUOUS
10
1.20659
20
2.56207
11
1.21608
21
2.56734
0
LINE
8
BLACK
6
CONTINUOUS
10
1.21608
20
2.56734
11
1.21645
21
2.56762
0
LINE
8
BLACK
6
CONTINUOUS
10
1.21645
20
2.56762
11
1.22173
21
2.57165
0
LINE
8
BLACK
6
CONTINUOUS
10
1.22173
20
2.57165
11
1.22471
21
2.57393
0
LINE
8
BLACK
6
CONTINUOUS
10
1.22471
20
2.57393
11
1.2323
21
2.58169
0
LINE
8
BLACK
6
CONTINUOUS
10
1.2323
20
2.58169
11
1.23245
21
2.58189
0
LINE
8
BLACK
6
CONTINUOUS
10
1.23245
20
2.58189
11
1.23861
21
2.59036
0
LINE
8
BLACK
6
CONTINUOUS
10
1.23861
20
2.59036
11
1.23869
21
2.59047
0
LINE
8
BLACK
6
CONTINUOUS
10
1.23869
20
2.59047
11
1.23886
21
2.59079
0
LINE
8
BLACK
6
CONTINUOUS
10
1.23886
20
2.59079
11
1.24368
21
2.59996
0
LINE
8
BLACK
6
CONTINUOUS
10
1.24368
20
2.59996
11
1.24375
21
2.60008
0
LINE
8
BLACK
6
CONTINUOUS
10
1.24375
20
2.60008
11
1.24736
21
2.61032
0
LINE
8
BLACK
6
CONTINUOUS
10
1.24736
20
2.61032
11
1.2474
21
2.61052
0
LINE
8
BLACK
6
CONTINUOUS
10
1.2474
20
2.61052
11
1.24944
21
2.62084
0
LINE
8
BLACK
6
CONTINUOUS
10
1.24944
20
2.62084
11
1.24946
21
2.62098
0
LINE
8
BLACK
6
CONTINUOUS
10
1.24946
20
2.62098
11
1.24983
21
2.62842
0
LINE
8
BLACK
6
CONTINUOUS
10
1.24983
20
2.62842
11
1.25
21
2.63182
0
LINE
8
BLACK
6
CONTINUOUS
10
1.25
20
2.63182
11
1.24999
21
2.63196
0
LINE
8
BLACK
6
CONTINUOUS
10
1.24999
20
2.63196
11
1.24999
21
2.63196
0
LINE
8
BLACK
6
CONTINUOUS
10
1.24999
20
2.63196
11
1.24899
21
2.64249
0
LINE
8
BLACK
6
CONTINUOUS
10
1.24899
20
2.64249
11
1.24899
21
2.64249
0
LINE
8
BLACK
6
CONTINUOUS
10
1.24899
20
2.64249
11
1.24897
21
2.64263
0
LINE
8
BLACK
6
CONTINUOUS
10
1.24897
20
2.64263
11
1.24639
21
2.65318
0
LINE
8
BLACK
6
CONTINUOUS
10
1.24639
20
2.65318
11
1.24232
21
2.66324
0
LINE
8
BLACK
6
CONTINUOUS
10
1.24232
20
2.66324
11
1.2422
21
2.66344
0
LINE
8
BLACK
6
CONTINUOUS
10
1.2422
20
2.66344
11
1.2369
21
2.67249
0
LINE
8
BLACK
6
CONTINUOUS
10
1.2369
20
2.67249
11
1.23683
21
2.67261
0
LINE
8
BLACK
6
CONTINUOUS
10
1.23683
20
2.67261
11
1.23005
21
2.68109
0
LINE
8
BLACK
6
CONTINUOUS
10
1.23005
20
2.68109
11
1.22211
21
2.6885
0
LINE
8
BLACK
6
CONTINUOUS
10
1.22211
20
2.6885
11
1.21319
21
2.69469
0
LINE
8
BLACK
6
CONTINUOUS
10
1.21319
20
2.69469
11
1.21306
21
2.69476
0
LINE
8
BLACK
6
CONTINUOUS
10
1.21306
20
2.69476
11
1.21306
21
2.69476
0
LINE
8
BLACK
6
CONTINUOUS
10
1.21306
20
2.69476
11
1.20359
21
2.69947
0
LINE
8
BLACK
6
CONTINUOUS
10
1.20359
20
2.69947
11
1.20359
21
2.69947
0
LINE
8
BLACK
6
CONTINUOUS
10
1.20359
20
2.69947
11
1.20347
21
2.69953
0
LINE
8
BLACK
6
CONTINUOUS
10
1.20347
20
2.69953
11
1.20333
21
2.69957
0
LINE
8
BLACK
6
CONTINUOUS
10
1.20333
20
2.69957
11
1.20333
21
2.69957
0
LINE
8
BLACK
6
CONTINUOUS
10
1.20333
20
2.69957
11
1.19328
21
2.70287
0
LINE
8
BLACK
6
CONTINUOUS
10
1.19328
20
2.70287
11
1.19328
21
2.70287
0
LINE
8
BLACK
6
CONTINUOUS
10
1.19328
20
2.70287
11
1.19315
21
2.70291
0
LINE
8
BLACK
6
CONTINUOUS
10
1.19315
20
2.70291
11
1.18245
21
2.70477
0
LINE
8
BLACK
6
CONTINUOUS
10
1.18245
20
2.70477
11
1.18047
21
2.70487
0
LINE
8
BLACK
6
CONTINUOUS
10
1.18047
20
2.70487
11
1.17907
21
2.70494
0
LINE
8
BLACK
6
CONTINUOUS
10
1.17907
20
2.70494
11
1.17907
21
2.70494
0
LINE
8
BLACK
6
CONTINUOUS
10
1.17907
20
2.70494
11
1.17902
21
2.70494
0
LINE
8
BLACK
6
CONTINUOUS
10
1.17902
20
2.70494
11
1.17224
21
2.70494
0
LINE
8
BLACK
6
CONTINUOUS
10
1.17224
20
2.70494
11
1.16417
21
2.70436
0
LINE
8
BLACK
6
CONTINUOUS
10
1.16417
20
2.70436
11
1.16403
21
2.70432
0
LINE
8
BLACK
6
CONTINUOUS
10
1.16403
20
2.70432
11
1.16403
21
2.70432
0
LINE
8
BLACK
6
CONTINUOUS
10
1.16403
20
2.70432
11
1.1537
21
2.70204
0
LINE
8
BLACK
6
CONTINUOUS
10
1.1537
20
2.70204
11
1.1537
21
2.70204
0
LINE
8
BLACK
6
CONTINUOUS
10
1.1537
20
2.70204
11
1.15357
21
2.70201
0
LINE
8
BLACK
6
CONTINUOUS
10
1.15357
20
2.70201
11
1.15343
21
2.70196
0
LINE
8
BLACK
6
CONTINUOUS
10
1.15343
20
2.70196
11
1.15343
21
2.70196
0
LINE
8
BLACK
6
CONTINUOUS
10
1.15343
20
2.70196
11
1.14934
21
2.70041
0
LINE
8
BLACK
6
CONTINUOUS
10
1.14934
20
2.70041
11
1.14341
21
2.69817
0
LINE
8
BLACK
6
CONTINUOUS
10
1.14341
20
2.69817
11
1.13763
21
2.69495
0
LINE
8
BLACK
6
CONTINUOUS
10
1.13763
20
2.69495
11
1.13427
21
2.69309
0
LINE
8
BLACK
6
CONTINUOUS
10
1.13427
20
2.69309
11
1.13392
21
2.69289
0
LINE
8
BLACK
6
CONTINUOUS
10
1.13392
20
2.69289
11
1.12529
21
2.68631
0
LINE
8
BLACK
6
CONTINUOUS
10
1.12529
20
2.68631
11
1.1177
21
2.67854
0
LINE
8
BLACK
6
CONTINUOUS
10
1.1177
20
2.67854
11
1.11761
21
2.67843
0
LINE
8
BLACK
6
CONTINUOUS
10
1.11761
20
2.67843
11
1.11761
21
2.67843
0
LINE
8
BLACK
6
CONTINUOUS
10
1.11761
20
2.67843
11
1.11153
21
2.67007
0
LINE
8
BLACK
6
CONTINUOUS
10
1.11153
20
2.67007
11
1.11131
21
2.66976
0
LINE
8
BLACK
6
CONTINUOUS
10
1.11131
20
2.66976
11
1.10625
21
2.66015
0
LINE
8
BLACK
6
CONTINUOUS
10
1.10625
20
2.66015
11
1.10264
21
2.64991
0
LINE
8
BLACK
6
CONTINUOUS
10
1.10264
20
2.64991
11
1.10054
21
2.63926
0
LINE
8
BLACK
6
CONTINUOUS
10
1.10054
20
2.63926
11
1.1
21
2.62842
0
LINE
8
BLACK
6
CONTINUOUS
10
1.1
20
2.62842
11
1.10001
21
2.62828
0
LINE
8
BLACK
6
CONTINUOUS
10
1.10001
20
2.62828
11
1.10001
21
2.62828
0
LINE
8
BLACK
6
CONTINUOUS
10
3.53379
20
2.87402
11
3.60794
21
2.87402
0
LINE
8
BLACK
6
CONTINUOUS
10
3.60794
20
2.87402
11
3.60817
21
2.87403
0
LINE
8
BLACK
6
CONTINUOUS
10
3.60817
20
2.87403
11
3.60879
21
2.8741
0
LINE
8
BLACK
6
CONTINUOUS
10
3.60879
20
2.8741
11
3.60935
21
2.87426
0
LINE
8
BLACK
6
CONTINUOUS
10
3.60935
20
2.87426
11
3.61278
21
2.87578
0
LINE
8
BLACK
6
CONTINUOUS
10
3.61278
20
2.87578
11
3.61336
21
2.87618
0
LINE
8
BLACK
6
CONTINUOUS
10
3.61336
20
2.87618
11
3.61596
21
2.87878
0
LINE
8
BLACK
6
CONTINUOUS
10
3.61596
20
2.87878
11
3.61636
21
2.87937
0
LINE
8
BLACK
6
CONTINUOUS
10
3.61636
20
2.87937
11
3.61787
21
2.88279
0
LINE
8
BLACK
6
CONTINUOUS
10
3.61787
20
2.88279
11
3.61803
21
2.88335
0
LINE
8
BLACK
6
CONTINUOUS
10
3.61803
20
2.88335
11
3.6181
21
2.88396
0
LINE
8
BLACK
6
CONTINUOUS
10
3.6181
20
2.88396
11
3.61811
21
2.88418
0
LINE
8
BLACK
6
CONTINUOUS
10
3.61811
20
2.88418
11
3.61811
21
2.95804
0
LINE
8
BLACK
6
CONTINUOUS
10
3.61811
20
2.95804
11
3.61795
21
2.95854
0
LINE
8
BLACK
6
CONTINUOUS
10
3.61795
20
2.95854
11
3.61779
21
2.95866
0
LINE
8
BLACK
6
CONTINUOUS
10
3.61779
20
2.95866
11
3.6063
21
2.95866
0
LINE
8
BLACK
6
CONTINUOUS
10
3.6063
20
2.95866
11
3.6063
21
2.88583
0
LINE
8
BLACK
6
CONTINUOUS
10
3.6063
20
2.88583
11
3.53346
21
2.88583
0
LINE
8
BLACK
6
CONTINUOUS
10
3.53346
20
2.88583
11
3.53346
21
2.87463
0
LINE
8
BLACK
6
CONTINUOUS
10
3.53346
20
2.87463
11
3.53363
21
2.87413
0
LINE
8
BLACK
6
CONTINUOUS
10
3.53363
20
2.87413
11
3.53379
21
2.87402
0
LINE
8
BLACK
6
CONTINUOUS
10
2.84271
20
2.63216
11
2.84271
21
2.63216
0
LINE
8
BLACK
6
CONTINUOUS
10
2.84271
20
2.63216
11
2.8417
21
2.64269
0
LINE
8
BLACK
6
CONTINUOUS
10
2.8417
20
2.64269
11
2.8417
21
2.64269
0
LINE
8
BLACK
6
CONTINUOUS
10
2.8417
20
2.64269
11
2.84169
21
2.64283
0
LINE
8
BLACK
6
CONTINUOUS
10
2.84169
20
2.64283
11
2.83911
21
2.65337
0
LINE
8
BLACK
6
CONTINUOUS
10
2.83911
20
2.65337
11
2.83503
21
2.66344
0
LINE
8
BLACK
6
CONTINUOUS
10
2.83503
20
2.66344
11
2.82954
21
2.67281
0
LINE
8
BLACK
6
CONTINUOUS
10
2.82954
20
2.67281
11
2.82276
21
2.68129
0
LINE
8
BLACK
6
CONTINUOUS
10
2.82276
20
2.68129
11
2.81514
21
2.68841
0
LINE
8
BLACK
6
CONTINUOUS
10
2.81514
20
2.68841
11
2.81493
21
2.6886
0
LINE
8
BLACK
6
CONTINUOUS
10
2.81493
20
2.6886
11
2.81493
21
2.6886
0
LINE
8
BLACK
6
CONTINUOUS
10
2.81493
20
2.6886
11
2.81483
21
2.6887
0
LINE
8
BLACK
6
CONTINUOUS
10
2.81483
20
2.6887
11
2.80631
21
2.69461
0
LINE
8
BLACK
6
CONTINUOUS
10
2.80631
20
2.69461
11
2.80602
21
2.69481
0
LINE
8
BLACK
6
CONTINUOUS
10
2.80602
20
2.69481
11
2.80591
21
2.69489
0
LINE
8
BLACK
6
CONTINUOUS
10
2.80591
20
2.69489
11
2.80578
21
2.69495
0
LINE
8
BLACK
6
CONTINUOUS
10
2.80578
20
2.69495
11
2.80578
21
2.69495
0
LINE
8
BLACK
6
CONTINUOUS
10
2.80578
20
2.69495
11
2.79631
21
2.69966
0
LINE
8
BLACK
6
CONTINUOUS
10
2.79631
20
2.69966
11
2.79631
21
2.69966
0
LINE
8
BLACK
6
CONTINUOUS
10
2.79631
20
2.69966
11
2.79618
21
2.69973
0
LINE
8
BLACK
6
CONTINUOUS
10
2.79618
20
2.69973
11
2.79605
21
2.69977
0
LINE
8
BLACK
6
CONTINUOUS
10
2.79605
20
2.69977
11
2.79605
21
2.69977
0
LINE
8
BLACK
6
CONTINUOUS
10
2.79605
20
2.69977
11
2.786
21
2.70307
0
LINE
8
BLACK
6
CONTINUOUS
10
2.786
20
2.70307
11
2.786
21
2.70307
0
LINE
8
BLACK
6
CONTINUOUS
10
2.786
20
2.70307
11
2.78587
21
2.70311
0
LINE
8
BLACK
6
CONTINUOUS
10
2.78587
20
2.70311
11
2.77517
21
2.70497
0
LINE
8
BLACK
6
CONTINUOUS
10
2.77517
20
2.70497
11
2.77318
21
2.70507
0
LINE
8
BLACK
6
CONTINUOUS
10
2.77318
20
2.70507
11
2.77179
21
2.70514
0
LINE
8
BLACK
6
CONTINUOUS
10
2.77179
20
2.70514
11
2.77179
21
2.70514
0
LINE
8
BLACK
6
CONTINUOUS
10
2.77179
20
2.70514
11
2.77174
21
2.70514
0
LINE
8
BLACK
6
CONTINUOUS
10
2.77174
20
2.70514
11
2.76496
21
2.70514
0
LINE
8
BLACK
6
CONTINUOUS
10
2.76496
20
2.70514
11
2.75689
21
2.70455
0
LINE
8
BLACK
6
CONTINUOUS
10
2.75689
20
2.70455
11
2.75675
21
2.70452
0
LINE
8
BLACK
6
CONTINUOUS
10
2.75675
20
2.70452
11
2.75675
21
2.70452
0
LINE
8
BLACK
6
CONTINUOUS
10
2.75675
20
2.70452
11
2.74642
21
2.70224
0
LINE
8
BLACK
6
CONTINUOUS
10
2.74642
20
2.70224
11
2.74642
21
2.70224
0
LINE
8
BLACK
6
CONTINUOUS
10
2.74642
20
2.70224
11
2.74628
21
2.70221
0
LINE
8
BLACK
6
CONTINUOUS
10
2.74628
20
2.70221
11
2.74615
21
2.70216
0
LINE
8
BLACK
6
CONTINUOUS
10
2.74615
20
2.70216
11
2.74615
21
2.70216
0
LINE
8
BLACK
6
CONTINUOUS
10
2.74615
20
2.70216
11
2.74205
21
2.70061
0
LINE
8
BLACK
6
CONTINUOUS
10
2.74205
20
2.70061
11
2.73613
21
2.69836
0
LINE
8
BLACK
6
CONTINUOUS
10
2.73613
20
2.69836
11
2.72664
21
2.69309
0
LINE
8
BLACK
6
CONTINUOUS
10
2.72664
20
2.69309
11
2.72652
21
2.69301
0
LINE
8
BLACK
6
CONTINUOUS
10
2.72652
20
2.69301
11
2.72652
21
2.69301
0
LINE
8
BLACK
6
CONTINUOUS
10
2.72652
20
2.69301
11
2.72382
21
2.69094
0
LINE
8
BLACK
6
CONTINUOUS
10
2.72382
20
2.69094
11
2.718
21
2.6865
0
LINE
8
BLACK
6
CONTINUOUS
10
2.718
20
2.6865
11
2.71041
21
2.67874
0
LINE
8
BLACK
6
CONTINUOUS
10
2.71041
20
2.67874
11
2.71033
21
2.67863
0
LINE
8
BLACK
6
CONTINUOUS
10
2.71033
20
2.67863
11
2.71033
21
2.67862
0
LINE
8
BLACK
6
CONTINUOUS
10
2.71033
20
2.67862
11
2.70595
21
2.67261
0
LINE
8
BLACK
6
CONTINUOUS
10
2.70595
20
2.67261
11
2.70402
21
2.66996
0
LINE
8
BLACK
6
CONTINUOUS
10
2.70402
20
2.66996
11
2.70396
21
2.66984
0
LINE
8
BLACK
6
CONTINUOUS
10
2.70396
20
2.66984
11
2.70396
21
2.66984
0
LINE
8
BLACK
6
CONTINUOUS
10
2.70396
20
2.66984
11
2.70066
21
2.66356
0
LINE
8
BLACK
6
CONTINUOUS
10
2.70066
20
2.66356
11
2.69897
21
2.66035
0
LINE
8
BLACK
6
CONTINUOUS
10
2.69897
20
2.66035
11
2.69535
21
2.65011
0
LINE
8
BLACK
6
CONTINUOUS
10
2.69535
20
2.65011
11
2.69533
21
2.64997
0
LINE
8
BLACK
6
CONTINUOUS
10
2.69533
20
2.64997
11
2.69529
21
2.64978
0
LINE
8
BLACK
6
CONTINUOUS
10
2.69529
20
2.64978
11
2.69325
21
2.63946
0
LINE
8
BLACK
6
CONTINUOUS
10
2.69325
20
2.63946
11
2.69271
21
2.62861
0
LINE
8
BLACK
6
CONTINUOUS
10
2.69271
20
2.62861
11
2.69273
21
2.62847
0
LINE
8
BLACK
6
CONTINUOUS
10
2.69273
20
2.62847
11
2.69273
21
2.62847
0
LINE
8
BLACK
6
CONTINUOUS
10
2.69273
20
2.62847
11
2.69345
21
2.62084
0
LINE
8
BLACK
6
CONTINUOUS
10
2.69345
20
2.62084
11
2.69374
21
2.6178
0
LINE
8
BLACK
6
CONTINUOUS
10
2.69374
20
2.6178
11
2.69633
21
2.60726
0
LINE
8
BLACK
6
CONTINUOUS
10
2.69633
20
2.60726
11
2.7004
21
2.59719
0
LINE
8
BLACK
6
CONTINUOUS
10
2.7004
20
2.59719
11
2.70047
21
2.59707
0
LINE
8
BLACK
6
CONTINUOUS
10
2.70047
20
2.59707
11
2.70047
21
2.59707
0
LINE
8
BLACK
6
CONTINUOUS
10
2.70047
20
2.59707
11
2.70059
21
2.59687
0
LINE
8
BLACK
6
CONTINUOUS
10
2.70059
20
2.59687
11
2.70589
21
2.58782
0
LINE
8
BLACK
6
CONTINUOUS
10
2.70589
20
2.58782
11
2.71267
21
2.57934
0
LINE
8
BLACK
6
CONTINUOUS
10
2.71267
20
2.57934
11
2.7206
21
2.57193
0
LINE
8
BLACK
6
CONTINUOUS
10
2.7206
20
2.57193
11
2.72953
21
2.56574
0
LINE
8
BLACK
6
CONTINUOUS
10
2.72953
20
2.56574
11
2.72965
21
2.56568
0
LINE
8
BLACK
6
CONTINUOUS
10
2.72965
20
2.56568
11
2.72965
21
2.56568
0
LINE
8
BLACK
6
CONTINUOUS
10
2.72965
20
2.56568
11
2.73912
21
2.56097
0
LINE
8
BLACK
6
CONTINUOUS
10
2.73912
20
2.56097
11
2.73912
21
2.56097
0
LINE
8
BLACK
6
CONTINUOUS
10
2.73912
20
2.56097
11
2.73925
21
2.5609
0
LINE
8
BLACK
6
CONTINUOUS
10
2.73925
20
2.5609
11
2.73938
21
2.56086
0
LINE
8
BLACK
6
CONTINUOUS
10
2.73938
20
2.56086
11
2.73938
21
2.56086
0
LINE
8
BLACK
6
CONTINUOUS
10
2.73938
20
2.56086
11
2.74943
21
2.55756
0
LINE
8
BLACK
6
CONTINUOUS
10
2.74943
20
2.55756
11
2.74943
21
2.55756
0
LINE
8
BLACK
6
CONTINUOUS
10
2.74943
20
2.55756
11
2.74957
21
2.55752
0
LINE
8
BLACK
6
CONTINUOUS
10
2.74957
20
2.55752
11
2.76027
21
2.55566
0
LINE
8
BLACK
6
CONTINUOUS
10
2.76027
20
2.55566
11
2.76225
21
2.55556
0
LINE
8
BLACK
6
CONTINUOUS
10
2.76225
20
2.55556
11
2.76365
21
2.55549
0
LINE
8
BLACK
6
CONTINUOUS
10
2.76365
20
2.55549
11
2.76365
21
2.55549
0
LINE
8
BLACK
6
CONTINUOUS
10
2.76365
20
2.55549
11
2.7637
21
2.55549
0
LINE
8
BLACK
6
CONTINUOUS
10
2.7637
20
2.55549
11
2.77048
21
2.55549
0
LINE
8
BLACK
6
CONTINUOUS
10
2.77048
20
2.55549
11
2.77855
21
2.55608
0
LINE
8
BLACK
6
CONTINUOUS
10
2.77855
20
2.55608
11
2.77974
21
2.55634
0
LINE
8
BLACK
6
CONTINUOUS
10
2.77974
20
2.55634
11
2.78901
21
2.55839
0
LINE
8
BLACK
6
CONTINUOUS
10
2.78901
20
2.55839
11
2.78901
21
2.55839
0
LINE
8
BLACK
6
CONTINUOUS
10
2.78901
20
2.55839
11
2.78915
21
2.55842
0
LINE
8
BLACK
6
CONTINUOUS
10
2.78915
20
2.55842
11
2.78928
21
2.55847
0
LINE
8
BLACK
6
CONTINUOUS
10
2.78928
20
2.55847
11
2.78928
21
2.55847
0
LINE
8
BLACK
6
CONTINUOUS
10
2.78928
20
2.55847
11
2.79507
21
2.56066
0
LINE
8
BLACK
6
CONTINUOUS
10
2.79507
20
2.56066
11
2.7993
21
2.56227
0
LINE
8
BLACK
6
CONTINUOUS
10
2.7993
20
2.56227
11
2.80832
21
2.56727
0
LINE
8
BLACK
6
CONTINUOUS
10
2.80832
20
2.56727
11
2.80867
21
2.56747
0
LINE
8
BLACK
6
CONTINUOUS
10
2.80867
20
2.56747
11
2.80867
21
2.56747
0
LINE
8
BLACK
6
CONTINUOUS
10
2.80867
20
2.56747
11
2.8088
21
2.56754
0
LINE
8
BLACK
6
CONTINUOUS
10
2.8088
20
2.56754
11
2.81743
21
2.57413
0
LINE
8
BLACK
6
CONTINUOUS
10
2.81743
20
2.57413
11
2.82502
21
2.58189
0
LINE
8
BLACK
6
CONTINUOUS
10
2.82502
20
2.58189
11
2.82911
21
2.58751
0
LINE
8
BLACK
6
CONTINUOUS
10
2.82911
20
2.58751
11
2.83133
21
2.59056
0
LINE
8
BLACK
6
CONTINUOUS
10
2.83133
20
2.59056
11
2.83141
21
2.59067
0
LINE
8
BLACK
6
CONTINUOUS
10
2.83141
20
2.59067
11
2.83646
21
2.60028
0
LINE
8
BLACK
6
CONTINUOUS
10
2.83646
20
2.60028
11
2.84008
21
2.61052
0
LINE
8
BLACK
6
CONTINUOUS
10
2.84008
20
2.61052
11
2.84218
21
2.62117
0
LINE
8
BLACK
6
CONTINUOUS
10
2.84218
20
2.62117
11
2.84255
21
2.62861
0
LINE
8
BLACK
6
CONTINUOUS
10
2.84255
20
2.62861
11
2.84272
21
2.63202
0
LINE
8
BLACK
6
CONTINUOUS
10
2.84272
20
2.63202
11
2.84271
21
2.63216
0
LINE
8
BLACK
6
CONTINUOUS
10
1.85985
20
2.62828
11
1.86056
21
2.62084
0
LINE
8
BLACK
6
CONTINUOUS
10
1.86056
20
2.62084
11
1.86087
21
2.61761
0
LINE
8
BLACK
6
CONTINUOUS
10
1.86087
20
2.61761
11
1.86345
21
2.60706
0
LINE
8
BLACK
6
CONTINUOUS
10
1.86345
20
2.60706
11
1.86753
21
2.597
0
LINE
8
BLACK
6
CONTINUOUS
10
1.86753
20
2.597
11
1.87301
21
2.58762
0
LINE
8
BLACK
6
CONTINUOUS
10
1.87301
20
2.58762
11
1.8798
21
2.57914
0
LINE
8
BLACK
6
CONTINUOUS
10
1.8798
20
2.57914
11
1.8799
21
2.57905
0
LINE
8
BLACK
6
CONTINUOUS
10
1.8799
20
2.57905
11
1.88761
21
2.57185
0
LINE
8
BLACK
6
CONTINUOUS
10
1.88761
20
2.57185
11
1.88773
21
2.57173
0
LINE
8
BLACK
6
CONTINUOUS
10
1.88773
20
2.57173
11
1.88785
21
2.57165
0
LINE
8
BLACK
6
CONTINUOUS
10
1.88785
20
2.57165
11
1.89637
21
2.56574
0
LINE
8
BLACK
6
CONTINUOUS
10
1.89637
20
2.56574
11
1.89665
21
2.56554
0
LINE
8
BLACK
6
CONTINUOUS
10
1.89665
20
2.56554
11
1.89678
21
2.56548
0
LINE
8
BLACK
6
CONTINUOUS
10
1.89678
20
2.56548
11
1.89678
21
2.56548
0
LINE
8
BLACK
6
CONTINUOUS
10
1.89678
20
2.56548
11
1.90625
21
2.56077
0
LINE
8
BLACK
6
CONTINUOUS
10
1.90625
20
2.56077
11
1.90625
21
2.56077
0
LINE
8
BLACK
6
CONTINUOUS
10
1.90625
20
2.56077
11
1.90637
21
2.56071
0
LINE
8
BLACK
6
CONTINUOUS
10
1.90637
20
2.56071
11
1.90651
21
2.56066
0
LINE
8
BLACK
6
CONTINUOUS
10
1.90651
20
2.56066
11
1.90651
21
2.56066
0
LINE
8
BLACK
6
CONTINUOUS
10
1.90651
20
2.56066
11
1.91656
21
2.55737
0
LINE
8
BLACK
6
CONTINUOUS
10
1.91656
20
2.55737
11
1.91656
21
2.55737
0
LINE
8
BLACK
6
CONTINUOUS
10
1.91656
20
2.55737
11
1.91669
21
2.55732
0
LINE
8
BLACK
6
CONTINUOUS
10
1.91669
20
2.55732
11
1.92739
21
2.55547
0
LINE
8
BLACK
6
CONTINUOUS
10
1.92739
20
2.55547
11
1.92938
21
2.55537
0
LINE
8
BLACK
6
CONTINUOUS
10
1.92938
20
2.55537
11
1.93077
21
2.5553
0
LINE
8
BLACK
6
CONTINUOUS
10
1.93077
20
2.5553
11
1.93077
21
2.5553
0
LINE
8
BLACK
6
CONTINUOUS
10
1.93077
20
2.5553
11
1.93082
21
2.5553
0
LINE
8
BLACK
6
CONTINUOUS
10
1.93082
20
2.5553
11
1.9376
21
2.5553
0
LINE
8
BLACK
6
CONTINUOUS
10
1.9376
20
2.5553
11
1.94567
21
2.55588
0
LINE
8
BLACK
6
CONTINUOUS
10
1.94567
20
2.55588
11
1.94687
21
2.55615
0
LINE
8
BLACK
6
CONTINUOUS
10
1.94687
20
2.55615
11
1.95614
21
2.55819
0
LINE
8
BLACK
6
CONTINUOUS
10
1.95614
20
2.55819
11
1.95614
21
2.55819
0
LINE
8
BLACK
6
CONTINUOUS
10
1.95614
20
2.55819
11
1.95628
21
2.55822
0
LINE
8
BLACK
6
CONTINUOUS
10
1.95628
20
2.55822
11
1.95641
21
2.55827
0
LINE
8
BLACK
6
CONTINUOUS
10
1.95641
20
2.55827
11
1.95641
21
2.55827
0
LINE
8
BLACK
6
CONTINUOUS
10
1.95641
20
2.55827
11
1.96283
21
2.56071
0
LINE
8
BLACK
6
CONTINUOUS
10
1.96283
20
2.56071
11
1.96643
21
2.56207
0
LINE
8
BLACK
6
CONTINUOUS
10
1.96643
20
2.56207
11
1.97592
21
2.56734
0
LINE
8
BLACK
6
CONTINUOUS
10
1.97592
20
2.56734
11
1.97629
21
2.56762
0
LINE
8
BLACK
6
CONTINUOUS
10
1.97629
20
2.56762
11
1.98157
21
2.57165
0
LINE
8
BLACK
6
CONTINUOUS
10
1.98157
20
2.57165
11
1.98455
21
2.57393
0
LINE
8
BLACK
6
CONTINUOUS
10
1.98455
20
2.57393
11
1.99214
21
2.58169
0
LINE
8
BLACK
6
CONTINUOUS
10
1.99214
20
2.58169
11
1.99229
21
2.58189
0
LINE
8
BLACK
6
CONTINUOUS
10
1.99229
20
2.58189
11
1.99845
21
2.59036
0
LINE
8
BLACK
6
CONTINUOUS
10
1.99845
20
2.59036
11
1.99853
21
2.59047
0
LINE
8
BLACK
6
CONTINUOUS
10
1.99853
20
2.59047
11
1.9987
21
2.59079
0
LINE
8
BLACK
6
CONTINUOUS
10
1.9987
20
2.59079
11
2.00353
21
2.59996
0
LINE
8
BLACK
6
CONTINUOUS
10
2.00353
20
2.59996
11
2.00359
21
2.60008
0
LINE
8
BLACK
6
CONTINUOUS
10
2.00359
20
2.60008
11
2.00721
21
2.61032
0
LINE
8
BLACK
6
CONTINUOUS
10
2.00721
20
2.61032
11
2.00725
21
2.61052
0
LINE
8
BLACK
6
CONTINUOUS
10
2.00725
20
2.61052
11
2.00928
21
2.62084
0
LINE
8
BLACK
6
CONTINUOUS
10
2.00928
20
2.62084
11
2.00931
21
2.62098
0
LINE
8
BLACK
6
CONTINUOUS
10
2.00931
20
2.62098
11
2.00969
21
2.62861
0
LINE
8
BLACK
6
CONTINUOUS
10
2.00969
20
2.62861
11
2.00985
21
2.63182
0
LINE
8
BLACK
6
CONTINUOUS
10
2.00985
20
2.63182
11
2.00983
21
2.63196
0
LINE
8
BLACK
6
CONTINUOUS
10
2.00983
20
2.63196
11
2.00983
21
2.63196
0
LINE
8
BLACK
6
CONTINUOUS
10
2.00983
20
2.63196
11
2.00883
21
2.64249
0
LINE
8
BLACK
6
CONTINUOUS
10
2.00883
20
2.64249
11
2.00883
21
2.64249
0
LINE
8
BLACK
6
CONTINUOUS
10
2.00883
20
2.64249
11
2.00881
21
2.64263
0
LINE
8
BLACK
6
CONTINUOUS
10
2.00881
20
2.64263
11
2.00623
21
2.65318
0
LINE
8
BLACK
6
CONTINUOUS
10
2.00623
20
2.65318
11
2.00216
21
2.66324
0
LINE
8
BLACK
6
CONTINUOUS
10
2.00216
20
2.66324
11
2.00204
21
2.66344
0
LINE
8
BLACK
6
CONTINUOUS
10
2.00204
20
2.66344
11
1.99674
21
2.67249
0
LINE
8
BLACK
6
CONTINUOUS
10
1.99674
20
2.67249
11
1.99667
21
2.67261
0
LINE
8
BLACK
6
CONTINUOUS
10
1.99667
20
2.67261
11
1.98989
21
2.68109
0
LINE
8
BLACK
6
CONTINUOUS
10
1.98989
20
2.68109
11
1.98195
21
2.6885
0
LINE
8
BLACK
6
CONTINUOUS
10
1.98195
20
2.6885
11
1.97303
21
2.69469
0
LINE
8
BLACK
6
CONTINUOUS
10
1.97303
20
2.69469
11
1.97291
21
2.69476
0
LINE
8
BLACK
6
CONTINUOUS
10
1.97291
20
2.69476
11
1.97291
21
2.69476
0
LINE
8
BLACK
6
CONTINUOUS
10
1.97291
20
2.69476
11
1.96344
21
2.69947
0
LINE
8
BLACK
6
CONTINUOUS
10
1.96344
20
2.69947
11
1.96344
21
2.69947
0
LINE
8
BLACK
6
CONTINUOUS
10
1.96344
20
2.69947
11
1.96331
21
2.69953
0
LINE
8
BLACK
6
CONTINUOUS
10
1.96331
20
2.69953
11
1.96318
21
2.69957
0
LINE
8
BLACK
6
CONTINUOUS
10
1.96318
20
2.69957
11
1.96318
21
2.69957
0
LINE
8
BLACK
6
CONTINUOUS
10
1.96318
20
2.69957
11
1.95313
21
2.70287
0
LINE
8
BLACK
6
CONTINUOUS
10
1.95313
20
2.70287
11
1.95313
21
2.70287
0
LINE
8
BLACK
6
CONTINUOUS
10
1.95313
20
2.70287
11
1.95299
21
2.70291
0
LINE
8
BLACK
6
CONTINUOUS
10
1.95299
20
2.70291
11
1.94229
21
2.70477
0
LINE
8
BLACK
6
CONTINUOUS
10
1.94229
20
2.70477
11
1.94031
21
2.70487
0
LINE
8
BLACK
6
CONTINUOUS
10
1.94031
20
2.70487
11
1.93891
21
2.70494
0
LINE
8
BLACK
6
CONTINUOUS
10
1.93891
20
2.70494
11
1.93891
21
2.70494
0
LINE
8
BLACK
6
CONTINUOUS
10
1.93891
20
2.70494
11
1.93886
21
2.70494
0
LINE
8
BLACK
6
CONTINUOUS
10
1.93886
20
2.70494
11
1.93208
21
2.70494
0
LINE
8
BLACK
6
CONTINUOUS
10
1.93208
20
2.70494
11
1.92401
21
2.70436
0
LINE
8
BLACK
6
CONTINUOUS
10
1.92401
20
2.70436
11
1.92387
21
2.70432
0
LINE
8
BLACK
6
CONTINUOUS
10
1.92387
20
2.70432
11
1.92387
21
2.70432
0
LINE
8
BLACK
6
CONTINUOUS
10
1.92387
20
2.70432
11
1.91355
21
2.70204
0
LINE
8
BLACK
6
CONTINUOUS
10
1.91355
20
2.70204
11
1.91355
21
2.70204
0
LINE
8
BLACK
6
CONTINUOUS
10
1.91355
20
2.70204
11
1.91341
21
2.70201
0
LINE
8
BLACK
6
CONTINUOUS
10
1.91341
20
2.70201
11
1.91328
21
2.70196
0
LINE
8
BLACK
6
CONTINUOUS
10
1.91328
20
2.70196
11
1.91328
21
2.70196
0
LINE
8
BLACK
6
CONTINUOUS
10
1.91328
20
2.70196
11
1.90918
21
2.70041
0
LINE
8
BLACK
6
CONTINUOUS
10
1.90918
20
2.70041
11
1.90326
21
2.69817
0
LINE
8
BLACK
6
CONTINUOUS
10
1.90326
20
2.69817
11
1.89747
21
2.69495
0
LINE
8
BLACK
6
CONTINUOUS
10
1.89747
20
2.69495
11
1.89412
21
2.69309
0
LINE
8
BLACK
6
CONTINUOUS
10
1.89412
20
2.69309
11
1.89376
21
2.69289
0
LINE
8
BLACK
6
CONTINUOUS
10
1.89376
20
2.69289
11
1.88513
21
2.68631
0
LINE
8
BLACK
6
CONTINUOUS
10
1.88513
20
2.68631
11
1.87754
21
2.67854
0
LINE
8
BLACK
6
CONTINUOUS
10
1.87754
20
2.67854
11
1.87746
21
2.67843
0
LINE
8
BLACK
6
CONTINUOUS
10
1.87746
20
2.67843
11
1.87746
21
2.67843
0
LINE
8
BLACK
6
CONTINUOUS
10
1.87746
20
2.67843
11
1.87138
21
2.67007
0
LINE
8
BLACK
6
CONTINUOUS
10
1.87138
20
2.67007
11
1.87115
21
2.66976
0
LINE
8
BLACK
6
CONTINUOUS
10
1.87115
20
2.66976
11
1.86609
21
2.66015
0
LINE
8
BLACK
6
CONTINUOUS
10
1.86609
20
2.66015
11
1.86248
21
2.64991
0
LINE
8
BLACK
6
CONTINUOUS
10
1.86248
20
2.64991
11
1.86038
21
2.63926
0
LINE
8
BLACK
6
CONTINUOUS
10
1.86038
20
2.63926
11
1.85984
21
2.62842
0
LINE
8
BLACK
6
CONTINUOUS
10
1.85984
20
2.62842
11
1.85985
21
2.62828
0
LINE
8
BLACK
6
CONTINUOUS
10
1.85985
20
2.62828
11
1.85985
21
2.62828
0
LINE
8
BLACK
6
CONTINUOUS
10
0.336417
20
2.88386
11
0.336417
21
2.95669
0
LINE
8
BLACK
6
CONTINUOUS
10
0.336417
20
2.95669
11
0.325224
21
2.95669
0
LINE
8
BLACK
6
CONTINUOUS
10
0.325224
20
2.95669
11
0.324724
21
2.95653
0
LINE
8
BLACK
6
CONTINUOUS
10
0.324724
20
2.95653
11
0.324606
21
2.95637
0
LINE
8
BLACK
6
CONTINUOUS
10
0.324606
20
2.95637
11
0.324606
21
2.88222
0
LINE
8
BLACK
6
CONTINUOUS
10
0.324606
20
2.88222
11
0.32462
21
2.88199
0
LINE
8
BLACK
6
CONTINUOUS
10
0.32462
20
2.88199
11
0.324694
21
2.88136
0
LINE
8
BLACK
6
CONTINUOUS
10
0.324694
20
2.88136
11
0.324848
21
2.88081
0
LINE
8
BLACK
6
CONTINUOUS
10
0.324848
20
2.88081
11
0.326369
21
2.87738
0
LINE
8
BLACK
6
CONTINUOUS
10
0.326369
20
2.87738
11
0.32677
21
2.8768
0
LINE
8
BLACK
6
CONTINUOUS
10
0.32677
20
2.8768
11
0.329374
21
2.8742
0
LINE
8
BLACK
6
CONTINUOUS
10
0.329374
20
2.8742
11
0.329958
21
2.8738
0
LINE
8
BLACK
6
CONTINUOUS
10
0.329958
20
2.8738
11
0.333385
21
2.87228
0
LINE
8
BLACK
6
CONTINUOUS
10
0.333385
20
2.87228
11
0.333944
21
2.87213
0
LINE
8
BLACK
6
CONTINUOUS
10
0.333944
20
2.87213
11
0.33455
21
2.87206
0
LINE
8
BLACK
6
CONTINUOUS
10
0.33455
20
2.87206
11
0.334775
21
2.87205
0
LINE
8
BLACK
6
CONTINUOUS
10
0.334775
20
2.87205
11
0.408635
21
2.87205
0
LINE
8
BLACK
6
CONTINUOUS
10
0.408635
20
2.87205
11
0.409134
21
2.87221
0
LINE
8
BLACK
6
CONTINUOUS
10
0.409134
20
2.87221
11
0.409252
21
2.87237
0
LINE
8
BLACK
6
CONTINUOUS
10
0.409252
20
2.87237
11
0.409252
21
2.88386
0
LINE
8
BLACK
6
CONTINUOUS
10
0.409252
20
2.88386
11
0.336417
21
2.88386
0
LINE
8
BLACK
6
CONTINUOUS
10
1.8561
20
2.88386
11
1.8561
21
2.95669
0
LINE
8
BLACK
6
CONTINUOUS
10
1.8561
20
2.95669
11
1.84491
21
2.95669
0
LINE
8
BLACK
6
CONTINUOUS
10
1.84491
20
2.95669
11
1.84441
21
2.95653
0
LINE
8
BLACK
6
CONTINUOUS
10
1.84441
20
2.95653
11
1.84429
21
2.95637
0
LINE
8
BLACK
6
CONTINUOUS
10
1.84429
20
2.95637
11
1.84429
21
2.88222
0
LINE
8
BLACK
6
CONTINUOUS
10
1.84429
20
2.88222
11
1.8443
21
2.88199
0
LINE
8
BLACK
6
CONTINUOUS
10
1.8443
20
2.88199
11
1.84438
21
2.88136
0
LINE
8
BLACK
6
CONTINUOUS
10
1.84438
20
2.88136
11
1.84453
21
2.88081
0
LINE
8
BLACK
6
CONTINUOUS
10
1.84453
20
2.88081
11
1.84605
21
2.87738
0
LINE
8
BLACK
6
CONTINUOUS
10
1.84605
20
2.87738
11
1.84645
21
2.8768
0
LINE
8
BLACK
6
CONTINUOUS
10
1.84645
20
2.8768
11
1.84906
21
2.8742
0
LINE
8
BLACK
6
CONTINUOUS
10
1.84906
20
2.8742
11
1.84964
21
2.8738
0
LINE
8
BLACK
6
CONTINUOUS
10
1.84964
20
2.8738
11
1.85307
21
2.87228
0
LINE
8
BLACK
6
CONTINUOUS
10
1.85307
20
2.87228
11
1.85363
21
2.87213
0
LINE
8
BLACK
6
CONTINUOUS
10
1.85363
20
2.87213
11
1.85424
21
2.87206
0
LINE
8
BLACK
6
CONTINUOUS
10
1.85424
20
2.87206
11
1.85446
21
2.87205
0
LINE
8
BLACK
6
CONTINUOUS
10
1.85446
20
2.87205
11
1.92832
21
2.87205
0
LINE
8
BLACK
6
CONTINUOUS
10
1.92832
20
2.87205
11
1.92882
21
2.87221
0
LINE
8
BLACK
6
CONTINUOUS
10
1.92882
20
2.87221
11
1.92894
21
2.87237
0
LINE
8
BLACK
6
CONTINUOUS
10
1.92894
20
2.87237
11
1.92894
21
2.88386
0
LINE
8
BLACK
6
CONTINUOUS
10
1.92894
20
2.88386
11
1.8561
21
2.88386
0
LINE
8
BLACK
6
CONTINUOUS
10
1.09626
20
2.88386
11
1.09626
21
2.95669
0
LINE
8
BLACK
6
CONTINUOUS
10
1.09626
20
2.95669
11
1.08507
21
2.95669
0
LINE
8
BLACK
6
CONTINUOUS
10
1.08507
20
2.95669
11
1.08457
21
2.95653
0
LINE
8
BLACK
6
CONTINUOUS
10
1.08457
20
2.95653
11
1.08445
21
2.95637
0
LINE
8
BLACK
6
CONTINUOUS
10
1.08445
20
2.95637
11
1.08445
21
2.88222
0
LINE
8
BLACK
6
CONTINUOUS
10
1.08445
20
2.88222
11
1.08446
21
2.88199
0
LINE
8
BLACK
6
CONTINUOUS
10
1.08446
20
2.88199
11
1.08454
21
2.88136
0
LINE
8
BLACK
6
CONTINUOUS
10
1.08454
20
2.88136
11
1.08469
21
2.88081
0
LINE
8
BLACK
6
CONTINUOUS
10
1.08469
20
2.88081
11
1.08621
21
2.87738
0
LINE
8
BLACK
6
CONTINUOUS
10
1.08621
20
2.87738
11
1.08661
21
2.8768
0
LINE
8
BLACK
6
CONTINUOUS
10
1.08661
20
2.8768
11
1.08922
21
2.8742
0
LINE
8
BLACK
6
CONTINUOUS
10
1.08922
20
2.8742
11
1.0898
21
2.8738
0
LINE
8
BLACK
6
CONTINUOUS
10
1.0898
20
2.8738
11
1.09323
21
2.87228
0
LINE
8
BLACK
6
CONTINUOUS
10
1.09323
20
2.87228
11
1.09379
21
2.87213
0
LINE
8
BLACK
6
CONTINUOUS
10
1.09379
20
2.87213
11
1.09439
21
2.87206
0
LINE
8
BLACK
6
CONTINUOUS
10
1.09439
20
2.87206
11
1.09462
21
2.87205
0
LINE
8
BLACK
6
CONTINUOUS
10
1.09462
20
2.87205
11
1.16848
21
2.87205
0
LINE
8
BLACK
6
CONTINUOUS
10
1.16848
20
2.87205
11
1.16898
21
2.87221
0
LINE
8
BLACK
6
CONTINUOUS
10
1.16898
20
2.87221
11
1.16909
21
2.87237
0
LINE
8
BLACK
6
CONTINUOUS
10
1.16909
20
2.87237
11
1.16909
21
2.88386
0
LINE
8
BLACK
6
CONTINUOUS
10
1.16909
20
2.88386
11
1.09626
21
2.88386
0
LINE
8
BLACK
6
CONTINUOUS
10
3.44882
20
2.88583
11
3.44882
21
2.95866
0
LINE
8
BLACK
6
CONTINUOUS
10
3.44882
20
2.95866
11
3.43763
21
2.95866
0
LINE
8
BLACK
6
CONTINUOUS
10
3.43763
20
2.95866
11
3.43713
21
2.9585
0
LINE
8
BLACK
6
CONTINUOUS
10
3.43713
20
2.9585
11
3.43701
21
2.95834
0
LINE
8
BLACK
6
CONTINUOUS
10
3.43701
20
2.95834
11
3.43701
21
2.88419
0
LINE
8
BLACK
6
CONTINUOUS
10
3.43701
20
2.88419
11
3.43702
21
2.88396
0
LINE
8
BLACK
6
CONTINUOUS
10
3.43702
20
2.88396
11
3.4371
21
2.88333
0
LINE
8
BLACK
6
CONTINUOUS
10
3.4371
20
2.88333
11
3.43725
21
2.88277
0
LINE
8
BLACK
6
CONTINUOUS
10
3.43725
20
2.88277
11
3.43877
21
2.87935
0
LINE
8
BLACK
6
CONTINUOUS
10
3.43877
20
2.87935
11
3.43917
21
2.87877
0
LINE
8
BLACK
6
CONTINUOUS
10
3.43917
20
2.87877
11
3.44178
21
2.87617
0
LINE
8
BLACK
6
CONTINUOUS
10
3.44178
20
2.87617
11
3.44236
21
2.87577
0
LINE
8
BLACK
6
CONTINUOUS
10
3.44236
20
2.87577
11
3.44579
21
2.87425
0
LINE
8
BLACK
6
CONTINUOUS
10
3.44579
20
2.87425
11
3.44635
21
2.8741
0
LINE
8
BLACK
6
CONTINUOUS
10
3.44635
20
2.8741
11
3.44695
21
2.87403
0
LINE
8
BLACK
6
CONTINUOUS
10
3.44695
20
2.87403
11
3.44718
21
2.87402
0
LINE
8
BLACK
6
CONTINUOUS
10
3.44718
20
2.87402
11
3.52104
21
2.87402
0
LINE
8
BLACK
6
CONTINUOUS
10
3.52104
20
2.87402
11
3.52154
21
2.87418
0
LINE
8
BLACK
6
CONTINUOUS
10
3.52154
20
2.87418
11
3.52165
21
2.87434
0
LINE
8
BLACK
6
CONTINUOUS
10
3.52165
20
2.87434
11
3.52165
21
2.88583
0
LINE
8
BLACK
6
CONTINUOUS
10
3.52165
20
2.88583
11
3.44882
21
2.88583
0
LINE
8
BLACK
6
CONTINUOUS
10
2.68898
20
2.88583
11
2.68898
21
2.95866
0
LINE
8
BLACK
6
CONTINUOUS
10
2.68898
20
2.95866
11
2.67778
21
2.95866
0
LINE
8
BLACK
6
CONTINUOUS
10
2.67778
20
2.95866
11
2.67728
21
2.9585
0
LINE
8
BLACK
6
CONTINUOUS
10
2.67728
20
2.9585
11
2.67717
21
2.95834
0
LINE
8
BLACK
6
CONTINUOUS
10
2.67717
20
2.95834
11
2.67717
21
2.88419
0
LINE
8
BLACK
6
CONTINUOUS
10
2.67717
20
2.88419
11
2.67718
21
2.88396
0
LINE
8
BLACK
6
CONTINUOUS
10
2.67718
20
2.88396
11
2.67725
21
2.88333
0
LINE
8
BLACK
6
CONTINUOUS
10
2.67725
20
2.88333
11
2.67741
21
2.88277
0
LINE
8
BLACK
6
CONTINUOUS
10
2.67741
20
2.88277
11
2.67893
21
2.87935
0
LINE
8
BLACK
6
CONTINUOUS
10
2.67893
20
2.87935
11
2.67933
21
2.87877
0
LINE
8
BLACK
6
CONTINUOUS
10
2.67933
20
2.87877
11
2.68193
21
2.87617
0
LINE
8
BLACK
6
CONTINUOUS
10
2.68193
20
2.87617
11
2.68252
21
2.87577
0
LINE
8
BLACK
6
CONTINUOUS
10
2.68252
20
2.87577
11
2.68594
21
2.87425
0
LINE
8
BLACK
6
CONTINUOUS
10
2.68594
20
2.87425
11
2.6865
21
2.8741
0
LINE
8
BLACK
6
CONTINUOUS
10
2.6865
20
2.8741
11
2.68711
21
2.87403
0
LINE
8
BLACK
6
CONTINUOUS
10
2.68711
20
2.87403
11
2.68733
21
2.87402
0
LINE
8
BLACK
6
CONTINUOUS
10
2.68733
20
2.87402
11
2.76119
21
2.87402
0
LINE
8
BLACK
6
CONTINUOUS
10
2.76119
20
2.87402
11
2.76169
21
2.87418
0
LINE
8
BLACK
6
CONTINUOUS
10
2.76169
20
2.87418
11
2.76181
21
2.87434
0
LINE
8
BLACK
6
CONTINUOUS
10
2.76181
20
2.87434
11
2.76181
21
2.88583
0
LINE
8
BLACK
6
CONTINUOUS
10
2.76181
20
2.88583
11
2.68898
21
2.88583
0
LINE
8
BLACK
6
CONTINUOUS
10
1.18123
20
2.87205
11
1.25538
21
2.87205
0
LINE
8
BLACK
6
CONTINUOUS
10
1.25538
20
2.87205
11
1.25561
21
2.87206
0
LINE
8
BLACK
6
CONTINUOUS
10
1.25561
20
2.87206
11
1.25623
21
2.87214
0
LINE
8
BLACK
6
CONTINUOUS
10
1.25623
20
2.87214
11
1.25679
21
2.87229
0
LINE
8
BLACK
6
CONTINUOUS
10
1.25679
20
2.87229
11
1.26022
21
2.87381
0
LINE
8
BLACK
6
CONTINUOUS
10
1.26022
20
2.87381
11
1.2608
21
2.87421
0
LINE
8
BLACK
6
CONTINUOUS
10
1.2608
20
2.87421
11
1.2634
21
2.87682
0
LINE
8
BLACK
6
CONTINUOUS
10
1.2634
20
2.87682
11
1.2638
21
2.8774
0
LINE
8
BLACK
6
CONTINUOUS
10
1.2638
20
2.8774
11
1.26531
21
2.88083
0
LINE
8
BLACK
6
CONTINUOUS
10
1.26531
20
2.88083
11
1.26547
21
2.88139
0
LINE
8
BLACK
6
CONTINUOUS
10
1.26547
20
2.88139
11
1.26554
21
2.88199
0
LINE
8
BLACK
6
CONTINUOUS
10
1.26554
20
2.88199
11
1.26555
21
2.88222
0
LINE
8
BLACK
6
CONTINUOUS
10
1.26555
20
2.88222
11
1.26555
21
2.95608
0
LINE
8
BLACK
6
CONTINUOUS
10
1.26555
20
2.95608
11
1.26539
21
2.95657
0
LINE
8
BLACK
6
CONTINUOUS
10
1.26539
20
2.95657
11
1.26523
21
2.95669
0
LINE
8
BLACK
6
CONTINUOUS
10
1.26523
20
2.95669
11
1.25374
21
2.95669
0
LINE
8
BLACK
6
CONTINUOUS
10
1.25374
20
2.95669
11
1.25374
21
2.88386
0
LINE
8
BLACK
6
CONTINUOUS
10
1.25374
20
2.88386
11
1.18091
21
2.88386
0
LINE
8
BLACK
6
CONTINUOUS
10
1.18091
20
2.88386
11
1.18091
21
2.87266
0
LINE
8
BLACK
6
CONTINUOUS
10
1.18091
20
2.87266
11
1.18107
21
2.87217
0
LINE
8
BLACK
6
CONTINUOUS
10
1.18107
20
2.87217
11
1.18123
21
2.87205
0
LINE
8
BLACK
6
CONTINUOUS
10
0.421388
20
2.87205
11
0.495537
21
2.87205
0
LINE
8
BLACK
6
CONTINUOUS
10
0.495537
20
2.87205
11
0.495767
21
2.87206
0
LINE
8
BLACK
6
CONTINUOUS
10
0.495767
20
2.87206
11
0.496392
21
2.87214
0
LINE
8
BLACK
6
CONTINUOUS
10
0.496392
20
2.87214
11
0.49695
21
2.87229
0
LINE
8
BLACK
6
CONTINUOUS
10
0.49695
20
2.87229
11
0.500375
21
2.87381
0
LINE
8
BLACK
6
CONTINUOUS
10
0.500375
20
2.87381
11
0.500958
21
2.87421
0
LINE
8
BLACK
6
CONTINUOUS
10
0.500958
20
2.87421
11
0.503558
21
2.87682
0
LINE
8
BLACK
6
CONTINUOUS
10
0.503558
20
2.87682
11
0.503957
21
2.8774
0
LINE
8
BLACK
6
CONTINUOUS
10
0.503957
20
2.8774
11
0.505472
21
2.88083
0
LINE
8
BLACK
6
CONTINUOUS
10
0.505472
20
2.88083
11
0.505625
21
2.88139
0
LINE
8
BLACK
6
CONTINUOUS
10
0.505625
20
2.88139
11
0.505696
21
2.88199
0
LINE
8
BLACK
6
CONTINUOUS
10
0.505696
20
2.88199
11
0.505709
21
2.88222
0
LINE
8
BLACK
6
CONTINUOUS
10
0.505709
20
2.88222
11
0.505709
21
2.95608
0
LINE
8
BLACK
6
CONTINUOUS
10
0.505709
20
2.95608
11
0.505546
21
2.95657
0
LINE
8
BLACK
6
CONTINUOUS
10
0.505546
20
2.95657
11
0.505384
21
2.95669
0
LINE
8
BLACK
6
CONTINUOUS
10
0.505384
20
2.95669
11
0.493898
21
2.95669
0
LINE
8
BLACK
6
CONTINUOUS
10
0.493898
20
2.95669
11
0.493898
21
2.88386
0
LINE
8
BLACK
6
CONTINUOUS
10
0.493898
20
2.88386
11
0.421063
21
2.88386
0
LINE
8
BLACK
6
CONTINUOUS
10
0.421063
20
2.88386
11
0.421063
21
2.87266
0
LINE
8
BLACK
6
CONTINUOUS
10
0.421063
20
2.87266
11
0.421225
21
2.87217
0
LINE
8
BLACK
6
CONTINUOUS
10
0.421225
20
2.87217
11
0.421388
21
2.87205
0
LINE
8
BLACK
6
CONTINUOUS
10
2.77395
20
2.87402
11
2.8481
21
2.87402
0
LINE
8
BLACK
6
CONTINUOUS
10
2.8481
20
2.87402
11
2.84833
21
2.87403
0
LINE
8
BLACK
6
CONTINUOUS
10
2.84833
20
2.87403
11
2.84895
21
2.8741
0
LINE
8
BLACK
6
CONTINUOUS
10
2.84895
20
2.8741
11
2.84951
21
2.87426
0
LINE
8
BLACK
6
CONTINUOUS
10
2.84951
20
2.87426
11
2.85293
21
2.87578
0
LINE
8
BLACK
6
CONTINUOUS
10
2.85293
20
2.87578
11
2.85352
21
2.87618
0
LINE
8
BLACK
6
CONTINUOUS
10
2.85352
20
2.87618
11
2.85612
21
2.87878
0
LINE
8
BLACK
6
CONTINUOUS
10
2.85612
20
2.87878
11
2.85652
21
2.87937
0
LINE
8
BLACK
6
CONTINUOUS
10
2.85652
20
2.87937
11
2.85803
21
2.88279
0
LINE
8
BLACK
6
CONTINUOUS
10
2.85803
20
2.88279
11
2.85818
21
2.88335
0
LINE
8
BLACK
6
CONTINUOUS
10
2.85818
20
2.88335
11
2.85825
21
2.88396
0
LINE
8
BLACK
6
CONTINUOUS
10
2.85825
20
2.88396
11
2.85827
21
2.88418
0
LINE
8
BLACK
6
CONTINUOUS
10
2.85827
20
2.88418
11
2.85827
21
2.95804
0
LINE
8
BLACK
6
CONTINUOUS
10
2.85827
20
2.95804
11
2.85811
21
2.95854
0
LINE
8
BLACK
6
CONTINUOUS
10
2.85811
20
2.95854
11
2.85794
21
2.95866
0
LINE
8
BLACK
6
CONTINUOUS
10
2.85794
20
2.95866
11
2.84646
21
2.95866
0
LINE
8
BLACK
6
CONTINUOUS
10
2.84646
20
2.95866
11
2.84646
21
2.88583
0
LINE
8
BLACK
6
CONTINUOUS
10
2.84646
20
2.88583
11
2.77362
21
2.88583
0
LINE
8
BLACK
6
CONTINUOUS
10
2.77362
20
2.88583
11
2.77362
21
2.87463
0
LINE
8
BLACK
6
CONTINUOUS
10
2.77362
20
2.87463
11
2.77378
21
2.87413
0
LINE
8
BLACK
6
CONTINUOUS
10
2.77378
20
2.87413
11
2.77395
21
2.87402
0
LINE
8
BLACK
6
CONTINUOUS
10
1.94107
20
2.87205
11
2.01522
21
2.87205
0
LINE
8
BLACK
6
CONTINUOUS
10
2.01522
20
2.87205
11
2.01545
21
2.87206
0
LINE
8
BLACK
6
CONTINUOUS
10
2.01545
20
2.87206
11
2.01608
21
2.87214
0
LINE
8
BLACK
6
CONTINUOUS
10
2.01608
20
2.87214
11
2.01663
21
2.87229
0
LINE
8
BLACK
6
CONTINUOUS
10
2.01663
20
2.87229
11
2.02006
21
2.87381
0
LINE
8
BLACK
6
CONTINUOUS
10
2.02006
20
2.87381
11
2.02064
21
2.87421
0
LINE
8
BLACK
6
CONTINUOUS
10
2.02064
20
2.87421
11
2.02324
21
2.87682
0
LINE
8
BLACK
6
CONTINUOUS
10
2.02324
20
2.87682
11
2.02364
21
2.8774
0
LINE
8
BLACK
6
CONTINUOUS
10
2.02364
20
2.8774
11
2.02516
21
2.88083
0
LINE
8
BLACK
6
CONTINUOUS
10
2.02516
20
2.88083
11
2.02531
21
2.88139
0
LINE
8
BLACK
6
CONTINUOUS
10
2.02531
20
2.88139
11
2.02538
21
2.88199
0
LINE
8
BLACK
6
CONTINUOUS
10
2.02538
20
2.88199
11
2.02539
21
2.88222
0
LINE
8
BLACK
6
CONTINUOUS
10
2.02539
20
2.88222
11
2.02539
21
2.95608
0
LINE
8
BLACK
6
CONTINUOUS
10
2.02539
20
2.95608
11
2.02523
21
2.95657
0
LINE
8
BLACK
6
CONTINUOUS
10
2.02523
20
2.95657
11
2.02507
21
2.95669
0
LINE
8
BLACK
6
CONTINUOUS
10
2.02507
20
2.95669
11
2.01358
21
2.95669
0
LINE
8
BLACK
6
CONTINUOUS
10
2.01358
20
2.95669
11
2.01358
21
2.88386
0
LINE
8
BLACK
6
CONTINUOUS
10
2.01358
20
2.88386
11
1.94075
21
2.88386
0
LINE
8
BLACK
6
CONTINUOUS
10
1.94075
20
2.88386
11
1.94075
21
2.87266
0
LINE
8
BLACK
6
CONTINUOUS
10
1.94075
20
2.87266
11
1.94091
21
2.87217
0
LINE
8
BLACK
6
CONTINUOUS
10
1.94091
20
2.87217
11
1.94107
21
2.87205
0
CIRCLE
8
BLACK
10
3.29
20
0.875
40
0.00787402
0
CIRCLE
8
BLACK
10
1.13091
20
2.82
40
0.00787402
0
CIRCLE
8
BLACK
10
0.970455
20
2.82
40
0.00787402
0
CIRCLE
8
BLACK
10
3.365
20
0.91
40
0.00787402
0
CIRCLE
8
BLACK
10
3.45409
20
1.66
40
0.00787402
0
CIRCLE
8
BLACK
10
1.75955
20
0.54
40
0.00787402
0
CIRCLE
8
BLACK
10
2.24091
20
0.54
40
0.00787402
0
CIRCLE
8
BLACK
10
2.895
20
0.86
40
0.00787402
0
CIRCLE
8
BLACK
10
3.325
20
1.12
40
0.00787402
0
CIRCLE
8
BLACK
10
3.44
20
0.91
40
0.00787402
0
CIRCLE
8
BLACK
10
3.53773
20
2.82
40
0.00787402
0
CIRCLE
8
BLACK
10
1.36818
20
1.66
40
0.00787402
0
CIRCLE
8
BLACK
10
3.0075
20
0.895
40
0.00787402
0
CIRCLE
8
BLACK
10
3.775
20
1.66
40
0.00787402
0
CIRCLE
8
BLACK
10
3.305
20
0.69
40
0.00787402
0
CIRCLE
8
BLACK
10
0.636364
20
0.54
40
0.00787402
0
CIRCLE
8
BLACK
10
0.726364
20
1.66
40
0.00787402
0
CIRCLE
8
BLACK
10
2.41455
20
2.82
40
0.00787402
0
CIRCLE
8
BLACK
10
3.2525
20
0.875
40
0.00787402
0
CIRCLE
8
BLACK
10
3.44
20
0.875
40
0.00787402
0
CIRCLE
8
BLACK
10
2.91
20
1.3
40
0.00787402
0
CIRCLE
8
BLACK
10
3.4775
20
0.91
40
0.00787402
0
CIRCLE
8
BLACK
10
2.01
20
1.66
40
0.00787402
0
CIRCLE
8
BLACK
10
3.275
20
0.72
40
0.00787402
0
CIRCLE
8
BLACK
10
2.92
20
0.08
40
0.00787402
0
CIRCLE
8
BLACK
10
0.925
20
0.08
40
0.00787402
0
CIRCLE
8
BLACK
10
2.9325
20
0.825
40
0.00787402
0
CIRCLE
8
BLACK
10
2.81227
20
1.66
40
0.00787402
0
CIRCLE
8
BLACK
10
3.17
20
0.78
40
0.00787402
0
CIRCLE
8
BLACK
10
1.27818
20
0.54
40
0.00787402
0
CIRCLE
8
BLACK
10
2.9325
20
0.86
40
0.00787402
0
CIRCLE
8
BLACK
10
3.22
20
1.325
40
0.00787402
0
CIRCLE
8
BLACK
10
2.4975
20
0.08
40
0.00787402
0
CIRCLE
8
BLACK
10
3.295
20
1.09
40
0.00787402
0
CIRCLE
8
BLACK
10
0.81
20
0.08
40
0.00787402
0
CIRCLE
8
BLACK
10
3.205
20
1
40
0.00787402
0
CIRCLE
8
BLACK
10
3.52455
20
0.54
40
0.00787402
0
CIRCLE
8
BLACK
10
3.215
20
0.91
40
0.00787402
0
CIRCLE
8
BLACK
10
3.0075
20
0.825
40
0.00787402
0
CIRCLE
8
BLACK
10
1.76
20
0.08
40
0.00787402
0
CIRCLE
8
BLACK
10
3.84545
20
0.54
40
0.00787402
0
CIRCLE
8
BLACK
10
3.735
20
2.05
40
0.00787402
0
CIRCLE
8
BLACK
10
3.29
20
0.61
40
0.00787402
0
CIRCLE
8
BLACK
10
0.475909
20
0.54
40
0.00787402
0
CIRCLE
8
BLACK
10
3.25
20
0.69
40
0.00787402
0
CIRCLE
8
BLACK
10
3.515
20
0.875
40
0.00787402
0
CIRCLE
8
BLACK
10
3.255
20
1.095
40
0.00787402
0
CIRCLE
8
BLACK
10
2.91
20
1.38
40
0.00787402
0
CIRCLE
8
BLACK
10
3.165
20
1
40
0.00787402
0
CIRCLE
8
BLACK
10
3.5525
20
0.875
40
0.00787402
0
CIRCLE
8
BLACK
10
2.97273
20
1.66
40
0.00787402
0
CIRCLE
8
BLACK
10
3.295
20
1.215
40
0.00787402
0
CIRCLE
8
BLACK
10
2.88273
20
0.54
40
0.00787402
0
CIRCLE
8
BLACK
10
3.4025
20
0.875
40
0.00787402
0
CIRCLE
8
BLACK
10
3.82
20
2.245
40
0.00787402
0
CIRCLE
8
BLACK
10
2.17045
20
1.66
40
0.00787402
0
CIRCLE
8
BLACK
10
2.91
20
1.34
40
0.00787402
0
CIRCLE
8
BLACK
10
2.63
20
0.08
40
0.00787402
0
CIRCLE
8
BLACK
10
3.25
20
0.65
40
0.00787402
0
CIRCLE
8
BLACK
10
3.255
20
1.295
40
0.00787402
0
CIRCLE
8
BLACK
10
1.93318
20
2.82
40
0.00787402
0
CIRCLE
8
BLACK
10
3.235
20
1.03
40
0.00787402
0
CIRCLE
8
BLACK
10
0.315455
20
0.54
40
0.00787402
0
CIRCLE
8
BLACK
10
3.21682
20
2.82
40
0.00787402
0
CIRCLE
8
BLACK
10
3.21
20
0.78
40
0.00787402
0
CIRCLE
8
BLACK
10
2.72227
20
0.54
40
0.00787402
0
CIRCLE
8
BLACK
10
2.91
20
1.26
40
0.00787402
0
CIRCLE
8
BLACK
10
3.29
20
0.91
40
0.00787402
0
CIRCLE
8
BLACK
10
1.20773
20
1.66
40
0.00787402
0
CIRCLE
8
BLACK
10
3
20
0.985
40
0.00787402
0
CIRCLE
8
BLACK
10
3.29
20
0.65
40
0.00787402
0
CIRCLE
8
BLACK
10
3.735
20
1.905
40
0.00787402
0
CIRCLE
8
BLACK
10
1.68909
20
1.66
40
0.00787402
0
CIRCLE
8
BLACK
10
2.09364
20
2.82
40
0.00787402
0
CIRCLE
8
BLACK
10
2.895
20
0.895
40
0.00787402
0
CIRCLE
8
BLACK
10
3.3275
20
0.875
40
0.00787402
0
CIRCLE
8
BLACK
10
3.335
20
0.66
40
0.00787402
0
CIRCLE
8
BLACK
10
3.3275
20
0.91
40
0.00787402
0
CIRCLE
8
BLACK
10
3.265
20
1.06
40
0.00787402
0
CIRCLE
8
BLACK
10
1.59909
20
0.54
40
0.00787402
0
CIRCLE
8
BLACK
10
3.255
20
1.175
40
0.00787402
0
CIRCLE
8
BLACK
10
3.365
20
0.875
40
0.00787402
0
CIRCLE
8
BLACK
10
3.005
20
1.055
40
0.00787402
0
CIRCLE
8
BLACK
10
2.91
20
1.18
40
0.00787402
0
CIRCLE
8
BLACK
10
3.04
20
0.985
40
0.00787402
0
CIRCLE
8
BLACK
10
3.885
20
2.385
40
0.00787402
0
CIRCLE
8
BLACK
10
2.995
20
1.02
40
0.00787402
0
CIRCLE
8
BLACK
10
1.04
20
0.08
40
0.00787402
0
CIRCLE
8
BLACK
10
3.8
20
0.08
40
0.00787402
0
CIRCLE
8
BLACK
10
1.6475
20
0.08
40
0.00787402
0
CIRCLE
8
BLACK
10
2.1
20
0.08
40
0.00787402
0
CIRCLE
8
BLACK
10
2.49136
20
1.66
40
0.00787402
0
CIRCLE
8
BLACK
10
2.97
20
0.895
40
0.00787402
0
CIRCLE
8
BLACK
10
3.685
20
0.54
40
0.00787402
0
CIRCLE
8
BLACK
10
3.69818
20
2.82
40
0.00787402
0
CIRCLE
8
BLACK
10
1.45182
20
2.82
40
0.00787402
0
CIRCLE
8
BLACK
10
2.97
20
0.825
40
0.00787402
0
CIRCLE
8
BLACK
10
3.885
20
2.245
40
0.00787402
0
CIRCLE
8
BLACK
10
3.37727
20
2.82
40
0.00787402
0
CIRCLE
8
BLACK
10
3.61455
20
1.66
40
0.00787402
0
CIRCLE
8
BLACK
10
3.06667
20
0.08
40
0.00787402
0
CIRCLE
8
BLACK
10
1.43864
20
0.54
40
0.00787402
0
CIRCLE
8
BLACK
10
3.295
20
1.175
40
0.00787402
0
CIRCLE
8
BLACK
10
0.405455
20
1.66
40
0.00787402
0
CIRCLE
8
BLACK
10
3.5525
20
0.91
40
0.00787402
0
CIRCLE
8
BLACK
10
2.08045
20
0.54
40
0.00787402
0
CIRCLE
8
BLACK
10
2.33091
20
1.66
40
0.00787402
0
CIRCLE
8
BLACK
10
0.695
20
0.08
40
0.00787402
0
CIRCLE
8
BLACK
10
3.255
20
1.215
40
0.00787402
0
CIRCLE
8
BLACK
10
2.97
20
0.86
40
0.00787402
0
CIRCLE
8
BLACK
10
2.89591
20
2.82
40
0.00787402
0
CIRCLE
8
BLACK
10
1.84955
20
1.66
40
0.00787402
0
CIRCLE
8
BLACK
10
3.215
20
0.875
40
0.00787402
0
CIRCLE
8
BLACK
10
2.56182
20
0.54
40
0.00787402
0
CIRCLE
8
BLACK
10
0.81
20
2.82
40
0.00787402
0
CIRCLE
8
BLACK
10
2.40136
20
0.54
40
0.00787402
0
CIRCLE
8
BLACK
10
2.365
20
0.08
40
0.00787402
0
CIRCLE
8
BLACK
10
0.565909
20
1.66
40
0.00787402
0
CIRCLE
8
BLACK
10
3.255
20
1.135
40
0.00787402
0
CIRCLE
8
BLACK
10
3.25
20
0.61
40
0.00787402
0
CIRCLE
8
BLACK
10
2.25409
20
2.82
40
0.00787402
0
CIRCLE
8
BLACK
10
2.575
20
2.82
40
0.00787402
0
CIRCLE
8
BLACK
10
3.36409
20
0.54
40
0.00787402
0
CIRCLE
8
BLACK
10
3.79
20
2.05
40
0.00787402
0
CIRCLE
8
BLACK
10
0.58
20
0.08
40
0.00787402
0
CIRCLE
8
BLACK
10
1.92
20
0.54
40
0.00787402
0
CIRCLE
8
BLACK
10
1.4225
20
0.08
40
0.00787402
0
CIRCLE
8
BLACK
10
3.4025
20
0.91
40
0.00787402
0
CIRCLE
8
BLACK
10
3.295
20
1.255
40
0.00787402
0
CIRCLE
8
BLACK
10
1.61227
20
2.82
40
0.00787402
0
CIRCLE
8
BLACK
10
1.29136
20
2.82
40
0.00787402
0
CIRCLE
8
BLACK
10
0.957273
20
0.54
40
0.00787402
0
CIRCLE
8
BLACK
10
3.04318
20
0.54
40
0.00787402
0
CIRCLE
8
BLACK
10
0.796818
20
0.54
40
0.00787402
0
CIRCLE
8
BLACK
10
1.31
20
0.08
40
0.00787402
0
CIRCLE
8
BLACK
10
2.73545
20
2.82
40
0.00787402
0
CIRCLE
8
BLACK
10
0.649545
20
2.82
40
0.00787402
0
CIRCLE
8
BLACK
10
2.2325
20
0.08
40
0.00787402
0
CIRCLE
8
BLACK
10
3.79
20
1.905
40
0.00787402
0
CIRCLE
8
BLACK
10
3.245
20
0.75
40
0.00787402
0
CIRCLE
8
BLACK
10
0.245
20
1.66
40
0.00787402
0
CIRCLE
8
BLACK
10
3.67
20
0.08
40
0.00787402
0
CIRCLE
8
BLACK
10
3.175
20
1.325
40
0.00787402
0
CIRCLE
8
BLACK
10
2.91
20
1.1
40
0.00787402
0
CIRCLE
8
BLACK
10
1.535
20
0.08
40
0.00787402
0
CIRCLE
8
BLACK
10
1.52864
20
1.66
40
0.00787402
0
CIRCLE
8
BLACK
10
0.886818
20
1.66
40
0.00787402
0
CIRCLE
8
BLACK
10
3.2525
20
0.91
40
0.00787402
0
CIRCLE
8
BLACK
10
3.82
20
2.385
40
0.00787402
0
CIRCLE
8
BLACK
10
3.03
20
1.02
40
0.00787402
0
CIRCLE
8
BLACK
10
3.20364
20
0.54
40
0.00787402
0
CIRCLE
8
BLACK
10
1.04727
20
1.66
40
0.00787402
0
CIRCLE
8
BLACK
10
1.77273
20
2.82
40
0.00787402
0
CIRCLE
8
BLACK
10
3.21333
20
0.08
40
0.00787402
0
CIRCLE
8
BLACK
10
3.0075
20
0.86
40
0.00787402
0
CIRCLE
8
BLACK
10
3.515
20
0.91
40
0.00787402
0
CIRCLE
8
BLACK
10
0.168182
20
2.82
40
0.00787402
0
CIRCLE
8
BLACK
10
2.65182
20
1.66
40
0.00787402
0
CIRCLE
8
BLACK
10
2.895
20
0.825
40
0.00787402
0
CIRCLE
8
BLACK
10
1.11773
20
0.54
40
0.00787402
0
CIRCLE
8
BLACK
10
3.4775
20
0.875
40
0.00787402
0
CIRCLE
8
BLACK
10
3.295
20
1.295
40
0.00787402
0
CIRCLE
8
BLACK
10
2.91
20
1.14
40
0.00787402
0
CIRCLE
8
BLACK
10
3.36
20
0.08
40
0.00787402
0
CIRCLE
8
BLACK
10
3.05636
20
2.82
40
0.00787402
0
CIRCLE
8
BLACK
10
0.328636
20
2.82
40
0.00787402
0
CIRCLE
8
BLACK
10
3.295
20
1.135
40
0.00787402
0
CIRCLE
8
BLACK
10
3.255
20
1.255
40
0.00787402
0
CIRCLE
8
BLACK
10
2.9325
20
0.895
40
0.00787402
0
CIRCLE
8
BLACK
10
2.91
20
1.22
40
0.00787402
0
CIRCLE
8
BLACK
10
0.489091
20
2.82
40
0.00787402
  0
ENDSEC
  0
EOF
