  0
SECTION
  2
HEADER
  9
$ANGBASE
  50
0.0
  9
$ANGDIR
  70
1
  9
$MEASUREMENT
  70
0
  0
ENDSEC
  0
SECTION
  2
TABLES
  0
TABLE
  2
LTYPE
  70
4
  0
LTYPE
  5
40F
  2
CONTINUOUS
  70
0
  3
Solid line
  72
65
  73
0
  40
0.0
  0
LTYPE
  5
410
  2
DASHDOT
 70
0
  3
Dash Dot ____ _ ____ _
 72
65
 73
4
 40
2.0
 49
1.25
 49
-0.25
 49
0.25
 49
-0.25
  0
LTYPE
  5
411
  2
DASHED
 70
0
  3
Dashed __ __ __ __ __
 72
65
 73
2
 40
0.75
 49
0.5
 49
-0.25
  0
LTYPE
  5
43B
  2
DOTTED
 70
0
  3
Dotted .  .  .  .
 72
65
 73
2
 40
0.2
 49
0.0
 49
-0.2
  0
ENDTAB
  0
TABLE
  2
STYLE
  70
4
  0
STYLE
  2
KICAD
  70
0
  40
0
  41
1
  42
1
  50
0
  71
0
  3
isocp.shx
  0
STYLE
  2
KICADB
  70
0
  40
0
  41
1
  42
1
  50
0
  71
0
  3
isocp.shx
  0
STYLE
  2
KICADI
  70
0
  40
0
  41
1
  42
1
  50
15
  71
0
  3
isocp.shx
  0
STYLE
  2
KICADBI
  70
0
  40
0
  41
1
  42
1
  50
15
  71
0
  3
isocp.shx
  0
ENDTAB
  0
TABLE
  2
LAYER
  70
1
  0
LAYER
  2
BLACK
  70
0
  62
7
  6
CONTINUOUS
  0
ENDTAB
  0
ENDSEC
  0
SECTION
  2
ENTITIES
0
LINE
8
BLACK
6
CONTINUOUS
10
-0.00176776
20
0.00413776
11
-0.0025
21
0.00590551
0
LINE
8
BLACK
6
CONTINUOUS
10
-0.0025
20
0.00590551
11
-0.0025
21
3.06496
0
LINE
8
BLACK
6
CONTINUOUS
10
-0.0025
20
3.06496
11
-0.00176776
21
3.06673
0
LINE
8
BLACK
6
CONTINUOUS
10
-0.00176776
20
3.06673
11
0
21
3.06746
0
LINE
8
BLACK
6
CONTINUOUS
10
0
20
3.06746
11
2.35
21
3.06746
0
LINE
8
BLACK
6
CONTINUOUS
10
2.35
20
3.06746
11
2.35177
21
3.06673
0
LINE
8
BLACK
6
CONTINUOUS
10
2.35177
20
3.06673
11
2.3525
21
3.06496
0
LINE
8
BLACK
6
CONTINUOUS
10
2.3525
20
3.06496
11
2.3525
21
0.00590551
0
LINE
8
BLACK
6
CONTINUOUS
10
2.3525
20
0.00590551
11
2.35177
21
0.00413776
0
LINE
8
BLACK
6
CONTINUOUS
10
2.35177
20
0.00413776
11
2.35
21
0.00340551
0
LINE
8
BLACK
6
CONTINUOUS
10
2.35
20
0.00340551
11
0
21
0.00340551
0
LINE
8
BLACK
6
CONTINUOUS
10
0
20
0.00340551
11
-0.00176776
21
0.00413776
0
LINE
8
BLACK
6
CONTINUOUS
10
0.0025
20
3.06246
11
0.0025
21
0.00840551
0
LINE
8
BLACK
6
CONTINUOUS
10
0.0025
20
0.00840551
11
2.3475
21
0.00840551
0
LINE
8
BLACK
6
CONTINUOUS
10
2.3475
20
0.00840551
11
2.3475
21
3.06246
0
LINE
8
BLACK
6
CONTINUOUS
10
2.3475
20
3.06246
11
0.0025
21
3.06246
0
LINE
8
BLACK
6
CONTINUOUS
10
1.94365
20
0.667743
11
1.9444
21
0.665429
0
LINE
8
BLACK
6
CONTINUOUS
10
1.9444
20
0.665429
11
1.9444
21
0.63937
0
LINE
8
BLACK
6
CONTINUOUS
10
1.9444
20
0.63937
11
1.97046
21
0.63937
0
LINE
8
BLACK
6
CONTINUOUS
10
1.97046
20
0.63937
11
1.97278
21
0.638618
0
LINE
8
BLACK
6
CONTINUOUS
10
1.97278
20
0.638618
11
1.97421
21
0.63665
0
LINE
8
BLACK
6
CONTINUOUS
10
1.97421
20
0.63665
11
1.97421
21
0.634216
0
LINE
8
BLACK
6
CONTINUOUS
10
1.97421
20
0.634216
11
1.97278
21
0.632248
0
LINE
8
BLACK
6
CONTINUOUS
10
1.97278
20
0.632248
11
1.97046
21
0.631496
0
LINE
8
BLACK
6
CONTINUOUS
10
1.97046
20
0.631496
11
1.9444
21
0.631496
0
LINE
8
BLACK
6
CONTINUOUS
10
1.9444
20
0.631496
11
1.9444
21
0.605437
0
LINE
8
BLACK
6
CONTINUOUS
10
1.9444
20
0.605437
11
1.94365
21
0.603123
0
LINE
8
BLACK
6
CONTINUOUS
10
1.94365
20
0.603123
11
1.94168
21
0.601693
0
LINE
8
BLACK
6
CONTINUOUS
10
1.94168
20
0.601693
11
1.93925
21
0.601693
0
LINE
8
BLACK
6
CONTINUOUS
10
1.93925
20
0.601693
11
1.93728
21
0.603123
0
LINE
8
BLACK
6
CONTINUOUS
10
1.93728
20
0.603123
11
1.93653
21
0.605437
0
LINE
8
BLACK
6
CONTINUOUS
10
1.93653
20
0.605437
11
1.93653
21
0.631496
0
LINE
8
BLACK
6
CONTINUOUS
10
1.93653
20
0.631496
11
1.91047
21
0.631496
0
LINE
8
BLACK
6
CONTINUOUS
10
1.91047
20
0.631496
11
1.90816
21
0.632248
0
LINE
8
BLACK
6
CONTINUOUS
10
1.90816
20
0.632248
11
1.90673
21
0.634216
0
LINE
8
BLACK
6
CONTINUOUS
10
1.90673
20
0.634216
11
1.90673
21
0.63665
0
LINE
8
BLACK
6
CONTINUOUS
10
1.90673
20
0.63665
11
1.90816
21
0.638618
0
LINE
8
BLACK
6
CONTINUOUS
10
1.90816
20
0.638618
11
1.91047
21
0.63937
0
LINE
8
BLACK
6
CONTINUOUS
10
1.91047
20
0.63937
11
1.93653
21
0.63937
0
LINE
8
BLACK
6
CONTINUOUS
10
1.93653
20
0.63937
11
1.93653
21
0.665429
0
LINE
8
BLACK
6
CONTINUOUS
10
1.93653
20
0.665429
11
1.93728
21
0.667743
0
LINE
8
BLACK
6
CONTINUOUS
10
1.93728
20
0.667743
11
1.93925
21
0.669174
0
LINE
8
BLACK
6
CONTINUOUS
10
1.93925
20
0.669174
11
1.94168
21
0.669174
0
LINE
8
BLACK
6
CONTINUOUS
10
1.94168
20
0.669174
11
1.94365
21
0.667743
0
LINE
8
BLACK
6
CONTINUOUS
10
0.423967
20
0.667743
11
0.424719
21
0.665429
0
LINE
8
BLACK
6
CONTINUOUS
10
0.424719
20
0.665429
11
0.424719
21
0.63937
0
LINE
8
BLACK
6
CONTINUOUS
10
0.424719
20
0.63937
11
0.450778
21
0.63937
0
LINE
8
BLACK
6
CONTINUOUS
10
0.450778
20
0.63937
11
0.453092
21
0.638618
0
LINE
8
BLACK
6
CONTINUOUS
10
0.453092
20
0.638618
11
0.454522
21
0.63665
0
LINE
8
BLACK
6
CONTINUOUS
10
0.454522
20
0.63665
11
0.454522
21
0.634216
0
LINE
8
BLACK
6
CONTINUOUS
10
0.454522
20
0.634216
11
0.453092
21
0.632248
0
LINE
8
BLACK
6
CONTINUOUS
10
0.453092
20
0.632248
11
0.450778
21
0.631496
0
LINE
8
BLACK
6
CONTINUOUS
10
0.450778
20
0.631496
11
0.424719
21
0.631496
0
LINE
8
BLACK
6
CONTINUOUS
10
0.424719
20
0.631496
11
0.424719
21
0.605437
0
LINE
8
BLACK
6
CONTINUOUS
10
0.424719
20
0.605437
11
0.423967
21
0.603123
0
LINE
8
BLACK
6
CONTINUOUS
10
0.423967
20
0.603123
11
0.421998
21
0.601693
0
LINE
8
BLACK
6
CONTINUOUS
10
0.421998
20
0.601693
11
0.419565
21
0.601693
0
LINE
8
BLACK
6
CONTINUOUS
10
0.419565
20
0.601693
11
0.417597
21
0.603123
0
LINE
8
BLACK
6
CONTINUOUS
10
0.417597
20
0.603123
11
0.416845
21
0.605437
0
LINE
8
BLACK
6
CONTINUOUS
10
0.416845
20
0.605437
11
0.416845
21
0.631496
0
LINE
8
BLACK
6
CONTINUOUS
10
0.416845
20
0.631496
11
0.390786
21
0.631496
0
LINE
8
BLACK
6
CONTINUOUS
10
0.390786
20
0.631496
11
0.388471
21
0.632248
0
LINE
8
BLACK
6
CONTINUOUS
10
0.388471
20
0.632248
11
0.387041
21
0.634216
0
LINE
8
BLACK
6
CONTINUOUS
10
0.387041
20
0.634216
11
0.387041
21
0.63665
0
LINE
8
BLACK
6
CONTINUOUS
10
0.387041
20
0.63665
11
0.388471
21
0.638618
0
LINE
8
BLACK
6
CONTINUOUS
10
0.388471
20
0.638618
11
0.390786
21
0.63937
0
LINE
8
BLACK
6
CONTINUOUS
10
0.390786
20
0.63937
11
0.416845
21
0.63937
0
LINE
8
BLACK
6
CONTINUOUS
10
0.416845
20
0.63937
11
0.416845
21
0.665429
0
LINE
8
BLACK
6
CONTINUOUS
10
0.416845
20
0.665429
11
0.417597
21
0.667743
0
LINE
8
BLACK
6
CONTINUOUS
10
0.417597
20
0.667743
11
0.419565
21
0.669174
0
LINE
8
BLACK
6
CONTINUOUS
10
0.419565
20
0.669174
11
0.421998
21
0.669174
0
LINE
8
BLACK
6
CONTINUOUS
10
0.421998
20
0.669174
11
0.423967
21
0.667743
0
LINE
8
BLACK
6
CONTINUOUS
10
1.18381
20
0.667743
11
1.18456
21
0.665429
0
LINE
8
BLACK
6
CONTINUOUS
10
1.18456
20
0.665429
11
1.18456
21
0.63937
0
LINE
8
BLACK
6
CONTINUOUS
10
1.18456
20
0.63937
11
1.21062
21
0.63937
0
LINE
8
BLACK
6
CONTINUOUS
10
1.21062
20
0.63937
11
1.21293
21
0.638618
0
LINE
8
BLACK
6
CONTINUOUS
10
1.21293
20
0.638618
11
1.21436
21
0.63665
0
LINE
8
BLACK
6
CONTINUOUS
10
1.21436
20
0.63665
11
1.21436
21
0.634216
0
LINE
8
BLACK
6
CONTINUOUS
10
1.21436
20
0.634216
11
1.21293
21
0.632248
0
LINE
8
BLACK
6
CONTINUOUS
10
1.21293
20
0.632248
11
1.21062
21
0.631496
0
LINE
8
BLACK
6
CONTINUOUS
10
1.21062
20
0.631496
11
1.18456
21
0.631496
0
LINE
8
BLACK
6
CONTINUOUS
10
1.18456
20
0.631496
11
1.18456
21
0.605437
0
LINE
8
BLACK
6
CONTINUOUS
10
1.18456
20
0.605437
11
1.18381
21
0.603123
0
LINE
8
BLACK
6
CONTINUOUS
10
1.18381
20
0.603123
11
1.18184
21
0.601693
0
LINE
8
BLACK
6
CONTINUOUS
10
1.18184
20
0.601693
11
1.17941
21
0.601693
0
LINE
8
BLACK
6
CONTINUOUS
10
1.17941
20
0.601693
11
1.17744
21
0.603123
0
LINE
8
BLACK
6
CONTINUOUS
10
1.17744
20
0.603123
11
1.17669
21
0.605437
0
LINE
8
BLACK
6
CONTINUOUS
10
1.17669
20
0.605437
11
1.17669
21
0.631496
0
LINE
8
BLACK
6
CONTINUOUS
10
1.17669
20
0.631496
11
1.15063
21
0.631496
0
LINE
8
BLACK
6
CONTINUOUS
10
1.15063
20
0.631496
11
1.14831
21
0.632248
0
LINE
8
BLACK
6
CONTINUOUS
10
1.14831
20
0.632248
11
1.14688
21
0.634216
0
LINE
8
BLACK
6
CONTINUOUS
10
1.14688
20
0.634216
11
1.14688
21
0.63665
0
LINE
8
BLACK
6
CONTINUOUS
10
1.14688
20
0.63665
11
1.14831
21
0.638618
0
LINE
8
BLACK
6
CONTINUOUS
10
1.14831
20
0.638618
11
1.15063
21
0.63937
0
LINE
8
BLACK
6
CONTINUOUS
10
1.15063
20
0.63937
11
1.17669
21
0.63937
0
LINE
8
BLACK
6
CONTINUOUS
10
1.17669
20
0.63937
11
1.17669
21
0.665429
0
LINE
8
BLACK
6
CONTINUOUS
10
1.17669
20
0.665429
11
1.17744
21
0.667743
0
LINE
8
BLACK
6
CONTINUOUS
10
1.17744
20
0.667743
11
1.17941
21
0.669174
0
LINE
8
BLACK
6
CONTINUOUS
10
1.17941
20
0.669174
11
1.18184
21
0.669174
0
LINE
8
BLACK
6
CONTINUOUS
10
1.18184
20
0.669174
11
1.18381
21
0.667743
0
LINE
8
BLACK
6
CONTINUOUS
10
1.18381
20
2.46774
11
1.18456
21
2.46543
0
LINE
8
BLACK
6
CONTINUOUS
10
1.18456
20
2.46543
11
1.18456
21
2.40544
0
LINE
8
BLACK
6
CONTINUOUS
10
1.18456
20
2.40544
11
1.18381
21
2.40312
0
LINE
8
BLACK
6
CONTINUOUS
10
1.18381
20
2.40312
11
1.18184
21
2.40169
0
LINE
8
BLACK
6
CONTINUOUS
10
1.18184
20
2.40169
11
1.17941
21
2.40169
0
LINE
8
BLACK
6
CONTINUOUS
10
1.17941
20
2.40169
11
1.17744
21
2.40312
0
LINE
8
BLACK
6
CONTINUOUS
10
1.17744
20
2.40312
11
1.17669
21
2.40544
0
LINE
8
BLACK
6
CONTINUOUS
10
1.17669
20
2.40544
11
1.17669
21
2.46543
0
LINE
8
BLACK
6
CONTINUOUS
10
1.17669
20
2.46543
11
1.17744
21
2.46774
0
LINE
8
BLACK
6
CONTINUOUS
10
1.17744
20
2.46774
11
1.17941
21
2.46917
0
LINE
8
BLACK
6
CONTINUOUS
10
1.17941
20
2.46917
11
1.18184
21
2.46917
0
LINE
8
BLACK
6
CONTINUOUS
10
1.18184
20
2.46917
11
1.18381
21
2.46774
0
LINE
8
BLACK
6
CONTINUOUS
10
0.423967
20
2.46774
11
0.424719
21
2.46543
0
LINE
8
BLACK
6
CONTINUOUS
10
0.424719
20
2.46543
11
0.424719
21
2.40544
0
LINE
8
BLACK
6
CONTINUOUS
10
0.424719
20
2.40544
11
0.423967
21
2.40312
0
LINE
8
BLACK
6
CONTINUOUS
10
0.423967
20
2.40312
11
0.421998
21
2.40169
0
LINE
8
BLACK
6
CONTINUOUS
10
0.421998
20
2.40169
11
0.419565
21
2.40169
0
LINE
8
BLACK
6
CONTINUOUS
10
0.419565
20
2.40169
11
0.417597
21
2.40312
0
LINE
8
BLACK
6
CONTINUOUS
10
0.417597
20
2.40312
11
0.416845
21
2.40544
0
LINE
8
BLACK
6
CONTINUOUS
10
0.416845
20
2.40544
11
0.416845
21
2.46543
0
LINE
8
BLACK
6
CONTINUOUS
10
0.416845
20
2.46543
11
0.417597
21
2.46774
0
LINE
8
BLACK
6
CONTINUOUS
10
0.417597
20
2.46774
11
0.419565
21
2.46917
0
LINE
8
BLACK
6
CONTINUOUS
10
0.419565
20
2.46917
11
0.421998
21
2.46917
0
LINE
8
BLACK
6
CONTINUOUS
10
0.421998
20
2.46917
11
0.423967
21
2.46774
0
LINE
8
BLACK
6
CONTINUOUS
10
1.94365
20
2.46774
11
1.9444
21
2.46543
0
LINE
8
BLACK
6
CONTINUOUS
10
1.9444
20
2.46543
11
1.9444
21
2.40544
0
LINE
8
BLACK
6
CONTINUOUS
10
1.9444
20
2.40544
11
1.94365
21
2.40312
0
LINE
8
BLACK
6
CONTINUOUS
10
1.94365
20
2.40312
11
1.94168
21
2.40169
0
LINE
8
BLACK
6
CONTINUOUS
10
1.94168
20
2.40169
11
1.93925
21
2.40169
0
LINE
8
BLACK
6
CONTINUOUS
10
1.93925
20
2.40169
11
1.93728
21
2.40312
0
LINE
8
BLACK
6
CONTINUOUS
10
1.93728
20
2.40312
11
1.93653
21
2.40544
0
LINE
8
BLACK
6
CONTINUOUS
10
1.93653
20
2.40544
11
1.93653
21
2.46543
0
LINE
8
BLACK
6
CONTINUOUS
10
1.93653
20
2.46543
11
1.93728
21
2.46774
0
LINE
8
BLACK
6
CONTINUOUS
10
1.93728
20
2.46774
11
1.93925
21
2.46917
0
LINE
8
BLACK
6
CONTINUOUS
10
1.93925
20
2.46917
11
1.94168
21
2.46917
0
LINE
8
BLACK
6
CONTINUOUS
10
1.94168
20
2.46917
11
1.94365
21
2.46774
0
LINE
8
BLACK
6
CONTINUOUS
10
2.35433
20
0.00413776
11
2.3536
21
0.00590551
0
LINE
8
BLACK
6
CONTINUOUS
10
2.3536
20
0.00590551
11
2.3536
21
3.06496
0
LINE
8
BLACK
6
CONTINUOUS
10
2.3536
20
3.06496
11
2.35433
21
3.06673
0
LINE
8
BLACK
6
CONTINUOUS
10
2.35433
20
3.06673
11
2.3561
21
3.06746
0
LINE
8
BLACK
6
CONTINUOUS
10
2.3561
20
3.06746
11
3.93917
21
3.06746
0
LINE
8
BLACK
6
CONTINUOUS
10
3.93917
20
3.06746
11
3.94094
21
3.06673
0
LINE
8
BLACK
6
CONTINUOUS
10
3.94094
20
3.06673
11
3.94167
21
3.06496
0
LINE
8
BLACK
6
CONTINUOUS
10
3.94167
20
3.06496
11
3.94167
21
0.00590551
0
LINE
8
BLACK
6
CONTINUOUS
10
3.94167
20
0.00590551
11
3.94094
21
0.00413776
0
LINE
8
BLACK
6
CONTINUOUS
10
3.94094
20
0.00413776
11
3.93917
21
0.00340551
0
LINE
8
BLACK
6
CONTINUOUS
10
3.93917
20
0.00340551
11
2.3561
21
0.00340551
0
LINE
8
BLACK
6
CONTINUOUS
10
2.3561
20
0.00340551
11
2.35433
21
0.00413776
0
LINE
8
BLACK
6
CONTINUOUS
10
2.3586
20
3.06246
11
2.3586
21
0.00840551
0
LINE
8
BLACK
6
CONTINUOUS
10
2.3586
20
0.00840551
11
3.93667
21
0.00840551
0
LINE
8
BLACK
6
CONTINUOUS
10
3.93667
20
0.00840551
11
3.93667
21
3.06246
0
LINE
8
BLACK
6
CONTINUOUS
10
3.93667
20
3.06246
11
2.3586
21
3.06246
0
LINE
8
BLACK
6
CONTINUOUS
10
2.77653
20
0.667743
11
2.77728
21
0.665429
0
LINE
8
BLACK
6
CONTINUOUS
10
2.77728
20
0.665429
11
2.77728
21
0.63937
0
LINE
8
BLACK
6
CONTINUOUS
10
2.77728
20
0.63937
11
2.80334
21
0.63937
0
LINE
8
BLACK
6
CONTINUOUS
10
2.80334
20
0.63937
11
2.80565
21
0.638618
0
LINE
8
BLACK
6
CONTINUOUS
10
2.80565
20
0.638618
11
2.80708
21
0.63665
0
LINE
8
BLACK
6
CONTINUOUS
10
2.80708
20
0.63665
11
2.80708
21
0.634216
0
LINE
8
BLACK
6
CONTINUOUS
10
2.80708
20
0.634216
11
2.80565
21
0.632248
0
LINE
8
BLACK
6
CONTINUOUS
10
2.80565
20
0.632248
11
2.80334
21
0.631496
0
LINE
8
BLACK
6
CONTINUOUS
10
2.80334
20
0.631496
11
2.77728
21
0.631496
0
LINE
8
BLACK
6
CONTINUOUS
10
2.77728
20
0.631496
11
2.77728
21
0.605437
0
LINE
8
BLACK
6
CONTINUOUS
10
2.77728
20
0.605437
11
2.77653
21
0.603123
0
LINE
8
BLACK
6
CONTINUOUS
10
2.77653
20
0.603123
11
2.77456
21
0.601693
0
LINE
8
BLACK
6
CONTINUOUS
10
2.77456
20
0.601693
11
2.77212
21
0.601693
0
LINE
8
BLACK
6
CONTINUOUS
10
2.77212
20
0.601693
11
2.77016
21
0.603123
0
LINE
8
BLACK
6
CONTINUOUS
10
2.77016
20
0.603123
11
2.7694
21
0.605437
0
LINE
8
BLACK
6
CONTINUOUS
10
2.7694
20
0.605437
11
2.7694
21
0.631496
0
LINE
8
BLACK
6
CONTINUOUS
10
2.7694
20
0.631496
11
2.74334
21
0.631496
0
LINE
8
BLACK
6
CONTINUOUS
10
2.74334
20
0.631496
11
2.74103
21
0.632248
0
LINE
8
BLACK
6
CONTINUOUS
10
2.74103
20
0.632248
11
2.7396
21
0.634216
0
LINE
8
BLACK
6
CONTINUOUS
10
2.7396
20
0.634216
11
2.7396
21
0.63665
0
LINE
8
BLACK
6
CONTINUOUS
10
2.7396
20
0.63665
11
2.74103
21
0.638618
0
LINE
8
BLACK
6
CONTINUOUS
10
2.74103
20
0.638618
11
2.74334
21
0.63937
0
LINE
8
BLACK
6
CONTINUOUS
10
2.74334
20
0.63937
11
2.7694
21
0.63937
0
LINE
8
BLACK
6
CONTINUOUS
10
2.7694
20
0.63937
11
2.7694
21
0.665429
0
LINE
8
BLACK
6
CONTINUOUS
10
2.7694
20
0.665429
11
2.77016
21
0.667743
0
LINE
8
BLACK
6
CONTINUOUS
10
2.77016
20
0.667743
11
2.77212
21
0.669174
0
LINE
8
BLACK
6
CONTINUOUS
10
2.77212
20
0.669174
11
2.77456
21
0.669174
0
LINE
8
BLACK
6
CONTINUOUS
10
2.77456
20
0.669174
11
2.77653
21
0.667743
0
LINE
8
BLACK
6
CONTINUOUS
10
3.53637
20
0.667743
11
3.53712
21
0.665429
0
LINE
8
BLACK
6
CONTINUOUS
10
3.53712
20
0.665429
11
3.53712
21
0.63937
0
LINE
8
BLACK
6
CONTINUOUS
10
3.53712
20
0.63937
11
3.56318
21
0.63937
0
LINE
8
BLACK
6
CONTINUOUS
10
3.56318
20
0.63937
11
3.56549
21
0.638618
0
LINE
8
BLACK
6
CONTINUOUS
10
3.56549
20
0.638618
11
3.56692
21
0.63665
0
LINE
8
BLACK
6
CONTINUOUS
10
3.56692
20
0.63665
11
3.56692
21
0.634216
0
LINE
8
BLACK
6
CONTINUOUS
10
3.56692
20
0.634216
11
3.56549
21
0.632248
0
LINE
8
BLACK
6
CONTINUOUS
10
3.56549
20
0.632248
11
3.56318
21
0.631496
0
LINE
8
BLACK
6
CONTINUOUS
10
3.56318
20
0.631496
11
3.53712
21
0.631496
0
LINE
8
BLACK
6
CONTINUOUS
10
3.53712
20
0.631496
11
3.53712
21
0.605437
0
LINE
8
BLACK
6
CONTINUOUS
10
3.53712
20
0.605437
11
3.53637
21
0.603123
0
LINE
8
BLACK
6
CONTINUOUS
10
3.53637
20
0.603123
11
3.5344
21
0.601693
0
LINE
8
BLACK
6
CONTINUOUS
10
3.5344
20
0.601693
11
3.53197
21
0.601693
0
LINE
8
BLACK
6
CONTINUOUS
10
3.53197
20
0.601693
11
3.53
21
0.603123
0
LINE
8
BLACK
6
CONTINUOUS
10
3.53
20
0.603123
11
3.52925
21
0.605437
0
LINE
8
BLACK
6
CONTINUOUS
10
3.52925
20
0.605437
11
3.52925
21
0.631496
0
LINE
8
BLACK
6
CONTINUOUS
10
3.52925
20
0.631496
11
3.50319
21
0.631496
0
LINE
8
BLACK
6
CONTINUOUS
10
3.50319
20
0.631496
11
3.50087
21
0.632248
0
LINE
8
BLACK
6
CONTINUOUS
10
3.50087
20
0.632248
11
3.49944
21
0.634216
0
LINE
8
BLACK
6
CONTINUOUS
10
3.49944
20
0.634216
11
3.49944
21
0.63665
0
LINE
8
BLACK
6
CONTINUOUS
10
3.49944
20
0.63665
11
3.50087
21
0.638618
0
LINE
8
BLACK
6
CONTINUOUS
10
3.50087
20
0.638618
11
3.50319
21
0.63937
0
LINE
8
BLACK
6
CONTINUOUS
10
3.50319
20
0.63937
11
3.52925
21
0.63937
0
LINE
8
BLACK
6
CONTINUOUS
10
3.52925
20
0.63937
11
3.52925
21
0.665429
0
LINE
8
BLACK
6
CONTINUOUS
10
3.52925
20
0.665429
11
3.53
21
0.667743
0
LINE
8
BLACK
6
CONTINUOUS
10
3.53
20
0.667743
11
3.53197
21
0.669174
0
LINE
8
BLACK
6
CONTINUOUS
10
3.53197
20
0.669174
11
3.5344
21
0.669174
0
LINE
8
BLACK
6
CONTINUOUS
10
3.5344
20
0.669174
11
3.53637
21
0.667743
0
LINE
8
BLACK
6
CONTINUOUS
10
3.26646
20
1.32355
11
3.26801
21
1.32225
0
LINE
8
BLACK
6
CONTINUOUS
10
3.26801
20
1.32225
11
3.26836
21
1.32026
0
LINE
8
BLACK
6
CONTINUOUS
10
3.26836
20
1.32026
11
3.26735
21
1.31851
0
LINE
8
BLACK
6
CONTINUOUS
10
3.26735
20
1.31851
11
3.26545
21
1.31782
0
LINE
8
BLACK
6
CONTINUOUS
10
3.26545
20
1.31782
11
3.22608
21
1.31782
0
LINE
8
BLACK
6
CONTINUOUS
10
3.22608
20
1.31782
11
3.22507
21
1.318
0
LINE
8
BLACK
6
CONTINUOUS
10
3.22507
20
1.318
11
3.22352
21
1.3193
0
LINE
8
BLACK
6
CONTINUOUS
10
3.22352
20
1.3193
11
3.22317
21
1.32129
0
LINE
8
BLACK
6
CONTINUOUS
10
3.22317
20
1.32129
11
3.22418
21
1.32303
0
LINE
8
BLACK
6
CONTINUOUS
10
3.22418
20
1.32303
11
3.22608
21
1.32373
0
LINE
8
BLACK
6
CONTINUOUS
10
3.22608
20
1.32373
11
3.26545
21
1.32373
0
LINE
8
BLACK
6
CONTINUOUS
10
3.26545
20
1.32373
11
3.26646
21
1.32355
0
LINE
8
BLACK
6
CONTINUOUS
10
3.26646
20
1.36479
11
3.26667
21
1.36462
0
LINE
8
BLACK
6
CONTINUOUS
10
3.26667
20
1.36462
11
3.26694
21
1.36457
0
LINE
8
BLACK
6
CONTINUOUS
10
3.26694
20
1.36457
11
3.26742
21
1.36398
0
LINE
8
BLACK
6
CONTINUOUS
10
3.26742
20
1.36398
11
3.26801
21
1.36349
0
LINE
8
BLACK
6
CONTINUOUS
10
3.26801
20
1.36349
11
3.26805
21
1.36322
0
LINE
8
BLACK
6
CONTINUOUS
10
3.26805
20
1.36322
11
3.26823
21
1.36301
0
LINE
8
BLACK
6
CONTINUOUS
10
3.26823
20
1.36301
11
3.26822
21
1.36225
0
LINE
8
BLACK
6
CONTINUOUS
10
3.26822
20
1.36225
11
3.26836
21
1.3615
0
LINE
8
BLACK
6
CONTINUOUS
10
3.26836
20
1.3615
11
3.26822
21
1.36127
0
LINE
8
BLACK
6
CONTINUOUS
10
3.26822
20
1.36127
11
3.26822
21
1.361
0
LINE
8
BLACK
6
CONTINUOUS
10
3.26822
20
1.361
11
3.26773
21
1.36041
0
LINE
8
BLACK
6
CONTINUOUS
10
3.26773
20
1.36041
11
3.26735
21
1.35976
0
LINE
8
BLACK
6
CONTINUOUS
10
3.26735
20
1.35976
11
3.26709
21
1.35966
0
LINE
8
BLACK
6
CONTINUOUS
10
3.26709
20
1.35966
11
3.26691
21
1.35945
0
LINE
8
BLACK
6
CONTINUOUS
10
3.26691
20
1.35945
11
3.2372
21
1.34247
0
LINE
8
BLACK
6
CONTINUOUS
10
3.2372
20
1.34247
11
3.26545
21
1.34247
0
LINE
8
BLACK
6
CONTINUOUS
10
3.26545
20
1.34247
11
3.26646
21
1.34229
0
LINE
8
BLACK
6
CONTINUOUS
10
3.26646
20
1.34229
11
3.26801
21
1.341
0
LINE
8
BLACK
6
CONTINUOUS
10
3.26801
20
1.341
11
3.26836
21
1.33901
0
LINE
8
BLACK
6
CONTINUOUS
10
3.26836
20
1.33901
11
3.26735
21
1.33726
0
LINE
8
BLACK
6
CONTINUOUS
10
3.26735
20
1.33726
11
3.26545
21
1.33657
0
LINE
8
BLACK
6
CONTINUOUS
10
3.26545
20
1.33657
11
3.22608
21
1.33657
0
LINE
8
BLACK
6
CONTINUOUS
10
3.22608
20
1.33657
11
3.22507
21
1.33675
0
LINE
8
BLACK
6
CONTINUOUS
10
3.22507
20
1.33675
11
3.22486
21
1.33692
0
LINE
8
BLACK
6
CONTINUOUS
10
3.22486
20
1.33692
11
3.22459
21
1.33697
0
LINE
8
BLACK
6
CONTINUOUS
10
3.22459
20
1.33697
11
3.2241
21
1.33755
0
LINE
8
BLACK
6
CONTINUOUS
10
3.2241
20
1.33755
11
3.22352
21
1.33804
0
LINE
8
BLACK
6
CONTINUOUS
10
3.22352
20
1.33804
11
3.22347
21
1.33831
0
LINE
8
BLACK
6
CONTINUOUS
10
3.22347
20
1.33831
11
3.2233
21
1.33852
0
LINE
8
BLACK
6
CONTINUOUS
10
3.2233
20
1.33852
11
3.2233
21
1.33928
0
LINE
8
BLACK
6
CONTINUOUS
10
3.2233
20
1.33928
11
3.22317
21
1.34003
0
LINE
8
BLACK
6
CONTINUOUS
10
3.22317
20
1.34003
11
3.22331
21
1.34027
0
LINE
8
BLACK
6
CONTINUOUS
10
3.22331
20
1.34027
11
3.22331
21
1.34054
0
LINE
8
BLACK
6
CONTINUOUS
10
3.22331
20
1.34054
11
3.2238
21
1.34112
0
LINE
8
BLACK
6
CONTINUOUS
10
3.2238
20
1.34112
11
3.22418
21
1.34178
0
LINE
8
BLACK
6
CONTINUOUS
10
3.22418
20
1.34178
11
3.22444
21
1.34188
0
LINE
8
BLACK
6
CONTINUOUS
10
3.22444
20
1.34188
11
3.22461
21
1.34208
0
LINE
8
BLACK
6
CONTINUOUS
10
3.22461
20
1.34208
11
3.25433
21
1.35906
0
LINE
8
BLACK
6
CONTINUOUS
10
3.25433
20
1.35906
11
3.22608
21
1.35906
0
LINE
8
BLACK
6
CONTINUOUS
10
3.22608
20
1.35906
11
3.22507
21
1.35924
0
LINE
8
BLACK
6
CONTINUOUS
10
3.22507
20
1.35924
11
3.22352
21
1.36054
0
LINE
8
BLACK
6
CONTINUOUS
10
3.22352
20
1.36054
11
3.22317
21
1.36253
0
LINE
8
BLACK
6
CONTINUOUS
10
3.22317
20
1.36253
11
3.22418
21
1.36428
0
LINE
8
BLACK
6
CONTINUOUS
10
3.22418
20
1.36428
11
3.22608
21
1.36497
0
LINE
8
BLACK
6
CONTINUOUS
10
3.22608
20
1.36497
11
3.26545
21
1.36497
0
LINE
8
BLACK
6
CONTINUOUS
10
3.26545
20
1.36497
11
3.26646
21
1.36479
0
LINE
8
BLACK
6
CONTINUOUS
10
3.24021
20
1.40604
11
3.24035
21
1.40592
0
LINE
8
BLACK
6
CONTINUOUS
10
3.24035
20
1.40592
11
3.24052
21
1.4059
0
LINE
8
BLACK
6
CONTINUOUS
10
3.24052
20
1.4059
11
3.24427
21
1.40403
0
LINE
8
BLACK
6
CONTINUOUS
10
3.24427
20
1.40403
11
3.24498
21
1.4035
0
LINE
8
BLACK
6
CONTINUOUS
10
3.24498
20
1.4035
11
3.24504
21
1.40348
0
LINE
8
BLACK
6
CONTINUOUS
10
3.24504
20
1.40348
11
3.24691
21
1.4016
0
LINE
8
BLACK
6
CONTINUOUS
10
3.24691
20
1.4016
11
3.24742
21
1.40088
0
LINE
8
BLACK
6
CONTINUOUS
10
3.24742
20
1.40088
11
3.24747
21
1.40083
0
LINE
8
BLACK
6
CONTINUOUS
10
3.24747
20
1.40083
11
3.24934
21
1.39708
0
LINE
8
BLACK
6
CONTINUOUS
10
3.24934
20
1.39708
11
3.24963
21
1.3961
0
LINE
8
BLACK
6
CONTINUOUS
10
3.24963
20
1.3961
11
3.24959
21
1.39593
0
LINE
8
BLACK
6
CONTINUOUS
10
3.24959
20
1.39593
11
3.24964
21
1.3958
0
LINE
8
BLACK
6
CONTINUOUS
10
3.24964
20
1.3958
11
3.26375
21
1.40568
0
LINE
8
BLACK
6
CONTINUOUS
10
3.26375
20
1.40568
11
3.26468
21
1.40611
0
LINE
8
BLACK
6
CONTINUOUS
10
3.26468
20
1.40611
11
3.2667
21
1.40594
0
LINE
8
BLACK
6
CONTINUOUS
10
3.2667
20
1.40594
11
3.26812
21
1.40451
0
LINE
8
BLACK
6
CONTINUOUS
10
3.26812
20
1.40451
11
3.2683
21
1.4025
0
LINE
8
BLACK
6
CONTINUOUS
10
3.2683
20
1.4025
11
3.26714
21
1.40084
0
LINE
8
BLACK
6
CONTINUOUS
10
3.26714
20
1.40084
11
3.24965
21
1.3886
0
LINE
8
BLACK
6
CONTINUOUS
10
3.24965
20
1.3886
11
3.24965
21
1.38372
0
LINE
8
BLACK
6
CONTINUOUS
10
3.24965
20
1.38372
11
3.26545
21
1.38372
0
LINE
8
BLACK
6
CONTINUOUS
10
3.26545
20
1.38372
11
3.26646
21
1.38354
0
LINE
8
BLACK
6
CONTINUOUS
10
3.26646
20
1.38354
11
3.26801
21
1.38224
0
LINE
8
BLACK
6
CONTINUOUS
10
3.26801
20
1.38224
11
3.26836
21
1.38025
0
LINE
8
BLACK
6
CONTINUOUS
10
3.26836
20
1.38025
11
3.26735
21
1.3785
0
LINE
8
BLACK
6
CONTINUOUS
10
3.26735
20
1.3785
11
3.26545
21
1.37781
0
LINE
8
BLACK
6
CONTINUOUS
10
3.26545
20
1.37781
11
3.22608
21
1.37781
0
LINE
8
BLACK
6
CONTINUOUS
10
3.22608
20
1.37781
11
3.22569
21
1.37788
0
LINE
8
BLACK
6
CONTINUOUS
10
3.22569
20
1.37788
11
3.22557
21
1.37786
0
LINE
8
BLACK
6
CONTINUOUS
10
3.22557
20
1.37786
11
3.22545
21
1.37792
0
LINE
8
BLACK
6
CONTINUOUS
10
3.22545
20
1.37792
11
3.22507
21
1.37799
0
LINE
8
BLACK
6
CONTINUOUS
10
3.22507
20
1.37799
11
3.22448
21
1.37848
0
LINE
8
BLACK
6
CONTINUOUS
10
3.22448
20
1.37848
11
3.22382
21
1.37887
0
LINE
8
BLACK
6
CONTINUOUS
10
3.22382
20
1.37887
11
3.22372
21
1.37912
0
LINE
8
BLACK
6
CONTINUOUS
10
3.22372
20
1.37912
11
3.22352
21
1.37929
0
LINE
8
BLACK
6
CONTINUOUS
10
3.22352
20
1.37929
11
3.22339
21
1.38004
0
LINE
8
BLACK
6
CONTINUOUS
10
3.22339
20
1.38004
11
3.22313
21
1.38076
0
LINE
8
BLACK
6
CONTINUOUS
10
3.22313
20
1.38076
11
3.22313
21
1.39576
0
LINE
8
BLACK
6
CONTINUOUS
10
3.22313
20
1.39576
11
3.2233
21
1.39677
0
LINE
8
BLACK
6
CONTINUOUS
10
3.2233
20
1.39677
11
3.22342
21
1.39691
0
LINE
8
BLACK
6
CONTINUOUS
10
3.22342
20
1.39691
11
3.22344
21
1.39708
0
LINE
8
BLACK
6
CONTINUOUS
10
3.22344
20
1.39708
11
3.22531
21
1.40083
0
LINE
8
BLACK
6
CONTINUOUS
10
3.22531
20
1.40083
11
3.22584
21
1.40154
0
LINE
8
BLACK
6
CONTINUOUS
10
3.22584
20
1.40154
11
3.22586
21
1.4016
0
LINE
8
BLACK
6
CONTINUOUS
10
3.22586
20
1.4016
11
3.22774
21
1.40348
0
LINE
8
BLACK
6
CONTINUOUS
10
3.22774
20
1.40348
11
3.22846
21
1.40398
0
LINE
8
BLACK
6
CONTINUOUS
10
3.22846
20
1.40398
11
3.22851
21
1.40403
0
LINE
8
BLACK
6
CONTINUOUS
10
3.22851
20
1.40403
11
3.23226
21
1.4059
0
LINE
8
BLACK
6
CONTINUOUS
10
3.23226
20
1.4059
11
3.23324
21
1.4062
0
LINE
8
BLACK
6
CONTINUOUS
10
3.23324
20
1.4062
11
3.23341
21
1.40615
0
LINE
8
BLACK
6
CONTINUOUS
10
3.23341
20
1.40615
11
3.23358
21
1.40621
0
LINE
8
BLACK
6
CONTINUOUS
10
3.23358
20
1.40621
11
3.2392
21
1.40621
0
LINE
8
BLACK
6
CONTINUOUS
10
3.2392
20
1.40621
11
3.24021
21
1.40604
0
LINE
8
BLACK
6
CONTINUOUS
10
3.23427
20
1.40031
11
3.23158
21
1.39896
0
LINE
8
BLACK
6
CONTINUOUS
10
3.23158
20
1.39896
11
3.23038
21
1.39776
0
LINE
8
BLACK
6
CONTINUOUS
10
3.23038
20
1.39776
11
3.22903
21
1.39507
0
LINE
8
BLACK
6
CONTINUOUS
10
3.22903
20
1.39507
11
3.22903
21
1.38372
0
LINE
8
BLACK
6
CONTINUOUS
10
3.22903
20
1.38372
11
3.24375
21
1.38372
0
LINE
8
BLACK
6
CONTINUOUS
10
3.24375
20
1.38372
11
3.24375
21
1.39507
0
LINE
8
BLACK
6
CONTINUOUS
10
3.24375
20
1.39507
11
3.2424
21
1.39776
0
LINE
8
BLACK
6
CONTINUOUS
10
3.2424
20
1.39776
11
3.2412
21
1.39896
0
LINE
8
BLACK
6
CONTINUOUS
10
3.2412
20
1.39896
11
3.2385
21
1.40031
0
LINE
8
BLACK
6
CONTINUOUS
10
3.2385
20
1.40031
11
3.23427
21
1.40031
0
LINE
8
BLACK
6
CONTINUOUS
10
3.26771
20
1.44266
11
3.2684
21
1.44076
0
LINE
8
BLACK
6
CONTINUOUS
10
3.2684
20
1.44076
11
3.2684
21
1.41826
0
LINE
8
BLACK
6
CONTINUOUS
10
3.2684
20
1.41826
11
3.26822
21
1.41725
0
LINE
8
BLACK
6
CONTINUOUS
10
3.26822
20
1.41725
11
3.26692
21
1.4157
0
LINE
8
BLACK
6
CONTINUOUS
10
3.26692
20
1.4157
11
3.26494
21
1.41535
0
LINE
8
BLACK
6
CONTINUOUS
10
3.26494
20
1.41535
11
3.26319
21
1.41636
0
LINE
8
BLACK
6
CONTINUOUS
10
3.26319
20
1.41636
11
3.2625
21
1.41826
0
LINE
8
BLACK
6
CONTINUOUS
10
3.2625
20
1.41826
11
3.2625
21
1.42656
0
LINE
8
BLACK
6
CONTINUOUS
10
3.2625
20
1.42656
11
3.23508
21
1.42656
0
LINE
8
BLACK
6
CONTINUOUS
10
3.23508
20
1.42656
11
3.23754
21
1.4241
0
LINE
8
BLACK
6
CONTINUOUS
10
3.23754
20
1.4241
11
3.23805
21
1.42337
0
LINE
8
BLACK
6
CONTINUOUS
10
3.23805
20
1.42337
11
3.23809
21
1.42333
0
LINE
8
BLACK
6
CONTINUOUS
10
3.23809
20
1.42333
11
3.23997
21
1.41958
0
LINE
8
BLACK
6
CONTINUOUS
10
3.23997
20
1.41958
11
3.24026
21
1.4186
0
LINE
8
BLACK
6
CONTINUOUS
10
3.24026
20
1.4186
11
3.23979
21
1.41663
0
LINE
8
BLACK
6
CONTINUOUS
10
3.23979
20
1.41663
11
3.23817
21
1.41543
0
LINE
8
BLACK
6
CONTINUOUS
10
3.23817
20
1.41543
11
3.23615
21
1.41555
0
LINE
8
BLACK
6
CONTINUOUS
10
3.23615
20
1.41555
11
3.23469
21
1.41694
0
LINE
8
BLACK
6
CONTINUOUS
10
3.23469
20
1.41694
11
3.23303
21
1.42026
0
LINE
8
BLACK
6
CONTINUOUS
10
3.23303
20
1.42026
11
3.22982
21
1.42346
0
LINE
8
BLACK
6
CONTINUOUS
10
3.22982
20
1.42346
11
3.22444
21
1.42705
0
LINE
8
BLACK
6
CONTINUOUS
10
3.22444
20
1.42705
11
3.2237
21
1.42776
0
LINE
8
BLACK
6
CONTINUOUS
10
3.2237
20
1.42776
11
3.22365
21
1.42792
0
LINE
8
BLACK
6
CONTINUOUS
10
3.22365
20
1.42792
11
3.22352
21
1.42803
0
LINE
8
BLACK
6
CONTINUOUS
10
3.22352
20
1.42803
11
3.22337
21
1.42888
0
LINE
8
BLACK
6
CONTINUOUS
10
3.22337
20
1.42888
11
3.22313
21
1.4297
0
LINE
8
BLACK
6
CONTINUOUS
10
3.22313
20
1.4297
11
3.2232
21
1.42985
0
LINE
8
BLACK
6
CONTINUOUS
10
3.2232
20
1.42985
11
3.22317
21
1.43002
0
LINE
8
BLACK
6
CONTINUOUS
10
3.22317
20
1.43002
11
3.2236
21
1.43076
0
LINE
8
BLACK
6
CONTINUOUS
10
3.2236
20
1.43076
11
3.22394
21
1.43155
0
LINE
8
BLACK
6
CONTINUOUS
10
3.22394
20
1.43155
11
3.2241
21
1.43162
0
LINE
8
BLACK
6
CONTINUOUS
10
3.2241
20
1.43162
11
3.22418
21
1.43177
0
LINE
8
BLACK
6
CONTINUOUS
10
3.22418
20
1.43177
11
3.22499
21
1.43206
0
LINE
8
BLACK
6
CONTINUOUS
10
3.22499
20
1.43206
11
3.22575
21
1.43244
0
LINE
8
BLACK
6
CONTINUOUS
10
3.22575
20
1.43244
11
3.22592
21
1.4324
0
LINE
8
BLACK
6
CONTINUOUS
10
3.22592
20
1.4324
11
3.22608
21
1.43246
0
LINE
8
BLACK
6
CONTINUOUS
10
3.22608
20
1.43246
11
3.2625
21
1.43246
0
LINE
8
BLACK
6
CONTINUOUS
10
3.2625
20
1.43246
11
3.2625
21
1.44076
0
LINE
8
BLACK
6
CONTINUOUS
10
3.2625
20
1.44076
11
3.26267
21
1.44177
0
LINE
8
BLACK
6
CONTINUOUS
10
3.26267
20
1.44177
11
3.26397
21
1.44331
0
LINE
8
BLACK
6
CONTINUOUS
10
3.26397
20
1.44331
11
3.26596
21
1.44367
0
LINE
8
BLACK
6
CONTINUOUS
10
3.26596
20
1.44367
11
3.26771
21
1.44266
0
LINE
8
BLACK
6
CONTINUOUS
10
3.23646
20
1.48103
11
3.2366
21
1.48091
0
LINE
8
BLACK
6
CONTINUOUS
10
3.2366
20
1.48091
11
3.23677
21
1.48089
0
LINE
8
BLACK
6
CONTINUOUS
10
3.23677
20
1.48089
11
3.24052
21
1.47902
0
LINE
8
BLACK
6
CONTINUOUS
10
3.24052
20
1.47902
11
3.24123
21
1.47849
0
LINE
8
BLACK
6
CONTINUOUS
10
3.24123
20
1.47849
11
3.24129
21
1.47847
0
LINE
8
BLACK
6
CONTINUOUS
10
3.24129
20
1.47847
11
3.24295
21
1.4768
0
LINE
8
BLACK
6
CONTINUOUS
10
3.24295
20
1.4768
11
3.24461
21
1.47847
0
LINE
8
BLACK
6
CONTINUOUS
10
3.24461
20
1.47847
11
3.24534
21
1.47897
0
LINE
8
BLACK
6
CONTINUOUS
10
3.24534
20
1.47897
11
3.24538
21
1.47902
0
LINE
8
BLACK
6
CONTINUOUS
10
3.24538
20
1.47902
11
3.24913
21
1.48089
0
LINE
8
BLACK
6
CONTINUOUS
10
3.24913
20
1.48089
11
3.25011
21
1.48119
0
LINE
8
BLACK
6
CONTINUOUS
10
3.25011
20
1.48119
11
3.25028
21
1.48115
0
LINE
8
BLACK
6
CONTINUOUS
10
3.25028
20
1.48115
11
3.25045
21
1.48121
0
LINE
8
BLACK
6
CONTINUOUS
10
3.25045
20
1.48121
11
3.25795
21
1.48121
0
LINE
8
BLACK
6
CONTINUOUS
10
3.25795
20
1.48121
11
3.25896
21
1.48103
0
LINE
8
BLACK
6
CONTINUOUS
10
3.25896
20
1.48103
11
3.25909
21
1.48091
0
LINE
8
BLACK
6
CONTINUOUS
10
3.25909
20
1.48091
11
3.25927
21
1.48089
0
LINE
8
BLACK
6
CONTINUOUS
10
3.25927
20
1.48089
11
3.26302
21
1.47902
0
LINE
8
BLACK
6
CONTINUOUS
10
3.26302
20
1.47902
11
3.26373
21
1.47849
0
LINE
8
BLACK
6
CONTINUOUS
10
3.26373
20
1.47849
11
3.26379
21
1.47847
0
LINE
8
BLACK
6
CONTINUOUS
10
3.26379
20
1.47847
11
3.26566
21
1.47659
0
LINE
8
BLACK
6
CONTINUOUS
10
3.26566
20
1.47659
11
3.26617
21
1.47587
0
LINE
8
BLACK
6
CONTINUOUS
10
3.26617
20
1.47587
11
3.26621
21
1.47582
0
LINE
8
BLACK
6
CONTINUOUS
10
3.26621
20
1.47582
11
3.26809
21
1.47207
0
LINE
8
BLACK
6
CONTINUOUS
10
3.26809
20
1.47207
11
3.26838
21
1.47109
0
LINE
8
BLACK
6
CONTINUOUS
10
3.26838
20
1.47109
11
3.26834
21
1.47092
0
LINE
8
BLACK
6
CONTINUOUS
10
3.26834
20
1.47092
11
3.2684
21
1.47075
0
LINE
8
BLACK
6
CONTINUOUS
10
3.2684
20
1.47075
11
3.2684
21
1.46325
0
LINE
8
BLACK
6
CONTINUOUS
10
3.2684
20
1.46325
11
3.26822
21
1.46224
0
LINE
8
BLACK
6
CONTINUOUS
10
3.26822
20
1.46224
11
3.26811
21
1.46211
0
LINE
8
BLACK
6
CONTINUOUS
10
3.26811
20
1.46211
11
3.26809
21
1.46193
0
LINE
8
BLACK
6
CONTINUOUS
10
3.26809
20
1.46193
11
3.26621
21
1.45818
0
LINE
8
BLACK
6
CONTINUOUS
10
3.26621
20
1.45818
11
3.26569
21
1.45748
0
LINE
8
BLACK
6
CONTINUOUS
10
3.26569
20
1.45748
11
3.26566
21
1.45742
0
LINE
8
BLACK
6
CONTINUOUS
10
3.26566
20
1.45742
11
3.26379
21
1.45554
0
LINE
8
BLACK
6
CONTINUOUS
10
3.26379
20
1.45554
11
3.26306
21
1.45504
0
LINE
8
BLACK
6
CONTINUOUS
10
3.26306
20
1.45504
11
3.26302
21
1.45499
0
LINE
8
BLACK
6
CONTINUOUS
10
3.26302
20
1.45499
11
3.25927
21
1.45311
0
LINE
8
BLACK
6
CONTINUOUS
10
3.25927
20
1.45311
11
3.25829
21
1.45282
0
LINE
8
BLACK
6
CONTINUOUS
10
3.25829
20
1.45282
11
3.25811
21
1.45286
0
LINE
8
BLACK
6
CONTINUOUS
10
3.25811
20
1.45286
11
3.25795
21
1.4528
0
LINE
8
BLACK
6
CONTINUOUS
10
3.25795
20
1.4528
11
3.25045
21
1.4528
0
LINE
8
BLACK
6
CONTINUOUS
10
3.25045
20
1.4528
11
3.24944
21
1.45298
0
LINE
8
BLACK
6
CONTINUOUS
10
3.24944
20
1.45298
11
3.2493
21
1.45309
0
LINE
8
BLACK
6
CONTINUOUS
10
3.2493
20
1.45309
11
3.24913
21
1.45311
0
LINE
8
BLACK
6
CONTINUOUS
10
3.24913
20
1.45311
11
3.24538
21
1.45499
0
LINE
8
BLACK
6
CONTINUOUS
10
3.24538
20
1.45499
11
3.24467
21
1.45552
0
LINE
8
BLACK
6
CONTINUOUS
10
3.24467
20
1.45552
11
3.24461
21
1.45554
0
LINE
8
BLACK
6
CONTINUOUS
10
3.24461
20
1.45554
11
3.24295
21
1.4572
0
LINE
8
BLACK
6
CONTINUOUS
10
3.24295
20
1.4572
11
3.24129
21
1.45554
0
LINE
8
BLACK
6
CONTINUOUS
10
3.24129
20
1.45554
11
3.24057
21
1.45504
0
LINE
8
BLACK
6
CONTINUOUS
10
3.24057
20
1.45504
11
3.24052
21
1.45499
0
LINE
8
BLACK
6
CONTINUOUS
10
3.24052
20
1.45499
11
3.23677
21
1.45311
0
LINE
8
BLACK
6
CONTINUOUS
10
3.23677
20
1.45311
11
3.23579
21
1.45282
0
LINE
8
BLACK
6
CONTINUOUS
10
3.23579
20
1.45282
11
3.23562
21
1.45286
0
LINE
8
BLACK
6
CONTINUOUS
10
3.23562
20
1.45286
11
3.23545
21
1.4528
0
LINE
8
BLACK
6
CONTINUOUS
10
3.23545
20
1.4528
11
3.23358
21
1.4528
0
LINE
8
BLACK
6
CONTINUOUS
10
3.23358
20
1.4528
11
3.23257
21
1.45298
0
LINE
8
BLACK
6
CONTINUOUS
10
3.23257
20
1.45298
11
3.23243
21
1.45309
0
LINE
8
BLACK
6
CONTINUOUS
10
3.23243
20
1.45309
11
3.23226
21
1.45311
0
LINE
8
BLACK
6
CONTINUOUS
10
3.23226
20
1.45311
11
3.22851
21
1.45499
0
LINE
8
BLACK
6
CONTINUOUS
10
3.22851
20
1.45499
11
3.2278
21
1.45552
0
LINE
8
BLACK
6
CONTINUOUS
10
3.2278
20
1.45552
11
3.22774
21
1.45554
0
LINE
8
BLACK
6
CONTINUOUS
10
3.22774
20
1.45554
11
3.22586
21
1.45742
0
LINE
8
BLACK
6
CONTINUOUS
10
3.22586
20
1.45742
11
3.22536
21
1.45814
0
LINE
8
BLACK
6
CONTINUOUS
10
3.22536
20
1.45814
11
3.22531
21
1.45818
0
LINE
8
BLACK
6
CONTINUOUS
10
3.22531
20
1.45818
11
3.22344
21
1.46193
0
LINE
8
BLACK
6
CONTINUOUS
10
3.22344
20
1.46193
11
3.22314
21
1.46292
0
LINE
8
BLACK
6
CONTINUOUS
10
3.22314
20
1.46292
11
3.22319
21
1.46309
0
LINE
8
BLACK
6
CONTINUOUS
10
3.22319
20
1.46309
11
3.22313
21
1.46325
0
LINE
8
BLACK
6
CONTINUOUS
10
3.22313
20
1.46325
11
3.22313
21
1.47075
0
LINE
8
BLACK
6
CONTINUOUS
10
3.22313
20
1.47075
11
3.2233
21
1.47176
0
LINE
8
BLACK
6
CONTINUOUS
10
3.2233
20
1.47176
11
3.22342
21
1.4719
0
LINE
8
BLACK
6
CONTINUOUS
10
3.22342
20
1.4719
11
3.22344
21
1.47207
0
LINE
8
BLACK
6
CONTINUOUS
10
3.22344
20
1.47207
11
3.22531
21
1.47582
0
LINE
8
BLACK
6
CONTINUOUS
10
3.22531
20
1.47582
11
3.22584
21
1.47653
0
LINE
8
BLACK
6
CONTINUOUS
10
3.22584
20
1.47653
11
3.22586
21
1.47659
0
LINE
8
BLACK
6
CONTINUOUS
10
3.22586
20
1.47659
11
3.22774
21
1.47847
0
LINE
8
BLACK
6
CONTINUOUS
10
3.22774
20
1.47847
11
3.22846
21
1.47897
0
LINE
8
BLACK
6
CONTINUOUS
10
3.22846
20
1.47897
11
3.22851
21
1.47902
0
LINE
8
BLACK
6
CONTINUOUS
10
3.22851
20
1.47902
11
3.23226
21
1.48089
0
LINE
8
BLACK
6
CONTINUOUS
10
3.23226
20
1.48089
11
3.23324
21
1.48119
0
LINE
8
BLACK
6
CONTINUOUS
10
3.23324
20
1.48119
11
3.23341
21
1.48115
0
LINE
8
BLACK
6
CONTINUOUS
10
3.23341
20
1.48115
11
3.23358
21
1.48121
0
LINE
8
BLACK
6
CONTINUOUS
10
3.23358
20
1.48121
11
3.23545
21
1.48121
0
LINE
8
BLACK
6
CONTINUOUS
10
3.23545
20
1.48121
11
3.23646
21
1.48103
0
LINE
8
BLACK
6
CONTINUOUS
10
3.25115
20
1.4753
11
3.24845
21
1.47395
0
LINE
8
BLACK
6
CONTINUOUS
10
3.24845
20
1.47395
11
3.24725
21
1.47275
0
LINE
8
BLACK
6
CONTINUOUS
10
3.24725
20
1.47275
11
3.2459
21
1.47006
0
LINE
8
BLACK
6
CONTINUOUS
10
3.2459
20
1.47006
11
3.2459
21
1.46395
0
LINE
8
BLACK
6
CONTINUOUS
10
3.2459
20
1.46395
11
3.24725
21
1.46125
0
LINE
8
BLACK
6
CONTINUOUS
10
3.24725
20
1.46125
11
3.24845
21
1.46006
0
LINE
8
BLACK
6
CONTINUOUS
10
3.24845
20
1.46006
11
3.25115
21
1.45871
0
LINE
8
BLACK
6
CONTINUOUS
10
3.25115
20
1.45871
11
3.25725
21
1.45871
0
LINE
8
BLACK
6
CONTINUOUS
10
3.25725
20
1.45871
11
3.25995
21
1.46006
0
LINE
8
BLACK
6
CONTINUOUS
10
3.25995
20
1.46006
11
3.26115
21
1.46125
0
LINE
8
BLACK
6
CONTINUOUS
10
3.26115
20
1.46125
11
3.2625
21
1.46395
0
LINE
8
BLACK
6
CONTINUOUS
10
3.2625
20
1.46395
11
3.2625
21
1.47006
0
LINE
8
BLACK
6
CONTINUOUS
10
3.2625
20
1.47006
11
3.26115
21
1.47275
0
LINE
8
BLACK
6
CONTINUOUS
10
3.26115
20
1.47275
11
3.25995
21
1.47395
0
LINE
8
BLACK
6
CONTINUOUS
10
3.25995
20
1.47395
11
3.25725
21
1.4753
0
LINE
8
BLACK
6
CONTINUOUS
10
3.25725
20
1.4753
11
3.25115
21
1.4753
0
LINE
8
BLACK
6
CONTINUOUS
10
3.23427
20
1.4753
11
3.23158
21
1.47395
0
LINE
8
BLACK
6
CONTINUOUS
10
3.23158
20
1.47395
11
3.23038
21
1.47275
0
LINE
8
BLACK
6
CONTINUOUS
10
3.23038
20
1.47275
11
3.22903
21
1.47006
0
LINE
8
BLACK
6
CONTINUOUS
10
3.22903
20
1.47006
11
3.22903
21
1.46395
0
LINE
8
BLACK
6
CONTINUOUS
10
3.22903
20
1.46395
11
3.23038
21
1.46125
0
LINE
8
BLACK
6
CONTINUOUS
10
3.23038
20
1.46125
11
3.23158
21
1.46006
0
LINE
8
BLACK
6
CONTINUOUS
10
3.23158
20
1.46006
11
3.23427
21
1.45871
0
LINE
8
BLACK
6
CONTINUOUS
10
3.23427
20
1.45871
11
3.23475
21
1.45871
0
LINE
8
BLACK
6
CONTINUOUS
10
3.23475
20
1.45871
11
3.23745
21
1.46006
0
LINE
8
BLACK
6
CONTINUOUS
10
3.23745
20
1.46006
11
3.23865
21
1.46125
0
LINE
8
BLACK
6
CONTINUOUS
10
3.23865
20
1.46125
11
3.24
21
1.46395
0
LINE
8
BLACK
6
CONTINUOUS
10
3.24
20
1.46395
11
3.24
21
1.47006
0
LINE
8
BLACK
6
CONTINUOUS
10
3.24
20
1.47006
11
3.23865
21
1.47275
0
LINE
8
BLACK
6
CONTINUOUS
10
3.23865
20
1.47275
11
3.23745
21
1.47395
0
LINE
8
BLACK
6
CONTINUOUS
10
3.23745
20
1.47395
11
3.23475
21
1.4753
0
LINE
8
BLACK
6
CONTINUOUS
10
3.23475
20
1.4753
11
3.23427
21
1.4753
0
LINE
8
BLACK
6
CONTINUOUS
10
3.25896
20
1.51852
11
3.25909
21
1.51841
0
LINE
8
BLACK
6
CONTINUOUS
10
3.25909
20
1.51841
11
3.25927
21
1.51839
0
LINE
8
BLACK
6
CONTINUOUS
10
3.25927
20
1.51839
11
3.26302
21
1.51651
0
LINE
8
BLACK
6
CONTINUOUS
10
3.26302
20
1.51651
11
3.26373
21
1.51599
0
LINE
8
BLACK
6
CONTINUOUS
10
3.26373
20
1.51599
11
3.26379
21
1.51596
0
LINE
8
BLACK
6
CONTINUOUS
10
3.26379
20
1.51596
11
3.26566
21
1.51409
0
LINE
8
BLACK
6
CONTINUOUS
10
3.26566
20
1.51409
11
3.26617
21
1.51336
0
LINE
8
BLACK
6
CONTINUOUS
10
3.26617
20
1.51336
11
3.26621
21
1.51332
0
LINE
8
BLACK
6
CONTINUOUS
10
3.26621
20
1.51332
11
3.26809
21
1.50957
0
LINE
8
BLACK
6
CONTINUOUS
10
3.26809
20
1.50957
11
3.26838
21
1.50859
0
LINE
8
BLACK
6
CONTINUOUS
10
3.26838
20
1.50859
11
3.26834
21
1.50841
0
LINE
8
BLACK
6
CONTINUOUS
10
3.26834
20
1.50841
11
3.2684
21
1.50825
0
LINE
8
BLACK
6
CONTINUOUS
10
3.2684
20
1.50825
11
3.2684
21
1.50075
0
LINE
8
BLACK
6
CONTINUOUS
10
3.2684
20
1.50075
11
3.26822
21
1.49974
0
LINE
8
BLACK
6
CONTINUOUS
10
3.26822
20
1.49974
11
3.26811
21
1.4996
0
LINE
8
BLACK
6
CONTINUOUS
10
3.26811
20
1.4996
11
3.26809
21
1.49943
0
LINE
8
BLACK
6
CONTINUOUS
10
3.26809
20
1.49943
11
3.26621
21
1.49568
0
LINE
8
BLACK
6
CONTINUOUS
10
3.26621
20
1.49568
11
3.26569
21
1.49497
0
LINE
8
BLACK
6
CONTINUOUS
10
3.26569
20
1.49497
11
3.26566
21
1.49491
0
LINE
8
BLACK
6
CONTINUOUS
10
3.26566
20
1.49491
11
3.26379
21
1.49304
0
LINE
8
BLACK
6
CONTINUOUS
10
3.26379
20
1.49304
11
3.26306
21
1.49253
0
LINE
8
BLACK
6
CONTINUOUS
10
3.26306
20
1.49253
11
3.26302
21
1.49248
0
LINE
8
BLACK
6
CONTINUOUS
10
3.26302
20
1.49248
11
3.25927
21
1.49061
0
LINE
8
BLACK
6
CONTINUOUS
10
3.25927
20
1.49061
11
3.25829
21
1.49032
0
LINE
8
BLACK
6
CONTINUOUS
10
3.25829
20
1.49032
11
3.25811
21
1.49036
0
LINE
8
BLACK
6
CONTINUOUS
10
3.25811
20
1.49036
11
3.25795
21
1.4903
0
LINE
8
BLACK
6
CONTINUOUS
10
3.25795
20
1.4903
11
3.24295
21
1.4903
0
LINE
8
BLACK
6
CONTINUOUS
10
3.24295
20
1.4903
11
3.24237
21
1.4904
0
LINE
8
BLACK
6
CONTINUOUS
10
3.24237
20
1.4904
11
3.24223
21
1.49039
0
LINE
8
BLACK
6
CONTINUOUS
10
3.24223
20
1.49039
11
3.23474
21
1.49226
0
LINE
8
BLACK
6
CONTINUOUS
10
3.23474
20
1.49226
11
3.23383
21
1.49266
0
LINE
8
BLACK
6
CONTINUOUS
10
3.23383
20
1.49266
11
3.23381
21
1.49267
0
LINE
8
BLACK
6
CONTINUOUS
10
3.23381
20
1.49267
11
3.22819
21
1.49642
0
LINE
8
BLACK
6
CONTINUOUS
10
3.22819
20
1.49642
11
3.22786
21
1.49673
0
LINE
8
BLACK
6
CONTINUOUS
10
3.22786
20
1.49673
11
3.22774
21
1.49679
0
LINE
8
BLACK
6
CONTINUOUS
10
3.22774
20
1.49679
11
3.22586
21
1.49866
0
LINE
8
BLACK
6
CONTINUOUS
10
3.22586
20
1.49866
11
3.22536
21
1.49938
0
LINE
8
BLACK
6
CONTINUOUS
10
3.22536
20
1.49938
11
3.22531
21
1.49943
0
LINE
8
BLACK
6
CONTINUOUS
10
3.22531
20
1.49943
11
3.22344
21
1.50318
0
LINE
8
BLACK
6
CONTINUOUS
10
3.22344
20
1.50318
11
3.22314
21
1.50416
0
LINE
8
BLACK
6
CONTINUOUS
10
3.22314
20
1.50416
11
3.22319
21
1.50433
0
LINE
8
BLACK
6
CONTINUOUS
10
3.22319
20
1.50433
11
3.22313
21
1.5045
0
LINE
8
BLACK
6
CONTINUOUS
10
3.22313
20
1.5045
11
3.22313
21
1.512
0
LINE
8
BLACK
6
CONTINUOUS
10
3.22313
20
1.512
11
3.2233
21
1.51301
0
LINE
8
BLACK
6
CONTINUOUS
10
3.2233
20
1.51301
11
3.2246
21
1.51456
0
LINE
8
BLACK
6
CONTINUOUS
10
3.2246
20
1.51456
11
3.22659
21
1.51491
0
LINE
8
BLACK
6
CONTINUOUS
10
3.22659
20
1.51491
11
3.22834
21
1.5139
0
LINE
8
BLACK
6
CONTINUOUS
10
3.22834
20
1.5139
11
3.22903
21
1.512
0
LINE
8
BLACK
6
CONTINUOUS
10
3.22903
20
1.512
11
3.22903
21
1.5052
0
LINE
8
BLACK
6
CONTINUOUS
10
3.22903
20
1.5052
11
3.23038
21
1.5025
0
LINE
8
BLACK
6
CONTINUOUS
10
3.23038
20
1.5025
11
3.23171
21
1.50117
0
LINE
8
BLACK
6
CONTINUOUS
10
3.23171
20
1.50117
11
3.23666
21
1.49787
0
LINE
8
BLACK
6
CONTINUOUS
10
3.23666
20
1.49787
11
3.23958
21
1.49714
0
LINE
8
BLACK
6
CONTINUOUS
10
3.23958
20
1.49714
11
3.23844
21
1.49943
0
LINE
8
BLACK
6
CONTINUOUS
10
3.23844
20
1.49943
11
3.23814
21
1.50041
0
LINE
8
BLACK
6
CONTINUOUS
10
3.23814
20
1.50041
11
3.23818
21
1.50058
0
LINE
8
BLACK
6
CONTINUOUS
10
3.23818
20
1.50058
11
3.23812
21
1.50075
0
LINE
8
BLACK
6
CONTINUOUS
10
3.23812
20
1.50075
11
3.23812
21
1.50825
0
LINE
8
BLACK
6
CONTINUOUS
10
3.23812
20
1.50825
11
3.2383
21
1.50926
0
LINE
8
BLACK
6
CONTINUOUS
10
3.2383
20
1.50926
11
3.23841
21
1.50939
0
LINE
8
BLACK
6
CONTINUOUS
10
3.23841
20
1.50939
11
3.23844
21
1.50957
0
LINE
8
BLACK
6
CONTINUOUS
10
3.23844
20
1.50957
11
3.24031
21
1.51332
0
LINE
8
BLACK
6
CONTINUOUS
10
3.24031
20
1.51332
11
3.24084
21
1.51403
0
LINE
8
BLACK
6
CONTINUOUS
10
3.24084
20
1.51403
11
3.24086
21
1.51409
0
LINE
8
BLACK
6
CONTINUOUS
10
3.24086
20
1.51409
11
3.24274
21
1.51596
0
LINE
8
BLACK
6
CONTINUOUS
10
3.24274
20
1.51596
11
3.24346
21
1.51647
0
LINE
8
BLACK
6
CONTINUOUS
10
3.24346
20
1.51647
11
3.24351
21
1.51651
0
LINE
8
BLACK
6
CONTINUOUS
10
3.24351
20
1.51651
11
3.24725
21
1.51839
0
LINE
8
BLACK
6
CONTINUOUS
10
3.24725
20
1.51839
11
3.24824
21
1.51868
0
LINE
8
BLACK
6
CONTINUOUS
10
3.24824
20
1.51868
11
3.24841
21
1.51864
0
LINE
8
BLACK
6
CONTINUOUS
10
3.24841
20
1.51864
11
3.24858
21
1.5187
0
LINE
8
BLACK
6
CONTINUOUS
10
3.24858
20
1.5187
11
3.25795
21
1.5187
0
LINE
8
BLACK
6
CONTINUOUS
10
3.25795
20
1.5187
11
3.25896
21
1.51852
0
LINE
8
BLACK
6
CONTINUOUS
10
3.24927
20
1.5128
11
3.24657
21
1.51145
0
LINE
8
BLACK
6
CONTINUOUS
10
3.24657
20
1.51145
11
3.24538
21
1.51025
0
LINE
8
BLACK
6
CONTINUOUS
10
3.24538
20
1.51025
11
3.24403
21
1.50755
0
LINE
8
BLACK
6
CONTINUOUS
10
3.24403
20
1.50755
11
3.24403
21
1.50145
0
LINE
8
BLACK
6
CONTINUOUS
10
3.24403
20
1.50145
11
3.24538
21
1.49875
0
LINE
8
BLACK
6
CONTINUOUS
10
3.24538
20
1.49875
11
3.24657
21
1.49755
0
LINE
8
BLACK
6
CONTINUOUS
10
3.24657
20
1.49755
11
3.24927
21
1.4962
0
LINE
8
BLACK
6
CONTINUOUS
10
3.24927
20
1.4962
11
3.25725
21
1.4962
0
LINE
8
BLACK
6
CONTINUOUS
10
3.25725
20
1.4962
11
3.25995
21
1.49755
0
LINE
8
BLACK
6
CONTINUOUS
10
3.25995
20
1.49755
11
3.26115
21
1.49875
0
LINE
8
BLACK
6
CONTINUOUS
10
3.26115
20
1.49875
11
3.2625
21
1.50145
0
LINE
8
BLACK
6
CONTINUOUS
10
3.2625
20
1.50145
11
3.2625
21
1.50755
0
LINE
8
BLACK
6
CONTINUOUS
10
3.2625
20
1.50755
11
3.26115
21
1.51025
0
LINE
8
BLACK
6
CONTINUOUS
10
3.26115
20
1.51025
11
3.25995
21
1.51145
0
LINE
8
BLACK
6
CONTINUOUS
10
3.25995
20
1.51145
11
3.25725
21
1.5128
0
LINE
8
BLACK
6
CONTINUOUS
10
3.25725
20
1.5128
11
3.24927
21
1.5128
0
LINE
8
BLACK
6
CONTINUOUS
10
3.00132
20
1.53121
11
3.00146
21
1.5311
0
LINE
8
BLACK
6
CONTINUOUS
10
3.00146
20
1.5311
11
3.00163
21
1.53108
0
LINE
8
BLACK
6
CONTINUOUS
10
3.00163
20
1.53108
11
3.00538
21
1.52921
0
LINE
8
BLACK
6
CONTINUOUS
10
3.00538
20
1.52921
11
3.00609
21
1.52868
0
LINE
8
BLACK
6
CONTINUOUS
10
3.00609
20
1.52868
11
3.00615
21
1.52865
0
LINE
8
BLACK
6
CONTINUOUS
10
3.00615
20
1.52865
11
3.00802
21
1.52678
0
LINE
8
BLACK
6
CONTINUOUS
10
3.00802
20
1.52678
11
3.00853
21
1.52606
0
LINE
8
BLACK
6
CONTINUOUS
10
3.00853
20
1.52606
11
3.00858
21
1.52601
0
LINE
8
BLACK
6
CONTINUOUS
10
3.00858
20
1.52601
11
3.01045
21
1.52226
0
LINE
8
BLACK
6
CONTINUOUS
10
3.01045
20
1.52226
11
3.01074
21
1.52128
0
LINE
8
BLACK
6
CONTINUOUS
10
3.01074
20
1.52128
11
3.0107
21
1.52111
0
LINE
8
BLACK
6
CONTINUOUS
10
3.0107
20
1.52111
11
3.01076
21
1.52094
0
LINE
8
BLACK
6
CONTINUOUS
10
3.01076
20
1.52094
11
3.01076
21
1.50594
0
LINE
8
BLACK
6
CONTINUOUS
10
3.01076
20
1.50594
11
3.0107
21
1.50556
0
LINE
8
BLACK
6
CONTINUOUS
10
3.0107
20
1.50556
11
3.01072
21
1.50543
0
LINE
8
BLACK
6
CONTINUOUS
10
3.01072
20
1.50543
11
3.01065
21
1.50532
0
LINE
8
BLACK
6
CONTINUOUS
10
3.01065
20
1.50532
11
3.01058
21
1.50493
0
LINE
8
BLACK
6
CONTINUOUS
10
3.01058
20
1.50493
11
3.01009
21
1.50435
0
LINE
8
BLACK
6
CONTINUOUS
10
3.01009
20
1.50435
11
3.00971
21
1.50368
0
LINE
8
BLACK
6
CONTINUOUS
10
3.00971
20
1.50368
11
3.00946
21
1.50359
0
LINE
8
BLACK
6
CONTINUOUS
10
3.00946
20
1.50359
11
3.00929
21
1.50339
0
LINE
8
BLACK
6
CONTINUOUS
10
3.00929
20
1.50339
11
3.00853
21
1.50325
0
LINE
8
BLACK
6
CONTINUOUS
10
3.00853
20
1.50325
11
3.00781
21
1.50299
0
LINE
8
BLACK
6
CONTINUOUS
10
3.00781
20
1.50299
11
2.96844
21
1.50299
0
LINE
8
BLACK
6
CONTINUOUS
10
2.96844
20
1.50299
11
2.96806
21
1.50306
0
LINE
8
BLACK
6
CONTINUOUS
10
2.96806
20
1.50306
11
2.96793
21
1.50304
0
LINE
8
BLACK
6
CONTINUOUS
10
2.96793
20
1.50304
11
2.96781
21
1.5031
0
LINE
8
BLACK
6
CONTINUOUS
10
2.96781
20
1.5031
11
2.96743
21
1.50317
0
LINE
8
BLACK
6
CONTINUOUS
10
2.96743
20
1.50317
11
2.96684
21
1.50366
0
LINE
8
BLACK
6
CONTINUOUS
10
2.96684
20
1.50366
11
2.96618
21
1.50405
0
LINE
8
BLACK
6
CONTINUOUS
10
2.96618
20
1.50405
11
2.96609
21
1.5043
0
LINE
8
BLACK
6
CONTINUOUS
10
2.96609
20
1.5043
11
2.96588
21
1.50447
0
LINE
8
BLACK
6
CONTINUOUS
10
2.96588
20
1.50447
11
2.96575
21
1.50522
0
LINE
8
BLACK
6
CONTINUOUS
10
2.96575
20
1.50522
11
2.96549
21
1.50594
0
LINE
8
BLACK
6
CONTINUOUS
10
2.96549
20
1.50594
11
2.96549
21
1.51907
0
LINE
8
BLACK
6
CONTINUOUS
10
2.96549
20
1.51907
11
2.96567
21
1.52008
0
LINE
8
BLACK
6
CONTINUOUS
10
2.96567
20
1.52008
11
2.96578
21
1.52021
0
LINE
8
BLACK
6
CONTINUOUS
10
2.96578
20
1.52021
11
2.9658
21
1.52039
0
LINE
8
BLACK
6
CONTINUOUS
10
2.9658
20
1.52039
11
2.96767
21
1.52414
0
LINE
8
BLACK
6
CONTINUOUS
10
2.96767
20
1.52414
11
2.9682
21
1.52485
0
LINE
8
BLACK
6
CONTINUOUS
10
2.9682
20
1.52485
11
2.96823
21
1.5249
0
LINE
8
BLACK
6
CONTINUOUS
10
2.96823
20
1.5249
11
2.9701
21
1.52678
0
LINE
8
BLACK
6
CONTINUOUS
10
2.9701
20
1.52678
11
2.97082
21
1.52728
0
LINE
8
BLACK
6
CONTINUOUS
10
2.97082
20
1.52728
11
2.97087
21
1.52733
0
LINE
8
BLACK
6
CONTINUOUS
10
2.97087
20
1.52733
11
2.97462
21
1.52921
0
LINE
8
BLACK
6
CONTINUOUS
10
2.97462
20
1.52921
11
2.9756
21
1.5295
0
LINE
8
BLACK
6
CONTINUOUS
10
2.9756
20
1.5295
11
2.97577
21
1.52946
0
LINE
8
BLACK
6
CONTINUOUS
10
2.97577
20
1.52946
11
2.97594
21
1.52952
0
LINE
8
BLACK
6
CONTINUOUS
10
2.97594
20
1.52952
11
2.97969
21
1.52952
0
LINE
8
BLACK
6
CONTINUOUS
10
2.97969
20
1.52952
11
2.9807
21
1.52934
0
LINE
8
BLACK
6
CONTINUOUS
10
2.9807
20
1.52934
11
2.98083
21
1.52923
0
LINE
8
BLACK
6
CONTINUOUS
10
2.98083
20
1.52923
11
2.98101
21
1.52921
0
LINE
8
BLACK
6
CONTINUOUS
10
2.98101
20
1.52921
11
2.98476
21
1.52733
0
LINE
8
BLACK
6
CONTINUOUS
10
2.98476
20
1.52733
11
2.98547
21
1.52681
0
LINE
8
BLACK
6
CONTINUOUS
10
2.98547
20
1.52681
11
2.98553
21
1.52678
0
LINE
8
BLACK
6
CONTINUOUS
10
2.98553
20
1.52678
11
2.98641
21
1.5259
0
LINE
8
BLACK
6
CONTINUOUS
10
2.98641
20
1.5259
11
2.98675
21
1.52653
0
LINE
8
BLACK
6
CONTINUOUS
10
2.98675
20
1.52653
11
2.9869
21
1.52662
0
LINE
8
BLACK
6
CONTINUOUS
10
2.9869
20
1.52662
11
2.98697
21
1.52678
0
LINE
8
BLACK
6
CONTINUOUS
10
2.98697
20
1.52678
11
2.98885
21
1.52865
0
LINE
8
BLACK
6
CONTINUOUS
10
2.98885
20
1.52865
11
2.98957
21
1.52916
0
LINE
8
BLACK
6
CONTINUOUS
10
2.98957
20
1.52916
11
2.98962
21
1.52921
0
LINE
8
BLACK
6
CONTINUOUS
10
2.98962
20
1.52921
11
2.99337
21
1.53108
0
LINE
8
BLACK
6
CONTINUOUS
10
2.99337
20
1.53108
11
2.99435
21
1.53137
0
LINE
8
BLACK
6
CONTINUOUS
10
2.99435
20
1.53137
11
2.99452
21
1.53133
0
LINE
8
BLACK
6
CONTINUOUS
10
2.99452
20
1.53133
11
2.99469
21
1.53139
0
LINE
8
BLACK
6
CONTINUOUS
10
2.99469
20
1.53139
11
3.00031
21
1.53139
0
LINE
8
BLACK
6
CONTINUOUS
10
3.00031
20
1.53139
11
3.00132
21
1.53121
0
LINE
8
BLACK
6
CONTINUOUS
10
2.97664
20
1.52361
11
2.97394
21
1.52226
0
LINE
8
BLACK
6
CONTINUOUS
10
2.97394
20
1.52226
11
2.97274
21
1.52107
0
LINE
8
BLACK
6
CONTINUOUS
10
2.97274
20
1.52107
11
2.97139
21
1.51837
0
LINE
8
BLACK
6
CONTINUOUS
10
2.97139
20
1.51837
11
2.97139
21
1.5089
0
LINE
8
BLACK
6
CONTINUOUS
10
2.97139
20
1.5089
11
2.98424
21
1.5089
0
LINE
8
BLACK
6
CONTINUOUS
10
2.98424
20
1.5089
11
2.98424
21
1.51837
0
LINE
8
BLACK
6
CONTINUOUS
10
2.98424
20
1.51837
11
2.98289
21
1.52107
0
LINE
8
BLACK
6
CONTINUOUS
10
2.98289
20
1.52107
11
2.98169
21
1.52226
0
LINE
8
BLACK
6
CONTINUOUS
10
2.98169
20
1.52226
11
2.97899
21
1.52361
0
LINE
8
BLACK
6
CONTINUOUS
10
2.97899
20
1.52361
11
2.97664
21
1.52361
0
LINE
8
BLACK
6
CONTINUOUS
10
2.99538
20
1.52549
11
2.99269
21
1.52414
0
LINE
8
BLACK
6
CONTINUOUS
10
2.99269
20
1.52414
11
2.99164
21
1.5231
0
LINE
8
BLACK
6
CONTINUOUS
10
2.99164
20
1.5231
11
2.99014
21
1.51859
0
LINE
8
BLACK
6
CONTINUOUS
10
2.99014
20
1.51859
11
2.99014
21
1.5089
0
LINE
8
BLACK
6
CONTINUOUS
10
2.99014
20
1.5089
11
3.00486
21
1.5089
0
LINE
8
BLACK
6
CONTINUOUS
10
3.00486
20
1.5089
11
3.00486
21
1.52024
0
LINE
8
BLACK
6
CONTINUOUS
10
3.00486
20
1.52024
11
3.00351
21
1.52294
0
LINE
8
BLACK
6
CONTINUOUS
10
3.00351
20
1.52294
11
3.00231
21
1.52414
0
LINE
8
BLACK
6
CONTINUOUS
10
3.00231
20
1.52414
11
2.99961
21
1.52549
0
LINE
8
BLACK
6
CONTINUOUS
10
2.99961
20
1.52549
11
2.99538
21
1.52549
0
LINE
8
BLACK
6
CONTINUOUS
10
3.25896
20
1.55602
11
3.25909
21
1.5559
0
LINE
8
BLACK
6
CONTINUOUS
10
3.25909
20
1.5559
11
3.25927
21
1.55588
0
LINE
8
BLACK
6
CONTINUOUS
10
3.25927
20
1.55588
11
3.26302
21
1.55401
0
LINE
8
BLACK
6
CONTINUOUS
10
3.26302
20
1.55401
11
3.26373
21
1.55348
0
LINE
8
BLACK
6
CONTINUOUS
10
3.26373
20
1.55348
11
3.26379
21
1.55346
0
LINE
8
BLACK
6
CONTINUOUS
10
3.26379
20
1.55346
11
3.26566
21
1.55158
0
LINE
8
BLACK
6
CONTINUOUS
10
3.26566
20
1.55158
11
3.26617
21
1.55086
0
LINE
8
BLACK
6
CONTINUOUS
10
3.26617
20
1.55086
11
3.26621
21
1.55081
0
LINE
8
BLACK
6
CONTINUOUS
10
3.26621
20
1.55081
11
3.26809
21
1.54706
0
LINE
8
BLACK
6
CONTINUOUS
10
3.26809
20
1.54706
11
3.26838
21
1.54608
0
LINE
8
BLACK
6
CONTINUOUS
10
3.26838
20
1.54608
11
3.26834
21
1.54591
0
LINE
8
BLACK
6
CONTINUOUS
10
3.26834
20
1.54591
11
3.2684
21
1.54574
0
LINE
8
BLACK
6
CONTINUOUS
10
3.2684
20
1.54574
11
3.2684
21
1.53637
0
LINE
8
BLACK
6
CONTINUOUS
10
3.2684
20
1.53637
11
3.26822
21
1.53536
0
LINE
8
BLACK
6
CONTINUOUS
10
3.26822
20
1.53536
11
3.26811
21
1.53523
0
LINE
8
BLACK
6
CONTINUOUS
10
3.26811
20
1.53523
11
3.26809
21
1.53505
0
LINE
8
BLACK
6
CONTINUOUS
10
3.26809
20
1.53505
11
3.26621
21
1.5313
0
LINE
8
BLACK
6
CONTINUOUS
10
3.26621
20
1.5313
11
3.26569
21
1.53059
0
LINE
8
BLACK
6
CONTINUOUS
10
3.26569
20
1.53059
11
3.26566
21
1.53053
0
LINE
8
BLACK
6
CONTINUOUS
10
3.26566
20
1.53053
11
3.26379
21
1.52866
0
LINE
8
BLACK
6
CONTINUOUS
10
3.26379
20
1.52866
11
3.26295
21
1.52807
0
LINE
8
BLACK
6
CONTINUOUS
10
3.26295
20
1.52807
11
3.26093
21
1.52789
0
LINE
8
BLACK
6
CONTINUOUS
10
3.26093
20
1.52789
11
3.25928
21
1.52905
0
LINE
8
BLACK
6
CONTINUOUS
10
3.25928
20
1.52905
11
3.25876
21
1.531
0
LINE
8
BLACK
6
CONTINUOUS
10
3.25876
20
1.531
11
3.25961
21
1.53283
0
LINE
8
BLACK
6
CONTINUOUS
10
3.25961
20
1.53283
11
3.26115
21
1.53437
0
LINE
8
BLACK
6
CONTINUOUS
10
3.26115
20
1.53437
11
3.2625
21
1.53707
0
LINE
8
BLACK
6
CONTINUOUS
10
3.2625
20
1.53707
11
3.2625
21
1.54505
0
LINE
8
BLACK
6
CONTINUOUS
10
3.2625
20
1.54505
11
3.26115
21
1.54774
0
LINE
8
BLACK
6
CONTINUOUS
10
3.26115
20
1.54774
11
3.25995
21
1.54894
0
LINE
8
BLACK
6
CONTINUOUS
10
3.25995
20
1.54894
11
3.25725
21
1.55029
0
LINE
8
BLACK
6
CONTINUOUS
10
3.25725
20
1.55029
11
3.24927
21
1.55029
0
LINE
8
BLACK
6
CONTINUOUS
10
3.24927
20
1.55029
11
3.24657
21
1.54894
0
LINE
8
BLACK
6
CONTINUOUS
10
3.24657
20
1.54894
11
3.24538
21
1.54774
0
LINE
8
BLACK
6
CONTINUOUS
10
3.24538
20
1.54774
11
3.24403
21
1.54505
0
LINE
8
BLACK
6
CONTINUOUS
10
3.24403
20
1.54505
11
3.24403
21
1.53707
0
LINE
8
BLACK
6
CONTINUOUS
10
3.24403
20
1.53707
11
3.24538
21
1.53437
0
LINE
8
BLACK
6
CONTINUOUS
10
3.24538
20
1.53437
11
3.24691
21
1.53283
0
LINE
8
BLACK
6
CONTINUOUS
10
3.24691
20
1.53283
11
3.2475
21
1.53199
0
LINE
8
BLACK
6
CONTINUOUS
10
3.2475
20
1.53199
11
3.2475
21
1.53197
0
LINE
8
BLACK
6
CONTINUOUS
10
3.2475
20
1.53197
11
3.24752
21
1.53196
0
LINE
8
BLACK
6
CONTINUOUS
10
3.24752
20
1.53196
11
3.24759
21
1.53097
0
LINE
8
BLACK
6
CONTINUOUS
10
3.24759
20
1.53097
11
3.24768
21
1.52998
0
LINE
8
BLACK
6
CONTINUOUS
10
3.24768
20
1.52998
11
3.24767
21
1.52997
0
LINE
8
BLACK
6
CONTINUOUS
10
3.24767
20
1.52997
11
3.24767
21
1.52995
0
LINE
8
BLACK
6
CONTINUOUS
10
3.24767
20
1.52995
11
3.24709
21
1.52914
0
LINE
8
BLACK
6
CONTINUOUS
10
3.24709
20
1.52914
11
3.24652
21
1.52833
0
LINE
8
BLACK
6
CONTINUOUS
10
3.24652
20
1.52833
11
3.2465
21
1.52832
0
LINE
8
BLACK
6
CONTINUOUS
10
3.2465
20
1.52832
11
3.24649
21
1.52831
0
LINE
8
BLACK
6
CONTINUOUS
10
3.24649
20
1.52831
11
3.24553
21
1.52806
0
LINE
8
BLACK
6
CONTINUOUS
10
3.24553
20
1.52806
11
3.24457
21
1.5278
0
LINE
8
BLACK
6
CONTINUOUS
10
3.24457
20
1.5278
11
3.24455
21
1.52781
0
LINE
8
BLACK
6
CONTINUOUS
10
3.24455
20
1.52781
11
3.24453
21
1.52781
0
LINE
8
BLACK
6
CONTINUOUS
10
3.24453
20
1.52781
11
3.22578
21
1.52968
0
LINE
8
BLACK
6
CONTINUOUS
10
3.22578
20
1.52968
11
3.22563
21
1.52973
0
LINE
8
BLACK
6
CONTINUOUS
10
3.22563
20
1.52973
11
3.22557
21
1.52971
0
LINE
8
BLACK
6
CONTINUOUS
10
3.22557
20
1.52971
11
3.22546
21
1.52977
0
LINE
8
BLACK
6
CONTINUOUS
10
3.22546
20
1.52977
11
3.2248
21
1.52996
0
LINE
8
BLACK
6
CONTINUOUS
10
3.2248
20
1.52996
11
3.22436
21
1.53041
0
LINE
8
BLACK
6
CONTINUOUS
10
3.22436
20
1.53041
11
3.22382
21
1.53072
0
LINE
8
BLACK
6
CONTINUOUS
10
3.22382
20
1.53072
11
3.22367
21
1.53111
0
LINE
8
BLACK
6
CONTINUOUS
10
3.22367
20
1.53111
11
3.22339
21
1.53141
0
LINE
8
BLACK
6
CONTINUOUS
10
3.22339
20
1.53141
11
3.22334
21
1.53203
0
LINE
8
BLACK
6
CONTINUOUS
10
3.22334
20
1.53203
11
3.22313
21
1.53262
0
LINE
8
BLACK
6
CONTINUOUS
10
3.22313
20
1.53262
11
3.22313
21
1.55137
0
LINE
8
BLACK
6
CONTINUOUS
10
3.22313
20
1.55137
11
3.2233
21
1.55238
0
LINE
8
BLACK
6
CONTINUOUS
10
3.2233
20
1.55238
11
3.2246
21
1.55393
0
LINE
8
BLACK
6
CONTINUOUS
10
3.2246
20
1.55393
11
3.22659
21
1.55428
0
LINE
8
BLACK
6
CONTINUOUS
10
3.22659
20
1.55428
11
3.22834
21
1.55327
0
LINE
8
BLACK
6
CONTINUOUS
10
3.22834
20
1.55327
11
3.22903
21
1.55137
0
LINE
8
BLACK
6
CONTINUOUS
10
3.22903
20
1.55137
11
3.22903
21
1.53529
0
LINE
8
BLACK
6
CONTINUOUS
10
3.22903
20
1.53529
11
3.2388
21
1.53432
0
LINE
8
BLACK
6
CONTINUOUS
10
3.2388
20
1.53432
11
3.23844
21
1.53505
0
LINE
8
BLACK
6
CONTINUOUS
10
3.23844
20
1.53505
11
3.23814
21
1.53603
0
LINE
8
BLACK
6
CONTINUOUS
10
3.23814
20
1.53603
11
3.23818
21
1.5362
0
LINE
8
BLACK
6
CONTINUOUS
10
3.23818
20
1.5362
11
3.23812
21
1.53637
0
LINE
8
BLACK
6
CONTINUOUS
10
3.23812
20
1.53637
11
3.23812
21
1.54574
0
LINE
8
BLACK
6
CONTINUOUS
10
3.23812
20
1.54574
11
3.2383
21
1.54675
0
LINE
8
BLACK
6
CONTINUOUS
10
3.2383
20
1.54675
11
3.23841
21
1.54689
0
LINE
8
BLACK
6
CONTINUOUS
10
3.23841
20
1.54689
11
3.23844
21
1.54706
0
LINE
8
BLACK
6
CONTINUOUS
10
3.23844
20
1.54706
11
3.24031
21
1.55081
0
LINE
8
BLACK
6
CONTINUOUS
10
3.24031
20
1.55081
11
3.24084
21
1.55152
0
LINE
8
BLACK
6
CONTINUOUS
10
3.24084
20
1.55152
11
3.24086
21
1.55158
0
LINE
8
BLACK
6
CONTINUOUS
10
3.24086
20
1.55158
11
3.24274
21
1.55346
0
LINE
8
BLACK
6
CONTINUOUS
10
3.24274
20
1.55346
11
3.24346
21
1.55396
0
LINE
8
BLACK
6
CONTINUOUS
10
3.24346
20
1.55396
11
3.24351
21
1.55401
0
LINE
8
BLACK
6
CONTINUOUS
10
3.24351
20
1.55401
11
3.24725
21
1.55588
0
LINE
8
BLACK
6
CONTINUOUS
10
3.24725
20
1.55588
11
3.24824
21
1.55618
0
LINE
8
BLACK
6
CONTINUOUS
10
3.24824
20
1.55618
11
3.24841
21
1.55614
0
LINE
8
BLACK
6
CONTINUOUS
10
3.24841
20
1.55614
11
3.24858
21
1.5562
0
LINE
8
BLACK
6
CONTINUOUS
10
3.24858
20
1.5562
11
3.25795
21
1.5562
0
LINE
8
BLACK
6
CONTINUOUS
10
3.25795
20
1.5562
11
3.25896
21
1.55602
0
LINE
8
BLACK
6
CONTINUOUS
10
2.9707
20
1.56408
11
2.97139
21
1.56219
0
LINE
8
BLACK
6
CONTINUOUS
10
2.97139
20
1.56219
11
2.97139
21
1.55389
0
LINE
8
BLACK
6
CONTINUOUS
10
2.97139
20
1.55389
11
3.00781
21
1.55389
0
LINE
8
BLACK
6
CONTINUOUS
10
3.00781
20
1.55389
11
3.00882
21
1.55371
0
LINE
8
BLACK
6
CONTINUOUS
10
3.00882
20
1.55371
11
3.01037
21
1.55241
0
LINE
8
BLACK
6
CONTINUOUS
10
3.01037
20
1.55241
11
3.01072
21
1.55042
0
LINE
8
BLACK
6
CONTINUOUS
10
3.01072
20
1.55042
11
3.00971
21
1.54868
0
LINE
8
BLACK
6
CONTINUOUS
10
3.00971
20
1.54868
11
3.00781
21
1.54798
0
LINE
8
BLACK
6
CONTINUOUS
10
3.00781
20
1.54798
11
2.97139
21
1.54798
0
LINE
8
BLACK
6
CONTINUOUS
10
2.97139
20
1.54798
11
2.97139
21
1.53969
0
LINE
8
BLACK
6
CONTINUOUS
10
2.97139
20
1.53969
11
2.97121
21
1.53868
0
LINE
8
BLACK
6
CONTINUOUS
10
2.97121
20
1.53868
11
2.96992
21
1.53713
0
LINE
8
BLACK
6
CONTINUOUS
10
2.96992
20
1.53713
11
2.96793
21
1.53678
0
LINE
8
BLACK
6
CONTINUOUS
10
2.96793
20
1.53678
11
2.96618
21
1.53779
0
LINE
8
BLACK
6
CONTINUOUS
10
2.96618
20
1.53779
11
2.96549
21
1.53969
0
LINE
8
BLACK
6
CONTINUOUS
10
2.96549
20
1.53969
11
2.96549
21
1.56219
0
LINE
8
BLACK
6
CONTINUOUS
10
2.96549
20
1.56219
11
2.96567
21
1.5632
0
LINE
8
BLACK
6
CONTINUOUS
10
2.96567
20
1.5632
11
2.96696
21
1.56474
0
LINE
8
BLACK
6
CONTINUOUS
10
2.96696
20
1.56474
11
2.96895
21
1.56509
0
LINE
8
BLACK
6
CONTINUOUS
10
2.96895
20
1.56509
11
2.9707
21
1.56408
0
LINE
8
BLACK
6
CONTINUOUS
10
3.25103
20
1.59359
11
3.25117
21
1.5936
0
LINE
8
BLACK
6
CONTINUOUS
10
3.25117
20
1.5936
11
3.25867
21
1.59173
0
LINE
8
BLACK
6
CONTINUOUS
10
3.25867
20
1.59173
11
3.25913
21
1.59152
0
LINE
8
BLACK
6
CONTINUOUS
10
3.25913
20
1.59152
11
3.25927
21
1.5915
0
LINE
8
BLACK
6
CONTINUOUS
10
3.25927
20
1.5915
11
3.26302
21
1.58963
0
LINE
8
BLACK
6
CONTINUOUS
10
3.26302
20
1.58963
11
3.26373
21
1.5891
0
LINE
8
BLACK
6
CONTINUOUS
10
3.26373
20
1.5891
11
3.26379
21
1.58908
0
LINE
8
BLACK
6
CONTINUOUS
10
3.26379
20
1.58908
11
3.26566
21
1.5872
0
LINE
8
BLACK
6
CONTINUOUS
10
3.26566
20
1.5872
11
3.26617
21
1.58648
0
LINE
8
BLACK
6
CONTINUOUS
10
3.26617
20
1.58648
11
3.26621
21
1.58643
0
LINE
8
BLACK
6
CONTINUOUS
10
3.26621
20
1.58643
11
3.26809
21
1.58269
0
LINE
8
BLACK
6
CONTINUOUS
10
3.26809
20
1.58269
11
3.26838
21
1.5817
0
LINE
8
BLACK
6
CONTINUOUS
10
3.26838
20
1.5817
11
3.26834
21
1.58153
0
LINE
8
BLACK
6
CONTINUOUS
10
3.26834
20
1.58153
11
3.2684
21
1.58136
0
LINE
8
BLACK
6
CONTINUOUS
10
3.2684
20
1.58136
11
3.2684
21
1.57762
0
LINE
8
BLACK
6
CONTINUOUS
10
3.2684
20
1.57762
11
3.26822
21
1.57661
0
LINE
8
BLACK
6
CONTINUOUS
10
3.26822
20
1.57661
11
3.26811
21
1.57647
0
LINE
8
BLACK
6
CONTINUOUS
10
3.26811
20
1.57647
11
3.26809
21
1.57629
0
LINE
8
BLACK
6
CONTINUOUS
10
3.26809
20
1.57629
11
3.26621
21
1.57255
0
LINE
8
BLACK
6
CONTINUOUS
10
3.26621
20
1.57255
11
3.26569
21
1.57184
0
LINE
8
BLACK
6
CONTINUOUS
10
3.26569
20
1.57184
11
3.26566
21
1.57178
0
LINE
8
BLACK
6
CONTINUOUS
10
3.26566
20
1.57178
11
3.26379
21
1.5699
0
LINE
8
BLACK
6
CONTINUOUS
10
3.26379
20
1.5699
11
3.26306
21
1.5694
0
LINE
8
BLACK
6
CONTINUOUS
10
3.26306
20
1.5694
11
3.26302
21
1.56935
0
LINE
8
BLACK
6
CONTINUOUS
10
3.26302
20
1.56935
11
3.25927
21
1.56748
0
LINE
8
BLACK
6
CONTINUOUS
10
3.25927
20
1.56748
11
3.25878
21
1.56733
0
LINE
8
BLACK
6
CONTINUOUS
10
3.25878
20
1.56733
11
3.25867
21
1.56725
0
LINE
8
BLACK
6
CONTINUOUS
10
3.25867
20
1.56725
11
3.25117
21
1.56538
0
LINE
8
BLACK
6
CONTINUOUS
10
3.25117
20
1.56538
11
3.25058
21
1.56534
0
LINE
8
BLACK
6
CONTINUOUS
10
3.25058
20
1.56534
11
3.25045
21
1.56529
0
LINE
8
BLACK
6
CONTINUOUS
10
3.25045
20
1.56529
11
3.24108
21
1.56529
0
LINE
8
BLACK
6
CONTINUOUS
10
3.24108
20
1.56529
11
3.2405
21
1.56539
0
LINE
8
BLACK
6
CONTINUOUS
10
3.2405
20
1.56539
11
3.24036
21
1.56538
0
LINE
8
BLACK
6
CONTINUOUS
10
3.24036
20
1.56538
11
3.23286
21
1.56725
0
LINE
8
BLACK
6
CONTINUOUS
10
3.23286
20
1.56725
11
3.2324
21
1.56746
0
LINE
8
BLACK
6
CONTINUOUS
10
3.2324
20
1.56746
11
3.23226
21
1.56748
0
LINE
8
BLACK
6
CONTINUOUS
10
3.23226
20
1.56748
11
3.22851
21
1.56935
0
LINE
8
BLACK
6
CONTINUOUS
10
3.22851
20
1.56935
11
3.2278
21
1.56988
0
LINE
8
BLACK
6
CONTINUOUS
10
3.2278
20
1.56988
11
3.22774
21
1.5699
0
LINE
8
BLACK
6
CONTINUOUS
10
3.22774
20
1.5699
11
3.22586
21
1.57178
0
LINE
8
BLACK
6
CONTINUOUS
10
3.22586
20
1.57178
11
3.22536
21
1.5725
0
LINE
8
BLACK
6
CONTINUOUS
10
3.22536
20
1.5725
11
3.22531
21
1.57255
0
LINE
8
BLACK
6
CONTINUOUS
10
3.22531
20
1.57255
11
3.22344
21
1.57629
0
LINE
8
BLACK
6
CONTINUOUS
10
3.22344
20
1.57629
11
3.22314
21
1.57728
0
LINE
8
BLACK
6
CONTINUOUS
10
3.22314
20
1.57728
11
3.22319
21
1.57745
0
LINE
8
BLACK
6
CONTINUOUS
10
3.22319
20
1.57745
11
3.22313
21
1.57762
0
LINE
8
BLACK
6
CONTINUOUS
10
3.22313
20
1.57762
11
3.22313
21
1.58136
0
LINE
8
BLACK
6
CONTINUOUS
10
3.22313
20
1.58136
11
3.2233
21
1.58237
0
LINE
8
BLACK
6
CONTINUOUS
10
3.2233
20
1.58237
11
3.22342
21
1.58251
0
LINE
8
BLACK
6
CONTINUOUS
10
3.22342
20
1.58251
11
3.22344
21
1.58269
0
LINE
8
BLACK
6
CONTINUOUS
10
3.22344
20
1.58269
11
3.22531
21
1.58643
0
LINE
8
BLACK
6
CONTINUOUS
10
3.22531
20
1.58643
11
3.22584
21
1.58714
0
LINE
8
BLACK
6
CONTINUOUS
10
3.22584
20
1.58714
11
3.22586
21
1.5872
0
LINE
8
BLACK
6
CONTINUOUS
10
3.22586
20
1.5872
11
3.22774
21
1.58908
0
LINE
8
BLACK
6
CONTINUOUS
10
3.22774
20
1.58908
11
3.22846
21
1.58958
0
LINE
8
BLACK
6
CONTINUOUS
10
3.22846
20
1.58958
11
3.22851
21
1.58963
0
LINE
8
BLACK
6
CONTINUOUS
10
3.22851
20
1.58963
11
3.23226
21
1.5915
0
LINE
8
BLACK
6
CONTINUOUS
10
3.23226
20
1.5915
11
3.23274
21
1.59165
0
LINE
8
BLACK
6
CONTINUOUS
10
3.23274
20
1.59165
11
3.23286
21
1.59173
0
LINE
8
BLACK
6
CONTINUOUS
10
3.23286
20
1.59173
11
3.24036
21
1.5936
0
LINE
8
BLACK
6
CONTINUOUS
10
3.24036
20
1.5936
11
3.24095
21
1.59364
0
LINE
8
BLACK
6
CONTINUOUS
10
3.24095
20
1.59364
11
3.24108
21
1.59369
0
LINE
8
BLACK
6
CONTINUOUS
10
3.24108
20
1.59369
11
3.25045
21
1.59369
0
LINE
8
BLACK
6
CONTINUOUS
10
3.25045
20
1.59369
11
3.25103
21
1.59359
0
LINE
8
BLACK
6
CONTINUOUS
10
3.24144
20
1.58779
11
3.23461
21
1.58608
0
LINE
8
BLACK
6
CONTINUOUS
10
3.23461
20
1.58608
11
3.23158
21
1.58456
0
LINE
8
BLACK
6
CONTINUOUS
10
3.23158
20
1.58456
11
3.23038
21
1.58337
0
LINE
8
BLACK
6
CONTINUOUS
10
3.23038
20
1.58337
11
3.22903
21
1.58067
0
LINE
8
BLACK
6
CONTINUOUS
10
3.22903
20
1.58067
11
3.22903
21
1.57831
0
LINE
8
BLACK
6
CONTINUOUS
10
3.22903
20
1.57831
11
3.23038
21
1.57561
0
LINE
8
BLACK
6
CONTINUOUS
10
3.23038
20
1.57561
11
3.23158
21
1.57442
0
LINE
8
BLACK
6
CONTINUOUS
10
3.23158
20
1.57442
11
3.23461
21
1.5729
0
LINE
8
BLACK
6
CONTINUOUS
10
3.23461
20
1.5729
11
3.24144
21
1.57119
0
LINE
8
BLACK
6
CONTINUOUS
10
3.24144
20
1.57119
11
3.25009
21
1.57119
0
LINE
8
BLACK
6
CONTINUOUS
10
3.25009
20
1.57119
11
3.25692
21
1.5729
0
LINE
8
BLACK
6
CONTINUOUS
10
3.25692
20
1.5729
11
3.25995
21
1.57442
0
LINE
8
BLACK
6
CONTINUOUS
10
3.25995
20
1.57442
11
3.26115
21
1.57561
0
LINE
8
BLACK
6
CONTINUOUS
10
3.26115
20
1.57561
11
3.2625
21
1.57831
0
LINE
8
BLACK
6
CONTINUOUS
10
3.2625
20
1.57831
11
3.2625
21
1.58067
0
LINE
8
BLACK
6
CONTINUOUS
10
3.2625
20
1.58067
11
3.26115
21
1.58337
0
LINE
8
BLACK
6
CONTINUOUS
10
3.26115
20
1.58337
11
3.25995
21
1.58456
0
LINE
8
BLACK
6
CONTINUOUS
10
3.25995
20
1.58456
11
3.25692
21
1.58608
0
LINE
8
BLACK
6
CONTINUOUS
10
3.25692
20
1.58608
11
3.25009
21
1.58779
0
LINE
8
BLACK
6
CONTINUOUS
10
3.25009
20
1.58779
11
3.24144
21
1.58779
0
LINE
8
BLACK
6
CONTINUOUS
10
3.01007
20
1.59783
11
3.01076
21
1.59593
0
LINE
8
BLACK
6
CONTINUOUS
10
3.01076
20
1.59593
11
3.01076
21
1.57343
0
LINE
8
BLACK
6
CONTINUOUS
10
3.01076
20
1.57343
11
3.01058
21
1.57242
0
LINE
8
BLACK
6
CONTINUOUS
10
3.01058
20
1.57242
11
3.00929
21
1.57088
0
LINE
8
BLACK
6
CONTINUOUS
10
3.00929
20
1.57088
11
3.0073
21
1.57053
0
LINE
8
BLACK
6
CONTINUOUS
10
3.0073
20
1.57053
11
3.00555
21
1.57154
0
LINE
8
BLACK
6
CONTINUOUS
10
3.00555
20
1.57154
11
3.00486
21
1.57343
0
LINE
8
BLACK
6
CONTINUOUS
10
3.00486
20
1.57343
11
3.00486
21
1.58173
0
LINE
8
BLACK
6
CONTINUOUS
10
3.00486
20
1.58173
11
2.97744
21
1.58173
0
LINE
8
BLACK
6
CONTINUOUS
10
2.97744
20
1.58173
11
2.9799
21
1.57927
0
LINE
8
BLACK
6
CONTINUOUS
10
2.9799
20
1.57927
11
2.98041
21
1.57855
0
LINE
8
BLACK
6
CONTINUOUS
10
2.98041
20
1.57855
11
2.98046
21
1.5785
0
LINE
8
BLACK
6
CONTINUOUS
10
2.98046
20
1.5785
11
2.98233
21
1.57476
0
LINE
8
BLACK
6
CONTINUOUS
10
2.98233
20
1.57476
11
2.98262
21
1.57377
0
LINE
8
BLACK
6
CONTINUOUS
10
2.98262
20
1.57377
11
2.98215
21
1.57181
0
LINE
8
BLACK
6
CONTINUOUS
10
2.98215
20
1.57181
11
2.98053
21
1.5706
0
LINE
8
BLACK
6
CONTINUOUS
10
2.98053
20
1.5706
11
2.97851
21
1.57073
0
LINE
8
BLACK
6
CONTINUOUS
10
2.97851
20
1.57073
11
2.97705
21
1.57211
0
LINE
8
BLACK
6
CONTINUOUS
10
2.97705
20
1.57211
11
2.97539
21
1.57544
0
LINE
8
BLACK
6
CONTINUOUS
10
2.97539
20
1.57544
11
2.97218
21
1.57864
0
LINE
8
BLACK
6
CONTINUOUS
10
2.97218
20
1.57864
11
2.9668
21
1.58223
0
LINE
8
BLACK
6
CONTINUOUS
10
2.9668
20
1.58223
11
2.96606
21
1.58293
0
LINE
8
BLACK
6
CONTINUOUS
10
2.96606
20
1.58293
11
2.96601
21
1.5831
0
LINE
8
BLACK
6
CONTINUOUS
10
2.96601
20
1.5831
11
2.96588
21
1.58321
0
LINE
8
BLACK
6
CONTINUOUS
10
2.96588
20
1.58321
11
2.96573
21
1.58405
0
LINE
8
BLACK
6
CONTINUOUS
10
2.96573
20
1.58405
11
2.96549
21
1.58487
0
LINE
8
BLACK
6
CONTINUOUS
10
2.96549
20
1.58487
11
2.96556
21
1.58503
0
LINE
8
BLACK
6
CONTINUOUS
10
2.96556
20
1.58503
11
2.96553
21
1.5852
0
LINE
8
BLACK
6
CONTINUOUS
10
2.96553
20
1.5852
11
2.96596
21
1.58594
0
LINE
8
BLACK
6
CONTINUOUS
10
2.96596
20
1.58594
11
2.96631
21
1.58672
0
LINE
8
BLACK
6
CONTINUOUS
10
2.96631
20
1.58672
11
2.96646
21
1.5868
0
LINE
8
BLACK
6
CONTINUOUS
10
2.96646
20
1.5868
11
2.96654
21
1.58695
0
LINE
8
BLACK
6
CONTINUOUS
10
2.96654
20
1.58695
11
2.96735
21
1.58724
0
LINE
8
BLACK
6
CONTINUOUS
10
2.96735
20
1.58724
11
2.96812
21
1.58762
0
LINE
8
BLACK
6
CONTINUOUS
10
2.96812
20
1.58762
11
2.96828
21
1.58758
0
LINE
8
BLACK
6
CONTINUOUS
10
2.96828
20
1.58758
11
2.96844
21
1.58764
0
LINE
8
BLACK
6
CONTINUOUS
10
2.96844
20
1.58764
11
3.00486
21
1.58764
0
LINE
8
BLACK
6
CONTINUOUS
10
3.00486
20
1.58764
11
3.00486
21
1.59593
0
LINE
8
BLACK
6
CONTINUOUS
10
3.00486
20
1.59593
11
3.00504
21
1.59694
0
LINE
8
BLACK
6
CONTINUOUS
10
3.00504
20
1.59694
11
3.00633
21
1.59849
0
LINE
8
BLACK
6
CONTINUOUS
10
3.00633
20
1.59849
11
3.00832
21
1.59884
0
LINE
8
BLACK
6
CONTINUOUS
10
3.00832
20
1.59884
11
3.01007
21
1.59783
0
LINE
8
BLACK
6
CONTINUOUS
10
3.25271
20
1.63951
11
3.2534
21
1.63761
0
LINE
8
BLACK
6
CONTINUOUS
10
3.2534
20
1.63761
11
3.2534
21
1.60761
0
LINE
8
BLACK
6
CONTINUOUS
10
3.2534
20
1.60761
11
3.25322
21
1.6066
0
LINE
8
BLACK
6
CONTINUOUS
10
3.25322
20
1.6066
11
3.25193
21
1.60505
0
LINE
8
BLACK
6
CONTINUOUS
10
3.25193
20
1.60505
11
3.24994
21
1.6047
0
LINE
8
BLACK
6
CONTINUOUS
10
3.24994
20
1.6047
11
3.24819
21
1.60571
0
LINE
8
BLACK
6
CONTINUOUS
10
3.24819
20
1.60571
11
3.2475
21
1.60761
0
LINE
8
BLACK
6
CONTINUOUS
10
3.2475
20
1.60761
11
3.2475
21
1.63761
0
LINE
8
BLACK
6
CONTINUOUS
10
3.2475
20
1.63761
11
3.24768
21
1.63862
0
LINE
8
BLACK
6
CONTINUOUS
10
3.24768
20
1.63862
11
3.24897
21
1.64016
0
LINE
8
BLACK
6
CONTINUOUS
10
3.24897
20
1.64016
11
3.25096
21
1.64052
0
LINE
8
BLACK
6
CONTINUOUS
10
3.25096
20
1.64052
11
3.25271
21
1.63951
0
LINE
8
BLACK
6
CONTINUOUS
10
3.26646
20
1.68538
11
3.26801
21
1.68408
0
LINE
8
BLACK
6
CONTINUOUS
10
3.26801
20
1.68408
11
3.26836
21
1.68209
0
LINE
8
BLACK
6
CONTINUOUS
10
3.26836
20
1.68209
11
3.26735
21
1.68034
0
LINE
8
BLACK
6
CONTINUOUS
10
3.26735
20
1.68034
11
3.26545
21
1.67965
0
LINE
8
BLACK
6
CONTINUOUS
10
3.26545
20
1.67965
11
3.23939
21
1.67965
0
LINE
8
BLACK
6
CONTINUOUS
10
3.23939
20
1.67965
11
3.25545
21
1.67215
0
LINE
8
BLACK
6
CONTINUOUS
10
3.25545
20
1.67215
11
3.25577
21
1.67193
0
LINE
8
BLACK
6
CONTINUOUS
10
3.25577
20
1.67193
11
3.25589
21
1.6719
0
LINE
8
BLACK
6
CONTINUOUS
10
3.25589
20
1.6719
11
3.25597
21
1.67179
0
LINE
8
BLACK
6
CONTINUOUS
10
3.25597
20
1.67179
11
3.25629
21
1.67157
0
LINE
8
BLACK
6
CONTINUOUS
10
3.25629
20
1.67157
11
3.25661
21
1.67087
0
LINE
8
BLACK
6
CONTINUOUS
10
3.25661
20
1.67087
11
3.25705
21
1.67024
0
LINE
8
BLACK
6
CONTINUOUS
10
3.25705
20
1.67024
11
3.25703
21
1.66998
0
LINE
8
BLACK
6
CONTINUOUS
10
3.25703
20
1.66998
11
3.25714
21
1.66974
0
LINE
8
BLACK
6
CONTINUOUS
10
3.25714
20
1.66974
11
3.25694
21
1.669
0
LINE
8
BLACK
6
CONTINUOUS
10
3.25694
20
1.669
11
3.25688
21
1.66823
0
LINE
8
BLACK
6
CONTINUOUS
10
3.25688
20
1.66823
11
3.25669
21
1.66804
0
LINE
8
BLACK
6
CONTINUOUS
10
3.25669
20
1.66804
11
3.25662
21
1.66778
0
LINE
8
BLACK
6
CONTINUOUS
10
3.25662
20
1.66778
11
3.25599
21
1.66735
0
LINE
8
BLACK
6
CONTINUOUS
10
3.25599
20
1.66735
11
3.25545
21
1.6668
0
LINE
8
BLACK
6
CONTINUOUS
10
3.25545
20
1.6668
11
3.23939
21
1.65931
0
LINE
8
BLACK
6
CONTINUOUS
10
3.23939
20
1.65931
11
3.26545
21
1.65931
0
LINE
8
BLACK
6
CONTINUOUS
10
3.26545
20
1.65931
11
3.26646
21
1.65913
0
LINE
8
BLACK
6
CONTINUOUS
10
3.26646
20
1.65913
11
3.26801
21
1.65783
0
LINE
8
BLACK
6
CONTINUOUS
10
3.26801
20
1.65783
11
3.26836
21
1.65584
0
LINE
8
BLACK
6
CONTINUOUS
10
3.26836
20
1.65584
11
3.26735
21
1.65409
0
LINE
8
BLACK
6
CONTINUOUS
10
3.26735
20
1.65409
11
3.26545
21
1.6534
0
LINE
8
BLACK
6
CONTINUOUS
10
3.26545
20
1.6534
11
3.22608
21
1.6534
0
LINE
8
BLACK
6
CONTINUOUS
10
3.22608
20
1.6534
11
3.22507
21
1.65358
0
LINE
8
BLACK
6
CONTINUOUS
10
3.22507
20
1.65358
11
3.22477
21
1.65383
0
LINE
8
BLACK
6
CONTINUOUS
10
3.22477
20
1.65383
11
3.22439
21
1.65394
0
LINE
8
BLACK
6
CONTINUOUS
10
3.22439
20
1.65394
11
3.22401
21
1.65446
0
LINE
8
BLACK
6
CONTINUOUS
10
3.22401
20
1.65446
11
3.22352
21
1.65488
0
LINE
8
BLACK
6
CONTINUOUS
10
3.22352
20
1.65488
11
3.22345
21
1.65527
0
LINE
8
BLACK
6
CONTINUOUS
10
3.22345
20
1.65527
11
3.22323
21
1.65559
0
LINE
8
BLACK
6
CONTINUOUS
10
3.22323
20
1.65559
11
3.22328
21
1.65623
0
LINE
8
BLACK
6
CONTINUOUS
10
3.22328
20
1.65623
11
3.22317
21
1.65687
0
LINE
8
BLACK
6
CONTINUOUS
10
3.22317
20
1.65687
11
3.22337
21
1.65721
0
LINE
8
BLACK
6
CONTINUOUS
10
3.22337
20
1.65721
11
3.2234
21
1.6576
0
LINE
8
BLACK
6
CONTINUOUS
10
3.2234
20
1.6576
11
3.22386
21
1.65806
0
LINE
8
BLACK
6
CONTINUOUS
10
3.22386
20
1.65806
11
3.22418
21
1.65862
0
LINE
8
BLACK
6
CONTINUOUS
10
3.22418
20
1.65862
11
3.22455
21
1.65875
0
LINE
8
BLACK
6
CONTINUOUS
10
3.22455
20
1.65875
11
3.22483
21
1.65903
0
LINE
8
BLACK
6
CONTINUOUS
10
3.22483
20
1.65903
11
3.24722
21
1.66948
0
LINE
8
BLACK
6
CONTINUOUS
10
3.24722
20
1.66948
11
3.22483
21
1.67993
0
LINE
8
BLACK
6
CONTINUOUS
10
3.22483
20
1.67993
11
3.22399
21
1.68051
0
LINE
8
BLACK
6
CONTINUOUS
10
3.22399
20
1.68051
11
3.22382
21
1.68087
0
LINE
8
BLACK
6
CONTINUOUS
10
3.22382
20
1.68087
11
3.22352
21
1.68113
0
LINE
8
BLACK
6
CONTINUOUS
10
3.22352
20
1.68113
11
3.22341
21
1.68176
0
LINE
8
BLACK
6
CONTINUOUS
10
3.22341
20
1.68176
11
3.22314
21
1.68235
0
LINE
8
BLACK
6
CONTINUOUS
10
3.22314
20
1.68235
11
3.22324
21
1.68273
0
LINE
8
BLACK
6
CONTINUOUS
10
3.22324
20
1.68273
11
3.22317
21
1.68311
0
LINE
8
BLACK
6
CONTINUOUS
10
3.22317
20
1.68311
11
3.22349
21
1.68367
0
LINE
8
BLACK
6
CONTINUOUS
10
3.22349
20
1.68367
11
3.22366
21
1.6843
0
LINE
8
BLACK
6
CONTINUOUS
10
3.22366
20
1.6843
11
3.22398
21
1.68452
0
LINE
8
BLACK
6
CONTINUOUS
10
3.22398
20
1.68452
11
3.22418
21
1.68486
0
LINE
8
BLACK
6
CONTINUOUS
10
3.22418
20
1.68486
11
3.22479
21
1.68508
0
LINE
8
BLACK
6
CONTINUOUS
10
3.22479
20
1.68508
11
3.22531
21
1.68545
0
LINE
8
BLACK
6
CONTINUOUS
10
3.22531
20
1.68545
11
3.22571
21
1.68542
0
LINE
8
BLACK
6
CONTINUOUS
10
3.22571
20
1.68542
11
3.22608
21
1.68555
0
LINE
8
BLACK
6
CONTINUOUS
10
3.22608
20
1.68555
11
3.26545
21
1.68555
0
LINE
8
BLACK
6
CONTINUOUS
10
3.26545
20
1.68555
11
3.26646
21
1.68538
0
LINE
8
BLACK
6
CONTINUOUS
10
3.25507
20
1.7154
11
3.25513
21
1.7154
0
LINE
8
BLACK
6
CONTINUOUS
10
3.25513
20
1.7154
11
3.26076
21
1.71352
0
LINE
8
BLACK
6
CONTINUOUS
10
3.26076
20
1.71352
11
3.26166
21
1.71304
0
LINE
8
BLACK
6
CONTINUOUS
10
3.26166
20
1.71304
11
3.26175
21
1.71289
0
LINE
8
BLACK
6
CONTINUOUS
10
3.26175
20
1.71289
11
3.26191
21
1.71281
0
LINE
8
BLACK
6
CONTINUOUS
10
3.26191
20
1.71281
11
3.26566
21
1.70906
0
LINE
8
BLACK
6
CONTINUOUS
10
3.26566
20
1.70906
11
3.26625
21
1.70822
0
LINE
8
BLACK
6
CONTINUOUS
10
3.26625
20
1.70822
11
3.26626
21
1.70805
0
LINE
8
BLACK
6
CONTINUOUS
10
3.26626
20
1.70805
11
3.26637
21
1.70791
0
LINE
8
BLACK
6
CONTINUOUS
10
3.26637
20
1.70791
11
3.26825
21
1.70228
0
LINE
8
BLACK
6
CONTINUOUS
10
3.26825
20
1.70228
11
3.26838
21
1.70141
0
LINE
8
BLACK
6
CONTINUOUS
10
3.26838
20
1.70141
11
3.2684
21
1.70135
0
LINE
8
BLACK
6
CONTINUOUS
10
3.2684
20
1.70135
11
3.2684
21
1.6976
0
LINE
8
BLACK
6
CONTINUOUS
10
3.2684
20
1.6976
11
3.26822
21
1.69659
0
LINE
8
BLACK
6
CONTINUOUS
10
3.26822
20
1.69659
11
3.26692
21
1.69504
0
LINE
8
BLACK
6
CONTINUOUS
10
3.26692
20
1.69504
11
3.26494
21
1.69469
0
LINE
8
BLACK
6
CONTINUOUS
10
3.26494
20
1.69469
11
3.26319
21
1.6957
0
LINE
8
BLACK
6
CONTINUOUS
10
3.26319
20
1.6957
11
3.2625
21
1.6976
0
LINE
8
BLACK
6
CONTINUOUS
10
3.2625
20
1.6976
11
3.2625
21
1.70087
0
LINE
8
BLACK
6
CONTINUOUS
10
3.2625
20
1.70087
11
3.26099
21
1.70538
0
LINE
8
BLACK
6
CONTINUOUS
10
3.26099
20
1.70538
11
3.25823
21
1.70814
0
LINE
8
BLACK
6
CONTINUOUS
10
3.25823
20
1.70814
11
3.25372
21
1.70965
0
LINE
8
BLACK
6
CONTINUOUS
10
3.25372
20
1.70965
11
3.22608
21
1.70965
0
LINE
8
BLACK
6
CONTINUOUS
10
3.22608
20
1.70965
11
3.22507
21
1.70982
0
LINE
8
BLACK
6
CONTINUOUS
10
3.22507
20
1.70982
11
3.22352
21
1.71112
0
LINE
8
BLACK
6
CONTINUOUS
10
3.22352
20
1.71112
11
3.22317
21
1.71311
0
LINE
8
BLACK
6
CONTINUOUS
10
3.22317
20
1.71311
11
3.22418
21
1.71486
0
LINE
8
BLACK
6
CONTINUOUS
10
3.22418
20
1.71486
11
3.22608
21
1.71555
0
LINE
8
BLACK
6
CONTINUOUS
10
3.22608
20
1.71555
11
3.2542
21
1.71555
0
LINE
8
BLACK
6
CONTINUOUS
10
3.2542
20
1.71555
11
3.25507
21
1.7154
0
LINE
8
BLACK
6
CONTINUOUS
10
3.26771
20
1.75387
11
3.2684
21
1.75197
0
LINE
8
BLACK
6
CONTINUOUS
10
3.2684
20
1.75197
11
3.2684
21
1.72947
0
LINE
8
BLACK
6
CONTINUOUS
10
3.2684
20
1.72947
11
3.26822
21
1.72846
0
LINE
8
BLACK
6
CONTINUOUS
10
3.26822
20
1.72846
11
3.26692
21
1.72691
0
LINE
8
BLACK
6
CONTINUOUS
10
3.26692
20
1.72691
11
3.26494
21
1.72656
0
LINE
8
BLACK
6
CONTINUOUS
10
3.26494
20
1.72656
11
3.26319
21
1.72757
0
LINE
8
BLACK
6
CONTINUOUS
10
3.26319
20
1.72757
11
3.2625
21
1.72947
0
LINE
8
BLACK
6
CONTINUOUS
10
3.2625
20
1.72947
11
3.2625
21
1.73777
0
LINE
8
BLACK
6
CONTINUOUS
10
3.2625
20
1.73777
11
3.23508
21
1.73777
0
LINE
8
BLACK
6
CONTINUOUS
10
3.23508
20
1.73777
11
3.23754
21
1.73531
0
LINE
8
BLACK
6
CONTINUOUS
10
3.23754
20
1.73531
11
3.23805
21
1.73459
0
LINE
8
BLACK
6
CONTINUOUS
10
3.23805
20
1.73459
11
3.23809
21
1.73454
0
LINE
8
BLACK
6
CONTINUOUS
10
3.23809
20
1.73454
11
3.23997
21
1.73079
0
LINE
8
BLACK
6
CONTINUOUS
10
3.23997
20
1.73079
11
3.24026
21
1.72981
0
LINE
8
BLACK
6
CONTINUOUS
10
3.24026
20
1.72981
11
3.23979
21
1.72784
0
LINE
8
BLACK
6
CONTINUOUS
10
3.23979
20
1.72784
11
3.23817
21
1.72664
0
LINE
8
BLACK
6
CONTINUOUS
10
3.23817
20
1.72664
11
3.23615
21
1.72676
0
LINE
8
BLACK
6
CONTINUOUS
10
3.23615
20
1.72676
11
3.23469
21
1.72815
0
LINE
8
BLACK
6
CONTINUOUS
10
3.23469
20
1.72815
11
3.23303
21
1.73147
0
LINE
8
BLACK
6
CONTINUOUS
10
3.23303
20
1.73147
11
3.22982
21
1.73468
0
LINE
8
BLACK
6
CONTINUOUS
10
3.22982
20
1.73468
11
3.22444
21
1.73826
0
LINE
8
BLACK
6
CONTINUOUS
10
3.22444
20
1.73826
11
3.2237
21
1.73897
0
LINE
8
BLACK
6
CONTINUOUS
10
3.2237
20
1.73897
11
3.22365
21
1.73913
0
LINE
8
BLACK
6
CONTINUOUS
10
3.22365
20
1.73913
11
3.22352
21
1.73924
0
LINE
8
BLACK
6
CONTINUOUS
10
3.22352
20
1.73924
11
3.22337
21
1.74009
0
LINE
8
BLACK
6
CONTINUOUS
10
3.22337
20
1.74009
11
3.22313
21
1.74091
0
LINE
8
BLACK
6
CONTINUOUS
10
3.22313
20
1.74091
11
3.2232
21
1.74107
0
LINE
8
BLACK
6
CONTINUOUS
10
3.2232
20
1.74107
11
3.22317
21
1.74123
0
LINE
8
BLACK
6
CONTINUOUS
10
3.22317
20
1.74123
11
3.2236
21
1.74197
0
LINE
8
BLACK
6
CONTINUOUS
10
3.2236
20
1.74197
11
3.22394
21
1.74276
0
LINE
8
BLACK
6
CONTINUOUS
10
3.22394
20
1.74276
11
3.2241
21
1.74283
0
LINE
8
BLACK
6
CONTINUOUS
10
3.2241
20
1.74283
11
3.22418
21
1.74298
0
LINE
8
BLACK
6
CONTINUOUS
10
3.22418
20
1.74298
11
3.22499
21
1.74327
0
LINE
8
BLACK
6
CONTINUOUS
10
3.22499
20
1.74327
11
3.22575
21
1.74365
0
LINE
8
BLACK
6
CONTINUOUS
10
3.22575
20
1.74365
11
3.22592
21
1.74361
0
LINE
8
BLACK
6
CONTINUOUS
10
3.22592
20
1.74361
11
3.22608
21
1.74367
0
LINE
8
BLACK
6
CONTINUOUS
10
3.22608
20
1.74367
11
3.2625
21
1.74367
0
LINE
8
BLACK
6
CONTINUOUS
10
3.2625
20
1.74367
11
3.2625
21
1.75197
0
LINE
8
BLACK
6
CONTINUOUS
10
3.2625
20
1.75197
11
3.26267
21
1.75298
0
LINE
8
BLACK
6
CONTINUOUS
10
3.26267
20
1.75298
11
3.26397
21
1.75453
0
LINE
8
BLACK
6
CONTINUOUS
10
3.26397
20
1.75453
11
3.26596
21
1.75488
0
LINE
8
BLACK
6
CONTINUOUS
10
3.26596
20
1.75488
11
3.26771
21
1.75387
0
LINE
8
BLACK
6
CONTINUOUS
10
3.53637
20
2.46774
11
3.53712
21
2.46543
0
LINE
8
BLACK
6
CONTINUOUS
10
3.53712
20
2.46543
11
3.53712
21
2.40544
0
LINE
8
BLACK
6
CONTINUOUS
10
3.53712
20
2.40544
11
3.53637
21
2.40312
0
LINE
8
BLACK
6
CONTINUOUS
10
3.53637
20
2.40312
11
3.5344
21
2.40169
0
LINE
8
BLACK
6
CONTINUOUS
10
3.5344
20
2.40169
11
3.53197
21
2.40169
0
LINE
8
BLACK
6
CONTINUOUS
10
3.53197
20
2.40169
11
3.53
21
2.40312
0
LINE
8
BLACK
6
CONTINUOUS
10
3.53
20
2.40312
11
3.52925
21
2.40544
0
LINE
8
BLACK
6
CONTINUOUS
10
3.52925
20
2.40544
11
3.52925
21
2.46543
0
LINE
8
BLACK
6
CONTINUOUS
10
3.52925
20
2.46543
11
3.53
21
2.46774
0
LINE
8
BLACK
6
CONTINUOUS
10
3.53
20
2.46774
11
3.53197
21
2.46917
0
LINE
8
BLACK
6
CONTINUOUS
10
3.53197
20
2.46917
11
3.5344
21
2.46917
0
LINE
8
BLACK
6
CONTINUOUS
10
3.5344
20
2.46917
11
3.53637
21
2.46774
0
LINE
8
BLACK
6
CONTINUOUS
10
2.77653
20
2.46774
11
2.77728
21
2.46543
0
LINE
8
BLACK
6
CONTINUOUS
10
2.77728
20
2.46543
11
2.77728
21
2.40544
0
LINE
8
BLACK
6
CONTINUOUS
10
2.77728
20
2.40544
11
2.77653
21
2.40312
0
LINE
8
BLACK
6
CONTINUOUS
10
2.77653
20
2.40312
11
2.77456
21
2.40169
0
LINE
8
BLACK
6
CONTINUOUS
10
2.77456
20
2.40169
11
2.77212
21
2.40169
0
LINE
8
BLACK
6
CONTINUOUS
10
2.77212
20
2.40169
11
2.77016
21
2.40312
0
LINE
8
BLACK
6
CONTINUOUS
10
2.77016
20
2.40312
11
2.7694
21
2.40544
0
LINE
8
BLACK
6
CONTINUOUS
10
2.7694
20
2.40544
11
2.7694
21
2.46543
0
LINE
8
BLACK
6
CONTINUOUS
10
2.7694
20
2.46543
11
2.77016
21
2.46774
0
LINE
8
BLACK
6
CONTINUOUS
10
2.77016
20
2.46774
11
2.77212
21
2.46917
0
LINE
8
BLACK
6
CONTINUOUS
10
2.77212
20
2.46917
11
2.77456
21
2.46917
0
LINE
8
BLACK
6
CONTINUOUS
10
2.77456
20
2.46917
11
2.77653
21
2.46774
  0
ENDSEC
  0
EOF
