  0
SECTION
  2
HEADER
  9
$ANGBASE
  50
0.0
  9
$ANGDIR
  70
1
  9
$MEASUREMENT
  70
0
  0
ENDSEC
  0
SECTION
  2
TABLES
  0
TABLE
  2
LTYPE
  70
4
  0
LTYPE
  5
40F
  2
CONTINUOUS
  70
0
  3
Solid line
  72
65
  73
0
  40
0.0
  0
LTYPE
  5
410
  2
DASHDOT
 70
0
  3
Dash Dot ____ _ ____ _
 72
65
 73
4
 40
2.0
 49
1.25
 49
-0.25
 49
0.25
 49
-0.25
  0
LTYPE
  5
411
  2
DASHED
 70
0
  3
Dashed __ __ __ __ __
 72
65
 73
2
 40
0.75
 49
0.5
 49
-0.25
  0
LTYPE
  5
43B
  2
DOTTED
 70
0
  3
Dotted .  .  .  .
 72
65
 73
2
 40
0.2
 49
0.0
 49
-0.2
  0
ENDTAB
  0
TABLE
  2
STYLE
  70
4
  0
STYLE
  2
KICAD
  70
0
  40
0
  41
1
  42
1
  50
0
  71
0
  3
isocp.shx
  0
STYLE
  2
KICADB
  70
0
  40
0
  41
1
  42
1
  50
0
  71
0
  3
isocp.shx
  0
STYLE
  2
KICADI
  70
0
  40
0
  41
1
  42
1
  50
15
  71
0
  3
isocp.shx
  0
STYLE
  2
KICADBI
  70
0
  40
0
  41
1
  42
1
  50
15
  71
0
  3
isocp.shx
  0
ENDTAB
  0
TABLE
  2
LAYER
  70
1
  0
LAYER
  2
BLACK
  70
0
  62
7
  6
CONTINUOUS
  0
ENDTAB
  0
ENDSEC
  0
SECTION
  2
ENTITIES
0
LINE
8
BLACK
6
CONTINUOUS
10
3.60931
20
0.192314
11
3.61187
21
0.190607
0
LINE
8
BLACK
6
CONTINUOUS
10
3.61187
20
0.190607
11
3.61357
21
0.188053
0
LINE
8
BLACK
6
CONTINUOUS
10
3.61357
20
0.188053
11
3.61417
21
0.185039
0
LINE
8
BLACK
6
CONTINUOUS
10
3.61417
20
0.185039
11
3.61417
21
0.0275591
0
LINE
8
BLACK
6
CONTINUOUS
10
3.61417
20
0.0275591
11
3.61357
21
0.0245458
0
LINE
8
BLACK
6
CONTINUOUS
10
3.61357
20
0.0245458
11
3.61187
21
0.0219913
0
LINE
8
BLACK
6
CONTINUOUS
10
3.61187
20
0.0219913
11
3.60931
21
0.0202844
0
LINE
8
BLACK
6
CONTINUOUS
10
3.60931
20
0.0202844
11
3.6063
21
0.019685
0
LINE
8
BLACK
6
CONTINUOUS
10
3.6063
20
0.019685
11
3.44882
21
0.019685
0
LINE
8
BLACK
6
CONTINUOUS
10
3.44882
20
0.019685
11
3.44581
21
0.0202844
0
LINE
8
BLACK
6
CONTINUOUS
10
3.44581
20
0.0202844
11
3.44325
21
0.0219913
0
LINE
8
BLACK
6
CONTINUOUS
10
3.44325
20
0.0219913
11
3.44154
21
0.0245458
0
LINE
8
BLACK
6
CONTINUOUS
10
3.44154
20
0.0245458
11
3.44094
21
0.0275591
0
LINE
8
BLACK
6
CONTINUOUS
10
3.44094
20
0.0275591
11
3.44094
21
0.185039
0
LINE
8
BLACK
6
CONTINUOUS
10
3.44094
20
0.185039
11
3.44154
21
0.188053
0
LINE
8
BLACK
6
CONTINUOUS
10
3.44154
20
0.188053
11
3.44325
21
0.190607
0
LINE
8
BLACK
6
CONTINUOUS
10
3.44325
20
0.190607
11
3.44581
21
0.192314
0
LINE
8
BLACK
6
CONTINUOUS
10
3.44581
20
0.192314
11
3.44882
21
0.192913
0
LINE
8
BLACK
6
CONTINUOUS
10
3.44882
20
0.192913
11
3.6063
21
0.192913
0
LINE
8
BLACK
6
CONTINUOUS
10
3.6063
20
0.192913
11
3.60931
21
0.192314
0
LINE
8
BLACK
6
CONTINUOUS
10
2.84947
20
0.192314
11
2.85202
21
0.190607
0
LINE
8
BLACK
6
CONTINUOUS
10
2.85202
20
0.190607
11
2.85373
21
0.188053
0
LINE
8
BLACK
6
CONTINUOUS
10
2.85373
20
0.188053
11
2.85433
21
0.185039
0
LINE
8
BLACK
6
CONTINUOUS
10
2.85433
20
0.185039
11
2.85433
21
0.0275591
0
LINE
8
BLACK
6
CONTINUOUS
10
2.85433
20
0.0275591
11
2.85373
21
0.0245458
0
LINE
8
BLACK
6
CONTINUOUS
10
2.85373
20
0.0245458
11
2.85202
21
0.0219913
0
LINE
8
BLACK
6
CONTINUOUS
10
2.85202
20
0.0219913
11
2.84947
21
0.0202844
0
LINE
8
BLACK
6
CONTINUOUS
10
2.84947
20
0.0202844
11
2.84646
21
0.019685
0
LINE
8
BLACK
6
CONTINUOUS
10
2.84646
20
0.019685
11
2.68898
21
0.019685
0
LINE
8
BLACK
6
CONTINUOUS
10
2.68898
20
0.019685
11
2.68596
21
0.0202844
0
LINE
8
BLACK
6
CONTINUOUS
10
2.68596
20
0.0202844
11
2.68341
21
0.0219913
0
LINE
8
BLACK
6
CONTINUOUS
10
2.68341
20
0.0219913
11
2.6817
21
0.0245458
0
LINE
8
BLACK
6
CONTINUOUS
10
2.6817
20
0.0245458
11
2.6811
21
0.0275591
0
LINE
8
BLACK
6
CONTINUOUS
10
2.6811
20
0.0275591
11
2.6811
21
0.185039
0
LINE
8
BLACK
6
CONTINUOUS
10
2.6811
20
0.185039
11
2.6817
21
0.188053
0
LINE
8
BLACK
6
CONTINUOUS
10
2.6817
20
0.188053
11
2.68341
21
0.190607
0
LINE
8
BLACK
6
CONTINUOUS
10
2.68341
20
0.190607
11
2.68596
21
0.192314
0
LINE
8
BLACK
6
CONTINUOUS
10
2.68596
20
0.192314
11
2.68898
21
0.192913
0
LINE
8
BLACK
6
CONTINUOUS
10
2.68898
20
0.192913
11
2.84646
21
0.192913
0
LINE
8
BLACK
6
CONTINUOUS
10
2.84646
20
0.192913
11
2.84947
21
0.192314
0
LINE
8
BLACK
6
CONTINUOUS
10
2.0166
20
0.194283
11
2.01915
21
0.192576
0
LINE
8
BLACK
6
CONTINUOUS
10
2.01915
20
0.192576
11
2.02086
21
0.190021
0
LINE
8
BLACK
6
CONTINUOUS
10
2.02086
20
0.190021
11
2.02146
21
0.187008
0
LINE
8
BLACK
6
CONTINUOUS
10
2.02146
20
0.187008
11
2.02146
21
0.0295276
0
LINE
8
BLACK
6
CONTINUOUS
10
2.02146
20
0.0295276
11
2.02086
21
0.0265143
0
LINE
8
BLACK
6
CONTINUOUS
10
2.02086
20
0.0265143
11
2.01915
21
0.0239598
0
LINE
8
BLACK
6
CONTINUOUS
10
2.01915
20
0.0239598
11
2.0166
21
0.0222529
0
LINE
8
BLACK
6
CONTINUOUS
10
2.0166
20
0.0222529
11
2.01358
21
0.0216535
0
LINE
8
BLACK
6
CONTINUOUS
10
2.01358
20
0.0216535
11
1.8561
21
0.0216535
0
LINE
8
BLACK
6
CONTINUOUS
10
1.8561
20
0.0216535
11
1.85309
21
0.0222529
0
LINE
8
BLACK
6
CONTINUOUS
10
1.85309
20
0.0222529
11
1.85053
21
0.0239598
0
LINE
8
BLACK
6
CONTINUOUS
10
1.85053
20
0.0239598
11
1.84883
21
0.0265143
0
LINE
8
BLACK
6
CONTINUOUS
10
1.84883
20
0.0265143
11
1.84823
21
0.0295276
0
LINE
8
BLACK
6
CONTINUOUS
10
1.84823
20
0.0295276
11
1.84823
21
0.187008
0
LINE
8
BLACK
6
CONTINUOUS
10
1.84823
20
0.187008
11
1.84883
21
0.190021
0
LINE
8
BLACK
6
CONTINUOUS
10
1.84883
20
0.190021
11
1.85053
21
0.192576
0
LINE
8
BLACK
6
CONTINUOUS
10
1.85053
20
0.192576
11
1.85309
21
0.194283
0
LINE
8
BLACK
6
CONTINUOUS
10
1.85309
20
0.194283
11
1.8561
21
0.194882
0
LINE
8
BLACK
6
CONTINUOUS
10
1.8561
20
0.194882
11
2.01358
21
0.194882
0
LINE
8
BLACK
6
CONTINUOUS
10
2.01358
20
0.194882
11
2.0166
21
0.194283
0
LINE
8
BLACK
6
CONTINUOUS
10
1.25675
20
0.194283
11
1.25931
21
0.192576
0
LINE
8
BLACK
6
CONTINUOUS
10
1.25931
20
0.192576
11
1.26101
21
0.190021
0
LINE
8
BLACK
6
CONTINUOUS
10
1.26101
20
0.190021
11
1.26161
21
0.187008
0
LINE
8
BLACK
6
CONTINUOUS
10
1.26161
20
0.187008
11
1.26161
21
0.0295276
0
LINE
8
BLACK
6
CONTINUOUS
10
1.26161
20
0.0295276
11
1.26101
21
0.0265143
0
LINE
8
BLACK
6
CONTINUOUS
10
1.26101
20
0.0265143
11
1.25931
21
0.0239598
0
LINE
8
BLACK
6
CONTINUOUS
10
1.25931
20
0.0239598
11
1.25675
21
0.0222529
0
LINE
8
BLACK
6
CONTINUOUS
10
1.25675
20
0.0222529
11
1.25374
21
0.0216535
0
LINE
8
BLACK
6
CONTINUOUS
10
1.25374
20
0.0216535
11
1.09626
21
0.0216535
0
LINE
8
BLACK
6
CONTINUOUS
10
1.09626
20
0.0216535
11
1.09325
21
0.0222529
0
LINE
8
BLACK
6
CONTINUOUS
10
1.09325
20
0.0222529
11
1.09069
21
0.0239598
0
LINE
8
BLACK
6
CONTINUOUS
10
1.09069
20
0.0239598
11
1.08899
21
0.0265143
0
LINE
8
BLACK
6
CONTINUOUS
10
1.08899
20
0.0265143
11
1.08839
21
0.0295276
0
LINE
8
BLACK
6
CONTINUOUS
10
1.08839
20
0.0295276
11
1.08839
21
0.187008
0
LINE
8
BLACK
6
CONTINUOUS
10
1.08839
20
0.187008
11
1.08899
21
0.190021
0
LINE
8
BLACK
6
CONTINUOUS
10
1.08899
20
0.190021
11
1.09069
21
0.192576
0
LINE
8
BLACK
6
CONTINUOUS
10
1.09069
20
0.192576
11
1.09325
21
0.194283
0
LINE
8
BLACK
6
CONTINUOUS
10
1.09325
20
0.194283
11
1.09626
21
0.194882
0
LINE
8
BLACK
6
CONTINUOUS
10
1.09626
20
0.194882
11
1.25374
21
0.194882
0
LINE
8
BLACK
6
CONTINUOUS
10
1.25374
20
0.194882
11
1.25675
21
0.194283
0
LINE
8
BLACK
6
CONTINUOUS
10
0.496911
20
0.194283
11
0.499465
21
0.192576
0
LINE
8
BLACK
6
CONTINUOUS
10
0.499465
20
0.192576
11
0.501172
21
0.190021
0
LINE
8
BLACK
6
CONTINUOUS
10
0.501172
20
0.190021
11
0.501772
21
0.187008
0
LINE
8
BLACK
6
CONTINUOUS
10
0.501772
20
0.187008
11
0.501772
21
0.0295276
0
LINE
8
BLACK
6
CONTINUOUS
10
0.501772
20
0.0295276
11
0.501172
21
0.0265143
0
LINE
8
BLACK
6
CONTINUOUS
10
0.501172
20
0.0265143
11
0.499465
21
0.0239598
0
LINE
8
BLACK
6
CONTINUOUS
10
0.499465
20
0.0239598
11
0.496911
21
0.0222529
0
LINE
8
BLACK
6
CONTINUOUS
10
0.496911
20
0.0222529
11
0.493898
21
0.0216535
0
LINE
8
BLACK
6
CONTINUOUS
10
0.493898
20
0.0216535
11
0.336417
21
0.0216535
0
LINE
8
BLACK
6
CONTINUOUS
10
0.336417
20
0.0216535
11
0.333404
21
0.0222529
0
LINE
8
BLACK
6
CONTINUOUS
10
0.333404
20
0.0222529
11
0.33085
21
0.0239598
0
LINE
8
BLACK
6
CONTINUOUS
10
0.33085
20
0.0239598
11
0.329143
21
0.0265143
0
LINE
8
BLACK
6
CONTINUOUS
10
0.329143
20
0.0265143
11
0.328543
21
0.0295276
0
LINE
8
BLACK
6
CONTINUOUS
10
0.328543
20
0.0295276
11
0.328543
21
0.187008
0
LINE
8
BLACK
6
CONTINUOUS
10
0.328543
20
0.187008
11
0.329143
21
0.190021
0
LINE
8
BLACK
6
CONTINUOUS
10
0.329143
20
0.190021
11
0.33085
21
0.192576
0
LINE
8
BLACK
6
CONTINUOUS
10
0.33085
20
0.192576
11
0.333404
21
0.194283
0
LINE
8
BLACK
6
CONTINUOUS
10
0.333404
20
0.194283
11
0.336417
21
0.194882
0
LINE
8
BLACK
6
CONTINUOUS
10
0.336417
20
0.194882
11
0.493898
21
0.194882
0
LINE
8
BLACK
6
CONTINUOUS
10
0.493898
20
0.194882
11
0.496911
21
0.194283
0
LINE
8
BLACK
6
CONTINUOUS
10
1.44994
20
0.167905
11
1.4525
21
0.166198
0
LINE
8
BLACK
6
CONTINUOUS
10
1.4525
20
0.166198
11
1.4542
21
0.163643
0
LINE
8
BLACK
6
CONTINUOUS
10
1.4542
20
0.163643
11
1.4548
21
0.16063
0
LINE
8
BLACK
6
CONTINUOUS
10
1.4548
20
0.16063
11
1.4548
21
0.0858268
0
LINE
8
BLACK
6
CONTINUOUS
10
1.4548
20
0.0858268
11
1.4542
21
0.0828135
0
LINE
8
BLACK
6
CONTINUOUS
10
1.4542
20
0.0828135
11
1.4525
21
0.080259
0
LINE
8
BLACK
6
CONTINUOUS
10
1.4525
20
0.080259
11
1.44994
21
0.0785521
0
LINE
8
BLACK
6
CONTINUOUS
10
1.44994
20
0.0785521
11
1.44693
21
0.0779528
0
LINE
8
BLACK
6
CONTINUOUS
10
1.44693
20
0.0779528
11
1.31307
21
0.0779528
0
LINE
8
BLACK
6
CONTINUOUS
10
1.31307
20
0.0779528
11
1.31006
21
0.0785521
0
LINE
8
BLACK
6
CONTINUOUS
10
1.31006
20
0.0785521
11
1.3075
21
0.080259
0
LINE
8
BLACK
6
CONTINUOUS
10
1.3075
20
0.080259
11
1.3058
21
0.0828135
0
LINE
8
BLACK
6
CONTINUOUS
10
1.3058
20
0.0828135
11
1.3052
21
0.0858268
0
LINE
8
BLACK
6
CONTINUOUS
10
1.3052
20
0.0858268
11
1.3052
21
0.16063
0
LINE
8
BLACK
6
CONTINUOUS
10
1.3052
20
0.16063
11
1.3058
21
0.163643
0
LINE
8
BLACK
6
CONTINUOUS
10
1.3058
20
0.163643
11
1.3075
21
0.166198
0
LINE
8
BLACK
6
CONTINUOUS
10
1.3075
20
0.166198
11
1.31006
21
0.167905
0
LINE
8
BLACK
6
CONTINUOUS
10
1.31006
20
0.167905
11
1.31307
21
0.168504
0
LINE
8
BLACK
6
CONTINUOUS
10
1.31307
20
0.168504
11
1.44693
21
0.168504
0
LINE
8
BLACK
6
CONTINUOUS
10
1.44693
20
0.168504
11
1.44994
21
0.167905
0
LINE
8
BLACK
6
CONTINUOUS
10
2.20994
20
0.167905
11
2.2125
21
0.166198
0
LINE
8
BLACK
6
CONTINUOUS
10
2.2125
20
0.166198
11
2.2142
21
0.163643
0
LINE
8
BLACK
6
CONTINUOUS
10
2.2142
20
0.163643
11
2.2148
21
0.16063
0
LINE
8
BLACK
6
CONTINUOUS
10
2.2148
20
0.16063
11
2.2148
21
0.0858268
0
LINE
8
BLACK
6
CONTINUOUS
10
2.2148
20
0.0858268
11
2.2142
21
0.0828135
0
LINE
8
BLACK
6
CONTINUOUS
10
2.2142
20
0.0828135
11
2.2125
21
0.080259
0
LINE
8
BLACK
6
CONTINUOUS
10
2.2125
20
0.080259
11
2.20994
21
0.0785521
0
LINE
8
BLACK
6
CONTINUOUS
10
2.20994
20
0.0785521
11
2.20693
21
0.0779528
0
LINE
8
BLACK
6
CONTINUOUS
10
2.20693
20
0.0779528
11
2.07307
21
0.0779528
0
LINE
8
BLACK
6
CONTINUOUS
10
2.07307
20
0.0779528
11
2.07006
21
0.0785521
0
LINE
8
BLACK
6
CONTINUOUS
10
2.07006
20
0.0785521
11
2.0675
21
0.080259
0
LINE
8
BLACK
6
CONTINUOUS
10
2.0675
20
0.080259
11
2.0658
21
0.0828135
0
LINE
8
BLACK
6
CONTINUOUS
10
2.0658
20
0.0828135
11
2.0652
21
0.0858268
0
LINE
8
BLACK
6
CONTINUOUS
10
2.0652
20
0.0858268
11
2.0652
21
0.16063
0
LINE
8
BLACK
6
CONTINUOUS
10
2.0652
20
0.16063
11
2.0658
21
0.163643
0
LINE
8
BLACK
6
CONTINUOUS
10
2.0658
20
0.163643
11
2.0675
21
0.166198
0
LINE
8
BLACK
6
CONTINUOUS
10
2.0675
20
0.166198
11
2.07006
21
0.167905
0
LINE
8
BLACK
6
CONTINUOUS
10
2.07006
20
0.167905
11
2.07307
21
0.168504
0
LINE
8
BLACK
6
CONTINUOUS
10
2.07307
20
0.168504
11
2.20693
21
0.168504
0
LINE
8
BLACK
6
CONTINUOUS
10
2.20693
20
0.168504
11
2.20994
21
0.167905
0
LINE
8
BLACK
6
CONTINUOUS
10
3.04829
20
0.168692
11
3.05084
21
0.166985
0
LINE
8
BLACK
6
CONTINUOUS
10
3.05084
20
0.166985
11
3.05255
21
0.164431
0
LINE
8
BLACK
6
CONTINUOUS
10
3.05255
20
0.164431
11
3.05315
21
0.161417
0
LINE
8
BLACK
6
CONTINUOUS
10
3.05315
20
0.161417
11
3.05315
21
0.0866142
0
LINE
8
BLACK
6
CONTINUOUS
10
3.05315
20
0.0866142
11
3.05255
21
0.0836009
0
LINE
8
BLACK
6
CONTINUOUS
10
3.05255
20
0.0836009
11
3.05084
21
0.0810464
0
LINE
8
BLACK
6
CONTINUOUS
10
3.05084
20
0.0810464
11
3.04829
21
0.0793395
0
LINE
8
BLACK
6
CONTINUOUS
10
3.04829
20
0.0793395
11
3.04528
21
0.0787402
0
LINE
8
BLACK
6
CONTINUOUS
10
3.04528
20
0.0787402
11
2.91142
21
0.0787402
0
LINE
8
BLACK
6
CONTINUOUS
10
2.91142
20
0.0787402
11
2.9084
21
0.0793395
0
LINE
8
BLACK
6
CONTINUOUS
10
2.9084
20
0.0793395
11
2.90585
21
0.0810464
0
LINE
8
BLACK
6
CONTINUOUS
10
2.90585
20
0.0810464
11
2.90414
21
0.0836009
0
LINE
8
BLACK
6
CONTINUOUS
10
2.90414
20
0.0836009
11
2.90354
21
0.0866142
0
LINE
8
BLACK
6
CONTINUOUS
10
2.90354
20
0.0866142
11
2.90354
21
0.161417
0
LINE
8
BLACK
6
CONTINUOUS
10
2.90354
20
0.161417
11
2.90414
21
0.164431
0
LINE
8
BLACK
6
CONTINUOUS
10
2.90414
20
0.164431
11
2.90585
21
0.166985
0
LINE
8
BLACK
6
CONTINUOUS
10
2.90585
20
0.166985
11
2.9084
21
0.168692
0
LINE
8
BLACK
6
CONTINUOUS
10
2.9084
20
0.168692
11
2.91142
21
0.169291
0
LINE
8
BLACK
6
CONTINUOUS
10
2.91142
20
0.169291
11
3.04528
21
0.169291
0
LINE
8
BLACK
6
CONTINUOUS
10
3.04528
20
0.169291
11
3.04829
21
0.168692
0
LINE
8
BLACK
6
CONTINUOUS
10
0.688053
20
0.168692
11
0.690607
21
0.166985
0
LINE
8
BLACK
6
CONTINUOUS
10
0.690607
20
0.166985
11
0.692314
21
0.164431
0
LINE
8
BLACK
6
CONTINUOUS
10
0.692314
20
0.164431
11
0.692913
21
0.161417
0
LINE
8
BLACK
6
CONTINUOUS
10
0.692913
20
0.161417
11
0.692913
21
0.0866142
0
LINE
8
BLACK
6
CONTINUOUS
10
0.692913
20
0.0866142
11
0.692314
21
0.0836009
0
LINE
8
BLACK
6
CONTINUOUS
10
0.692314
20
0.0836009
11
0.690607
21
0.0810464
0
LINE
8
BLACK
6
CONTINUOUS
10
0.690607
20
0.0810464
11
0.688053
21
0.0793395
0
LINE
8
BLACK
6
CONTINUOUS
10
0.688053
20
0.0793395
11
0.685039
21
0.0787402
0
LINE
8
BLACK
6
CONTINUOUS
10
0.685039
20
0.0787402
11
0.551181
21
0.0787402
0
LINE
8
BLACK
6
CONTINUOUS
10
0.551181
20
0.0787402
11
0.548168
21
0.0793395
0
LINE
8
BLACK
6
CONTINUOUS
10
0.548168
20
0.0793395
11
0.545613
21
0.0810464
0
LINE
8
BLACK
6
CONTINUOUS
10
0.545613
20
0.0810464
11
0.543906
21
0.0836009
0
LINE
8
BLACK
6
CONTINUOUS
10
0.543906
20
0.0836009
11
0.543307
21
0.0866142
0
LINE
8
BLACK
6
CONTINUOUS
10
0.543307
20
0.0866142
11
0.543307
21
0.161417
0
LINE
8
BLACK
6
CONTINUOUS
10
0.543307
20
0.161417
11
0.543906
21
0.164431
0
LINE
8
BLACK
6
CONTINUOUS
10
0.543906
20
0.164431
11
0.545613
21
0.166985
0
LINE
8
BLACK
6
CONTINUOUS
10
0.545613
20
0.166985
11
0.548168
21
0.168692
0
LINE
8
BLACK
6
CONTINUOUS
10
0.548168
20
0.168692
11
0.551181
21
0.169291
0
LINE
8
BLACK
6
CONTINUOUS
10
0.551181
20
0.169291
11
0.685039
21
0.169291
0
LINE
8
BLACK
6
CONTINUOUS
10
0.685039
20
0.169291
11
0.688053
21
0.168692
0
LINE
8
BLACK
6
CONTINUOUS
10
3.39081
20
0.168692
11
3.39336
21
0.166985
0
LINE
8
BLACK
6
CONTINUOUS
10
3.39336
20
0.166985
11
3.39507
21
0.164431
0
LINE
8
BLACK
6
CONTINUOUS
10
3.39507
20
0.164431
11
3.39567
21
0.161417
0
LINE
8
BLACK
6
CONTINUOUS
10
3.39567
20
0.161417
11
3.39567
21
0.0866142
0
LINE
8
BLACK
6
CONTINUOUS
10
3.39567
20
0.0866142
11
3.39507
21
0.0836009
0
LINE
8
BLACK
6
CONTINUOUS
10
3.39507
20
0.0836009
11
3.39336
21
0.0810464
0
LINE
8
BLACK
6
CONTINUOUS
10
3.39336
20
0.0810464
11
3.39081
21
0.0793395
0
LINE
8
BLACK
6
CONTINUOUS
10
3.39081
20
0.0793395
11
3.3878
21
0.0787402
0
LINE
8
BLACK
6
CONTINUOUS
10
3.3878
20
0.0787402
11
3.25394
21
0.0787402
0
LINE
8
BLACK
6
CONTINUOUS
10
3.25394
20
0.0787402
11
3.25092
21
0.0793395
0
LINE
8
BLACK
6
CONTINUOUS
10
3.25092
20
0.0793395
11
3.24837
21
0.0810464
0
LINE
8
BLACK
6
CONTINUOUS
10
3.24837
20
0.0810464
11
3.24666
21
0.0836009
0
LINE
8
BLACK
6
CONTINUOUS
10
3.24666
20
0.0836009
11
3.24606
21
0.0866142
0
LINE
8
BLACK
6
CONTINUOUS
10
3.24606
20
0.0866142
11
3.24606
21
0.161417
0
LINE
8
BLACK
6
CONTINUOUS
10
3.24606
20
0.161417
11
3.24666
21
0.164431
0
LINE
8
BLACK
6
CONTINUOUS
10
3.24666
20
0.164431
11
3.24837
21
0.166985
0
LINE
8
BLACK
6
CONTINUOUS
10
3.24837
20
0.166985
11
3.25092
21
0.168692
0
LINE
8
BLACK
6
CONTINUOUS
10
3.25092
20
0.168692
11
3.25394
21
0.169291
0
LINE
8
BLACK
6
CONTINUOUS
10
3.25394
20
0.169291
11
3.3878
21
0.169291
0
LINE
8
BLACK
6
CONTINUOUS
10
3.3878
20
0.169291
11
3.39081
21
0.168692
0
LINE
8
BLACK
6
CONTINUOUS
10
3.90978
20
0.190592
11
3.91475
21
0.188846
0
LINE
8
BLACK
6
CONTINUOUS
10
3.91475
20
0.188846
11
3.91898
21
0.185716
0
LINE
8
BLACK
6
CONTINUOUS
10
3.91898
20
0.185716
11
3.92211
21
0.181479
0
LINE
8
BLACK
6
CONTINUOUS
10
3.92211
20
0.181479
11
3.92386
21
0.176509
0
LINE
8
BLACK
6
CONTINUOUS
10
3.92386
20
0.176509
11
3.92417
21
0.173189
0
LINE
8
BLACK
6
CONTINUOUS
10
3.92417
20
0.173189
11
3.92417
21
0.153504
0
LINE
8
BLACK
6
CONTINUOUS
10
3.92417
20
0.153504
11
3.92386
21
0.150184
0
LINE
8
BLACK
6
CONTINUOUS
10
3.92386
20
0.150184
11
3.92211
21
0.145214
0
LINE
8
BLACK
6
CONTINUOUS
10
3.92211
20
0.145214
11
3.91898
21
0.140976
0
LINE
8
BLACK
6
CONTINUOUS
10
3.91898
20
0.140976
11
3.91475
21
0.137847
0
LINE
8
BLACK
6
CONTINUOUS
10
3.91475
20
0.137847
11
3.90978
21
0.136101
0
LINE
8
BLACK
6
CONTINUOUS
10
3.90978
20
0.136101
11
3.90646
21
0.135787
0
LINE
8
BLACK
6
CONTINUOUS
10
3.90646
20
0.135787
11
3.81984
21
0.135787
0
LINE
8
BLACK
6
CONTINUOUS
10
3.81984
20
0.135787
11
3.81652
21
0.136101
0
LINE
8
BLACK
6
CONTINUOUS
10
3.81652
20
0.136101
11
3.81155
21
0.137847
0
LINE
8
BLACK
6
CONTINUOUS
10
3.81155
20
0.137847
11
3.80732
21
0.140976
0
LINE
8
BLACK
6
CONTINUOUS
10
3.80732
20
0.140976
11
3.80419
21
0.145214
0
LINE
8
BLACK
6
CONTINUOUS
10
3.80419
20
0.145214
11
3.80244
21
0.150184
0
LINE
8
BLACK
6
CONTINUOUS
10
3.80244
20
0.150184
11
3.80213
21
0.153504
0
LINE
8
BLACK
6
CONTINUOUS
10
3.80213
20
0.153504
11
3.80213
21
0.173189
0
LINE
8
BLACK
6
CONTINUOUS
10
3.80213
20
0.173189
11
3.80244
21
0.176509
0
LINE
8
BLACK
6
CONTINUOUS
10
3.80244
20
0.176509
11
3.80419
21
0.181479
0
LINE
8
BLACK
6
CONTINUOUS
10
3.80419
20
0.181479
11
3.80732
21
0.185716
0
LINE
8
BLACK
6
CONTINUOUS
10
3.80732
20
0.185716
11
3.81155
21
0.188846
0
LINE
8
BLACK
6
CONTINUOUS
10
3.81155
20
0.188846
11
3.81652
21
0.190592
0
LINE
8
BLACK
6
CONTINUOUS
10
3.81652
20
0.190592
11
3.81984
21
0.190906
0
LINE
8
BLACK
6
CONTINUOUS
10
3.81984
20
0.190906
11
3.90646
21
0.190906
0
LINE
8
BLACK
6
CONTINUOUS
10
3.90646
20
0.190906
11
3.90978
21
0.190592
0
LINE
8
BLACK
6
CONTINUOUS
10
3.76866
20
0.255292
11
3.77273
21
0.253305
0
LINE
8
BLACK
6
CONTINUOUS
10
3.77273
20
0.253305
11
3.77593
21
0.250108
0
LINE
8
BLACK
6
CONTINUOUS
10
3.77593
20
0.250108
11
3.77792
21
0.246046
0
LINE
8
BLACK
6
CONTINUOUS
10
3.77792
20
0.246046
11
3.7785
21
0.242087
0
LINE
8
BLACK
6
CONTINUOUS
10
3.7785
20
0.242087
11
3.7785
21
0.230276
0
LINE
8
BLACK
6
CONTINUOUS
10
3.7785
20
0.230276
11
3.77793
21
0.226339
0
LINE
8
BLACK
6
CONTINUOUS
10
3.77793
20
0.226339
11
3.77594
21
0.222274
0
LINE
8
BLACK
6
CONTINUOUS
10
3.77594
20
0.222274
11
3.77275
21
0.219071
0
LINE
8
BLACK
6
CONTINUOUS
10
3.77275
20
0.219071
11
3.76868
21
0.217077
0
LINE
8
BLACK
6
CONTINUOUS
10
3.76868
20
0.217077
11
3.76472
21
0.216496
0
LINE
8
BLACK
6
CONTINUOUS
10
3.76472
20
0.216496
11
3.70961
21
0.216496
0
LINE
8
BLACK
6
CONTINUOUS
10
3.70961
20
0.216496
11
3.70567
21
0.21707
0
LINE
8
BLACK
6
CONTINUOUS
10
3.70567
20
0.21707
11
3.7016
21
0.219057
0
LINE
8
BLACK
6
CONTINUOUS
10
3.7016
20
0.219057
11
3.6984
21
0.222254
0
LINE
8
BLACK
6
CONTINUOUS
10
3.6984
20
0.222254
11
3.69641
21
0.226316
0
LINE
8
BLACK
6
CONTINUOUS
10
3.69641
20
0.226316
11
3.69583
21
0.230276
0
LINE
8
BLACK
6
CONTINUOUS
10
3.69583
20
0.230276
11
3.69583
21
0.242087
0
LINE
8
BLACK
6
CONTINUOUS
10
3.69583
20
0.242087
11
3.6964
21
0.246023
0
LINE
8
BLACK
6
CONTINUOUS
10
3.6964
20
0.246023
11
3.69839
21
0.250088
0
LINE
8
BLACK
6
CONTINUOUS
10
3.69839
20
0.250088
11
3.70158
21
0.253291
0
LINE
8
BLACK
6
CONTINUOUS
10
3.70158
20
0.253291
11
3.70565
21
0.255285
0
LINE
8
BLACK
6
CONTINUOUS
10
3.70565
20
0.255285
11
3.70961
21
0.255866
0
LINE
8
BLACK
6
CONTINUOUS
10
3.70961
20
0.255866
11
3.76472
21
0.255866
0
LINE
8
BLACK
6
CONTINUOUS
10
3.76472
20
0.255866
11
3.76866
21
0.255292
0
LINE
8
BLACK
6
CONTINUOUS
10
1.44994
20
0.321448
11
1.4525
21
0.319741
0
LINE
8
BLACK
6
CONTINUOUS
10
1.4525
20
0.319741
11
1.4542
21
0.317186
0
LINE
8
BLACK
6
CONTINUOUS
10
1.4542
20
0.317186
11
1.4548
21
0.314173
0
LINE
8
BLACK
6
CONTINUOUS
10
1.4548
20
0.314173
11
1.4548
21
0.23937
0
LINE
8
BLACK
6
CONTINUOUS
10
1.4548
20
0.23937
11
1.4542
21
0.236357
0
LINE
8
BLACK
6
CONTINUOUS
10
1.4542
20
0.236357
11
1.4525
21
0.233802
0
LINE
8
BLACK
6
CONTINUOUS
10
1.4525
20
0.233802
11
1.44994
21
0.232095
0
LINE
8
BLACK
6
CONTINUOUS
10
1.44994
20
0.232095
11
1.44693
21
0.231496
0
LINE
8
BLACK
6
CONTINUOUS
10
1.44693
20
0.231496
11
1.31307
21
0.231496
0
LINE
8
BLACK
6
CONTINUOUS
10
1.31307
20
0.231496
11
1.31006
21
0.232095
0
LINE
8
BLACK
6
CONTINUOUS
10
1.31006
20
0.232095
11
1.3075
21
0.233802
0
LINE
8
BLACK
6
CONTINUOUS
10
1.3075
20
0.233802
11
1.3058
21
0.236357
0
LINE
8
BLACK
6
CONTINUOUS
10
1.3058
20
0.236357
11
1.3052
21
0.23937
0
LINE
8
BLACK
6
CONTINUOUS
10
1.3052
20
0.23937
11
1.3052
21
0.314173
0
LINE
8
BLACK
6
CONTINUOUS
10
1.3052
20
0.314173
11
1.3058
21
0.317186
0
LINE
8
BLACK
6
CONTINUOUS
10
1.3058
20
0.317186
11
1.3075
21
0.319741
0
LINE
8
BLACK
6
CONTINUOUS
10
1.3075
20
0.319741
11
1.31006
21
0.321448
0
LINE
8
BLACK
6
CONTINUOUS
10
1.31006
20
0.321448
11
1.31307
21
0.322047
0
LINE
8
BLACK
6
CONTINUOUS
10
1.31307
20
0.322047
11
1.44693
21
0.322047
0
LINE
8
BLACK
6
CONTINUOUS
10
1.44693
20
0.322047
11
1.44994
21
0.321448
0
LINE
8
BLACK
6
CONTINUOUS
10
2.20994
20
0.321448
11
2.2125
21
0.319741
0
LINE
8
BLACK
6
CONTINUOUS
10
2.2125
20
0.319741
11
2.2142
21
0.317186
0
LINE
8
BLACK
6
CONTINUOUS
10
2.2142
20
0.317186
11
2.2148
21
0.314173
0
LINE
8
BLACK
6
CONTINUOUS
10
2.2148
20
0.314173
11
2.2148
21
0.23937
0
LINE
8
BLACK
6
CONTINUOUS
10
2.2148
20
0.23937
11
2.2142
21
0.236357
0
LINE
8
BLACK
6
CONTINUOUS
10
2.2142
20
0.236357
11
2.2125
21
0.233802
0
LINE
8
BLACK
6
CONTINUOUS
10
2.2125
20
0.233802
11
2.20994
21
0.232095
0
LINE
8
BLACK
6
CONTINUOUS
10
2.20994
20
0.232095
11
2.20693
21
0.231496
0
LINE
8
BLACK
6
CONTINUOUS
10
2.20693
20
0.231496
11
2.07307
21
0.231496
0
LINE
8
BLACK
6
CONTINUOUS
10
2.07307
20
0.231496
11
2.07006
21
0.232095
0
LINE
8
BLACK
6
CONTINUOUS
10
2.07006
20
0.232095
11
2.0675
21
0.233802
0
LINE
8
BLACK
6
CONTINUOUS
10
2.0675
20
0.233802
11
2.0658
21
0.236357
0
LINE
8
BLACK
6
CONTINUOUS
10
2.0658
20
0.236357
11
2.0652
21
0.23937
0
LINE
8
BLACK
6
CONTINUOUS
10
2.0652
20
0.23937
11
2.0652
21
0.314173
0
LINE
8
BLACK
6
CONTINUOUS
10
2.0652
20
0.314173
11
2.0658
21
0.317186
0
LINE
8
BLACK
6
CONTINUOUS
10
2.0658
20
0.317186
11
2.0675
21
0.319741
0
LINE
8
BLACK
6
CONTINUOUS
10
2.0675
20
0.319741
11
2.07006
21
0.321448
0
LINE
8
BLACK
6
CONTINUOUS
10
2.07006
20
0.321448
11
2.07307
21
0.322047
0
LINE
8
BLACK
6
CONTINUOUS
10
2.07307
20
0.322047
11
2.20693
21
0.322047
0
LINE
8
BLACK
6
CONTINUOUS
10
2.20693
20
0.322047
11
2.20994
21
0.321448
0
LINE
8
BLACK
6
CONTINUOUS
10
3.39081
20
0.322235
11
3.39336
21
0.320528
0
LINE
8
BLACK
6
CONTINUOUS
10
3.39336
20
0.320528
11
3.39507
21
0.317974
0
LINE
8
BLACK
6
CONTINUOUS
10
3.39507
20
0.317974
11
3.39567
21
0.314961
0
LINE
8
BLACK
6
CONTINUOUS
10
3.39567
20
0.314961
11
3.39567
21
0.240157
0
LINE
8
BLACK
6
CONTINUOUS
10
3.39567
20
0.240157
11
3.39507
21
0.237144
0
LINE
8
BLACK
6
CONTINUOUS
10
3.39507
20
0.237144
11
3.39336
21
0.23459
0
LINE
8
BLACK
6
CONTINUOUS
10
3.39336
20
0.23459
11
3.39081
21
0.232883
0
LINE
8
BLACK
6
CONTINUOUS
10
3.39081
20
0.232883
11
3.3878
21
0.232283
0
LINE
8
BLACK
6
CONTINUOUS
10
3.3878
20
0.232283
11
3.25394
21
0.232283
0
LINE
8
BLACK
6
CONTINUOUS
10
3.25394
20
0.232283
11
3.25092
21
0.232883
0
LINE
8
BLACK
6
CONTINUOUS
10
3.25092
20
0.232883
11
3.24837
21
0.23459
0
LINE
8
BLACK
6
CONTINUOUS
10
3.24837
20
0.23459
11
3.24666
21
0.237144
0
LINE
8
BLACK
6
CONTINUOUS
10
3.24666
20
0.237144
11
3.24606
21
0.240157
0
LINE
8
BLACK
6
CONTINUOUS
10
3.24606
20
0.240157
11
3.24606
21
0.314961
0
LINE
8
BLACK
6
CONTINUOUS
10
3.24606
20
0.314961
11
3.24666
21
0.317974
0
LINE
8
BLACK
6
CONTINUOUS
10
3.24666
20
0.317974
11
3.24837
21
0.320528
0
LINE
8
BLACK
6
CONTINUOUS
10
3.24837
20
0.320528
11
3.25092
21
0.322235
0
LINE
8
BLACK
6
CONTINUOUS
10
3.25092
20
0.322235
11
3.25394
21
0.322835
0
LINE
8
BLACK
6
CONTINUOUS
10
3.25394
20
0.322835
11
3.3878
21
0.322835
0
LINE
8
BLACK
6
CONTINUOUS
10
3.3878
20
0.322835
11
3.39081
21
0.322235
0
LINE
8
BLACK
6
CONTINUOUS
10
3.04829
20
0.322235
11
3.05084
21
0.320528
0
LINE
8
BLACK
6
CONTINUOUS
10
3.05084
20
0.320528
11
3.05255
21
0.317974
0
LINE
8
BLACK
6
CONTINUOUS
10
3.05255
20
0.317974
11
3.05315
21
0.314961
0
LINE
8
BLACK
6
CONTINUOUS
10
3.05315
20
0.314961
11
3.05315
21
0.240157
0
LINE
8
BLACK
6
CONTINUOUS
10
3.05315
20
0.240157
11
3.05255
21
0.237144
0
LINE
8
BLACK
6
CONTINUOUS
10
3.05255
20
0.237144
11
3.05084
21
0.23459
0
LINE
8
BLACK
6
CONTINUOUS
10
3.05084
20
0.23459
11
3.04829
21
0.232883
0
LINE
8
BLACK
6
CONTINUOUS
10
3.04829
20
0.232883
11
3.04528
21
0.232283
0
LINE
8
BLACK
6
CONTINUOUS
10
3.04528
20
0.232283
11
2.91142
21
0.232283
0
LINE
8
BLACK
6
CONTINUOUS
10
2.91142
20
0.232283
11
2.9084
21
0.232883
0
LINE
8
BLACK
6
CONTINUOUS
10
2.9084
20
0.232883
11
2.90585
21
0.23459
0
LINE
8
BLACK
6
CONTINUOUS
10
2.90585
20
0.23459
11
2.90414
21
0.237144
0
LINE
8
BLACK
6
CONTINUOUS
10
2.90414
20
0.237144
11
2.90354
21
0.240157
0
LINE
8
BLACK
6
CONTINUOUS
10
2.90354
20
0.240157
11
2.90354
21
0.314961
0
LINE
8
BLACK
6
CONTINUOUS
10
2.90354
20
0.314961
11
2.90414
21
0.317974
0
LINE
8
BLACK
6
CONTINUOUS
10
2.90414
20
0.317974
11
2.90585
21
0.320528
0
LINE
8
BLACK
6
CONTINUOUS
10
2.90585
20
0.320528
11
2.9084
21
0.322235
0
LINE
8
BLACK
6
CONTINUOUS
10
2.9084
20
0.322235
11
2.91142
21
0.322835
0
LINE
8
BLACK
6
CONTINUOUS
10
2.91142
20
0.322835
11
3.04528
21
0.322835
0
LINE
8
BLACK
6
CONTINUOUS
10
3.04528
20
0.322835
11
3.04829
21
0.322235
0
LINE
8
BLACK
6
CONTINUOUS
10
0.688053
20
0.322235
11
0.690607
21
0.320528
0
LINE
8
BLACK
6
CONTINUOUS
10
0.690607
20
0.320528
11
0.692314
21
0.317974
0
LINE
8
BLACK
6
CONTINUOUS
10
0.692314
20
0.317974
11
0.692913
21
0.314961
0
LINE
8
BLACK
6
CONTINUOUS
10
0.692913
20
0.314961
11
0.692913
21
0.240157
0
LINE
8
BLACK
6
CONTINUOUS
10
0.692913
20
0.240157
11
0.692314
21
0.237144
0
LINE
8
BLACK
6
CONTINUOUS
10
0.692314
20
0.237144
11
0.690607
21
0.23459
0
LINE
8
BLACK
6
CONTINUOUS
10
0.690607
20
0.23459
11
0.688053
21
0.232883
0
LINE
8
BLACK
6
CONTINUOUS
10
0.688053
20
0.232883
11
0.685039
21
0.232283
0
LINE
8
BLACK
6
CONTINUOUS
10
0.685039
20
0.232283
11
0.551181
21
0.232283
0
LINE
8
BLACK
6
CONTINUOUS
10
0.551181
20
0.232283
11
0.548168
21
0.232883
0
LINE
8
BLACK
6
CONTINUOUS
10
0.548168
20
0.232883
11
0.545613
21
0.23459
0
LINE
8
BLACK
6
CONTINUOUS
10
0.545613
20
0.23459
11
0.543906
21
0.237144
0
LINE
8
BLACK
6
CONTINUOUS
10
0.543906
20
0.237144
11
0.543307
21
0.240157
0
LINE
8
BLACK
6
CONTINUOUS
10
0.543307
20
0.240157
11
0.543307
21
0.314961
0
LINE
8
BLACK
6
CONTINUOUS
10
0.543307
20
0.314961
11
0.543906
21
0.317974
0
LINE
8
BLACK
6
CONTINUOUS
10
0.543906
20
0.317974
11
0.545613
21
0.320528
0
LINE
8
BLACK
6
CONTINUOUS
10
0.545613
20
0.320528
11
0.548168
21
0.322235
0
LINE
8
BLACK
6
CONTINUOUS
10
0.548168
20
0.322235
11
0.551181
21
0.322835
0
LINE
8
BLACK
6
CONTINUOUS
10
0.551181
20
0.322835
11
0.685039
21
0.322835
0
LINE
8
BLACK
6
CONTINUOUS
10
0.685039
20
0.322835
11
0.688053
21
0.322235
0
LINE
8
BLACK
6
CONTINUOUS
10
3.76866
20
0.304504
11
3.77273
21
0.302517
0
LINE
8
BLACK
6
CONTINUOUS
10
3.77273
20
0.302517
11
3.77593
21
0.299321
0
LINE
8
BLACK
6
CONTINUOUS
10
3.77593
20
0.299321
11
3.77792
21
0.295259
0
LINE
8
BLACK
6
CONTINUOUS
10
3.77792
20
0.295259
11
3.7785
21
0.291299
0
LINE
8
BLACK
6
CONTINUOUS
10
3.7785
20
0.291299
11
3.7785
21
0.279488
0
LINE
8
BLACK
6
CONTINUOUS
10
3.7785
20
0.279488
11
3.77793
21
0.275552
0
LINE
8
BLACK
6
CONTINUOUS
10
3.77793
20
0.275552
11
3.77594
21
0.271486
0
LINE
8
BLACK
6
CONTINUOUS
10
3.77594
20
0.271486
11
3.77275
21
0.268284
0
LINE
8
BLACK
6
CONTINUOUS
10
3.77275
20
0.268284
11
3.76868
21
0.26629
0
LINE
8
BLACK
6
CONTINUOUS
10
3.76868
20
0.26629
11
3.76472
21
0.265709
0
LINE
8
BLACK
6
CONTINUOUS
10
3.76472
20
0.265709
11
3.70961
21
0.265709
0
LINE
8
BLACK
6
CONTINUOUS
10
3.70961
20
0.265709
11
3.70567
21
0.266283
0
LINE
8
BLACK
6
CONTINUOUS
10
3.70567
20
0.266283
11
3.7016
21
0.26827
0
LINE
8
BLACK
6
CONTINUOUS
10
3.7016
20
0.26827
11
3.6984
21
0.271467
0
LINE
8
BLACK
6
CONTINUOUS
10
3.6984
20
0.271467
11
3.69641
21
0.275529
0
LINE
8
BLACK
6
CONTINUOUS
10
3.69641
20
0.275529
11
3.69583
21
0.279488
0
LINE
8
BLACK
6
CONTINUOUS
10
3.69583
20
0.279488
11
3.69583
21
0.291299
0
LINE
8
BLACK
6
CONTINUOUS
10
3.69583
20
0.291299
11
3.6964
21
0.295236
0
LINE
8
BLACK
6
CONTINUOUS
10
3.6964
20
0.295236
11
3.69839
21
0.299301
0
LINE
8
BLACK
6
CONTINUOUS
10
3.69839
20
0.299301
11
3.70158
21
0.302503
0
LINE
8
BLACK
6
CONTINUOUS
10
3.70158
20
0.302503
11
3.70565
21
0.304498
0
LINE
8
BLACK
6
CONTINUOUS
10
3.70565
20
0.304498
11
3.70961
21
0.305079
0
LINE
8
BLACK
6
CONTINUOUS
10
3.70961
20
0.305079
11
3.76472
21
0.305079
0
LINE
8
BLACK
6
CONTINUOUS
10
3.76472
20
0.305079
11
3.76866
21
0.304504
0
LINE
8
BLACK
6
CONTINUOUS
10
3.76866
20
0.353717
11
3.77273
21
0.35173
0
LINE
8
BLACK
6
CONTINUOUS
10
3.77273
20
0.35173
11
3.77593
21
0.348533
0
LINE
8
BLACK
6
CONTINUOUS
10
3.77593
20
0.348533
11
3.77792
21
0.344471
0
LINE
8
BLACK
6
CONTINUOUS
10
3.77792
20
0.344471
11
3.7785
21
0.340512
0
LINE
8
BLACK
6
CONTINUOUS
10
3.7785
20
0.340512
11
3.7785
21
0.328701
0
LINE
8
BLACK
6
CONTINUOUS
10
3.7785
20
0.328701
11
3.77793
21
0.324764
0
LINE
8
BLACK
6
CONTINUOUS
10
3.77793
20
0.324764
11
3.77594
21
0.320699
0
LINE
8
BLACK
6
CONTINUOUS
10
3.77594
20
0.320699
11
3.77275
21
0.317497
0
LINE
8
BLACK
6
CONTINUOUS
10
3.77275
20
0.317497
11
3.76868
21
0.315502
0
LINE
8
BLACK
6
CONTINUOUS
10
3.76868
20
0.315502
11
3.76472
21
0.314921
0
LINE
8
BLACK
6
CONTINUOUS
10
3.76472
20
0.314921
11
3.70961
21
0.314921
0
LINE
8
BLACK
6
CONTINUOUS
10
3.70961
20
0.314921
11
3.70567
21
0.315496
0
LINE
8
BLACK
6
CONTINUOUS
10
3.70567
20
0.315496
11
3.7016
21
0.317483
0
LINE
8
BLACK
6
CONTINUOUS
10
3.7016
20
0.317483
11
3.6984
21
0.320679
0
LINE
8
BLACK
6
CONTINUOUS
10
3.6984
20
0.320679
11
3.69641
21
0.324741
0
LINE
8
BLACK
6
CONTINUOUS
10
3.69641
20
0.324741
11
3.69583
21
0.328701
0
LINE
8
BLACK
6
CONTINUOUS
10
3.69583
20
0.328701
11
3.69583
21
0.340512
0
LINE
8
BLACK
6
CONTINUOUS
10
3.69583
20
0.340512
11
3.6964
21
0.344448
0
LINE
8
BLACK
6
CONTINUOUS
10
3.6964
20
0.344448
11
3.69839
21
0.348514
0
LINE
8
BLACK
6
CONTINUOUS
10
3.69839
20
0.348514
11
3.70158
21
0.351716
0
LINE
8
BLACK
6
CONTINUOUS
10
3.70158
20
0.351716
11
3.70565
21
0.35371
0
LINE
8
BLACK
6
CONTINUOUS
10
3.70565
20
0.35371
11
3.70961
21
0.354291
0
LINE
8
BLACK
6
CONTINUOUS
10
3.70961
20
0.354291
11
3.76472
21
0.354291
0
LINE
8
BLACK
6
CONTINUOUS
10
3.76472
20
0.354291
11
3.76866
21
0.353717
0
LINE
8
BLACK
6
CONTINUOUS
10
3.76866
20
0.40293
11
3.77273
21
0.400943
0
LINE
8
BLACK
6
CONTINUOUS
10
3.77273
20
0.400943
11
3.77593
21
0.397746
0
LINE
8
BLACK
6
CONTINUOUS
10
3.77593
20
0.397746
11
3.77792
21
0.393684
0
LINE
8
BLACK
6
CONTINUOUS
10
3.77792
20
0.393684
11
3.7785
21
0.389724
0
LINE
8
BLACK
6
CONTINUOUS
10
3.7785
20
0.389724
11
3.7785
21
0.377913
0
LINE
8
BLACK
6
CONTINUOUS
10
3.7785
20
0.377913
11
3.77793
21
0.373977
0
LINE
8
BLACK
6
CONTINUOUS
10
3.77793
20
0.373977
11
3.77594
21
0.369912
0
LINE
8
BLACK
6
CONTINUOUS
10
3.77594
20
0.369912
11
3.77275
21
0.366709
0
LINE
8
BLACK
6
CONTINUOUS
10
3.77275
20
0.366709
11
3.76868
21
0.364715
0
LINE
8
BLACK
6
CONTINUOUS
10
3.76868
20
0.364715
11
3.76472
21
0.364134
0
LINE
8
BLACK
6
CONTINUOUS
10
3.76472
20
0.364134
11
3.70961
21
0.364134
0
LINE
8
BLACK
6
CONTINUOUS
10
3.70961
20
0.364134
11
3.70567
21
0.364708
0
LINE
8
BLACK
6
CONTINUOUS
10
3.70567
20
0.364708
11
3.7016
21
0.366695
0
LINE
8
BLACK
6
CONTINUOUS
10
3.7016
20
0.366695
11
3.6984
21
0.369892
0
LINE
8
BLACK
6
CONTINUOUS
10
3.6984
20
0.369892
11
3.69641
21
0.373954
0
LINE
8
BLACK
6
CONTINUOUS
10
3.69641
20
0.373954
11
3.69583
21
0.377913
0
LINE
8
BLACK
6
CONTINUOUS
10
3.69583
20
0.377913
11
3.69583
21
0.389724
0
LINE
8
BLACK
6
CONTINUOUS
10
3.69583
20
0.389724
11
3.6964
21
0.393661
0
LINE
8
BLACK
6
CONTINUOUS
10
3.6964
20
0.393661
11
3.69839
21
0.397726
0
LINE
8
BLACK
6
CONTINUOUS
10
3.69839
20
0.397726
11
3.70158
21
0.400929
0
LINE
8
BLACK
6
CONTINUOUS
10
3.70158
20
0.400929
11
3.70565
21
0.402923
0
LINE
8
BLACK
6
CONTINUOUS
10
3.70565
20
0.402923
11
3.70961
21
0.403504
0
LINE
8
BLACK
6
CONTINUOUS
10
3.70961
20
0.403504
11
3.76472
21
0.403504
0
LINE
8
BLACK
6
CONTINUOUS
10
3.76472
20
0.403504
11
3.76866
21
0.40293
0
LINE
8
BLACK
6
CONTINUOUS
10
3.53374
20
0.511148
11
3.5441
21
0.509459
0
LINE
8
BLACK
6
CONTINUOUS
10
3.5441
20
0.509459
11
3.55411
21
0.506257
0
LINE
8
BLACK
6
CONTINUOUS
10
3.55411
20
0.506257
11
3.56353
21
0.501611
0
LINE
8
BLACK
6
CONTINUOUS
10
3.56353
20
0.501611
11
3.57216
21
0.495625
0
LINE
8
BLACK
6
CONTINUOUS
10
3.57216
20
0.495625
11
3.57981
21
0.488428
0
LINE
8
BLACK
6
CONTINUOUS
10
3.57981
20
0.488428
11
3.58631
21
0.480179
0
LINE
8
BLACK
6
CONTINUOUS
10
3.58631
20
0.480179
11
3.59152
21
0.47106
0
LINE
8
BLACK
6
CONTINUOUS
10
3.59152
20
0.47106
11
3.59533
21
0.46127
0
LINE
8
BLACK
6
CONTINUOUS
10
3.59533
20
0.46127
11
3.59765
21
0.451026
0
LINE
8
BLACK
6
CONTINUOUS
10
3.59765
20
0.451026
11
3.59843
21
0.440551
0
LINE
8
BLACK
6
CONTINUOUS
10
3.59843
20
0.440551
11
3.59833
21
0.436842
0
LINE
8
BLACK
6
CONTINUOUS
10
3.59833
20
0.436842
11
3.597
21
0.426423
0
LINE
8
BLACK
6
CONTINUOUS
10
3.597
20
0.426423
11
3.59415
21
0.416314
0
LINE
8
BLACK
6
CONTINUOUS
10
3.59415
20
0.416314
11
3.58984
21
0.406737
0
LINE
8
BLACK
6
CONTINUOUS
10
3.58984
20
0.406737
11
3.58416
21
0.397903
0
LINE
8
BLACK
6
CONTINUOUS
10
3.58416
20
0.397903
11
3.57723
21
0.390006
0
LINE
8
BLACK
6
CONTINUOUS
10
3.57723
20
0.390006
11
3.56921
21
0.383219
0
LINE
8
BLACK
6
CONTINUOUS
10
3.56921
20
0.383219
11
3.56028
21
0.377692
0
LINE
8
BLACK
6
CONTINUOUS
10
3.56028
20
0.377692
11
3.55063
21
0.373546
0
LINE
8
BLACK
6
CONTINUOUS
10
3.55063
20
0.373546
11
3.54047
21
0.370872
0
LINE
8
BLACK
6
CONTINUOUS
10
3.54047
20
0.370872
11
3.53003
21
0.369728
0
LINE
8
BLACK
6
CONTINUOUS
10
3.53003
20
0.369728
11
3.51954
21
0.370141
0
LINE
8
BLACK
6
CONTINUOUS
10
3.51954
20
0.370141
11
3.50922
21
0.3721
0
LINE
8
BLACK
6
CONTINUOUS
10
3.50922
20
0.3721
11
3.4993
21
0.375563
0
LINE
8
BLACK
6
CONTINUOUS
10
3.4993
20
0.375563
11
3.49001
21
0.380453
0
LINE
8
BLACK
6
CONTINUOUS
10
3.49001
20
0.380453
11
3.48154
21
0.386664
0
LINE
8
BLACK
6
CONTINUOUS
10
3.48154
20
0.386664
11
3.47408
21
0.394059
0
LINE
8
BLACK
6
CONTINUOUS
10
3.47408
20
0.394059
11
3.46779
21
0.402475
0
LINE
8
BLACK
6
CONTINUOUS
10
3.46779
20
0.402475
11
3.46282
21
0.411727
0
LINE
8
BLACK
6
CONTINUOUS
10
3.46282
20
0.411727
11
3.45927
21
0.421613
0
LINE
8
BLACK
6
CONTINUOUS
10
3.45927
20
0.421613
11
3.45722
21
0.431915
0
LINE
8
BLACK
6
CONTINUOUS
10
3.45722
20
0.431915
11
3.45672
21
0.442406
0
LINE
8
BLACK
6
CONTINUOUS
10
3.45672
20
0.442406
11
3.45777
21
0.452857
0
LINE
8
BLACK
6
CONTINUOUS
10
3.45777
20
0.452857
11
3.46035
21
0.463037
0
LINE
8
BLACK
6
CONTINUOUS
10
3.46035
20
0.463037
11
3.46442
21
0.472724
0
LINE
8
BLACK
6
CONTINUOUS
10
3.46442
20
0.472724
11
3.46987
21
0.481703
0
LINE
8
BLACK
6
CONTINUOUS
10
3.46987
20
0.481703
11
3.47658
21
0.489779
0
LINE
8
BLACK
6
CONTINUOUS
10
3.47658
20
0.489779
11
3.48442
21
0.496773
0
LINE
8
BLACK
6
CONTINUOUS
10
3.48442
20
0.496773
11
3.4932
21
0.502532
0
LINE
8
BLACK
6
CONTINUOUS
10
3.4932
20
0.502532
11
3.50274
21
0.50693
0
LINE
8
BLACK
6
CONTINUOUS
10
3.50274
20
0.50693
11
3.51283
21
0.509869
0
LINE
8
BLACK
6
CONTINUOUS
10
3.51283
20
0.509869
11
3.52323
21
0.511285
0
LINE
8
BLACK
6
CONTINUOUS
10
3.52323
20
0.511285
11
3.53374
21
0.511148
0
LINE
8
BLACK
6
CONTINUOUS
10
2.77389
20
0.511148
11
2.78426
21
0.509459
0
LINE
8
BLACK
6
CONTINUOUS
10
2.78426
20
0.509459
11
2.79426
21
0.506257
0
LINE
8
BLACK
6
CONTINUOUS
10
2.79426
20
0.506257
11
2.80368
21
0.501611
0
LINE
8
BLACK
6
CONTINUOUS
10
2.80368
20
0.501611
11
2.81231
21
0.495625
0
LINE
8
BLACK
6
CONTINUOUS
10
2.81231
20
0.495625
11
2.81996
21
0.488428
0
LINE
8
BLACK
6
CONTINUOUS
10
2.81996
20
0.488428
11
2.82647
21
0.480179
0
LINE
8
BLACK
6
CONTINUOUS
10
2.82647
20
0.480179
11
2.83168
21
0.47106
0
LINE
8
BLACK
6
CONTINUOUS
10
2.83168
20
0.47106
11
2.83549
21
0.46127
0
LINE
8
BLACK
6
CONTINUOUS
10
2.83549
20
0.46127
11
2.8378
21
0.451026
0
LINE
8
BLACK
6
CONTINUOUS
10
2.8378
20
0.451026
11
2.83858
21
0.440551
0
LINE
8
BLACK
6
CONTINUOUS
10
2.83858
20
0.440551
11
2.83849
21
0.436842
0
LINE
8
BLACK
6
CONTINUOUS
10
2.83849
20
0.436842
11
2.83716
21
0.426423
0
LINE
8
BLACK
6
CONTINUOUS
10
2.83716
20
0.426423
11
2.83431
21
0.416314
0
LINE
8
BLACK
6
CONTINUOUS
10
2.83431
20
0.416314
11
2.82999
21
0.406737
0
LINE
8
BLACK
6
CONTINUOUS
10
2.82999
20
0.406737
11
2.82431
21
0.397903
0
LINE
8
BLACK
6
CONTINUOUS
10
2.82431
20
0.397903
11
2.81739
21
0.390006
0
LINE
8
BLACK
6
CONTINUOUS
10
2.81739
20
0.390006
11
2.80937
21
0.383219
0
LINE
8
BLACK
6
CONTINUOUS
10
2.80937
20
0.383219
11
2.80044
21
0.377692
0
LINE
8
BLACK
6
CONTINUOUS
10
2.80044
20
0.377692
11
2.79079
21
0.373546
0
LINE
8
BLACK
6
CONTINUOUS
10
2.79079
20
0.373546
11
2.78063
21
0.370872
0
LINE
8
BLACK
6
CONTINUOUS
10
2.78063
20
0.370872
11
2.77019
21
0.369728
0
LINE
8
BLACK
6
CONTINUOUS
10
2.77019
20
0.369728
11
2.75969
21
0.370141
0
LINE
8
BLACK
6
CONTINUOUS
10
2.75969
20
0.370141
11
2.74938
21
0.3721
0
LINE
8
BLACK
6
CONTINUOUS
10
2.74938
20
0.3721
11
2.73946
21
0.375563
0
LINE
8
BLACK
6
CONTINUOUS
10
2.73946
20
0.375563
11
2.73016
21
0.380453
0
LINE
8
BLACK
6
CONTINUOUS
10
2.73016
20
0.380453
11
2.72169
21
0.386664
0
LINE
8
BLACK
6
CONTINUOUS
10
2.72169
20
0.386664
11
2.71423
21
0.394059
0
LINE
8
BLACK
6
CONTINUOUS
10
2.71423
20
0.394059
11
2.70795
21
0.402475
0
LINE
8
BLACK
6
CONTINUOUS
10
2.70795
20
0.402475
11
2.70298
21
0.411727
0
LINE
8
BLACK
6
CONTINUOUS
10
2.70298
20
0.411727
11
2.69943
21
0.421613
0
LINE
8
BLACK
6
CONTINUOUS
10
2.69943
20
0.421613
11
2.69738
21
0.431915
0
LINE
8
BLACK
6
CONTINUOUS
10
2.69738
20
0.431915
11
2.69687
21
0.442406
0
LINE
8
BLACK
6
CONTINUOUS
10
2.69687
20
0.442406
11
2.69793
21
0.452857
0
LINE
8
BLACK
6
CONTINUOUS
10
2.69793
20
0.452857
11
2.70051
21
0.463037
0
LINE
8
BLACK
6
CONTINUOUS
10
2.70051
20
0.463037
11
2.70457
21
0.472724
0
LINE
8
BLACK
6
CONTINUOUS
10
2.70457
20
0.472724
11
2.71002
21
0.481703
0
LINE
8
BLACK
6
CONTINUOUS
10
2.71002
20
0.481703
11
2.71674
21
0.489779
0
LINE
8
BLACK
6
CONTINUOUS
10
2.71674
20
0.489779
11
2.72458
21
0.496773
0
LINE
8
BLACK
6
CONTINUOUS
10
2.72458
20
0.496773
11
2.73336
21
0.502532
0
LINE
8
BLACK
6
CONTINUOUS
10
2.73336
20
0.502532
11
2.7429
21
0.50693
0
LINE
8
BLACK
6
CONTINUOUS
10
2.7429
20
0.50693
11
2.75298
21
0.509869
0
LINE
8
BLACK
6
CONTINUOUS
10
2.75298
20
0.509869
11
2.76339
21
0.511285
0
LINE
8
BLACK
6
CONTINUOUS
10
2.76339
20
0.511285
11
2.77389
21
0.511148
0
LINE
8
BLACK
6
CONTINUOUS
10
1.18118
20
0.511344
11
1.19154
21
0.509656
0
LINE
8
BLACK
6
CONTINUOUS
10
1.19154
20
0.509656
11
1.20155
21
0.506454
0
LINE
8
BLACK
6
CONTINUOUS
10
1.20155
20
0.506454
11
1.21097
21
0.501808
0
LINE
8
BLACK
6
CONTINUOUS
10
1.21097
20
0.501808
11
1.2196
21
0.495821
0
LINE
8
BLACK
6
CONTINUOUS
10
1.2196
20
0.495821
11
1.22725
21
0.488624
0
LINE
8
BLACK
6
CONTINUOUS
10
1.22725
20
0.488624
11
1.23375
21
0.480376
0
LINE
8
BLACK
6
CONTINUOUS
10
1.23375
20
0.480376
11
1.23896
21
0.471257
0
LINE
8
BLACK
6
CONTINUOUS
10
1.23896
20
0.471257
11
1.24277
21
0.461467
0
LINE
8
BLACK
6
CONTINUOUS
10
1.24277
20
0.461467
11
1.24509
21
0.451223
0
LINE
8
BLACK
6
CONTINUOUS
10
1.24509
20
0.451223
11
1.24587
21
0.440748
0
LINE
8
BLACK
6
CONTINUOUS
10
1.24587
20
0.440748
11
1.24577
21
0.437039
0
LINE
8
BLACK
6
CONTINUOUS
10
1.24577
20
0.437039
11
1.24444
21
0.42662
0
LINE
8
BLACK
6
CONTINUOUS
10
1.24444
20
0.42662
11
1.24159
21
0.41651
0
LINE
8
BLACK
6
CONTINUOUS
10
1.24159
20
0.41651
11
1.23728
21
0.406934
0
LINE
8
BLACK
6
CONTINUOUS
10
1.23728
20
0.406934
11
1.2316
21
0.3981
0
LINE
8
BLACK
6
CONTINUOUS
10
1.2316
20
0.3981
11
1.22467
21
0.390203
0
LINE
8
BLACK
6
CONTINUOUS
10
1.22467
20
0.390203
11
1.21665
21
0.383416
0
LINE
8
BLACK
6
CONTINUOUS
10
1.21665
20
0.383416
11
1.20772
21
0.377889
0
LINE
8
BLACK
6
CONTINUOUS
10
1.20772
20
0.377889
11
1.19807
21
0.373743
0
LINE
8
BLACK
6
CONTINUOUS
10
1.19807
20
0.373743
11
1.18791
21
0.371069
0
LINE
8
BLACK
6
CONTINUOUS
10
1.18791
20
0.371069
11
1.17747
21
0.369925
0
LINE
8
BLACK
6
CONTINUOUS
10
1.17747
20
0.369925
11
1.16698
21
0.370337
0
LINE
8
BLACK
6
CONTINUOUS
10
1.16698
20
0.370337
11
1.15666
21
0.372297
0
LINE
8
BLACK
6
CONTINUOUS
10
1.15666
20
0.372297
11
1.14674
21
0.37576
0
LINE
8
BLACK
6
CONTINUOUS
10
1.14674
20
0.37576
11
1.13745
21
0.38065
0
LINE
8
BLACK
6
CONTINUOUS
10
1.13745
20
0.38065
11
1.12898
21
0.386861
0
LINE
8
BLACK
6
CONTINUOUS
10
1.12898
20
0.386861
11
1.12152
21
0.394256
0
LINE
8
BLACK
6
CONTINUOUS
10
1.12152
20
0.394256
11
1.11523
21
0.402672
0
LINE
8
BLACK
6
CONTINUOUS
10
1.11523
20
0.402672
11
1.11026
21
0.411924
0
LINE
8
BLACK
6
CONTINUOUS
10
1.11026
20
0.411924
11
1.10671
21
0.42181
0
LINE
8
BLACK
6
CONTINUOUS
10
1.10671
20
0.42181
11
1.10466
21
0.432112
0
LINE
8
BLACK
6
CONTINUOUS
10
1.10466
20
0.432112
11
1.10416
21
0.442603
0
LINE
8
BLACK
6
CONTINUOUS
10
1.10416
20
0.442603
11
1.10521
21
0.453054
0
LINE
8
BLACK
6
CONTINUOUS
10
1.10521
20
0.453054
11
1.1078
21
0.463234
0
LINE
8
BLACK
6
CONTINUOUS
10
1.1078
20
0.463234
11
1.11186
21
0.472921
0
LINE
8
BLACK
6
CONTINUOUS
10
1.11186
20
0.472921
11
1.11731
21
0.4819
0
LINE
8
BLACK
6
CONTINUOUS
10
1.11731
20
0.4819
11
1.12402
21
0.489976
0
LINE
8
BLACK
6
CONTINUOUS
10
1.12402
20
0.489976
11
1.13186
21
0.49697
0
LINE
8
BLACK
6
CONTINUOUS
10
1.13186
20
0.49697
11
1.14064
21
0.502729
0
LINE
8
BLACK
6
CONTINUOUS
10
1.14064
20
0.502729
11
1.15018
21
0.507126
0
LINE
8
BLACK
6
CONTINUOUS
10
1.15018
20
0.507126
11
1.16027
21
0.510066
0
LINE
8
BLACK
6
CONTINUOUS
10
1.16027
20
0.510066
11
1.17067
21
0.511482
0
LINE
8
BLACK
6
CONTINUOUS
10
1.17067
20
0.511482
11
1.18118
21
0.511344
0
LINE
8
BLACK
6
CONTINUOUS
10
1.94102
20
0.511344
11
1.95139
21
0.509656
0
LINE
8
BLACK
6
CONTINUOUS
10
1.95139
20
0.509656
11
1.96139
21
0.506454
0
LINE
8
BLACK
6
CONTINUOUS
10
1.96139
20
0.506454
11
1.97081
21
0.501808
0
LINE
8
BLACK
6
CONTINUOUS
10
1.97081
20
0.501808
11
1.97944
21
0.495821
0
LINE
8
BLACK
6
CONTINUOUS
10
1.97944
20
0.495821
11
1.98709
21
0.488624
0
LINE
8
BLACK
6
CONTINUOUS
10
1.98709
20
0.488624
11
1.99359
21
0.480376
0
LINE
8
BLACK
6
CONTINUOUS
10
1.99359
20
0.480376
11
1.99881
21
0.471257
0
LINE
8
BLACK
6
CONTINUOUS
10
1.99881
20
0.471257
11
2.00261
21
0.461467
0
LINE
8
BLACK
6
CONTINUOUS
10
2.00261
20
0.461467
11
2.00493
21
0.451223
0
LINE
8
BLACK
6
CONTINUOUS
10
2.00493
20
0.451223
11
2.00571
21
0.440748
0
LINE
8
BLACK
6
CONTINUOUS
10
2.00571
20
0.440748
11
2.00561
21
0.437039
0
LINE
8
BLACK
6
CONTINUOUS
10
2.00561
20
0.437039
11
2.00429
21
0.42662
0
LINE
8
BLACK
6
CONTINUOUS
10
2.00429
20
0.42662
11
2.00143
21
0.41651
0
LINE
8
BLACK
6
CONTINUOUS
10
2.00143
20
0.41651
11
1.99712
21
0.406934
0
LINE
8
BLACK
6
CONTINUOUS
10
1.99712
20
0.406934
11
1.99144
21
0.3981
0
LINE
8
BLACK
6
CONTINUOUS
10
1.99144
20
0.3981
11
1.98451
21
0.390203
0
LINE
8
BLACK
6
CONTINUOUS
10
1.98451
20
0.390203
11
1.9765
21
0.383416
0
LINE
8
BLACK
6
CONTINUOUS
10
1.9765
20
0.383416
11
1.96756
21
0.377889
0
LINE
8
BLACK
6
CONTINUOUS
10
1.96756
20
0.377889
11
1.95791
21
0.373743
0
LINE
8
BLACK
6
CONTINUOUS
10
1.95791
20
0.373743
11
1.94776
21
0.371069
0
LINE
8
BLACK
6
CONTINUOUS
10
1.94776
20
0.371069
11
1.93732
21
0.369925
0
LINE
8
BLACK
6
CONTINUOUS
10
1.93732
20
0.369925
11
1.92682
21
0.370337
0
LINE
8
BLACK
6
CONTINUOUS
10
1.92682
20
0.370337
11
1.9165
21
0.372297
0
LINE
8
BLACK
6
CONTINUOUS
10
1.9165
20
0.372297
11
1.90658
21
0.37576
0
LINE
8
BLACK
6
CONTINUOUS
10
1.90658
20
0.37576
11
1.89729
21
0.38065
0
LINE
8
BLACK
6
CONTINUOUS
10
1.89729
20
0.38065
11
1.88882
21
0.386861
0
LINE
8
BLACK
6
CONTINUOUS
10
1.88882
20
0.386861
11
1.88136
21
0.394256
0
LINE
8
BLACK
6
CONTINUOUS
10
1.88136
20
0.394256
11
1.87507
21
0.402672
0
LINE
8
BLACK
6
CONTINUOUS
10
1.87507
20
0.402672
11
1.8701
21
0.411924
0
LINE
8
BLACK
6
CONTINUOUS
10
1.8701
20
0.411924
11
1.86655
21
0.42181
0
LINE
8
BLACK
6
CONTINUOUS
10
1.86655
20
0.42181
11
1.8645
21
0.432112
0
LINE
8
BLACK
6
CONTINUOUS
10
1.8645
20
0.432112
11
1.864
21
0.442603
0
LINE
8
BLACK
6
CONTINUOUS
10
1.864
20
0.442603
11
1.86505
21
0.453054
0
LINE
8
BLACK
6
CONTINUOUS
10
1.86505
20
0.453054
11
1.86764
21
0.463234
0
LINE
8
BLACK
6
CONTINUOUS
10
1.86764
20
0.463234
11
1.8717
21
0.472921
0
LINE
8
BLACK
6
CONTINUOUS
10
1.8717
20
0.472921
11
1.87715
21
0.4819
0
LINE
8
BLACK
6
CONTINUOUS
10
1.87715
20
0.4819
11
1.88387
21
0.489976
0
LINE
8
BLACK
6
CONTINUOUS
10
1.88387
20
0.489976
11
1.8917
21
0.49697
0
LINE
8
BLACK
6
CONTINUOUS
10
1.8917
20
0.49697
11
1.90049
21
0.502729
0
LINE
8
BLACK
6
CONTINUOUS
10
1.90049
20
0.502729
11
1.91002
21
0.507126
0
LINE
8
BLACK
6
CONTINUOUS
10
1.91002
20
0.507126
11
1.92011
21
0.510066
0
LINE
8
BLACK
6
CONTINUOUS
10
1.92011
20
0.510066
11
1.93052
21
0.511482
0
LINE
8
BLACK
6
CONTINUOUS
10
1.93052
20
0.511482
11
1.94102
21
0.511344
0
LINE
8
BLACK
6
CONTINUOUS
10
0.421334
20
0.511344
11
0.431701
21
0.509656
0
LINE
8
BLACK
6
CONTINUOUS
10
0.431701
20
0.509656
11
0.441704
21
0.506454
0
LINE
8
BLACK
6
CONTINUOUS
10
0.441704
20
0.506454
11
0.451125
21
0.501808
0
LINE
8
BLACK
6
CONTINUOUS
10
0.451125
20
0.501808
11
0.459755
21
0.495821
0
LINE
8
BLACK
6
CONTINUOUS
10
0.459755
20
0.495821
11
0.467405
21
0.488624
0
LINE
8
BLACK
6
CONTINUOUS
10
0.467405
20
0.488624
11
0.473908
21
0.480376
0
LINE
8
BLACK
6
CONTINUOUS
10
0.473908
20
0.480376
11
0.47912
21
0.471257
0
LINE
8
BLACK
6
CONTINUOUS
10
0.47912
20
0.471257
11
0.482927
21
0.461467
0
LINE
8
BLACK
6
CONTINUOUS
10
0.482927
20
0.461467
11
0.485245
21
0.451223
0
LINE
8
BLACK
6
CONTINUOUS
10
0.485245
20
0.451223
11
0.486024
21
0.440748
0
LINE
8
BLACK
6
CONTINUOUS
10
0.486024
20
0.440748
11
0.485926
21
0.437039
0
LINE
8
BLACK
6
CONTINUOUS
10
0.485926
20
0.437039
11
0.484601
21
0.42662
0
LINE
8
BLACK
6
CONTINUOUS
10
0.484601
20
0.42662
11
0.48175
21
0.41651
0
LINE
8
BLACK
6
CONTINUOUS
10
0.48175
20
0.41651
11
0.477436
21
0.406934
0
LINE
8
BLACK
6
CONTINUOUS
10
0.477436
20
0.406934
11
0.471754
21
0.3981
0
LINE
8
BLACK
6
CONTINUOUS
10
0.471754
20
0.3981
11
0.464828
21
0.390203
0
LINE
8
BLACK
6
CONTINUOUS
10
0.464828
20
0.390203
11
0.456812
21
0.383416
0
LINE
8
BLACK
6
CONTINUOUS
10
0.456812
20
0.383416
11
0.44788
21
0.377889
0
LINE
8
BLACK
6
CONTINUOUS
10
0.44788
20
0.377889
11
0.438229
21
0.373743
0
LINE
8
BLACK
6
CONTINUOUS
10
0.438229
20
0.373743
11
0.428072
21
0.371069
0
LINE
8
BLACK
6
CONTINUOUS
10
0.428072
20
0.371069
11
0.417631
21
0.369925
0
LINE
8
BLACK
6
CONTINUOUS
10
0.417631
20
0.369925
11
0.407135
21
0.370337
0
LINE
8
BLACK
6
CONTINUOUS
10
0.407135
20
0.370337
11
0.396816
21
0.372297
0
LINE
8
BLACK
6
CONTINUOUS
10
0.396816
20
0.372297
11
0.3869
21
0.37576
0
LINE
8
BLACK
6
CONTINUOUS
10
0.3869
20
0.37576
11
0.377604
21
0.38065
0
LINE
8
BLACK
6
CONTINUOUS
10
0.377604
20
0.38065
11
0.369134
21
0.386861
0
LINE
8
BLACK
6
CONTINUOUS
10
0.369134
20
0.386861
11
0.361674
21
0.394256
0
LINE
8
BLACK
6
CONTINUOUS
10
0.361674
20
0.394256
11
0.35539
21
0.402672
0
LINE
8
BLACK
6
CONTINUOUS
10
0.35539
20
0.402672
11
0.350418
21
0.411924
0
LINE
8
BLACK
6
CONTINUOUS
10
0.350418
20
0.411924
11
0.346869
21
0.42181
0
LINE
8
BLACK
6
CONTINUOUS
10
0.346869
20
0.42181
11
0.34482
21
0.432112
0
LINE
8
BLACK
6
CONTINUOUS
10
0.34482
20
0.432112
11
0.344316
21
0.442603
0
LINE
8
BLACK
6
CONTINUOUS
10
0.344316
20
0.442603
11
0.345368
21
0.453054
0
LINE
8
BLACK
6
CONTINUOUS
10
0.345368
20
0.453054
11
0.347953
21
0.463234
0
LINE
8
BLACK
6
CONTINUOUS
10
0.347953
20
0.463234
11
0.352015
21
0.472921
0
LINE
8
BLACK
6
CONTINUOUS
10
0.352015
20
0.472921
11
0.357464
21
0.4819
0
LINE
8
BLACK
6
CONTINUOUS
10
0.357464
20
0.4819
11
0.364181
21
0.489976
0
LINE
8
BLACK
6
CONTINUOUS
10
0.364181
20
0.489976
11
0.372017
21
0.49697
0
LINE
8
BLACK
6
CONTINUOUS
10
0.372017
20
0.49697
11
0.380801
21
0.502729
0
LINE
8
BLACK
6
CONTINUOUS
10
0.380801
20
0.502729
11
0.39034
21
0.507126
0
LINE
8
BLACK
6
CONTINUOUS
10
0.39034
20
0.507126
11
0.400424
21
0.510066
0
LINE
8
BLACK
6
CONTINUOUS
10
0.400424
20
0.510066
11
0.410831
21
0.511482
0
LINE
8
BLACK
6
CONTINUOUS
10
0.410831
20
0.511482
11
0.421334
21
0.511344
0
LINE
8
BLACK
6
CONTINUOUS
10
3.90978
20
0.483899
11
3.91475
21
0.482153
0
LINE
8
BLACK
6
CONTINUOUS
10
3.91475
20
0.482153
11
3.91898
21
0.479024
0
LINE
8
BLACK
6
CONTINUOUS
10
3.91898
20
0.479024
11
3.92211
21
0.474786
0
LINE
8
BLACK
6
CONTINUOUS
10
3.92211
20
0.474786
11
3.92386
21
0.469816
0
LINE
8
BLACK
6
CONTINUOUS
10
3.92386
20
0.469816
11
3.92417
21
0.466496
0
LINE
8
BLACK
6
CONTINUOUS
10
3.92417
20
0.466496
11
3.92417
21
0.446811
0
LINE
8
BLACK
6
CONTINUOUS
10
3.92417
20
0.446811
11
3.92386
21
0.443491
0
LINE
8
BLACK
6
CONTINUOUS
10
3.92386
20
0.443491
11
3.92211
21
0.438521
0
LINE
8
BLACK
6
CONTINUOUS
10
3.92211
20
0.438521
11
3.91898
21
0.434284
0
LINE
8
BLACK
6
CONTINUOUS
10
3.91898
20
0.434284
11
3.91475
21
0.431154
0
LINE
8
BLACK
6
CONTINUOUS
10
3.91475
20
0.431154
11
3.90978
21
0.429408
0
LINE
8
BLACK
6
CONTINUOUS
10
3.90978
20
0.429408
11
3.90646
21
0.429094
0
LINE
8
BLACK
6
CONTINUOUS
10
3.90646
20
0.429094
11
3.81984
21
0.429094
0
LINE
8
BLACK
6
CONTINUOUS
10
3.81984
20
0.429094
11
3.81652
21
0.429408
0
LINE
8
BLACK
6
CONTINUOUS
10
3.81652
20
0.429408
11
3.81155
21
0.431154
0
LINE
8
BLACK
6
CONTINUOUS
10
3.81155
20
0.431154
11
3.80732
21
0.434284
0
LINE
8
BLACK
6
CONTINUOUS
10
3.80732
20
0.434284
11
3.80419
21
0.438521
0
LINE
8
BLACK
6
CONTINUOUS
10
3.80419
20
0.438521
11
3.80244
21
0.443491
0
LINE
8
BLACK
6
CONTINUOUS
10
3.80244
20
0.443491
11
3.80213
21
0.446811
0
LINE
8
BLACK
6
CONTINUOUS
10
3.80213
20
0.446811
11
3.80213
21
0.466496
0
LINE
8
BLACK
6
CONTINUOUS
10
3.80213
20
0.466496
11
3.80244
21
0.469816
0
LINE
8
BLACK
6
CONTINUOUS
10
3.80244
20
0.469816
11
3.80419
21
0.474786
0
LINE
8
BLACK
6
CONTINUOUS
10
3.80419
20
0.474786
11
3.80732
21
0.479024
0
LINE
8
BLACK
6
CONTINUOUS
10
3.80732
20
0.479024
11
3.81155
21
0.482153
0
LINE
8
BLACK
6
CONTINUOUS
10
3.81155
20
0.482153
11
3.81652
21
0.483899
0
LINE
8
BLACK
6
CONTINUOUS
10
3.81652
20
0.483899
11
3.81984
21
0.484213
0
LINE
8
BLACK
6
CONTINUOUS
10
3.81984
20
0.484213
11
3.90646
21
0.484213
0
LINE
8
BLACK
6
CONTINUOUS
10
3.90646
20
0.484213
11
3.90978
21
0.483899
0
LINE
8
BLACK
6
CONTINUOUS
10
3.21056
20
0.646104
11
3.21553
21
0.644358
0
LINE
8
BLACK
6
CONTINUOUS
10
3.21553
20
0.644358
11
3.21977
21
0.641228
0
LINE
8
BLACK
6
CONTINUOUS
10
3.21977
20
0.641228
11
3.2229
21
0.636991
0
LINE
8
BLACK
6
CONTINUOUS
10
3.2229
20
0.636991
11
3.22465
21
0.632021
0
LINE
8
BLACK
6
CONTINUOUS
10
3.22465
20
0.632021
11
3.22496
21
0.628701
0
LINE
8
BLACK
6
CONTINUOUS
10
3.22496
20
0.628701
11
3.22496
21
0.591299
0
LINE
8
BLACK
6
CONTINUOUS
10
3.22496
20
0.591299
11
3.22465
21
0.587979
0
LINE
8
BLACK
6
CONTINUOUS
10
3.22465
20
0.587979
11
3.2229
21
0.583009
0
LINE
8
BLACK
6
CONTINUOUS
10
3.2229
20
0.583009
11
3.21977
21
0.578772
0
LINE
8
BLACK
6
CONTINUOUS
10
3.21977
20
0.578772
11
3.21553
21
0.575642
0
LINE
8
BLACK
6
CONTINUOUS
10
3.21553
20
0.575642
11
3.21056
21
0.573896
0
LINE
8
BLACK
6
CONTINUOUS
10
3.21056
20
0.573896
11
3.20724
21
0.573583
0
LINE
8
BLACK
6
CONTINUOUS
10
3.20724
20
0.573583
11
3.18756
21
0.573583
0
LINE
8
BLACK
6
CONTINUOUS
10
3.18756
20
0.573583
11
3.18424
21
0.573896
0
LINE
8
BLACK
6
CONTINUOUS
10
3.18424
20
0.573896
11
3.17927
21
0.575642
0
LINE
8
BLACK
6
CONTINUOUS
10
3.17927
20
0.575642
11
3.17503
21
0.578772
0
LINE
8
BLACK
6
CONTINUOUS
10
3.17503
20
0.578772
11
3.1719
21
0.583009
0
LINE
8
BLACK
6
CONTINUOUS
10
3.1719
20
0.583009
11
3.17016
21
0.587979
0
LINE
8
BLACK
6
CONTINUOUS
10
3.17016
20
0.587979
11
3.16984
21
0.591299
0
LINE
8
BLACK
6
CONTINUOUS
10
3.16984
20
0.591299
11
3.16984
21
0.628701
0
LINE
8
BLACK
6
CONTINUOUS
10
3.16984
20
0.628701
11
3.17016
21
0.632021
0
LINE
8
BLACK
6
CONTINUOUS
10
3.17016
20
0.632021
11
3.1719
21
0.636991
0
LINE
8
BLACK
6
CONTINUOUS
10
3.1719
20
0.636991
11
3.17503
21
0.641228
0
LINE
8
BLACK
6
CONTINUOUS
10
3.17503
20
0.641228
11
3.17927
21
0.644358
0
LINE
8
BLACK
6
CONTINUOUS
10
3.17927
20
0.644358
11
3.18424
21
0.646104
0
LINE
8
BLACK
6
CONTINUOUS
10
3.18424
20
0.646104
11
3.18756
21
0.646417
0
LINE
8
BLACK
6
CONTINUOUS
10
3.18756
20
0.646417
11
3.20724
21
0.646417
0
LINE
8
BLACK
6
CONTINUOUS
10
3.20724
20
0.646417
11
3.21056
21
0.646104
0
LINE
8
BLACK
6
CONTINUOUS
10
3.13576
20
0.646104
11
3.14073
21
0.644358
0
LINE
8
BLACK
6
CONTINUOUS
10
3.14073
20
0.644358
11
3.14497
21
0.641228
0
LINE
8
BLACK
6
CONTINUOUS
10
3.14497
20
0.641228
11
3.1481
21
0.636991
0
LINE
8
BLACK
6
CONTINUOUS
10
3.1481
20
0.636991
11
3.14984
21
0.632021
0
LINE
8
BLACK
6
CONTINUOUS
10
3.14984
20
0.632021
11
3.15016
21
0.628701
0
LINE
8
BLACK
6
CONTINUOUS
10
3.15016
20
0.628701
11
3.15016
21
0.591299
0
LINE
8
BLACK
6
CONTINUOUS
10
3.15016
20
0.591299
11
3.14984
21
0.587979
0
LINE
8
BLACK
6
CONTINUOUS
10
3.14984
20
0.587979
11
3.1481
21
0.583009
0
LINE
8
BLACK
6
CONTINUOUS
10
3.1481
20
0.583009
11
3.14497
21
0.578772
0
LINE
8
BLACK
6
CONTINUOUS
10
3.14497
20
0.578772
11
3.14073
21
0.575642
0
LINE
8
BLACK
6
CONTINUOUS
10
3.14073
20
0.575642
11
3.13576
21
0.573896
0
LINE
8
BLACK
6
CONTINUOUS
10
3.13576
20
0.573896
11
3.13244
21
0.573583
0
LINE
8
BLACK
6
CONTINUOUS
10
3.13244
20
0.573583
11
3.11276
21
0.573583
0
LINE
8
BLACK
6
CONTINUOUS
10
3.11276
20
0.573583
11
3.10944
21
0.573896
0
LINE
8
BLACK
6
CONTINUOUS
10
3.10944
20
0.573896
11
3.10447
21
0.575642
0
LINE
8
BLACK
6
CONTINUOUS
10
3.10447
20
0.575642
11
3.10023
21
0.578772
0
LINE
8
BLACK
6
CONTINUOUS
10
3.10023
20
0.578772
11
3.0971
21
0.583009
0
LINE
8
BLACK
6
CONTINUOUS
10
3.0971
20
0.583009
11
3.09535
21
0.587979
0
LINE
8
BLACK
6
CONTINUOUS
10
3.09535
20
0.587979
11
3.09504
21
0.591299
0
LINE
8
BLACK
6
CONTINUOUS
10
3.09504
20
0.591299
11
3.09504
21
0.628701
0
LINE
8
BLACK
6
CONTINUOUS
10
3.09504
20
0.628701
11
3.09535
21
0.632021
0
LINE
8
BLACK
6
CONTINUOUS
10
3.09535
20
0.632021
11
3.0971
21
0.636991
0
LINE
8
BLACK
6
CONTINUOUS
10
3.0971
20
0.636991
11
3.10023
21
0.641228
0
LINE
8
BLACK
6
CONTINUOUS
10
3.10023
20
0.641228
11
3.10447
21
0.644358
0
LINE
8
BLACK
6
CONTINUOUS
10
3.10447
20
0.644358
11
3.10944
21
0.646104
0
LINE
8
BLACK
6
CONTINUOUS
10
3.10944
20
0.646104
11
3.11276
21
0.646417
0
LINE
8
BLACK
6
CONTINUOUS
10
3.11276
20
0.646417
11
3.13244
21
0.646417
0
LINE
8
BLACK
6
CONTINUOUS
10
3.13244
20
0.646417
11
3.13576
21
0.646104
0
LINE
8
BLACK
6
CONTINUOUS
10
3.62128
20
0.759479
11
3.62384
21
0.757772
0
LINE
8
BLACK
6
CONTINUOUS
10
3.62384
20
0.757772
11
3.62554
21
0.755218
0
LINE
8
BLACK
6
CONTINUOUS
10
3.62554
20
0.755218
11
3.62614
21
0.752205
0
LINE
8
BLACK
6
CONTINUOUS
10
3.62614
20
0.752205
11
3.62614
21
0.634094
0
LINE
8
BLACK
6
CONTINUOUS
10
3.62614
20
0.634094
11
3.62554
21
0.631081
0
LINE
8
BLACK
6
CONTINUOUS
10
3.62554
20
0.631081
11
3.62384
21
0.628527
0
LINE
8
BLACK
6
CONTINUOUS
10
3.62384
20
0.628527
11
3.62128
21
0.62682
0
LINE
8
BLACK
6
CONTINUOUS
10
3.62128
20
0.62682
11
3.61827
21
0.62622
0
LINE
8
BLACK
6
CONTINUOUS
10
3.61827
20
0.62622
11
3.40173
21
0.62622
0
LINE
8
BLACK
6
CONTINUOUS
10
3.40173
20
0.62622
11
3.39872
21
0.62682
0
LINE
8
BLACK
6
CONTINUOUS
10
3.39872
20
0.62682
11
3.39616
21
0.628527
0
LINE
8
BLACK
6
CONTINUOUS
10
3.39616
20
0.628527
11
3.39446
21
0.631081
0
LINE
8
BLACK
6
CONTINUOUS
10
3.39446
20
0.631081
11
3.39386
21
0.634094
0
LINE
8
BLACK
6
CONTINUOUS
10
3.39386
20
0.634094
11
3.39386
21
0.752205
0
LINE
8
BLACK
6
CONTINUOUS
10
3.39386
20
0.752205
11
3.39446
21
0.755218
0
LINE
8
BLACK
6
CONTINUOUS
10
3.39446
20
0.755218
11
3.39616
21
0.757772
0
LINE
8
BLACK
6
CONTINUOUS
10
3.39616
20
0.757772
11
3.39872
21
0.759479
0
LINE
8
BLACK
6
CONTINUOUS
10
3.39872
20
0.759479
11
3.40173
21
0.760079
0
LINE
8
BLACK
6
CONTINUOUS
10
3.40173
20
0.760079
11
3.61827
21
0.760079
0
LINE
8
BLACK
6
CONTINUOUS
10
3.61827
20
0.760079
11
3.62128
21
0.759479
0
LINE
8
BLACK
6
CONTINUOUS
10
2.9927
20
0.746802
11
2.99525
21
0.745095
0
LINE
8
BLACK
6
CONTINUOUS
10
2.99525
20
0.745095
11
2.99559
21
0.74459
0
LINE
8
BLACK
6
CONTINUOUS
10
2.99559
20
0.74459
11
2.99593
21
0.745095
0
LINE
8
BLACK
6
CONTINUOUS
10
2.99593
20
0.745095
11
2.99848
21
0.746802
0
LINE
8
BLACK
6
CONTINUOUS
10
2.99848
20
0.746802
11
3.0015
21
0.747402
0
LINE
8
BLACK
6
CONTINUOUS
10
3.0015
20
0.747402
11
3.02118
21
0.747402
0
LINE
8
BLACK
6
CONTINUOUS
10
3.02118
20
0.747402
11
3.02221
21
0.747197
0
LINE
8
BLACK
6
CONTINUOUS
10
3.02221
20
0.747197
11
3.02414
21
0.747185
0
LINE
8
BLACK
6
CONTINUOUS
10
3.02414
20
0.747185
11
3.02635
21
0.746855
0
LINE
8
BLACK
6
CONTINUOUS
10
3.02635
20
0.746855
11
3.03169
21
0.745256
0
LINE
8
BLACK
6
CONTINUOUS
10
3.03169
20
0.745256
11
3.03372
21
0.74432
0
LINE
8
BLACK
6
CONTINUOUS
10
3.03372
20
0.74432
11
3.0384
21
0.741284
0
LINE
8
BLACK
6
CONTINUOUS
10
3.0384
20
0.741284
11
3.04009
21
0.739816
0
LINE
8
BLACK
6
CONTINUOUS
10
3.04009
20
0.739816
11
3.04373
21
0.735588
0
LINE
8
BLACK
6
CONTINUOUS
10
3.04373
20
0.735588
11
3.04493
21
0.733707
0
LINE
8
BLACK
6
CONTINUOUS
10
3.04493
20
0.733707
11
3.04724
21
0.728626
0
LINE
8
BLACK
6
CONTINUOUS
10
3.04724
20
0.728626
11
3.04787
21
0.726484
0
LINE
8
BLACK
6
CONTINUOUS
10
3.04787
20
0.726484
11
3.04866
21
0.720959
0
LINE
8
BLACK
6
CONTINUOUS
10
3.04866
20
0.720959
11
3.04874
21
0.719843
0
LINE
8
BLACK
6
CONTINUOUS
10
3.04874
20
0.719843
11
3.04874
21
0.700157
0
LINE
8
BLACK
6
CONTINUOUS
10
3.04874
20
0.700157
11
3.04874
21
0.700061
0
LINE
8
BLACK
6
CONTINUOUS
10
3.04874
20
0.700061
11
3.04873
21
0.699581
0
LINE
8
BLACK
6
CONTINUOUS
10
3.04873
20
0.699581
11
3.04863
21
0.69837
0
LINE
8
BLACK
6
CONTINUOUS
10
3.04863
20
0.69837
11
3.0477
21
0.692866
0
LINE
8
BLACK
6
CONTINUOUS
10
3.0477
20
0.692866
11
3.04702
21
0.690739
0
LINE
8
BLACK
6
CONTINUOUS
10
3.04702
20
0.690739
11
3.04459
21
0.685717
0
LINE
8
BLACK
6
CONTINUOUS
10
3.04459
20
0.685717
11
3.04334
21
0.683866
0
LINE
8
BLACK
6
CONTINUOUS
10
3.04334
20
0.683866
11
3.03959
21
0.679728
0
LINE
8
BLACK
6
CONTINUOUS
10
3.03959
20
0.679728
11
3.03788
21
0.678302
0
LINE
8
BLACK
6
CONTINUOUS
10
3.03788
20
0.678302
11
3.03312
21
0.675381
0
LINE
8
BLACK
6
CONTINUOUS
10
3.03312
20
0.675381
11
3.03107
21
0.674495
0
LINE
8
BLACK
6
CONTINUOUS
10
3.03107
20
0.674495
11
3.02569
21
0.673027
0
LINE
8
BLACK
6
CONTINUOUS
10
3.02569
20
0.673027
11
3.02347
21
0.672751
0
LINE
8
BLACK
6
CONTINUOUS
10
3.02347
20
0.672751
11
3.02208
21
0.672776
0
LINE
8
BLACK
6
CONTINUOUS
10
3.02208
20
0.672776
11
3.02118
21
0.672598
0
LINE
8
BLACK
6
CONTINUOUS
10
3.02118
20
0.672598
11
3.0015
21
0.672598
0
LINE
8
BLACK
6
CONTINUOUS
10
3.0015
20
0.672598
11
2.99848
21
0.673198
0
LINE
8
BLACK
6
CONTINUOUS
10
2.99848
20
0.673198
11
2.99593
21
0.674905
0
LINE
8
BLACK
6
CONTINUOUS
10
2.99593
20
0.674905
11
2.99559
21
0.67541
0
LINE
8
BLACK
6
CONTINUOUS
10
2.99559
20
0.67541
11
2.99525
21
0.674905
0
LINE
8
BLACK
6
CONTINUOUS
10
2.99525
20
0.674905
11
2.9927
21
0.673198
0
LINE
8
BLACK
6
CONTINUOUS
10
2.9927
20
0.673198
11
2.98969
21
0.672598
0
LINE
8
BLACK
6
CONTINUOUS
10
2.98969
20
0.672598
11
2.97
21
0.672598
0
LINE
8
BLACK
6
CONTINUOUS
10
2.97
20
0.672598
11
2.96892
21
0.672812
0
LINE
8
BLACK
6
CONTINUOUS
10
2.96892
20
0.672812
11
2.96671
21
0.672853
0
LINE
8
BLACK
6
CONTINUOUS
10
2.96671
20
0.672853
11
2.9645
21
0.67321
0
LINE
8
BLACK
6
CONTINUOUS
10
2.9645
20
0.67321
11
2.95918
21
0.674874
0
LINE
8
BLACK
6
CONTINUOUS
10
2.95918
20
0.674874
11
2.95716
21
0.675835
0
LINE
8
BLACK
6
CONTINUOUS
10
2.95716
20
0.675835
11
2.95252
21
0.678928
0
LINE
8
BLACK
6
CONTINUOUS
10
2.95252
20
0.678928
11
2.95085
21
0.680416
0
LINE
8
BLACK
6
CONTINUOUS
10
2.95085
20
0.680416
11
2.94726
21
0.684689
0
LINE
8
BLACK
6
CONTINUOUS
10
2.94726
20
0.684689
11
2.94608
21
0.686584
0
LINE
8
BLACK
6
CONTINUOUS
10
2.94608
20
0.686584
11
2.94383
21
0.691693
0
LINE
8
BLACK
6
CONTINUOUS
10
2.94383
20
0.691693
11
2.94323
21
0.693843
0
LINE
8
BLACK
6
CONTINUOUS
10
2.94323
20
0.693843
11
2.94254
21
0.699136
0
LINE
8
BLACK
6
CONTINUOUS
10
2.94254
20
0.699136
11
2.94264
21
0.69915
0
LINE
8
BLACK
6
CONTINUOUS
10
2.94264
20
0.69915
11
2.94244
21
0.700157
0
LINE
8
BLACK
6
CONTINUOUS
10
2.94244
20
0.700157
11
2.94244
21
0.719843
0
LINE
8
BLACK
6
CONTINUOUS
10
2.94244
20
0.719843
11
2.94252
21
0.720257
0
LINE
8
BLACK
6
CONTINUOUS
10
2.94252
20
0.720257
11
2.94254
21
0.721294
0
LINE
8
BLACK
6
CONTINUOUS
10
2.94254
20
0.721294
11
2.94339
21
0.726809
0
LINE
8
BLACK
6
CONTINUOUS
10
2.94339
20
0.726809
11
2.94405
21
0.728944
0
LINE
8
BLACK
6
CONTINUOUS
10
2.94405
20
0.728944
11
2.94642
21
0.733996
0
LINE
8
BLACK
6
CONTINUOUS
10
2.94642
20
0.733996
11
2.94765
21
0.735862
0
LINE
8
BLACK
6
CONTINUOUS
10
2.94765
20
0.735862
11
2.95134
21
0.740046
0
LINE
8
BLACK
6
CONTINUOUS
10
2.95134
20
0.740046
11
2.95304
21
0.741493
0
LINE
8
BLACK
6
CONTINUOUS
10
2.95304
20
0.741493
11
2.95776
21
0.744471
0
LINE
8
BLACK
6
CONTINUOUS
10
2.95776
20
0.744471
11
2.9598
21
0.745383
0
LINE
8
BLACK
6
CONTINUOUS
10
2.9598
20
0.745383
11
2.96516
21
0.746916
0
LINE
8
BLACK
6
CONTINUOUS
10
2.96516
20
0.746916
11
2.96738
21
0.747219
0
LINE
8
BLACK
6
CONTINUOUS
10
2.96738
20
0.747219
11
2.96903
21
0.747209
0
LINE
8
BLACK
6
CONTINUOUS
10
2.96903
20
0.747209
11
2.97
21
0.747402
0
LINE
8
BLACK
6
CONTINUOUS
10
2.97
20
0.747402
11
2.98969
21
0.747402
0
LINE
8
BLACK
6
CONTINUOUS
10
2.98969
20
0.747402
11
2.9927
21
0.746802
0
LINE
8
BLACK
6
CONTINUOUS
10
3.13576
20
0.746104
11
3.14073
21
0.744358
0
LINE
8
BLACK
6
CONTINUOUS
10
3.14073
20
0.744358
11
3.14497
21
0.741228
0
LINE
8
BLACK
6
CONTINUOUS
10
3.14497
20
0.741228
11
3.1481
21
0.736991
0
LINE
8
BLACK
6
CONTINUOUS
10
3.1481
20
0.736991
11
3.14984
21
0.732021
0
LINE
8
BLACK
6
CONTINUOUS
10
3.14984
20
0.732021
11
3.15016
21
0.728701
0
LINE
8
BLACK
6
CONTINUOUS
10
3.15016
20
0.728701
11
3.15016
21
0.691299
0
LINE
8
BLACK
6
CONTINUOUS
10
3.15016
20
0.691299
11
3.14984
21
0.687979
0
LINE
8
BLACK
6
CONTINUOUS
10
3.14984
20
0.687979
11
3.1481
21
0.683009
0
LINE
8
BLACK
6
CONTINUOUS
10
3.1481
20
0.683009
11
3.14497
21
0.678772
0
LINE
8
BLACK
6
CONTINUOUS
10
3.14497
20
0.678772
11
3.14073
21
0.675642
0
LINE
8
BLACK
6
CONTINUOUS
10
3.14073
20
0.675642
11
3.13576
21
0.673896
0
LINE
8
BLACK
6
CONTINUOUS
10
3.13576
20
0.673896
11
3.13244
21
0.673583
0
LINE
8
BLACK
6
CONTINUOUS
10
3.13244
20
0.673583
11
3.11276
21
0.673583
0
LINE
8
BLACK
6
CONTINUOUS
10
3.11276
20
0.673583
11
3.10944
21
0.673896
0
LINE
8
BLACK
6
CONTINUOUS
10
3.10944
20
0.673896
11
3.10447
21
0.675642
0
LINE
8
BLACK
6
CONTINUOUS
10
3.10447
20
0.675642
11
3.10023
21
0.678772
0
LINE
8
BLACK
6
CONTINUOUS
10
3.10023
20
0.678772
11
3.0971
21
0.683009
0
LINE
8
BLACK
6
CONTINUOUS
10
3.0971
20
0.683009
11
3.09535
21
0.687979
0
LINE
8
BLACK
6
CONTINUOUS
10
3.09535
20
0.687979
11
3.09504
21
0.691299
0
LINE
8
BLACK
6
CONTINUOUS
10
3.09504
20
0.691299
11
3.09504
21
0.728701
0
LINE
8
BLACK
6
CONTINUOUS
10
3.09504
20
0.728701
11
3.09535
21
0.732021
0
LINE
8
BLACK
6
CONTINUOUS
10
3.09535
20
0.732021
11
3.0971
21
0.736991
0
LINE
8
BLACK
6
CONTINUOUS
10
3.0971
20
0.736991
11
3.10023
21
0.741228
0
LINE
8
BLACK
6
CONTINUOUS
10
3.10023
20
0.741228
11
3.10447
21
0.744358
0
LINE
8
BLACK
6
CONTINUOUS
10
3.10447
20
0.744358
11
3.10944
21
0.746104
0
LINE
8
BLACK
6
CONTINUOUS
10
3.10944
20
0.746104
11
3.11276
21
0.746417
0
LINE
8
BLACK
6
CONTINUOUS
10
3.11276
20
0.746417
11
3.13244
21
0.746417
0
LINE
8
BLACK
6
CONTINUOUS
10
3.13244
20
0.746417
11
3.13576
21
0.746104
0
LINE
8
BLACK
6
CONTINUOUS
10
3.21056
20
0.746104
11
3.21553
21
0.744358
0
LINE
8
BLACK
6
CONTINUOUS
10
3.21553
20
0.744358
11
3.21977
21
0.741228
0
LINE
8
BLACK
6
CONTINUOUS
10
3.21977
20
0.741228
11
3.2229
21
0.736991
0
LINE
8
BLACK
6
CONTINUOUS
10
3.2229
20
0.736991
11
3.22465
21
0.732021
0
LINE
8
BLACK
6
CONTINUOUS
10
3.22465
20
0.732021
11
3.22496
21
0.728701
0
LINE
8
BLACK
6
CONTINUOUS
10
3.22496
20
0.728701
11
3.22496
21
0.691299
0
LINE
8
BLACK
6
CONTINUOUS
10
3.22496
20
0.691299
11
3.22465
21
0.687979
0
LINE
8
BLACK
6
CONTINUOUS
10
3.22465
20
0.687979
11
3.2229
21
0.683009
0
LINE
8
BLACK
6
CONTINUOUS
10
3.2229
20
0.683009
11
3.21977
21
0.678772
0
LINE
8
BLACK
6
CONTINUOUS
10
3.21977
20
0.678772
11
3.21553
21
0.675642
0
LINE
8
BLACK
6
CONTINUOUS
10
3.21553
20
0.675642
11
3.21056
21
0.673896
0
LINE
8
BLACK
6
CONTINUOUS
10
3.21056
20
0.673896
11
3.20724
21
0.673583
0
LINE
8
BLACK
6
CONTINUOUS
10
3.20724
20
0.673583
11
3.18756
21
0.673583
0
LINE
8
BLACK
6
CONTINUOUS
10
3.18756
20
0.673583
11
3.18424
21
0.673896
0
LINE
8
BLACK
6
CONTINUOUS
10
3.18424
20
0.673896
11
3.17927
21
0.675642
0
LINE
8
BLACK
6
CONTINUOUS
10
3.17927
20
0.675642
11
3.17503
21
0.678772
0
LINE
8
BLACK
6
CONTINUOUS
10
3.17503
20
0.678772
11
3.1719
21
0.683009
0
LINE
8
BLACK
6
CONTINUOUS
10
3.1719
20
0.683009
11
3.17016
21
0.687979
0
LINE
8
BLACK
6
CONTINUOUS
10
3.17016
20
0.687979
11
3.16984
21
0.691299
0
LINE
8
BLACK
6
CONTINUOUS
10
3.16984
20
0.691299
11
3.16984
21
0.728701
0
LINE
8
BLACK
6
CONTINUOUS
10
3.16984
20
0.728701
11
3.17016
21
0.732021
0
LINE
8
BLACK
6
CONTINUOUS
10
3.17016
20
0.732021
11
3.1719
21
0.736991
0
LINE
8
BLACK
6
CONTINUOUS
10
3.1719
20
0.736991
11
3.17503
21
0.741228
0
LINE
8
BLACK
6
CONTINUOUS
10
3.17503
20
0.741228
11
3.17927
21
0.744358
0
LINE
8
BLACK
6
CONTINUOUS
10
3.17927
20
0.744358
11
3.18424
21
0.746104
0
LINE
8
BLACK
6
CONTINUOUS
10
3.18424
20
0.746104
11
3.18756
21
0.746417
0
LINE
8
BLACK
6
CONTINUOUS
10
3.18756
20
0.746417
11
3.20724
21
0.746417
0
LINE
8
BLACK
6
CONTINUOUS
10
3.20724
20
0.746417
11
3.21056
21
0.746104
0
LINE
8
BLACK
6
CONTINUOUS
10
3.07764
20
0.935616
11
3.07607
21
0.933268
0
LINE
8
BLACK
6
CONTINUOUS
10
3.07607
20
0.933268
11
3.08362
21
0.933268
0
LINE
8
BLACK
6
CONTINUOUS
10
3.08362
20
0.933268
11
3.08205
21
0.935616
0
LINE
8
BLACK
6
CONTINUOUS
10
3.08205
20
0.935616
11
3.08142
21
0.93878
0
LINE
8
BLACK
6
CONTINUOUS
10
3.08142
20
0.93878
11
3.08142
21
0.966732
0
LINE
8
BLACK
6
CONTINUOUS
10
3.08142
20
0.966732
11
3.08163
21
0.967787
0
LINE
8
BLACK
6
CONTINUOUS
10
3.08163
20
0.967787
11
3.08222
21
0.968681
0
LINE
8
BLACK
6
CONTINUOUS
10
3.08222
20
0.968681
11
3.08312
21
0.969278
0
LINE
8
BLACK
6
CONTINUOUS
10
3.08312
20
0.969278
11
3.08417
21
0.969488
0
LINE
8
BLACK
6
CONTINUOUS
10
3.08417
20
0.969488
11
3.0952
21
0.969488
0
LINE
8
BLACK
6
CONTINUOUS
10
3.0952
20
0.969488
11
3.09625
21
0.969278
0
LINE
8
BLACK
6
CONTINUOUS
10
3.09625
20
0.969278
11
3.09715
21
0.968681
0
LINE
8
BLACK
6
CONTINUOUS
10
3.09715
20
0.968681
11
3.09774
21
0.967787
0
LINE
8
BLACK
6
CONTINUOUS
10
3.09774
20
0.967787
11
3.09795
21
0.966732
0
LINE
8
BLACK
6
CONTINUOUS
10
3.09795
20
0.966732
11
3.09795
21
0.93878
0
LINE
8
BLACK
6
CONTINUOUS
10
3.09795
20
0.93878
11
3.09732
21
0.935616
0
LINE
8
BLACK
6
CONTINUOUS
10
3.09732
20
0.935616
11
3.09575
21
0.933268
0
LINE
8
BLACK
6
CONTINUOUS
10
3.09575
20
0.933268
11
3.1033
21
0.933268
0
LINE
8
BLACK
6
CONTINUOUS
10
3.1033
20
0.933268
11
3.10173
21
0.935616
0
LINE
8
BLACK
6
CONTINUOUS
10
3.10173
20
0.935616
11
3.1011
21
0.93878
0
LINE
8
BLACK
6
CONTINUOUS
10
3.1011
20
0.93878
11
3.1011
21
0.966732
0
LINE
8
BLACK
6
CONTINUOUS
10
3.1011
20
0.966732
11
3.10131
21
0.967787
0
LINE
8
BLACK
6
CONTINUOUS
10
3.10131
20
0.967787
11
3.10191
21
0.968681
0
LINE
8
BLACK
6
CONTINUOUS
10
3.10191
20
0.968681
11
3.1028
21
0.969278
0
LINE
8
BLACK
6
CONTINUOUS
10
3.1028
20
0.969278
11
3.10386
21
0.969488
0
LINE
8
BLACK
6
CONTINUOUS
10
3.10386
20
0.969488
11
3.11488
21
0.969488
0
LINE
8
BLACK
6
CONTINUOUS
10
3.11488
20
0.969488
11
3.11594
21
0.969278
0
LINE
8
BLACK
6
CONTINUOUS
10
3.11594
20
0.969278
11
3.11683
21
0.968681
0
LINE
8
BLACK
6
CONTINUOUS
10
3.11683
20
0.968681
11
3.11743
21
0.967787
0
LINE
8
BLACK
6
CONTINUOUS
10
3.11743
20
0.967787
11
3.11764
21
0.966732
0
LINE
8
BLACK
6
CONTINUOUS
10
3.11764
20
0.966732
11
3.11764
21
0.93878
0
LINE
8
BLACK
6
CONTINUOUS
10
3.11764
20
0.93878
11
3.11701
21
0.935616
0
LINE
8
BLACK
6
CONTINUOUS
10
3.11701
20
0.935616
11
3.11544
21
0.933268
0
LINE
8
BLACK
6
CONTINUOUS
10
3.11544
20
0.933268
11
3.12299
21
0.933268
0
LINE
8
BLACK
6
CONTINUOUS
10
3.12299
20
0.933268
11
3.12142
21
0.935616
0
LINE
8
BLACK
6
CONTINUOUS
10
3.12142
20
0.935616
11
3.12079
21
0.93878
0
LINE
8
BLACK
6
CONTINUOUS
10
3.12079
20
0.93878
11
3.12079
21
0.966732
0
LINE
8
BLACK
6
CONTINUOUS
10
3.12079
20
0.966732
11
3.121
21
0.967787
0
LINE
8
BLACK
6
CONTINUOUS
10
3.121
20
0.967787
11
3.12159
21
0.968681
0
LINE
8
BLACK
6
CONTINUOUS
10
3.12159
20
0.968681
11
3.12249
21
0.969278
0
LINE
8
BLACK
6
CONTINUOUS
10
3.12249
20
0.969278
11
3.12354
21
0.969488
0
LINE
8
BLACK
6
CONTINUOUS
10
3.12354
20
0.969488
11
3.13457
21
0.969488
0
LINE
8
BLACK
6
CONTINUOUS
10
3.13457
20
0.969488
11
3.13562
21
0.969278
0
LINE
8
BLACK
6
CONTINUOUS
10
3.13562
20
0.969278
11
3.13652
21
0.968681
0
LINE
8
BLACK
6
CONTINUOUS
10
3.13652
20
0.968681
11
3.13711
21
0.967787
0
LINE
8
BLACK
6
CONTINUOUS
10
3.13711
20
0.967787
11
3.13732
21
0.966732
0
LINE
8
BLACK
6
CONTINUOUS
10
3.13732
20
0.966732
11
3.13732
21
0.93878
0
LINE
8
BLACK
6
CONTINUOUS
10
3.13732
20
0.93878
11
3.13669
21
0.935616
0
LINE
8
BLACK
6
CONTINUOUS
10
3.13669
20
0.935616
11
3.13512
21
0.933268
0
LINE
8
BLACK
6
CONTINUOUS
10
3.13512
20
0.933268
11
3.14267
21
0.933268
0
LINE
8
BLACK
6
CONTINUOUS
10
3.14267
20
0.933268
11
3.1411
21
0.935616
0
LINE
8
BLACK
6
CONTINUOUS
10
3.1411
20
0.935616
11
3.14047
21
0.93878
0
LINE
8
BLACK
6
CONTINUOUS
10
3.14047
20
0.93878
11
3.14047
21
0.966732
0
LINE
8
BLACK
6
CONTINUOUS
10
3.14047
20
0.966732
11
3.14068
21
0.967787
0
LINE
8
BLACK
6
CONTINUOUS
10
3.14068
20
0.967787
11
3.14128
21
0.968681
0
LINE
8
BLACK
6
CONTINUOUS
10
3.14128
20
0.968681
11
3.14217
21
0.969278
0
LINE
8
BLACK
6
CONTINUOUS
10
3.14217
20
0.969278
11
3.14323
21
0.969488
0
LINE
8
BLACK
6
CONTINUOUS
10
3.14323
20
0.969488
11
3.15425
21
0.969488
0
LINE
8
BLACK
6
CONTINUOUS
10
3.15425
20
0.969488
11
3.15531
21
0.969278
0
LINE
8
BLACK
6
CONTINUOUS
10
3.15531
20
0.969278
11
3.1562
21
0.968681
0
LINE
8
BLACK
6
CONTINUOUS
10
3.1562
20
0.968681
11
3.1568
21
0.967787
0
LINE
8
BLACK
6
CONTINUOUS
10
3.1568
20
0.967787
11
3.15701
21
0.966732
0
LINE
8
BLACK
6
CONTINUOUS
10
3.15701
20
0.966732
11
3.15701
21
0.93878
0
LINE
8
BLACK
6
CONTINUOUS
10
3.15701
20
0.93878
11
3.15638
21
0.935616
0
LINE
8
BLACK
6
CONTINUOUS
10
3.15638
20
0.935616
11
3.15459
21
0.932933
0
LINE
8
BLACK
6
CONTINUOUS
10
3.15459
20
0.932933
11
3.15431
21
0.932748
0
LINE
8
BLACK
6
CONTINUOUS
10
3.15431
20
0.932748
11
3.15471
21
0.932668
0
LINE
8
BLACK
6
CONTINUOUS
10
3.15471
20
0.932668
11
3.15726
21
0.930961
0
LINE
8
BLACK
6
CONTINUOUS
10
3.15726
20
0.930961
11
3.15897
21
0.928407
0
LINE
8
BLACK
6
CONTINUOUS
10
3.15897
20
0.928407
11
3.15898
21
0.928346
0
LINE
8
BLACK
6
CONTINUOUS
10
3.15898
20
0.928346
11
3.17925
21
0.928346
0
LINE
8
BLACK
6
CONTINUOUS
10
3.17925
20
0.928346
11
3.18227
21
0.927747
0
LINE
8
BLACK
6
CONTINUOUS
10
3.18227
20
0.927747
11
3.18482
21
0.92604
0
LINE
8
BLACK
6
CONTINUOUS
10
3.18482
20
0.92604
11
3.18653
21
0.923486
0
LINE
8
BLACK
6
CONTINUOUS
10
3.18653
20
0.923486
11
3.18713
21
0.920472
0
LINE
8
BLACK
6
CONTINUOUS
10
3.18713
20
0.920472
11
3.18713
21
0.91063
0
LINE
8
BLACK
6
CONTINUOUS
10
3.18713
20
0.91063
11
3.18654
21
0.907677
0
LINE
8
BLACK
6
CONTINUOUS
10
3.18654
20
0.907677
11
3.18713
21
0.904724
0
LINE
8
BLACK
6
CONTINUOUS
10
3.18713
20
0.904724
11
3.18713
21
0.894882
0
LINE
8
BLACK
6
CONTINUOUS
10
3.18713
20
0.894882
11
3.18654
21
0.891929
0
LINE
8
BLACK
6
CONTINUOUS
10
3.18654
20
0.891929
11
3.18713
21
0.888976
0
LINE
8
BLACK
6
CONTINUOUS
10
3.18713
20
0.888976
11
3.18713
21
0.879134
0
LINE
8
BLACK
6
CONTINUOUS
10
3.18713
20
0.879134
11
3.18654
21
0.876181
0
LINE
8
BLACK
6
CONTINUOUS
10
3.18654
20
0.876181
11
3.18713
21
0.873228
0
LINE
8
BLACK
6
CONTINUOUS
10
3.18713
20
0.873228
11
3.18713
21
0.863386
0
LINE
8
BLACK
6
CONTINUOUS
10
3.18713
20
0.863386
11
3.18653
21
0.860373
0
LINE
8
BLACK
6
CONTINUOUS
10
3.18653
20
0.860373
11
3.18482
21
0.857818
0
LINE
8
BLACK
6
CONTINUOUS
10
3.18482
20
0.857818
11
3.18227
21
0.856111
0
LINE
8
BLACK
6
CONTINUOUS
10
3.18227
20
0.856111
11
3.17925
21
0.855512
0
LINE
8
BLACK
6
CONTINUOUS
10
3.17925
20
0.855512
11
3.15898
21
0.855512
0
LINE
8
BLACK
6
CONTINUOUS
10
3.15898
20
0.855512
11
3.15897
21
0.855451
0
LINE
8
BLACK
6
CONTINUOUS
10
3.15897
20
0.855451
11
3.15726
21
0.852897
0
LINE
8
BLACK
6
CONTINUOUS
10
3.15726
20
0.852897
11
3.15471
21
0.85119
0
LINE
8
BLACK
6
CONTINUOUS
10
3.15471
20
0.85119
11
3.15431
21
0.851111
0
LINE
8
BLACK
6
CONTINUOUS
10
3.15431
20
0.851111
11
3.15459
21
0.850925
0
LINE
8
BLACK
6
CONTINUOUS
10
3.15459
20
0.850925
11
3.15638
21
0.848243
0
LINE
8
BLACK
6
CONTINUOUS
10
3.15638
20
0.848243
11
3.15701
21
0.845079
0
LINE
8
BLACK
6
CONTINUOUS
10
3.15701
20
0.845079
11
3.15701
21
0.817126
0
LINE
8
BLACK
6
CONTINUOUS
10
3.15701
20
0.817126
11
3.1568
21
0.816071
0
LINE
8
BLACK
6
CONTINUOUS
10
3.1568
20
0.816071
11
3.1562
21
0.815177
0
LINE
8
BLACK
6
CONTINUOUS
10
3.1562
20
0.815177
11
3.15531
21
0.81458
0
LINE
8
BLACK
6
CONTINUOUS
10
3.15531
20
0.81458
11
3.15425
21
0.81437
0
LINE
8
BLACK
6
CONTINUOUS
10
3.15425
20
0.81437
11
3.14323
21
0.81437
0
LINE
8
BLACK
6
CONTINUOUS
10
3.14323
20
0.81437
11
3.14217
21
0.81458
0
LINE
8
BLACK
6
CONTINUOUS
10
3.14217
20
0.81458
11
3.14128
21
0.815177
0
LINE
8
BLACK
6
CONTINUOUS
10
3.14128
20
0.815177
11
3.14068
21
0.816071
0
LINE
8
BLACK
6
CONTINUOUS
10
3.14068
20
0.816071
11
3.14047
21
0.817126
0
LINE
8
BLACK
6
CONTINUOUS
10
3.14047
20
0.817126
11
3.14047
21
0.845079
0
LINE
8
BLACK
6
CONTINUOUS
10
3.14047
20
0.845079
11
3.1411
21
0.848243
0
LINE
8
BLACK
6
CONTINUOUS
10
3.1411
20
0.848243
11
3.14267
21
0.850591
0
LINE
8
BLACK
6
CONTINUOUS
10
3.14267
20
0.850591
11
3.13512
21
0.850591
0
LINE
8
BLACK
6
CONTINUOUS
10
3.13512
20
0.850591
11
3.13669
21
0.848243
0
LINE
8
BLACK
6
CONTINUOUS
10
3.13669
20
0.848243
11
3.13732
21
0.845079
0
LINE
8
BLACK
6
CONTINUOUS
10
3.13732
20
0.845079
11
3.13732
21
0.817126
0
LINE
8
BLACK
6
CONTINUOUS
10
3.13732
20
0.817126
11
3.13711
21
0.816071
0
LINE
8
BLACK
6
CONTINUOUS
10
3.13711
20
0.816071
11
3.13652
21
0.815177
0
LINE
8
BLACK
6
CONTINUOUS
10
3.13652
20
0.815177
11
3.13562
21
0.81458
0
LINE
8
BLACK
6
CONTINUOUS
10
3.13562
20
0.81458
11
3.13457
21
0.81437
0
LINE
8
BLACK
6
CONTINUOUS
10
3.13457
20
0.81437
11
3.12354
21
0.81437
0
LINE
8
BLACK
6
CONTINUOUS
10
3.12354
20
0.81437
11
3.12249
21
0.81458
0
LINE
8
BLACK
6
CONTINUOUS
10
3.12249
20
0.81458
11
3.12159
21
0.815177
0
LINE
8
BLACK
6
CONTINUOUS
10
3.12159
20
0.815177
11
3.121
21
0.816071
0
LINE
8
BLACK
6
CONTINUOUS
10
3.121
20
0.816071
11
3.12079
21
0.817126
0
LINE
8
BLACK
6
CONTINUOUS
10
3.12079
20
0.817126
11
3.12079
21
0.845079
0
LINE
8
BLACK
6
CONTINUOUS
10
3.12079
20
0.845079
11
3.12142
21
0.848243
0
LINE
8
BLACK
6
CONTINUOUS
10
3.12142
20
0.848243
11
3.12299
21
0.850591
0
LINE
8
BLACK
6
CONTINUOUS
10
3.12299
20
0.850591
11
3.11544
21
0.850591
0
LINE
8
BLACK
6
CONTINUOUS
10
3.11544
20
0.850591
11
3.11701
21
0.848243
0
LINE
8
BLACK
6
CONTINUOUS
10
3.11701
20
0.848243
11
3.11764
21
0.845079
0
LINE
8
BLACK
6
CONTINUOUS
10
3.11764
20
0.845079
11
3.11764
21
0.817126
0
LINE
8
BLACK
6
CONTINUOUS
10
3.11764
20
0.817126
11
3.11743
21
0.816071
0
LINE
8
BLACK
6
CONTINUOUS
10
3.11743
20
0.816071
11
3.11683
21
0.815177
0
LINE
8
BLACK
6
CONTINUOUS
10
3.11683
20
0.815177
11
3.11594
21
0.81458
0
LINE
8
BLACK
6
CONTINUOUS
10
3.11594
20
0.81458
11
3.11488
21
0.81437
0
LINE
8
BLACK
6
CONTINUOUS
10
3.11488
20
0.81437
11
3.10386
21
0.81437
0
LINE
8
BLACK
6
CONTINUOUS
10
3.10386
20
0.81437
11
3.1028
21
0.81458
0
LINE
8
BLACK
6
CONTINUOUS
10
3.1028
20
0.81458
11
3.10191
21
0.815177
0
LINE
8
BLACK
6
CONTINUOUS
10
3.10191
20
0.815177
11
3.10131
21
0.816071
0
LINE
8
BLACK
6
CONTINUOUS
10
3.10131
20
0.816071
11
3.1011
21
0.817126
0
LINE
8
BLACK
6
CONTINUOUS
10
3.1011
20
0.817126
11
3.1011
21
0.845079
0
LINE
8
BLACK
6
CONTINUOUS
10
3.1011
20
0.845079
11
3.10173
21
0.848243
0
LINE
8
BLACK
6
CONTINUOUS
10
3.10173
20
0.848243
11
3.1033
21
0.850591
0
LINE
8
BLACK
6
CONTINUOUS
10
3.1033
20
0.850591
11
3.09575
21
0.850591
0
LINE
8
BLACK
6
CONTINUOUS
10
3.09575
20
0.850591
11
3.09732
21
0.848243
0
LINE
8
BLACK
6
CONTINUOUS
10
3.09732
20
0.848243
11
3.09795
21
0.845079
0
LINE
8
BLACK
6
CONTINUOUS
10
3.09795
20
0.845079
11
3.09795
21
0.817126
0
LINE
8
BLACK
6
CONTINUOUS
10
3.09795
20
0.817126
11
3.09774
21
0.816071
0
LINE
8
BLACK
6
CONTINUOUS
10
3.09774
20
0.816071
11
3.09715
21
0.815177
0
LINE
8
BLACK
6
CONTINUOUS
10
3.09715
20
0.815177
11
3.09625
21
0.81458
0
LINE
8
BLACK
6
CONTINUOUS
10
3.09625
20
0.81458
11
3.0952
21
0.81437
0
LINE
8
BLACK
6
CONTINUOUS
10
3.0952
20
0.81437
11
3.08417
21
0.81437
0
LINE
8
BLACK
6
CONTINUOUS
10
3.08417
20
0.81437
11
3.08312
21
0.81458
0
LINE
8
BLACK
6
CONTINUOUS
10
3.08312
20
0.81458
11
3.08222
21
0.815177
0
LINE
8
BLACK
6
CONTINUOUS
10
3.08222
20
0.815177
11
3.08163
21
0.816071
0
LINE
8
BLACK
6
CONTINUOUS
10
3.08163
20
0.816071
11
3.08142
21
0.817126
0
LINE
8
BLACK
6
CONTINUOUS
10
3.08142
20
0.817126
11
3.08142
21
0.845079
0
LINE
8
BLACK
6
CONTINUOUS
10
3.08142
20
0.845079
11
3.08205
21
0.848243
0
LINE
8
BLACK
6
CONTINUOUS
10
3.08205
20
0.848243
11
3.08362
21
0.850591
0
LINE
8
BLACK
6
CONTINUOUS
10
3.08362
20
0.850591
11
3.07607
21
0.850591
0
LINE
8
BLACK
6
CONTINUOUS
10
3.07607
20
0.850591
11
3.07764
21
0.848243
0
LINE
8
BLACK
6
CONTINUOUS
10
3.07764
20
0.848243
11
3.07827
21
0.845079
0
LINE
8
BLACK
6
CONTINUOUS
10
3.07827
20
0.845079
11
3.07827
21
0.817126
0
LINE
8
BLACK
6
CONTINUOUS
10
3.07827
20
0.817126
11
3.07806
21
0.816071
0
LINE
8
BLACK
6
CONTINUOUS
10
3.07806
20
0.816071
11
3.07746
21
0.815177
0
LINE
8
BLACK
6
CONTINUOUS
10
3.07746
20
0.815177
11
3.07657
21
0.81458
0
LINE
8
BLACK
6
CONTINUOUS
10
3.07657
20
0.81458
11
3.07551
21
0.81437
0
LINE
8
BLACK
6
CONTINUOUS
10
3.07551
20
0.81437
11
3.06449
21
0.81437
0
LINE
8
BLACK
6
CONTINUOUS
10
3.06449
20
0.81437
11
3.06343
21
0.81458
0
LINE
8
BLACK
6
CONTINUOUS
10
3.06343
20
0.81458
11
3.06254
21
0.815177
0
LINE
8
BLACK
6
CONTINUOUS
10
3.06254
20
0.815177
11
3.06194
21
0.816071
0
LINE
8
BLACK
6
CONTINUOUS
10
3.06194
20
0.816071
11
3.06173
21
0.817126
0
LINE
8
BLACK
6
CONTINUOUS
10
3.06173
20
0.817126
11
3.06173
21
0.845079
0
LINE
8
BLACK
6
CONTINUOUS
10
3.06173
20
0.845079
11
3.06236
21
0.848243
0
LINE
8
BLACK
6
CONTINUOUS
10
3.06236
20
0.848243
11
3.06415
21
0.850925
0
LINE
8
BLACK
6
CONTINUOUS
10
3.06415
20
0.850925
11
3.06443
21
0.851111
0
LINE
8
BLACK
6
CONTINUOUS
10
3.06443
20
0.851111
11
3.06403
21
0.85119
0
LINE
8
BLACK
6
CONTINUOUS
10
3.06403
20
0.85119
11
3.06148
21
0.852897
0
LINE
8
BLACK
6
CONTINUOUS
10
3.06148
20
0.852897
11
3.05977
21
0.855451
0
LINE
8
BLACK
6
CONTINUOUS
10
3.05977
20
0.855451
11
3.05976
21
0.855512
0
LINE
8
BLACK
6
CONTINUOUS
10
3.05976
20
0.855512
11
3.03949
21
0.855512
0
LINE
8
BLACK
6
CONTINUOUS
10
3.03949
20
0.855512
11
3.03647
21
0.856111
0
LINE
8
BLACK
6
CONTINUOUS
10
3.03647
20
0.856111
11
3.03392
21
0.857818
0
LINE
8
BLACK
6
CONTINUOUS
10
3.03392
20
0.857818
11
3.03221
21
0.860373
0
LINE
8
BLACK
6
CONTINUOUS
10
3.03221
20
0.860373
11
3.03161
21
0.863386
0
LINE
8
BLACK
6
CONTINUOUS
10
3.03161
20
0.863386
11
3.03161
21
0.873228
0
LINE
8
BLACK
6
CONTINUOUS
10
3.03161
20
0.873228
11
3.0322
21
0.876181
0
LINE
8
BLACK
6
CONTINUOUS
10
3.0322
20
0.876181
11
3.03161
21
0.879134
0
LINE
8
BLACK
6
CONTINUOUS
10
3.03161
20
0.879134
11
3.03161
21
0.888976
0
LINE
8
BLACK
6
CONTINUOUS
10
3.03161
20
0.888976
11
3.0322
21
0.891929
0
LINE
8
BLACK
6
CONTINUOUS
10
3.0322
20
0.891929
11
3.03161
21
0.894882
0
LINE
8
BLACK
6
CONTINUOUS
10
3.03161
20
0.894882
11
3.03161
21
0.904724
0
LINE
8
BLACK
6
CONTINUOUS
10
3.03161
20
0.904724
11
3.0322
21
0.907677
0
LINE
8
BLACK
6
CONTINUOUS
10
3.0322
20
0.907677
11
3.03161
21
0.91063
0
LINE
8
BLACK
6
CONTINUOUS
10
3.03161
20
0.91063
11
3.03161
21
0.920472
0
LINE
8
BLACK
6
CONTINUOUS
10
3.03161
20
0.920472
11
3.03221
21
0.923486
0
LINE
8
BLACK
6
CONTINUOUS
10
3.03221
20
0.923486
11
3.03392
21
0.92604
0
LINE
8
BLACK
6
CONTINUOUS
10
3.03392
20
0.92604
11
3.03647
21
0.927747
0
LINE
8
BLACK
6
CONTINUOUS
10
3.03647
20
0.927747
11
3.03949
21
0.928346
0
LINE
8
BLACK
6
CONTINUOUS
10
3.03949
20
0.928346
11
3.05976
21
0.928346
0
LINE
8
BLACK
6
CONTINUOUS
10
3.05976
20
0.928346
11
3.05977
21
0.928407
0
LINE
8
BLACK
6
CONTINUOUS
10
3.05977
20
0.928407
11
3.06148
21
0.930961
0
LINE
8
BLACK
6
CONTINUOUS
10
3.06148
20
0.930961
11
3.06403
21
0.932668
0
LINE
8
BLACK
6
CONTINUOUS
10
3.06403
20
0.932668
11
3.06443
21
0.932748
0
LINE
8
BLACK
6
CONTINUOUS
10
3.06443
20
0.932748
11
3.06415
21
0.932933
0
LINE
8
BLACK
6
CONTINUOUS
10
3.06415
20
0.932933
11
3.06236
21
0.935616
0
LINE
8
BLACK
6
CONTINUOUS
10
3.06236
20
0.935616
11
3.06173
21
0.93878
0
LINE
8
BLACK
6
CONTINUOUS
10
3.06173
20
0.93878
11
3.06173
21
0.966732
0
LINE
8
BLACK
6
CONTINUOUS
10
3.06173
20
0.966732
11
3.06194
21
0.967787
0
LINE
8
BLACK
6
CONTINUOUS
10
3.06194
20
0.967787
11
3.06254
21
0.968681
0
LINE
8
BLACK
6
CONTINUOUS
10
3.06254
20
0.968681
11
3.06343
21
0.969278
0
LINE
8
BLACK
6
CONTINUOUS
10
3.06343
20
0.969278
11
3.06449
21
0.969488
0
LINE
8
BLACK
6
CONTINUOUS
10
3.06449
20
0.969488
11
3.07551
21
0.969488
0
LINE
8
BLACK
6
CONTINUOUS
10
3.07551
20
0.969488
11
3.07657
21
0.969278
0
LINE
8
BLACK
6
CONTINUOUS
10
3.07657
20
0.969278
11
3.07746
21
0.968681
0
LINE
8
BLACK
6
CONTINUOUS
10
3.07746
20
0.968681
11
3.07806
21
0.967787
0
LINE
8
BLACK
6
CONTINUOUS
10
3.07806
20
0.967787
11
3.07827
21
0.966732
0
LINE
8
BLACK
6
CONTINUOUS
10
3.07827
20
0.966732
11
3.07827
21
0.93878
0
LINE
8
BLACK
6
CONTINUOUS
10
3.07827
20
0.93878
11
3.07764
21
0.935616
0
LINE
8
BLACK
6
CONTINUOUS
10
2.96202
20
0.969844
11
2.96699
21
0.968098
0
LINE
8
BLACK
6
CONTINUOUS
10
2.96699
20
0.968098
11
2.97123
21
0.964968
0
LINE
8
BLACK
6
CONTINUOUS
10
2.97123
20
0.964968
11
2.97436
21
0.960731
0
LINE
8
BLACK
6
CONTINUOUS
10
2.97436
20
0.960731
11
2.9761
21
0.955761
0
LINE
8
BLACK
6
CONTINUOUS
10
2.9761
20
0.955761
11
2.97642
21
0.952441
0
LINE
8
BLACK
6
CONTINUOUS
10
2.97642
20
0.952441
11
2.97642
21
0.932756
0
LINE
8
BLACK
6
CONTINUOUS
10
2.97642
20
0.932756
11
2.9761
21
0.929436
0
LINE
8
BLACK
6
CONTINUOUS
10
2.9761
20
0.929436
11
2.97436
21
0.924466
0
LINE
8
BLACK
6
CONTINUOUS
10
2.97436
20
0.924466
11
2.97123
21
0.920228
0
LINE
8
BLACK
6
CONTINUOUS
10
2.97123
20
0.920228
11
2.96699
21
0.917099
0
LINE
8
BLACK
6
CONTINUOUS
10
2.96699
20
0.917099
11
2.96202
21
0.915353
0
LINE
8
BLACK
6
CONTINUOUS
10
2.96202
20
0.915353
11
2.9587
21
0.915039
0
LINE
8
BLACK
6
CONTINUOUS
10
2.9587
20
0.915039
11
2.9213
21
0.915039
0
LINE
8
BLACK
6
CONTINUOUS
10
2.9213
20
0.915039
11
2.91798
21
0.915353
0
LINE
8
BLACK
6
CONTINUOUS
10
2.91798
20
0.915353
11
2.91301
21
0.917099
0
LINE
8
BLACK
6
CONTINUOUS
10
2.91301
20
0.917099
11
2.90877
21
0.920228
0
LINE
8
BLACK
6
CONTINUOUS
10
2.90877
20
0.920228
11
2.90564
21
0.924466
0
LINE
8
BLACK
6
CONTINUOUS
10
2.90564
20
0.924466
11
2.9039
21
0.929436
0
LINE
8
BLACK
6
CONTINUOUS
10
2.9039
20
0.929436
11
2.90358
21
0.932756
0
LINE
8
BLACK
6
CONTINUOUS
10
2.90358
20
0.932756
11
2.90358
21
0.952441
0
LINE
8
BLACK
6
CONTINUOUS
10
2.90358
20
0.952441
11
2.9039
21
0.955761
0
LINE
8
BLACK
6
CONTINUOUS
10
2.9039
20
0.955761
11
2.90564
21
0.960731
0
LINE
8
BLACK
6
CONTINUOUS
10
2.90564
20
0.960731
11
2.90877
21
0.964968
0
LINE
8
BLACK
6
CONTINUOUS
10
2.90877
20
0.964968
11
2.91301
21
0.968098
0
LINE
8
BLACK
6
CONTINUOUS
10
2.91301
20
0.968098
11
2.91798
21
0.969844
0
LINE
8
BLACK
6
CONTINUOUS
10
2.91798
20
0.969844
11
2.9213
21
0.970157
0
LINE
8
BLACK
6
CONTINUOUS
10
2.9213
20
0.970157
11
2.9587
21
0.970157
0
LINE
8
BLACK
6
CONTINUOUS
10
2.9587
20
0.970157
11
2.96202
21
0.969844
0
LINE
8
BLACK
6
CONTINUOUS
10
2.96202
20
1.04465
11
2.96699
21
1.0429
0
LINE
8
BLACK
6
CONTINUOUS
10
2.96699
20
1.0429
11
2.97123
21
1.03977
0
LINE
8
BLACK
6
CONTINUOUS
10
2.97123
20
1.03977
11
2.97436
21
1.03553
0
LINE
8
BLACK
6
CONTINUOUS
10
2.97436
20
1.03553
11
2.9761
21
1.03056
0
LINE
8
BLACK
6
CONTINUOUS
10
2.9761
20
1.03056
11
2.97642
21
1.02724
0
LINE
8
BLACK
6
CONTINUOUS
10
2.97642
20
1.02724
11
2.97642
21
1.00756
0
LINE
8
BLACK
6
CONTINUOUS
10
2.97642
20
1.00756
11
2.9761
21
1.00424
0
LINE
8
BLACK
6
CONTINUOUS
10
2.9761
20
1.00424
11
2.97436
21
0.999269
0
LINE
8
BLACK
6
CONTINUOUS
10
2.97436
20
0.999269
11
2.97123
21
0.995032
0
LINE
8
BLACK
6
CONTINUOUS
10
2.97123
20
0.995032
11
2.96699
21
0.991902
0
LINE
8
BLACK
6
CONTINUOUS
10
2.96699
20
0.991902
11
2.96202
21
0.990156
0
LINE
8
BLACK
6
CONTINUOUS
10
2.96202
20
0.990156
11
2.9587
21
0.989843
0
LINE
8
BLACK
6
CONTINUOUS
10
2.9587
20
0.989843
11
2.9213
21
0.989843
0
LINE
8
BLACK
6
CONTINUOUS
10
2.9213
20
0.989843
11
2.91798
21
0.990156
0
LINE
8
BLACK
6
CONTINUOUS
10
2.91798
20
0.990156
11
2.91301
21
0.991902
0
LINE
8
BLACK
6
CONTINUOUS
10
2.91301
20
0.991902
11
2.90877
21
0.995032
0
LINE
8
BLACK
6
CONTINUOUS
10
2.90877
20
0.995032
11
2.90564
21
0.999269
0
LINE
8
BLACK
6
CONTINUOUS
10
2.90564
20
0.999269
11
2.9039
21
1.00424
0
LINE
8
BLACK
6
CONTINUOUS
10
2.9039
20
1.00424
11
2.90358
21
1.00756
0
LINE
8
BLACK
6
CONTINUOUS
10
2.90358
20
1.00756
11
2.90358
21
1.02724
0
LINE
8
BLACK
6
CONTINUOUS
10
2.90358
20
1.02724
11
2.9039
21
1.03056
0
LINE
8
BLACK
6
CONTINUOUS
10
2.9039
20
1.03056
11
2.90564
21
1.03553
0
LINE
8
BLACK
6
CONTINUOUS
10
2.90564
20
1.03553
11
2.90877
21
1.03977
0
LINE
8
BLACK
6
CONTINUOUS
10
2.90877
20
1.03977
11
2.91301
21
1.0429
0
LINE
8
BLACK
6
CONTINUOUS
10
2.91301
20
1.0429
11
2.91798
21
1.04465
0
LINE
8
BLACK
6
CONTINUOUS
10
2.91798
20
1.04465
11
2.9213
21
1.04496
0
LINE
8
BLACK
6
CONTINUOUS
10
2.9213
20
1.04496
11
2.9587
21
1.04496
0
LINE
8
BLACK
6
CONTINUOUS
10
2.9587
20
1.04496
11
2.96202
21
1.04465
0
LINE
8
BLACK
6
CONTINUOUS
10
3.62128
20
1.15318
11
3.62384
21
1.15147
0
LINE
8
BLACK
6
CONTINUOUS
10
3.62384
20
1.15147
11
3.62554
21
1.14892
0
LINE
8
BLACK
6
CONTINUOUS
10
3.62554
20
1.14892
11
3.62614
21
1.14591
0
LINE
8
BLACK
6
CONTINUOUS
10
3.62614
20
1.14591
11
3.62614
21
1.0278
0
LINE
8
BLACK
6
CONTINUOUS
10
3.62614
20
1.0278
11
3.62554
21
1.02478
0
LINE
8
BLACK
6
CONTINUOUS
10
3.62554
20
1.02478
11
3.62384
21
1.02223
0
LINE
8
BLACK
6
CONTINUOUS
10
3.62384
20
1.02223
11
3.62128
21
1.02052
0
LINE
8
BLACK
6
CONTINUOUS
10
3.62128
20
1.02052
11
3.61827
21
1.01992
0
LINE
8
BLACK
6
CONTINUOUS
10
3.61827
20
1.01992
11
3.40173
21
1.01992
0
LINE
8
BLACK
6
CONTINUOUS
10
3.40173
20
1.01992
11
3.39872
21
1.02052
0
LINE
8
BLACK
6
CONTINUOUS
10
3.39872
20
1.02052
11
3.39616
21
1.02223
0
LINE
8
BLACK
6
CONTINUOUS
10
3.39616
20
1.02223
11
3.39446
21
1.02478
0
LINE
8
BLACK
6
CONTINUOUS
10
3.39446
20
1.02478
11
3.39386
21
1.0278
0
LINE
8
BLACK
6
CONTINUOUS
10
3.39386
20
1.0278
11
3.39386
21
1.14591
0
LINE
8
BLACK
6
CONTINUOUS
10
3.39386
20
1.14591
11
3.39446
21
1.14892
0
LINE
8
BLACK
6
CONTINUOUS
10
3.39446
20
1.14892
11
3.39616
21
1.15147
0
LINE
8
BLACK
6
CONTINUOUS
10
3.39616
20
1.15147
11
3.39872
21
1.15318
0
LINE
8
BLACK
6
CONTINUOUS
10
3.39872
20
1.15318
11
3.40173
21
1.15378
0
LINE
8
BLACK
6
CONTINUOUS
10
3.40173
20
1.15378
11
3.61827
21
1.15378
0
LINE
8
BLACK
6
CONTINUOUS
10
3.61827
20
1.15378
11
3.62128
21
1.15318
0
LINE
8
BLACK
6
CONTINUOUS
10
3.21056
20
1.1161
11
3.21553
21
1.11436
0
LINE
8
BLACK
6
CONTINUOUS
10
3.21553
20
1.11436
11
3.21977
21
1.11123
0
LINE
8
BLACK
6
CONTINUOUS
10
3.21977
20
1.11123
11
3.2229
21
1.10699
0
LINE
8
BLACK
6
CONTINUOUS
10
3.2229
20
1.10699
11
3.22465
21
1.10202
0
LINE
8
BLACK
6
CONTINUOUS
10
3.22465
20
1.10202
11
3.22496
21
1.0987
0
LINE
8
BLACK
6
CONTINUOUS
10
3.22496
20
1.0987
11
3.22496
21
1.0613
0
LINE
8
BLACK
6
CONTINUOUS
10
3.22496
20
1.0613
11
3.22465
21
1.05798
0
LINE
8
BLACK
6
CONTINUOUS
10
3.22465
20
1.05798
11
3.2229
21
1.05301
0
LINE
8
BLACK
6
CONTINUOUS
10
3.2229
20
1.05301
11
3.21977
21
1.04877
0
LINE
8
BLACK
6
CONTINUOUS
10
3.21977
20
1.04877
11
3.21553
21
1.04564
0
LINE
8
BLACK
6
CONTINUOUS
10
3.21553
20
1.04564
11
3.21056
21
1.0439
0
LINE
8
BLACK
6
CONTINUOUS
10
3.21056
20
1.0439
11
3.20724
21
1.04358
0
LINE
8
BLACK
6
CONTINUOUS
10
3.20724
20
1.04358
11
3.18756
21
1.04358
0
LINE
8
BLACK
6
CONTINUOUS
10
3.18756
20
1.04358
11
3.18424
21
1.0439
0
LINE
8
BLACK
6
CONTINUOUS
10
3.18424
20
1.0439
11
3.17927
21
1.04564
0
LINE
8
BLACK
6
CONTINUOUS
10
3.17927
20
1.04564
11
3.17503
21
1.04877
0
LINE
8
BLACK
6
CONTINUOUS
10
3.17503
20
1.04877
11
3.1719
21
1.05301
0
LINE
8
BLACK
6
CONTINUOUS
10
3.1719
20
1.05301
11
3.17016
21
1.05798
0
LINE
8
BLACK
6
CONTINUOUS
10
3.17016
20
1.05798
11
3.16984
21
1.0613
0
LINE
8
BLACK
6
CONTINUOUS
10
3.16984
20
1.0613
11
3.16984
21
1.0987
0
LINE
8
BLACK
6
CONTINUOUS
10
3.16984
20
1.0987
11
3.17016
21
1.10202
0
LINE
8
BLACK
6
CONTINUOUS
10
3.17016
20
1.10202
11
3.1719
21
1.10699
0
LINE
8
BLACK
6
CONTINUOUS
10
3.1719
20
1.10699
11
3.17503
21
1.11123
0
LINE
8
BLACK
6
CONTINUOUS
10
3.17503
20
1.11123
11
3.17927
21
1.11436
0
LINE
8
BLACK
6
CONTINUOUS
10
3.17927
20
1.11436
11
3.18424
21
1.1161
0
LINE
8
BLACK
6
CONTINUOUS
10
3.18424
20
1.1161
11
3.18756
21
1.11642
0
LINE
8
BLACK
6
CONTINUOUS
10
3.18756
20
1.11642
11
3.20724
21
1.11642
0
LINE
8
BLACK
6
CONTINUOUS
10
3.20724
20
1.11642
11
3.21056
21
1.1161
0
LINE
8
BLACK
6
CONTINUOUS
10
3.13576
20
1.1161
11
3.14073
21
1.11436
0
LINE
8
BLACK
6
CONTINUOUS
10
3.14073
20
1.11436
11
3.14497
21
1.11123
0
LINE
8
BLACK
6
CONTINUOUS
10
3.14497
20
1.11123
11
3.1481
21
1.10699
0
LINE
8
BLACK
6
CONTINUOUS
10
3.1481
20
1.10699
11
3.14984
21
1.10202
0
LINE
8
BLACK
6
CONTINUOUS
10
3.14984
20
1.10202
11
3.15016
21
1.0987
0
LINE
8
BLACK
6
CONTINUOUS
10
3.15016
20
1.0987
11
3.15016
21
1.0613
0
LINE
8
BLACK
6
CONTINUOUS
10
3.15016
20
1.0613
11
3.14984
21
1.05798
0
LINE
8
BLACK
6
CONTINUOUS
10
3.14984
20
1.05798
11
3.1481
21
1.05301
0
LINE
8
BLACK
6
CONTINUOUS
10
3.1481
20
1.05301
11
3.14497
21
1.04877
0
LINE
8
BLACK
6
CONTINUOUS
10
3.14497
20
1.04877
11
3.14073
21
1.04564
0
LINE
8
BLACK
6
CONTINUOUS
10
3.14073
20
1.04564
11
3.13576
21
1.0439
0
LINE
8
BLACK
6
CONTINUOUS
10
3.13576
20
1.0439
11
3.13244
21
1.04358
0
LINE
8
BLACK
6
CONTINUOUS
10
3.13244
20
1.04358
11
3.11276
21
1.04358
0
LINE
8
BLACK
6
CONTINUOUS
10
3.11276
20
1.04358
11
3.10944
21
1.0439
0
LINE
8
BLACK
6
CONTINUOUS
10
3.10944
20
1.0439
11
3.10447
21
1.04564
0
LINE
8
BLACK
6
CONTINUOUS
10
3.10447
20
1.04564
11
3.10023
21
1.04877
0
LINE
8
BLACK
6
CONTINUOUS
10
3.10023
20
1.04877
11
3.0971
21
1.05301
0
LINE
8
BLACK
6
CONTINUOUS
10
3.0971
20
1.05301
11
3.09535
21
1.05798
0
LINE
8
BLACK
6
CONTINUOUS
10
3.09535
20
1.05798
11
3.09504
21
1.0613
0
LINE
8
BLACK
6
CONTINUOUS
10
3.09504
20
1.0613
11
3.09504
21
1.0987
0
LINE
8
BLACK
6
CONTINUOUS
10
3.09504
20
1.0987
11
3.09535
21
1.10202
0
LINE
8
BLACK
6
CONTINUOUS
10
3.09535
20
1.10202
11
3.0971
21
1.10699
0
LINE
8
BLACK
6
CONTINUOUS
10
3.0971
20
1.10699
11
3.10023
21
1.11123
0
LINE
8
BLACK
6
CONTINUOUS
10
3.10023
20
1.11123
11
3.10447
21
1.11436
0
LINE
8
BLACK
6
CONTINUOUS
10
3.10447
20
1.11436
11
3.10944
21
1.1161
0
LINE
8
BLACK
6
CONTINUOUS
10
3.10944
20
1.1161
11
3.11276
21
1.11642
0
LINE
8
BLACK
6
CONTINUOUS
10
3.11276
20
1.11642
11
3.13244
21
1.11642
0
LINE
8
BLACK
6
CONTINUOUS
10
3.13244
20
1.11642
11
3.13576
21
1.1161
0
LINE
8
BLACK
6
CONTINUOUS
10
3.05464
20
1.1361
11
3.05961
21
1.13436
0
LINE
8
BLACK
6
CONTINUOUS
10
3.05961
20
1.13436
11
3.06385
21
1.13123
0
LINE
8
BLACK
6
CONTINUOUS
10
3.06385
20
1.13123
11
3.06698
21
1.12699
0
LINE
8
BLACK
6
CONTINUOUS
10
3.06698
20
1.12699
11
3.06872
21
1.12202
0
LINE
8
BLACK
6
CONTINUOUS
10
3.06872
20
1.12202
11
3.06904
21
1.1187
0
LINE
8
BLACK
6
CONTINUOUS
10
3.06904
20
1.1187
11
3.06904
21
1.0813
0
LINE
8
BLACK
6
CONTINUOUS
10
3.06904
20
1.0813
11
3.06872
21
1.07798
0
LINE
8
BLACK
6
CONTINUOUS
10
3.06872
20
1.07798
11
3.06698
21
1.07301
0
LINE
8
BLACK
6
CONTINUOUS
10
3.06698
20
1.07301
11
3.06385
21
1.06877
0
LINE
8
BLACK
6
CONTINUOUS
10
3.06385
20
1.06877
11
3.05961
21
1.06564
0
LINE
8
BLACK
6
CONTINUOUS
10
3.05961
20
1.06564
11
3.05464
21
1.0639
0
LINE
8
BLACK
6
CONTINUOUS
10
3.05464
20
1.0639
11
3.05132
21
1.06358
0
LINE
8
BLACK
6
CONTINUOUS
10
3.05132
20
1.06358
11
3.03163
21
1.06358
0
LINE
8
BLACK
6
CONTINUOUS
10
3.03163
20
1.06358
11
3.02831
21
1.0639
0
LINE
8
BLACK
6
CONTINUOUS
10
3.02831
20
1.0639
11
3.02334
21
1.06564
0
LINE
8
BLACK
6
CONTINUOUS
10
3.02334
20
1.06564
11
3.01911
21
1.06877
0
LINE
8
BLACK
6
CONTINUOUS
10
3.01911
20
1.06877
11
3.01598
21
1.07301
0
LINE
8
BLACK
6
CONTINUOUS
10
3.01598
20
1.07301
11
3.01423
21
1.07798
0
LINE
8
BLACK
6
CONTINUOUS
10
3.01423
20
1.07798
11
3.01392
21
1.0813
0
LINE
8
BLACK
6
CONTINUOUS
10
3.01392
20
1.0813
11
3.01392
21
1.1187
0
LINE
8
BLACK
6
CONTINUOUS
10
3.01392
20
1.1187
11
3.01423
21
1.12202
0
LINE
8
BLACK
6
CONTINUOUS
10
3.01423
20
1.12202
11
3.01598
21
1.12699
0
LINE
8
BLACK
6
CONTINUOUS
10
3.01598
20
1.12699
11
3.01911
21
1.13123
0
LINE
8
BLACK
6
CONTINUOUS
10
3.01911
20
1.13123
11
3.02334
21
1.13436
0
LINE
8
BLACK
6
CONTINUOUS
10
3.02334
20
1.13436
11
3.02831
21
1.1361
0
LINE
8
BLACK
6
CONTINUOUS
10
3.02831
20
1.1361
11
3.03163
21
1.13642
0
LINE
8
BLACK
6
CONTINUOUS
10
3.03163
20
1.13642
11
3.05132
21
1.13642
0
LINE
8
BLACK
6
CONTINUOUS
10
3.05132
20
1.13642
11
3.05464
21
1.1361
0
LINE
8
BLACK
6
CONTINUOUS
10
2.97984
20
1.1361
11
2.98481
21
1.13436
0
LINE
8
BLACK
6
CONTINUOUS
10
2.98481
20
1.13436
11
2.98904
21
1.13123
0
LINE
8
BLACK
6
CONTINUOUS
10
2.98904
20
1.13123
11
2.99217
21
1.12699
0
LINE
8
BLACK
6
CONTINUOUS
10
2.99217
20
1.12699
11
2.99392
21
1.12202
0
LINE
8
BLACK
6
CONTINUOUS
10
2.99392
20
1.12202
11
2.99423
21
1.1187
0
LINE
8
BLACK
6
CONTINUOUS
10
2.99423
20
1.1187
11
2.99423
21
1.0813
0
LINE
8
BLACK
6
CONTINUOUS
10
2.99423
20
1.0813
11
2.99392
21
1.07798
0
LINE
8
BLACK
6
CONTINUOUS
10
2.99392
20
1.07798
11
2.99217
21
1.07301
0
LINE
8
BLACK
6
CONTINUOUS
10
2.99217
20
1.07301
11
2.98904
21
1.06877
0
LINE
8
BLACK
6
CONTINUOUS
10
2.98904
20
1.06877
11
2.98481
21
1.06564
0
LINE
8
BLACK
6
CONTINUOUS
10
2.98481
20
1.06564
11
2.97984
21
1.0639
0
LINE
8
BLACK
6
CONTINUOUS
10
2.97984
20
1.0639
11
2.97652
21
1.06358
0
LINE
8
BLACK
6
CONTINUOUS
10
2.97652
20
1.06358
11
2.95683
21
1.06358
0
LINE
8
BLACK
6
CONTINUOUS
10
2.95683
20
1.06358
11
2.95351
21
1.0639
0
LINE
8
BLACK
6
CONTINUOUS
10
2.95351
20
1.0639
11
2.94854
21
1.06564
0
LINE
8
BLACK
6
CONTINUOUS
10
2.94854
20
1.06564
11
2.9443
21
1.06877
0
LINE
8
BLACK
6
CONTINUOUS
10
2.9443
20
1.06877
11
2.94117
21
1.07301
0
LINE
8
BLACK
6
CONTINUOUS
10
2.94117
20
1.07301
11
2.93943
21
1.07798
0
LINE
8
BLACK
6
CONTINUOUS
10
2.93943
20
1.07798
11
2.93911
21
1.0813
0
LINE
8
BLACK
6
CONTINUOUS
10
2.93911
20
1.0813
11
2.93911
21
1.1187
0
LINE
8
BLACK
6
CONTINUOUS
10
2.93911
20
1.1187
11
2.93943
21
1.12202
0
LINE
8
BLACK
6
CONTINUOUS
10
2.93943
20
1.12202
11
2.94117
21
1.12699
0
LINE
8
BLACK
6
CONTINUOUS
10
2.94117
20
1.12699
11
2.9443
21
1.13123
0
LINE
8
BLACK
6
CONTINUOUS
10
2.9443
20
1.13123
11
2.94854
21
1.13436
0
LINE
8
BLACK
6
CONTINUOUS
10
2.94854
20
1.13436
11
2.95351
21
1.1361
0
LINE
8
BLACK
6
CONTINUOUS
10
2.95351
20
1.1361
11
2.95683
21
1.13642
0
LINE
8
BLACK
6
CONTINUOUS
10
2.95683
20
1.13642
11
2.97652
21
1.13642
0
LINE
8
BLACK
6
CONTINUOUS
10
2.97652
20
1.13642
11
2.97984
21
1.1361
0
LINE
8
BLACK
6
CONTINUOUS
10
3.13576
20
1.2061
11
3.14073
21
1.20436
0
LINE
8
BLACK
6
CONTINUOUS
10
3.14073
20
1.20436
11
3.14497
21
1.20123
0
LINE
8
BLACK
6
CONTINUOUS
10
3.14497
20
1.20123
11
3.1481
21
1.19699
0
LINE
8
BLACK
6
CONTINUOUS
10
3.1481
20
1.19699
11
3.14984
21
1.19202
0
LINE
8
BLACK
6
CONTINUOUS
10
3.14984
20
1.19202
11
3.15016
21
1.1887
0
LINE
8
BLACK
6
CONTINUOUS
10
3.15016
20
1.1887
11
3.15016
21
1.1513
0
LINE
8
BLACK
6
CONTINUOUS
10
3.15016
20
1.1513
11
3.14984
21
1.14798
0
LINE
8
BLACK
6
CONTINUOUS
10
3.14984
20
1.14798
11
3.1481
21
1.14301
0
LINE
8
BLACK
6
CONTINUOUS
10
3.1481
20
1.14301
11
3.14497
21
1.13877
0
LINE
8
BLACK
6
CONTINUOUS
10
3.14497
20
1.13877
11
3.14073
21
1.13564
0
LINE
8
BLACK
6
CONTINUOUS
10
3.14073
20
1.13564
11
3.13576
21
1.1339
0
LINE
8
BLACK
6
CONTINUOUS
10
3.13576
20
1.1339
11
3.13244
21
1.13358
0
LINE
8
BLACK
6
CONTINUOUS
10
3.13244
20
1.13358
11
3.11276
21
1.13358
0
LINE
8
BLACK
6
CONTINUOUS
10
3.11276
20
1.13358
11
3.10944
21
1.1339
0
LINE
8
BLACK
6
CONTINUOUS
10
3.10944
20
1.1339
11
3.10447
21
1.13564
0
LINE
8
BLACK
6
CONTINUOUS
10
3.10447
20
1.13564
11
3.10023
21
1.13877
0
LINE
8
BLACK
6
CONTINUOUS
10
3.10023
20
1.13877
11
3.0971
21
1.14301
0
LINE
8
BLACK
6
CONTINUOUS
10
3.0971
20
1.14301
11
3.09535
21
1.14798
0
LINE
8
BLACK
6
CONTINUOUS
10
3.09535
20
1.14798
11
3.09504
21
1.1513
0
LINE
8
BLACK
6
CONTINUOUS
10
3.09504
20
1.1513
11
3.09504
21
1.1887
0
LINE
8
BLACK
6
CONTINUOUS
10
3.09504
20
1.1887
11
3.09535
21
1.19202
0
LINE
8
BLACK
6
CONTINUOUS
10
3.09535
20
1.19202
11
3.0971
21
1.19699
0
LINE
8
BLACK
6
CONTINUOUS
10
3.0971
20
1.19699
11
3.10023
21
1.20123
0
LINE
8
BLACK
6
CONTINUOUS
10
3.10023
20
1.20123
11
3.10447
21
1.20436
0
LINE
8
BLACK
6
CONTINUOUS
10
3.10447
20
1.20436
11
3.10944
21
1.2061
0
LINE
8
BLACK
6
CONTINUOUS
10
3.10944
20
1.2061
11
3.11276
21
1.20642
0
LINE
8
BLACK
6
CONTINUOUS
10
3.11276
20
1.20642
11
3.13244
21
1.20642
0
LINE
8
BLACK
6
CONTINUOUS
10
3.13244
20
1.20642
11
3.13576
21
1.2061
0
LINE
8
BLACK
6
CONTINUOUS
10
3.21056
20
1.2061
11
3.21553
21
1.20436
0
LINE
8
BLACK
6
CONTINUOUS
10
3.21553
20
1.20436
11
3.21977
21
1.20123
0
LINE
8
BLACK
6
CONTINUOUS
10
3.21977
20
1.20123
11
3.2229
21
1.19699
0
LINE
8
BLACK
6
CONTINUOUS
10
3.2229
20
1.19699
11
3.22465
21
1.19202
0
LINE
8
BLACK
6
CONTINUOUS
10
3.22465
20
1.19202
11
3.22496
21
1.1887
0
LINE
8
BLACK
6
CONTINUOUS
10
3.22496
20
1.1887
11
3.22496
21
1.1513
0
LINE
8
BLACK
6
CONTINUOUS
10
3.22496
20
1.1513
11
3.22465
21
1.14798
0
LINE
8
BLACK
6
CONTINUOUS
10
3.22465
20
1.14798
11
3.2229
21
1.14301
0
LINE
8
BLACK
6
CONTINUOUS
10
3.2229
20
1.14301
11
3.21977
21
1.13877
0
LINE
8
BLACK
6
CONTINUOUS
10
3.21977
20
1.13877
11
3.21553
21
1.13564
0
LINE
8
BLACK
6
CONTINUOUS
10
3.21553
20
1.13564
11
3.21056
21
1.1339
0
LINE
8
BLACK
6
CONTINUOUS
10
3.21056
20
1.1339
11
3.20724
21
1.13358
0
LINE
8
BLACK
6
CONTINUOUS
10
3.20724
20
1.13358
11
3.18756
21
1.13358
0
LINE
8
BLACK
6
CONTINUOUS
10
3.18756
20
1.13358
11
3.18424
21
1.1339
0
LINE
8
BLACK
6
CONTINUOUS
10
3.18424
20
1.1339
11
3.17927
21
1.13564
0
LINE
8
BLACK
6
CONTINUOUS
10
3.17927
20
1.13564
11
3.17503
21
1.13877
0
LINE
8
BLACK
6
CONTINUOUS
10
3.17503
20
1.13877
11
3.1719
21
1.14301
0
LINE
8
BLACK
6
CONTINUOUS
10
3.1719
20
1.14301
11
3.17016
21
1.14798
0
LINE
8
BLACK
6
CONTINUOUS
10
3.17016
20
1.14798
11
3.16984
21
1.1513
0
LINE
8
BLACK
6
CONTINUOUS
10
3.16984
20
1.1513
11
3.16984
21
1.1887
0
LINE
8
BLACK
6
CONTINUOUS
10
3.16984
20
1.1887
11
3.17016
21
1.19202
0
LINE
8
BLACK
6
CONTINUOUS
10
3.17016
20
1.19202
11
3.1719
21
1.19699
0
LINE
8
BLACK
6
CONTINUOUS
10
3.1719
20
1.19699
11
3.17503
21
1.20123
0
LINE
8
BLACK
6
CONTINUOUS
10
3.17503
20
1.20123
11
3.17927
21
1.20436
0
LINE
8
BLACK
6
CONTINUOUS
10
3.17927
20
1.20436
11
3.18424
21
1.2061
0
LINE
8
BLACK
6
CONTINUOUS
10
3.18424
20
1.2061
11
3.18756
21
1.20642
0
LINE
8
BLACK
6
CONTINUOUS
10
3.18756
20
1.20642
11
3.20724
21
1.20642
0
LINE
8
BLACK
6
CONTINUOUS
10
3.20724
20
1.20642
11
3.21056
21
1.2061
0
LINE
8
BLACK
6
CONTINUOUS
10
2.9818
20
1.23512
11
2.98677
21
1.23337
0
LINE
8
BLACK
6
CONTINUOUS
10
2.98677
20
1.23337
11
2.99101
21
1.23024
0
LINE
8
BLACK
6
CONTINUOUS
10
2.99101
20
1.23024
11
2.99414
21
1.22601
0
LINE
8
BLACK
6
CONTINUOUS
10
2.99414
20
1.22601
11
2.99589
21
1.22104
0
LINE
8
BLACK
6
CONTINUOUS
10
2.99589
20
1.22104
11
2.9962
21
1.21772
0
LINE
8
BLACK
6
CONTINUOUS
10
2.9962
20
1.21772
11
2.9962
21
1.18228
0
LINE
8
BLACK
6
CONTINUOUS
10
2.9962
20
1.18228
11
2.99589
21
1.17896
0
LINE
8
BLACK
6
CONTINUOUS
10
2.99589
20
1.17896
11
2.99414
21
1.17399
0
LINE
8
BLACK
6
CONTINUOUS
10
2.99414
20
1.17399
11
2.99101
21
1.16976
0
LINE
8
BLACK
6
CONTINUOUS
10
2.99101
20
1.16976
11
2.98677
21
1.16663
0
LINE
8
BLACK
6
CONTINUOUS
10
2.98677
20
1.16663
11
2.9818
21
1.16488
0
LINE
8
BLACK
6
CONTINUOUS
10
2.9818
20
1.16488
11
2.97848
21
1.16457
0
LINE
8
BLACK
6
CONTINUOUS
10
2.97848
20
1.16457
11
2.95781
21
1.16457
0
LINE
8
BLACK
6
CONTINUOUS
10
2.95781
20
1.16457
11
2.9545
21
1.16488
0
LINE
8
BLACK
6
CONTINUOUS
10
2.9545
20
1.16488
11
2.94952
21
1.16663
0
LINE
8
BLACK
6
CONTINUOUS
10
2.94952
20
1.16663
11
2.94529
21
1.16976
0
LINE
8
BLACK
6
CONTINUOUS
10
2.94529
20
1.16976
11
2.94216
21
1.17399
0
LINE
8
BLACK
6
CONTINUOUS
10
2.94216
20
1.17399
11
2.94041
21
1.17896
0
LINE
8
BLACK
6
CONTINUOUS
10
2.94041
20
1.17896
11
2.9401
21
1.18228
0
LINE
8
BLACK
6
CONTINUOUS
10
2.9401
20
1.18228
11
2.9401
21
1.21772
0
LINE
8
BLACK
6
CONTINUOUS
10
2.9401
20
1.21772
11
2.94041
21
1.22104
0
LINE
8
BLACK
6
CONTINUOUS
10
2.94041
20
1.22104
11
2.94216
21
1.22601
0
LINE
8
BLACK
6
CONTINUOUS
10
2.94216
20
1.22601
11
2.94529
21
1.23024
0
LINE
8
BLACK
6
CONTINUOUS
10
2.94529
20
1.23024
11
2.94952
21
1.23337
0
LINE
8
BLACK
6
CONTINUOUS
10
2.94952
20
1.23337
11
2.9545
21
1.23512
0
LINE
8
BLACK
6
CONTINUOUS
10
2.9545
20
1.23512
11
2.95781
21
1.23543
0
LINE
8
BLACK
6
CONTINUOUS
10
2.95781
20
1.23543
11
2.97848
21
1.23543
0
LINE
8
BLACK
6
CONTINUOUS
10
2.97848
20
1.23543
11
2.9818
21
1.23512
0
LINE
8
BLACK
6
CONTINUOUS
10
3.05365
20
1.23512
11
3.05862
21
1.23337
0
LINE
8
BLACK
6
CONTINUOUS
10
3.05862
20
1.23337
11
3.06286
21
1.23024
0
LINE
8
BLACK
6
CONTINUOUS
10
3.06286
20
1.23024
11
3.06599
21
1.22601
0
LINE
8
BLACK
6
CONTINUOUS
10
3.06599
20
1.22601
11
3.06774
21
1.22104
0
LINE
8
BLACK
6
CONTINUOUS
10
3.06774
20
1.22104
11
3.06805
21
1.21772
0
LINE
8
BLACK
6
CONTINUOUS
10
3.06805
20
1.21772
11
3.06805
21
1.18228
0
LINE
8
BLACK
6
CONTINUOUS
10
3.06805
20
1.18228
11
3.06774
21
1.17896
0
LINE
8
BLACK
6
CONTINUOUS
10
3.06774
20
1.17896
11
3.06599
21
1.17399
0
LINE
8
BLACK
6
CONTINUOUS
10
3.06599
20
1.17399
11
3.06286
21
1.16976
0
LINE
8
BLACK
6
CONTINUOUS
10
3.06286
20
1.16976
11
3.05862
21
1.16663
0
LINE
8
BLACK
6
CONTINUOUS
10
3.05862
20
1.16663
11
3.05365
21
1.16488
0
LINE
8
BLACK
6
CONTINUOUS
10
3.05365
20
1.16488
11
3.05033
21
1.16457
0
LINE
8
BLACK
6
CONTINUOUS
10
3.05033
20
1.16457
11
3.02967
21
1.16457
0
LINE
8
BLACK
6
CONTINUOUS
10
3.02967
20
1.16457
11
3.02635
21
1.16488
0
LINE
8
BLACK
6
CONTINUOUS
10
3.02635
20
1.16488
11
3.02138
21
1.16663
0
LINE
8
BLACK
6
CONTINUOUS
10
3.02138
20
1.16663
11
3.01714
21
1.16976
0
LINE
8
BLACK
6
CONTINUOUS
10
3.01714
20
1.16976
11
3.01401
21
1.17399
0
LINE
8
BLACK
6
CONTINUOUS
10
3.01401
20
1.17399
11
3.01226
21
1.17896
0
LINE
8
BLACK
6
CONTINUOUS
10
3.01226
20
1.17896
11
3.01195
21
1.18228
0
LINE
8
BLACK
6
CONTINUOUS
10
3.01195
20
1.18228
11
3.01195
21
1.21772
0
LINE
8
BLACK
6
CONTINUOUS
10
3.01195
20
1.21772
11
3.01226
21
1.22104
0
LINE
8
BLACK
6
CONTINUOUS
10
3.01226
20
1.22104
11
3.01401
21
1.22601
0
LINE
8
BLACK
6
CONTINUOUS
10
3.01401
20
1.22601
11
3.01714
21
1.23024
0
LINE
8
BLACK
6
CONTINUOUS
10
3.01714
20
1.23024
11
3.02138
21
1.23337
0
LINE
8
BLACK
6
CONTINUOUS
10
3.02138
20
1.23337
11
3.02635
21
1.23512
0
LINE
8
BLACK
6
CONTINUOUS
10
3.02635
20
1.23512
11
3.02967
21
1.23543
0
LINE
8
BLACK
6
CONTINUOUS
10
3.02967
20
1.23543
11
3.05033
21
1.23543
0
LINE
8
BLACK
6
CONTINUOUS
10
3.05033
20
1.23543
11
3.05365
21
1.23512
0
LINE
8
BLACK
6
CONTINUOUS
10
3.13576
20
1.2961
11
3.14073
21
1.29436
0
LINE
8
BLACK
6
CONTINUOUS
10
3.14073
20
1.29436
11
3.14497
21
1.29123
0
LINE
8
BLACK
6
CONTINUOUS
10
3.14497
20
1.29123
11
3.1481
21
1.28699
0
LINE
8
BLACK
6
CONTINUOUS
10
3.1481
20
1.28699
11
3.14984
21
1.28202
0
LINE
8
BLACK
6
CONTINUOUS
10
3.14984
20
1.28202
11
3.15016
21
1.2787
0
LINE
8
BLACK
6
CONTINUOUS
10
3.15016
20
1.2787
11
3.15016
21
1.2413
0
LINE
8
BLACK
6
CONTINUOUS
10
3.15016
20
1.2413
11
3.14984
21
1.23798
0
LINE
8
BLACK
6
CONTINUOUS
10
3.14984
20
1.23798
11
3.1481
21
1.23301
0
LINE
8
BLACK
6
CONTINUOUS
10
3.1481
20
1.23301
11
3.14497
21
1.22877
0
LINE
8
BLACK
6
CONTINUOUS
10
3.14497
20
1.22877
11
3.14073
21
1.22564
0
LINE
8
BLACK
6
CONTINUOUS
10
3.14073
20
1.22564
11
3.13576
21
1.2239
0
LINE
8
BLACK
6
CONTINUOUS
10
3.13576
20
1.2239
11
3.13244
21
1.22358
0
LINE
8
BLACK
6
CONTINUOUS
10
3.13244
20
1.22358
11
3.11276
21
1.22358
0
LINE
8
BLACK
6
CONTINUOUS
10
3.11276
20
1.22358
11
3.10944
21
1.2239
0
LINE
8
BLACK
6
CONTINUOUS
10
3.10944
20
1.2239
11
3.10447
21
1.22564
0
LINE
8
BLACK
6
CONTINUOUS
10
3.10447
20
1.22564
11
3.10023
21
1.22877
0
LINE
8
BLACK
6
CONTINUOUS
10
3.10023
20
1.22877
11
3.0971
21
1.23301
0
LINE
8
BLACK
6
CONTINUOUS
10
3.0971
20
1.23301
11
3.09535
21
1.23798
0
LINE
8
BLACK
6
CONTINUOUS
10
3.09535
20
1.23798
11
3.09504
21
1.2413
0
LINE
8
BLACK
6
CONTINUOUS
10
3.09504
20
1.2413
11
3.09504
21
1.2787
0
LINE
8
BLACK
6
CONTINUOUS
10
3.09504
20
1.2787
11
3.09535
21
1.28202
0
LINE
8
BLACK
6
CONTINUOUS
10
3.09535
20
1.28202
11
3.0971
21
1.28699
0
LINE
8
BLACK
6
CONTINUOUS
10
3.0971
20
1.28699
11
3.10023
21
1.29123
0
LINE
8
BLACK
6
CONTINUOUS
10
3.10023
20
1.29123
11
3.10447
21
1.29436
0
LINE
8
BLACK
6
CONTINUOUS
10
3.10447
20
1.29436
11
3.10944
21
1.2961
0
LINE
8
BLACK
6
CONTINUOUS
10
3.10944
20
1.2961
11
3.11276
21
1.29642
0
LINE
8
BLACK
6
CONTINUOUS
10
3.11276
20
1.29642
11
3.13244
21
1.29642
0
LINE
8
BLACK
6
CONTINUOUS
10
3.13244
20
1.29642
11
3.13576
21
1.2961
0
LINE
8
BLACK
6
CONTINUOUS
10
3.21056
20
1.2961
11
3.21553
21
1.29436
0
LINE
8
BLACK
6
CONTINUOUS
10
3.21553
20
1.29436
11
3.21977
21
1.29123
0
LINE
8
BLACK
6
CONTINUOUS
10
3.21977
20
1.29123
11
3.2229
21
1.28699
0
LINE
8
BLACK
6
CONTINUOUS
10
3.2229
20
1.28699
11
3.22465
21
1.28202
0
LINE
8
BLACK
6
CONTINUOUS
10
3.22465
20
1.28202
11
3.22496
21
1.2787
0
LINE
8
BLACK
6
CONTINUOUS
10
3.22496
20
1.2787
11
3.22496
21
1.2413
0
LINE
8
BLACK
6
CONTINUOUS
10
3.22496
20
1.2413
11
3.22465
21
1.23798
0
LINE
8
BLACK
6
CONTINUOUS
10
3.22465
20
1.23798
11
3.2229
21
1.23301
0
LINE
8
BLACK
6
CONTINUOUS
10
3.2229
20
1.23301
11
3.21977
21
1.22877
0
LINE
8
BLACK
6
CONTINUOUS
10
3.21977
20
1.22877
11
3.21553
21
1.22564
0
LINE
8
BLACK
6
CONTINUOUS
10
3.21553
20
1.22564
11
3.21056
21
1.2239
0
LINE
8
BLACK
6
CONTINUOUS
10
3.21056
20
1.2239
11
3.20724
21
1.22358
0
LINE
8
BLACK
6
CONTINUOUS
10
3.20724
20
1.22358
11
3.18756
21
1.22358
0
LINE
8
BLACK
6
CONTINUOUS
10
3.18756
20
1.22358
11
3.18424
21
1.2239
0
LINE
8
BLACK
6
CONTINUOUS
10
3.18424
20
1.2239
11
3.17927
21
1.22564
0
LINE
8
BLACK
6
CONTINUOUS
10
3.17927
20
1.22564
11
3.17503
21
1.22877
0
LINE
8
BLACK
6
CONTINUOUS
10
3.17503
20
1.22877
11
3.1719
21
1.23301
0
LINE
8
BLACK
6
CONTINUOUS
10
3.1719
20
1.23301
11
3.17016
21
1.23798
0
LINE
8
BLACK
6
CONTINUOUS
10
3.17016
20
1.23798
11
3.16984
21
1.2413
0
LINE
8
BLACK
6
CONTINUOUS
10
3.16984
20
1.2413
11
3.16984
21
1.2787
0
LINE
8
BLACK
6
CONTINUOUS
10
3.16984
20
1.2787
11
3.17016
21
1.28202
0
LINE
8
BLACK
6
CONTINUOUS
10
3.17016
20
1.28202
11
3.1719
21
1.28699
0
LINE
8
BLACK
6
CONTINUOUS
10
3.1719
20
1.28699
11
3.17503
21
1.29123
0
LINE
8
BLACK
6
CONTINUOUS
10
3.17503
20
1.29123
11
3.17927
21
1.29436
0
LINE
8
BLACK
6
CONTINUOUS
10
3.17927
20
1.29436
11
3.18424
21
1.2961
0
LINE
8
BLACK
6
CONTINUOUS
10
3.18424
20
1.2961
11
3.18756
21
1.29642
0
LINE
8
BLACK
6
CONTINUOUS
10
3.18756
20
1.29642
11
3.20724
21
1.29642
0
LINE
8
BLACK
6
CONTINUOUS
10
3.20724
20
1.29642
11
3.21056
21
1.2961
0
LINE
8
BLACK
6
CONTINUOUS
10
3.05458
20
1.32512
11
3.05955
21
1.32337
0
LINE
8
BLACK
6
CONTINUOUS
10
3.05955
20
1.32337
11
3.06379
21
1.32024
0
LINE
8
BLACK
6
CONTINUOUS
10
3.06379
20
1.32024
11
3.06692
21
1.31601
0
LINE
8
BLACK
6
CONTINUOUS
10
3.06692
20
1.31601
11
3.06866
21
1.31104
0
LINE
8
BLACK
6
CONTINUOUS
10
3.06866
20
1.31104
11
3.06898
21
1.30772
0
LINE
8
BLACK
6
CONTINUOUS
10
3.06898
20
1.30772
11
3.06898
21
1.27228
0
LINE
8
BLACK
6
CONTINUOUS
10
3.06898
20
1.27228
11
3.06866
21
1.26896
0
LINE
8
BLACK
6
CONTINUOUS
10
3.06866
20
1.26896
11
3.06692
21
1.26399
0
LINE
8
BLACK
6
CONTINUOUS
10
3.06692
20
1.26399
11
3.06379
21
1.25976
0
LINE
8
BLACK
6
CONTINUOUS
10
3.06379
20
1.25976
11
3.05955
21
1.25663
0
LINE
8
BLACK
6
CONTINUOUS
10
3.05955
20
1.25663
11
3.05458
21
1.25488
0
LINE
8
BLACK
6
CONTINUOUS
10
3.05458
20
1.25488
11
3.05126
21
1.25457
0
LINE
8
BLACK
6
CONTINUOUS
10
3.05126
20
1.25457
11
3.03059
21
1.25457
0
LINE
8
BLACK
6
CONTINUOUS
10
3.03059
20
1.25457
11
3.02727
21
1.25488
0
LINE
8
BLACK
6
CONTINUOUS
10
3.02727
20
1.25488
11
3.0223
21
1.25663
0
LINE
8
BLACK
6
CONTINUOUS
10
3.0223
20
1.25663
11
3.01806
21
1.25976
0
LINE
8
BLACK
6
CONTINUOUS
10
3.01806
20
1.25976
11
3.01493
21
1.26399
0
LINE
8
BLACK
6
CONTINUOUS
10
3.01493
20
1.26399
11
3.01319
21
1.26896
0
LINE
8
BLACK
6
CONTINUOUS
10
3.01319
20
1.26896
11
3.01287
21
1.27228
0
LINE
8
BLACK
6
CONTINUOUS
10
3.01287
20
1.27228
11
3.01287
21
1.30772
0
LINE
8
BLACK
6
CONTINUOUS
10
3.01287
20
1.30772
11
3.01319
21
1.31104
0
LINE
8
BLACK
6
CONTINUOUS
10
3.01319
20
1.31104
11
3.01493
21
1.31601
0
LINE
8
BLACK
6
CONTINUOUS
10
3.01493
20
1.31601
11
3.01806
21
1.32024
0
LINE
8
BLACK
6
CONTINUOUS
10
3.01806
20
1.32024
11
3.0223
21
1.32337
0
LINE
8
BLACK
6
CONTINUOUS
10
3.0223
20
1.32337
11
3.02727
21
1.32512
0
LINE
8
BLACK
6
CONTINUOUS
10
3.02727
20
1.32512
11
3.03059
21
1.32543
0
LINE
8
BLACK
6
CONTINUOUS
10
3.03059
20
1.32543
11
3.05126
21
1.32543
0
LINE
8
BLACK
6
CONTINUOUS
10
3.05126
20
1.32543
11
3.05458
21
1.32512
0
LINE
8
BLACK
6
CONTINUOUS
10
2.98273
20
1.32512
11
2.9877
21
1.32337
0
LINE
8
BLACK
6
CONTINUOUS
10
2.9877
20
1.32337
11
2.99194
21
1.32024
0
LINE
8
BLACK
6
CONTINUOUS
10
2.99194
20
1.32024
11
2.99507
21
1.31601
0
LINE
8
BLACK
6
CONTINUOUS
10
2.99507
20
1.31601
11
2.99681
21
1.31104
0
LINE
8
BLACK
6
CONTINUOUS
10
2.99681
20
1.31104
11
2.99713
21
1.30772
0
LINE
8
BLACK
6
CONTINUOUS
10
2.99713
20
1.30772
11
2.99713
21
1.27228
0
LINE
8
BLACK
6
CONTINUOUS
10
2.99713
20
1.27228
11
2.99681
21
1.26896
0
LINE
8
BLACK
6
CONTINUOUS
10
2.99681
20
1.26896
11
2.99507
21
1.26399
0
LINE
8
BLACK
6
CONTINUOUS
10
2.99507
20
1.26399
11
2.99194
21
1.25976
0
LINE
8
BLACK
6
CONTINUOUS
10
2.99194
20
1.25976
11
2.9877
21
1.25663
0
LINE
8
BLACK
6
CONTINUOUS
10
2.9877
20
1.25663
11
2.98273
21
1.25488
0
LINE
8
BLACK
6
CONTINUOUS
10
2.98273
20
1.25488
11
2.97941
21
1.25457
0
LINE
8
BLACK
6
CONTINUOUS
10
2.97941
20
1.25457
11
2.95874
21
1.25457
0
LINE
8
BLACK
6
CONTINUOUS
10
2.95874
20
1.25457
11
2.95542
21
1.25488
0
LINE
8
BLACK
6
CONTINUOUS
10
2.95542
20
1.25488
11
2.95045
21
1.25663
0
LINE
8
BLACK
6
CONTINUOUS
10
2.95045
20
1.25663
11
2.94621
21
1.25976
0
LINE
8
BLACK
6
CONTINUOUS
10
2.94621
20
1.25976
11
2.94308
21
1.26399
0
LINE
8
BLACK
6
CONTINUOUS
10
2.94308
20
1.26399
11
2.94134
21
1.26896
0
LINE
8
BLACK
6
CONTINUOUS
10
2.94134
20
1.26896
11
2.94102
21
1.27228
0
LINE
8
BLACK
6
CONTINUOUS
10
2.94102
20
1.27228
11
2.94102
21
1.30772
0
LINE
8
BLACK
6
CONTINUOUS
10
2.94102
20
1.30772
11
2.94134
21
1.31104
0
LINE
8
BLACK
6
CONTINUOUS
10
2.94134
20
1.31104
11
2.94308
21
1.31601
0
LINE
8
BLACK
6
CONTINUOUS
10
2.94308
20
1.31601
11
2.94621
21
1.32024
0
LINE
8
BLACK
6
CONTINUOUS
10
2.94621
20
1.32024
11
2.95045
21
1.32337
0
LINE
8
BLACK
6
CONTINUOUS
10
2.95045
20
1.32337
11
2.95542
21
1.32512
0
LINE
8
BLACK
6
CONTINUOUS
10
2.95542
20
1.32512
11
2.95874
21
1.32543
0
LINE
8
BLACK
6
CONTINUOUS
10
2.95874
20
1.32543
11
2.97941
21
1.32543
0
LINE
8
BLACK
6
CONTINUOUS
10
2.97941
20
1.32543
11
2.98273
21
1.32512
0
LINE
8
BLACK
6
CONTINUOUS
10
2.98273
20
1.41512
11
2.9877
21
1.41337
0
LINE
8
BLACK
6
CONTINUOUS
10
2.9877
20
1.41337
11
2.99194
21
1.41024
0
LINE
8
BLACK
6
CONTINUOUS
10
2.99194
20
1.41024
11
2.99507
21
1.40601
0
LINE
8
BLACK
6
CONTINUOUS
10
2.99507
20
1.40601
11
2.99681
21
1.40104
0
LINE
8
BLACK
6
CONTINUOUS
10
2.99681
20
1.40104
11
2.99713
21
1.39772
0
LINE
8
BLACK
6
CONTINUOUS
10
2.99713
20
1.39772
11
2.99713
21
1.36228
0
LINE
8
BLACK
6
CONTINUOUS
10
2.99713
20
1.36228
11
2.99681
21
1.35896
0
LINE
8
BLACK
6
CONTINUOUS
10
2.99681
20
1.35896
11
2.99507
21
1.35399
0
LINE
8
BLACK
6
CONTINUOUS
10
2.99507
20
1.35399
11
2.99194
21
1.34976
0
LINE
8
BLACK
6
CONTINUOUS
10
2.99194
20
1.34976
11
2.9877
21
1.34663
0
LINE
8
BLACK
6
CONTINUOUS
10
2.9877
20
1.34663
11
2.98273
21
1.34488
0
LINE
8
BLACK
6
CONTINUOUS
10
2.98273
20
1.34488
11
2.97941
21
1.34457
0
LINE
8
BLACK
6
CONTINUOUS
10
2.97941
20
1.34457
11
2.95874
21
1.34457
0
LINE
8
BLACK
6
CONTINUOUS
10
2.95874
20
1.34457
11
2.95542
21
1.34488
0
LINE
8
BLACK
6
CONTINUOUS
10
2.95542
20
1.34488
11
2.95045
21
1.34663
0
LINE
8
BLACK
6
CONTINUOUS
10
2.95045
20
1.34663
11
2.94621
21
1.34976
0
LINE
8
BLACK
6
CONTINUOUS
10
2.94621
20
1.34976
11
2.94308
21
1.35399
0
LINE
8
BLACK
6
CONTINUOUS
10
2.94308
20
1.35399
11
2.94134
21
1.35896
0
LINE
8
BLACK
6
CONTINUOUS
10
2.94134
20
1.35896
11
2.94102
21
1.36228
0
LINE
8
BLACK
6
CONTINUOUS
10
2.94102
20
1.36228
11
2.94102
21
1.39772
0
LINE
8
BLACK
6
CONTINUOUS
10
2.94102
20
1.39772
11
2.94134
21
1.40104
0
LINE
8
BLACK
6
CONTINUOUS
10
2.94134
20
1.40104
11
2.94308
21
1.40601
0
LINE
8
BLACK
6
CONTINUOUS
10
2.94308
20
1.40601
11
2.94621
21
1.41024
0
LINE
8
BLACK
6
CONTINUOUS
10
2.94621
20
1.41024
11
2.95045
21
1.41337
0
LINE
8
BLACK
6
CONTINUOUS
10
2.95045
20
1.41337
11
2.95542
21
1.41512
0
LINE
8
BLACK
6
CONTINUOUS
10
2.95542
20
1.41512
11
2.95874
21
1.41543
0
LINE
8
BLACK
6
CONTINUOUS
10
2.95874
20
1.41543
11
2.97941
21
1.41543
0
LINE
8
BLACK
6
CONTINUOUS
10
2.97941
20
1.41543
11
2.98273
21
1.41512
0
LINE
8
BLACK
6
CONTINUOUS
10
3.05458
20
1.41512
11
3.05955
21
1.41337
0
LINE
8
BLACK
6
CONTINUOUS
10
3.05955
20
1.41337
11
3.06379
21
1.41024
0
LINE
8
BLACK
6
CONTINUOUS
10
3.06379
20
1.41024
11
3.06692
21
1.40601
0
LINE
8
BLACK
6
CONTINUOUS
10
3.06692
20
1.40601
11
3.06866
21
1.40104
0
LINE
8
BLACK
6
CONTINUOUS
10
3.06866
20
1.40104
11
3.06898
21
1.39772
0
LINE
8
BLACK
6
CONTINUOUS
10
3.06898
20
1.39772
11
3.06898
21
1.36228
0
LINE
8
BLACK
6
CONTINUOUS
10
3.06898
20
1.36228
11
3.06866
21
1.35896
0
LINE
8
BLACK
6
CONTINUOUS
10
3.06866
20
1.35896
11
3.06692
21
1.35399
0
LINE
8
BLACK
6
CONTINUOUS
10
3.06692
20
1.35399
11
3.06379
21
1.34976
0
LINE
8
BLACK
6
CONTINUOUS
10
3.06379
20
1.34976
11
3.05955
21
1.34663
0
LINE
8
BLACK
6
CONTINUOUS
10
3.05955
20
1.34663
11
3.05458
21
1.34488
0
LINE
8
BLACK
6
CONTINUOUS
10
3.05458
20
1.34488
11
3.05126
21
1.34457
0
LINE
8
BLACK
6
CONTINUOUS
10
3.05126
20
1.34457
11
3.03059
21
1.34457
0
LINE
8
BLACK
6
CONTINUOUS
10
3.03059
20
1.34457
11
3.02727
21
1.34488
0
LINE
8
BLACK
6
CONTINUOUS
10
3.02727
20
1.34488
11
3.0223
21
1.34663
0
LINE
8
BLACK
6
CONTINUOUS
10
3.0223
20
1.34663
11
3.01806
21
1.34976
0
LINE
8
BLACK
6
CONTINUOUS
10
3.01806
20
1.34976
11
3.01493
21
1.35399
0
LINE
8
BLACK
6
CONTINUOUS
10
3.01493
20
1.35399
11
3.01319
21
1.35896
0
LINE
8
BLACK
6
CONTINUOUS
10
3.01319
20
1.35896
11
3.01287
21
1.36228
0
LINE
8
BLACK
6
CONTINUOUS
10
3.01287
20
1.36228
11
3.01287
21
1.39772
0
LINE
8
BLACK
6
CONTINUOUS
10
3.01287
20
1.39772
11
3.01319
21
1.40104
0
LINE
8
BLACK
6
CONTINUOUS
10
3.01319
20
1.40104
11
3.01493
21
1.40601
0
LINE
8
BLACK
6
CONTINUOUS
10
3.01493
20
1.40601
11
3.01806
21
1.41024
0
LINE
8
BLACK
6
CONTINUOUS
10
3.01806
20
1.41024
11
3.0223
21
1.41337
0
LINE
8
BLACK
6
CONTINUOUS
10
3.0223
20
1.41337
11
3.02727
21
1.41512
0
LINE
8
BLACK
6
CONTINUOUS
10
3.02727
20
1.41512
11
3.03059
21
1.41543
0
LINE
8
BLACK
6
CONTINUOUS
10
3.03059
20
1.41543
11
3.05126
21
1.41543
0
LINE
8
BLACK
6
CONTINUOUS
10
3.05126
20
1.41543
11
3.05458
21
1.41512
0
LINE
8
BLACK
6
CONTINUOUS
10
3.24494
20
1.4379
11
3.2475
21
1.4362
0
LINE
8
BLACK
6
CONTINUOUS
10
3.2475
20
1.4362
11
3.2492
21
1.43364
0
LINE
8
BLACK
6
CONTINUOUS
10
3.2492
20
1.43364
11
3.2498
21
1.43063
0
LINE
8
BLACK
6
CONTINUOUS
10
3.2498
20
1.43063
11
3.2498
21
1.35583
0
LINE
8
BLACK
6
CONTINUOUS
10
3.2498
20
1.35583
11
3.2492
21
1.35281
0
LINE
8
BLACK
6
CONTINUOUS
10
3.2492
20
1.35281
11
3.2475
21
1.35026
0
LINE
8
BLACK
6
CONTINUOUS
10
3.2475
20
1.35026
11
3.24494
21
1.34855
0
LINE
8
BLACK
6
CONTINUOUS
10
3.24494
20
1.34855
11
3.24193
21
1.34795
0
LINE
8
BLACK
6
CONTINUOUS
10
3.24193
20
1.34795
11
3.10807
21
1.34795
0
LINE
8
BLACK
6
CONTINUOUS
10
3.10807
20
1.34795
11
3.10506
21
1.34855
0
LINE
8
BLACK
6
CONTINUOUS
10
3.10506
20
1.34855
11
3.1025
21
1.35026
0
LINE
8
BLACK
6
CONTINUOUS
10
3.1025
20
1.35026
11
3.1008
21
1.35281
0
LINE
8
BLACK
6
CONTINUOUS
10
3.1008
20
1.35281
11
3.1002
21
1.35583
0
LINE
8
BLACK
6
CONTINUOUS
10
3.1002
20
1.35583
11
3.1002
21
1.43063
0
LINE
8
BLACK
6
CONTINUOUS
10
3.1002
20
1.43063
11
3.1008
21
1.43364
0
LINE
8
BLACK
6
CONTINUOUS
10
3.1008
20
1.43364
11
3.1025
21
1.4362
0
LINE
8
BLACK
6
CONTINUOUS
10
3.1025
20
1.4362
11
3.10506
21
1.4379
0
LINE
8
BLACK
6
CONTINUOUS
10
3.10506
20
1.4379
11
3.10807
21
1.4385
0
LINE
8
BLACK
6
CONTINUOUS
10
3.10807
20
1.4385
11
3.24193
21
1.4385
0
LINE
8
BLACK
6
CONTINUOUS
10
3.24193
20
1.4385
11
3.24494
21
1.4379
0
LINE
8
BLACK
6
CONTINUOUS
10
3.24494
20
1.59145
11
3.2475
21
1.58974
0
LINE
8
BLACK
6
CONTINUOUS
10
3.2475
20
1.58974
11
3.2492
21
1.58719
0
LINE
8
BLACK
6
CONTINUOUS
10
3.2492
20
1.58719
11
3.2498
21
1.58417
0
LINE
8
BLACK
6
CONTINUOUS
10
3.2498
20
1.58417
11
3.2498
21
1.50937
0
LINE
8
BLACK
6
CONTINUOUS
10
3.2498
20
1.50937
11
3.2492
21
1.50636
0
LINE
8
BLACK
6
CONTINUOUS
10
3.2492
20
1.50636
11
3.2475
21
1.5038
0
LINE
8
BLACK
6
CONTINUOUS
10
3.2475
20
1.5038
11
3.24494
21
1.5021
0
LINE
8
BLACK
6
CONTINUOUS
10
3.24494
20
1.5021
11
3.24193
21
1.5015
0
LINE
8
BLACK
6
CONTINUOUS
10
3.24193
20
1.5015
11
3.10807
21
1.5015
0
LINE
8
BLACK
6
CONTINUOUS
10
3.10807
20
1.5015
11
3.10506
21
1.5021
0
LINE
8
BLACK
6
CONTINUOUS
10
3.10506
20
1.5021
11
3.1025
21
1.5038
0
LINE
8
BLACK
6
CONTINUOUS
10
3.1025
20
1.5038
11
3.1008
21
1.50636
0
LINE
8
BLACK
6
CONTINUOUS
10
3.1008
20
1.50636
11
3.1002
21
1.50937
0
LINE
8
BLACK
6
CONTINUOUS
10
3.1002
20
1.50937
11
3.1002
21
1.58417
0
LINE
8
BLACK
6
CONTINUOUS
10
3.1002
20
1.58417
11
3.1008
21
1.58719
0
LINE
8
BLACK
6
CONTINUOUS
10
3.1008
20
1.58719
11
3.1025
21
1.58974
0
LINE
8
BLACK
6
CONTINUOUS
10
3.1025
20
1.58974
11
3.10506
21
1.59145
0
LINE
8
BLACK
6
CONTINUOUS
10
3.10506
20
1.59145
11
3.10807
21
1.59205
0
LINE
8
BLACK
6
CONTINUOUS
10
3.10807
20
1.59205
11
3.24193
21
1.59205
0
LINE
8
BLACK
6
CONTINUOUS
10
3.24193
20
1.59205
11
3.24494
21
1.59145
0
LINE
8
BLACK
6
CONTINUOUS
10
3.80348
20
1.88315
11
3.80845
21
1.88141
0
LINE
8
BLACK
6
CONTINUOUS
10
3.80845
20
1.88141
11
3.81268
21
1.87828
0
LINE
8
BLACK
6
CONTINUOUS
10
3.81268
20
1.87828
11
3.81581
21
1.87404
0
LINE
8
BLACK
6
CONTINUOUS
10
3.81581
20
1.87404
11
3.81756
21
1.86907
0
LINE
8
BLACK
6
CONTINUOUS
10
3.81756
20
1.86907
11
3.81787
21
1.86575
0
LINE
8
BLACK
6
CONTINUOUS
10
3.81787
20
1.86575
11
3.81787
21
1.84606
0
LINE
8
BLACK
6
CONTINUOUS
10
3.81787
20
1.84606
11
3.81756
21
1.84274
0
LINE
8
BLACK
6
CONTINUOUS
10
3.81756
20
1.84274
11
3.81581
21
1.83777
0
LINE
8
BLACK
6
CONTINUOUS
10
3.81581
20
1.83777
11
3.81268
21
1.83354
0
LINE
8
BLACK
6
CONTINUOUS
10
3.81268
20
1.83354
11
3.80845
21
1.83041
0
LINE
8
BLACK
6
CONTINUOUS
10
3.80845
20
1.83041
11
3.80348
21
1.82866
0
LINE
8
BLACK
6
CONTINUOUS
10
3.80348
20
1.82866
11
3.80016
21
1.82835
0
LINE
8
BLACK
6
CONTINUOUS
10
3.80016
20
1.82835
11
3.71354
21
1.82835
0
LINE
8
BLACK
6
CONTINUOUS
10
3.71354
20
1.82835
11
3.71022
21
1.82866
0
LINE
8
BLACK
6
CONTINUOUS
10
3.71022
20
1.82866
11
3.70525
21
1.83041
0
LINE
8
BLACK
6
CONTINUOUS
10
3.70525
20
1.83041
11
3.70102
21
1.83354
0
LINE
8
BLACK
6
CONTINUOUS
10
3.70102
20
1.83354
11
3.69789
21
1.83777
0
LINE
8
BLACK
6
CONTINUOUS
10
3.69789
20
1.83777
11
3.69614
21
1.84274
0
LINE
8
BLACK
6
CONTINUOUS
10
3.69614
20
1.84274
11
3.69583
21
1.84606
0
LINE
8
BLACK
6
CONTINUOUS
10
3.69583
20
1.84606
11
3.69583
21
1.86575
0
LINE
8
BLACK
6
CONTINUOUS
10
3.69583
20
1.86575
11
3.69614
21
1.86907
0
LINE
8
BLACK
6
CONTINUOUS
10
3.69614
20
1.86907
11
3.69789
21
1.87404
0
LINE
8
BLACK
6
CONTINUOUS
10
3.69789
20
1.87404
11
3.70102
21
1.87828
0
LINE
8
BLACK
6
CONTINUOUS
10
3.70102
20
1.87828
11
3.70525
21
1.88141
0
LINE
8
BLACK
6
CONTINUOUS
10
3.70525
20
1.88141
11
3.71022
21
1.88315
0
LINE
8
BLACK
6
CONTINUOUS
10
3.71022
20
1.88315
11
3.71354
21
1.88346
0
LINE
8
BLACK
6
CONTINUOUS
10
3.71354
20
1.88346
11
3.80016
21
1.88346
0
LINE
8
BLACK
6
CONTINUOUS
10
3.80016
20
1.88346
11
3.80348
21
1.88315
0
LINE
8
BLACK
6
CONTINUOUS
10
3.91433
20
1.94785
11
3.9184
21
1.94586
0
LINE
8
BLACK
6
CONTINUOUS
10
3.9184
20
1.94586
11
3.9216
21
1.94267
0
LINE
8
BLACK
6
CONTINUOUS
10
3.9216
20
1.94267
11
3.92359
21
1.93861
0
LINE
8
BLACK
6
CONTINUOUS
10
3.92359
20
1.93861
11
3.92417
21
1.93465
0
LINE
8
BLACK
6
CONTINUOUS
10
3.92417
20
1.93465
11
3.92417
21
1.92283
0
LINE
8
BLACK
6
CONTINUOUS
10
3.92417
20
1.92283
11
3.9236
21
1.9189
0
LINE
8
BLACK
6
CONTINUOUS
10
3.9236
20
1.9189
11
3.92161
21
1.91483
0
LINE
8
BLACK
6
CONTINUOUS
10
3.92161
20
1.91483
11
3.91842
21
1.91163
0
LINE
8
BLACK
6
CONTINUOUS
10
3.91842
20
1.91163
11
3.91435
21
1.90964
0
LINE
8
BLACK
6
CONTINUOUS
10
3.91435
20
1.90964
11
3.91039
21
1.90906
0
LINE
8
BLACK
6
CONTINUOUS
10
3.91039
20
1.90906
11
3.85528
21
1.90906
0
LINE
8
BLACK
6
CONTINUOUS
10
3.85528
20
1.90906
11
3.85134
21
1.90963
0
LINE
8
BLACK
6
CONTINUOUS
10
3.85134
20
1.90963
11
3.84727
21
1.91162
0
LINE
8
BLACK
6
CONTINUOUS
10
3.84727
20
1.91162
11
3.84407
21
1.91481
0
LINE
8
BLACK
6
CONTINUOUS
10
3.84407
20
1.91481
11
3.84208
21
1.91887
0
LINE
8
BLACK
6
CONTINUOUS
10
3.84208
20
1.91887
11
3.8415
21
1.92283
0
LINE
8
BLACK
6
CONTINUOUS
10
3.8415
20
1.92283
11
3.8415
21
1.93465
0
LINE
8
BLACK
6
CONTINUOUS
10
3.8415
20
1.93465
11
3.84207
21
1.93858
0
LINE
8
BLACK
6
CONTINUOUS
10
3.84207
20
1.93858
11
3.84406
21
1.94265
0
LINE
8
BLACK
6
CONTINUOUS
10
3.84406
20
1.94265
11
3.84725
21
1.94585
0
LINE
8
BLACK
6
CONTINUOUS
10
3.84725
20
1.94585
11
3.85132
21
1.94784
0
LINE
8
BLACK
6
CONTINUOUS
10
3.85132
20
1.94784
11
3.85528
21
1.94843
0
LINE
8
BLACK
6
CONTINUOUS
10
3.85528
20
1.94843
11
3.91039
21
1.94843
0
LINE
8
BLACK
6
CONTINUOUS
10
3.91039
20
1.94843
11
3.91433
21
1.94785
0
LINE
8
BLACK
6
CONTINUOUS
10
3.91433
20
1.99706
11
3.9184
21
1.99508
0
LINE
8
BLACK
6
CONTINUOUS
10
3.9184
20
1.99508
11
3.9216
21
1.99188
0
LINE
8
BLACK
6
CONTINUOUS
10
3.9216
20
1.99188
11
3.92359
21
1.98782
0
LINE
8
BLACK
6
CONTINUOUS
10
3.92359
20
1.98782
11
3.92417
21
1.98386
0
LINE
8
BLACK
6
CONTINUOUS
10
3.92417
20
1.98386
11
3.92417
21
1.97205
0
LINE
8
BLACK
6
CONTINUOUS
10
3.92417
20
1.97205
11
3.9236
21
1.96811
0
LINE
8
BLACK
6
CONTINUOUS
10
3.9236
20
1.96811
11
3.92161
21
1.96405
0
LINE
8
BLACK
6
CONTINUOUS
10
3.92161
20
1.96405
11
3.91842
21
1.96084
0
LINE
8
BLACK
6
CONTINUOUS
10
3.91842
20
1.96084
11
3.91435
21
1.95885
0
LINE
8
BLACK
6
CONTINUOUS
10
3.91435
20
1.95885
11
3.91039
21
1.95827
0
LINE
8
BLACK
6
CONTINUOUS
10
3.91039
20
1.95827
11
3.85528
21
1.95827
0
LINE
8
BLACK
6
CONTINUOUS
10
3.85528
20
1.95827
11
3.85134
21
1.95884
0
LINE
8
BLACK
6
CONTINUOUS
10
3.85134
20
1.95884
11
3.84727
21
1.96083
0
LINE
8
BLACK
6
CONTINUOUS
10
3.84727
20
1.96083
11
3.84407
21
1.96403
0
LINE
8
BLACK
6
CONTINUOUS
10
3.84407
20
1.96403
11
3.84208
21
1.96809
0
LINE
8
BLACK
6
CONTINUOUS
10
3.84208
20
1.96809
11
3.8415
21
1.97205
0
LINE
8
BLACK
6
CONTINUOUS
10
3.8415
20
1.97205
11
3.8415
21
1.98386
0
LINE
8
BLACK
6
CONTINUOUS
10
3.8415
20
1.98386
11
3.84207
21
1.98779
0
LINE
8
BLACK
6
CONTINUOUS
10
3.84207
20
1.98779
11
3.84406
21
1.99186
0
LINE
8
BLACK
6
CONTINUOUS
10
3.84406
20
1.99186
11
3.84725
21
1.99506
0
LINE
8
BLACK
6
CONTINUOUS
10
3.84725
20
1.99506
11
3.85132
21
1.99706
0
LINE
8
BLACK
6
CONTINUOUS
10
3.85132
20
1.99706
11
3.85528
21
1.99764
0
LINE
8
BLACK
6
CONTINUOUS
10
3.85528
20
1.99764
11
3.91039
21
1.99764
0
LINE
8
BLACK
6
CONTINUOUS
10
3.91039
20
1.99764
11
3.91433
21
1.99706
0
LINE
8
BLACK
6
CONTINUOUS
10
3.91433
20
2.04628
11
3.9184
21
2.04429
0
LINE
8
BLACK
6
CONTINUOUS
10
3.9184
20
2.04429
11
3.9216
21
2.04109
0
LINE
8
BLACK
6
CONTINUOUS
10
3.9216
20
2.04109
11
3.92359
21
2.03703
0
LINE
8
BLACK
6
CONTINUOUS
10
3.92359
20
2.03703
11
3.92417
21
2.03307
0
LINE
8
BLACK
6
CONTINUOUS
10
3.92417
20
2.03307
11
3.92417
21
2.02126
0
LINE
8
BLACK
6
CONTINUOUS
10
3.92417
20
2.02126
11
3.9236
21
2.01732
0
LINE
8
BLACK
6
CONTINUOUS
10
3.9236
20
2.01732
11
3.92161
21
2.01326
0
LINE
8
BLACK
6
CONTINUOUS
10
3.92161
20
2.01326
11
3.91842
21
2.01006
0
LINE
8
BLACK
6
CONTINUOUS
10
3.91842
20
2.01006
11
3.91435
21
2.00806
0
LINE
8
BLACK
6
CONTINUOUS
10
3.91435
20
2.00806
11
3.91039
21
2.00748
0
LINE
8
BLACK
6
CONTINUOUS
10
3.91039
20
2.00748
11
3.85528
21
2.00748
0
LINE
8
BLACK
6
CONTINUOUS
10
3.85528
20
2.00748
11
3.85134
21
2.00805
0
LINE
8
BLACK
6
CONTINUOUS
10
3.85134
20
2.00805
11
3.84727
21
2.01004
0
LINE
8
BLACK
6
CONTINUOUS
10
3.84727
20
2.01004
11
3.84407
21
2.01324
0
LINE
8
BLACK
6
CONTINUOUS
10
3.84407
20
2.01324
11
3.84208
21
2.0173
0
LINE
8
BLACK
6
CONTINUOUS
10
3.84208
20
2.0173
11
3.8415
21
2.02126
0
LINE
8
BLACK
6
CONTINUOUS
10
3.8415
20
2.02126
11
3.8415
21
2.03307
0
LINE
8
BLACK
6
CONTINUOUS
10
3.8415
20
2.03307
11
3.84207
21
2.03701
0
LINE
8
BLACK
6
CONTINUOUS
10
3.84207
20
2.03701
11
3.84406
21
2.04107
0
LINE
8
BLACK
6
CONTINUOUS
10
3.84406
20
2.04107
11
3.84725
21
2.04427
0
LINE
8
BLACK
6
CONTINUOUS
10
3.84725
20
2.04427
11
3.85132
21
2.04627
0
LINE
8
BLACK
6
CONTINUOUS
10
3.85132
20
2.04627
11
3.85528
21
2.04685
0
LINE
8
BLACK
6
CONTINUOUS
10
3.85528
20
2.04685
11
3.91039
21
2.04685
0
LINE
8
BLACK
6
CONTINUOUS
10
3.91039
20
2.04685
11
3.91433
21
2.04628
0
LINE
8
BLACK
6
CONTINUOUS
10
3.80348
20
2.12725
11
3.80845
21
2.1255
0
LINE
8
BLACK
6
CONTINUOUS
10
3.80845
20
2.1255
11
3.81268
21
2.12237
0
LINE
8
BLACK
6
CONTINUOUS
10
3.81268
20
2.12237
11
3.81581
21
2.11813
0
LINE
8
BLACK
6
CONTINUOUS
10
3.81581
20
2.11813
11
3.81756
21
2.11316
0
LINE
8
BLACK
6
CONTINUOUS
10
3.81756
20
2.11316
11
3.81787
21
2.10984
0
LINE
8
BLACK
6
CONTINUOUS
10
3.81787
20
2.10984
11
3.81787
21
2.09016
0
LINE
8
BLACK
6
CONTINUOUS
10
3.81787
20
2.09016
11
3.81756
21
2.08684
0
LINE
8
BLACK
6
CONTINUOUS
10
3.81756
20
2.08684
11
3.81581
21
2.08187
0
LINE
8
BLACK
6
CONTINUOUS
10
3.81581
20
2.08187
11
3.81268
21
2.07763
0
LINE
8
BLACK
6
CONTINUOUS
10
3.81268
20
2.07763
11
3.80845
21
2.0745
0
LINE
8
BLACK
6
CONTINUOUS
10
3.80845
20
2.0745
11
3.80348
21
2.07275
0
LINE
8
BLACK
6
CONTINUOUS
10
3.80348
20
2.07275
11
3.80016
21
2.07244
0
LINE
8
BLACK
6
CONTINUOUS
10
3.80016
20
2.07244
11
3.71354
21
2.07244
0
LINE
8
BLACK
6
CONTINUOUS
10
3.71354
20
2.07244
11
3.71022
21
2.07275
0
LINE
8
BLACK
6
CONTINUOUS
10
3.71022
20
2.07275
11
3.70525
21
2.0745
0
LINE
8
BLACK
6
CONTINUOUS
10
3.70525
20
2.0745
11
3.70102
21
2.07763
0
LINE
8
BLACK
6
CONTINUOUS
10
3.70102
20
2.07763
11
3.69789
21
2.08187
0
LINE
8
BLACK
6
CONTINUOUS
10
3.69789
20
2.08187
11
3.69614
21
2.08684
0
LINE
8
BLACK
6
CONTINUOUS
10
3.69614
20
2.08684
11
3.69583
21
2.09016
0
LINE
8
BLACK
6
CONTINUOUS
10
3.69583
20
2.09016
11
3.69583
21
2.10984
0
LINE
8
BLACK
6
CONTINUOUS
10
3.69583
20
2.10984
11
3.69614
21
2.11316
0
LINE
8
BLACK
6
CONTINUOUS
10
3.69614
20
2.11316
11
3.69789
21
2.11813
0
LINE
8
BLACK
6
CONTINUOUS
10
3.69789
20
2.11813
11
3.70102
21
2.12237
0
LINE
8
BLACK
6
CONTINUOUS
10
3.70102
20
2.12237
11
3.70525
21
2.1255
0
LINE
8
BLACK
6
CONTINUOUS
10
3.70525
20
2.1255
11
3.71022
21
2.12725
0
LINE
8
BLACK
6
CONTINUOUS
10
3.71022
20
2.12725
11
3.71354
21
2.12756
0
LINE
8
BLACK
6
CONTINUOUS
10
3.71354
20
2.12756
11
3.80016
21
2.12756
0
LINE
8
BLACK
6
CONTINUOUS
10
3.80016
20
2.12756
11
3.80348
21
2.12725
0
LINE
8
BLACK
6
CONTINUOUS
10
3.90978
20
2.2202
11
3.91475
21
2.21845
0
LINE
8
BLACK
6
CONTINUOUS
10
3.91475
20
2.21845
11
3.91898
21
2.21532
0
LINE
8
BLACK
6
CONTINUOUS
10
3.91898
20
2.21532
11
3.92211
21
2.21109
0
LINE
8
BLACK
6
CONTINUOUS
10
3.92211
20
2.21109
11
3.92386
21
2.20612
0
LINE
8
BLACK
6
CONTINUOUS
10
3.92386
20
2.20612
11
3.92417
21
2.2028
0
LINE
8
BLACK
6
CONTINUOUS
10
3.92417
20
2.2028
11
3.92417
21
2.18311
0
LINE
8
BLACK
6
CONTINUOUS
10
3.92417
20
2.18311
11
3.92386
21
2.17979
0
LINE
8
BLACK
6
CONTINUOUS
10
3.92386
20
2.17979
11
3.92211
21
2.17482
0
LINE
8
BLACK
6
CONTINUOUS
10
3.92211
20
2.17482
11
3.91898
21
2.17058
0
LINE
8
BLACK
6
CONTINUOUS
10
3.91898
20
2.17058
11
3.91475
21
2.16745
0
LINE
8
BLACK
6
CONTINUOUS
10
3.91475
20
2.16745
11
3.90978
21
2.16571
0
LINE
8
BLACK
6
CONTINUOUS
10
3.90978
20
2.16571
11
3.90646
21
2.16539
0
LINE
8
BLACK
6
CONTINUOUS
10
3.90646
20
2.16539
11
3.81984
21
2.16539
0
LINE
8
BLACK
6
CONTINUOUS
10
3.81984
20
2.16539
11
3.81652
21
2.16571
0
LINE
8
BLACK
6
CONTINUOUS
10
3.81652
20
2.16571
11
3.81155
21
2.16745
0
LINE
8
BLACK
6
CONTINUOUS
10
3.81155
20
2.16745
11
3.80732
21
2.17058
0
LINE
8
BLACK
6
CONTINUOUS
10
3.80732
20
2.17058
11
3.80419
21
2.17482
0
LINE
8
BLACK
6
CONTINUOUS
10
3.80419
20
2.17482
11
3.80244
21
2.17979
0
LINE
8
BLACK
6
CONTINUOUS
10
3.80244
20
2.17979
11
3.80213
21
2.18311
0
LINE
8
BLACK
6
CONTINUOUS
10
3.80213
20
2.18311
11
3.80213
21
2.2028
0
LINE
8
BLACK
6
CONTINUOUS
10
3.80213
20
2.2028
11
3.80244
21
2.20612
0
LINE
8
BLACK
6
CONTINUOUS
10
3.80244
20
2.20612
11
3.80419
21
2.21109
0
LINE
8
BLACK
6
CONTINUOUS
10
3.80419
20
2.21109
11
3.80732
21
2.21532
0
LINE
8
BLACK
6
CONTINUOUS
10
3.80732
20
2.21532
11
3.81155
21
2.21845
0
LINE
8
BLACK
6
CONTINUOUS
10
3.81155
20
2.21845
11
3.81652
21
2.2202
0
LINE
8
BLACK
6
CONTINUOUS
10
3.81652
20
2.2202
11
3.81984
21
2.22051
0
LINE
8
BLACK
6
CONTINUOUS
10
3.81984
20
2.22051
11
3.90646
21
2.22051
0
LINE
8
BLACK
6
CONTINUOUS
10
3.90646
20
2.22051
11
3.90978
21
2.2202
0
LINE
8
BLACK
6
CONTINUOUS
10
3.76866
20
2.2849
11
3.77273
21
2.28291
0
LINE
8
BLACK
6
CONTINUOUS
10
3.77273
20
2.28291
11
3.77593
21
2.27971
0
LINE
8
BLACK
6
CONTINUOUS
10
3.77593
20
2.27971
11
3.77792
21
2.27565
0
LINE
8
BLACK
6
CONTINUOUS
10
3.77792
20
2.27565
11
3.7785
21
2.27169
0
LINE
8
BLACK
6
CONTINUOUS
10
3.7785
20
2.27169
11
3.7785
21
2.25988
0
LINE
8
BLACK
6
CONTINUOUS
10
3.7785
20
2.25988
11
3.77793
21
2.25595
0
LINE
8
BLACK
6
CONTINUOUS
10
3.77793
20
2.25595
11
3.77594
21
2.25188
0
LINE
8
BLACK
6
CONTINUOUS
10
3.77594
20
2.25188
11
3.77275
21
2.24868
0
LINE
8
BLACK
6
CONTINUOUS
10
3.77275
20
2.24868
11
3.76868
21
2.24668
0
LINE
8
BLACK
6
CONTINUOUS
10
3.76868
20
2.24668
11
3.76472
21
2.2461
0
LINE
8
BLACK
6
CONTINUOUS
10
3.76472
20
2.2461
11
3.70961
21
2.2461
0
LINE
8
BLACK
6
CONTINUOUS
10
3.70961
20
2.2461
11
3.70567
21
2.24668
0
LINE
8
BLACK
6
CONTINUOUS
10
3.70567
20
2.24668
11
3.7016
21
2.24866
0
LINE
8
BLACK
6
CONTINUOUS
10
3.7016
20
2.24866
11
3.6984
21
2.25186
0
LINE
8
BLACK
6
CONTINUOUS
10
3.6984
20
2.25186
11
3.69641
21
2.25592
0
LINE
8
BLACK
6
CONTINUOUS
10
3.69641
20
2.25592
11
3.69583
21
2.25988
0
LINE
8
BLACK
6
CONTINUOUS
10
3.69583
20
2.25988
11
3.69583
21
2.27169
0
LINE
8
BLACK
6
CONTINUOUS
10
3.69583
20
2.27169
11
3.6964
21
2.27563
0
LINE
8
BLACK
6
CONTINUOUS
10
3.6964
20
2.27563
11
3.69839
21
2.27969
0
LINE
8
BLACK
6
CONTINUOUS
10
3.69839
20
2.27969
11
3.70158
21
2.2829
0
LINE
8
BLACK
6
CONTINUOUS
10
3.70158
20
2.2829
11
3.70565
21
2.28489
0
LINE
8
BLACK
6
CONTINUOUS
10
3.70565
20
2.28489
11
3.70961
21
2.28547
0
LINE
8
BLACK
6
CONTINUOUS
10
3.70961
20
2.28547
11
3.76472
21
2.28547
0
LINE
8
BLACK
6
CONTINUOUS
10
3.76472
20
2.28547
11
3.76866
21
2.2849
0
LINE
8
BLACK
6
CONTINUOUS
10
3.76866
20
2.33411
11
3.77273
21
2.33212
0
LINE
8
BLACK
6
CONTINUOUS
10
3.77273
20
2.33212
11
3.77593
21
2.32893
0
LINE
8
BLACK
6
CONTINUOUS
10
3.77593
20
2.32893
11
3.77792
21
2.32487
0
LINE
8
BLACK
6
CONTINUOUS
10
3.77792
20
2.32487
11
3.7785
21
2.32091
0
LINE
8
BLACK
6
CONTINUOUS
10
3.7785
20
2.32091
11
3.7785
21
2.30909
0
LINE
8
BLACK
6
CONTINUOUS
10
3.7785
20
2.30909
11
3.77793
21
2.30516
0
LINE
8
BLACK
6
CONTINUOUS
10
3.77793
20
2.30516
11
3.77594
21
2.30109
0
LINE
8
BLACK
6
CONTINUOUS
10
3.77594
20
2.30109
11
3.77275
21
2.29789
0
LINE
8
BLACK
6
CONTINUOUS
10
3.77275
20
2.29789
11
3.76868
21
2.2959
0
LINE
8
BLACK
6
CONTINUOUS
10
3.76868
20
2.2959
11
3.76472
21
2.29531
0
LINE
8
BLACK
6
CONTINUOUS
10
3.76472
20
2.29531
11
3.70961
21
2.29531
0
LINE
8
BLACK
6
CONTINUOUS
10
3.70961
20
2.29531
11
3.70567
21
2.29589
0
LINE
8
BLACK
6
CONTINUOUS
10
3.70567
20
2.29589
11
3.7016
21
2.29788
0
LINE
8
BLACK
6
CONTINUOUS
10
3.7016
20
2.29788
11
3.6984
21
2.30107
0
LINE
8
BLACK
6
CONTINUOUS
10
3.6984
20
2.30107
11
3.69641
21
2.30513
0
LINE
8
BLACK
6
CONTINUOUS
10
3.69641
20
2.30513
11
3.69583
21
2.30909
0
LINE
8
BLACK
6
CONTINUOUS
10
3.69583
20
2.30909
11
3.69583
21
2.32091
0
LINE
8
BLACK
6
CONTINUOUS
10
3.69583
20
2.32091
11
3.6964
21
2.32484
0
LINE
8
BLACK
6
CONTINUOUS
10
3.6964
20
2.32484
11
3.69839
21
2.32891
0
LINE
8
BLACK
6
CONTINUOUS
10
3.69839
20
2.32891
11
3.70158
21
2.33211
0
LINE
8
BLACK
6
CONTINUOUS
10
3.70158
20
2.33211
11
3.70565
21
2.3341
0
LINE
8
BLACK
6
CONTINUOUS
10
3.70565
20
2.3341
11
3.70961
21
2.33469
0
LINE
8
BLACK
6
CONTINUOUS
10
3.70961
20
2.33469
11
3.76472
21
2.33469
0
LINE
8
BLACK
6
CONTINUOUS
10
3.76472
20
2.33469
11
3.76866
21
2.33411
0
LINE
8
BLACK
6
CONTINUOUS
10
3.76866
20
2.38332
11
3.77273
21
2.38134
0
LINE
8
BLACK
6
CONTINUOUS
10
3.77273
20
2.38134
11
3.77593
21
2.37814
0
LINE
8
BLACK
6
CONTINUOUS
10
3.77593
20
2.37814
11
3.77792
21
2.37408
0
LINE
8
BLACK
6
CONTINUOUS
10
3.77792
20
2.37408
11
3.7785
21
2.37012
0
LINE
8
BLACK
6
CONTINUOUS
10
3.7785
20
2.37012
11
3.7785
21
2.35831
0
LINE
8
BLACK
6
CONTINUOUS
10
3.7785
20
2.35831
11
3.77793
21
2.35437
0
LINE
8
BLACK
6
CONTINUOUS
10
3.77793
20
2.35437
11
3.77594
21
2.35031
0
LINE
8
BLACK
6
CONTINUOUS
10
3.77594
20
2.35031
11
3.77275
21
2.3471
0
LINE
8
BLACK
6
CONTINUOUS
10
3.77275
20
2.3471
11
3.76868
21
2.34511
0
LINE
8
BLACK
6
CONTINUOUS
10
3.76868
20
2.34511
11
3.76472
21
2.34453
0
LINE
8
BLACK
6
CONTINUOUS
10
3.76472
20
2.34453
11
3.70961
21
2.34453
0
LINE
8
BLACK
6
CONTINUOUS
10
3.70961
20
2.34453
11
3.70567
21
2.3451
0
LINE
8
BLACK
6
CONTINUOUS
10
3.70567
20
2.3451
11
3.7016
21
2.34709
0
LINE
8
BLACK
6
CONTINUOUS
10
3.7016
20
2.34709
11
3.6984
21
2.35029
0
LINE
8
BLACK
6
CONTINUOUS
10
3.6984
20
2.35029
11
3.69641
21
2.35435
0
LINE
8
BLACK
6
CONTINUOUS
10
3.69641
20
2.35435
11
3.69583
21
2.35831
0
LINE
8
BLACK
6
CONTINUOUS
10
3.69583
20
2.35831
11
3.69583
21
2.37012
0
LINE
8
BLACK
6
CONTINUOUS
10
3.69583
20
2.37012
11
3.6964
21
2.37405
0
LINE
8
BLACK
6
CONTINUOUS
10
3.6964
20
2.37405
11
3.69839
21
2.37812
0
LINE
8
BLACK
6
CONTINUOUS
10
3.69839
20
2.37812
11
3.70158
21
2.38132
0
LINE
8
BLACK
6
CONTINUOUS
10
3.70158
20
2.38132
11
3.70565
21
2.38332
0
LINE
8
BLACK
6
CONTINUOUS
10
3.70565
20
2.38332
11
3.70961
21
2.3839
0
LINE
8
BLACK
6
CONTINUOUS
10
3.70961
20
2.3839
11
3.76472
21
2.3839
0
LINE
8
BLACK
6
CONTINUOUS
10
3.76472
20
2.3839
11
3.76866
21
2.38332
0
LINE
8
BLACK
6
CONTINUOUS
10
3.90978
20
2.46429
11
3.91475
21
2.46255
0
LINE
8
BLACK
6
CONTINUOUS
10
3.91475
20
2.46255
11
3.91898
21
2.45942
0
LINE
8
BLACK
6
CONTINUOUS
10
3.91898
20
2.45942
11
3.92211
21
2.45518
0
LINE
8
BLACK
6
CONTINUOUS
10
3.92211
20
2.45518
11
3.92386
21
2.45021
0
LINE
8
BLACK
6
CONTINUOUS
10
3.92386
20
2.45021
11
3.92417
21
2.44689
0
LINE
8
BLACK
6
CONTINUOUS
10
3.92417
20
2.44689
11
3.92417
21
2.4272
0
LINE
8
BLACK
6
CONTINUOUS
10
3.92417
20
2.4272
11
3.92386
21
2.42388
0
LINE
8
BLACK
6
CONTINUOUS
10
3.92386
20
2.42388
11
3.92211
21
2.41891
0
LINE
8
BLACK
6
CONTINUOUS
10
3.92211
20
2.41891
11
3.91898
21
2.41468
0
LINE
8
BLACK
6
CONTINUOUS
10
3.91898
20
2.41468
11
3.91475
21
2.41155
0
LINE
8
BLACK
6
CONTINUOUS
10
3.91475
20
2.41155
11
3.90978
21
2.4098
0
LINE
8
BLACK
6
CONTINUOUS
10
3.90978
20
2.4098
11
3.90646
21
2.40949
0
LINE
8
BLACK
6
CONTINUOUS
10
3.90646
20
2.40949
11
3.81984
21
2.40949
0
LINE
8
BLACK
6
CONTINUOUS
10
3.81984
20
2.40949
11
3.81652
21
2.4098
0
LINE
8
BLACK
6
CONTINUOUS
10
3.81652
20
2.4098
11
3.81155
21
2.41155
0
LINE
8
BLACK
6
CONTINUOUS
10
3.81155
20
2.41155
11
3.80732
21
2.41468
0
LINE
8
BLACK
6
CONTINUOUS
10
3.80732
20
2.41468
11
3.80419
21
2.41891
0
LINE
8
BLACK
6
CONTINUOUS
10
3.80419
20
2.41891
11
3.80244
21
2.42388
0
LINE
8
BLACK
6
CONTINUOUS
10
3.80244
20
2.42388
11
3.80213
21
2.4272
0
LINE
8
BLACK
6
CONTINUOUS
10
3.80213
20
2.4272
11
3.80213
21
2.44689
0
LINE
8
BLACK
6
CONTINUOUS
10
3.80213
20
2.44689
11
3.80244
21
2.45021
0
LINE
8
BLACK
6
CONTINUOUS
10
3.80244
20
2.45021
11
3.80419
21
2.45518
0
LINE
8
BLACK
6
CONTINUOUS
10
3.80419
20
2.45518
11
3.80732
21
2.45942
0
LINE
8
BLACK
6
CONTINUOUS
10
3.80732
20
2.45942
11
3.81155
21
2.46255
0
LINE
8
BLACK
6
CONTINUOUS
10
3.81155
20
2.46255
11
3.81652
21
2.46429
0
LINE
8
BLACK
6
CONTINUOUS
10
3.81652
20
2.46429
11
3.81984
21
2.46461
0
LINE
8
BLACK
6
CONTINUOUS
10
3.81984
20
2.46461
11
3.90646
21
2.46461
0
LINE
8
BLACK
6
CONTINUOUS
10
3.90646
20
2.46461
11
3.90978
21
2.46429
0
LINE
8
BLACK
6
CONTINUOUS
10
0.421334
20
2.70071
11
0.431701
21
2.69903
0
LINE
8
BLACK
6
CONTINUOUS
10
0.431701
20
2.69903
11
0.441704
21
2.69582
0
LINE
8
BLACK
6
CONTINUOUS
10
0.441704
20
2.69582
11
0.451125
21
2.69118
0
LINE
8
BLACK
6
CONTINUOUS
10
0.451125
20
2.69118
11
0.459755
21
2.68519
0
LINE
8
BLACK
6
CONTINUOUS
10
0.459755
20
2.68519
11
0.467405
21
2.67799
0
LINE
8
BLACK
6
CONTINUOUS
10
0.467405
20
2.67799
11
0.473908
21
2.66975
0
LINE
8
BLACK
6
CONTINUOUS
10
0.473908
20
2.66975
11
0.47912
21
2.66063
0
LINE
8
BLACK
6
CONTINUOUS
10
0.47912
20
2.66063
11
0.482927
21
2.65084
0
LINE
8
BLACK
6
CONTINUOUS
10
0.482927
20
2.65084
11
0.485245
21
2.64059
0
LINE
8
BLACK
6
CONTINUOUS
10
0.485245
20
2.64059
11
0.486024
21
2.63012
0
LINE
8
BLACK
6
CONTINUOUS
10
0.486024
20
2.63012
11
0.485926
21
2.62641
0
LINE
8
BLACK
6
CONTINUOUS
10
0.485926
20
2.62641
11
0.484601
21
2.61599
0
LINE
8
BLACK
6
CONTINUOUS
10
0.484601
20
2.61599
11
0.48175
21
2.60588
0
LINE
8
BLACK
6
CONTINUOUS
10
0.48175
20
2.60588
11
0.477436
21
2.5963
0
LINE
8
BLACK
6
CONTINUOUS
10
0.477436
20
2.5963
11
0.471754
21
2.58747
0
LINE
8
BLACK
6
CONTINUOUS
10
0.471754
20
2.58747
11
0.464828
21
2.57957
0
LINE
8
BLACK
6
CONTINUOUS
10
0.464828
20
2.57957
11
0.456812
21
2.57279
0
LINE
8
BLACK
6
CONTINUOUS
10
0.456812
20
2.57279
11
0.44788
21
2.56726
0
LINE
8
BLACK
6
CONTINUOUS
10
0.44788
20
2.56726
11
0.438229
21
2.56311
0
LINE
8
BLACK
6
CONTINUOUS
10
0.438229
20
2.56311
11
0.428072
21
2.56044
0
LINE
8
BLACK
6
CONTINUOUS
10
0.428072
20
2.56044
11
0.417631
21
2.5593
0
LINE
8
BLACK
6
CONTINUOUS
10
0.417631
20
2.5593
11
0.407135
21
2.55971
0
LINE
8
BLACK
6
CONTINUOUS
10
0.407135
20
2.55971
11
0.396816
21
2.56167
0
LINE
8
BLACK
6
CONTINUOUS
10
0.396816
20
2.56167
11
0.3869
21
2.56513
0
LINE
8
BLACK
6
CONTINUOUS
10
0.3869
20
2.56513
11
0.377604
21
2.57002
0
LINE
8
BLACK
6
CONTINUOUS
10
0.377604
20
2.57002
11
0.369134
21
2.57623
0
LINE
8
BLACK
6
CONTINUOUS
10
0.369134
20
2.57623
11
0.361674
21
2.58363
0
LINE
8
BLACK
6
CONTINUOUS
10
0.361674
20
2.58363
11
0.35539
21
2.59204
0
LINE
8
BLACK
6
CONTINUOUS
10
0.35539
20
2.59204
11
0.350418
21
2.60129
0
LINE
8
BLACK
6
CONTINUOUS
10
0.350418
20
2.60129
11
0.346869
21
2.61118
0
LINE
8
BLACK
6
CONTINUOUS
10
0.346869
20
2.61118
11
0.34482
21
2.62148
0
LINE
8
BLACK
6
CONTINUOUS
10
0.34482
20
2.62148
11
0.344316
21
2.63197
0
LINE
8
BLACK
6
CONTINUOUS
10
0.344316
20
2.63197
11
0.345368
21
2.64242
0
LINE
8
BLACK
6
CONTINUOUS
10
0.345368
20
2.64242
11
0.347953
21
2.6526
0
LINE
8
BLACK
6
CONTINUOUS
10
0.347953
20
2.6526
11
0.352015
21
2.66229
0
LINE
8
BLACK
6
CONTINUOUS
10
0.352015
20
2.66229
11
0.357464
21
2.67127
0
LINE
8
BLACK
6
CONTINUOUS
10
0.357464
20
2.67127
11
0.364181
21
2.67935
0
LINE
8
BLACK
6
CONTINUOUS
10
0.364181
20
2.67935
11
0.372017
21
2.68634
0
LINE
8
BLACK
6
CONTINUOUS
10
0.372017
20
2.68634
11
0.380801
21
2.6921
0
LINE
8
BLACK
6
CONTINUOUS
10
0.380801
20
2.6921
11
0.39034
21
2.6965
0
LINE
8
BLACK
6
CONTINUOUS
10
0.39034
20
2.6965
11
0.400424
21
2.69944
0
LINE
8
BLACK
6
CONTINUOUS
10
0.400424
20
2.69944
11
0.410831
21
2.70085
0
LINE
8
BLACK
6
CONTINUOUS
10
0.410831
20
2.70085
11
0.421334
21
2.70071
0
LINE
8
BLACK
6
CONTINUOUS
10
1.18118
20
2.70071
11
1.19154
21
2.69903
0
LINE
8
BLACK
6
CONTINUOUS
10
1.19154
20
2.69903
11
1.20155
21
2.69582
0
LINE
8
BLACK
6
CONTINUOUS
10
1.20155
20
2.69582
11
1.21097
21
2.69118
0
LINE
8
BLACK
6
CONTINUOUS
10
1.21097
20
2.69118
11
1.2196
21
2.68519
0
LINE
8
BLACK
6
CONTINUOUS
10
1.2196
20
2.68519
11
1.22725
21
2.67799
0
LINE
8
BLACK
6
CONTINUOUS
10
1.22725
20
2.67799
11
1.23375
21
2.66975
0
LINE
8
BLACK
6
CONTINUOUS
10
1.23375
20
2.66975
11
1.23896
21
2.66063
0
LINE
8
BLACK
6
CONTINUOUS
10
1.23896
20
2.66063
11
1.24277
21
2.65084
0
LINE
8
BLACK
6
CONTINUOUS
10
1.24277
20
2.65084
11
1.24509
21
2.64059
0
LINE
8
BLACK
6
CONTINUOUS
10
1.24509
20
2.64059
11
1.24587
21
2.63012
0
LINE
8
BLACK
6
CONTINUOUS
10
1.24587
20
2.63012
11
1.24577
21
2.62641
0
LINE
8
BLACK
6
CONTINUOUS
10
1.24577
20
2.62641
11
1.24444
21
2.61599
0
LINE
8
BLACK
6
CONTINUOUS
10
1.24444
20
2.61599
11
1.24159
21
2.60588
0
LINE
8
BLACK
6
CONTINUOUS
10
1.24159
20
2.60588
11
1.23728
21
2.5963
0
LINE
8
BLACK
6
CONTINUOUS
10
1.23728
20
2.5963
11
1.2316
21
2.58747
0
LINE
8
BLACK
6
CONTINUOUS
10
1.2316
20
2.58747
11
1.22467
21
2.57957
0
LINE
8
BLACK
6
CONTINUOUS
10
1.22467
20
2.57957
11
1.21665
21
2.57279
0
LINE
8
BLACK
6
CONTINUOUS
10
1.21665
20
2.57279
11
1.20772
21
2.56726
0
LINE
8
BLACK
6
CONTINUOUS
10
1.20772
20
2.56726
11
1.19807
21
2.56311
0
LINE
8
BLACK
6
CONTINUOUS
10
1.19807
20
2.56311
11
1.18791
21
2.56044
0
LINE
8
BLACK
6
CONTINUOUS
10
1.18791
20
2.56044
11
1.17747
21
2.5593
0
LINE
8
BLACK
6
CONTINUOUS
10
1.17747
20
2.5593
11
1.16698
21
2.55971
0
LINE
8
BLACK
6
CONTINUOUS
10
1.16698
20
2.55971
11
1.15666
21
2.56167
0
LINE
8
BLACK
6
CONTINUOUS
10
1.15666
20
2.56167
11
1.14674
21
2.56513
0
LINE
8
BLACK
6
CONTINUOUS
10
1.14674
20
2.56513
11
1.13745
21
2.57002
0
LINE
8
BLACK
6
CONTINUOUS
10
1.13745
20
2.57002
11
1.12898
21
2.57623
0
LINE
8
BLACK
6
CONTINUOUS
10
1.12898
20
2.57623
11
1.12152
21
2.58363
0
LINE
8
BLACK
6
CONTINUOUS
10
1.12152
20
2.58363
11
1.11523
21
2.59204
0
LINE
8
BLACK
6
CONTINUOUS
10
1.11523
20
2.59204
11
1.11026
21
2.60129
0
LINE
8
BLACK
6
CONTINUOUS
10
1.11026
20
2.60129
11
1.10671
21
2.61118
0
LINE
8
BLACK
6
CONTINUOUS
10
1.10671
20
2.61118
11
1.10466
21
2.62148
0
LINE
8
BLACK
6
CONTINUOUS
10
1.10466
20
2.62148
11
1.10416
21
2.63197
0
LINE
8
BLACK
6
CONTINUOUS
10
1.10416
20
2.63197
11
1.10521
21
2.64242
0
LINE
8
BLACK
6
CONTINUOUS
10
1.10521
20
2.64242
11
1.1078
21
2.6526
0
LINE
8
BLACK
6
CONTINUOUS
10
1.1078
20
2.6526
11
1.11186
21
2.66229
0
LINE
8
BLACK
6
CONTINUOUS
10
1.11186
20
2.66229
11
1.11731
21
2.67127
0
LINE
8
BLACK
6
CONTINUOUS
10
1.11731
20
2.67127
11
1.12402
21
2.67935
0
LINE
8
BLACK
6
CONTINUOUS
10
1.12402
20
2.67935
11
1.13186
21
2.68634
0
LINE
8
BLACK
6
CONTINUOUS
10
1.13186
20
2.68634
11
1.14064
21
2.6921
0
LINE
8
BLACK
6
CONTINUOUS
10
1.14064
20
2.6921
11
1.15018
21
2.6965
0
LINE
8
BLACK
6
CONTINUOUS
10
1.15018
20
2.6965
11
1.16027
21
2.69944
0
LINE
8
BLACK
6
CONTINUOUS
10
1.16027
20
2.69944
11
1.17067
21
2.70085
0
LINE
8
BLACK
6
CONTINUOUS
10
1.17067
20
2.70085
11
1.18118
21
2.70071
0
LINE
8
BLACK
6
CONTINUOUS
10
1.94102
20
2.70071
11
1.95139
21
2.69903
0
LINE
8
BLACK
6
CONTINUOUS
10
1.95139
20
2.69903
11
1.96139
21
2.69582
0
LINE
8
BLACK
6
CONTINUOUS
10
1.96139
20
2.69582
11
1.97081
21
2.69118
0
LINE
8
BLACK
6
CONTINUOUS
10
1.97081
20
2.69118
11
1.97944
21
2.68519
0
LINE
8
BLACK
6
CONTINUOUS
10
1.97944
20
2.68519
11
1.98709
21
2.67799
0
LINE
8
BLACK
6
CONTINUOUS
10
1.98709
20
2.67799
11
1.99359
21
2.66975
0
LINE
8
BLACK
6
CONTINUOUS
10
1.99359
20
2.66975
11
1.99881
21
2.66063
0
LINE
8
BLACK
6
CONTINUOUS
10
1.99881
20
2.66063
11
2.00261
21
2.65084
0
LINE
8
BLACK
6
CONTINUOUS
10
2.00261
20
2.65084
11
2.00493
21
2.64059
0
LINE
8
BLACK
6
CONTINUOUS
10
2.00493
20
2.64059
11
2.00571
21
2.63012
0
LINE
8
BLACK
6
CONTINUOUS
10
2.00571
20
2.63012
11
2.00561
21
2.62641
0
LINE
8
BLACK
6
CONTINUOUS
10
2.00561
20
2.62641
11
2.00429
21
2.61599
0
LINE
8
BLACK
6
CONTINUOUS
10
2.00429
20
2.61599
11
2.00143
21
2.60588
0
LINE
8
BLACK
6
CONTINUOUS
10
2.00143
20
2.60588
11
1.99712
21
2.5963
0
LINE
8
BLACK
6
CONTINUOUS
10
1.99712
20
2.5963
11
1.99144
21
2.58747
0
LINE
8
BLACK
6
CONTINUOUS
10
1.99144
20
2.58747
11
1.98451
21
2.57957
0
LINE
8
BLACK
6
CONTINUOUS
10
1.98451
20
2.57957
11
1.9765
21
2.57279
0
LINE
8
BLACK
6
CONTINUOUS
10
1.9765
20
2.57279
11
1.96756
21
2.56726
0
LINE
8
BLACK
6
CONTINUOUS
10
1.96756
20
2.56726
11
1.95791
21
2.56311
0
LINE
8
BLACK
6
CONTINUOUS
10
1.95791
20
2.56311
11
1.94776
21
2.56044
0
LINE
8
BLACK
6
CONTINUOUS
10
1.94776
20
2.56044
11
1.93732
21
2.5593
0
LINE
8
BLACK
6
CONTINUOUS
10
1.93732
20
2.5593
11
1.92682
21
2.55971
0
LINE
8
BLACK
6
CONTINUOUS
10
1.92682
20
2.55971
11
1.9165
21
2.56167
0
LINE
8
BLACK
6
CONTINUOUS
10
1.9165
20
2.56167
11
1.90658
21
2.56513
0
LINE
8
BLACK
6
CONTINUOUS
10
1.90658
20
2.56513
11
1.89729
21
2.57002
0
LINE
8
BLACK
6
CONTINUOUS
10
1.89729
20
2.57002
11
1.88882
21
2.57623
0
LINE
8
BLACK
6
CONTINUOUS
10
1.88882
20
2.57623
11
1.88136
21
2.58363
0
LINE
8
BLACK
6
CONTINUOUS
10
1.88136
20
2.58363
11
1.87507
21
2.59204
0
LINE
8
BLACK
6
CONTINUOUS
10
1.87507
20
2.59204
11
1.8701
21
2.60129
0
LINE
8
BLACK
6
CONTINUOUS
10
1.8701
20
2.60129
11
1.86655
21
2.61118
0
LINE
8
BLACK
6
CONTINUOUS
10
1.86655
20
2.61118
11
1.8645
21
2.62148
0
LINE
8
BLACK
6
CONTINUOUS
10
1.8645
20
2.62148
11
1.864
21
2.63197
0
LINE
8
BLACK
6
CONTINUOUS
10
1.864
20
2.63197
11
1.86505
21
2.64242
0
LINE
8
BLACK
6
CONTINUOUS
10
1.86505
20
2.64242
11
1.86764
21
2.6526
0
LINE
8
BLACK
6
CONTINUOUS
10
1.86764
20
2.6526
11
1.8717
21
2.66229
0
LINE
8
BLACK
6
CONTINUOUS
10
1.8717
20
2.66229
11
1.87715
21
2.67127
0
LINE
8
BLACK
6
CONTINUOUS
10
1.87715
20
2.67127
11
1.88387
21
2.67935
0
LINE
8
BLACK
6
CONTINUOUS
10
1.88387
20
2.67935
11
1.8917
21
2.68634
0
LINE
8
BLACK
6
CONTINUOUS
10
1.8917
20
2.68634
11
1.90049
21
2.6921
0
LINE
8
BLACK
6
CONTINUOUS
10
1.90049
20
2.6921
11
1.91002
21
2.6965
0
LINE
8
BLACK
6
CONTINUOUS
10
1.91002
20
2.6965
11
1.92011
21
2.69944
0
LINE
8
BLACK
6
CONTINUOUS
10
1.92011
20
2.69944
11
1.93052
21
2.70085
0
LINE
8
BLACK
6
CONTINUOUS
10
1.93052
20
2.70085
11
1.94102
21
2.70071
0
LINE
8
BLACK
6
CONTINUOUS
10
2.77389
20
2.70091
11
2.78426
21
2.69922
0
LINE
8
BLACK
6
CONTINUOUS
10
2.78426
20
2.69922
11
2.79426
21
2.69602
0
LINE
8
BLACK
6
CONTINUOUS
10
2.79426
20
2.69602
11
2.80368
21
2.69138
0
LINE
8
BLACK
6
CONTINUOUS
10
2.80368
20
2.69138
11
2.81231
21
2.68539
0
LINE
8
BLACK
6
CONTINUOUS
10
2.81231
20
2.68539
11
2.81996
21
2.67819
0
LINE
8
BLACK
6
CONTINUOUS
10
2.81996
20
2.67819
11
2.82647
21
2.66994
0
LINE
8
BLACK
6
CONTINUOUS
10
2.82647
20
2.66994
11
2.83168
21
2.66082
0
LINE
8
BLACK
6
CONTINUOUS
10
2.83168
20
2.66082
11
2.83549
21
2.65103
0
LINE
8
BLACK
6
CONTINUOUS
10
2.83549
20
2.65103
11
2.8378
21
2.64079
0
LINE
8
BLACK
6
CONTINUOUS
10
2.8378
20
2.64079
11
2.83858
21
2.63031
0
LINE
8
BLACK
6
CONTINUOUS
10
2.83858
20
2.63031
11
2.83849
21
2.62661
0
LINE
8
BLACK
6
CONTINUOUS
10
2.83849
20
2.62661
11
2.83716
21
2.61619
0
LINE
8
BLACK
6
CONTINUOUS
10
2.83716
20
2.61619
11
2.83431
21
2.60608
0
LINE
8
BLACK
6
CONTINUOUS
10
2.83431
20
2.60608
11
2.82999
21
2.5965
0
LINE
8
BLACK
6
CONTINUOUS
10
2.82999
20
2.5965
11
2.82431
21
2.58767
0
LINE
8
BLACK
6
CONTINUOUS
10
2.82431
20
2.58767
11
2.81739
21
2.57977
0
LINE
8
BLACK
6
CONTINUOUS
10
2.81739
20
2.57977
11
2.80937
21
2.57298
0
LINE
8
BLACK
6
CONTINUOUS
10
2.80937
20
2.57298
11
2.80044
21
2.56746
0
LINE
8
BLACK
6
CONTINUOUS
10
2.80044
20
2.56746
11
2.79079
21
2.56331
0
LINE
8
BLACK
6
CONTINUOUS
10
2.79079
20
2.56331
11
2.78063
21
2.56064
0
LINE
8
BLACK
6
CONTINUOUS
10
2.78063
20
2.56064
11
2.77019
21
2.55949
0
LINE
8
BLACK
6
CONTINUOUS
10
2.77019
20
2.55949
11
2.75969
21
2.5599
0
LINE
8
BLACK
6
CONTINUOUS
10
2.75969
20
2.5599
11
2.74938
21
2.56186
0
LINE
8
BLACK
6
CONTINUOUS
10
2.74938
20
2.56186
11
2.73946
21
2.56533
0
LINE
8
BLACK
6
CONTINUOUS
10
2.73946
20
2.56533
11
2.73016
21
2.57022
0
LINE
8
BLACK
6
CONTINUOUS
10
2.73016
20
2.57022
11
2.72169
21
2.57643
0
LINE
8
BLACK
6
CONTINUOUS
10
2.72169
20
2.57643
11
2.71423
21
2.58382
0
LINE
8
BLACK
6
CONTINUOUS
10
2.71423
20
2.58382
11
2.70795
21
2.59224
0
LINE
8
BLACK
6
CONTINUOUS
10
2.70795
20
2.59224
11
2.70298
21
2.60149
0
LINE
8
BLACK
6
CONTINUOUS
10
2.70298
20
2.60149
11
2.69943
21
2.61138
0
LINE
8
BLACK
6
CONTINUOUS
10
2.69943
20
2.61138
11
2.69738
21
2.62168
0
LINE
8
BLACK
6
CONTINUOUS
10
2.69738
20
2.62168
11
2.69687
21
2.63217
0
LINE
8
BLACK
6
CONTINUOUS
10
2.69687
20
2.63217
11
2.69793
21
2.64262
0
LINE
8
BLACK
6
CONTINUOUS
10
2.69793
20
2.64262
11
2.70051
21
2.6528
0
LINE
8
BLACK
6
CONTINUOUS
10
2.70051
20
2.6528
11
2.70457
21
2.66249
0
LINE
8
BLACK
6
CONTINUOUS
10
2.70457
20
2.66249
11
2.71002
21
2.67147
0
LINE
8
BLACK
6
CONTINUOUS
10
2.71002
20
2.67147
11
2.71674
21
2.67954
0
LINE
8
BLACK
6
CONTINUOUS
10
2.71674
20
2.67954
11
2.72458
21
2.68654
0
LINE
8
BLACK
6
CONTINUOUS
10
2.72458
20
2.68654
11
2.73336
21
2.6923
0
LINE
8
BLACK
6
CONTINUOUS
10
2.73336
20
2.6923
11
2.7429
21
2.69669
0
LINE
8
BLACK
6
CONTINUOUS
10
2.7429
20
2.69669
11
2.75298
21
2.69963
0
LINE
8
BLACK
6
CONTINUOUS
10
2.75298
20
2.69963
11
2.76339
21
2.70105
0
LINE
8
BLACK
6
CONTINUOUS
10
2.76339
20
2.70105
11
2.77389
21
2.70091
0
LINE
8
BLACK
6
CONTINUOUS
10
3.53374
20
2.70091
11
3.5441
21
2.69922
0
LINE
8
BLACK
6
CONTINUOUS
10
3.5441
20
2.69922
11
3.55411
21
2.69602
0
LINE
8
BLACK
6
CONTINUOUS
10
3.55411
20
2.69602
11
3.56353
21
2.69138
0
LINE
8
BLACK
6
CONTINUOUS
10
3.56353
20
2.69138
11
3.57216
21
2.68539
0
LINE
8
BLACK
6
CONTINUOUS
10
3.57216
20
2.68539
11
3.57981
21
2.67819
0
LINE
8
BLACK
6
CONTINUOUS
10
3.57981
20
2.67819
11
3.58631
21
2.66994
0
LINE
8
BLACK
6
CONTINUOUS
10
3.58631
20
2.66994
11
3.59152
21
2.66082
0
LINE
8
BLACK
6
CONTINUOUS
10
3.59152
20
2.66082
11
3.59533
21
2.65103
0
LINE
8
BLACK
6
CONTINUOUS
10
3.59533
20
2.65103
11
3.59765
21
2.64079
0
LINE
8
BLACK
6
CONTINUOUS
10
3.59765
20
2.64079
11
3.59843
21
2.63031
0
LINE
8
BLACK
6
CONTINUOUS
10
3.59843
20
2.63031
11
3.59833
21
2.62661
0
LINE
8
BLACK
6
CONTINUOUS
10
3.59833
20
2.62661
11
3.597
21
2.61619
0
LINE
8
BLACK
6
CONTINUOUS
10
3.597
20
2.61619
11
3.59415
21
2.60608
0
LINE
8
BLACK
6
CONTINUOUS
10
3.59415
20
2.60608
11
3.58984
21
2.5965
0
LINE
8
BLACK
6
CONTINUOUS
10
3.58984
20
2.5965
11
3.58416
21
2.58767
0
LINE
8
BLACK
6
CONTINUOUS
10
3.58416
20
2.58767
11
3.57723
21
2.57977
0
LINE
8
BLACK
6
CONTINUOUS
10
3.57723
20
2.57977
11
3.56921
21
2.57298
0
LINE
8
BLACK
6
CONTINUOUS
10
3.56921
20
2.57298
11
3.56028
21
2.56746
0
LINE
8
BLACK
6
CONTINUOUS
10
3.56028
20
2.56746
11
3.55063
21
2.56331
0
LINE
8
BLACK
6
CONTINUOUS
10
3.55063
20
2.56331
11
3.54047
21
2.56064
0
LINE
8
BLACK
6
CONTINUOUS
10
3.54047
20
2.56064
11
3.53003
21
2.55949
0
LINE
8
BLACK
6
CONTINUOUS
10
3.53003
20
2.55949
11
3.51954
21
2.5599
0
LINE
8
BLACK
6
CONTINUOUS
10
3.51954
20
2.5599
11
3.50922
21
2.56186
0
LINE
8
BLACK
6
CONTINUOUS
10
3.50922
20
2.56186
11
3.4993
21
2.56533
0
LINE
8
BLACK
6
CONTINUOUS
10
3.4993
20
2.56533
11
3.49001
21
2.57022
0
LINE
8
BLACK
6
CONTINUOUS
10
3.49001
20
2.57022
11
3.48154
21
2.57643
0
LINE
8
BLACK
6
CONTINUOUS
10
3.48154
20
2.57643
11
3.47408
21
2.58382
0
LINE
8
BLACK
6
CONTINUOUS
10
3.47408
20
2.58382
11
3.46779
21
2.59224
0
LINE
8
BLACK
6
CONTINUOUS
10
3.46779
20
2.59224
11
3.46282
21
2.60149
0
LINE
8
BLACK
6
CONTINUOUS
10
3.46282
20
2.60149
11
3.45927
21
2.61138
0
LINE
8
BLACK
6
CONTINUOUS
10
3.45927
20
2.61138
11
3.45722
21
2.62168
0
LINE
8
BLACK
6
CONTINUOUS
10
3.45722
20
2.62168
11
3.45672
21
2.63217
0
LINE
8
BLACK
6
CONTINUOUS
10
3.45672
20
2.63217
11
3.45777
21
2.64262
0
LINE
8
BLACK
6
CONTINUOUS
10
3.45777
20
2.64262
11
3.46035
21
2.6528
0
LINE
8
BLACK
6
CONTINUOUS
10
3.46035
20
2.6528
11
3.46442
21
2.66249
0
LINE
8
BLACK
6
CONTINUOUS
10
3.46442
20
2.66249
11
3.46987
21
2.67147
0
LINE
8
BLACK
6
CONTINUOUS
10
3.46987
20
2.67147
11
3.47658
21
2.67954
0
LINE
8
BLACK
6
CONTINUOUS
10
3.47658
20
2.67954
11
3.48442
21
2.68654
0
LINE
8
BLACK
6
CONTINUOUS
10
3.48442
20
2.68654
11
3.4932
21
2.6923
0
LINE
8
BLACK
6
CONTINUOUS
10
3.4932
20
2.6923
11
3.50274
21
2.69669
0
LINE
8
BLACK
6
CONTINUOUS
10
3.50274
20
2.69669
11
3.51283
21
2.69963
0
LINE
8
BLACK
6
CONTINUOUS
10
3.51283
20
2.69963
11
3.52323
21
2.70105
0
LINE
8
BLACK
6
CONTINUOUS
10
3.52323
20
2.70105
11
3.53374
21
2.70091
0
LINE
8
BLACK
6
CONTINUOUS
10
3.39144
20
2.8379
11
3.39399
21
2.8362
0
LINE
8
BLACK
6
CONTINUOUS
10
3.39399
20
2.8362
11
3.3957
21
2.83364
0
LINE
8
BLACK
6
CONTINUOUS
10
3.3957
20
2.83364
11
3.3963
21
2.83063
0
LINE
8
BLACK
6
CONTINUOUS
10
3.3963
20
2.83063
11
3.3963
21
2.75583
0
LINE
8
BLACK
6
CONTINUOUS
10
3.3963
20
2.75583
11
3.3957
21
2.75281
0
LINE
8
BLACK
6
CONTINUOUS
10
3.3957
20
2.75281
11
3.39399
21
2.75026
0
LINE
8
BLACK
6
CONTINUOUS
10
3.39399
20
2.75026
11
3.39144
21
2.74855
0
LINE
8
BLACK
6
CONTINUOUS
10
3.39144
20
2.74855
11
3.38843
21
2.74795
0
LINE
8
BLACK
6
CONTINUOUS
10
3.38843
20
2.74795
11
3.25457
21
2.74795
0
LINE
8
BLACK
6
CONTINUOUS
10
3.25457
20
2.74795
11
3.25155
21
2.74855
0
LINE
8
BLACK
6
CONTINUOUS
10
3.25155
20
2.74855
11
3.249
21
2.75026
0
LINE
8
BLACK
6
CONTINUOUS
10
3.249
20
2.75026
11
3.24729
21
2.75281
0
LINE
8
BLACK
6
CONTINUOUS
10
3.24729
20
2.75281
11
3.24669
21
2.75583
0
LINE
8
BLACK
6
CONTINUOUS
10
3.24669
20
2.75583
11
3.24669
21
2.83063
0
LINE
8
BLACK
6
CONTINUOUS
10
3.24669
20
2.83063
11
3.24729
21
2.83364
0
LINE
8
BLACK
6
CONTINUOUS
10
3.24729
20
2.83364
11
3.249
21
2.8362
0
LINE
8
BLACK
6
CONTINUOUS
10
3.249
20
2.8362
11
3.25155
21
2.8379
0
LINE
8
BLACK
6
CONTINUOUS
10
3.25155
20
2.8379
11
3.25457
21
2.8385
0
LINE
8
BLACK
6
CONTINUOUS
10
3.25457
20
2.8385
11
3.38843
21
2.8385
0
LINE
8
BLACK
6
CONTINUOUS
10
3.38843
20
2.8385
11
3.39144
21
2.8379
0
LINE
8
BLACK
6
CONTINUOUS
10
2.63553
20
2.8379
11
2.63809
21
2.8362
0
LINE
8
BLACK
6
CONTINUOUS
10
2.63809
20
2.8362
11
2.63979
21
2.83364
0
LINE
8
BLACK
6
CONTINUOUS
10
2.63979
20
2.83364
11
2.64039
21
2.83063
0
LINE
8
BLACK
6
CONTINUOUS
10
2.64039
20
2.83063
11
2.64039
21
2.75583
0
LINE
8
BLACK
6
CONTINUOUS
10
2.64039
20
2.75583
11
2.63979
21
2.75281
0
LINE
8
BLACK
6
CONTINUOUS
10
2.63979
20
2.75281
11
2.63809
21
2.75026
0
LINE
8
BLACK
6
CONTINUOUS
10
2.63809
20
2.75026
11
2.63553
21
2.74855
0
LINE
8
BLACK
6
CONTINUOUS
10
2.63553
20
2.74855
11
2.63252
21
2.74795
0
LINE
8
BLACK
6
CONTINUOUS
10
2.63252
20
2.74795
11
2.49866
21
2.74795
0
LINE
8
BLACK
6
CONTINUOUS
10
2.49866
20
2.74795
11
2.49565
21
2.74855
0
LINE
8
BLACK
6
CONTINUOUS
10
2.49565
20
2.74855
11
2.49309
21
2.75026
0
LINE
8
BLACK
6
CONTINUOUS
10
2.49309
20
2.75026
11
2.49139
21
2.75281
0
LINE
8
BLACK
6
CONTINUOUS
10
2.49139
20
2.75281
11
2.49079
21
2.75583
0
LINE
8
BLACK
6
CONTINUOUS
10
2.49079
20
2.75583
11
2.49079
21
2.83063
0
LINE
8
BLACK
6
CONTINUOUS
10
2.49079
20
2.83063
11
2.49139
21
2.83364
0
LINE
8
BLACK
6
CONTINUOUS
10
2.49139
20
2.83364
11
2.49309
21
2.8362
0
LINE
8
BLACK
6
CONTINUOUS
10
2.49309
20
2.8362
11
2.49565
21
2.8379
0
LINE
8
BLACK
6
CONTINUOUS
10
2.49565
20
2.8379
11
2.49866
21
2.8385
0
LINE
8
BLACK
6
CONTINUOUS
10
2.49866
20
2.8385
11
2.63252
21
2.8385
0
LINE
8
BLACK
6
CONTINUOUS
10
2.63252
20
2.8385
11
2.63553
21
2.8379
0
LINE
8
BLACK
6
CONTINUOUS
10
1.80876
20
2.8379
11
1.81132
21
2.8362
0
LINE
8
BLACK
6
CONTINUOUS
10
1.81132
20
2.8362
11
1.81302
21
2.83364
0
LINE
8
BLACK
6
CONTINUOUS
10
1.81302
20
2.83364
11
1.81362
21
2.83063
0
LINE
8
BLACK
6
CONTINUOUS
10
1.81362
20
2.83063
11
1.81362
21
2.75583
0
LINE
8
BLACK
6
CONTINUOUS
10
1.81362
20
2.75583
11
1.81302
21
2.75281
0
LINE
8
BLACK
6
CONTINUOUS
10
1.81302
20
2.75281
11
1.81132
21
2.75026
0
LINE
8
BLACK
6
CONTINUOUS
10
1.81132
20
2.75026
11
1.80876
21
2.74855
0
LINE
8
BLACK
6
CONTINUOUS
10
1.80876
20
2.74855
11
1.80575
21
2.74795
0
LINE
8
BLACK
6
CONTINUOUS
10
1.80575
20
2.74795
11
1.67189
21
2.74795
0
LINE
8
BLACK
6
CONTINUOUS
10
1.67189
20
2.74795
11
1.66888
21
2.74855
0
LINE
8
BLACK
6
CONTINUOUS
10
1.66888
20
2.74855
11
1.66632
21
2.75026
0
LINE
8
BLACK
6
CONTINUOUS
10
1.66632
20
2.75026
11
1.66462
21
2.75281
0
LINE
8
BLACK
6
CONTINUOUS
10
1.66462
20
2.75281
11
1.66402
21
2.75583
0
LINE
8
BLACK
6
CONTINUOUS
10
1.66402
20
2.75583
11
1.66402
21
2.83063
0
LINE
8
BLACK
6
CONTINUOUS
10
1.66402
20
2.83063
11
1.66462
21
2.83364
0
LINE
8
BLACK
6
CONTINUOUS
10
1.66462
20
2.83364
11
1.66632
21
2.8362
0
LINE
8
BLACK
6
CONTINUOUS
10
1.66632
20
2.8362
11
1.66888
21
2.8379
0
LINE
8
BLACK
6
CONTINUOUS
10
1.66888
20
2.8379
11
1.67189
21
2.8385
0
LINE
8
BLACK
6
CONTINUOUS
10
1.67189
20
2.8385
11
1.80575
21
2.8385
0
LINE
8
BLACK
6
CONTINUOUS
10
1.80575
20
2.8385
11
1.80876
21
2.8379
0
LINE
8
BLACK
6
CONTINUOUS
10
1.04498
20
2.8379
11
1.04754
21
2.8362
0
LINE
8
BLACK
6
CONTINUOUS
10
1.04754
20
2.8362
11
1.04924
21
2.83364
0
LINE
8
BLACK
6
CONTINUOUS
10
1.04924
20
2.83364
11
1.04984
21
2.83063
0
LINE
8
BLACK
6
CONTINUOUS
10
1.04984
20
2.83063
11
1.04984
21
2.75583
0
LINE
8
BLACK
6
CONTINUOUS
10
1.04984
20
2.75583
11
1.04924
21
2.75281
0
LINE
8
BLACK
6
CONTINUOUS
10
1.04924
20
2.75281
11
1.04754
21
2.75026
0
LINE
8
BLACK
6
CONTINUOUS
10
1.04754
20
2.75026
11
1.04498
21
2.74855
0
LINE
8
BLACK
6
CONTINUOUS
10
1.04498
20
2.74855
11
1.04197
21
2.74795
0
LINE
8
BLACK
6
CONTINUOUS
10
1.04197
20
2.74795
11
0.90811
21
2.74795
0
LINE
8
BLACK
6
CONTINUOUS
10
0.90811
20
2.74795
11
0.905097
21
2.74855
0
LINE
8
BLACK
6
CONTINUOUS
10
0.905097
20
2.74855
11
0.902542
21
2.75026
0
LINE
8
BLACK
6
CONTINUOUS
10
0.902542
20
2.75026
11
0.900836
21
2.75281
0
LINE
8
BLACK
6
CONTINUOUS
10
0.900836
20
2.75281
11
0.900236
21
2.75583
0
LINE
8
BLACK
6
CONTINUOUS
10
0.900236
20
2.75583
11
0.900236
21
2.83063
0
LINE
8
BLACK
6
CONTINUOUS
10
0.900236
20
2.83063
11
0.900836
21
2.83364
0
LINE
8
BLACK
6
CONTINUOUS
10
0.900836
20
2.83364
11
0.902542
21
2.8362
0
LINE
8
BLACK
6
CONTINUOUS
10
0.902542
20
2.8362
11
0.905097
21
2.8379
0
LINE
8
BLACK
6
CONTINUOUS
10
0.905097
20
2.8379
11
0.90811
21
2.8385
0
LINE
8
BLACK
6
CONTINUOUS
10
0.90811
20
2.8385
11
1.04197
21
2.8385
0
LINE
8
BLACK
6
CONTINUOUS
10
1.04197
20
2.8385
11
1.04498
21
2.8379
0
LINE
8
BLACK
6
CONTINUOUS
10
0.690651
20
2.8379
11
0.693206
21
2.8362
0
LINE
8
BLACK
6
CONTINUOUS
10
0.693206
20
2.8362
11
0.694912
21
2.83364
0
LINE
8
BLACK
6
CONTINUOUS
10
0.694912
20
2.83364
11
0.695512
21
2.83063
0
LINE
8
BLACK
6
CONTINUOUS
10
0.695512
20
2.83063
11
0.695512
21
2.75583
0
LINE
8
BLACK
6
CONTINUOUS
10
0.695512
20
2.75583
11
0.694912
21
2.75281
0
LINE
8
BLACK
6
CONTINUOUS
10
0.694912
20
2.75281
11
0.693206
21
2.75026
0
LINE
8
BLACK
6
CONTINUOUS
10
0.693206
20
2.75026
11
0.690651
21
2.74855
0
LINE
8
BLACK
6
CONTINUOUS
10
0.690651
20
2.74855
11
0.687638
21
2.74795
0
LINE
8
BLACK
6
CONTINUOUS
10
0.687638
20
2.74795
11
0.55378
21
2.74795
0
LINE
8
BLACK
6
CONTINUOUS
10
0.55378
20
2.74795
11
0.550766
21
2.74855
0
LINE
8
BLACK
6
CONTINUOUS
10
0.550766
20
2.74855
11
0.548212
21
2.75026
0
LINE
8
BLACK
6
CONTINUOUS
10
0.548212
20
2.75026
11
0.546505
21
2.75281
0
LINE
8
BLACK
6
CONTINUOUS
10
0.546505
20
2.75281
11
0.545906
21
2.75583
0
LINE
8
BLACK
6
CONTINUOUS
10
0.545906
20
2.75583
11
0.545906
21
2.83063
0
LINE
8
BLACK
6
CONTINUOUS
10
0.545906
20
2.83063
11
0.546505
21
2.83364
0
LINE
8
BLACK
6
CONTINUOUS
10
0.546505
20
2.83364
11
0.548212
21
2.8362
0
LINE
8
BLACK
6
CONTINUOUS
10
0.548212
20
2.8362
11
0.550766
21
2.8379
0
LINE
8
BLACK
6
CONTINUOUS
10
0.550766
20
2.8379
11
0.55378
21
2.8385
0
LINE
8
BLACK
6
CONTINUOUS
10
0.55378
20
2.8385
11
0.687638
21
2.8385
0
LINE
8
BLACK
6
CONTINUOUS
10
0.687638
20
2.8385
11
0.690651
21
2.8379
0
LINE
8
BLACK
6
CONTINUOUS
10
0.496911
20
3.04861
11
0.499465
21
3.04691
0
LINE
8
BLACK
6
CONTINUOUS
10
0.499465
20
3.04691
11
0.501172
21
3.04435
0
LINE
8
BLACK
6
CONTINUOUS
10
0.501172
20
3.04435
11
0.501772
21
3.04134
0
LINE
8
BLACK
6
CONTINUOUS
10
0.501772
20
3.04134
11
0.501772
21
2.88386
0
LINE
8
BLACK
6
CONTINUOUS
10
0.501772
20
2.88386
11
0.501172
21
2.88084
0
LINE
8
BLACK
6
CONTINUOUS
10
0.501172
20
2.88084
11
0.499465
21
2.87829
0
LINE
8
BLACK
6
CONTINUOUS
10
0.499465
20
2.87829
11
0.496911
21
2.87658
0
LINE
8
BLACK
6
CONTINUOUS
10
0.496911
20
2.87658
11
0.493898
21
2.87598
0
LINE
8
BLACK
6
CONTINUOUS
10
0.493898
20
2.87598
11
0.336417
21
2.87598
0
LINE
8
BLACK
6
CONTINUOUS
10
0.336417
20
2.87598
11
0.333404
21
2.87658
0
LINE
8
BLACK
6
CONTINUOUS
10
0.333404
20
2.87658
11
0.33085
21
2.87829
0
LINE
8
BLACK
6
CONTINUOUS
10
0.33085
20
2.87829
11
0.329143
21
2.88084
0
LINE
8
BLACK
6
CONTINUOUS
10
0.329143
20
2.88084
11
0.328543
21
2.88386
0
LINE
8
BLACK
6
CONTINUOUS
10
0.328543
20
2.88386
11
0.328543
21
3.04134
0
LINE
8
BLACK
6
CONTINUOUS
10
0.328543
20
3.04134
11
0.329143
21
3.04435
0
LINE
8
BLACK
6
CONTINUOUS
10
0.329143
20
3.04435
11
0.33085
21
3.04691
0
LINE
8
BLACK
6
CONTINUOUS
10
0.33085
20
3.04691
11
0.333404
21
3.04861
0
LINE
8
BLACK
6
CONTINUOUS
10
0.333404
20
3.04861
11
0.336417
21
3.04921
0
LINE
8
BLACK
6
CONTINUOUS
10
0.336417
20
3.04921
11
0.493898
21
3.04921
0
LINE
8
BLACK
6
CONTINUOUS
10
0.493898
20
3.04921
11
0.496911
21
3.04861
0
LINE
8
BLACK
6
CONTINUOUS
10
1.25675
20
3.04861
11
1.25931
21
3.04691
0
LINE
8
BLACK
6
CONTINUOUS
10
1.25931
20
3.04691
11
1.26101
21
3.04435
0
LINE
8
BLACK
6
CONTINUOUS
10
1.26101
20
3.04435
11
1.26161
21
3.04134
0
LINE
8
BLACK
6
CONTINUOUS
10
1.26161
20
3.04134
11
1.26161
21
2.88386
0
LINE
8
BLACK
6
CONTINUOUS
10
1.26161
20
2.88386
11
1.26101
21
2.88084
0
LINE
8
BLACK
6
CONTINUOUS
10
1.26101
20
2.88084
11
1.25931
21
2.87829
0
LINE
8
BLACK
6
CONTINUOUS
10
1.25931
20
2.87829
11
1.25675
21
2.87658
0
LINE
8
BLACK
6
CONTINUOUS
10
1.25675
20
2.87658
11
1.25374
21
2.87598
0
LINE
8
BLACK
6
CONTINUOUS
10
1.25374
20
2.87598
11
1.09626
21
2.87598
0
LINE
8
BLACK
6
CONTINUOUS
10
1.09626
20
2.87598
11
1.09325
21
2.87658
0
LINE
8
BLACK
6
CONTINUOUS
10
1.09325
20
2.87658
11
1.09069
21
2.87829
0
LINE
8
BLACK
6
CONTINUOUS
10
1.09069
20
2.87829
11
1.08899
21
2.88084
0
LINE
8
BLACK
6
CONTINUOUS
10
1.08899
20
2.88084
11
1.08839
21
2.88386
0
LINE
8
BLACK
6
CONTINUOUS
10
1.08839
20
2.88386
11
1.08839
21
3.04134
0
LINE
8
BLACK
6
CONTINUOUS
10
1.08839
20
3.04134
11
1.08899
21
3.04435
0
LINE
8
BLACK
6
CONTINUOUS
10
1.08899
20
3.04435
11
1.09069
21
3.04691
0
LINE
8
BLACK
6
CONTINUOUS
10
1.09069
20
3.04691
11
1.09325
21
3.04861
0
LINE
8
BLACK
6
CONTINUOUS
10
1.09325
20
3.04861
11
1.09626
21
3.04921
0
LINE
8
BLACK
6
CONTINUOUS
10
1.09626
20
3.04921
11
1.25374
21
3.04921
0
LINE
8
BLACK
6
CONTINUOUS
10
1.25374
20
3.04921
11
1.25675
21
3.04861
0
LINE
8
BLACK
6
CONTINUOUS
10
2.0166
20
3.04861
11
2.01915
21
3.04691
0
LINE
8
BLACK
6
CONTINUOUS
10
2.01915
20
3.04691
11
2.02086
21
3.04435
0
LINE
8
BLACK
6
CONTINUOUS
10
2.02086
20
3.04435
11
2.02146
21
3.04134
0
LINE
8
BLACK
6
CONTINUOUS
10
2.02146
20
3.04134
11
2.02146
21
2.88386
0
LINE
8
BLACK
6
CONTINUOUS
10
2.02146
20
2.88386
11
2.02086
21
2.88084
0
LINE
8
BLACK
6
CONTINUOUS
10
2.02086
20
2.88084
11
2.01915
21
2.87829
0
LINE
8
BLACK
6
CONTINUOUS
10
2.01915
20
2.87829
11
2.0166
21
2.87658
0
LINE
8
BLACK
6
CONTINUOUS
10
2.0166
20
2.87658
11
2.01358
21
2.87598
0
LINE
8
BLACK
6
CONTINUOUS
10
2.01358
20
2.87598
11
1.8561
21
2.87598
0
LINE
8
BLACK
6
CONTINUOUS
10
1.8561
20
2.87598
11
1.85309
21
2.87658
0
LINE
8
BLACK
6
CONTINUOUS
10
1.85309
20
2.87658
11
1.85053
21
2.87829
0
LINE
8
BLACK
6
CONTINUOUS
10
1.85053
20
2.87829
11
1.84883
21
2.88084
0
LINE
8
BLACK
6
CONTINUOUS
10
1.84883
20
2.88084
11
1.84823
21
2.88386
0
LINE
8
BLACK
6
CONTINUOUS
10
1.84823
20
2.88386
11
1.84823
21
3.04134
0
LINE
8
BLACK
6
CONTINUOUS
10
1.84823
20
3.04134
11
1.84883
21
3.04435
0
LINE
8
BLACK
6
CONTINUOUS
10
1.84883
20
3.04435
11
1.85053
21
3.04691
0
LINE
8
BLACK
6
CONTINUOUS
10
1.85053
20
3.04691
11
1.85309
21
3.04861
0
LINE
8
BLACK
6
CONTINUOUS
10
1.85309
20
3.04861
11
1.8561
21
3.04921
0
LINE
8
BLACK
6
CONTINUOUS
10
1.8561
20
3.04921
11
2.01358
21
3.04921
0
LINE
8
BLACK
6
CONTINUOUS
10
2.01358
20
3.04921
11
2.0166
21
3.04861
0
LINE
8
BLACK
6
CONTINUOUS
10
3.60931
20
3.05058
11
3.61187
21
3.04887
0
LINE
8
BLACK
6
CONTINUOUS
10
3.61187
20
3.04887
11
3.61357
21
3.04632
0
LINE
8
BLACK
6
CONTINUOUS
10
3.61357
20
3.04632
11
3.61417
21
3.04331
0
LINE
8
BLACK
6
CONTINUOUS
10
3.61417
20
3.04331
11
3.61417
21
2.88583
0
LINE
8
BLACK
6
CONTINUOUS
10
3.61417
20
2.88583
11
3.61357
21
2.88281
0
LINE
8
BLACK
6
CONTINUOUS
10
3.61357
20
2.88281
11
3.61187
21
2.88026
0
LINE
8
BLACK
6
CONTINUOUS
10
3.61187
20
2.88026
11
3.60931
21
2.87855
0
LINE
8
BLACK
6
CONTINUOUS
10
3.60931
20
2.87855
11
3.6063
21
2.87795
0
LINE
8
BLACK
6
CONTINUOUS
10
3.6063
20
2.87795
11
3.44882
21
2.87795
0
LINE
8
BLACK
6
CONTINUOUS
10
3.44882
20
2.87795
11
3.44581
21
2.87855
0
LINE
8
BLACK
6
CONTINUOUS
10
3.44581
20
2.87855
11
3.44325
21
2.88026
0
LINE
8
BLACK
6
CONTINUOUS
10
3.44325
20
2.88026
11
3.44154
21
2.88281
0
LINE
8
BLACK
6
CONTINUOUS
10
3.44154
20
2.88281
11
3.44094
21
2.88583
0
LINE
8
BLACK
6
CONTINUOUS
10
3.44094
20
2.88583
11
3.44094
21
3.04331
0
LINE
8
BLACK
6
CONTINUOUS
10
3.44094
20
3.04331
11
3.44154
21
3.04632
0
LINE
8
BLACK
6
CONTINUOUS
10
3.44154
20
3.04632
11
3.44325
21
3.04887
0
LINE
8
BLACK
6
CONTINUOUS
10
3.44325
20
3.04887
11
3.44581
21
3.05058
0
LINE
8
BLACK
6
CONTINUOUS
10
3.44581
20
3.05058
11
3.44882
21
3.05118
0
LINE
8
BLACK
6
CONTINUOUS
10
3.44882
20
3.05118
11
3.6063
21
3.05118
0
LINE
8
BLACK
6
CONTINUOUS
10
3.6063
20
3.05118
11
3.60931
21
3.05058
0
LINE
8
BLACK
6
CONTINUOUS
10
2.84947
20
3.05058
11
2.85202
21
3.04887
0
LINE
8
BLACK
6
CONTINUOUS
10
2.85202
20
3.04887
11
2.85373
21
3.04632
0
LINE
8
BLACK
6
CONTINUOUS
10
2.85373
20
3.04632
11
2.85433
21
3.04331
0
LINE
8
BLACK
6
CONTINUOUS
10
2.85433
20
3.04331
11
2.85433
21
2.88583
0
LINE
8
BLACK
6
CONTINUOUS
10
2.85433
20
2.88583
11
2.85373
21
2.88281
0
LINE
8
BLACK
6
CONTINUOUS
10
2.85373
20
2.88281
11
2.85202
21
2.88026
0
LINE
8
BLACK
6
CONTINUOUS
10
2.85202
20
2.88026
11
2.84947
21
2.87855
0
LINE
8
BLACK
6
CONTINUOUS
10
2.84947
20
2.87855
11
2.84646
21
2.87795
0
LINE
8
BLACK
6
CONTINUOUS
10
2.84646
20
2.87795
11
2.68898
21
2.87795
0
LINE
8
BLACK
6
CONTINUOUS
10
2.68898
20
2.87795
11
2.68596
21
2.87855
0
LINE
8
BLACK
6
CONTINUOUS
10
2.68596
20
2.87855
11
2.68341
21
2.88026
0
LINE
8
BLACK
6
CONTINUOUS
10
2.68341
20
2.88026
11
2.6817
21
2.88281
0
LINE
8
BLACK
6
CONTINUOUS
10
2.6817
20
2.88281
11
2.6811
21
2.88583
0
LINE
8
BLACK
6
CONTINUOUS
10
2.6811
20
2.88583
11
2.6811
21
3.04331
0
LINE
8
BLACK
6
CONTINUOUS
10
2.6811
20
3.04331
11
2.6817
21
3.04632
0
LINE
8
BLACK
6
CONTINUOUS
10
2.6817
20
3.04632
11
2.68341
21
3.04887
0
LINE
8
BLACK
6
CONTINUOUS
10
2.68341
20
3.04887
11
2.68596
21
3.05058
0
LINE
8
BLACK
6
CONTINUOUS
10
2.68596
20
3.05058
11
2.68898
21
3.05118
0
LINE
8
BLACK
6
CONTINUOUS
10
2.68898
20
3.05118
11
2.84646
21
3.05118
0
LINE
8
BLACK
6
CONTINUOUS
10
2.84646
20
3.05118
11
2.84947
21
3.05058
0
LINE
8
BLACK
6
CONTINUOUS
10
2.63553
20
2.99145
11
2.63809
21
2.98974
0
LINE
8
BLACK
6
CONTINUOUS
10
2.63809
20
2.98974
11
2.63979
21
2.98719
0
LINE
8
BLACK
6
CONTINUOUS
10
2.63979
20
2.98719
11
2.64039
21
2.98417
0
LINE
8
BLACK
6
CONTINUOUS
10
2.64039
20
2.98417
11
2.64039
21
2.90937
0
LINE
8
BLACK
6
CONTINUOUS
10
2.64039
20
2.90937
11
2.63979
21
2.90636
0
LINE
8
BLACK
6
CONTINUOUS
10
2.63979
20
2.90636
11
2.63809
21
2.9038
0
LINE
8
BLACK
6
CONTINUOUS
10
2.63809
20
2.9038
11
2.63553
21
2.9021
0
LINE
8
BLACK
6
CONTINUOUS
10
2.63553
20
2.9021
11
2.63252
21
2.9015
0
LINE
8
BLACK
6
CONTINUOUS
10
2.63252
20
2.9015
11
2.49866
21
2.9015
0
LINE
8
BLACK
6
CONTINUOUS
10
2.49866
20
2.9015
11
2.49565
21
2.9021
0
LINE
8
BLACK
6
CONTINUOUS
10
2.49565
20
2.9021
11
2.49309
21
2.9038
0
LINE
8
BLACK
6
CONTINUOUS
10
2.49309
20
2.9038
11
2.49139
21
2.90636
0
LINE
8
BLACK
6
CONTINUOUS
10
2.49139
20
2.90636
11
2.49079
21
2.90937
0
LINE
8
BLACK
6
CONTINUOUS
10
2.49079
20
2.90937
11
2.49079
21
2.98417
0
LINE
8
BLACK
6
CONTINUOUS
10
2.49079
20
2.98417
11
2.49139
21
2.98719
0
LINE
8
BLACK
6
CONTINUOUS
10
2.49139
20
2.98719
11
2.49309
21
2.98974
0
LINE
8
BLACK
6
CONTINUOUS
10
2.49309
20
2.98974
11
2.49565
21
2.99145
0
LINE
8
BLACK
6
CONTINUOUS
10
2.49565
20
2.99145
11
2.49866
21
2.99205
0
LINE
8
BLACK
6
CONTINUOUS
10
2.49866
20
2.99205
11
2.63252
21
2.99205
0
LINE
8
BLACK
6
CONTINUOUS
10
2.63252
20
2.99205
11
2.63553
21
2.99145
0
LINE
8
BLACK
6
CONTINUOUS
10
3.39144
20
2.99145
11
3.39399
21
2.98974
0
LINE
8
BLACK
6
CONTINUOUS
10
3.39399
20
2.98974
11
3.3957
21
2.98719
0
LINE
8
BLACK
6
CONTINUOUS
10
3.3957
20
2.98719
11
3.3963
21
2.98417
0
LINE
8
BLACK
6
CONTINUOUS
10
3.3963
20
2.98417
11
3.3963
21
2.90937
0
LINE
8
BLACK
6
CONTINUOUS
10
3.3963
20
2.90937
11
3.3957
21
2.90636
0
LINE
8
BLACK
6
CONTINUOUS
10
3.3957
20
2.90636
11
3.39399
21
2.9038
0
LINE
8
BLACK
6
CONTINUOUS
10
3.39399
20
2.9038
11
3.39144
21
2.9021
0
LINE
8
BLACK
6
CONTINUOUS
10
3.39144
20
2.9021
11
3.38843
21
2.9015
0
LINE
8
BLACK
6
CONTINUOUS
10
3.38843
20
2.9015
11
3.25457
21
2.9015
0
LINE
8
BLACK
6
CONTINUOUS
10
3.25457
20
2.9015
11
3.25155
21
2.9021
0
LINE
8
BLACK
6
CONTINUOUS
10
3.25155
20
2.9021
11
3.249
21
2.9038
0
LINE
8
BLACK
6
CONTINUOUS
10
3.249
20
2.9038
11
3.24729
21
2.90636
0
LINE
8
BLACK
6
CONTINUOUS
10
3.24729
20
2.90636
11
3.24669
21
2.90937
0
LINE
8
BLACK
6
CONTINUOUS
10
3.24669
20
2.90937
11
3.24669
21
2.98417
0
LINE
8
BLACK
6
CONTINUOUS
10
3.24669
20
2.98417
11
3.24729
21
2.98719
0
LINE
8
BLACK
6
CONTINUOUS
10
3.24729
20
2.98719
11
3.249
21
2.98974
0
LINE
8
BLACK
6
CONTINUOUS
10
3.249
20
2.98974
11
3.25155
21
2.99145
0
LINE
8
BLACK
6
CONTINUOUS
10
3.25155
20
2.99145
11
3.25457
21
2.99205
0
LINE
8
BLACK
6
CONTINUOUS
10
3.25457
20
2.99205
11
3.38843
21
2.99205
0
LINE
8
BLACK
6
CONTINUOUS
10
3.38843
20
2.99205
11
3.39144
21
2.99145
0
LINE
8
BLACK
6
CONTINUOUS
10
1.04498
20
2.99145
11
1.04754
21
2.98974
0
LINE
8
BLACK
6
CONTINUOUS
10
1.04754
20
2.98974
11
1.04924
21
2.98719
0
LINE
8
BLACK
6
CONTINUOUS
10
1.04924
20
2.98719
11
1.04984
21
2.98417
0
LINE
8
BLACK
6
CONTINUOUS
10
1.04984
20
2.98417
11
1.04984
21
2.90937
0
LINE
8
BLACK
6
CONTINUOUS
10
1.04984
20
2.90937
11
1.04924
21
2.90636
0
LINE
8
BLACK
6
CONTINUOUS
10
1.04924
20
2.90636
11
1.04754
21
2.9038
0
LINE
8
BLACK
6
CONTINUOUS
10
1.04754
20
2.9038
11
1.04498
21
2.9021
0
LINE
8
BLACK
6
CONTINUOUS
10
1.04498
20
2.9021
11
1.04197
21
2.9015
0
LINE
8
BLACK
6
CONTINUOUS
10
1.04197
20
2.9015
11
0.90811
21
2.9015
0
LINE
8
BLACK
6
CONTINUOUS
10
0.90811
20
2.9015
11
0.905097
21
2.9021
0
LINE
8
BLACK
6
CONTINUOUS
10
0.905097
20
2.9021
11
0.902542
21
2.9038
0
LINE
8
BLACK
6
CONTINUOUS
10
0.902542
20
2.9038
11
0.900836
21
2.90636
0
LINE
8
BLACK
6
CONTINUOUS
10
0.900836
20
2.90636
11
0.900236
21
2.90937
0
LINE
8
BLACK
6
CONTINUOUS
10
0.900236
20
2.90937
11
0.900236
21
2.98417
0
LINE
8
BLACK
6
CONTINUOUS
10
0.900236
20
2.98417
11
0.900836
21
2.98719
0
LINE
8
BLACK
6
CONTINUOUS
10
0.900836
20
2.98719
11
0.902542
21
2.98974
0
LINE
8
BLACK
6
CONTINUOUS
10
0.902542
20
2.98974
11
0.905097
21
2.99145
0
LINE
8
BLACK
6
CONTINUOUS
10
0.905097
20
2.99145
11
0.90811
21
2.99205
0
LINE
8
BLACK
6
CONTINUOUS
10
0.90811
20
2.99205
11
1.04197
21
2.99205
0
LINE
8
BLACK
6
CONTINUOUS
10
1.04197
20
2.99205
11
1.04498
21
2.99145
0
LINE
8
BLACK
6
CONTINUOUS
10
0.690651
20
2.99145
11
0.693206
21
2.98974
0
LINE
8
BLACK
6
CONTINUOUS
10
0.693206
20
2.98974
11
0.694912
21
2.98719
0
LINE
8
BLACK
6
CONTINUOUS
10
0.694912
20
2.98719
11
0.695512
21
2.98417
0
LINE
8
BLACK
6
CONTINUOUS
10
0.695512
20
2.98417
11
0.695512
21
2.90937
0
LINE
8
BLACK
6
CONTINUOUS
10
0.695512
20
2.90937
11
0.694912
21
2.90636
0
LINE
8
BLACK
6
CONTINUOUS
10
0.694912
20
2.90636
11
0.693206
21
2.9038
0
LINE
8
BLACK
6
CONTINUOUS
10
0.693206
20
2.9038
11
0.690651
21
2.9021
0
LINE
8
BLACK
6
CONTINUOUS
10
0.690651
20
2.9021
11
0.687638
21
2.9015
0
LINE
8
BLACK
6
CONTINUOUS
10
0.687638
20
2.9015
11
0.55378
21
2.9015
0
LINE
8
BLACK
6
CONTINUOUS
10
0.55378
20
2.9015
11
0.550766
21
2.9021
0
LINE
8
BLACK
6
CONTINUOUS
10
0.550766
20
2.9021
11
0.548212
21
2.9038
0
LINE
8
BLACK
6
CONTINUOUS
10
0.548212
20
2.9038
11
0.546505
21
2.90636
0
LINE
8
BLACK
6
CONTINUOUS
10
0.546505
20
2.90636
11
0.545906
21
2.90937
0
LINE
8
BLACK
6
CONTINUOUS
10
0.545906
20
2.90937
11
0.545906
21
2.98417
0
LINE
8
BLACK
6
CONTINUOUS
10
0.545906
20
2.98417
11
0.546505
21
2.98719
0
LINE
8
BLACK
6
CONTINUOUS
10
0.546505
20
2.98719
11
0.548212
21
2.98974
0
LINE
8
BLACK
6
CONTINUOUS
10
0.548212
20
2.98974
11
0.550766
21
2.99145
0
LINE
8
BLACK
6
CONTINUOUS
10
0.550766
20
2.99145
11
0.55378
21
2.99205
0
LINE
8
BLACK
6
CONTINUOUS
10
0.55378
20
2.99205
11
0.687638
21
2.99205
0
LINE
8
BLACK
6
CONTINUOUS
10
0.687638
20
2.99205
11
0.690651
21
2.99145
0
LINE
8
BLACK
6
CONTINUOUS
10
1.80876
20
2.99145
11
1.81132
21
2.98974
0
LINE
8
BLACK
6
CONTINUOUS
10
1.81132
20
2.98974
11
1.81302
21
2.98719
0
LINE
8
BLACK
6
CONTINUOUS
10
1.81302
20
2.98719
11
1.81362
21
2.98417
0
LINE
8
BLACK
6
CONTINUOUS
10
1.81362
20
2.98417
11
1.81362
21
2.90937
0
LINE
8
BLACK
6
CONTINUOUS
10
1.81362
20
2.90937
11
1.81302
21
2.90636
0
LINE
8
BLACK
6
CONTINUOUS
10
1.81302
20
2.90636
11
1.81132
21
2.9038
0
LINE
8
BLACK
6
CONTINUOUS
10
1.81132
20
2.9038
11
1.80876
21
2.9021
0
LINE
8
BLACK
6
CONTINUOUS
10
1.80876
20
2.9021
11
1.80575
21
2.9015
0
LINE
8
BLACK
6
CONTINUOUS
10
1.80575
20
2.9015
11
1.67189
21
2.9015
0
LINE
8
BLACK
6
CONTINUOUS
10
1.67189
20
2.9015
11
1.66888
21
2.9021
0
LINE
8
BLACK
6
CONTINUOUS
10
1.66888
20
2.9021
11
1.66632
21
2.9038
0
LINE
8
BLACK
6
CONTINUOUS
10
1.66632
20
2.9038
11
1.66462
21
2.90636
0
LINE
8
BLACK
6
CONTINUOUS
10
1.66462
20
2.90636
11
1.66402
21
2.90937
0
LINE
8
BLACK
6
CONTINUOUS
10
1.66402
20
2.90937
11
1.66402
21
2.98417
0
LINE
8
BLACK
6
CONTINUOUS
10
1.66402
20
2.98417
11
1.66462
21
2.98719
0
LINE
8
BLACK
6
CONTINUOUS
10
1.66462
20
2.98719
11
1.66632
21
2.98974
0
LINE
8
BLACK
6
CONTINUOUS
10
1.66632
20
2.98974
11
1.66888
21
2.99145
0
LINE
8
BLACK
6
CONTINUOUS
10
1.66888
20
2.99145
11
1.67189
21
2.99205
0
LINE
8
BLACK
6
CONTINUOUS
10
1.67189
20
2.99205
11
1.80575
21
2.99205
0
LINE
8
BLACK
6
CONTINUOUS
10
1.80575
20
2.99205
11
1.80876
21
2.99145
  0
ENDSEC
  0
EOF
