  0
SECTION
  2
HEADER
  9
$ANGBASE
  50
0.0
  9
$ANGDIR
  70
1
  9
$MEASUREMENT
  70
0
  0
ENDSEC
  0
SECTION
  2
TABLES
  0
TABLE
  2
LTYPE
  70
4
  0
LTYPE
  5
40F
  2
CONTINUOUS
  70
0
  3
Solid line
  72
65
  73
0
  40
0.0
  0
LTYPE
  5
410
  2
DASHDOT
 70
0
  3
Dash Dot ____ _ ____ _
 72
65
 73
4
 40
2.0
 49
1.25
 49
-0.25
 49
0.25
 49
-0.25
  0
LTYPE
  5
411
  2
DASHED
 70
0
  3
Dashed __ __ __ __ __
 72
65
 73
2
 40
0.75
 49
0.5
 49
-0.25
  0
LTYPE
  5
43B
  2
DOTTED
 70
0
  3
Dotted .  .  .  .
 72
65
 73
2
 40
0.2
 49
0.0
 49
-0.2
  0
ENDTAB
  0
TABLE
  2
STYLE
  70
4
  0
STYLE
  2
KICAD
  70
0
  40
0
  41
1
  42
1
  50
0
  71
0
  3
isocp.shx
  0
STYLE
  2
KICADB
  70
0
  40
0
  41
1
  42
1
  50
0
  71
0
  3
isocp.shx
  0
STYLE
  2
KICADI
  70
0
  40
0
  41
1
  42
1
  50
15
  71
0
  3
isocp.shx
  0
STYLE
  2
KICADBI
  70
0
  40
0
  41
1
  42
1
  50
15
  71
0
  3
isocp.shx
  0
ENDTAB
  0
TABLE
  2
LAYER
  70
1
  0
LAYER
  2
BLACK
  70
0
  62
7
  6
CONTINUOUS
  0
ENDTAB
  0
ENDSEC
  0
SECTION
  2
ENTITIES
0
LINE
8
BLACK
6
CONTINUOUS
10
3.6063
20
0.0275591
11
3.44882
21
0.0275591
0
LINE
8
BLACK
6
CONTINUOUS
10
3.44882
20
0.0275591
11
3.44882
21
0.185039
0
LINE
8
BLACK
6
CONTINUOUS
10
3.44882
20
0.185039
11
3.6063
21
0.185039
0
LINE
8
BLACK
6
CONTINUOUS
10
3.6063
20
0.185039
11
3.6063
21
0.0275591
0
LINE
8
BLACK
6
CONTINUOUS
10
2.84646
20
0.0275591
11
2.68898
21
0.0275591
0
LINE
8
BLACK
6
CONTINUOUS
10
2.68898
20
0.0275591
11
2.68898
21
0.185039
0
LINE
8
BLACK
6
CONTINUOUS
10
2.68898
20
0.185039
11
2.84646
21
0.185039
0
LINE
8
BLACK
6
CONTINUOUS
10
2.84646
20
0.185039
11
2.84646
21
0.0275591
0
LINE
8
BLACK
6
CONTINUOUS
10
2.01358
20
0.0295276
11
1.8561
21
0.0295276
0
LINE
8
BLACK
6
CONTINUOUS
10
1.8561
20
0.0295276
11
1.8561
21
0.187008
0
LINE
8
BLACK
6
CONTINUOUS
10
1.8561
20
0.187008
11
2.01358
21
0.187008
0
LINE
8
BLACK
6
CONTINUOUS
10
2.01358
20
0.187008
11
2.01358
21
0.0295276
0
LINE
8
BLACK
6
CONTINUOUS
10
1.25374
20
0.0295276
11
1.09626
21
0.0295276
0
LINE
8
BLACK
6
CONTINUOUS
10
1.09626
20
0.0295276
11
1.09626
21
0.187008
0
LINE
8
BLACK
6
CONTINUOUS
10
1.09626
20
0.187008
11
1.25374
21
0.187008
0
LINE
8
BLACK
6
CONTINUOUS
10
1.25374
20
0.187008
11
1.25374
21
0.0295276
0
LINE
8
BLACK
6
CONTINUOUS
10
0.493898
20
0.0295276
11
0.336417
21
0.0295276
0
LINE
8
BLACK
6
CONTINUOUS
10
0.336417
20
0.0295276
11
0.336417
21
0.187008
0
LINE
8
BLACK
6
CONTINUOUS
10
0.336417
20
0.187008
11
0.493898
21
0.187008
0
LINE
8
BLACK
6
CONTINUOUS
10
0.493898
20
0.187008
11
0.493898
21
0.0295276
0
LINE
8
BLACK
6
CONTINUOUS
10
0.0204922
20
3.04888
11
0.0226046
21
3.05071
0
LINE
8
BLACK
6
CONTINUOUS
10
0.0226046
20
3.05071
11
0.0246654
21
3.05116
0
LINE
8
BLACK
6
CONTINUOUS
10
0.0246654
20
3.05116
11
0.320228
21
3.05116
0
LINE
8
BLACK
6
CONTINUOUS
10
0.320228
20
3.05116
11
0.32291
21
3.05037
0
LINE
8
BLACK
6
CONTINUOUS
10
0.32291
20
3.05037
11
0.32474
21
3.04826
0
LINE
8
BLACK
6
CONTINUOUS
10
0.32474
20
3.04826
11
0.325138
21
3.04549
0
LINE
8
BLACK
6
CONTINUOUS
10
0.325138
20
3.04549
11
0.324942
21
3.04481
0
LINE
8
BLACK
6
CONTINUOUS
10
0.324942
20
3.04481
11
0.324973
21
3.0448
0
LINE
8
BLACK
6
CONTINUOUS
10
0.324973
20
3.0448
11
0.324681
21
3.04373
0
LINE
8
BLACK
6
CONTINUOUS
10
0.324681
20
3.04373
11
0.324623
21
3.04324
0
LINE
8
BLACK
6
CONTINUOUS
10
0.324623
20
3.04324
11
0.324606
21
3.04295
0
LINE
8
BLACK
6
CONTINUOUS
10
0.324606
20
3.04295
11
0.324606
21
2.96922
0
LINE
8
BLACK
6
CONTINUOUS
10
0.324606
20
2.96922
11
0.324782
21
2.96862
0
LINE
8
BLACK
6
CONTINUOUS
10
0.324782
20
2.96862
11
0.324837
21
2.96857
0
LINE
8
BLACK
6
CONTINUOUS
10
0.324837
20
2.96857
11
0.32514
21
2.9685
0
LINE
8
BLACK
6
CONTINUOUS
10
0.32514
20
2.9685
11
0.336417
21
2.9685
0
LINE
8
BLACK
6
CONTINUOUS
10
0.336417
20
2.9685
11
0.336417
21
3.04134
0
LINE
8
BLACK
6
CONTINUOUS
10
0.336417
20
3.04134
11
0.493898
21
3.04134
0
LINE
8
BLACK
6
CONTINUOUS
10
0.493898
20
3.04134
11
0.493898
21
2.9685
0
LINE
8
BLACK
6
CONTINUOUS
10
0.493898
20
2.9685
11
0.504995
21
2.9685
0
LINE
8
BLACK
6
CONTINUOUS
10
0.504995
20
2.9685
11
0.505595
21
2.96868
0
LINE
8
BLACK
6
CONTINUOUS
10
0.505595
20
2.96868
11
0.505643
21
2.96873
0
LINE
8
BLACK
6
CONTINUOUS
10
0.505643
20
2.96873
11
0.505709
21
2.96904
0
LINE
8
BLACK
6
CONTINUOUS
10
0.505709
20
2.96904
11
0.505709
21
3.04295
0
LINE
8
BLACK
6
CONTINUOUS
10
0.505709
20
3.04295
11
0.505691
21
3.04324
0
LINE
8
BLACK
6
CONTINUOUS
10
0.505691
20
3.04324
11
0.50563
21
3.04375
0
LINE
8
BLACK
6
CONTINUOUS
10
0.50563
20
3.04375
11
0.505336
21
3.04482
0
LINE
8
BLACK
6
CONTINUOUS
10
0.505336
20
3.04482
11
0.505468
21
3.04486
0
LINE
8
BLACK
6
CONTINUOUS
10
0.505468
20
3.04486
11
0.505189
21
3.04696
0
LINE
8
BLACK
6
CONTINUOUS
10
0.505189
20
3.04696
11
0.506376
21
3.04949
0
LINE
8
BLACK
6
CONTINUOUS
10
0.506376
20
3.04949
11
0.508743
21
3.05097
0
LINE
8
BLACK
6
CONTINUOUS
10
0.508743
20
3.05097
11
0.510091
21
3.05116
0
LINE
8
BLACK
6
CONTINUOUS
10
0.510091
20
3.05116
11
1.08007
21
3.05116
0
LINE
8
BLACK
6
CONTINUOUS
10
1.08007
20
3.05116
11
1.08275
21
3.05037
0
LINE
8
BLACK
6
CONTINUOUS
10
1.08275
20
3.05037
11
1.08458
21
3.04826
0
LINE
8
BLACK
6
CONTINUOUS
10
1.08458
20
3.04826
11
1.08498
21
3.04549
0
LINE
8
BLACK
6
CONTINUOUS
10
1.08498
20
3.04549
11
1.08478
21
3.04481
0
LINE
8
BLACK
6
CONTINUOUS
10
1.08478
20
3.04481
11
1.08482
21
3.0448
0
LINE
8
BLACK
6
CONTINUOUS
10
1.08482
20
3.0448
11
1.08452
21
3.04373
0
LINE
8
BLACK
6
CONTINUOUS
10
1.08452
20
3.04373
11
1.08447
21
3.04324
0
LINE
8
BLACK
6
CONTINUOUS
10
1.08447
20
3.04324
11
1.08445
21
3.04295
0
LINE
8
BLACK
6
CONTINUOUS
10
1.08445
20
3.04295
11
1.08445
21
2.96922
0
LINE
8
BLACK
6
CONTINUOUS
10
1.08445
20
2.96922
11
1.08462
21
2.96862
0
LINE
8
BLACK
6
CONTINUOUS
10
1.08462
20
2.96862
11
1.08468
21
2.96857
0
LINE
8
BLACK
6
CONTINUOUS
10
1.08468
20
2.96857
11
1.08498
21
2.9685
0
LINE
8
BLACK
6
CONTINUOUS
10
1.08498
20
2.9685
11
1.09626
21
2.9685
0
LINE
8
BLACK
6
CONTINUOUS
10
1.09626
20
2.9685
11
1.09626
21
3.04134
0
LINE
8
BLACK
6
CONTINUOUS
10
1.09626
20
3.04134
11
1.25374
21
3.04134
0
LINE
8
BLACK
6
CONTINUOUS
10
1.25374
20
3.04134
11
1.25374
21
2.9685
0
LINE
8
BLACK
6
CONTINUOUS
10
1.25374
20
2.9685
11
1.26484
21
2.9685
0
LINE
8
BLACK
6
CONTINUOUS
10
1.26484
20
2.9685
11
1.26544
21
2.96868
0
LINE
8
BLACK
6
CONTINUOUS
10
1.26544
20
2.96868
11
1.26549
21
2.96873
0
LINE
8
BLACK
6
CONTINUOUS
10
1.26549
20
2.96873
11
1.26555
21
2.96904
0
LINE
8
BLACK
6
CONTINUOUS
10
1.26555
20
2.96904
11
1.26555
21
3.04295
0
LINE
8
BLACK
6
CONTINUOUS
10
1.26555
20
3.04295
11
1.26553
21
3.04324
0
LINE
8
BLACK
6
CONTINUOUS
10
1.26553
20
3.04324
11
1.26547
21
3.04375
0
LINE
8
BLACK
6
CONTINUOUS
10
1.26547
20
3.04375
11
1.26518
21
3.04482
0
LINE
8
BLACK
6
CONTINUOUS
10
1.26518
20
3.04482
11
1.26531
21
3.04486
0
LINE
8
BLACK
6
CONTINUOUS
10
1.26531
20
3.04486
11
1.26503
21
3.04696
0
LINE
8
BLACK
6
CONTINUOUS
10
1.26503
20
3.04696
11
1.26622
21
3.04949
0
LINE
8
BLACK
6
CONTINUOUS
10
1.26622
20
3.04949
11
1.26859
21
3.05097
0
LINE
8
BLACK
6
CONTINUOUS
10
1.26859
20
3.05097
11
1.26993
21
3.05116
0
LINE
8
BLACK
6
CONTINUOUS
10
1.26993
20
3.05116
11
1.83991
21
3.05116
0
LINE
8
BLACK
6
CONTINUOUS
10
1.83991
20
3.05116
11
1.84259
21
3.05037
0
LINE
8
BLACK
6
CONTINUOUS
10
1.84259
20
3.05037
11
1.84443
21
3.04826
0
LINE
8
BLACK
6
CONTINUOUS
10
1.84443
20
3.04826
11
1.84482
21
3.04549
0
LINE
8
BLACK
6
CONTINUOUS
10
1.84482
20
3.04549
11
1.84463
21
3.04481
0
LINE
8
BLACK
6
CONTINUOUS
10
1.84463
20
3.04481
11
1.84466
21
3.0448
0
LINE
8
BLACK
6
CONTINUOUS
10
1.84466
20
3.0448
11
1.84437
21
3.04373
0
LINE
8
BLACK
6
CONTINUOUS
10
1.84437
20
3.04373
11
1.84431
21
3.04324
0
LINE
8
BLACK
6
CONTINUOUS
10
1.84431
20
3.04324
11
1.84429
21
3.04295
0
LINE
8
BLACK
6
CONTINUOUS
10
1.84429
20
3.04295
11
1.84429
21
2.96922
0
LINE
8
BLACK
6
CONTINUOUS
10
1.84429
20
2.96922
11
1.84447
21
2.96862
0
LINE
8
BLACK
6
CONTINUOUS
10
1.84447
20
2.96862
11
1.84452
21
2.96857
0
LINE
8
BLACK
6
CONTINUOUS
10
1.84452
20
2.96857
11
1.84482
21
2.9685
0
LINE
8
BLACK
6
CONTINUOUS
10
1.84482
20
2.9685
11
1.8561
21
2.9685
0
LINE
8
BLACK
6
CONTINUOUS
10
1.8561
20
2.9685
11
1.8561
21
3.04134
0
LINE
8
BLACK
6
CONTINUOUS
10
1.8561
20
3.04134
11
2.01358
21
3.04134
0
LINE
8
BLACK
6
CONTINUOUS
10
2.01358
20
3.04134
11
2.01358
21
2.9685
0
LINE
8
BLACK
6
CONTINUOUS
10
2.01358
20
2.9685
11
2.02468
21
2.9685
0
LINE
8
BLACK
6
CONTINUOUS
10
2.02468
20
2.9685
11
2.02528
21
2.96868
0
LINE
8
BLACK
6
CONTINUOUS
10
2.02528
20
2.96868
11
2.02533
21
2.96873
0
LINE
8
BLACK
6
CONTINUOUS
10
2.02533
20
2.96873
11
2.02539
21
2.96904
0
LINE
8
BLACK
6
CONTINUOUS
10
2.02539
20
2.96904
11
2.02539
21
3.04295
0
LINE
8
BLACK
6
CONTINUOUS
10
2.02539
20
3.04295
11
2.02538
21
3.04324
0
LINE
8
BLACK
6
CONTINUOUS
10
2.02538
20
3.04324
11
2.02532
21
3.04375
0
LINE
8
BLACK
6
CONTINUOUS
10
2.02532
20
3.04375
11
2.02502
21
3.04482
0
LINE
8
BLACK
6
CONTINUOUS
10
2.02502
20
3.04482
11
2.02515
21
3.04486
0
LINE
8
BLACK
6
CONTINUOUS
10
2.02515
20
3.04486
11
2.02487
21
3.04696
0
LINE
8
BLACK
6
CONTINUOUS
10
2.02487
20
3.04696
11
2.02606
21
3.04949
0
LINE
8
BLACK
6
CONTINUOUS
10
2.02606
20
3.04949
11
2.02843
21
3.05097
0
LINE
8
BLACK
6
CONTINUOUS
10
2.02843
20
3.05097
11
2.02978
21
3.05116
0
LINE
8
BLACK
6
CONTINUOUS
10
2.02978
20
3.05116
11
2.6723
21
3.05116
0
LINE
8
BLACK
6
CONTINUOUS
10
2.6723
20
3.05116
11
2.67499
21
3.05037
0
LINE
8
BLACK
6
CONTINUOUS
10
2.67499
20
3.05037
11
2.67682
21
3.04826
0
LINE
8
BLACK
6
CONTINUOUS
10
2.67682
20
3.04826
11
2.67723
21
3.04563
0
LINE
8
BLACK
6
CONTINUOUS
10
2.67723
20
3.04563
11
2.67718
21
3.04521
0
LINE
8
BLACK
6
CONTINUOUS
10
2.67718
20
3.04521
11
2.67717
21
3.04492
0
LINE
8
BLACK
6
CONTINUOUS
10
2.67717
20
3.04492
11
2.67717
21
2.97119
0
LINE
8
BLACK
6
CONTINUOUS
10
2.67717
20
2.97119
11
2.67734
21
2.97059
0
LINE
8
BLACK
6
CONTINUOUS
10
2.67734
20
2.97059
11
2.6774
21
2.97054
0
LINE
8
BLACK
6
CONTINUOUS
10
2.6774
20
2.97054
11
2.6777
21
2.97047
0
LINE
8
BLACK
6
CONTINUOUS
10
2.6777
20
2.97047
11
2.68898
21
2.97047
0
LINE
8
BLACK
6
CONTINUOUS
10
2.68898
20
2.97047
11
2.68898
21
3.04331
0
LINE
8
BLACK
6
CONTINUOUS
10
2.68898
20
3.04331
11
2.84646
21
3.04331
0
LINE
8
BLACK
6
CONTINUOUS
10
2.84646
20
3.04331
11
2.84646
21
2.97047
0
LINE
8
BLACK
6
CONTINUOUS
10
2.84646
20
2.97047
11
2.85755
21
2.97047
0
LINE
8
BLACK
6
CONTINUOUS
10
2.85755
20
2.97047
11
2.85815
21
2.97065
0
LINE
8
BLACK
6
CONTINUOUS
10
2.85815
20
2.97065
11
2.8582
21
2.9707
0
LINE
8
BLACK
6
CONTINUOUS
10
2.8582
20
2.9707
11
2.85827
21
2.97101
0
LINE
8
BLACK
6
CONTINUOUS
10
2.85827
20
2.97101
11
2.85827
21
3.04491
0
LINE
8
BLACK
6
CONTINUOUS
10
2.85827
20
3.04491
11
2.85825
21
3.04521
0
LINE
8
BLACK
6
CONTINUOUS
10
2.85825
20
3.04521
11
2.8582
21
3.04561
0
LINE
8
BLACK
6
CONTINUOUS
10
2.8582
20
3.04561
11
2.85867
21
3.04837
0
LINE
8
BLACK
6
CONTINUOUS
10
2.85867
20
3.04837
11
2.86055
21
3.05044
0
LINE
8
BLACK
6
CONTINUOUS
10
2.86055
20
3.05044
11
2.86313
21
3.05116
0
LINE
8
BLACK
6
CONTINUOUS
10
2.86313
20
3.05116
11
3.43215
21
3.05116
0
LINE
8
BLACK
6
CONTINUOUS
10
3.43215
20
3.05116
11
3.43483
21
3.05037
0
LINE
8
BLACK
6
CONTINUOUS
10
3.43483
20
3.05037
11
3.43666
21
3.04826
0
LINE
8
BLACK
6
CONTINUOUS
10
3.43666
20
3.04826
11
3.43707
21
3.04563
0
LINE
8
BLACK
6
CONTINUOUS
10
3.43707
20
3.04563
11
3.43702
21
3.04521
0
LINE
8
BLACK
6
CONTINUOUS
10
3.43702
20
3.04521
11
3.43701
21
3.04492
0
LINE
8
BLACK
6
CONTINUOUS
10
3.43701
20
3.04492
11
3.43701
21
2.97119
0
LINE
8
BLACK
6
CONTINUOUS
10
3.43701
20
2.97119
11
3.43718
21
2.97059
0
LINE
8
BLACK
6
CONTINUOUS
10
3.43718
20
2.97059
11
3.43724
21
2.97054
0
LINE
8
BLACK
6
CONTINUOUS
10
3.43724
20
2.97054
11
3.43754
21
2.97047
0
LINE
8
BLACK
6
CONTINUOUS
10
3.43754
20
2.97047
11
3.44882
21
2.97047
0
LINE
8
BLACK
6
CONTINUOUS
10
3.44882
20
2.97047
11
3.44882
21
3.04331
0
LINE
8
BLACK
6
CONTINUOUS
10
3.44882
20
3.04331
11
3.6063
21
3.04331
0
LINE
8
BLACK
6
CONTINUOUS
10
3.6063
20
3.04331
11
3.6063
21
2.97047
0
LINE
8
BLACK
6
CONTINUOUS
10
3.6063
20
2.97047
11
3.6174
21
2.97047
0
LINE
8
BLACK
6
CONTINUOUS
10
3.6174
20
2.97047
11
3.618
21
2.97065
0
LINE
8
BLACK
6
CONTINUOUS
10
3.618
20
2.97065
11
3.61804
21
2.9707
0
LINE
8
BLACK
6
CONTINUOUS
10
3.61804
20
2.9707
11
3.61811
21
2.97101
0
LINE
8
BLACK
6
CONTINUOUS
10
3.61811
20
2.97101
11
3.61811
21
3.04491
0
LINE
8
BLACK
6
CONTINUOUS
10
3.61811
20
3.04491
11
3.61809
21
3.04521
0
LINE
8
BLACK
6
CONTINUOUS
10
3.61809
20
3.04521
11
3.61804
21
3.04561
0
LINE
8
BLACK
6
CONTINUOUS
10
3.61804
20
3.04561
11
3.61851
21
3.04837
0
LINE
8
BLACK
6
CONTINUOUS
10
3.61851
20
3.04837
11
3.62039
21
3.05044
0
LINE
8
BLACK
6
CONTINUOUS
10
3.62039
20
3.05044
11
3.62297
21
3.05116
0
LINE
8
BLACK
6
CONTINUOUS
10
3.62297
20
3.05116
11
3.91234
21
3.05116
0
LINE
8
BLACK
6
CONTINUOUS
10
3.91234
20
3.05116
11
3.91502
21
3.05037
0
LINE
8
BLACK
6
CONTINUOUS
10
3.91502
20
3.05037
11
3.91685
21
3.04826
0
LINE
8
BLACK
6
CONTINUOUS
10
3.91685
20
3.04826
11
3.9173
21
3.0462
0
LINE
8
BLACK
6
CONTINUOUS
10
3.9173
20
3.0462
11
3.9173
21
0.0246654
0
LINE
8
BLACK
6
CONTINUOUS
10
3.9173
20
0.0246654
11
3.91652
21
0.0219834
0
LINE
8
BLACK
6
CONTINUOUS
10
3.91652
20
0.0219834
11
3.9144
21
0.020153
0
LINE
8
BLACK
6
CONTINUOUS
10
3.9144
20
0.020153
11
3.91234
21
0.0197047
0
LINE
8
BLACK
6
CONTINUOUS
10
3.91234
20
0.0197047
11
3.62299
21
0.0197047
0
LINE
8
BLACK
6
CONTINUOUS
10
3.62299
20
0.0197047
11
3.62031
21
0.0204922
0
LINE
8
BLACK
6
CONTINUOUS
10
3.62031
20
0.0204922
11
3.61848
21
0.0226046
0
LINE
8
BLACK
6
CONTINUOUS
10
3.61848
20
0.0226046
11
3.61806
21
0.0252398
0
LINE
8
BLACK
6
CONTINUOUS
10
3.61806
20
0.0252398
11
3.61811
21
0.0256581
0
LINE
8
BLACK
6
CONTINUOUS
10
3.61811
20
0.0256581
11
3.61811
21
0.0256582
0
LINE
8
BLACK
6
CONTINUOUS
10
3.61811
20
0.0256582
11
3.61813
21
0.0258013
0
LINE
8
BLACK
6
CONTINUOUS
10
3.61813
20
0.0258013
11
3.61813
21
0.186797
0
LINE
8
BLACK
6
CONTINUOUS
10
3.61813
20
0.186797
11
3.61801
21
0.187829
0
LINE
8
BLACK
6
CONTINUOUS
10
3.61801
20
0.187829
11
3.61766
21
0.188621
0
LINE
8
BLACK
6
CONTINUOUS
10
3.61766
20
0.188621
11
3.6164
21
0.191438
0
LINE
8
BLACK
6
CONTINUOUS
10
3.6164
20
0.191438
11
3.61622
21
0.191856
0
LINE
8
BLACK
6
CONTINUOUS
10
3.61622
20
0.191856
11
3.6131
21
0.19497
0
LINE
8
BLACK
6
CONTINUOUS
10
3.6131
20
0.19497
11
3.61268
21
0.195155
0
LINE
8
BLACK
6
CONTINUOUS
10
3.61268
20
0.195155
11
3.61268
21
0.195155
0
LINE
8
BLACK
6
CONTINUOUS
10
3.61268
20
0.195155
11
3.61034
21
0.196192
0
LINE
8
BLACK
6
CONTINUOUS
10
3.61034
20
0.196192
11
3.60907
21
0.196752
0
LINE
8
BLACK
6
CONTINUOUS
10
3.60907
20
0.196752
11
3.60806
21
0.19687
0
LINE
8
BLACK
6
CONTINUOUS
10
3.60806
20
0.19687
11
3.44706
21
0.19687
0
LINE
8
BLACK
6
CONTINUOUS
10
3.44706
20
0.19687
11
3.44692
21
0.196853
0
LINE
8
BLACK
6
CONTINUOUS
10
3.44692
20
0.196853
11
3.44692
21
0.196853
0
LINE
8
BLACK
6
CONTINUOUS
10
3.44692
20
0.196853
11
3.44662
21
0.196818
0
LINE
8
BLACK
6
CONTINUOUS
10
3.44662
20
0.196818
11
3.44603
21
0.196747
0
LINE
8
BLACK
6
CONTINUOUS
10
3.44603
20
0.196747
11
3.442
21
0.194958
0
LINE
8
BLACK
6
CONTINUOUS
10
3.442
20
0.194958
11
3.44168
21
0.194634
0
LINE
8
BLACK
6
CONTINUOUS
10
3.44168
20
0.194634
11
3.44168
21
0.194634
0
LINE
8
BLACK
6
CONTINUOUS
10
3.44168
20
0.194634
11
3.44087
21
0.193825
0
LINE
8
BLACK
6
CONTINUOUS
10
3.44087
20
0.193825
11
3.43889
21
0.191839
0
LINE
8
BLACK
6
CONTINUOUS
10
3.43889
20
0.191839
11
3.4387
21
0.19142
0
LINE
8
BLACK
6
CONTINUOUS
10
3.4387
20
0.19142
11
3.4387
21
0.19142
0
LINE
8
BLACK
6
CONTINUOUS
10
3.4387
20
0.19142
11
3.43781
21
0.189406
0
LINE
8
BLACK
6
CONTINUOUS
10
3.43781
20
0.189406
11
3.43711
21
0.187808
0
LINE
8
BLACK
6
CONTINUOUS
10
3.43711
20
0.187808
11
3.43699
21
0.186797
0
LINE
8
BLACK
6
CONTINUOUS
10
3.43699
20
0.186797
11
3.43699
21
0.0258013
0
LINE
8
BLACK
6
CONTINUOUS
10
3.43699
20
0.0258013
11
3.43701
21
0.0256555
0
LINE
8
BLACK
6
CONTINUOUS
10
3.43701
20
0.0256555
11
3.43705
21
0.0252516
0
LINE
8
BLACK
6
CONTINUOUS
10
3.43705
20
0.0252516
11
3.43659
21
0.0224954
0
LINE
8
BLACK
6
CONTINUOUS
10
3.43659
20
0.0224954
11
3.43471
21
0.0204282
0
LINE
8
BLACK
6
CONTINUOUS
10
3.43471
20
0.0204282
11
3.43213
21
0.0197047
0
LINE
8
BLACK
6
CONTINUOUS
10
3.43213
20
0.0197047
11
2.86315
21
0.0197047
0
LINE
8
BLACK
6
CONTINUOUS
10
2.86315
20
0.0197047
11
2.86047
21
0.0204922
0
LINE
8
BLACK
6
CONTINUOUS
10
2.86047
20
0.0204922
11
2.85864
21
0.0226046
0
LINE
8
BLACK
6
CONTINUOUS
10
2.85864
20
0.0226046
11
2.85822
21
0.0252398
0
LINE
8
BLACK
6
CONTINUOUS
10
2.85822
20
0.0252398
11
2.85827
21
0.0256581
0
LINE
8
BLACK
6
CONTINUOUS
10
2.85827
20
0.0256581
11
2.85827
21
0.0256582
0
LINE
8
BLACK
6
CONTINUOUS
10
2.85827
20
0.0256582
11
2.85829
21
0.0258013
0
LINE
8
BLACK
6
CONTINUOUS
10
2.85829
20
0.0258013
11
2.85829
21
0.186797
0
LINE
8
BLACK
6
CONTINUOUS
10
2.85829
20
0.186797
11
2.85816
21
0.187829
0
LINE
8
BLACK
6
CONTINUOUS
10
2.85816
20
0.187829
11
2.85781
21
0.188621
0
LINE
8
BLACK
6
CONTINUOUS
10
2.85781
20
0.188621
11
2.85656
21
0.191438
0
LINE
8
BLACK
6
CONTINUOUS
10
2.85656
20
0.191438
11
2.85638
21
0.191856
0
LINE
8
BLACK
6
CONTINUOUS
10
2.85638
20
0.191856
11
2.85326
21
0.19497
0
LINE
8
BLACK
6
CONTINUOUS
10
2.85326
20
0.19497
11
2.85284
21
0.195155
0
LINE
8
BLACK
6
CONTINUOUS
10
2.85284
20
0.195155
11
2.85284
21
0.195155
0
LINE
8
BLACK
6
CONTINUOUS
10
2.85284
20
0.195155
11
2.85049
21
0.196192
0
LINE
8
BLACK
6
CONTINUOUS
10
2.85049
20
0.196192
11
2.84923
21
0.196752
0
LINE
8
BLACK
6
CONTINUOUS
10
2.84923
20
0.196752
11
2.84821
21
0.19687
0
LINE
8
BLACK
6
CONTINUOUS
10
2.84821
20
0.19687
11
2.68722
21
0.19687
0
LINE
8
BLACK
6
CONTINUOUS
10
2.68722
20
0.19687
11
2.68707
21
0.196853
0
LINE
8
BLACK
6
CONTINUOUS
10
2.68707
20
0.196853
11
2.68707
21
0.196853
0
LINE
8
BLACK
6
CONTINUOUS
10
2.68707
20
0.196853
11
2.68678
21
0.196818
0
LINE
8
BLACK
6
CONTINUOUS
10
2.68678
20
0.196818
11
2.68619
21
0.196747
0
LINE
8
BLACK
6
CONTINUOUS
10
2.68619
20
0.196747
11
2.68216
21
0.194958
0
LINE
8
BLACK
6
CONTINUOUS
10
2.68216
20
0.194958
11
2.68184
21
0.194634
0
LINE
8
BLACK
6
CONTINUOUS
10
2.68184
20
0.194634
11
2.68184
21
0.194634
0
LINE
8
BLACK
6
CONTINUOUS
10
2.68184
20
0.194634
11
2.68103
21
0.193825
0
LINE
8
BLACK
6
CONTINUOUS
10
2.68103
20
0.193825
11
2.67905
21
0.191839
0
LINE
8
BLACK
6
CONTINUOUS
10
2.67905
20
0.191839
11
2.67886
21
0.19142
0
LINE
8
BLACK
6
CONTINUOUS
10
2.67886
20
0.19142
11
2.67886
21
0.19142
0
LINE
8
BLACK
6
CONTINUOUS
10
2.67886
20
0.19142
11
2.67797
21
0.189406
0
LINE
8
BLACK
6
CONTINUOUS
10
2.67797
20
0.189406
11
2.67726
21
0.187808
0
LINE
8
BLACK
6
CONTINUOUS
10
2.67726
20
0.187808
11
2.67715
21
0.186797
0
LINE
8
BLACK
6
CONTINUOUS
10
2.67715
20
0.186797
11
2.67715
21
0.0258013
0
LINE
8
BLACK
6
CONTINUOUS
10
2.67715
20
0.0258013
11
2.67716
21
0.0256555
0
LINE
8
BLACK
6
CONTINUOUS
10
2.67716
20
0.0256555
11
2.67721
21
0.0252516
0
LINE
8
BLACK
6
CONTINUOUS
10
2.67721
20
0.0252516
11
2.67675
21
0.0224954
0
LINE
8
BLACK
6
CONTINUOUS
10
2.67675
20
0.0224954
11
2.67486
21
0.0204282
0
LINE
8
BLACK
6
CONTINUOUS
10
2.67486
20
0.0204282
11
2.67229
21
0.0197047
0
LINE
8
BLACK
6
CONTINUOUS
10
2.67229
20
0.0197047
11
2.02979
21
0.0197047
0
LINE
8
BLACK
6
CONTINUOUS
10
2.02979
20
0.0197047
11
2.02711
21
0.0204922
0
LINE
8
BLACK
6
CONTINUOUS
10
2.02711
20
0.0204922
11
2.02528
21
0.0226046
0
LINE
8
BLACK
6
CONTINUOUS
10
2.02528
20
0.0226046
11
2.02488
21
0.0253713
0
LINE
8
BLACK
6
CONTINUOUS
10
2.02488
20
0.0253713
11
2.02508
21
0.0260491
0
LINE
8
BLACK
6
CONTINUOUS
10
2.02508
20
0.0260491
11
2.02505
21
0.0260578
0
LINE
8
BLACK
6
CONTINUOUS
10
2.02505
20
0.0260578
11
2.02514
21
0.0264176
0
LINE
8
BLACK
6
CONTINUOUS
10
2.02514
20
0.0264176
11
2.0253
21
0.0267588
0
LINE
8
BLACK
6
CONTINUOUS
10
2.0253
20
0.0267588
11
2.02541
21
0.0277698
0
LINE
8
BLACK
6
CONTINUOUS
10
2.02541
20
0.0277698
11
2.02541
21
0.188766
0
LINE
8
BLACK
6
CONTINUOUS
10
2.02541
20
0.188766
11
2.02529
21
0.189797
0
LINE
8
BLACK
6
CONTINUOUS
10
2.02529
20
0.189797
11
2.0235
21
0.193825
0
LINE
8
BLACK
6
CONTINUOUS
10
2.0235
20
0.193825
11
2.02038
21
0.196939
0
LINE
8
BLACK
6
CONTINUOUS
10
2.02038
20
0.196939
11
2.01996
21
0.197124
0
LINE
8
BLACK
6
CONTINUOUS
10
2.01996
20
0.197124
11
2.01996
21
0.197124
0
LINE
8
BLACK
6
CONTINUOUS
10
2.01996
20
0.197124
11
2.01762
21
0.19816
0
LINE
8
BLACK
6
CONTINUOUS
10
2.01762
20
0.19816
11
2.01635
21
0.198721
0
LINE
8
BLACK
6
CONTINUOUS
10
2.01635
20
0.198721
11
2.01534
21
0.198839
0
LINE
8
BLACK
6
CONTINUOUS
10
2.01534
20
0.198839
11
1.85434
21
0.198839
0
LINE
8
BLACK
6
CONTINUOUS
10
1.85434
20
0.198839
11
1.8542
21
0.198821
0
LINE
8
BLACK
6
CONTINUOUS
10
1.8542
20
0.198821
11
1.8542
21
0.198821
0
LINE
8
BLACK
6
CONTINUOUS
10
1.8542
20
0.198821
11
1.85391
21
0.198787
0
LINE
8
BLACK
6
CONTINUOUS
10
1.85391
20
0.198787
11
1.85331
21
0.198716
0
LINE
8
BLACK
6
CONTINUOUS
10
1.85331
20
0.198716
11
1.84929
21
0.196927
0
LINE
8
BLACK
6
CONTINUOUS
10
1.84929
20
0.196927
11
1.84896
21
0.196603
0
LINE
8
BLACK
6
CONTINUOUS
10
1.84896
20
0.196603
11
1.84896
21
0.196603
0
LINE
8
BLACK
6
CONTINUOUS
10
1.84896
20
0.196603
11
1.84772
21
0.195361
0
LINE
8
BLACK
6
CONTINUOUS
10
1.84772
20
0.195361
11
1.84617
21
0.193808
0
LINE
8
BLACK
6
CONTINUOUS
10
1.84617
20
0.193808
11
1.84599
21
0.193389
0
LINE
8
BLACK
6
CONTINUOUS
10
1.84599
20
0.193389
11
1.84599
21
0.193389
0
LINE
8
BLACK
6
CONTINUOUS
10
1.84599
20
0.193389
11
1.84544
21
0.192163
0
LINE
8
BLACK
6
CONTINUOUS
10
1.84544
20
0.192163
11
1.84439
21
0.189777
0
LINE
8
BLACK
6
CONTINUOUS
10
1.84439
20
0.189777
11
1.84427
21
0.188766
0
LINE
8
BLACK
6
CONTINUOUS
10
1.84427
20
0.188766
11
1.84427
21
0.0277698
0
LINE
8
BLACK
6
CONTINUOUS
10
1.84427
20
0.0277698
11
1.84439
21
0.0267383
0
LINE
8
BLACK
6
CONTINUOUS
10
1.84439
20
0.0267383
11
1.84455
21
0.0263981
0
LINE
8
BLACK
6
CONTINUOUS
10
1.84455
20
0.0263981
11
1.84464
21
0.0260394
0
LINE
8
BLACK
6
CONTINUOUS
10
1.84464
20
0.0260394
11
1.84451
21
0.0260027
0
LINE
8
BLACK
6
CONTINUOUS
10
1.84451
20
0.0260027
11
1.84479
21
0.0239085
0
LINE
8
BLACK
6
CONTINUOUS
10
1.84479
20
0.0239085
11
1.8436
21
0.0213782
0
LINE
8
BLACK
6
CONTINUOUS
10
1.8436
20
0.0213782
11
1.84124
21
0.0198915
0
LINE
8
BLACK
6
CONTINUOUS
10
1.84124
20
0.0198915
11
1.83989
21
0.0197047
0
LINE
8
BLACK
6
CONTINUOUS
10
1.83989
20
0.0197047
11
1.26995
21
0.0197047
0
LINE
8
BLACK
6
CONTINUOUS
10
1.26995
20
0.0197047
11
1.26727
21
0.0204922
0
LINE
8
BLACK
6
CONTINUOUS
10
1.26727
20
0.0204922
11
1.26544
21
0.0226046
0
LINE
8
BLACK
6
CONTINUOUS
10
1.26544
20
0.0226046
11
1.26504
21
0.0253713
0
LINE
8
BLACK
6
CONTINUOUS
10
1.26504
20
0.0253713
11
1.26524
21
0.0260491
0
LINE
8
BLACK
6
CONTINUOUS
10
1.26524
20
0.0260491
11
1.2652
21
0.0260578
0
LINE
8
BLACK
6
CONTINUOUS
10
1.2652
20
0.0260578
11
1.2653
21
0.0264176
0
LINE
8
BLACK
6
CONTINUOUS
10
1.2653
20
0.0264176
11
1.26545
21
0.0267588
0
LINE
8
BLACK
6
CONTINUOUS
10
1.26545
20
0.0267588
11
1.26557
21
0.0277698
0
LINE
8
BLACK
6
CONTINUOUS
10
1.26557
20
0.0277698
11
1.26557
21
0.188766
0
LINE
8
BLACK
6
CONTINUOUS
10
1.26557
20
0.188766
11
1.26545
21
0.189797
0
LINE
8
BLACK
6
CONTINUOUS
10
1.26545
20
0.189797
11
1.26366
21
0.193825
0
LINE
8
BLACK
6
CONTINUOUS
10
1.26366
20
0.193825
11
1.26054
21
0.196939
0
LINE
8
BLACK
6
CONTINUOUS
10
1.26054
20
0.196939
11
1.26012
21
0.197124
0
LINE
8
BLACK
6
CONTINUOUS
10
1.26012
20
0.197124
11
1.26012
21
0.197124
0
LINE
8
BLACK
6
CONTINUOUS
10
1.26012
20
0.197124
11
1.25778
21
0.19816
0
LINE
8
BLACK
6
CONTINUOUS
10
1.25778
20
0.19816
11
1.25651
21
0.198721
0
LINE
8
BLACK
6
CONTINUOUS
10
1.25651
20
0.198721
11
1.2555
21
0.198839
0
LINE
8
BLACK
6
CONTINUOUS
10
1.2555
20
0.198839
11
1.0945
21
0.198839
0
LINE
8
BLACK
6
CONTINUOUS
10
1.0945
20
0.198839
11
1.09436
21
0.198821
0
LINE
8
BLACK
6
CONTINUOUS
10
1.09436
20
0.198821
11
1.09436
21
0.198821
0
LINE
8
BLACK
6
CONTINUOUS
10
1.09436
20
0.198821
11
1.09407
21
0.198787
0
LINE
8
BLACK
6
CONTINUOUS
10
1.09407
20
0.198787
11
1.09347
21
0.198716
0
LINE
8
BLACK
6
CONTINUOUS
10
1.09347
20
0.198716
11
1.08944
21
0.196927
0
LINE
8
BLACK
6
CONTINUOUS
10
1.08944
20
0.196927
11
1.08912
21
0.196603
0
LINE
8
BLACK
6
CONTINUOUS
10
1.08912
20
0.196603
11
1.08912
21
0.196603
0
LINE
8
BLACK
6
CONTINUOUS
10
1.08912
20
0.196603
11
1.08788
21
0.195361
0
LINE
8
BLACK
6
CONTINUOUS
10
1.08788
20
0.195361
11
1.08633
21
0.193808
0
LINE
8
BLACK
6
CONTINUOUS
10
1.08633
20
0.193808
11
1.08614
21
0.193389
0
LINE
8
BLACK
6
CONTINUOUS
10
1.08614
20
0.193389
11
1.08614
21
0.193389
0
LINE
8
BLACK
6
CONTINUOUS
10
1.08614
20
0.193389
11
1.0856
21
0.192163
0
LINE
8
BLACK
6
CONTINUOUS
10
1.0856
20
0.192163
11
1.08455
21
0.189777
0
LINE
8
BLACK
6
CONTINUOUS
10
1.08455
20
0.189777
11
1.08443
21
0.188766
0
LINE
8
BLACK
6
CONTINUOUS
10
1.08443
20
0.188766
11
1.08443
21
0.0277698
0
LINE
8
BLACK
6
CONTINUOUS
10
1.08443
20
0.0277698
11
1.08455
21
0.0267383
0
LINE
8
BLACK
6
CONTINUOUS
10
1.08455
20
0.0267383
11
1.0847
21
0.0263981
0
LINE
8
BLACK
6
CONTINUOUS
10
1.0847
20
0.0263981
11
1.0848
21
0.0260394
0
LINE
8
BLACK
6
CONTINUOUS
10
1.0848
20
0.0260394
11
1.08467
21
0.0260027
0
LINE
8
BLACK
6
CONTINUOUS
10
1.08467
20
0.0260027
11
1.08495
21
0.0239085
0
LINE
8
BLACK
6
CONTINUOUS
10
1.08495
20
0.0239085
11
1.08376
21
0.0213782
0
LINE
8
BLACK
6
CONTINUOUS
10
1.08376
20
0.0213782
11
1.08139
21
0.0198915
0
LINE
8
BLACK
6
CONTINUOUS
10
1.08139
20
0.0198915
11
1.08004
21
0.0197047
0
LINE
8
BLACK
6
CONTINUOUS
10
1.08004
20
0.0197047
11
0.510109
21
0.0197047
0
LINE
8
BLACK
6
CONTINUOUS
10
0.510109
20
0.0197047
11
0.507427
21
0.0204922
0
LINE
8
BLACK
6
CONTINUOUS
10
0.507427
20
0.0204922
11
0.505596
21
0.0226046
0
LINE
8
BLACK
6
CONTINUOUS
10
0.505596
20
0.0226046
11
0.505199
21
0.0253713
0
LINE
8
BLACK
6
CONTINUOUS
10
0.505199
20
0.0253713
11
0.505393
21
0.0260491
0
LINE
8
BLACK
6
CONTINUOUS
10
0.505393
20
0.0260491
11
0.505362
21
0.0260578
0
LINE
8
BLACK
6
CONTINUOUS
10
0.505362
20
0.0260578
11
0.50546
21
0.0264176
0
LINE
8
BLACK
6
CONTINUOUS
10
0.50546
20
0.0264176
11
0.50561
21
0.0267588
0
LINE
8
BLACK
6
CONTINUOUS
10
0.50561
20
0.0267588
11
0.505728
21
0.0277698
0
LINE
8
BLACK
6
CONTINUOUS
10
0.505728
20
0.0277698
11
0.505728
21
0.188766
0
LINE
8
BLACK
6
CONTINUOUS
10
0.505728
20
0.188766
11
0.505606
21
0.189797
0
LINE
8
BLACK
6
CONTINUOUS
10
0.505606
20
0.189797
11
0.503816
21
0.193825
0
LINE
8
BLACK
6
CONTINUOUS
10
0.503816
20
0.193825
11
0.500697
21
0.196939
0
LINE
8
BLACK
6
CONTINUOUS
10
0.500697
20
0.196939
11
0.500279
21
0.197124
0
LINE
8
BLACK
6
CONTINUOUS
10
0.500279
20
0.197124
11
0.500279
21
0.197124
0
LINE
8
BLACK
6
CONTINUOUS
10
0.500279
20
0.197124
11
0.497935
21
0.19816
0
LINE
8
BLACK
6
CONTINUOUS
10
0.497935
20
0.19816
11
0.496666
21
0.198721
0
LINE
8
BLACK
6
CONTINUOUS
10
0.496666
20
0.198721
11
0.495655
21
0.198839
0
LINE
8
BLACK
6
CONTINUOUS
10
0.495655
20
0.198839
11
0.33466
21
0.198839
0
LINE
8
BLACK
6
CONTINUOUS
10
0.33466
20
0.198839
11
0.334514
21
0.198821
0
LINE
8
BLACK
6
CONTINUOUS
10
0.334514
20
0.198821
11
0.334514
21
0.198821
0
LINE
8
BLACK
6
CONTINUOUS
10
0.334514
20
0.198821
11
0.334223
21
0.198787
0
LINE
8
BLACK
6
CONTINUOUS
10
0.334223
20
0.198787
11
0.333628
21
0.198716
0
LINE
8
BLACK
6
CONTINUOUS
10
0.333628
20
0.198716
11
0.3296
21
0.196927
0
LINE
8
BLACK
6
CONTINUOUS
10
0.3296
20
0.196927
11
0.329277
21
0.196603
0
LINE
8
BLACK
6
CONTINUOUS
10
0.329277
20
0.196603
11
0.329277
21
0.196603
0
LINE
8
BLACK
6
CONTINUOUS
10
0.329277
20
0.196603
11
0.328037
21
0.195361
0
LINE
8
BLACK
6
CONTINUOUS
10
0.328037
20
0.195361
11
0.326487
21
0.193808
0
LINE
8
BLACK
6
CONTINUOUS
10
0.326487
20
0.193808
11
0.326301
21
0.193389
0
LINE
8
BLACK
6
CONTINUOUS
10
0.326301
20
0.193389
11
0.326301
21
0.193389
0
LINE
8
BLACK
6
CONTINUOUS
10
0.326301
20
0.193389
11
0.32576
21
0.192163
0
LINE
8
BLACK
6
CONTINUOUS
10
0.32576
20
0.192163
11
0.324704
21
0.189777
0
LINE
8
BLACK
6
CONTINUOUS
10
0.324704
20
0.189777
11
0.324587
21
0.188766
0
LINE
8
BLACK
6
CONTINUOUS
10
0.324587
20
0.188766
11
0.324587
21
0.0277698
0
LINE
8
BLACK
6
CONTINUOUS
10
0.324587
20
0.0277698
11
0.324709
21
0.0267383
0
LINE
8
BLACK
6
CONTINUOUS
10
0.324709
20
0.0267383
11
0.32486
21
0.0263981
0
LINE
8
BLACK
6
CONTINUOUS
10
0.32486
20
0.0263981
11
0.324959
21
0.0260394
0
LINE
8
BLACK
6
CONTINUOUS
10
0.324959
20
0.0260394
11
0.324826
21
0.0260027
0
LINE
8
BLACK
6
CONTINUOUS
10
0.324826
20
0.0260027
11
0.325105
21
0.0239085
0
LINE
8
BLACK
6
CONTINUOUS
10
0.325105
20
0.0239085
11
0.323917
21
0.0213782
0
LINE
8
BLACK
6
CONTINUOUS
10
0.323917
20
0.0213782
11
0.32155
21
0.0198915
0
LINE
8
BLACK
6
CONTINUOUS
10
0.32155
20
0.0198915
11
0.320202
21
0.0197047
0
LINE
8
BLACK
6
CONTINUOUS
10
0.320202
20
0.0197047
11
0.0246654
21
0.0197047
0
LINE
8
BLACK
6
CONTINUOUS
10
0.0246654
20
0.0197047
11
0.0219834
21
0.0204922
0
LINE
8
BLACK
6
CONTINUOUS
10
0.0219834
20
0.0204922
11
0.020153
21
0.0226046
0
LINE
8
BLACK
6
CONTINUOUS
10
0.020153
20
0.0226046
11
0.0197047
21
0.0246654
0
LINE
8
BLACK
6
CONTINUOUS
10
0.0197047
20
0.0246654
11
0.0197047
21
3.0462
0
LINE
8
BLACK
6
CONTINUOUS
10
0.0197047
20
3.0462
11
0.0204922
21
3.04888
0
LINE
8
BLACK
6
CONTINUOUS
10
3.45363
20
0.427865
11
3.45363
21
0.427865
0
LINE
8
BLACK
6
CONTINUOUS
10
3.45363
20
0.427865
11
3.45612
21
0.417667
0
LINE
8
BLACK
6
CONTINUOUS
10
3.45612
20
0.417667
11
3.45617
21
0.417492
0
LINE
8
BLACK
6
CONTINUOUS
10
3.45617
20
0.417492
11
3.46024
21
0.407428
0
LINE
8
BLACK
6
CONTINUOUS
10
3.46024
20
0.407428
11
3.46033
21
0.407273
0
LINE
8
BLACK
6
CONTINUOUS
10
3.46033
20
0.407273
11
3.46033
21
0.407273
0
LINE
8
BLACK
6
CONTINUOUS
10
3.46033
20
0.407273
11
3.46564
21
0.398212
0
LINE
8
BLACK
6
CONTINUOUS
10
3.46564
20
0.398212
11
3.46564
21
0.398212
0
LINE
8
BLACK
6
CONTINUOUS
10
3.46564
20
0.398212
11
3.46573
21
0.398058
0
LINE
8
BLACK
6
CONTINUOUS
10
3.46573
20
0.398058
11
3.46584
21
0.397918
0
LINE
8
BLACK
6
CONTINUOUS
10
3.46584
20
0.397918
11
3.47224
21
0.389915
0
LINE
8
BLACK
6
CONTINUOUS
10
3.47224
20
0.389915
11
3.47251
21
0.389577
0
LINE
8
BLACK
6
CONTINUOUS
10
3.47251
20
0.389577
11
3.47264
21
0.389455
0
LINE
8
BLACK
6
CONTINUOUS
10
3.47264
20
0.389455
11
3.48024
21
0.382362
0
LINE
8
BLACK
6
CONTINUOUS
10
3.48024
20
0.382362
11
3.48045
21
0.382165
0
LINE
8
BLACK
6
CONTINUOUS
10
3.48045
20
0.382165
11
3.48937
21
0.375976
0
LINE
8
BLACK
6
CONTINUOUS
10
3.48937
20
0.375976
11
3.48953
21
0.375896
0
LINE
8
BLACK
6
CONTINUOUS
10
3.48953
20
0.375896
11
3.48953
21
0.375896
0
LINE
8
BLACK
6
CONTINUOUS
10
3.48953
20
0.375896
11
3.49893
21
0.371219
0
LINE
8
BLACK
6
CONTINUOUS
10
3.49893
20
0.371219
11
3.49893
21
0.371219
0
LINE
8
BLACK
6
CONTINUOUS
10
3.49893
20
0.371219
11
3.49909
21
0.371139
0
LINE
8
BLACK
6
CONTINUOUS
10
3.49909
20
0.371139
11
3.50941
21
0.367757
0
LINE
8
BLACK
6
CONTINUOUS
10
3.50941
20
0.367757
11
3.50959
21
0.367726
0
LINE
8
BLACK
6
CONTINUOUS
10
3.50959
20
0.367726
11
3.50959
21
0.367726
0
LINE
8
BLACK
6
CONTINUOUS
10
3.50959
20
0.367726
11
3.51996
21
0.365925
0
LINE
8
BLACK
6
CONTINUOUS
10
3.51996
20
0.365925
11
3.51996
21
0.365925
0
LINE
8
BLACK
6
CONTINUOUS
10
3.51996
20
0.365925
11
3.52011
21
0.365899
0
LINE
8
BLACK
6
CONTINUOUS
10
3.52011
20
0.365899
11
3.52026
21
0.365892
0
LINE
8
BLACK
6
CONTINUOUS
10
3.52026
20
0.365892
11
3.52348
21
0.365731
0
LINE
8
BLACK
6
CONTINUOUS
10
3.52348
20
0.365731
11
3.52348
21
0.365731
0
LINE
8
BLACK
6
CONTINUOUS
10
3.52348
20
0.365731
11
3.52354
21
0.365728
0
LINE
8
BLACK
6
CONTINUOUS
10
3.52354
20
0.365728
11
3.53032
21
0.365728
0
LINE
8
BLACK
6
CONTINUOUS
10
3.53032
20
0.365728
11
3.53041
21
0.365735
0
LINE
8
BLACK
6
CONTINUOUS
10
3.53041
20
0.365735
11
3.53041
21
0.365735
0
LINE
8
BLACK
6
CONTINUOUS
10
3.53041
20
0.365735
11
3.53574
21
0.366122
0
LINE
8
BLACK
6
CONTINUOUS
10
3.53574
20
0.366122
11
3.53839
21
0.366314
0
LINE
8
BLACK
6
CONTINUOUS
10
3.53839
20
0.366314
11
3.53856
21
0.366353
0
LINE
8
BLACK
6
CONTINUOUS
10
3.53856
20
0.366353
11
3.53856
21
0.366353
0
LINE
8
BLACK
6
CONTINUOUS
10
3.53856
20
0.366353
11
3.54882
21
0.368616
0
LINE
8
BLACK
6
CONTINUOUS
10
3.54882
20
0.368616
11
3.54882
21
0.368616
0
LINE
8
BLACK
6
CONTINUOUS
10
3.54882
20
0.368616
11
3.54899
21
0.368655
0
LINE
8
BLACK
6
CONTINUOUS
10
3.54899
20
0.368655
11
3.55915
21
0.372502
0
LINE
8
BLACK
6
CONTINUOUS
10
3.55915
20
0.372502
11
3.55966
21
0.372786
0
LINE
8
BLACK
6
CONTINUOUS
10
3.55966
20
0.372786
11
3.56848
21
0.377687
0
LINE
8
BLACK
6
CONTINUOUS
10
3.56848
20
0.377687
11
3.56848
21
0.377687
0
LINE
8
BLACK
6
CONTINUOUS
10
3.56848
20
0.377687
11
3.56864
21
0.377775
0
LINE
8
BLACK
6
CONTINUOUS
10
3.56864
20
0.377775
11
3.57727
21
0.384362
0
LINE
8
BLACK
6
CONTINUOUS
10
3.57727
20
0.384362
11
3.57746
21
0.384559
0
LINE
8
BLACK
6
CONTINUOUS
10
3.57746
20
0.384559
11
3.58474
21
0.391998
0
LINE
8
BLACK
6
CONTINUOUS
10
3.58474
20
0.391998
11
3.58474
21
0.391999
0
LINE
8
BLACK
6
CONTINUOUS
10
3.58474
20
0.391999
11
3.58486
21
0.392127
0
LINE
8
BLACK
6
CONTINUOUS
10
3.58486
20
0.392127
11
3.58497
21
0.392272
0
LINE
8
BLACK
6
CONTINUOUS
10
3.58497
20
0.392272
11
3.59115
21
0.400761
0
LINE
8
BLACK
6
CONTINUOUS
10
3.59115
20
0.400761
11
3.59115
21
0.400761
0
LINE
8
BLACK
6
CONTINUOUS
10
3.59115
20
0.400761
11
3.59125
21
0.400906
0
LINE
8
BLACK
6
CONTINUOUS
10
3.59125
20
0.400906
11
3.59631
21
0.410516
0
LINE
8
BLACK
6
CONTINUOUS
10
3.59631
20
0.410516
11
3.59992
21
0.420755
0
LINE
8
BLACK
6
CONTINUOUS
10
3.59992
20
0.420755
11
3.60136
21
0.428062
0
LINE
8
BLACK
6
CONTINUOUS
10
3.60136
20
0.428062
11
3.60199
21
0.431232
0
LINE
8
BLACK
6
CONTINUOUS
10
3.60199
20
0.431232
11
3.60199
21
0.431232
0
LINE
8
BLACK
6
CONTINUOUS
10
3.60199
20
0.431232
11
3.60202
21
0.431408
0
LINE
8
BLACK
6
CONTINUOUS
10
3.60202
20
0.431408
11
3.60204
21
0.431784
0
LINE
8
BLACK
6
CONTINUOUS
10
3.60204
20
0.431784
11
3.60255
21
0.442073
0
LINE
8
BLACK
6
CONTINUOUS
10
3.60255
20
0.442073
11
3.60255
21
0.442074
0
LINE
8
BLACK
6
CONTINUOUS
10
3.60255
20
0.442074
11
3.60256
21
0.442253
0
LINE
8
BLACK
6
CONTINUOUS
10
3.60256
20
0.442253
11
3.60153
21
0.453063
0
LINE
8
BLACK
6
CONTINUOUS
10
3.60153
20
0.453063
11
3.60144
21
0.453434
0
LINE
8
BLACK
6
CONTINUOUS
10
3.60144
20
0.453434
11
3.59899
21
0.463435
0
LINE
8
BLACK
6
CONTINUOUS
10
3.59899
20
0.463435
11
3.59895
21
0.46361
0
LINE
8
BLACK
6
CONTINUOUS
10
3.59895
20
0.46361
11
3.59487
21
0.473674
0
LINE
8
BLACK
6
CONTINUOUS
10
3.59487
20
0.473674
11
3.59478
21
0.473829
0
LINE
8
BLACK
6
CONTINUOUS
10
3.59478
20
0.473829
11
3.59478
21
0.473829
0
LINE
8
BLACK
6
CONTINUOUS
10
3.59478
20
0.473829
11
3.58948
21
0.48289
0
LINE
8
BLACK
6
CONTINUOUS
10
3.58948
20
0.48289
11
3.58948
21
0.48289
0
LINE
8
BLACK
6
CONTINUOUS
10
3.58948
20
0.48289
11
3.58939
21
0.483045
0
LINE
8
BLACK
6
CONTINUOUS
10
3.58939
20
0.483045
11
3.58476
21
0.48883
0
LINE
8
BLACK
6
CONTINUOUS
10
3.58476
20
0.48883
11
3.58272
21
0.491384
0
LINE
8
BLACK
6
CONTINUOUS
10
3.58272
20
0.491384
11
3.58272
21
0.491385
0
LINE
8
BLACK
6
CONTINUOUS
10
3.58272
20
0.491385
11
3.58261
21
0.491525
0
LINE
8
BLACK
6
CONTINUOUS
10
3.58261
20
0.491525
11
3.57681
21
0.496937
0
LINE
8
BLACK
6
CONTINUOUS
10
3.57681
20
0.496937
11
3.5748
21
0.498815
0
LINE
8
BLACK
6
CONTINUOUS
10
3.5748
20
0.498815
11
3.5748
21
0.498815
0
LINE
8
BLACK
6
CONTINUOUS
10
3.5748
20
0.498815
11
3.57467
21
0.498937
0
LINE
8
BLACK
6
CONTINUOUS
10
3.57467
20
0.498937
11
3.56575
21
0.505127
0
LINE
8
BLACK
6
CONTINUOUS
10
3.56575
20
0.505127
11
3.56535
21
0.505323
0
LINE
8
BLACK
6
CONTINUOUS
10
3.56535
20
0.505323
11
3.55619
21
0.509883
0
LINE
8
BLACK
6
CONTINUOUS
10
3.55619
20
0.509883
11
3.55619
21
0.509883
0
LINE
8
BLACK
6
CONTINUOUS
10
3.55619
20
0.509883
11
3.55603
21
0.509963
0
LINE
8
BLACK
6
CONTINUOUS
10
3.55603
20
0.509963
11
3.54571
21
0.513346
0
LINE
8
BLACK
6
CONTINUOUS
10
3.54571
20
0.513346
11
3.54553
21
0.513376
0
LINE
8
BLACK
6
CONTINUOUS
10
3.54553
20
0.513376
11
3.53516
21
0.515177
0
LINE
8
BLACK
6
CONTINUOUS
10
3.53516
20
0.515177
11
3.53516
21
0.515177
0
LINE
8
BLACK
6
CONTINUOUS
10
3.53516
20
0.515177
11
3.53501
21
0.515203
0
LINE
8
BLACK
6
CONTINUOUS
10
3.53501
20
0.515203
11
3.53461
21
0.515223
0
LINE
8
BLACK
6
CONTINUOUS
10
3.53461
20
0.515223
11
3.53164
21
0.515371
0
LINE
8
BLACK
6
CONTINUOUS
10
3.53164
20
0.515371
11
3.53164
21
0.515371
0
LINE
8
BLACK
6
CONTINUOUS
10
3.53164
20
0.515371
11
3.53158
21
0.515374
0
LINE
8
BLACK
6
CONTINUOUS
10
3.53158
20
0.515374
11
3.5248
21
0.515374
0
LINE
8
BLACK
6
CONTINUOUS
10
3.5248
20
0.515374
11
3.52471
21
0.515368
0
LINE
8
BLACK
6
CONTINUOUS
10
3.52471
20
0.515368
11
3.52471
21
0.515368
0
LINE
8
BLACK
6
CONTINUOUS
10
3.52471
20
0.515368
11
3.51962
21
0.514998
0
LINE
8
BLACK
6
CONTINUOUS
10
3.51962
20
0.514998
11
3.51673
21
0.514788
0
LINE
8
BLACK
6
CONTINUOUS
10
3.51673
20
0.514788
11
3.51655
21
0.51475
0
LINE
8
BLACK
6
CONTINUOUS
10
3.51655
20
0.51475
11
3.51655
21
0.51475
0
LINE
8
BLACK
6
CONTINUOUS
10
3.51655
20
0.51475
11
3.5063
21
0.512486
0
LINE
8
BLACK
6
CONTINUOUS
10
3.5063
20
0.512486
11
3.5063
21
0.512486
0
LINE
8
BLACK
6
CONTINUOUS
10
3.5063
20
0.512486
11
3.50613
21
0.512447
0
LINE
8
BLACK
6
CONTINUOUS
10
3.50613
20
0.512447
11
3.49597
21
0.5086
0
LINE
8
BLACK
6
CONTINUOUS
10
3.49597
20
0.5086
11
3.48648
21
0.503328
0
LINE
8
BLACK
6
CONTINUOUS
10
3.48648
20
0.503328
11
3.48634
21
0.503219
0
LINE
8
BLACK
6
CONTINUOUS
10
3.48634
20
0.503219
11
3.47811
21
0.496937
0
LINE
8
BLACK
6
CONTINUOUS
10
3.47811
20
0.496937
11
3.47785
21
0.49674
0
LINE
8
BLACK
6
CONTINUOUS
10
3.47785
20
0.49674
11
3.47772
21
0.496611
0
LINE
8
BLACK
6
CONTINUOUS
10
3.47772
20
0.496611
11
3.47772
21
0.496611
0
LINE
8
BLACK
6
CONTINUOUS
10
3.47772
20
0.496611
11
3.47038
21
0.489104
0
LINE
8
BLACK
6
CONTINUOUS
10
3.47038
20
0.489104
11
3.47038
21
0.489104
0
LINE
8
BLACK
6
CONTINUOUS
10
3.47038
20
0.489104
11
3.47026
21
0.488975
0
LINE
8
BLACK
6
CONTINUOUS
10
3.47026
20
0.488975
11
3.47015
21
0.48883
0
LINE
8
BLACK
6
CONTINUOUS
10
3.47015
20
0.48883
11
3.47015
21
0.48883
0
LINE
8
BLACK
6
CONTINUOUS
10
3.47015
20
0.48883
11
3.46412
21
0.480538
0
LINE
8
BLACK
6
CONTINUOUS
10
3.46412
20
0.480538
11
3.46387
21
0.480196
0
LINE
8
BLACK
6
CONTINUOUS
10
3.46387
20
0.480196
11
3.45881
21
0.470587
0
LINE
8
BLACK
6
CONTINUOUS
10
3.45881
20
0.470587
11
3.4552
21
0.460348
0
LINE
8
BLACK
6
CONTINUOUS
10
3.4552
20
0.460348
11
3.45516
21
0.460172
0
LINE
8
BLACK
6
CONTINUOUS
10
3.45516
20
0.460172
11
3.45372
21
0.452883
0
LINE
8
BLACK
6
CONTINUOUS
10
3.45372
20
0.452883
11
3.4531
21
0.449694
0
LINE
8
BLACK
6
CONTINUOUS
10
3.4531
20
0.449694
11
3.45309
21
0.449515
0
LINE
8
BLACK
6
CONTINUOUS
10
3.45309
20
0.449515
11
3.45309
21
0.449515
0
LINE
8
BLACK
6
CONTINUOUS
10
3.45309
20
0.449515
11
3.45257
21
0.439046
0
LINE
8
BLACK
6
CONTINUOUS
10
3.45257
20
0.439046
11
3.45256
21
0.438849
0
LINE
8
BLACK
6
CONTINUOUS
10
3.45256
20
0.438849
11
3.45359
21
0.42804
0
LINE
8
BLACK
6
CONTINUOUS
10
3.45359
20
0.42804
11
3.45363
21
0.427865
0
LINE
8
BLACK
6
CONTINUOUS
10
3.11551
20
0.834869
11
3.11581
21
0.834803
0
LINE
8
BLACK
6
CONTINUOUS
10
3.11581
20
0.834803
11
3.15625
21
0.834803
0
LINE
8
BLACK
6
CONTINUOUS
10
3.15625
20
0.834803
11
3.15655
21
0.834821
0
LINE
8
BLACK
6
CONTINUOUS
10
3.15655
20
0.834821
11
3.15706
21
0.834882
0
LINE
8
BLACK
6
CONTINUOUS
10
3.15706
20
0.834882
11
3.15777
21
0.835077
0
LINE
8
BLACK
6
CONTINUOUS
10
3.15777
20
0.835077
11
3.16103
21
0.836526
0
LINE
8
BLACK
6
CONTINUOUS
10
3.16103
20
0.836526
11
3.16178
21
0.837036
0
LINE
8
BLACK
6
CONTINUOUS
10
3.16178
20
0.837036
11
3.16424
21
0.839502
0
LINE
8
BLACK
6
CONTINUOUS
10
3.16424
20
0.839502
11
3.16475
21
0.840245
0
LINE
8
BLACK
6
CONTINUOUS
10
3.16475
20
0.840245
11
3.16619
21
0.843509
0
LINE
8
BLACK
6
CONTINUOUS
10
3.16619
20
0.843509
11
3.16638
21
0.844221
0
LINE
8
BLACK
6
CONTINUOUS
10
3.16638
20
0.844221
11
3.16644
21
0.844716
0
LINE
8
BLACK
6
CONTINUOUS
10
3.16644
20
0.844716
11
3.16646
21
0.845003
0
LINE
8
BLACK
6
CONTINUOUS
10
3.16646
20
0.845003
11
3.16646
21
0.885271
0
LINE
8
BLACK
6
CONTINUOUS
10
3.16646
20
0.885271
11
3.16628
21
0.885871
0
LINE
8
BLACK
6
CONTINUOUS
10
3.16628
20
0.885871
11
3.16623
21
0.885918
0
LINE
8
BLACK
6
CONTINUOUS
10
3.16623
20
0.885918
11
3.16592
21
0.885984
0
LINE
8
BLACK
6
CONTINUOUS
10
3.16592
20
0.885984
11
3.15465
21
0.885984
0
LINE
8
BLACK
6
CONTINUOUS
10
3.15465
20
0.885984
11
3.15465
21
0.846614
0
LINE
8
BLACK
6
CONTINUOUS
10
3.15465
20
0.846614
11
3.11528
21
0.846614
0
LINE
8
BLACK
6
CONTINUOUS
10
3.11528
20
0.846614
11
3.11528
21
0.835516
0
LINE
8
BLACK
6
CONTINUOUS
10
3.11528
20
0.835516
11
3.11545
21
0.834916
0
LINE
8
BLACK
6
CONTINUOUS
10
3.11545
20
0.834916
11
3.11551
21
0.834869
0
LINE
8
BLACK
6
CONTINUOUS
10
3.05251
20
0.897861
11
3.05282
21
0.897795
0
LINE
8
BLACK
6
CONTINUOUS
10
3.05282
20
0.897795
11
3.06409
21
0.897795
0
LINE
8
BLACK
6
CONTINUOUS
10
3.06409
20
0.897795
11
3.06409
21
0.937165
0
LINE
8
BLACK
6
CONTINUOUS
10
3.06409
20
0.937165
11
3.10346
21
0.937165
0
LINE
8
BLACK
6
CONTINUOUS
10
3.10346
20
0.937165
11
3.10346
21
0.948263
0
LINE
8
BLACK
6
CONTINUOUS
10
3.10346
20
0.948263
11
3.10329
21
0.948863
0
LINE
8
BLACK
6
CONTINUOUS
10
3.10329
20
0.948863
11
3.10323
21
0.948911
0
LINE
8
BLACK
6
CONTINUOUS
10
3.10323
20
0.948911
11
3.10293
21
0.948976
0
LINE
8
BLACK
6
CONTINUOUS
10
3.10293
20
0.948976
11
3.06249
21
0.948976
0
LINE
8
BLACK
6
CONTINUOUS
10
3.06249
20
0.948976
11
3.06219
21
0.948959
0
LINE
8
BLACK
6
CONTINUOUS
10
3.06219
20
0.948959
11
3.06168
21
0.948898
0
LINE
8
BLACK
6
CONTINUOUS
10
3.06168
20
0.948898
11
3.06097
21
0.948703
0
LINE
8
BLACK
6
CONTINUOUS
10
3.06097
20
0.948703
11
3.05771
21
0.947254
0
LINE
8
BLACK
6
CONTINUOUS
10
3.05771
20
0.947254
11
3.05697
21
0.946744
0
LINE
8
BLACK
6
CONTINUOUS
10
3.05697
20
0.946744
11
3.0545
21
0.944278
0
LINE
8
BLACK
6
CONTINUOUS
10
3.0545
20
0.944278
11
3.054
21
0.943535
0
LINE
8
BLACK
6
CONTINUOUS
10
3.054
20
0.943535
11
3.05255
21
0.940271
0
LINE
8
BLACK
6
CONTINUOUS
10
3.05255
20
0.940271
11
3.05236
21
0.939559
0
LINE
8
BLACK
6
CONTINUOUS
10
3.05236
20
0.939559
11
3.0523
21
0.939064
0
LINE
8
BLACK
6
CONTINUOUS
10
3.0523
20
0.939064
11
3.05228
21
0.938776
0
LINE
8
BLACK
6
CONTINUOUS
10
3.05228
20
0.938776
11
3.05228
21
0.898508
0
LINE
8
BLACK
6
CONTINUOUS
10
3.05228
20
0.898508
11
3.05246
21
0.897909
0
LINE
8
BLACK
6
CONTINUOUS
10
3.05246
20
0.897909
11
3.05251
21
0.897861
0
LINE
8
BLACK
6
CONTINUOUS
10
3.11599
20
0.948976
11
3.11539
21
0.9488
0
LINE
8
BLACK
6
CONTINUOUS
10
3.11539
20
0.9488
11
3.11534
21
0.948745
0
LINE
8
BLACK
6
CONTINUOUS
10
3.11534
20
0.948745
11
3.11528
21
0.948443
0
LINE
8
BLACK
6
CONTINUOUS
10
3.11528
20
0.948443
11
3.11528
21
0.937165
0
LINE
8
BLACK
6
CONTINUOUS
10
3.11528
20
0.937165
11
3.15465
21
0.937165
0
LINE
8
BLACK
6
CONTINUOUS
10
3.15465
20
0.937165
11
3.15465
21
0.897795
0
LINE
8
BLACK
6
CONTINUOUS
10
3.15465
20
0.897795
11
3.16574
21
0.897795
0
LINE
8
BLACK
6
CONTINUOUS
10
3.16574
20
0.897795
11
3.16634
21
0.897971
0
LINE
8
BLACK
6
CONTINUOUS
10
3.16634
20
0.897971
11
3.16639
21
0.898026
0
LINE
8
BLACK
6
CONTINUOUS
10
3.16639
20
0.898026
11
3.16646
21
0.898329
0
LINE
8
BLACK
6
CONTINUOUS
10
3.16646
20
0.898329
11
3.16646
21
0.938773
0
LINE
8
BLACK
6
CONTINUOUS
10
3.16646
20
0.938773
11
3.16644
21
0.939066
0
LINE
8
BLACK
6
CONTINUOUS
10
3.16644
20
0.939066
11
3.16638
21
0.93958
0
LINE
8
BLACK
6
CONTINUOUS
10
3.16638
20
0.93958
11
3.16618
21
0.94029
0
LINE
8
BLACK
6
CONTINUOUS
10
3.16618
20
0.94029
11
3.16473
21
0.943552
0
LINE
8
BLACK
6
CONTINUOUS
10
3.16473
20
0.943552
11
3.16422
21
0.944295
0
LINE
8
BLACK
6
CONTINUOUS
10
3.16422
20
0.944295
11
3.16176
21
0.946756
0
LINE
8
BLACK
6
CONTINUOUS
10
3.16176
20
0.946756
11
3.16102
21
0.947265
0
LINE
8
BLACK
6
CONTINUOUS
10
3.16102
20
0.947265
11
3.15775
21
0.948708
0
LINE
8
BLACK
6
CONTINUOUS
10
3.15775
20
0.948708
11
3.15704
21
0.948902
0
LINE
8
BLACK
6
CONTINUOUS
10
3.15704
20
0.948902
11
3.15654
21
0.94896
0
LINE
8
BLACK
6
CONTINUOUS
10
3.15654
20
0.94896
11
3.15626
21
0.948976
0
LINE
8
BLACK
6
CONTINUOUS
10
3.15626
20
0.948976
11
3.11599
21
0.948976
0
LINE
8
BLACK
6
CONTINUOUS
10
2.84271
20
0.442074
11
2.84272
21
0.442253
0
LINE
8
BLACK
6
CONTINUOUS
10
2.84272
20
0.442253
11
2.84169
21
0.453063
0
LINE
8
BLACK
6
CONTINUOUS
10
2.84169
20
0.453063
11
2.8416
21
0.453434
0
LINE
8
BLACK
6
CONTINUOUS
10
2.8416
20
0.453434
11
2.83915
21
0.463435
0
LINE
8
BLACK
6
CONTINUOUS
10
2.83915
20
0.463435
11
2.83911
21
0.46361
0
LINE
8
BLACK
6
CONTINUOUS
10
2.83911
20
0.46361
11
2.83503
21
0.473674
0
LINE
8
BLACK
6
CONTINUOUS
10
2.83503
20
0.473674
11
2.83494
21
0.473829
0
LINE
8
BLACK
6
CONTINUOUS
10
2.83494
20
0.473829
11
2.83494
21
0.473829
0
LINE
8
BLACK
6
CONTINUOUS
10
2.83494
20
0.473829
11
2.82964
21
0.48289
0
LINE
8
BLACK
6
CONTINUOUS
10
2.82964
20
0.48289
11
2.82964
21
0.48289
0
LINE
8
BLACK
6
CONTINUOUS
10
2.82964
20
0.48289
11
2.82954
21
0.483045
0
LINE
8
BLACK
6
CONTINUOUS
10
2.82954
20
0.483045
11
2.82492
21
0.48883
0
LINE
8
BLACK
6
CONTINUOUS
10
2.82492
20
0.48883
11
2.82288
21
0.491384
0
LINE
8
BLACK
6
CONTINUOUS
10
2.82288
20
0.491384
11
2.82288
21
0.491385
0
LINE
8
BLACK
6
CONTINUOUS
10
2.82288
20
0.491385
11
2.82276
21
0.491525
0
LINE
8
BLACK
6
CONTINUOUS
10
2.82276
20
0.491525
11
2.81697
21
0.496937
0
LINE
8
BLACK
6
CONTINUOUS
10
2.81697
20
0.496937
11
2.81496
21
0.498815
0
LINE
8
BLACK
6
CONTINUOUS
10
2.81496
20
0.498815
11
2.81496
21
0.498815
0
LINE
8
BLACK
6
CONTINUOUS
10
2.81496
20
0.498815
11
2.81483
21
0.498937
0
LINE
8
BLACK
6
CONTINUOUS
10
2.81483
20
0.498937
11
2.80591
21
0.505127
0
LINE
8
BLACK
6
CONTINUOUS
10
2.80591
20
0.505127
11
2.80551
21
0.505323
0
LINE
8
BLACK
6
CONTINUOUS
10
2.80551
20
0.505323
11
2.79635
21
0.509883
0
LINE
8
BLACK
6
CONTINUOUS
10
2.79635
20
0.509883
11
2.79635
21
0.509883
0
LINE
8
BLACK
6
CONTINUOUS
10
2.79635
20
0.509883
11
2.79618
21
0.509963
0
LINE
8
BLACK
6
CONTINUOUS
10
2.79618
20
0.509963
11
2.78587
21
0.513346
0
LINE
8
BLACK
6
CONTINUOUS
10
2.78587
20
0.513346
11
2.78569
21
0.513376
0
LINE
8
BLACK
6
CONTINUOUS
10
2.78569
20
0.513376
11
2.77532
21
0.515177
0
LINE
8
BLACK
6
CONTINUOUS
10
2.77532
20
0.515177
11
2.77532
21
0.515177
0
LINE
8
BLACK
6
CONTINUOUS
10
2.77532
20
0.515177
11
2.77517
21
0.515203
0
LINE
8
BLACK
6
CONTINUOUS
10
2.77517
20
0.515203
11
2.77476
21
0.515223
0
LINE
8
BLACK
6
CONTINUOUS
10
2.77476
20
0.515223
11
2.7718
21
0.515371
0
LINE
8
BLACK
6
CONTINUOUS
10
2.7718
20
0.515371
11
2.7718
21
0.515371
0
LINE
8
BLACK
6
CONTINUOUS
10
2.7718
20
0.515371
11
2.77174
21
0.515374
0
LINE
8
BLACK
6
CONTINUOUS
10
2.77174
20
0.515374
11
2.76496
21
0.515374
0
LINE
8
BLACK
6
CONTINUOUS
10
2.76496
20
0.515374
11
2.76487
21
0.515368
0
LINE
8
BLACK
6
CONTINUOUS
10
2.76487
20
0.515368
11
2.76487
21
0.515368
0
LINE
8
BLACK
6
CONTINUOUS
10
2.76487
20
0.515368
11
2.75978
21
0.514998
0
LINE
8
BLACK
6
CONTINUOUS
10
2.75978
20
0.514998
11
2.75689
21
0.514788
0
LINE
8
BLACK
6
CONTINUOUS
10
2.75689
20
0.514788
11
2.75671
21
0.51475
0
LINE
8
BLACK
6
CONTINUOUS
10
2.75671
20
0.51475
11
2.75671
21
0.51475
0
LINE
8
BLACK
6
CONTINUOUS
10
2.75671
20
0.51475
11
2.74646
21
0.512486
0
LINE
8
BLACK
6
CONTINUOUS
10
2.74646
20
0.512486
11
2.74646
21
0.512486
0
LINE
8
BLACK
6
CONTINUOUS
10
2.74646
20
0.512486
11
2.74628
21
0.512447
0
LINE
8
BLACK
6
CONTINUOUS
10
2.74628
20
0.512447
11
2.73613
21
0.5086
0
LINE
8
BLACK
6
CONTINUOUS
10
2.73613
20
0.5086
11
2.72664
21
0.503328
0
LINE
8
BLACK
6
CONTINUOUS
10
2.72664
20
0.503328
11
2.72649
21
0.503219
0
LINE
8
BLACK
6
CONTINUOUS
10
2.72649
20
0.503219
11
2.71826
21
0.496937
0
LINE
8
BLACK
6
CONTINUOUS
10
2.71826
20
0.496937
11
2.718
21
0.49674
0
LINE
8
BLACK
6
CONTINUOUS
10
2.718
20
0.49674
11
2.71788
21
0.496611
0
LINE
8
BLACK
6
CONTINUOUS
10
2.71788
20
0.496611
11
2.71788
21
0.496611
0
LINE
8
BLACK
6
CONTINUOUS
10
2.71788
20
0.496611
11
2.71054
21
0.489104
0
LINE
8
BLACK
6
CONTINUOUS
10
2.71054
20
0.489104
11
2.71054
21
0.489104
0
LINE
8
BLACK
6
CONTINUOUS
10
2.71054
20
0.489104
11
2.71041
21
0.488975
0
LINE
8
BLACK
6
CONTINUOUS
10
2.71041
20
0.488975
11
2.71031
21
0.48883
0
LINE
8
BLACK
6
CONTINUOUS
10
2.71031
20
0.48883
11
2.71031
21
0.48883
0
LINE
8
BLACK
6
CONTINUOUS
10
2.71031
20
0.48883
11
2.70427
21
0.480538
0
LINE
8
BLACK
6
CONTINUOUS
10
2.70427
20
0.480538
11
2.70402
21
0.480196
0
LINE
8
BLACK
6
CONTINUOUS
10
2.70402
20
0.480196
11
2.69897
21
0.470587
0
LINE
8
BLACK
6
CONTINUOUS
10
2.69897
20
0.470587
11
2.69535
21
0.460348
0
LINE
8
BLACK
6
CONTINUOUS
10
2.69535
20
0.460348
11
2.69532
21
0.460172
0
LINE
8
BLACK
6
CONTINUOUS
10
2.69532
20
0.460172
11
2.69388
21
0.452883
0
LINE
8
BLACK
6
CONTINUOUS
10
2.69388
20
0.452883
11
2.69325
21
0.449694
0
LINE
8
BLACK
6
CONTINUOUS
10
2.69325
20
0.449694
11
2.69324
21
0.449515
0
LINE
8
BLACK
6
CONTINUOUS
10
2.69324
20
0.449515
11
2.69324
21
0.449515
0
LINE
8
BLACK
6
CONTINUOUS
10
2.69324
20
0.449515
11
2.69272
21
0.439046
0
LINE
8
BLACK
6
CONTINUOUS
10
2.69272
20
0.439046
11
2.69271
21
0.438849
0
LINE
8
BLACK
6
CONTINUOUS
10
2.69271
20
0.438849
11
2.69374
21
0.42804
0
LINE
8
BLACK
6
CONTINUOUS
10
2.69374
20
0.42804
11
2.69379
21
0.427865
0
LINE
8
BLACK
6
CONTINUOUS
10
2.69379
20
0.427865
11
2.69379
21
0.427865
0
LINE
8
BLACK
6
CONTINUOUS
10
2.69379
20
0.427865
11
2.69628
21
0.417667
0
LINE
8
BLACK
6
CONTINUOUS
10
2.69628
20
0.417667
11
2.69633
21
0.417492
0
LINE
8
BLACK
6
CONTINUOUS
10
2.69633
20
0.417492
11
2.7004
21
0.407428
0
LINE
8
BLACK
6
CONTINUOUS
10
2.7004
20
0.407428
11
2.70049
21
0.407273
0
LINE
8
BLACK
6
CONTINUOUS
10
2.70049
20
0.407273
11
2.70049
21
0.407273
0
LINE
8
BLACK
6
CONTINUOUS
10
2.70049
20
0.407273
11
2.7058
21
0.398212
0
LINE
8
BLACK
6
CONTINUOUS
10
2.7058
20
0.398212
11
2.7058
21
0.398212
0
LINE
8
BLACK
6
CONTINUOUS
10
2.7058
20
0.398212
11
2.70589
21
0.398058
0
LINE
8
BLACK
6
CONTINUOUS
10
2.70589
20
0.398058
11
2.706
21
0.397918
0
LINE
8
BLACK
6
CONTINUOUS
10
2.706
20
0.397918
11
2.7124
21
0.389915
0
LINE
8
BLACK
6
CONTINUOUS
10
2.7124
20
0.389915
11
2.71267
21
0.389577
0
LINE
8
BLACK
6
CONTINUOUS
10
2.71267
20
0.389577
11
2.7128
21
0.389455
0
LINE
8
BLACK
6
CONTINUOUS
10
2.7128
20
0.389455
11
2.72039
21
0.382362
0
LINE
8
BLACK
6
CONTINUOUS
10
2.72039
20
0.382362
11
2.7206
21
0.382165
0
LINE
8
BLACK
6
CONTINUOUS
10
2.7206
20
0.382165
11
2.72953
21
0.375976
0
LINE
8
BLACK
6
CONTINUOUS
10
2.72953
20
0.375976
11
2.72969
21
0.375896
0
LINE
8
BLACK
6
CONTINUOUS
10
2.72969
20
0.375896
11
2.72969
21
0.375896
0
LINE
8
BLACK
6
CONTINUOUS
10
2.72969
20
0.375896
11
2.73909
21
0.371219
0
LINE
8
BLACK
6
CONTINUOUS
10
2.73909
20
0.371219
11
2.73909
21
0.371219
0
LINE
8
BLACK
6
CONTINUOUS
10
2.73909
20
0.371219
11
2.73925
21
0.371139
0
LINE
8
BLACK
6
CONTINUOUS
10
2.73925
20
0.371139
11
2.74957
21
0.367757
0
LINE
8
BLACK
6
CONTINUOUS
10
2.74957
20
0.367757
11
2.74974
21
0.367726
0
LINE
8
BLACK
6
CONTINUOUS
10
2.74974
20
0.367726
11
2.74974
21
0.367726
0
LINE
8
BLACK
6
CONTINUOUS
10
2.74974
20
0.367726
11
2.76012
21
0.365925
0
LINE
8
BLACK
6
CONTINUOUS
10
2.76012
20
0.365925
11
2.76012
21
0.365925
0
LINE
8
BLACK
6
CONTINUOUS
10
2.76012
20
0.365925
11
2.76027
21
0.365899
0
LINE
8
BLACK
6
CONTINUOUS
10
2.76027
20
0.365899
11
2.76042
21
0.365892
0
LINE
8
BLACK
6
CONTINUOUS
10
2.76042
20
0.365892
11
2.76363
21
0.365731
0
LINE
8
BLACK
6
CONTINUOUS
10
2.76363
20
0.365731
11
2.76363
21
0.365731
0
LINE
8
BLACK
6
CONTINUOUS
10
2.76363
20
0.365731
11
2.7637
21
0.365728
0
LINE
8
BLACK
6
CONTINUOUS
10
2.7637
20
0.365728
11
2.77048
21
0.365728
0
LINE
8
BLACK
6
CONTINUOUS
10
2.77048
20
0.365728
11
2.77056
21
0.365735
0
LINE
8
BLACK
6
CONTINUOUS
10
2.77056
20
0.365735
11
2.77056
21
0.365735
0
LINE
8
BLACK
6
CONTINUOUS
10
2.77056
20
0.365735
11
2.7759
21
0.366122
0
LINE
8
BLACK
6
CONTINUOUS
10
2.7759
20
0.366122
11
2.77855
21
0.366314
0
LINE
8
BLACK
6
CONTINUOUS
10
2.77855
20
0.366314
11
2.77872
21
0.366353
0
LINE
8
BLACK
6
CONTINUOUS
10
2.77872
20
0.366353
11
2.77872
21
0.366353
0
LINE
8
BLACK
6
CONTINUOUS
10
2.77872
20
0.366353
11
2.78897
21
0.368616
0
LINE
8
BLACK
6
CONTINUOUS
10
2.78897
20
0.368616
11
2.78897
21
0.368616
0
LINE
8
BLACK
6
CONTINUOUS
10
2.78897
20
0.368616
11
2.78915
21
0.368655
0
LINE
8
BLACK
6
CONTINUOUS
10
2.78915
20
0.368655
11
2.7993
21
0.372502
0
LINE
8
BLACK
6
CONTINUOUS
10
2.7993
20
0.372502
11
2.79982
21
0.372786
0
LINE
8
BLACK
6
CONTINUOUS
10
2.79982
20
0.372786
11
2.80864
21
0.377687
0
LINE
8
BLACK
6
CONTINUOUS
10
2.80864
20
0.377687
11
2.80864
21
0.377687
0
LINE
8
BLACK
6
CONTINUOUS
10
2.80864
20
0.377687
11
2.8088
21
0.377775
0
LINE
8
BLACK
6
CONTINUOUS
10
2.8088
20
0.377775
11
2.81743
21
0.384362
0
LINE
8
BLACK
6
CONTINUOUS
10
2.81743
20
0.384362
11
2.81762
21
0.384559
0
LINE
8
BLACK
6
CONTINUOUS
10
2.81762
20
0.384559
11
2.82489
21
0.391998
0
LINE
8
BLACK
6
CONTINUOUS
10
2.82489
20
0.391998
11
2.82489
21
0.391999
0
LINE
8
BLACK
6
CONTINUOUS
10
2.82489
20
0.391999
11
2.82502
21
0.392127
0
LINE
8
BLACK
6
CONTINUOUS
10
2.82502
20
0.392127
11
2.82512
21
0.392272
0
LINE
8
BLACK
6
CONTINUOUS
10
2.82512
20
0.392272
11
2.8313
21
0.400761
0
LINE
8
BLACK
6
CONTINUOUS
10
2.8313
20
0.400761
11
2.8313
21
0.400761
0
LINE
8
BLACK
6
CONTINUOUS
10
2.8313
20
0.400761
11
2.83141
21
0.400906
0
LINE
8
BLACK
6
CONTINUOUS
10
2.83141
20
0.400906
11
2.83646
21
0.410516
0
LINE
8
BLACK
6
CONTINUOUS
10
2.83646
20
0.410516
11
2.84008
21
0.420755
0
LINE
8
BLACK
6
CONTINUOUS
10
2.84008
20
0.420755
11
2.84152
21
0.428062
0
LINE
8
BLACK
6
CONTINUOUS
10
2.84152
20
0.428062
11
2.84215
21
0.431232
0
LINE
8
BLACK
6
CONTINUOUS
10
2.84215
20
0.431232
11
2.84215
21
0.431232
0
LINE
8
BLACK
6
CONTINUOUS
10
2.84215
20
0.431232
11
2.84218
21
0.431408
0
LINE
8
BLACK
6
CONTINUOUS
10
2.84218
20
0.431408
11
2.8422
21
0.431784
0
LINE
8
BLACK
6
CONTINUOUS
10
2.8422
20
0.431784
11
2.84255
21
0.438849
0
LINE
8
BLACK
6
CONTINUOUS
10
2.84255
20
0.438849
11
2.84271
21
0.442073
0
LINE
8
BLACK
6
CONTINUOUS
10
2.84271
20
0.442073
11
2.84271
21
0.442074
0
LINE
8
BLACK
6
CONTINUOUS
10
2.00984
20
0.44227
11
2.00985
21
0.44245
0
LINE
8
BLACK
6
CONTINUOUS
10
2.00985
20
0.44245
11
2.00881
21
0.45326
0
LINE
8
BLACK
6
CONTINUOUS
10
2.00881
20
0.45326
11
2.00712
21
0.460172
0
LINE
8
BLACK
6
CONTINUOUS
10
2.00712
20
0.460172
11
2.00628
21
0.463632
0
LINE
8
BLACK
6
CONTINUOUS
10
2.00628
20
0.463632
11
2.00623
21
0.463807
0
LINE
8
BLACK
6
CONTINUOUS
10
2.00623
20
0.463807
11
2.00216
21
0.473871
0
LINE
8
BLACK
6
CONTINUOUS
10
2.00216
20
0.473871
11
2.00207
21
0.474026
0
LINE
8
BLACK
6
CONTINUOUS
10
2.00207
20
0.474026
11
2.00207
21
0.474026
0
LINE
8
BLACK
6
CONTINUOUS
10
2.00207
20
0.474026
11
1.99676
21
0.483087
0
LINE
8
BLACK
6
CONTINUOUS
10
1.99676
20
0.483087
11
1.99676
21
0.483087
0
LINE
8
BLACK
6
CONTINUOUS
10
1.99676
20
0.483087
11
1.99667
21
0.483242
0
LINE
8
BLACK
6
CONTINUOUS
10
1.99667
20
0.483242
11
1.99198
21
0.489104
0
LINE
8
BLACK
6
CONTINUOUS
10
1.99198
20
0.489104
11
1.99
21
0.491581
0
LINE
8
BLACK
6
CONTINUOUS
10
1.99
20
0.491581
11
1.99
21
0.491581
0
LINE
8
BLACK
6
CONTINUOUS
10
1.99
20
0.491581
11
1.98989
21
0.491722
0
LINE
8
BLACK
6
CONTINUOUS
10
1.98989
20
0.491722
11
1.9823
21
0.498815
0
LINE
8
BLACK
6
CONTINUOUS
10
1.9823
20
0.498815
11
1.98209
21
0.499011
0
LINE
8
BLACK
6
CONTINUOUS
10
1.98209
20
0.499011
11
1.98209
21
0.499012
0
LINE
8
BLACK
6
CONTINUOUS
10
1.98209
20
0.499012
11
1.98195
21
0.499134
0
LINE
8
BLACK
6
CONTINUOUS
10
1.98195
20
0.499134
11
1.97303
21
0.505323
0
LINE
8
BLACK
6
CONTINUOUS
10
1.97303
20
0.505323
11
1.97287
21
0.505403
0
LINE
8
BLACK
6
CONTINUOUS
10
1.97287
20
0.505403
11
1.96347
21
0.51008
0
LINE
8
BLACK
6
CONTINUOUS
10
1.96347
20
0.51008
11
1.96347
21
0.51008
0
LINE
8
BLACK
6
CONTINUOUS
10
1.96347
20
0.51008
11
1.96331
21
0.51016
0
LINE
8
BLACK
6
CONTINUOUS
10
1.96331
20
0.51016
11
1.95299
21
0.513543
0
LINE
8
BLACK
6
CONTINUOUS
10
1.95299
20
0.513543
11
1.95282
21
0.513573
0
LINE
8
BLACK
6
CONTINUOUS
10
1.95282
20
0.513573
11
1.94244
21
0.515374
0
LINE
8
BLACK
6
CONTINUOUS
10
1.94244
20
0.515374
11
1.94244
21
0.515374
0
LINE
8
BLACK
6
CONTINUOUS
10
1.94244
20
0.515374
11
1.94229
21
0.5154
0
LINE
8
BLACK
6
CONTINUOUS
10
1.94229
20
0.5154
11
1.94189
21
0.51542
0
LINE
8
BLACK
6
CONTINUOUS
10
1.94189
20
0.51542
11
1.93893
21
0.515568
0
LINE
8
BLACK
6
CONTINUOUS
10
1.93893
20
0.515568
11
1.93892
21
0.515568
0
LINE
8
BLACK
6
CONTINUOUS
10
1.93892
20
0.515568
11
1.93886
21
0.515571
0
LINE
8
BLACK
6
CONTINUOUS
10
1.93886
20
0.515571
11
1.93208
21
0.515571
0
LINE
8
BLACK
6
CONTINUOUS
10
1.93208
20
0.515571
11
1.93199
21
0.515564
0
LINE
8
BLACK
6
CONTINUOUS
10
1.93199
20
0.515564
11
1.93199
21
0.515564
0
LINE
8
BLACK
6
CONTINUOUS
10
1.93199
20
0.515564
11
1.92702
21
0.515203
0
LINE
8
BLACK
6
CONTINUOUS
10
1.92702
20
0.515203
11
1.92401
21
0.514985
0
LINE
8
BLACK
6
CONTINUOUS
10
1.92401
20
0.514985
11
1.92384
21
0.514946
0
LINE
8
BLACK
6
CONTINUOUS
10
1.92384
20
0.514946
11
1.92384
21
0.514946
0
LINE
8
BLACK
6
CONTINUOUS
10
1.92384
20
0.514946
11
1.91358
21
0.512683
0
LINE
8
BLACK
6
CONTINUOUS
10
1.91358
20
0.512683
11
1.91358
21
0.512683
0
LINE
8
BLACK
6
CONTINUOUS
10
1.91358
20
0.512683
11
1.91341
21
0.512644
0
LINE
8
BLACK
6
CONTINUOUS
10
1.91341
20
0.512644
11
1.90326
21
0.508797
0
LINE
8
BLACK
6
CONTINUOUS
10
1.90326
20
0.508797
11
1.9031
21
0.50871
0
LINE
8
BLACK
6
CONTINUOUS
10
1.9031
20
0.50871
11
1.9031
21
0.50871
0
LINE
8
BLACK
6
CONTINUOUS
10
1.9031
20
0.50871
11
1.89665
21
0.505127
0
LINE
8
BLACK
6
CONTINUOUS
10
1.89665
20
0.505127
11
1.89376
21
0.503525
0
LINE
8
BLACK
6
CONTINUOUS
10
1.89376
20
0.503525
11
1.88513
21
0.496937
0
LINE
8
BLACK
6
CONTINUOUS
10
1.88513
20
0.496937
11
1.88501
21
0.496808
0
LINE
8
BLACK
6
CONTINUOUS
10
1.88501
20
0.496808
11
1.88501
21
0.496808
0
LINE
8
BLACK
6
CONTINUOUS
10
1.88501
20
0.496808
11
1.87767
21
0.489301
0
LINE
8
BLACK
6
CONTINUOUS
10
1.87767
20
0.489301
11
1.87767
21
0.489301
0
LINE
8
BLACK
6
CONTINUOUS
10
1.87767
20
0.489301
11
1.87754
21
0.489172
0
LINE
8
BLACK
6
CONTINUOUS
10
1.87754
20
0.489172
11
1.87743
21
0.489027
0
LINE
8
BLACK
6
CONTINUOUS
10
1.87743
20
0.489027
11
1.87743
21
0.489027
0
LINE
8
BLACK
6
CONTINUOUS
10
1.87743
20
0.489027
11
1.87318
21
0.483185
0
LINE
8
BLACK
6
CONTINUOUS
10
1.87318
20
0.483185
11
1.87115
21
0.480393
0
LINE
8
BLACK
6
CONTINUOUS
10
1.87115
20
0.480393
11
1.86609
21
0.470783
0
LINE
8
BLACK
6
CONTINUOUS
10
1.86609
20
0.470783
11
1.86248
21
0.460545
0
LINE
8
BLACK
6
CONTINUOUS
10
1.86248
20
0.460545
11
1.86244
21
0.460369
0
LINE
8
BLACK
6
CONTINUOUS
10
1.86244
20
0.460369
11
1.86101
21
0.45308
0
LINE
8
BLACK
6
CONTINUOUS
10
1.86101
20
0.45308
11
1.86038
21
0.449891
0
LINE
8
BLACK
6
CONTINUOUS
10
1.86038
20
0.449891
11
1.86037
21
0.449712
0
LINE
8
BLACK
6
CONTINUOUS
10
1.86037
20
0.449712
11
1.86037
21
0.449712
0
LINE
8
BLACK
6
CONTINUOUS
10
1.86037
20
0.449712
11
1.86
21
0.442253
0
LINE
8
BLACK
6
CONTINUOUS
10
1.86
20
0.442253
11
1.85984
21
0.439046
0
LINE
8
BLACK
6
CONTINUOUS
10
1.85984
20
0.439046
11
1.86087
21
0.428237
0
LINE
8
BLACK
6
CONTINUOUS
10
1.86087
20
0.428237
11
1.86091
21
0.428062
0
LINE
8
BLACK
6
CONTINUOUS
10
1.86091
20
0.428062
11
1.86091
21
0.428062
0
LINE
8
BLACK
6
CONTINUOUS
10
1.86091
20
0.428062
11
1.86341
21
0.417864
0
LINE
8
BLACK
6
CONTINUOUS
10
1.86341
20
0.417864
11
1.86345
21
0.417689
0
LINE
8
BLACK
6
CONTINUOUS
10
1.86345
20
0.417689
11
1.86753
21
0.407625
0
LINE
8
BLACK
6
CONTINUOUS
10
1.86753
20
0.407625
11
1.86762
21
0.40747
0
LINE
8
BLACK
6
CONTINUOUS
10
1.86762
20
0.40747
11
1.86762
21
0.40747
0
LINE
8
BLACK
6
CONTINUOUS
10
1.86762
20
0.40747
11
1.87292
21
0.398409
0
LINE
8
BLACK
6
CONTINUOUS
10
1.87292
20
0.398409
11
1.87292
21
0.398409
0
LINE
8
BLACK
6
CONTINUOUS
10
1.87292
20
0.398409
11
1.87301
21
0.398255
0
LINE
8
BLACK
6
CONTINUOUS
10
1.87301
20
0.398255
11
1.87313
21
0.398114
0
LINE
8
BLACK
6
CONTINUOUS
10
1.87313
20
0.398114
11
1.87802
21
0.391998
0
LINE
8
BLACK
6
CONTINUOUS
10
1.87802
20
0.391998
11
1.8798
21
0.389774
0
LINE
8
BLACK
6
CONTINUOUS
10
1.8798
20
0.389774
11
1.87993
21
0.389651
0
LINE
8
BLACK
6
CONTINUOUS
10
1.87993
20
0.389651
11
1.88571
21
0.384253
0
LINE
8
BLACK
6
CONTINUOUS
10
1.88571
20
0.384253
11
1.88773
21
0.382362
0
LINE
8
BLACK
6
CONTINUOUS
10
1.88773
20
0.382362
11
1.89665
21
0.376173
0
LINE
8
BLACK
6
CONTINUOUS
10
1.89665
20
0.376173
11
1.89681
21
0.376093
0
LINE
8
BLACK
6
CONTINUOUS
10
1.89681
20
0.376093
11
1.89681
21
0.376093
0
LINE
8
BLACK
6
CONTINUOUS
10
1.89681
20
0.376093
11
1.90621
21
0.371416
0
LINE
8
BLACK
6
CONTINUOUS
10
1.90621
20
0.371416
11
1.90621
21
0.371416
0
LINE
8
BLACK
6
CONTINUOUS
10
1.90621
20
0.371416
11
1.90637
21
0.371336
0
LINE
8
BLACK
6
CONTINUOUS
10
1.90637
20
0.371336
11
1.91669
21
0.367954
0
LINE
8
BLACK
6
CONTINUOUS
10
1.91669
20
0.367954
11
1.91687
21
0.367923
0
LINE
8
BLACK
6
CONTINUOUS
10
1.91687
20
0.367923
11
1.91687
21
0.367923
0
LINE
8
BLACK
6
CONTINUOUS
10
1.91687
20
0.367923
11
1.92724
21
0.366122
0
LINE
8
BLACK
6
CONTINUOUS
10
1.92724
20
0.366122
11
1.92724
21
0.366122
0
LINE
8
BLACK
6
CONTINUOUS
10
1.92724
20
0.366122
11
1.92739
21
0.366096
0
LINE
8
BLACK
6
CONTINUOUS
10
1.92739
20
0.366096
11
1.92754
21
0.366088
0
LINE
8
BLACK
6
CONTINUOUS
10
1.92754
20
0.366088
11
1.93076
21
0.365928
0
LINE
8
BLACK
6
CONTINUOUS
10
1.93076
20
0.365928
11
1.93076
21
0.365928
0
LINE
8
BLACK
6
CONTINUOUS
10
1.93076
20
0.365928
11
1.93082
21
0.365925
0
LINE
8
BLACK
6
CONTINUOUS
10
1.93082
20
0.365925
11
1.9376
21
0.365925
0
LINE
8
BLACK
6
CONTINUOUS
10
1.9376
20
0.365925
11
1.93769
21
0.365932
0
LINE
8
BLACK
6
CONTINUOUS
10
1.93769
20
0.365932
11
1.93769
21
0.365932
0
LINE
8
BLACK
6
CONTINUOUS
10
1.93769
20
0.365932
11
1.94298
21
0.366315
0
LINE
8
BLACK
6
CONTINUOUS
10
1.94298
20
0.366315
11
1.94567
21
0.366511
0
LINE
8
BLACK
6
CONTINUOUS
10
1.94567
20
0.366511
11
1.94585
21
0.36655
0
LINE
8
BLACK
6
CONTINUOUS
10
1.94585
20
0.36655
11
1.94585
21
0.36655
0
LINE
8
BLACK
6
CONTINUOUS
10
1.94585
20
0.36655
11
1.9561
21
0.368813
0
LINE
8
BLACK
6
CONTINUOUS
10
1.9561
20
0.368813
11
1.9561
21
0.368813
0
LINE
8
BLACK
6
CONTINUOUS
10
1.9561
20
0.368813
11
1.95628
21
0.368852
0
LINE
8
BLACK
6
CONTINUOUS
10
1.95628
20
0.368852
11
1.96643
21
0.372699
0
LINE
8
BLACK
6
CONTINUOUS
10
1.96643
20
0.372699
11
1.97592
21
0.377971
0
LINE
8
BLACK
6
CONTINUOUS
10
1.97592
20
0.377971
11
1.98415
21
0.384253
0
LINE
8
BLACK
6
CONTINUOUS
10
1.98415
20
0.384253
11
1.98441
21
0.38445
0
LINE
8
BLACK
6
CONTINUOUS
10
1.98441
20
0.38445
11
1.98441
21
0.38445
0
LINE
8
BLACK
6
CONTINUOUS
10
1.98441
20
0.38445
11
1.98455
21
0.384559
0
LINE
8
BLACK
6
CONTINUOUS
10
1.98455
20
0.384559
11
1.98468
21
0.384688
0
LINE
8
BLACK
6
CONTINUOUS
10
1.98468
20
0.384688
11
1.99202
21
0.392195
0
LINE
8
BLACK
6
CONTINUOUS
10
1.99202
20
0.392195
11
1.99202
21
0.392195
0
LINE
8
BLACK
6
CONTINUOUS
10
1.99202
20
0.392195
11
1.99214
21
0.392324
0
LINE
8
BLACK
6
CONTINUOUS
10
1.99214
20
0.392324
11
1.99225
21
0.392469
0
LINE
8
BLACK
6
CONTINUOUS
10
1.99225
20
0.392469
11
1.99843
21
0.400958
0
LINE
8
BLACK
6
CONTINUOUS
10
1.99843
20
0.400958
11
1.99843
21
0.400958
0
LINE
8
BLACK
6
CONTINUOUS
10
1.99843
20
0.400958
11
1.99853
21
0.401103
0
LINE
8
BLACK
6
CONTINUOUS
10
1.99853
20
0.401103
11
2.00359
21
0.410713
0
LINE
8
BLACK
6
CONTINUOUS
10
2.00359
20
0.410713
11
2.00721
21
0.420951
0
LINE
8
BLACK
6
CONTINUOUS
10
2.00721
20
0.420951
11
2.00864
21
0.428237
0
LINE
8
BLACK
6
CONTINUOUS
10
2.00864
20
0.428237
11
2.00927
21
0.431429
0
LINE
8
BLACK
6
CONTINUOUS
10
2.00927
20
0.431429
11
2.00927
21
0.431429
0
LINE
8
BLACK
6
CONTINUOUS
10
2.00927
20
0.431429
11
2.00931
21
0.431605
0
LINE
8
BLACK
6
CONTINUOUS
10
2.00931
20
0.431605
11
2.00966
21
0.43867
0
LINE
8
BLACK
6
CONTINUOUS
10
2.00966
20
0.43867
11
2.00967
21
0.438849
0
LINE
8
BLACK
6
CONTINUOUS
10
2.00967
20
0.438849
11
2.00984
21
0.44227
0
LINE
8
BLACK
6
CONTINUOUS
10
2.00984
20
0.44227
11
2.00984
21
0.44227
0
LINE
8
BLACK
6
CONTINUOUS
10
3.45363
20
2.61763
11
3.45363
21
2.61763
0
LINE
8
BLACK
6
CONTINUOUS
10
3.45363
20
2.61763
11
3.45612
21
2.60743
0
LINE
8
BLACK
6
CONTINUOUS
10
3.45612
20
2.60743
11
3.45617
21
2.60726
0
LINE
8
BLACK
6
CONTINUOUS
10
3.45617
20
2.60726
11
3.46024
21
2.59719
0
LINE
8
BLACK
6
CONTINUOUS
10
3.46024
20
2.59719
11
3.46033
21
2.59704
0
LINE
8
BLACK
6
CONTINUOUS
10
3.46033
20
2.59704
11
3.46033
21
2.59704
0
LINE
8
BLACK
6
CONTINUOUS
10
3.46033
20
2.59704
11
3.46564
21
2.58798
0
LINE
8
BLACK
6
CONTINUOUS
10
3.46564
20
2.58798
11
3.46564
21
2.58798
0
LINE
8
BLACK
6
CONTINUOUS
10
3.46564
20
2.58798
11
3.46573
21
2.58782
0
LINE
8
BLACK
6
CONTINUOUS
10
3.46573
20
2.58782
11
3.46584
21
2.58768
0
LINE
8
BLACK
6
CONTINUOUS
10
3.46584
20
2.58768
11
3.47073
21
2.58157
0
LINE
8
BLACK
6
CONTINUOUS
10
3.47073
20
2.58157
11
3.47251
21
2.57934
0
LINE
8
BLACK
6
CONTINUOUS
10
3.47251
20
2.57934
11
3.47264
21
2.57922
0
LINE
8
BLACK
6
CONTINUOUS
10
3.47264
20
2.57922
11
3.47842
21
2.57382
0
LINE
8
BLACK
6
CONTINUOUS
10
3.47842
20
2.57382
11
3.48045
21
2.57193
0
LINE
8
BLACK
6
CONTINUOUS
10
3.48045
20
2.57193
11
3.48937
21
2.56574
0
LINE
8
BLACK
6
CONTINUOUS
10
3.48937
20
2.56574
11
3.48953
21
2.56566
0
LINE
8
BLACK
6
CONTINUOUS
10
3.48953
20
2.56566
11
3.48953
21
2.56566
0
LINE
8
BLACK
6
CONTINUOUS
10
3.48953
20
2.56566
11
3.49893
21
2.56098
0
LINE
8
BLACK
6
CONTINUOUS
10
3.49893
20
2.56098
11
3.49893
21
2.56098
0
LINE
8
BLACK
6
CONTINUOUS
10
3.49893
20
2.56098
11
3.49909
21
2.5609
0
LINE
8
BLACK
6
CONTINUOUS
10
3.49909
20
2.5609
11
3.50941
21
2.55752
0
LINE
8
BLACK
6
CONTINUOUS
10
3.50941
20
2.55752
11
3.50959
21
2.55749
0
LINE
8
BLACK
6
CONTINUOUS
10
3.50959
20
2.55749
11
3.50959
21
2.55749
0
LINE
8
BLACK
6
CONTINUOUS
10
3.50959
20
2.55749
11
3.51996
21
2.55569
0
LINE
8
BLACK
6
CONTINUOUS
10
3.51996
20
2.55569
11
3.51996
21
2.55569
0
LINE
8
BLACK
6
CONTINUOUS
10
3.51996
20
2.55569
11
3.52011
21
2.55566
0
LINE
8
BLACK
6
CONTINUOUS
10
3.52011
20
2.55566
11
3.52026
21
2.55566
0
LINE
8
BLACK
6
CONTINUOUS
10
3.52026
20
2.55566
11
3.52348
21
2.5555
0
LINE
8
BLACK
6
CONTINUOUS
10
3.52348
20
2.5555
11
3.52348
21
2.5555
0
LINE
8
BLACK
6
CONTINUOUS
10
3.52348
20
2.5555
11
3.52354
21
2.55549
0
LINE
8
BLACK
6
CONTINUOUS
10
3.52354
20
2.55549
11
3.53032
21
2.55549
0
LINE
8
BLACK
6
CONTINUOUS
10
3.53032
20
2.55549
11
3.53041
21
2.5555
0
LINE
8
BLACK
6
CONTINUOUS
10
3.53041
20
2.5555
11
3.53041
21
2.5555
0
LINE
8
BLACK
6
CONTINUOUS
10
3.53041
20
2.5555
11
3.53569
21
2.55588
0
LINE
8
BLACK
6
CONTINUOUS
10
3.53569
20
2.55588
11
3.53839
21
2.55608
0
LINE
8
BLACK
6
CONTINUOUS
10
3.53839
20
2.55608
11
3.53856
21
2.55612
0
LINE
8
BLACK
6
CONTINUOUS
10
3.53856
20
2.55612
11
3.53856
21
2.55612
0
LINE
8
BLACK
6
CONTINUOUS
10
3.53856
20
2.55612
11
3.54882
21
2.55838
0
LINE
8
BLACK
6
CONTINUOUS
10
3.54882
20
2.55838
11
3.54882
21
2.55838
0
LINE
8
BLACK
6
CONTINUOUS
10
3.54882
20
2.55838
11
3.54899
21
2.55842
0
LINE
8
BLACK
6
CONTINUOUS
10
3.54899
20
2.55842
11
3.55915
21
2.56227
0
LINE
8
BLACK
6
CONTINUOUS
10
3.55915
20
2.56227
11
3.56864
21
2.56754
0
LINE
8
BLACK
6
CONTINUOUS
10
3.56864
20
2.56754
11
3.57687
21
2.57382
0
LINE
8
BLACK
6
CONTINUOUS
10
3.57687
20
2.57382
11
3.57713
21
2.57402
0
LINE
8
BLACK
6
CONTINUOUS
10
3.57713
20
2.57402
11
3.57713
21
2.57402
0
LINE
8
BLACK
6
CONTINUOUS
10
3.57713
20
2.57402
11
3.57727
21
2.57413
0
LINE
8
BLACK
6
CONTINUOUS
10
3.57727
20
2.57413
11
3.5774
21
2.57425
0
LINE
8
BLACK
6
CONTINUOUS
10
3.5774
20
2.57425
11
3.58474
21
2.58176
0
LINE
8
BLACK
6
CONTINUOUS
10
3.58474
20
2.58176
11
3.58474
21
2.58176
0
LINE
8
BLACK
6
CONTINUOUS
10
3.58474
20
2.58176
11
3.58486
21
2.58189
0
LINE
8
BLACK
6
CONTINUOUS
10
3.58486
20
2.58189
11
3.58497
21
2.58204
0
LINE
8
BLACK
6
CONTINUOUS
10
3.58497
20
2.58204
11
3.59115
21
2.59052
0
LINE
8
BLACK
6
CONTINUOUS
10
3.59115
20
2.59052
11
3.59115
21
2.59052
0
LINE
8
BLACK
6
CONTINUOUS
10
3.59115
20
2.59052
11
3.59125
21
2.59067
0
LINE
8
BLACK
6
CONTINUOUS
10
3.59125
20
2.59067
11
3.59631
21
2.60028
0
LINE
8
BLACK
6
CONTINUOUS
10
3.59631
20
2.60028
11
3.59992
21
2.61052
0
LINE
8
BLACK
6
CONTINUOUS
10
3.59992
20
2.61052
11
3.60136
21
2.6178
0
LINE
8
BLACK
6
CONTINUOUS
10
3.60136
20
2.6178
11
3.60199
21
2.621
0
LINE
8
BLACK
6
CONTINUOUS
10
3.60199
20
2.621
11
3.60199
21
2.621
0
LINE
8
BLACK
6
CONTINUOUS
10
3.60199
20
2.621
11
3.60202
21
2.62117
0
LINE
8
BLACK
6
CONTINUOUS
10
3.60202
20
2.62117
11
3.60237
21
2.62824
0
LINE
8
BLACK
6
CONTINUOUS
10
3.60237
20
2.62824
11
3.60255
21
2.63184
0
LINE
8
BLACK
6
CONTINUOUS
10
3.60255
20
2.63184
11
3.60255
21
2.63184
0
LINE
8
BLACK
6
CONTINUOUS
10
3.60255
20
2.63184
11
3.60256
21
2.63202
0
LINE
8
BLACK
6
CONTINUOUS
10
3.60256
20
2.63202
11
3.60153
21
2.64283
0
LINE
8
BLACK
6
CONTINUOUS
10
3.60153
20
2.64283
11
3.59984
21
2.64974
0
LINE
8
BLACK
6
CONTINUOUS
10
3.59984
20
2.64974
11
3.59899
21
2.6532
0
LINE
8
BLACK
6
CONTINUOUS
10
3.59899
20
2.6532
11
3.59895
21
2.65337
0
LINE
8
BLACK
6
CONTINUOUS
10
3.59895
20
2.65337
11
3.59487
21
2.66344
0
LINE
8
BLACK
6
CONTINUOUS
10
3.59487
20
2.66344
11
3.59478
21
2.66359
0
LINE
8
BLACK
6
CONTINUOUS
10
3.59478
20
2.66359
11
3.59478
21
2.66359
0
LINE
8
BLACK
6
CONTINUOUS
10
3.59478
20
2.66359
11
3.58948
21
2.67265
0
LINE
8
BLACK
6
CONTINUOUS
10
3.58948
20
2.67265
11
3.58948
21
2.67265
0
LINE
8
BLACK
6
CONTINUOUS
10
3.58948
20
2.67265
11
3.58939
21
2.67281
0
LINE
8
BLACK
6
CONTINUOUS
10
3.58939
20
2.67281
11
3.5847
21
2.67867
0
LINE
8
BLACK
6
CONTINUOUS
10
3.5847
20
2.67867
11
3.58272
21
2.68115
0
LINE
8
BLACK
6
CONTINUOUS
10
3.58272
20
2.68115
11
3.58272
21
2.68115
0
LINE
8
BLACK
6
CONTINUOUS
10
3.58272
20
2.68115
11
3.58261
21
2.68129
0
LINE
8
BLACK
6
CONTINUOUS
10
3.58261
20
2.68129
11
3.57501
21
2.68838
0
LINE
8
BLACK
6
CONTINUOUS
10
3.57501
20
2.68838
11
3.5748
21
2.68858
0
LINE
8
BLACK
6
CONTINUOUS
10
3.5748
20
2.68858
11
3.5748
21
2.68858
0
LINE
8
BLACK
6
CONTINUOUS
10
3.5748
20
2.68858
11
3.57467
21
2.6887
0
LINE
8
BLACK
6
CONTINUOUS
10
3.57467
20
2.6887
11
3.56575
21
2.69489
0
LINE
8
BLACK
6
CONTINUOUS
10
3.56575
20
2.69489
11
3.56559
21
2.69497
0
LINE
8
BLACK
6
CONTINUOUS
10
3.56559
20
2.69497
11
3.55619
21
2.69965
0
LINE
8
BLACK
6
CONTINUOUS
10
3.55619
20
2.69965
11
3.55619
21
2.69965
0
LINE
8
BLACK
6
CONTINUOUS
10
3.55619
20
2.69965
11
3.55603
21
2.69973
0
LINE
8
BLACK
6
CONTINUOUS
10
3.55603
20
2.69973
11
3.54571
21
2.70311
0
LINE
8
BLACK
6
CONTINUOUS
10
3.54571
20
2.70311
11
3.54553
21
2.70314
0
LINE
8
BLACK
6
CONTINUOUS
10
3.54553
20
2.70314
11
3.53516
21
2.70494
0
LINE
8
BLACK
6
CONTINUOUS
10
3.53516
20
2.70494
11
3.53516
21
2.70494
0
LINE
8
BLACK
6
CONTINUOUS
10
3.53516
20
2.70494
11
3.53501
21
2.70497
0
LINE
8
BLACK
6
CONTINUOUS
10
3.53501
20
2.70497
11
3.53461
21
2.70499
0
LINE
8
BLACK
6
CONTINUOUS
10
3.53461
20
2.70499
11
3.53164
21
2.70513
0
LINE
8
BLACK
6
CONTINUOUS
10
3.53164
20
2.70513
11
3.53164
21
2.70513
0
LINE
8
BLACK
6
CONTINUOUS
10
3.53164
20
2.70513
11
3.53158
21
2.70514
0
LINE
8
BLACK
6
CONTINUOUS
10
3.53158
20
2.70514
11
3.5248
21
2.70514
0
LINE
8
BLACK
6
CONTINUOUS
10
3.5248
20
2.70514
11
3.52471
21
2.70513
0
LINE
8
BLACK
6
CONTINUOUS
10
3.52471
20
2.70513
11
3.52471
21
2.70513
0
LINE
8
BLACK
6
CONTINUOUS
10
3.52471
20
2.70513
11
3.51973
21
2.70477
0
LINE
8
BLACK
6
CONTINUOUS
10
3.51973
20
2.70477
11
3.51673
21
2.70455
0
LINE
8
BLACK
6
CONTINUOUS
10
3.51673
20
2.70455
11
3.51655
21
2.70451
0
LINE
8
BLACK
6
CONTINUOUS
10
3.51655
20
2.70451
11
3.51655
21
2.70451
0
LINE
8
BLACK
6
CONTINUOUS
10
3.51655
20
2.70451
11
3.5063
21
2.70225
0
LINE
8
BLACK
6
CONTINUOUS
10
3.5063
20
2.70225
11
3.5063
21
2.70225
0
LINE
8
BLACK
6
CONTINUOUS
10
3.5063
20
2.70225
11
3.50613
21
2.70221
0
LINE
8
BLACK
6
CONTINUOUS
10
3.50613
20
2.70221
11
3.49597
21
2.69836
0
LINE
8
BLACK
6
CONTINUOUS
10
3.49597
20
2.69836
11
3.49581
21
2.69828
0
LINE
8
BLACK
6
CONTINUOUS
10
3.49581
20
2.69828
11
3.49581
21
2.69828
0
LINE
8
BLACK
6
CONTINUOUS
10
3.49581
20
2.69828
11
3.48936
21
2.69469
0
LINE
8
BLACK
6
CONTINUOUS
10
3.48936
20
2.69469
11
3.48648
21
2.69309
0
LINE
8
BLACK
6
CONTINUOUS
10
3.48648
20
2.69309
11
3.47785
21
2.6865
0
LINE
8
BLACK
6
CONTINUOUS
10
3.47785
20
2.6865
11
3.47772
21
2.68638
0
LINE
8
BLACK
6
CONTINUOUS
10
3.47772
20
2.68638
11
3.47772
21
2.68638
0
LINE
8
BLACK
6
CONTINUOUS
10
3.47772
20
2.68638
11
3.47038
21
2.67887
0
LINE
8
BLACK
6
CONTINUOUS
10
3.47038
20
2.67887
11
3.47038
21
2.67887
0
LINE
8
BLACK
6
CONTINUOUS
10
3.47038
20
2.67887
11
3.47026
21
2.67874
0
LINE
8
BLACK
6
CONTINUOUS
10
3.47026
20
2.67874
11
3.47015
21
2.67859
0
LINE
8
BLACK
6
CONTINUOUS
10
3.47015
20
2.67859
11
3.47015
21
2.67859
0
LINE
8
BLACK
6
CONTINUOUS
10
3.47015
20
2.67859
11
3.4659
21
2.67275
0
LINE
8
BLACK
6
CONTINUOUS
10
3.4659
20
2.67275
11
3.46387
21
2.66996
0
LINE
8
BLACK
6
CONTINUOUS
10
3.46387
20
2.66996
11
3.45881
21
2.66035
0
LINE
8
BLACK
6
CONTINUOUS
10
3.45881
20
2.66035
11
3.4552
21
2.65011
0
LINE
8
BLACK
6
CONTINUOUS
10
3.4552
20
2.65011
11
3.45516
21
2.64994
0
LINE
8
BLACK
6
CONTINUOUS
10
3.45516
20
2.64994
11
3.45372
21
2.64265
0
LINE
8
BLACK
6
CONTINUOUS
10
3.45372
20
2.64265
11
3.4531
21
2.63946
0
LINE
8
BLACK
6
CONTINUOUS
10
3.4531
20
2.63946
11
3.45309
21
2.63928
0
LINE
8
BLACK
6
CONTINUOUS
10
3.45309
20
2.63928
11
3.45309
21
2.63928
0
LINE
8
BLACK
6
CONTINUOUS
10
3.45309
20
2.63928
11
3.45272
21
2.63182
0
LINE
8
BLACK
6
CONTINUOUS
10
3.45272
20
2.63182
11
3.45256
21
2.62861
0
LINE
8
BLACK
6
CONTINUOUS
10
3.45256
20
2.62861
11
3.45359
21
2.6178
0
LINE
8
BLACK
6
CONTINUOUS
10
3.45359
20
2.6178
11
3.45363
21
2.61763
0
LINE
8
BLACK
6
CONTINUOUS
10
0.341228
20
0.428062
11
0.341228
21
0.428062
0
LINE
8
BLACK
6
CONTINUOUS
10
0.341228
20
0.428062
11
0.343723
21
0.417864
0
LINE
8
BLACK
6
CONTINUOUS
10
0.343723
20
0.417864
11
0.343766
21
0.417689
0
LINE
8
BLACK
6
CONTINUOUS
10
0.343766
20
0.417689
11
0.347842
21
0.407625
0
LINE
8
BLACK
6
CONTINUOUS
10
0.347842
20
0.407625
11
0.347933
21
0.40747
0
LINE
8
BLACK
6
CONTINUOUS
10
0.347933
20
0.40747
11
0.347933
21
0.40747
0
LINE
8
BLACK
6
CONTINUOUS
10
0.347933
20
0.40747
11
0.353238
21
0.398409
0
LINE
8
BLACK
6
CONTINUOUS
10
0.353238
20
0.398409
11
0.353239
21
0.398409
0
LINE
8
BLACK
6
CONTINUOUS
10
0.353239
20
0.398409
11
0.353329
21
0.398255
0
LINE
8
BLACK
6
CONTINUOUS
10
0.353329
20
0.398255
11
0.353441
21
0.398114
0
LINE
8
BLACK
6
CONTINUOUS
10
0.353441
20
0.398114
11
0.358332
21
0.391998
0
LINE
8
BLACK
6
CONTINUOUS
10
0.358332
20
0.391998
11
0.360111
21
0.389774
0
LINE
8
BLACK
6
CONTINUOUS
10
0.360111
20
0.389774
11
0.360242
21
0.389651
0
LINE
8
BLACK
6
CONTINUOUS
10
0.360242
20
0.389651
11
0.366021
21
0.384253
0
LINE
8
BLACK
6
CONTINUOUS
10
0.366021
20
0.384253
11
0.368046
21
0.382362
0
LINE
8
BLACK
6
CONTINUOUS
10
0.368046
20
0.382362
11
0.376968
21
0.376173
0
LINE
8
BLACK
6
CONTINUOUS
10
0.376968
20
0.376173
11
0.377128
21
0.376093
0
LINE
8
BLACK
6
CONTINUOUS
10
0.377128
20
0.376093
11
0.377128
21
0.376093
0
LINE
8
BLACK
6
CONTINUOUS
10
0.377128
20
0.376093
11
0.386529
21
0.371416
0
LINE
8
BLACK
6
CONTINUOUS
10
0.386529
20
0.371416
11
0.386529
21
0.371416
0
LINE
8
BLACK
6
CONTINUOUS
10
0.386529
20
0.371416
11
0.38669
21
0.371336
0
LINE
8
BLACK
6
CONTINUOUS
10
0.38669
20
0.371336
11
0.397008
21
0.367954
0
LINE
8
BLACK
6
CONTINUOUS
10
0.397008
20
0.367954
11
0.397185
21
0.367923
0
LINE
8
BLACK
6
CONTINUOUS
10
0.397185
20
0.367923
11
0.397185
21
0.367923
0
LINE
8
BLACK
6
CONTINUOUS
10
0.397185
20
0.367923
11
0.407557
21
0.366122
0
LINE
8
BLACK
6
CONTINUOUS
10
0.407557
20
0.366122
11
0.407558
21
0.366122
0
LINE
8
BLACK
6
CONTINUOUS
10
0.407558
20
0.366122
11
0.407706
21
0.366096
0
LINE
8
BLACK
6
CONTINUOUS
10
0.407706
20
0.366096
11
0.407857
21
0.366088
0
LINE
8
BLACK
6
CONTINUOUS
10
0.407857
20
0.366088
11
0.411075
21
0.365928
0
LINE
8
BLACK
6
CONTINUOUS
10
0.411075
20
0.365928
11
0.411075
21
0.365928
0
LINE
8
BLACK
6
CONTINUOUS
10
0.411075
20
0.365928
11
0.411137
21
0.365925
0
LINE
8
BLACK
6
CONTINUOUS
10
0.411137
20
0.365925
11
0.417916
21
0.365925
0
LINE
8
BLACK
6
CONTINUOUS
10
0.417916
20
0.365925
11
0.418005
21
0.365932
0
LINE
8
BLACK
6
CONTINUOUS
10
0.418005
20
0.365932
11
0.418006
21
0.365932
0
LINE
8
BLACK
6
CONTINUOUS
10
0.418006
20
0.365932
11
0.423291
21
0.366315
0
LINE
8
BLACK
6
CONTINUOUS
10
0.423291
20
0.366315
11
0.425988
21
0.366511
0
LINE
8
BLACK
6
CONTINUOUS
10
0.425988
20
0.366511
11
0.426163
21
0.36655
0
LINE
8
BLACK
6
CONTINUOUS
10
0.426163
20
0.36655
11
0.426163
21
0.36655
0
LINE
8
BLACK
6
CONTINUOUS
10
0.426163
20
0.36655
11
0.436415
21
0.368813
0
LINE
8
BLACK
6
CONTINUOUS
10
0.436415
20
0.368813
11
0.436415
21
0.368813
0
LINE
8
BLACK
6
CONTINUOUS
10
0.436415
20
0.368813
11
0.436591
21
0.368852
0
LINE
8
BLACK
6
CONTINUOUS
10
0.436591
20
0.368852
11
0.446745
21
0.372699
0
LINE
8
BLACK
6
CONTINUOUS
10
0.446745
20
0.372699
11
0.456237
21
0.377971
0
LINE
8
BLACK
6
CONTINUOUS
10
0.456237
20
0.377971
11
0.464468
21
0.384253
0
LINE
8
BLACK
6
CONTINUOUS
10
0.464468
20
0.384253
11
0.464726
21
0.38445
0
LINE
8
BLACK
6
CONTINUOUS
10
0.464726
20
0.38445
11
0.464726
21
0.38445
0
LINE
8
BLACK
6
CONTINUOUS
10
0.464726
20
0.38445
11
0.464869
21
0.384559
0
LINE
8
BLACK
6
CONTINUOUS
10
0.464869
20
0.384559
11
0.464995
21
0.384688
0
LINE
8
BLACK
6
CONTINUOUS
10
0.464995
20
0.384688
11
0.472334
21
0.392195
0
LINE
8
BLACK
6
CONTINUOUS
10
0.472334
20
0.392195
11
0.472334
21
0.392195
0
LINE
8
BLACK
6
CONTINUOUS
10
0.472334
20
0.392195
11
0.47246
21
0.392324
0
LINE
8
BLACK
6
CONTINUOUS
10
0.47246
20
0.392324
11
0.472566
21
0.392469
0
LINE
8
BLACK
6
CONTINUOUS
10
0.472566
20
0.392469
11
0.478744
21
0.400958
0
LINE
8
BLACK
6
CONTINUOUS
10
0.478744
20
0.400958
11
0.478744
21
0.400958
0
LINE
8
BLACK
6
CONTINUOUS
10
0.478744
20
0.400958
11
0.47885
21
0.401103
0
LINE
8
BLACK
6
CONTINUOUS
10
0.47885
20
0.401103
11
0.483906
21
0.410713
0
LINE
8
BLACK
6
CONTINUOUS
10
0.483906
20
0.410713
11
0.487521
21
0.420951
0
LINE
8
BLACK
6
CONTINUOUS
10
0.487521
20
0.420951
11
0.488957
21
0.428237
0
LINE
8
BLACK
6
CONTINUOUS
10
0.488957
20
0.428237
11
0.489587
21
0.431429
0
LINE
8
BLACK
6
CONTINUOUS
10
0.489587
20
0.431429
11
0.489587
21
0.431429
0
LINE
8
BLACK
6
CONTINUOUS
10
0.489587
20
0.431429
11
0.489621
21
0.431605
0
LINE
8
BLACK
6
CONTINUOUS
10
0.489621
20
0.431605
11
0.489973
21
0.43867
0
LINE
8
BLACK
6
CONTINUOUS
10
0.489973
20
0.43867
11
0.489992
21
0.439046
0
LINE
8
BLACK
6
CONTINUOUS
10
0.489992
20
0.439046
11
0.490152
21
0.44227
0
LINE
8
BLACK
6
CONTINUOUS
10
0.490152
20
0.44227
11
0.490152
21
0.44227
0
LINE
8
BLACK
6
CONTINUOUS
10
0.490152
20
0.44227
11
0.490161
21
0.44245
0
LINE
8
BLACK
6
CONTINUOUS
10
0.490161
20
0.44245
11
0.48913
21
0.45326
0
LINE
8
BLACK
6
CONTINUOUS
10
0.48913
20
0.45326
11
0.487438
21
0.460172
0
LINE
8
BLACK
6
CONTINUOUS
10
0.487438
20
0.460172
11
0.486592
21
0.463632
0
LINE
8
BLACK
6
CONTINUOUS
10
0.486592
20
0.463632
11
0.486549
21
0.463807
0
LINE
8
BLACK
6
CONTINUOUS
10
0.486549
20
0.463807
11
0.482472
21
0.473871
0
LINE
8
BLACK
6
CONTINUOUS
10
0.482472
20
0.473871
11
0.482382
21
0.474026
0
LINE
8
BLACK
6
CONTINUOUS
10
0.482382
20
0.474026
11
0.482382
21
0.474026
0
LINE
8
BLACK
6
CONTINUOUS
10
0.482382
20
0.474026
11
0.477077
21
0.483087
0
LINE
8
BLACK
6
CONTINUOUS
10
0.477077
20
0.483087
11
0.477076
21
0.483087
0
LINE
8
BLACK
6
CONTINUOUS
10
0.477076
20
0.483087
11
0.476986
21
0.483242
0
LINE
8
BLACK
6
CONTINUOUS
10
0.476986
20
0.483242
11
0.472298
21
0.489104
0
LINE
8
BLACK
6
CONTINUOUS
10
0.472298
20
0.489104
11
0.470316
21
0.491581
0
LINE
8
BLACK
6
CONTINUOUS
10
0.470316
20
0.491581
11
0.470316
21
0.491581
0
LINE
8
BLACK
6
CONTINUOUS
10
0.470316
20
0.491581
11
0.470204
21
0.491722
0
LINE
8
BLACK
6
CONTINUOUS
10
0.470204
20
0.491722
11
0.462611
21
0.498815
0
LINE
8
BLACK
6
CONTINUOUS
10
0.462611
20
0.498815
11
0.4624
21
0.499011
0
LINE
8
BLACK
6
CONTINUOUS
10
0.4624
20
0.499011
11
0.4624
21
0.499012
0
LINE
8
BLACK
6
CONTINUOUS
10
0.4624
20
0.499012
11
0.462269
21
0.499134
0
LINE
8
BLACK
6
CONTINUOUS
10
0.462269
20
0.499134
11
0.453347
21
0.505323
0
LINE
8
BLACK
6
CONTINUOUS
10
0.453347
20
0.505323
11
0.453187
21
0.505403
0
LINE
8
BLACK
6
CONTINUOUS
10
0.453187
20
0.505403
11
0.443786
21
0.51008
0
LINE
8
BLACK
6
CONTINUOUS
10
0.443786
20
0.51008
11
0.443786
21
0.51008
0
LINE
8
BLACK
6
CONTINUOUS
10
0.443786
20
0.51008
11
0.443625
21
0.51016
0
LINE
8
BLACK
6
CONTINUOUS
10
0.443625
20
0.51016
11
0.433307
21
0.513543
0
LINE
8
BLACK
6
CONTINUOUS
10
0.433307
20
0.513543
11
0.43313
21
0.513573
0
LINE
8
BLACK
6
CONTINUOUS
10
0.43313
20
0.513573
11
0.422758
21
0.515374
0
LINE
8
BLACK
6
CONTINUOUS
10
0.422758
20
0.515374
11
0.422757
21
0.515374
0
LINE
8
BLACK
6
CONTINUOUS
10
0.422757
20
0.515374
11
0.422609
21
0.5154
0
LINE
8
BLACK
6
CONTINUOUS
10
0.422609
20
0.5154
11
0.422206
21
0.51542
0
LINE
8
BLACK
6
CONTINUOUS
10
0.422206
20
0.51542
11
0.41924
21
0.515568
0
LINE
8
BLACK
6
CONTINUOUS
10
0.41924
20
0.515568
11
0.41924
21
0.515568
0
LINE
8
BLACK
6
CONTINUOUS
10
0.41924
20
0.515568
11
0.419178
21
0.515571
0
LINE
8
BLACK
6
CONTINUOUS
10
0.419178
20
0.515571
11
0.412399
21
0.515571
0
LINE
8
BLACK
6
CONTINUOUS
10
0.412399
20
0.515571
11
0.41231
21
0.515564
0
LINE
8
BLACK
6
CONTINUOUS
10
0.41231
20
0.515564
11
0.412309
21
0.515564
0
LINE
8
BLACK
6
CONTINUOUS
10
0.412309
20
0.515564
11
0.407332
21
0.515203
0
LINE
8
BLACK
6
CONTINUOUS
10
0.407332
20
0.515203
11
0.404327
21
0.514985
0
LINE
8
BLACK
6
CONTINUOUS
10
0.404327
20
0.514985
11
0.404152
21
0.514946
0
LINE
8
BLACK
6
CONTINUOUS
10
0.404152
20
0.514946
11
0.404152
21
0.514946
0
LINE
8
BLACK
6
CONTINUOUS
10
0.404152
20
0.514946
11
0.3939
21
0.512683
0
LINE
8
BLACK
6
CONTINUOUS
10
0.3939
20
0.512683
11
0.3939
21
0.512683
0
LINE
8
BLACK
6
CONTINUOUS
10
0.3939
20
0.512683
11
0.393724
21
0.512644
0
LINE
8
BLACK
6
CONTINUOUS
10
0.393724
20
0.512644
11
0.38357
21
0.508797
0
LINE
8
BLACK
6
CONTINUOUS
10
0.38357
20
0.508797
11
0.383413
21
0.50871
0
LINE
8
BLACK
6
CONTINUOUS
10
0.383413
20
0.50871
11
0.383413
21
0.50871
0
LINE
8
BLACK
6
CONTINUOUS
10
0.383413
20
0.50871
11
0.376962
21
0.505127
0
LINE
8
BLACK
6
CONTINUOUS
10
0.376962
20
0.505127
11
0.374078
21
0.503525
0
LINE
8
BLACK
6
CONTINUOUS
10
0.374078
20
0.503525
11
0.365446
21
0.496937
0
LINE
8
BLACK
6
CONTINUOUS
10
0.365446
20
0.496937
11
0.36532
21
0.496808
0
LINE
8
BLACK
6
CONTINUOUS
10
0.36532
20
0.496808
11
0.36532
21
0.496808
0
LINE
8
BLACK
6
CONTINUOUS
10
0.36532
20
0.496808
11
0.357981
21
0.489301
0
LINE
8
BLACK
6
CONTINUOUS
10
0.357981
20
0.489301
11
0.357981
21
0.489301
0
LINE
8
BLACK
6
CONTINUOUS
10
0.357981
20
0.489301
11
0.357855
21
0.489172
0
LINE
8
BLACK
6
CONTINUOUS
10
0.357855
20
0.489172
11
0.357749
21
0.489027
0
LINE
8
BLACK
6
CONTINUOUS
10
0.357749
20
0.489027
11
0.357749
21
0.489027
0
LINE
8
BLACK
6
CONTINUOUS
10
0.357749
20
0.489027
11
0.353497
21
0.483185
0
LINE
8
BLACK
6
CONTINUOUS
10
0.353497
20
0.483185
11
0.351465
21
0.480393
0
LINE
8
BLACK
6
CONTINUOUS
10
0.351465
20
0.480393
11
0.346409
21
0.470783
0
LINE
8
BLACK
6
CONTINUOUS
10
0.346409
20
0.470783
11
0.342794
21
0.460545
0
LINE
8
BLACK
6
CONTINUOUS
10
0.342794
20
0.460545
11
0.342759
21
0.460369
0
LINE
8
BLACK
6
CONTINUOUS
10
0.342759
20
0.460369
11
0.341322
21
0.45308
0
LINE
8
BLACK
6
CONTINUOUS
10
0.341322
20
0.45308
11
0.340694
21
0.449891
0
LINE
8
BLACK
6
CONTINUOUS
10
0.340694
20
0.449891
11
0.340685
21
0.449712
0
LINE
8
BLACK
6
CONTINUOUS
10
0.340685
20
0.449712
11
0.340685
21
0.449712
0
LINE
8
BLACK
6
CONTINUOUS
10
0.340685
20
0.449712
11
0.340313
21
0.442253
0
LINE
8
BLACK
6
CONTINUOUS
10
0.340313
20
0.442253
11
0.340154
21
0.439046
0
LINE
8
BLACK
6
CONTINUOUS
10
0.340154
20
0.439046
11
0.341185
21
0.428237
0
LINE
8
BLACK
6
CONTINUOUS
10
0.341185
20
0.428237
11
0.341228
21
0.428062
0
LINE
8
BLACK
6
CONTINUOUS
10
1.10107
20
0.428062
11
1.10107
21
0.428062
0
LINE
8
BLACK
6
CONTINUOUS
10
1.10107
20
0.428062
11
1.10357
21
0.417864
0
LINE
8
BLACK
6
CONTINUOUS
10
1.10357
20
0.417864
11
1.10361
21
0.417689
0
LINE
8
BLACK
6
CONTINUOUS
10
1.10361
20
0.417689
11
1.10769
21
0.407625
0
LINE
8
BLACK
6
CONTINUOUS
10
1.10769
20
0.407625
11
1.10778
21
0.40747
0
LINE
8
BLACK
6
CONTINUOUS
10
1.10778
20
0.40747
11
1.10778
21
0.40747
0
LINE
8
BLACK
6
CONTINUOUS
10
1.10778
20
0.40747
11
1.11308
21
0.398409
0
LINE
8
BLACK
6
CONTINUOUS
10
1.11308
20
0.398409
11
1.11308
21
0.398409
0
LINE
8
BLACK
6
CONTINUOUS
10
1.11308
20
0.398409
11
1.11317
21
0.398255
0
LINE
8
BLACK
6
CONTINUOUS
10
1.11317
20
0.398255
11
1.11328
21
0.398114
0
LINE
8
BLACK
6
CONTINUOUS
10
1.11328
20
0.398114
11
1.11817
21
0.391998
0
LINE
8
BLACK
6
CONTINUOUS
10
1.11817
20
0.391998
11
1.11995
21
0.389774
0
LINE
8
BLACK
6
CONTINUOUS
10
1.11995
20
0.389774
11
1.12008
21
0.389651
0
LINE
8
BLACK
6
CONTINUOUS
10
1.12008
20
0.389651
11
1.12586
21
0.384253
0
LINE
8
BLACK
6
CONTINUOUS
10
1.12586
20
0.384253
11
1.12789
21
0.382362
0
LINE
8
BLACK
6
CONTINUOUS
10
1.12789
20
0.382362
11
1.13681
21
0.376173
0
LINE
8
BLACK
6
CONTINUOUS
10
1.13681
20
0.376173
11
1.13697
21
0.376093
0
LINE
8
BLACK
6
CONTINUOUS
10
1.13697
20
0.376093
11
1.13697
21
0.376093
0
LINE
8
BLACK
6
CONTINUOUS
10
1.13697
20
0.376093
11
1.14637
21
0.371416
0
LINE
8
BLACK
6
CONTINUOUS
10
1.14637
20
0.371416
11
1.14637
21
0.371416
0
LINE
8
BLACK
6
CONTINUOUS
10
1.14637
20
0.371416
11
1.14653
21
0.371336
0
LINE
8
BLACK
6
CONTINUOUS
10
1.14653
20
0.371336
11
1.15685
21
0.367954
0
LINE
8
BLACK
6
CONTINUOUS
10
1.15685
20
0.367954
11
1.15703
21
0.367923
0
LINE
8
BLACK
6
CONTINUOUS
10
1.15703
20
0.367923
11
1.15703
21
0.367923
0
LINE
8
BLACK
6
CONTINUOUS
10
1.15703
20
0.367923
11
1.1674
21
0.366122
0
LINE
8
BLACK
6
CONTINUOUS
10
1.1674
20
0.366122
11
1.1674
21
0.366122
0
LINE
8
BLACK
6
CONTINUOUS
10
1.1674
20
0.366122
11
1.16755
21
0.366096
0
LINE
8
BLACK
6
CONTINUOUS
10
1.16755
20
0.366096
11
1.1677
21
0.366088
0
LINE
8
BLACK
6
CONTINUOUS
10
1.1677
20
0.366088
11
1.17092
21
0.365928
0
LINE
8
BLACK
6
CONTINUOUS
10
1.17092
20
0.365928
11
1.17092
21
0.365928
0
LINE
8
BLACK
6
CONTINUOUS
10
1.17092
20
0.365928
11
1.17098
21
0.365925
0
LINE
8
BLACK
6
CONTINUOUS
10
1.17098
20
0.365925
11
1.17776
21
0.365925
0
LINE
8
BLACK
6
CONTINUOUS
10
1.17776
20
0.365925
11
1.17785
21
0.365932
0
LINE
8
BLACK
6
CONTINUOUS
10
1.17785
20
0.365932
11
1.17785
21
0.365932
0
LINE
8
BLACK
6
CONTINUOUS
10
1.17785
20
0.365932
11
1.18313
21
0.366315
0
LINE
8
BLACK
6
CONTINUOUS
10
1.18313
20
0.366315
11
1.18583
21
0.366511
0
LINE
8
BLACK
6
CONTINUOUS
10
1.18583
20
0.366511
11
1.18601
21
0.36655
0
LINE
8
BLACK
6
CONTINUOUS
10
1.18601
20
0.36655
11
1.18601
21
0.36655
0
LINE
8
BLACK
6
CONTINUOUS
10
1.18601
20
0.36655
11
1.19626
21
0.368813
0
LINE
8
BLACK
6
CONTINUOUS
10
1.19626
20
0.368813
11
1.19626
21
0.368813
0
LINE
8
BLACK
6
CONTINUOUS
10
1.19626
20
0.368813
11
1.19643
21
0.368852
0
LINE
8
BLACK
6
CONTINUOUS
10
1.19643
20
0.368852
11
1.20659
21
0.372699
0
LINE
8
BLACK
6
CONTINUOUS
10
1.20659
20
0.372699
11
1.21608
21
0.377971
0
LINE
8
BLACK
6
CONTINUOUS
10
1.21608
20
0.377971
11
1.22431
21
0.384253
0
LINE
8
BLACK
6
CONTINUOUS
10
1.22431
20
0.384253
11
1.22457
21
0.38445
0
LINE
8
BLACK
6
CONTINUOUS
10
1.22457
20
0.38445
11
1.22457
21
0.38445
0
LINE
8
BLACK
6
CONTINUOUS
10
1.22457
20
0.38445
11
1.22471
21
0.384559
0
LINE
8
BLACK
6
CONTINUOUS
10
1.22471
20
0.384559
11
1.22484
21
0.384688
0
LINE
8
BLACK
6
CONTINUOUS
10
1.22484
20
0.384688
11
1.23218
21
0.392195
0
LINE
8
BLACK
6
CONTINUOUS
10
1.23218
20
0.392195
11
1.23218
21
0.392195
0
LINE
8
BLACK
6
CONTINUOUS
10
1.23218
20
0.392195
11
1.2323
21
0.392324
0
LINE
8
BLACK
6
CONTINUOUS
10
1.2323
20
0.392324
11
1.23241
21
0.392469
0
LINE
8
BLACK
6
CONTINUOUS
10
1.23241
20
0.392469
11
1.23859
21
0.400958
0
LINE
8
BLACK
6
CONTINUOUS
10
1.23859
20
0.400958
11
1.23859
21
0.400958
0
LINE
8
BLACK
6
CONTINUOUS
10
1.23859
20
0.400958
11
1.23869
21
0.401103
0
LINE
8
BLACK
6
CONTINUOUS
10
1.23869
20
0.401103
11
1.24375
21
0.410713
0
LINE
8
BLACK
6
CONTINUOUS
10
1.24375
20
0.410713
11
1.24736
21
0.420951
0
LINE
8
BLACK
6
CONTINUOUS
10
1.24736
20
0.420951
11
1.2488
21
0.428237
0
LINE
8
BLACK
6
CONTINUOUS
10
1.2488
20
0.428237
11
1.24943
21
0.431429
0
LINE
8
BLACK
6
CONTINUOUS
10
1.24943
20
0.431429
11
1.24943
21
0.431429
0
LINE
8
BLACK
6
CONTINUOUS
10
1.24943
20
0.431429
11
1.24946
21
0.431605
0
LINE
8
BLACK
6
CONTINUOUS
10
1.24946
20
0.431605
11
1.24982
21
0.43867
0
LINE
8
BLACK
6
CONTINUOUS
10
1.24982
20
0.43867
11
1.24983
21
0.439046
0
LINE
8
BLACK
6
CONTINUOUS
10
1.24983
20
0.439046
11
1.24999
21
0.44227
0
LINE
8
BLACK
6
CONTINUOUS
10
1.24999
20
0.44227
11
1.24999
21
0.44227
0
LINE
8
BLACK
6
CONTINUOUS
10
1.24999
20
0.44227
11
1.25
21
0.44245
0
LINE
8
BLACK
6
CONTINUOUS
10
1.25
20
0.44245
11
1.24897
21
0.45326
0
LINE
8
BLACK
6
CONTINUOUS
10
1.24897
20
0.45326
11
1.24728
21
0.460172
0
LINE
8
BLACK
6
CONTINUOUS
10
1.24728
20
0.460172
11
1.24643
21
0.463632
0
LINE
8
BLACK
6
CONTINUOUS
10
1.24643
20
0.463632
11
1.24639
21
0.463807
0
LINE
8
BLACK
6
CONTINUOUS
10
1.24639
20
0.463807
11
1.24232
21
0.473871
0
LINE
8
BLACK
6
CONTINUOUS
10
1.24232
20
0.473871
11
1.24222
21
0.474026
0
LINE
8
BLACK
6
CONTINUOUS
10
1.24222
20
0.474026
11
1.24222
21
0.474026
0
LINE
8
BLACK
6
CONTINUOUS
10
1.24222
20
0.474026
11
1.23692
21
0.483087
0
LINE
8
BLACK
6
CONTINUOUS
10
1.23692
20
0.483087
11
1.23692
21
0.483087
0
LINE
8
BLACK
6
CONTINUOUS
10
1.23692
20
0.483087
11
1.23683
21
0.483242
0
LINE
8
BLACK
6
CONTINUOUS
10
1.23683
20
0.483242
11
1.23214
21
0.489104
0
LINE
8
BLACK
6
CONTINUOUS
10
1.23214
20
0.489104
11
1.23016
21
0.491581
0
LINE
8
BLACK
6
CONTINUOUS
10
1.23016
20
0.491581
11
1.23016
21
0.491581
0
LINE
8
BLACK
6
CONTINUOUS
10
1.23016
20
0.491581
11
1.23005
21
0.491722
0
LINE
8
BLACK
6
CONTINUOUS
10
1.23005
20
0.491722
11
1.22245
21
0.498815
0
LINE
8
BLACK
6
CONTINUOUS
10
1.22245
20
0.498815
11
1.22224
21
0.499011
0
LINE
8
BLACK
6
CONTINUOUS
10
1.22224
20
0.499011
11
1.22224
21
0.499012
0
LINE
8
BLACK
6
CONTINUOUS
10
1.22224
20
0.499012
11
1.22211
21
0.499134
0
LINE
8
BLACK
6
CONTINUOUS
10
1.22211
20
0.499134
11
1.21319
21
0.505323
0
LINE
8
BLACK
6
CONTINUOUS
10
1.21319
20
0.505323
11
1.21303
21
0.505403
0
LINE
8
BLACK
6
CONTINUOUS
10
1.21303
20
0.505403
11
1.20363
21
0.51008
0
LINE
8
BLACK
6
CONTINUOUS
10
1.20363
20
0.51008
11
1.20363
21
0.51008
0
LINE
8
BLACK
6
CONTINUOUS
10
1.20363
20
0.51008
11
1.20347
21
0.51016
0
LINE
8
BLACK
6
CONTINUOUS
10
1.20347
20
0.51016
11
1.19315
21
0.513543
0
LINE
8
BLACK
6
CONTINUOUS
10
1.19315
20
0.513543
11
1.19297
21
0.513573
0
LINE
8
BLACK
6
CONTINUOUS
10
1.19297
20
0.513573
11
1.1826
21
0.515374
0
LINE
8
BLACK
6
CONTINUOUS
10
1.1826
20
0.515374
11
1.1826
21
0.515374
0
LINE
8
BLACK
6
CONTINUOUS
10
1.1826
20
0.515374
11
1.18245
21
0.5154
0
LINE
8
BLACK
6
CONTINUOUS
10
1.18245
20
0.5154
11
1.18205
21
0.51542
0
LINE
8
BLACK
6
CONTINUOUS
10
1.18205
20
0.51542
11
1.17908
21
0.515568
0
LINE
8
BLACK
6
CONTINUOUS
10
1.17908
20
0.515568
11
1.17908
21
0.515568
0
LINE
8
BLACK
6
CONTINUOUS
10
1.17908
20
0.515568
11
1.17902
21
0.515571
0
LINE
8
BLACK
6
CONTINUOUS
10
1.17902
20
0.515571
11
1.17224
21
0.515571
0
LINE
8
BLACK
6
CONTINUOUS
10
1.17224
20
0.515571
11
1.17215
21
0.515564
0
LINE
8
BLACK
6
CONTINUOUS
10
1.17215
20
0.515564
11
1.17215
21
0.515564
0
LINE
8
BLACK
6
CONTINUOUS
10
1.17215
20
0.515564
11
1.16717
21
0.515203
0
LINE
8
BLACK
6
CONTINUOUS
10
1.16717
20
0.515203
11
1.16417
21
0.514985
0
LINE
8
BLACK
6
CONTINUOUS
10
1.16417
20
0.514985
11
1.16399
21
0.514946
0
LINE
8
BLACK
6
CONTINUOUS
10
1.16399
20
0.514946
11
1.16399
21
0.514946
0
LINE
8
BLACK
6
CONTINUOUS
10
1.16399
20
0.514946
11
1.15374
21
0.512683
0
LINE
8
BLACK
6
CONTINUOUS
10
1.15374
20
0.512683
11
1.15374
21
0.512683
0
LINE
8
BLACK
6
CONTINUOUS
10
1.15374
20
0.512683
11
1.15357
21
0.512644
0
LINE
8
BLACK
6
CONTINUOUS
10
1.15357
20
0.512644
11
1.14341
21
0.508797
0
LINE
8
BLACK
6
CONTINUOUS
10
1.14341
20
0.508797
11
1.14326
21
0.50871
0
LINE
8
BLACK
6
CONTINUOUS
10
1.14326
20
0.50871
11
1.14326
21
0.50871
0
LINE
8
BLACK
6
CONTINUOUS
10
1.14326
20
0.50871
11
1.1368
21
0.505127
0
LINE
8
BLACK
6
CONTINUOUS
10
1.1368
20
0.505127
11
1.13392
21
0.503525
0
LINE
8
BLACK
6
CONTINUOUS
10
1.13392
20
0.503525
11
1.12529
21
0.496937
0
LINE
8
BLACK
6
CONTINUOUS
10
1.12529
20
0.496937
11
1.12516
21
0.496808
0
LINE
8
BLACK
6
CONTINUOUS
10
1.12516
20
0.496808
11
1.12516
21
0.496808
0
LINE
8
BLACK
6
CONTINUOUS
10
1.12516
20
0.496808
11
1.11782
21
0.489301
0
LINE
8
BLACK
6
CONTINUOUS
10
1.11782
20
0.489301
11
1.11782
21
0.489301
0
LINE
8
BLACK
6
CONTINUOUS
10
1.11782
20
0.489301
11
1.1177
21
0.489172
0
LINE
8
BLACK
6
CONTINUOUS
10
1.1177
20
0.489172
11
1.11759
21
0.489027
0
LINE
8
BLACK
6
CONTINUOUS
10
1.11759
20
0.489027
11
1.11759
21
0.489027
0
LINE
8
BLACK
6
CONTINUOUS
10
1.11759
20
0.489027
11
1.11334
21
0.483185
0
LINE
8
BLACK
6
CONTINUOUS
10
1.11334
20
0.483185
11
1.11131
21
0.480393
0
LINE
8
BLACK
6
CONTINUOUS
10
1.11131
20
0.480393
11
1.10625
21
0.470783
0
LINE
8
BLACK
6
CONTINUOUS
10
1.10625
20
0.470783
11
1.10264
21
0.460545
0
LINE
8
BLACK
6
CONTINUOUS
10
1.10264
20
0.460545
11
1.1026
21
0.460369
0
LINE
8
BLACK
6
CONTINUOUS
10
1.1026
20
0.460369
11
1.10116
21
0.45308
0
LINE
8
BLACK
6
CONTINUOUS
10
1.10116
20
0.45308
11
1.10054
21
0.449891
0
LINE
8
BLACK
6
CONTINUOUS
10
1.10054
20
0.449891
11
1.10053
21
0.449712
0
LINE
8
BLACK
6
CONTINUOUS
10
1.10053
20
0.449712
11
1.10053
21
0.449712
0
LINE
8
BLACK
6
CONTINUOUS
10
1.10053
20
0.449712
11
1.10016
21
0.442253
0
LINE
8
BLACK
6
CONTINUOUS
10
1.10016
20
0.442253
11
1.1
21
0.439046
0
LINE
8
BLACK
6
CONTINUOUS
10
1.1
20
0.439046
11
1.10103
21
0.428237
0
LINE
8
BLACK
6
CONTINUOUS
10
1.10103
20
0.428237
11
1.10107
21
0.428062
0
LINE
8
BLACK
6
CONTINUOUS
10
3.05236
20
0.844199
11
3.05256
21
0.843489
0
LINE
8
BLACK
6
CONTINUOUS
10
3.05256
20
0.843489
11
3.05401
21
0.840227
0
LINE
8
BLACK
6
CONTINUOUS
10
3.05401
20
0.840227
11
3.05452
21
0.839485
0
LINE
8
BLACK
6
CONTINUOUS
10
3.05452
20
0.839485
11
3.05698
21
0.837023
0
LINE
8
BLACK
6
CONTINUOUS
10
3.05698
20
0.837023
11
3.05772
21
0.836515
0
LINE
8
BLACK
6
CONTINUOUS
10
3.05772
20
0.836515
11
3.06099
21
0.835072
0
LINE
8
BLACK
6
CONTINUOUS
10
3.06099
20
0.835072
11
3.0617
21
0.834878
0
LINE
8
BLACK
6
CONTINUOUS
10
3.0617
20
0.834878
11
3.0622
21
0.83482
0
LINE
8
BLACK
6
CONTINUOUS
10
3.0622
20
0.83482
11
3.06248
21
0.834803
0
LINE
8
BLACK
6
CONTINUOUS
10
3.06248
20
0.834803
11
3.10275
21
0.834803
0
LINE
8
BLACK
6
CONTINUOUS
10
3.10275
20
0.834803
11
3.10335
21
0.834979
0
LINE
8
BLACK
6
CONTINUOUS
10
3.10335
20
0.834979
11
3.1034
21
0.835034
0
LINE
8
BLACK
6
CONTINUOUS
10
3.1034
20
0.835034
11
3.10346
21
0.835337
0
LINE
8
BLACK
6
CONTINUOUS
10
3.10346
20
0.835337
11
3.10346
21
0.846614
0
LINE
8
BLACK
6
CONTINUOUS
10
3.10346
20
0.846614
11
3.06409
21
0.846614
0
LINE
8
BLACK
6
CONTINUOUS
10
3.06409
20
0.846614
11
3.06409
21
0.885984
0
LINE
8
BLACK
6
CONTINUOUS
10
3.06409
20
0.885984
11
3.053
21
0.885984
0
LINE
8
BLACK
6
CONTINUOUS
10
3.053
20
0.885984
11
3.0524
21
0.885808
0
LINE
8
BLACK
6
CONTINUOUS
10
3.0524
20
0.885808
11
3.05235
21
0.885753
0
LINE
8
BLACK
6
CONTINUOUS
10
3.05235
20
0.885753
11
3.05228
21
0.885451
0
LINE
8
BLACK
6
CONTINUOUS
10
3.05228
20
0.885451
11
3.05228
21
0.845006
0
LINE
8
BLACK
6
CONTINUOUS
10
3.05228
20
0.845006
11
3.0523
21
0.844713
0
LINE
8
BLACK
6
CONTINUOUS
10
3.0523
20
0.844713
11
3.05236
21
0.844199
0
LINE
8
BLACK
6
CONTINUOUS
10
1.24999
20
2.63164
11
1.25
21
2.63182
0
LINE
8
BLACK
6
CONTINUOUS
10
1.25
20
2.63182
11
1.24897
21
2.64263
0
LINE
8
BLACK
6
CONTINUOUS
10
1.24897
20
2.64263
11
1.24888
21
2.643
0
LINE
8
BLACK
6
CONTINUOUS
10
1.24888
20
2.643
11
1.24643
21
2.653
0
LINE
8
BLACK
6
CONTINUOUS
10
1.24643
20
2.653
11
1.24639
21
2.65318
0
LINE
8
BLACK
6
CONTINUOUS
10
1.24639
20
2.65318
11
1.24232
21
2.66324
0
LINE
8
BLACK
6
CONTINUOUS
10
1.24232
20
2.66324
11
1.24222
21
2.6634
0
LINE
8
BLACK
6
CONTINUOUS
10
1.24222
20
2.6634
11
1.24222
21
2.6634
0
LINE
8
BLACK
6
CONTINUOUS
10
1.24222
20
2.6634
11
1.23692
21
2.67246
0
LINE
8
BLACK
6
CONTINUOUS
10
1.23692
20
2.67246
11
1.23692
21
2.67246
0
LINE
8
BLACK
6
CONTINUOUS
10
1.23692
20
2.67246
11
1.23683
21
2.67261
0
LINE
8
BLACK
6
CONTINUOUS
10
1.23683
20
2.67261
11
1.2322
21
2.6784
0
LINE
8
BLACK
6
CONTINUOUS
10
1.2322
20
2.6784
11
1.23016
21
2.68095
0
LINE
8
BLACK
6
CONTINUOUS
10
1.23016
20
2.68095
11
1.23016
21
2.68095
0
LINE
8
BLACK
6
CONTINUOUS
10
1.23016
20
2.68095
11
1.23005
21
2.68109
0
LINE
8
BLACK
6
CONTINUOUS
10
1.23005
20
2.68109
11
1.22425
21
2.6865
0
LINE
8
BLACK
6
CONTINUOUS
10
1.22425
20
2.6865
11
1.22224
21
2.68838
0
LINE
8
BLACK
6
CONTINUOUS
10
1.22224
20
2.68838
11
1.22224
21
2.68838
0
LINE
8
BLACK
6
CONTINUOUS
10
1.22224
20
2.68838
11
1.22211
21
2.6885
0
LINE
8
BLACK
6
CONTINUOUS
10
1.22211
20
2.6885
11
1.21319
21
2.69469
0
LINE
8
BLACK
6
CONTINUOUS
10
1.21319
20
2.69469
11
1.21279
21
2.69489
0
LINE
8
BLACK
6
CONTINUOUS
10
1.21279
20
2.69489
11
1.20363
21
2.69945
0
LINE
8
BLACK
6
CONTINUOUS
10
1.20363
20
2.69945
11
1.20363
21
2.69945
0
LINE
8
BLACK
6
CONTINUOUS
10
1.20363
20
2.69945
11
1.20347
21
2.69953
0
LINE
8
BLACK
6
CONTINUOUS
10
1.20347
20
2.69953
11
1.19315
21
2.70291
0
LINE
8
BLACK
6
CONTINUOUS
10
1.19315
20
2.70291
11
1.19297
21
2.70294
0
LINE
8
BLACK
6
CONTINUOUS
10
1.19297
20
2.70294
11
1.1826
21
2.70474
0
LINE
8
BLACK
6
CONTINUOUS
10
1.1826
20
2.70474
11
1.1826
21
2.70474
0
LINE
8
BLACK
6
CONTINUOUS
10
1.1826
20
2.70474
11
1.18245
21
2.70477
0
LINE
8
BLACK
6
CONTINUOUS
10
1.18245
20
2.70477
11
1.18205
21
2.70479
0
LINE
8
BLACK
6
CONTINUOUS
10
1.18205
20
2.70479
11
1.17908
21
2.70494
0
LINE
8
BLACK
6
CONTINUOUS
10
1.17908
20
2.70494
11
1.17908
21
2.70494
0
LINE
8
BLACK
6
CONTINUOUS
10
1.17908
20
2.70494
11
1.17902
21
2.70494
0
LINE
8
BLACK
6
CONTINUOUS
10
1.17902
20
2.70494
11
1.17224
21
2.70494
0
LINE
8
BLACK
6
CONTINUOUS
10
1.17224
20
2.70494
11
1.17215
21
2.70493
0
LINE
8
BLACK
6
CONTINUOUS
10
1.17215
20
2.70493
11
1.17215
21
2.70493
0
LINE
8
BLACK
6
CONTINUOUS
10
1.17215
20
2.70493
11
1.16706
21
2.70457
0
LINE
8
BLACK
6
CONTINUOUS
10
1.16706
20
2.70457
11
1.16417
21
2.70436
0
LINE
8
BLACK
6
CONTINUOUS
10
1.16417
20
2.70436
11
1.16399
21
2.70432
0
LINE
8
BLACK
6
CONTINUOUS
10
1.16399
20
2.70432
11
1.16399
21
2.70432
0
LINE
8
BLACK
6
CONTINUOUS
10
1.16399
20
2.70432
11
1.15374
21
2.70205
0
LINE
8
BLACK
6
CONTINUOUS
10
1.15374
20
2.70205
11
1.15374
21
2.70205
0
LINE
8
BLACK
6
CONTINUOUS
10
1.15374
20
2.70205
11
1.15357
21
2.70201
0
LINE
8
BLACK
6
CONTINUOUS
10
1.15357
20
2.70201
11
1.14341
21
2.69817
0
LINE
8
BLACK
6
CONTINUOUS
10
1.14341
20
2.69817
11
1.13392
21
2.69289
0
LINE
8
BLACK
6
CONTINUOUS
10
1.13392
20
2.69289
11
1.13378
21
2.69279
0
LINE
8
BLACK
6
CONTINUOUS
10
1.13378
20
2.69279
11
1.12555
21
2.6865
0
LINE
8
BLACK
6
CONTINUOUS
10
1.12555
20
2.6865
11
1.12529
21
2.68631
0
LINE
8
BLACK
6
CONTINUOUS
10
1.12529
20
2.68631
11
1.12516
21
2.68618
0
LINE
8
BLACK
6
CONTINUOUS
10
1.12516
20
2.68618
11
1.12516
21
2.68618
0
LINE
8
BLACK
6
CONTINUOUS
10
1.12516
20
2.68618
11
1.11782
21
2.67867
0
LINE
8
BLACK
6
CONTINUOUS
10
1.11782
20
2.67867
11
1.11782
21
2.67867
0
LINE
8
BLACK
6
CONTINUOUS
10
1.11782
20
2.67867
11
1.1177
21
2.67854
0
LINE
8
BLACK
6
CONTINUOUS
10
1.1177
20
2.67854
11
1.11759
21
2.6784
0
LINE
8
BLACK
6
CONTINUOUS
10
1.11759
20
2.6784
11
1.11759
21
2.6784
0
LINE
8
BLACK
6
CONTINUOUS
10
1.11759
20
2.6784
11
1.11156
21
2.67011
0
LINE
8
BLACK
6
CONTINUOUS
10
1.11156
20
2.67011
11
1.11131
21
2.66976
0
LINE
8
BLACK
6
CONTINUOUS
10
1.11131
20
2.66976
11
1.10625
21
2.66015
0
LINE
8
BLACK
6
CONTINUOUS
10
1.10625
20
2.66015
11
1.10264
21
2.64991
0
LINE
8
BLACK
6
CONTINUOUS
10
1.10264
20
2.64991
11
1.1026
21
2.64974
0
LINE
8
BLACK
6
CONTINUOUS
10
1.1026
20
2.64974
11
1.10116
21
2.64245
0
LINE
8
BLACK
6
CONTINUOUS
10
1.10116
20
2.64245
11
1.10054
21
2.63926
0
LINE
8
BLACK
6
CONTINUOUS
10
1.10054
20
2.63926
11
1.10053
21
2.63908
0
LINE
8
BLACK
6
CONTINUOUS
10
1.10053
20
2.63908
11
1.10053
21
2.63908
0
LINE
8
BLACK
6
CONTINUOUS
10
1.10053
20
2.63908
11
1.10001
21
2.62861
0
LINE
8
BLACK
6
CONTINUOUS
10
1.10001
20
2.62861
11
1.1
21
2.62842
0
LINE
8
BLACK
6
CONTINUOUS
10
1.1
20
2.62842
11
1.10103
21
2.61761
0
LINE
8
BLACK
6
CONTINUOUS
10
1.10103
20
2.61761
11
1.10107
21
2.61743
0
LINE
8
BLACK
6
CONTINUOUS
10
1.10107
20
2.61743
11
1.10107
21
2.61743
0
LINE
8
BLACK
6
CONTINUOUS
10
1.10107
20
2.61743
11
1.10357
21
2.60723
0
LINE
8
BLACK
6
CONTINUOUS
10
1.10357
20
2.60723
11
1.10361
21
2.60706
0
LINE
8
BLACK
6
CONTINUOUS
10
1.10361
20
2.60706
11
1.10769
21
2.597
0
LINE
8
BLACK
6
CONTINUOUS
10
1.10769
20
2.597
11
1.10778
21
2.59684
0
LINE
8
BLACK
6
CONTINUOUS
10
1.10778
20
2.59684
11
1.10778
21
2.59684
0
LINE
8
BLACK
6
CONTINUOUS
10
1.10778
20
2.59684
11
1.11308
21
2.58778
0
LINE
8
BLACK
6
CONTINUOUS
10
1.11308
20
2.58778
11
1.11308
21
2.58778
0
LINE
8
BLACK
6
CONTINUOUS
10
1.11308
20
2.58778
11
1.11317
21
2.58762
0
LINE
8
BLACK
6
CONTINUOUS
10
1.11317
20
2.58762
11
1.11328
21
2.58748
0
LINE
8
BLACK
6
CONTINUOUS
10
1.11328
20
2.58748
11
1.11968
21
2.57948
0
LINE
8
BLACK
6
CONTINUOUS
10
1.11968
20
2.57948
11
1.11995
21
2.57914
0
LINE
8
BLACK
6
CONTINUOUS
10
1.11995
20
2.57914
11
1.12008
21
2.57902
0
LINE
8
BLACK
6
CONTINUOUS
10
1.12008
20
2.57902
11
1.12768
21
2.57193
0
LINE
8
BLACK
6
CONTINUOUS
10
1.12768
20
2.57193
11
1.12789
21
2.57173
0
LINE
8
BLACK
6
CONTINUOUS
10
1.12789
20
2.57173
11
1.13681
21
2.56554
0
LINE
8
BLACK
6
CONTINUOUS
10
1.13681
20
2.56554
11
1.13697
21
2.56546
0
LINE
8
BLACK
6
CONTINUOUS
10
1.13697
20
2.56546
11
1.13697
21
2.56546
0
LINE
8
BLACK
6
CONTINUOUS
10
1.13697
20
2.56546
11
1.14637
21
2.56079
0
LINE
8
BLACK
6
CONTINUOUS
10
1.14637
20
2.56079
11
1.14637
21
2.56079
0
LINE
8
BLACK
6
CONTINUOUS
10
1.14637
20
2.56079
11
1.14653
21
2.56071
0
LINE
8
BLACK
6
CONTINUOUS
10
1.14653
20
2.56071
11
1.15685
21
2.55732
0
LINE
8
BLACK
6
CONTINUOUS
10
1.15685
20
2.55732
11
1.15703
21
2.55729
0
LINE
8
BLACK
6
CONTINUOUS
10
1.15703
20
2.55729
11
1.15703
21
2.55729
0
LINE
8
BLACK
6
CONTINUOUS
10
1.15703
20
2.55729
11
1.1674
21
2.55549
0
LINE
8
BLACK
6
CONTINUOUS
10
1.1674
20
2.55549
11
1.1674
21
2.55549
0
LINE
8
BLACK
6
CONTINUOUS
10
1.1674
20
2.55549
11
1.16755
21
2.55547
0
LINE
8
BLACK
6
CONTINUOUS
10
1.16755
20
2.55547
11
1.1677
21
2.55546
0
LINE
8
BLACK
6
CONTINUOUS
10
1.1677
20
2.55546
11
1.17092
21
2.5553
0
LINE
8
BLACK
6
CONTINUOUS
10
1.17092
20
2.5553
11
1.17092
21
2.5553
0
LINE
8
BLACK
6
CONTINUOUS
10
1.17092
20
2.5553
11
1.17098
21
2.5553
0
LINE
8
BLACK
6
CONTINUOUS
10
1.17098
20
2.5553
11
1.17776
21
2.5553
0
LINE
8
BLACK
6
CONTINUOUS
10
1.17776
20
2.5553
11
1.17785
21
2.5553
0
LINE
8
BLACK
6
CONTINUOUS
10
1.17785
20
2.5553
11
1.17785
21
2.5553
0
LINE
8
BLACK
6
CONTINUOUS
10
1.17785
20
2.5553
11
1.18318
21
2.55569
0
LINE
8
BLACK
6
CONTINUOUS
10
1.18318
20
2.55569
11
1.18583
21
2.55588
0
LINE
8
BLACK
6
CONTINUOUS
10
1.18583
20
2.55588
11
1.18601
21
2.55592
0
LINE
8
BLACK
6
CONTINUOUS
10
1.18601
20
2.55592
11
1.18601
21
2.55592
0
LINE
8
BLACK
6
CONTINUOUS
10
1.18601
20
2.55592
11
1.19626
21
2.55818
0
LINE
8
BLACK
6
CONTINUOUS
10
1.19626
20
2.55818
11
1.19626
21
2.55818
0
LINE
8
BLACK
6
CONTINUOUS
10
1.19626
20
2.55818
11
1.19643
21
2.55822
0
LINE
8
BLACK
6
CONTINUOUS
10
1.19643
20
2.55822
11
1.20659
21
2.56207
0
LINE
8
BLACK
6
CONTINUOUS
10
1.20659
20
2.56207
11
1.2071
21
2.56235
0
LINE
8
BLACK
6
CONTINUOUS
10
1.2071
20
2.56235
11
1.21592
21
2.56725
0
LINE
8
BLACK
6
CONTINUOUS
10
1.21592
20
2.56725
11
1.21592
21
2.56725
0
LINE
8
BLACK
6
CONTINUOUS
10
1.21592
20
2.56725
11
1.21608
21
2.56734
0
LINE
8
BLACK
6
CONTINUOUS
10
1.21608
20
2.56734
11
1.22471
21
2.57393
0
LINE
8
BLACK
6
CONTINUOUS
10
1.22471
20
2.57393
11
1.2249
21
2.57413
0
LINE
8
BLACK
6
CONTINUOUS
10
1.2249
20
2.57413
11
1.23218
21
2.58157
0
LINE
8
BLACK
6
CONTINUOUS
10
1.23218
20
2.58157
11
1.23218
21
2.58157
0
LINE
8
BLACK
6
CONTINUOUS
10
1.23218
20
2.58157
11
1.2323
21
2.58169
0
LINE
8
BLACK
6
CONTINUOUS
10
1.2323
20
2.58169
11
1.23241
21
2.58184
0
LINE
8
BLACK
6
CONTINUOUS
10
1.23241
20
2.58184
11
1.23859
21
2.59033
0
LINE
8
BLACK
6
CONTINUOUS
10
1.23859
20
2.59033
11
1.23859
21
2.59033
0
LINE
8
BLACK
6
CONTINUOUS
10
1.23859
20
2.59033
11
1.23869
21
2.59047
0
LINE
8
BLACK
6
CONTINUOUS
10
1.23869
20
2.59047
11
1.24375
21
2.60008
0
LINE
8
BLACK
6
CONTINUOUS
10
1.24375
20
2.60008
11
1.24736
21
2.61032
0
LINE
8
BLACK
6
CONTINUOUS
10
1.24736
20
2.61032
11
1.2488
21
2.61763
0
LINE
8
BLACK
6
CONTINUOUS
10
1.2488
20
2.61763
11
1.24943
21
2.6208
0
LINE
8
BLACK
6
CONTINUOUS
10
1.24943
20
2.6208
11
1.24943
21
2.6208
0
LINE
8
BLACK
6
CONTINUOUS
10
1.24943
20
2.6208
11
1.24946
21
2.62098
0
LINE
8
BLACK
6
CONTINUOUS
10
1.24946
20
2.62098
11
1.24948
21
2.62135
0
LINE
8
BLACK
6
CONTINUOUS
10
1.24948
20
2.62135
11
1.24983
21
2.62842
0
LINE
8
BLACK
6
CONTINUOUS
10
1.24983
20
2.62842
11
1.24999
21
2.63164
0
LINE
8
BLACK
6
CONTINUOUS
10
1.24999
20
2.63164
11
1.24999
21
2.63164
0
LINE
8
BLACK
6
CONTINUOUS
10
0.490152
20
2.63164
11
0.490161
21
2.63182
0
LINE
8
BLACK
6
CONTINUOUS
10
0.490161
20
2.63182
11
0.48913
21
2.64263
0
LINE
8
BLACK
6
CONTINUOUS
10
0.48913
20
2.64263
11
0.489039
21
2.643
0
LINE
8
BLACK
6
CONTINUOUS
10
0.489039
20
2.643
11
0.486592
21
2.653
0
LINE
8
BLACK
6
CONTINUOUS
10
0.486592
20
2.653
11
0.486549
21
2.65318
0
LINE
8
BLACK
6
CONTINUOUS
10
0.486549
20
2.65318
11
0.482472
21
2.66324
0
LINE
8
BLACK
6
CONTINUOUS
10
0.482472
20
2.66324
11
0.482382
21
2.6634
0
LINE
8
BLACK
6
CONTINUOUS
10
0.482382
20
2.6634
11
0.482382
21
2.6634
0
LINE
8
BLACK
6
CONTINUOUS
10
0.482382
20
2.6634
11
0.477077
21
2.67246
0
LINE
8
BLACK
6
CONTINUOUS
10
0.477077
20
2.67246
11
0.477076
21
2.67246
0
LINE
8
BLACK
6
CONTINUOUS
10
0.477076
20
2.67246
11
0.476986
21
2.67261
0
LINE
8
BLACK
6
CONTINUOUS
10
0.476986
20
2.67261
11
0.472359
21
2.6784
0
LINE
8
BLACK
6
CONTINUOUS
10
0.472359
20
2.6784
11
0.470316
21
2.68095
0
LINE
8
BLACK
6
CONTINUOUS
10
0.470316
20
2.68095
11
0.470316
21
2.68095
0
LINE
8
BLACK
6
CONTINUOUS
10
0.470316
20
2.68095
11
0.470204
21
2.68109
0
LINE
8
BLACK
6
CONTINUOUS
10
0.470204
20
2.68109
11
0.464411
21
2.6865
0
LINE
8
BLACK
6
CONTINUOUS
10
0.464411
20
2.6865
11
0.4624
21
2.68838
0
LINE
8
BLACK
6
CONTINUOUS
10
0.4624
20
2.68838
11
0.4624
21
2.68838
0
LINE
8
BLACK
6
CONTINUOUS
10
0.4624
20
2.68838
11
0.462269
21
2.6885
0
LINE
8
BLACK
6
CONTINUOUS
10
0.462269
20
2.6885
11
0.453347
21
2.69469
0
LINE
8
BLACK
6
CONTINUOUS
10
0.453347
20
2.69469
11
0.452952
21
2.69489
0
LINE
8
BLACK
6
CONTINUOUS
10
0.452952
20
2.69489
11
0.443786
21
2.69945
0
LINE
8
BLACK
6
CONTINUOUS
10
0.443786
20
2.69945
11
0.443786
21
2.69945
0
LINE
8
BLACK
6
CONTINUOUS
10
0.443786
20
2.69945
11
0.443625
21
2.69953
0
LINE
8
BLACK
6
CONTINUOUS
10
0.443625
20
2.69953
11
0.433307
21
2.70291
0
LINE
8
BLACK
6
CONTINUOUS
10
0.433307
20
2.70291
11
0.43313
21
2.70294
0
LINE
8
BLACK
6
CONTINUOUS
10
0.43313
20
2.70294
11
0.422758
21
2.70474
0
LINE
8
BLACK
6
CONTINUOUS
10
0.422758
20
2.70474
11
0.422757
21
2.70474
0
LINE
8
BLACK
6
CONTINUOUS
10
0.422757
20
2.70474
11
0.422609
21
2.70477
0
LINE
8
BLACK
6
CONTINUOUS
10
0.422609
20
2.70477
11
0.422206
21
2.70479
0
LINE
8
BLACK
6
CONTINUOUS
10
0.422206
20
2.70479
11
0.41924
21
2.70494
0
LINE
8
BLACK
6
CONTINUOUS
10
0.41924
20
2.70494
11
0.41924
21
2.70494
0
LINE
8
BLACK
6
CONTINUOUS
10
0.41924
20
2.70494
11
0.419178
21
2.70494
0
LINE
8
BLACK
6
CONTINUOUS
10
0.419178
20
2.70494
11
0.412399
21
2.70494
0
LINE
8
BLACK
6
CONTINUOUS
10
0.412399
20
2.70494
11
0.41231
21
2.70493
0
LINE
8
BLACK
6
CONTINUOUS
10
0.41231
20
2.70493
11
0.412309
21
2.70493
0
LINE
8
BLACK
6
CONTINUOUS
10
0.412309
20
2.70493
11
0.40722
21
2.70457
0
LINE
8
BLACK
6
CONTINUOUS
10
0.40722
20
2.70457
11
0.404327
21
2.70436
0
LINE
8
BLACK
6
CONTINUOUS
10
0.404327
20
2.70436
11
0.404152
21
2.70432
0
LINE
8
BLACK
6
CONTINUOUS
10
0.404152
20
2.70432
11
0.404152
21
2.70432
0
LINE
8
BLACK
6
CONTINUOUS
10
0.404152
20
2.70432
11
0.3939
21
2.70205
0
LINE
8
BLACK
6
CONTINUOUS
10
0.3939
20
2.70205
11
0.3939
21
2.70205
0
LINE
8
BLACK
6
CONTINUOUS
10
0.3939
20
2.70205
11
0.393724
21
2.70201
0
LINE
8
BLACK
6
CONTINUOUS
10
0.393724
20
2.70201
11
0.38357
21
2.69817
0
LINE
8
BLACK
6
CONTINUOUS
10
0.38357
20
2.69817
11
0.374078
21
2.69289
0
LINE
8
BLACK
6
CONTINUOUS
10
0.374078
20
2.69289
11
0.373935
21
2.69279
0
LINE
8
BLACK
6
CONTINUOUS
10
0.373935
20
2.69279
11
0.365704
21
2.6865
0
LINE
8
BLACK
6
CONTINUOUS
10
0.365704
20
2.6865
11
0.365446
21
2.68631
0
LINE
8
BLACK
6
CONTINUOUS
10
0.365446
20
2.68631
11
0.36532
21
2.68618
0
LINE
8
BLACK
6
CONTINUOUS
10
0.36532
20
2.68618
11
0.36532
21
2.68618
0
LINE
8
BLACK
6
CONTINUOUS
10
0.36532
20
2.68618
11
0.357981
21
2.67867
0
LINE
8
BLACK
6
CONTINUOUS
10
0.357981
20
2.67867
11
0.357981
21
2.67867
0
LINE
8
BLACK
6
CONTINUOUS
10
0.357981
20
2.67867
11
0.357855
21
2.67854
0
LINE
8
BLACK
6
CONTINUOUS
10
0.357855
20
2.67854
11
0.357749
21
2.6784
0
LINE
8
BLACK
6
CONTINUOUS
10
0.357749
20
2.6784
11
0.357749
21
2.6784
0
LINE
8
BLACK
6
CONTINUOUS
10
0.357749
20
2.6784
11
0.351714
21
2.67011
0
LINE
8
BLACK
6
CONTINUOUS
10
0.351714
20
2.67011
11
0.351465
21
2.66976
0
LINE
8
BLACK
6
CONTINUOUS
10
0.351465
20
2.66976
11
0.346409
21
2.66015
0
LINE
8
BLACK
6
CONTINUOUS
10
0.346409
20
2.66015
11
0.342794
21
2.64991
0
LINE
8
BLACK
6
CONTINUOUS
10
0.342794
20
2.64991
11
0.342759
21
2.64974
0
LINE
8
BLACK
6
CONTINUOUS
10
0.342759
20
2.64974
11
0.341322
21
2.64245
0
LINE
8
BLACK
6
CONTINUOUS
10
0.341322
20
2.64245
11
0.340694
21
2.63926
0
LINE
8
BLACK
6
CONTINUOUS
10
0.340694
20
2.63926
11
0.340685
21
2.63908
0
LINE
8
BLACK
6
CONTINUOUS
10
0.340685
20
2.63908
11
0.340685
21
2.63908
0
LINE
8
BLACK
6
CONTINUOUS
10
0.340685
20
2.63908
11
0.340164
21
2.62861
0
LINE
8
BLACK
6
CONTINUOUS
10
0.340164
20
2.62861
11
0.340154
21
2.62842
0
LINE
8
BLACK
6
CONTINUOUS
10
0.340154
20
2.62842
11
0.341185
21
2.61761
0
LINE
8
BLACK
6
CONTINUOUS
10
0.341185
20
2.61761
11
0.341228
21
2.61743
0
LINE
8
BLACK
6
CONTINUOUS
10
0.341228
20
2.61743
11
0.341228
21
2.61743
0
LINE
8
BLACK
6
CONTINUOUS
10
0.341228
20
2.61743
11
0.343723
21
2.60723
0
LINE
8
BLACK
6
CONTINUOUS
10
0.343723
20
2.60723
11
0.343766
21
2.60706
0
LINE
8
BLACK
6
CONTINUOUS
10
0.343766
20
2.60706
11
0.347842
21
2.597
0
LINE
8
BLACK
6
CONTINUOUS
10
0.347842
20
2.597
11
0.347933
21
2.59684
0
LINE
8
BLACK
6
CONTINUOUS
10
0.347933
20
2.59684
11
0.347933
21
2.59684
0
LINE
8
BLACK
6
CONTINUOUS
10
0.347933
20
2.59684
11
0.353238
21
2.58778
0
LINE
8
BLACK
6
CONTINUOUS
10
0.353238
20
2.58778
11
0.353239
21
2.58778
0
LINE
8
BLACK
6
CONTINUOUS
10
0.353239
20
2.58778
11
0.353329
21
2.58762
0
LINE
8
BLACK
6
CONTINUOUS
10
0.353329
20
2.58762
11
0.353441
21
2.58748
0
LINE
8
BLACK
6
CONTINUOUS
10
0.353441
20
2.58748
11
0.359841
21
2.57948
0
LINE
8
BLACK
6
CONTINUOUS
10
0.359841
20
2.57948
11
0.360111
21
2.57914
0
LINE
8
BLACK
6
CONTINUOUS
10
0.360111
20
2.57914
11
0.360242
21
2.57902
0
LINE
8
BLACK
6
CONTINUOUS
10
0.360242
20
2.57902
11
0.367835
21
2.57193
0
LINE
8
BLACK
6
CONTINUOUS
10
0.367835
20
2.57193
11
0.368046
21
2.57173
0
LINE
8
BLACK
6
CONTINUOUS
10
0.368046
20
2.57173
11
0.376968
21
2.56554
0
LINE
8
BLACK
6
CONTINUOUS
10
0.376968
20
2.56554
11
0.377128
21
2.56546
0
LINE
8
BLACK
6
CONTINUOUS
10
0.377128
20
2.56546
11
0.377128
21
2.56546
0
LINE
8
BLACK
6
CONTINUOUS
10
0.377128
20
2.56546
11
0.386529
21
2.56079
0
LINE
8
BLACK
6
CONTINUOUS
10
0.386529
20
2.56079
11
0.386529
21
2.56079
0
LINE
8
BLACK
6
CONTINUOUS
10
0.386529
20
2.56079
11
0.38669
21
2.56071
0
LINE
8
BLACK
6
CONTINUOUS
10
0.38669
20
2.56071
11
0.397008
21
2.55732
0
LINE
8
BLACK
6
CONTINUOUS
10
0.397008
20
2.55732
11
0.397185
21
2.55729
0
LINE
8
BLACK
6
CONTINUOUS
10
0.397185
20
2.55729
11
0.397185
21
2.55729
0
LINE
8
BLACK
6
CONTINUOUS
10
0.397185
20
2.55729
11
0.407557
21
2.55549
0
LINE
8
BLACK
6
CONTINUOUS
10
0.407557
20
2.55549
11
0.407558
21
2.55549
0
LINE
8
BLACK
6
CONTINUOUS
10
0.407558
20
2.55549
11
0.407706
21
2.55547
0
LINE
8
BLACK
6
CONTINUOUS
10
0.407706
20
2.55547
11
0.407857
21
2.55546
0
LINE
8
BLACK
6
CONTINUOUS
10
0.407857
20
2.55546
11
0.411075
21
2.5553
0
LINE
8
BLACK
6
CONTINUOUS
10
0.411075
20
2.5553
11
0.411075
21
2.5553
0
LINE
8
BLACK
6
CONTINUOUS
10
0.411075
20
2.5553
11
0.411137
21
2.5553
0
LINE
8
BLACK
6
CONTINUOUS
10
0.411137
20
2.5553
11
0.417916
21
2.5553
0
LINE
8
BLACK
6
CONTINUOUS
10
0.417916
20
2.5553
11
0.418005
21
2.5553
0
LINE
8
BLACK
6
CONTINUOUS
10
0.418005
20
2.5553
11
0.418006
21
2.5553
0
LINE
8
BLACK
6
CONTINUOUS
10
0.418006
20
2.5553
11
0.423339
21
2.55569
0
LINE
8
BLACK
6
CONTINUOUS
10
0.423339
20
2.55569
11
0.425988
21
2.55588
0
LINE
8
BLACK
6
CONTINUOUS
10
0.425988
20
2.55588
11
0.426163
21
2.55592
0
LINE
8
BLACK
6
CONTINUOUS
10
0.426163
20
2.55592
11
0.426163
21
2.55592
0
LINE
8
BLACK
6
CONTINUOUS
10
0.426163
20
2.55592
11
0.436415
21
2.55818
0
LINE
8
BLACK
6
CONTINUOUS
10
0.436415
20
2.55818
11
0.436415
21
2.55818
0
LINE
8
BLACK
6
CONTINUOUS
10
0.436415
20
2.55818
11
0.436591
21
2.55822
0
LINE
8
BLACK
6
CONTINUOUS
10
0.436591
20
2.55822
11
0.446745
21
2.56207
0
LINE
8
BLACK
6
CONTINUOUS
10
0.446745
20
2.56207
11
0.447256
21
2.56235
0
LINE
8
BLACK
6
CONTINUOUS
10
0.447256
20
2.56235
11
0.45608
21
2.56725
0
LINE
8
BLACK
6
CONTINUOUS
10
0.45608
20
2.56725
11
0.45608
21
2.56725
0
LINE
8
BLACK
6
CONTINUOUS
10
0.45608
20
2.56725
11
0.456237
21
2.56734
0
LINE
8
BLACK
6
CONTINUOUS
10
0.456237
20
2.56734
11
0.464869
21
2.57393
0
LINE
8
BLACK
6
CONTINUOUS
10
0.464869
20
2.57393
11
0.465062
21
2.57413
0
LINE
8
BLACK
6
CONTINUOUS
10
0.465062
20
2.57413
11
0.472334
21
2.58157
0
LINE
8
BLACK
6
CONTINUOUS
10
0.472334
20
2.58157
11
0.472334
21
2.58157
0
LINE
8
BLACK
6
CONTINUOUS
10
0.472334
20
2.58157
11
0.47246
21
2.58169
0
LINE
8
BLACK
6
CONTINUOUS
10
0.47246
20
2.58169
11
0.472566
21
2.58184
0
LINE
8
BLACK
6
CONTINUOUS
10
0.472566
20
2.58184
11
0.478744
21
2.59033
0
LINE
8
BLACK
6
CONTINUOUS
10
0.478744
20
2.59033
11
0.478744
21
2.59033
0
LINE
8
BLACK
6
CONTINUOUS
10
0.478744
20
2.59033
11
0.47885
21
2.59047
0
LINE
8
BLACK
6
CONTINUOUS
10
0.47885
20
2.59047
11
0.483906
21
2.60008
0
LINE
8
BLACK
6
CONTINUOUS
10
0.483906
20
2.60008
11
0.487521
21
2.61032
0
LINE
8
BLACK
6
CONTINUOUS
10
0.487521
20
2.61032
11
0.488962
21
2.61763
0
LINE
8
BLACK
6
CONTINUOUS
10
0.488962
20
2.61763
11
0.489587
21
2.6208
0
LINE
8
BLACK
6
CONTINUOUS
10
0.489587
20
2.6208
11
0.489587
21
2.6208
0
LINE
8
BLACK
6
CONTINUOUS
10
0.489587
20
2.6208
11
0.489621
21
2.62098
0
LINE
8
BLACK
6
CONTINUOUS
10
0.489621
20
2.62098
11
0.48964
21
2.62135
0
LINE
8
BLACK
6
CONTINUOUS
10
0.48964
20
2.62135
11
0.489992
21
2.62842
0
LINE
8
BLACK
6
CONTINUOUS
10
0.489992
20
2.62842
11
0.490152
21
2.63164
0
LINE
8
BLACK
6
CONTINUOUS
10
0.490152
20
2.63164
11
0.490152
21
2.63164
0
LINE
8
BLACK
6
CONTINUOUS
10
3.5337
20
2.87408
11
3.534
21
2.87402
0
LINE
8
BLACK
6
CONTINUOUS
10
3.534
20
2.87402
11
3.60791
21
2.87402
0
LINE
8
BLACK
6
CONTINUOUS
10
3.60791
20
2.87402
11
3.6082
21
2.87403
0
LINE
8
BLACK
6
CONTINUOUS
10
3.6082
20
2.87403
11
3.60871
21
2.87409
0
LINE
8
BLACK
6
CONTINUOUS
10
3.60871
20
2.87409
11
3.60942
21
2.87429
0
LINE
8
BLACK
6
CONTINUOUS
10
3.60942
20
2.87429
11
3.61269
21
2.87574
0
LINE
8
BLACK
6
CONTINUOUS
10
3.61269
20
2.87574
11
3.61343
21
2.87625
0
LINE
8
BLACK
6
CONTINUOUS
10
3.61343
20
2.87625
11
3.61589
21
2.87871
0
LINE
8
BLACK
6
CONTINUOUS
10
3.61589
20
2.87871
11
3.6164
21
2.87946
0
LINE
8
BLACK
6
CONTINUOUS
10
3.6164
20
2.87946
11
3.61784
21
2.88272
0
LINE
8
BLACK
6
CONTINUOUS
10
3.61784
20
2.88272
11
3.61804
21
2.88343
0
LINE
8
BLACK
6
CONTINUOUS
10
3.61804
20
2.88343
11
3.61809
21
2.88393
0
LINE
8
BLACK
6
CONTINUOUS
10
3.61809
20
2.88393
11
3.61811
21
2.88422
0
LINE
8
BLACK
6
CONTINUOUS
10
3.61811
20
2.88422
11
3.61811
21
2.95795
0
LINE
8
BLACK
6
CONTINUOUS
10
3.61811
20
2.95795
11
3.61793
21
2.95855
0
LINE
8
BLACK
6
CONTINUOUS
10
3.61793
20
2.95855
11
3.61788
21
2.9586
0
LINE
8
BLACK
6
CONTINUOUS
10
3.61788
20
2.9586
11
3.61758
21
2.95866
0
LINE
8
BLACK
6
CONTINUOUS
10
3.61758
20
2.95866
11
3.6063
21
2.95866
0
LINE
8
BLACK
6
CONTINUOUS
10
3.6063
20
2.95866
11
3.6063
21
2.88583
0
LINE
8
BLACK
6
CONTINUOUS
10
3.6063
20
2.88583
11
3.53346
21
2.88583
0
LINE
8
BLACK
6
CONTINUOUS
10
3.53346
20
2.88583
11
3.53346
21
2.87473
0
LINE
8
BLACK
6
CONTINUOUS
10
3.53346
20
2.87473
11
3.53364
21
2.87413
0
LINE
8
BLACK
6
CONTINUOUS
10
3.53364
20
2.87413
11
3.5337
21
2.87408
0
LINE
8
BLACK
6
CONTINUOUS
10
1.86091
20
2.61743
11
1.86091
21
2.61743
0
LINE
8
BLACK
6
CONTINUOUS
10
1.86091
20
2.61743
11
1.86341
21
2.60723
0
LINE
8
BLACK
6
CONTINUOUS
10
1.86341
20
2.60723
11
1.86345
21
2.60706
0
LINE
8
BLACK
6
CONTINUOUS
10
1.86345
20
2.60706
11
1.86753
21
2.597
0
LINE
8
BLACK
6
CONTINUOUS
10
1.86753
20
2.597
11
1.86762
21
2.59684
0
LINE
8
BLACK
6
CONTINUOUS
10
1.86762
20
2.59684
11
1.86762
21
2.59684
0
LINE
8
BLACK
6
CONTINUOUS
10
1.86762
20
2.59684
11
1.87292
21
2.58778
0
LINE
8
BLACK
6
CONTINUOUS
10
1.87292
20
2.58778
11
1.87292
21
2.58778
0
LINE
8
BLACK
6
CONTINUOUS
10
1.87292
20
2.58778
11
1.87301
21
2.58762
0
LINE
8
BLACK
6
CONTINUOUS
10
1.87301
20
2.58762
11
1.87313
21
2.58748
0
LINE
8
BLACK
6
CONTINUOUS
10
1.87313
20
2.58748
11
1.87953
21
2.57948
0
LINE
8
BLACK
6
CONTINUOUS
10
1.87953
20
2.57948
11
1.8798
21
2.57914
0
LINE
8
BLACK
6
CONTINUOUS
10
1.8798
20
2.57914
11
1.87993
21
2.57902
0
LINE
8
BLACK
6
CONTINUOUS
10
1.87993
20
2.57902
11
1.88752
21
2.57193
0
LINE
8
BLACK
6
CONTINUOUS
10
1.88752
20
2.57193
11
1.88773
21
2.57173
0
LINE
8
BLACK
6
CONTINUOUS
10
1.88773
20
2.57173
11
1.89665
21
2.56554
0
LINE
8
BLACK
6
CONTINUOUS
10
1.89665
20
2.56554
11
1.89681
21
2.56546
0
LINE
8
BLACK
6
CONTINUOUS
10
1.89681
20
2.56546
11
1.89681
21
2.56546
0
LINE
8
BLACK
6
CONTINUOUS
10
1.89681
20
2.56546
11
1.90621
21
2.56079
0
LINE
8
BLACK
6
CONTINUOUS
10
1.90621
20
2.56079
11
1.90621
21
2.56079
0
LINE
8
BLACK
6
CONTINUOUS
10
1.90621
20
2.56079
11
1.90637
21
2.56071
0
LINE
8
BLACK
6
CONTINUOUS
10
1.90637
20
2.56071
11
1.91669
21
2.55732
0
LINE
8
BLACK
6
CONTINUOUS
10
1.91669
20
2.55732
11
1.91687
21
2.55729
0
LINE
8
BLACK
6
CONTINUOUS
10
1.91687
20
2.55729
11
1.91687
21
2.55729
0
LINE
8
BLACK
6
CONTINUOUS
10
1.91687
20
2.55729
11
1.92724
21
2.55549
0
LINE
8
BLACK
6
CONTINUOUS
10
1.92724
20
2.55549
11
1.92724
21
2.55549
0
LINE
8
BLACK
6
CONTINUOUS
10
1.92724
20
2.55549
11
1.92739
21
2.55547
0
LINE
8
BLACK
6
CONTINUOUS
10
1.92739
20
2.55547
11
1.92754
21
2.55546
0
LINE
8
BLACK
6
CONTINUOUS
10
1.92754
20
2.55546
11
1.93076
21
2.5553
0
LINE
8
BLACK
6
CONTINUOUS
10
1.93076
20
2.5553
11
1.93076
21
2.5553
0
LINE
8
BLACK
6
CONTINUOUS
10
1.93076
20
2.5553
11
1.93082
21
2.5553
0
LINE
8
BLACK
6
CONTINUOUS
10
1.93082
20
2.5553
11
1.9376
21
2.5553
0
LINE
8
BLACK
6
CONTINUOUS
10
1.9376
20
2.5553
11
1.93769
21
2.5553
0
LINE
8
BLACK
6
CONTINUOUS
10
1.93769
20
2.5553
11
1.93769
21
2.5553
0
LINE
8
BLACK
6
CONTINUOUS
10
1.93769
20
2.5553
11
1.94302
21
2.55569
0
LINE
8
BLACK
6
CONTINUOUS
10
1.94302
20
2.55569
11
1.94567
21
2.55588
0
LINE
8
BLACK
6
CONTINUOUS
10
1.94567
20
2.55588
11
1.94585
21
2.55592
0
LINE
8
BLACK
6
CONTINUOUS
10
1.94585
20
2.55592
11
1.94585
21
2.55592
0
LINE
8
BLACK
6
CONTINUOUS
10
1.94585
20
2.55592
11
1.9561
21
2.55818
0
LINE
8
BLACK
6
CONTINUOUS
10
1.9561
20
2.55818
11
1.9561
21
2.55818
0
LINE
8
BLACK
6
CONTINUOUS
10
1.9561
20
2.55818
11
1.95628
21
2.55822
0
LINE
8
BLACK
6
CONTINUOUS
10
1.95628
20
2.55822
11
1.96643
21
2.56207
0
LINE
8
BLACK
6
CONTINUOUS
10
1.96643
20
2.56207
11
1.96694
21
2.56235
0
LINE
8
BLACK
6
CONTINUOUS
10
1.96694
20
2.56235
11
1.97577
21
2.56725
0
LINE
8
BLACK
6
CONTINUOUS
10
1.97577
20
2.56725
11
1.97577
21
2.56725
0
LINE
8
BLACK
6
CONTINUOUS
10
1.97577
20
2.56725
11
1.97592
21
2.56734
0
LINE
8
BLACK
6
CONTINUOUS
10
1.97592
20
2.56734
11
1.98455
21
2.57393
0
LINE
8
BLACK
6
CONTINUOUS
10
1.98455
20
2.57393
11
1.98475
21
2.57413
0
LINE
8
BLACK
6
CONTINUOUS
10
1.98475
20
2.57413
11
1.99202
21
2.58157
0
LINE
8
BLACK
6
CONTINUOUS
10
1.99202
20
2.58157
11
1.99202
21
2.58157
0
LINE
8
BLACK
6
CONTINUOUS
10
1.99202
20
2.58157
11
1.99214
21
2.58169
0
LINE
8
BLACK
6
CONTINUOUS
10
1.99214
20
2.58169
11
1.99225
21
2.58184
0
LINE
8
BLACK
6
CONTINUOUS
10
1.99225
20
2.58184
11
1.99843
21
2.59033
0
LINE
8
BLACK
6
CONTINUOUS
10
1.99843
20
2.59033
11
1.99843
21
2.59033
0
LINE
8
BLACK
6
CONTINUOUS
10
1.99843
20
2.59033
11
1.99853
21
2.59047
0
LINE
8
BLACK
6
CONTINUOUS
10
1.99853
20
2.59047
11
2.00359
21
2.60008
0
LINE
8
BLACK
6
CONTINUOUS
10
2.00359
20
2.60008
11
2.00721
21
2.61032
0
LINE
8
BLACK
6
CONTINUOUS
10
2.00721
20
2.61032
11
2.00865
21
2.61763
0
LINE
8
BLACK
6
CONTINUOUS
10
2.00865
20
2.61763
11
2.00927
21
2.6208
0
LINE
8
BLACK
6
CONTINUOUS
10
2.00927
20
2.6208
11
2.00927
21
2.6208
0
LINE
8
BLACK
6
CONTINUOUS
10
2.00927
20
2.6208
11
2.00931
21
2.62098
0
LINE
8
BLACK
6
CONTINUOUS
10
2.00931
20
2.62098
11
2.00933
21
2.62135
0
LINE
8
BLACK
6
CONTINUOUS
10
2.00933
20
2.62135
11
2.00969
21
2.62861
0
LINE
8
BLACK
6
CONTINUOUS
10
2.00969
20
2.62861
11
2.00984
21
2.63164
0
LINE
8
BLACK
6
CONTINUOUS
10
2.00984
20
2.63164
11
2.00984
21
2.63164
0
LINE
8
BLACK
6
CONTINUOUS
10
2.00984
20
2.63164
11
2.00985
21
2.63182
0
LINE
8
BLACK
6
CONTINUOUS
10
2.00985
20
2.63182
11
2.00881
21
2.64263
0
LINE
8
BLACK
6
CONTINUOUS
10
2.00881
20
2.64263
11
2.00872
21
2.643
0
LINE
8
BLACK
6
CONTINUOUS
10
2.00872
20
2.643
11
2.00628
21
2.653
0
LINE
8
BLACK
6
CONTINUOUS
10
2.00628
20
2.653
11
2.00623
21
2.65318
0
LINE
8
BLACK
6
CONTINUOUS
10
2.00623
20
2.65318
11
2.00216
21
2.66324
0
LINE
8
BLACK
6
CONTINUOUS
10
2.00216
20
2.66324
11
2.00207
21
2.6634
0
LINE
8
BLACK
6
CONTINUOUS
10
2.00207
20
2.6634
11
2.00207
21
2.6634
0
LINE
8
BLACK
6
CONTINUOUS
10
2.00207
20
2.6634
11
1.99676
21
2.67246
0
LINE
8
BLACK
6
CONTINUOUS
10
1.99676
20
2.67246
11
1.99676
21
2.67246
0
LINE
8
BLACK
6
CONTINUOUS
10
1.99676
20
2.67246
11
1.99667
21
2.67261
0
LINE
8
BLACK
6
CONTINUOUS
10
1.99667
20
2.67261
11
1.99204
21
2.6784
0
LINE
8
BLACK
6
CONTINUOUS
10
1.99204
20
2.6784
11
1.99
21
2.68095
0
LINE
8
BLACK
6
CONTINUOUS
10
1.99
20
2.68095
11
1.99
21
2.68095
0
LINE
8
BLACK
6
CONTINUOUS
10
1.99
20
2.68095
11
1.98989
21
2.68109
0
LINE
8
BLACK
6
CONTINUOUS
10
1.98989
20
2.68109
11
1.9841
21
2.6865
0
LINE
8
BLACK
6
CONTINUOUS
10
1.9841
20
2.6865
11
1.98209
21
2.68838
0
LINE
8
BLACK
6
CONTINUOUS
10
1.98209
20
2.68838
11
1.98209
21
2.68838
0
LINE
8
BLACK
6
CONTINUOUS
10
1.98209
20
2.68838
11
1.98195
21
2.6885
0
LINE
8
BLACK
6
CONTINUOUS
10
1.98195
20
2.6885
11
1.97303
21
2.69469
0
LINE
8
BLACK
6
CONTINUOUS
10
1.97303
20
2.69469
11
1.97264
21
2.69489
0
LINE
8
BLACK
6
CONTINUOUS
10
1.97264
20
2.69489
11
1.96347
21
2.69945
0
LINE
8
BLACK
6
CONTINUOUS
10
1.96347
20
2.69945
11
1.96347
21
2.69945
0
LINE
8
BLACK
6
CONTINUOUS
10
1.96347
20
2.69945
11
1.96331
21
2.69953
0
LINE
8
BLACK
6
CONTINUOUS
10
1.96331
20
2.69953
11
1.95299
21
2.70291
0
LINE
8
BLACK
6
CONTINUOUS
10
1.95299
20
2.70291
11
1.95282
21
2.70294
0
LINE
8
BLACK
6
CONTINUOUS
10
1.95282
20
2.70294
11
1.94244
21
2.70474
0
LINE
8
BLACK
6
CONTINUOUS
10
1.94244
20
2.70474
11
1.94244
21
2.70474
0
LINE
8
BLACK
6
CONTINUOUS
10
1.94244
20
2.70474
11
1.94229
21
2.70477
0
LINE
8
BLACK
6
CONTINUOUS
10
1.94229
20
2.70477
11
1.94189
21
2.70479
0
LINE
8
BLACK
6
CONTINUOUS
10
1.94189
20
2.70479
11
1.93893
21
2.70494
0
LINE
8
BLACK
6
CONTINUOUS
10
1.93893
20
2.70494
11
1.93892
21
2.70494
0
LINE
8
BLACK
6
CONTINUOUS
10
1.93892
20
2.70494
11
1.93886
21
2.70494
0
LINE
8
BLACK
6
CONTINUOUS
10
1.93886
20
2.70494
11
1.93208
21
2.70494
0
LINE
8
BLACK
6
CONTINUOUS
10
1.93208
20
2.70494
11
1.93199
21
2.70493
0
LINE
8
BLACK
6
CONTINUOUS
10
1.93199
20
2.70493
11
1.93199
21
2.70493
0
LINE
8
BLACK
6
CONTINUOUS
10
1.93199
20
2.70493
11
1.9269
21
2.70457
0
LINE
8
BLACK
6
CONTINUOUS
10
1.9269
20
2.70457
11
1.92401
21
2.70436
0
LINE
8
BLACK
6
CONTINUOUS
10
1.92401
20
2.70436
11
1.92384
21
2.70432
0
LINE
8
BLACK
6
CONTINUOUS
10
1.92384
20
2.70432
11
1.92384
21
2.70432
0
LINE
8
BLACK
6
CONTINUOUS
10
1.92384
20
2.70432
11
1.91358
21
2.70205
0
LINE
8
BLACK
6
CONTINUOUS
10
1.91358
20
2.70205
11
1.91358
21
2.70205
0
LINE
8
BLACK
6
CONTINUOUS
10
1.91358
20
2.70205
11
1.91341
21
2.70201
0
LINE
8
BLACK
6
CONTINUOUS
10
1.91341
20
2.70201
11
1.90326
21
2.69817
0
LINE
8
BLACK
6
CONTINUOUS
10
1.90326
20
2.69817
11
1.89376
21
2.69289
0
LINE
8
BLACK
6
CONTINUOUS
10
1.89376
20
2.69289
11
1.89362
21
2.69279
0
LINE
8
BLACK
6
CONTINUOUS
10
1.89362
20
2.69279
11
1.88539
21
2.6865
0
LINE
8
BLACK
6
CONTINUOUS
10
1.88539
20
2.6865
11
1.88513
21
2.68631
0
LINE
8
BLACK
6
CONTINUOUS
10
1.88513
20
2.68631
11
1.88501
21
2.68618
0
LINE
8
BLACK
6
CONTINUOUS
10
1.88501
20
2.68618
11
1.88501
21
2.68618
0
LINE
8
BLACK
6
CONTINUOUS
10
1.88501
20
2.68618
11
1.87767
21
2.67867
0
LINE
8
BLACK
6
CONTINUOUS
10
1.87767
20
2.67867
11
1.87767
21
2.67867
0
LINE
8
BLACK
6
CONTINUOUS
10
1.87767
20
2.67867
11
1.87754
21
2.67854
0
LINE
8
BLACK
6
CONTINUOUS
10
1.87754
20
2.67854
11
1.87743
21
2.6784
0
LINE
8
BLACK
6
CONTINUOUS
10
1.87743
20
2.6784
11
1.87743
21
2.6784
0
LINE
8
BLACK
6
CONTINUOUS
10
1.87743
20
2.6784
11
1.8714
21
2.67011
0
LINE
8
BLACK
6
CONTINUOUS
10
1.8714
20
2.67011
11
1.87115
21
2.66976
0
LINE
8
BLACK
6
CONTINUOUS
10
1.87115
20
2.66976
11
1.86609
21
2.66015
0
LINE
8
BLACK
6
CONTINUOUS
10
1.86609
20
2.66015
11
1.86248
21
2.64991
0
LINE
8
BLACK
6
CONTINUOUS
10
1.86248
20
2.64991
11
1.86244
21
2.64974
0
LINE
8
BLACK
6
CONTINUOUS
10
1.86244
20
2.64974
11
1.86101
21
2.64245
0
LINE
8
BLACK
6
CONTINUOUS
10
1.86101
20
2.64245
11
1.86038
21
2.63926
0
LINE
8
BLACK
6
CONTINUOUS
10
1.86038
20
2.63926
11
1.86037
21
2.63908
0
LINE
8
BLACK
6
CONTINUOUS
10
1.86037
20
2.63908
11
1.86037
21
2.63908
0
LINE
8
BLACK
6
CONTINUOUS
10
1.86037
20
2.63908
11
1.85985
21
2.62861
0
LINE
8
BLACK
6
CONTINUOUS
10
1.85985
20
2.62861
11
1.85984
21
2.62842
0
LINE
8
BLACK
6
CONTINUOUS
10
1.85984
20
2.62842
11
1.86087
21
2.61761
0
LINE
8
BLACK
6
CONTINUOUS
10
1.86087
20
2.61761
11
1.86091
21
2.61743
0
LINE
8
BLACK
6
CONTINUOUS
10
2.69379
20
2.61763
11
2.69379
21
2.61763
0
LINE
8
BLACK
6
CONTINUOUS
10
2.69379
20
2.61763
11
2.69628
21
2.60743
0
LINE
8
BLACK
6
CONTINUOUS
10
2.69628
20
2.60743
11
2.69633
21
2.60726
0
LINE
8
BLACK
6
CONTINUOUS
10
2.69633
20
2.60726
11
2.7004
21
2.59719
0
LINE
8
BLACK
6
CONTINUOUS
10
2.7004
20
2.59719
11
2.70049
21
2.59704
0
LINE
8
BLACK
6
CONTINUOUS
10
2.70049
20
2.59704
11
2.70049
21
2.59704
0
LINE
8
BLACK
6
CONTINUOUS
10
2.70049
20
2.59704
11
2.7058
21
2.58798
0
LINE
8
BLACK
6
CONTINUOUS
10
2.7058
20
2.58798
11
2.7058
21
2.58798
0
LINE
8
BLACK
6
CONTINUOUS
10
2.7058
20
2.58798
11
2.70589
21
2.58782
0
LINE
8
BLACK
6
CONTINUOUS
10
2.70589
20
2.58782
11
2.706
21
2.58768
0
LINE
8
BLACK
6
CONTINUOUS
10
2.706
20
2.58768
11
2.71089
21
2.58157
0
LINE
8
BLACK
6
CONTINUOUS
10
2.71089
20
2.58157
11
2.71267
21
2.57934
0
LINE
8
BLACK
6
CONTINUOUS
10
2.71267
20
2.57934
11
2.7128
21
2.57922
0
LINE
8
BLACK
6
CONTINUOUS
10
2.7128
20
2.57922
11
2.71858
21
2.57382
0
LINE
8
BLACK
6
CONTINUOUS
10
2.71858
20
2.57382
11
2.7206
21
2.57193
0
LINE
8
BLACK
6
CONTINUOUS
10
2.7206
20
2.57193
11
2.72953
21
2.56574
0
LINE
8
BLACK
6
CONTINUOUS
10
2.72953
20
2.56574
11
2.72969
21
2.56566
0
LINE
8
BLACK
6
CONTINUOUS
10
2.72969
20
2.56566
11
2.72969
21
2.56566
0
LINE
8
BLACK
6
CONTINUOUS
10
2.72969
20
2.56566
11
2.73909
21
2.56098
0
LINE
8
BLACK
6
CONTINUOUS
10
2.73909
20
2.56098
11
2.73909
21
2.56098
0
LINE
8
BLACK
6
CONTINUOUS
10
2.73909
20
2.56098
11
2.73925
21
2.5609
0
LINE
8
BLACK
6
CONTINUOUS
10
2.73925
20
2.5609
11
2.74957
21
2.55752
0
LINE
8
BLACK
6
CONTINUOUS
10
2.74957
20
2.55752
11
2.74974
21
2.55749
0
LINE
8
BLACK
6
CONTINUOUS
10
2.74974
20
2.55749
11
2.74974
21
2.55749
0
LINE
8
BLACK
6
CONTINUOUS
10
2.74974
20
2.55749
11
2.76012
21
2.55569
0
LINE
8
BLACK
6
CONTINUOUS
10
2.76012
20
2.55569
11
2.76012
21
2.55569
0
LINE
8
BLACK
6
CONTINUOUS
10
2.76012
20
2.55569
11
2.76027
21
2.55566
0
LINE
8
BLACK
6
CONTINUOUS
10
2.76027
20
2.55566
11
2.76042
21
2.55566
0
LINE
8
BLACK
6
CONTINUOUS
10
2.76042
20
2.55566
11
2.76363
21
2.5555
0
LINE
8
BLACK
6
CONTINUOUS
10
2.76363
20
2.5555
11
2.76363
21
2.5555
0
LINE
8
BLACK
6
CONTINUOUS
10
2.76363
20
2.5555
11
2.7637
21
2.55549
0
LINE
8
BLACK
6
CONTINUOUS
10
2.7637
20
2.55549
11
2.77048
21
2.55549
0
LINE
8
BLACK
6
CONTINUOUS
10
2.77048
20
2.55549
11
2.77056
21
2.5555
0
LINE
8
BLACK
6
CONTINUOUS
10
2.77056
20
2.5555
11
2.77056
21
2.5555
0
LINE
8
BLACK
6
CONTINUOUS
10
2.77056
20
2.5555
11
2.77585
21
2.55588
0
LINE
8
BLACK
6
CONTINUOUS
10
2.77585
20
2.55588
11
2.77855
21
2.55608
0
LINE
8
BLACK
6
CONTINUOUS
10
2.77855
20
2.55608
11
2.77872
21
2.55612
0
LINE
8
BLACK
6
CONTINUOUS
10
2.77872
20
2.55612
11
2.77872
21
2.55612
0
LINE
8
BLACK
6
CONTINUOUS
10
2.77872
20
2.55612
11
2.78897
21
2.55838
0
LINE
8
BLACK
6
CONTINUOUS
10
2.78897
20
2.55838
11
2.78897
21
2.55838
0
LINE
8
BLACK
6
CONTINUOUS
10
2.78897
20
2.55838
11
2.78915
21
2.55842
0
LINE
8
BLACK
6
CONTINUOUS
10
2.78915
20
2.55842
11
2.7993
21
2.56227
0
LINE
8
BLACK
6
CONTINUOUS
10
2.7993
20
2.56227
11
2.8088
21
2.56754
0
LINE
8
BLACK
6
CONTINUOUS
10
2.8088
20
2.56754
11
2.81703
21
2.57382
0
LINE
8
BLACK
6
CONTINUOUS
10
2.81703
20
2.57382
11
2.81729
21
2.57402
0
LINE
8
BLACK
6
CONTINUOUS
10
2.81729
20
2.57402
11
2.81729
21
2.57402
0
LINE
8
BLACK
6
CONTINUOUS
10
2.81729
20
2.57402
11
2.81743
21
2.57413
0
LINE
8
BLACK
6
CONTINUOUS
10
2.81743
20
2.57413
11
2.81755
21
2.57425
0
LINE
8
BLACK
6
CONTINUOUS
10
2.81755
20
2.57425
11
2.82489
21
2.58176
0
LINE
8
BLACK
6
CONTINUOUS
10
2.82489
20
2.58176
11
2.82489
21
2.58176
0
LINE
8
BLACK
6
CONTINUOUS
10
2.82489
20
2.58176
11
2.82502
21
2.58189
0
LINE
8
BLACK
6
CONTINUOUS
10
2.82502
20
2.58189
11
2.82512
21
2.58204
0
LINE
8
BLACK
6
CONTINUOUS
10
2.82512
20
2.58204
11
2.8313
21
2.59052
0
LINE
8
BLACK
6
CONTINUOUS
10
2.8313
20
2.59052
11
2.8313
21
2.59052
0
LINE
8
BLACK
6
CONTINUOUS
10
2.8313
20
2.59052
11
2.83141
21
2.59067
0
LINE
8
BLACK
6
CONTINUOUS
10
2.83141
20
2.59067
11
2.83646
21
2.60028
0
LINE
8
BLACK
6
CONTINUOUS
10
2.83646
20
2.60028
11
2.84008
21
2.61052
0
LINE
8
BLACK
6
CONTINUOUS
10
2.84008
20
2.61052
11
2.84152
21
2.6178
0
LINE
8
BLACK
6
CONTINUOUS
10
2.84152
20
2.6178
11
2.84215
21
2.621
0
LINE
8
BLACK
6
CONTINUOUS
10
2.84215
20
2.621
11
2.84215
21
2.621
0
LINE
8
BLACK
6
CONTINUOUS
10
2.84215
20
2.621
11
2.84218
21
2.62117
0
LINE
8
BLACK
6
CONTINUOUS
10
2.84218
20
2.62117
11
2.84253
21
2.62824
0
LINE
8
BLACK
6
CONTINUOUS
10
2.84253
20
2.62824
11
2.84255
21
2.62861
0
LINE
8
BLACK
6
CONTINUOUS
10
2.84255
20
2.62861
11
2.84271
21
2.63184
0
LINE
8
BLACK
6
CONTINUOUS
10
2.84271
20
2.63184
11
2.84271
21
2.63184
0
LINE
8
BLACK
6
CONTINUOUS
10
2.84271
20
2.63184
11
2.84272
21
2.63202
0
LINE
8
BLACK
6
CONTINUOUS
10
2.84272
20
2.63202
11
2.84169
21
2.64283
0
LINE
8
BLACK
6
CONTINUOUS
10
2.84169
20
2.64283
11
2.84
21
2.64974
0
LINE
8
BLACK
6
CONTINUOUS
10
2.84
20
2.64974
11
2.83915
21
2.6532
0
LINE
8
BLACK
6
CONTINUOUS
10
2.83915
20
2.6532
11
2.83911
21
2.65337
0
LINE
8
BLACK
6
CONTINUOUS
10
2.83911
20
2.65337
11
2.83503
21
2.66344
0
LINE
8
BLACK
6
CONTINUOUS
10
2.83503
20
2.66344
11
2.83494
21
2.66359
0
LINE
8
BLACK
6
CONTINUOUS
10
2.83494
20
2.66359
11
2.83494
21
2.66359
0
LINE
8
BLACK
6
CONTINUOUS
10
2.83494
20
2.66359
11
2.82964
21
2.67265
0
LINE
8
BLACK
6
CONTINUOUS
10
2.82964
20
2.67265
11
2.82964
21
2.67265
0
LINE
8
BLACK
6
CONTINUOUS
10
2.82964
20
2.67265
11
2.82954
21
2.67281
0
LINE
8
BLACK
6
CONTINUOUS
10
2.82954
20
2.67281
11
2.82486
21
2.67867
0
LINE
8
BLACK
6
CONTINUOUS
10
2.82486
20
2.67867
11
2.82288
21
2.68115
0
LINE
8
BLACK
6
CONTINUOUS
10
2.82288
20
2.68115
11
2.82288
21
2.68115
0
LINE
8
BLACK
6
CONTINUOUS
10
2.82288
20
2.68115
11
2.82276
21
2.68129
0
LINE
8
BLACK
6
CONTINUOUS
10
2.82276
20
2.68129
11
2.81517
21
2.68838
0
LINE
8
BLACK
6
CONTINUOUS
10
2.81517
20
2.68838
11
2.81496
21
2.68858
0
LINE
8
BLACK
6
CONTINUOUS
10
2.81496
20
2.68858
11
2.81496
21
2.68858
0
LINE
8
BLACK
6
CONTINUOUS
10
2.81496
20
2.68858
11
2.81483
21
2.6887
0
LINE
8
BLACK
6
CONTINUOUS
10
2.81483
20
2.6887
11
2.80591
21
2.69489
0
LINE
8
BLACK
6
CONTINUOUS
10
2.80591
20
2.69489
11
2.80575
21
2.69497
0
LINE
8
BLACK
6
CONTINUOUS
10
2.80575
20
2.69497
11
2.79635
21
2.69965
0
LINE
8
BLACK
6
CONTINUOUS
10
2.79635
20
2.69965
11
2.79635
21
2.69965
0
LINE
8
BLACK
6
CONTINUOUS
10
2.79635
20
2.69965
11
2.79618
21
2.69973
0
LINE
8
BLACK
6
CONTINUOUS
10
2.79618
20
2.69973
11
2.78587
21
2.70311
0
LINE
8
BLACK
6
CONTINUOUS
10
2.78587
20
2.70311
11
2.78569
21
2.70314
0
LINE
8
BLACK
6
CONTINUOUS
10
2.78569
20
2.70314
11
2.77532
21
2.70494
0
LINE
8
BLACK
6
CONTINUOUS
10
2.77532
20
2.70494
11
2.77532
21
2.70494
0
LINE
8
BLACK
6
CONTINUOUS
10
2.77532
20
2.70494
11
2.77517
21
2.70497
0
LINE
8
BLACK
6
CONTINUOUS
10
2.77517
20
2.70497
11
2.77476
21
2.70499
0
LINE
8
BLACK
6
CONTINUOUS
10
2.77476
20
2.70499
11
2.7718
21
2.70513
0
LINE
8
BLACK
6
CONTINUOUS
10
2.7718
20
2.70513
11
2.7718
21
2.70513
0
LINE
8
BLACK
6
CONTINUOUS
10
2.7718
20
2.70513
11
2.77174
21
2.70514
0
LINE
8
BLACK
6
CONTINUOUS
10
2.77174
20
2.70514
11
2.76496
21
2.70514
0
LINE
8
BLACK
6
CONTINUOUS
10
2.76496
20
2.70514
11
2.76487
21
2.70513
0
LINE
8
BLACK
6
CONTINUOUS
10
2.76487
20
2.70513
11
2.76487
21
2.70513
0
LINE
8
BLACK
6
CONTINUOUS
10
2.76487
20
2.70513
11
2.75989
21
2.70477
0
LINE
8
BLACK
6
CONTINUOUS
10
2.75989
20
2.70477
11
2.75689
21
2.70455
0
LINE
8
BLACK
6
CONTINUOUS
10
2.75689
20
2.70455
11
2.75671
21
2.70451
0
LINE
8
BLACK
6
CONTINUOUS
10
2.75671
20
2.70451
11
2.75671
21
2.70451
0
LINE
8
BLACK
6
CONTINUOUS
10
2.75671
20
2.70451
11
2.74646
21
2.70225
0
LINE
8
BLACK
6
CONTINUOUS
10
2.74646
20
2.70225
11
2.74646
21
2.70225
0
LINE
8
BLACK
6
CONTINUOUS
10
2.74646
20
2.70225
11
2.74628
21
2.70221
0
LINE
8
BLACK
6
CONTINUOUS
10
2.74628
20
2.70221
11
2.73613
21
2.69836
0
LINE
8
BLACK
6
CONTINUOUS
10
2.73613
20
2.69836
11
2.73597
21
2.69828
0
LINE
8
BLACK
6
CONTINUOUS
10
2.73597
20
2.69828
11
2.73597
21
2.69828
0
LINE
8
BLACK
6
CONTINUOUS
10
2.73597
20
2.69828
11
2.72952
21
2.69469
0
LINE
8
BLACK
6
CONTINUOUS
10
2.72952
20
2.69469
11
2.72664
21
2.69309
0
LINE
8
BLACK
6
CONTINUOUS
10
2.72664
20
2.69309
11
2.718
21
2.6865
0
LINE
8
BLACK
6
CONTINUOUS
10
2.718
20
2.6865
11
2.71788
21
2.68638
0
LINE
8
BLACK
6
CONTINUOUS
10
2.71788
20
2.68638
11
2.71788
21
2.68638
0
LINE
8
BLACK
6
CONTINUOUS
10
2.71788
20
2.68638
11
2.71054
21
2.67887
0
LINE
8
BLACK
6
CONTINUOUS
10
2.71054
20
2.67887
11
2.71054
21
2.67887
0
LINE
8
BLACK
6
CONTINUOUS
10
2.71054
20
2.67887
11
2.71041
21
2.67874
0
LINE
8
BLACK
6
CONTINUOUS
10
2.71041
20
2.67874
11
2.71031
21
2.67859
0
LINE
8
BLACK
6
CONTINUOUS
10
2.71031
20
2.67859
11
2.71031
21
2.67859
0
LINE
8
BLACK
6
CONTINUOUS
10
2.71031
20
2.67859
11
2.70606
21
2.67275
0
LINE
8
BLACK
6
CONTINUOUS
10
2.70606
20
2.67275
11
2.70402
21
2.66996
0
LINE
8
BLACK
6
CONTINUOUS
10
2.70402
20
2.66996
11
2.69897
21
2.66035
0
LINE
8
BLACK
6
CONTINUOUS
10
2.69897
20
2.66035
11
2.69535
21
2.65011
0
LINE
8
BLACK
6
CONTINUOUS
10
2.69535
20
2.65011
11
2.69532
21
2.64994
0
LINE
8
BLACK
6
CONTINUOUS
10
2.69532
20
2.64994
11
2.69388
21
2.64265
0
LINE
8
BLACK
6
CONTINUOUS
10
2.69388
20
2.64265
11
2.69325
21
2.63946
0
LINE
8
BLACK
6
CONTINUOUS
10
2.69325
20
2.63946
11
2.69324
21
2.63928
0
LINE
8
BLACK
6
CONTINUOUS
10
2.69324
20
2.63928
11
2.69324
21
2.63928
0
LINE
8
BLACK
6
CONTINUOUS
10
2.69324
20
2.63928
11
2.69287
21
2.63182
0
LINE
8
BLACK
6
CONTINUOUS
10
2.69287
20
2.63182
11
2.69271
21
2.62861
0
LINE
8
BLACK
6
CONTINUOUS
10
2.69271
20
2.62861
11
2.69374
21
2.6178
0
LINE
8
BLACK
6
CONTINUOUS
10
2.69374
20
2.6178
11
2.69379
21
2.61763
0
LINE
8
BLACK
6
CONTINUOUS
10
0.336417
20
2.88386
11
0.336417
21
2.95669
0
LINE
8
BLACK
6
CONTINUOUS
10
0.336417
20
2.95669
11
0.325319
21
2.95669
0
LINE
8
BLACK
6
CONTINUOUS
10
0.325319
20
2.95669
11
0.32472
21
2.95652
0
LINE
8
BLACK
6
CONTINUOUS
10
0.32472
20
2.95652
11
0.324672
21
2.95646
0
LINE
8
BLACK
6
CONTINUOUS
10
0.324672
20
2.95646
11
0.324606
21
2.95616
0
LINE
8
BLACK
6
CONTINUOUS
10
0.324606
20
2.95616
11
0.324606
21
2.88225
0
LINE
8
BLACK
6
CONTINUOUS
10
0.324606
20
2.88225
11
0.324624
21
2.88196
0
LINE
8
BLACK
6
CONTINUOUS
10
0.324624
20
2.88196
11
0.324685
21
2.88144
0
LINE
8
BLACK
6
CONTINUOUS
10
0.324685
20
2.88144
11
0.32488
21
2.88073
0
LINE
8
BLACK
6
CONTINUOUS
10
0.32488
20
2.88073
11
0.326329
21
2.87747
0
LINE
8
BLACK
6
CONTINUOUS
10
0.326329
20
2.87747
11
0.326839
21
2.87673
0
LINE
8
BLACK
6
CONTINUOUS
10
0.326839
20
2.87673
11
0.329305
21
2.87427
0
LINE
8
BLACK
6
CONTINUOUS
10
0.329305
20
2.87427
11
0.330048
21
2.87376
0
LINE
8
BLACK
6
CONTINUOUS
10
0.330048
20
2.87376
11
0.333312
21
2.87232
0
LINE
8
BLACK
6
CONTINUOUS
10
0.333312
20
2.87232
11
0.334024
21
2.87212
0
LINE
8
BLACK
6
CONTINUOUS
10
0.334024
20
2.87212
11
0.334519
21
2.87206
0
LINE
8
BLACK
6
CONTINUOUS
10
0.334519
20
2.87206
11
0.334807
21
2.87205
0
LINE
8
BLACK
6
CONTINUOUS
10
0.334807
20
2.87205
11
0.408539
21
2.87205
0
LINE
8
BLACK
6
CONTINUOUS
10
0.408539
20
2.87205
11
0.409139
21
2.87222
0
LINE
8
BLACK
6
CONTINUOUS
10
0.409139
20
2.87222
11
0.409186
21
2.87228
0
LINE
8
BLACK
6
CONTINUOUS
10
0.409186
20
2.87228
11
0.409252
21
2.87258
0
LINE
8
BLACK
6
CONTINUOUS
10
0.409252
20
2.87258
11
0.409252
21
2.88386
0
LINE
8
BLACK
6
CONTINUOUS
10
0.409252
20
2.88386
11
0.336417
21
2.88386
0
LINE
8
BLACK
6
CONTINUOUS
10
1.8561
20
2.88386
11
1.8561
21
2.95669
0
LINE
8
BLACK
6
CONTINUOUS
10
1.8561
20
2.95669
11
1.845
21
2.95669
0
LINE
8
BLACK
6
CONTINUOUS
10
1.845
20
2.95669
11
1.8444
21
2.95652
0
LINE
8
BLACK
6
CONTINUOUS
10
1.8444
20
2.95652
11
1.84436
21
2.95646
0
LINE
8
BLACK
6
CONTINUOUS
10
1.84436
20
2.95646
11
1.84429
21
2.95616
0
LINE
8
BLACK
6
CONTINUOUS
10
1.84429
20
2.95616
11
1.84429
21
2.88225
0
LINE
8
BLACK
6
CONTINUOUS
10
1.84429
20
2.88225
11
1.84431
21
2.88196
0
LINE
8
BLACK
6
CONTINUOUS
10
1.84431
20
2.88196
11
1.84437
21
2.88144
0
LINE
8
BLACK
6
CONTINUOUS
10
1.84437
20
2.88144
11
1.84457
21
2.88073
0
LINE
8
BLACK
6
CONTINUOUS
10
1.84457
20
2.88073
11
1.84601
21
2.87747
0
LINE
8
BLACK
6
CONTINUOUS
10
1.84601
20
2.87747
11
1.84652
21
2.87673
0
LINE
8
BLACK
6
CONTINUOUS
10
1.84652
20
2.87673
11
1.84899
21
2.87427
0
LINE
8
BLACK
6
CONTINUOUS
10
1.84899
20
2.87427
11
1.84973
21
2.87376
0
LINE
8
BLACK
6
CONTINUOUS
10
1.84973
20
2.87376
11
1.853
21
2.87232
0
LINE
8
BLACK
6
CONTINUOUS
10
1.853
20
2.87232
11
1.85371
21
2.87212
0
LINE
8
BLACK
6
CONTINUOUS
10
1.85371
20
2.87212
11
1.8542
21
2.87206
0
LINE
8
BLACK
6
CONTINUOUS
10
1.8542
20
2.87206
11
1.85449
21
2.87205
0
LINE
8
BLACK
6
CONTINUOUS
10
1.85449
20
2.87205
11
1.92822
21
2.87205
0
LINE
8
BLACK
6
CONTINUOUS
10
1.92822
20
2.87205
11
1.92882
21
2.87222
0
LINE
8
BLACK
6
CONTINUOUS
10
1.92882
20
2.87222
11
1.92887
21
2.87228
0
LINE
8
BLACK
6
CONTINUOUS
10
1.92887
20
2.87228
11
1.92894
21
2.87258
0
LINE
8
BLACK
6
CONTINUOUS
10
1.92894
20
2.87258
11
1.92894
21
2.88386
0
LINE
8
BLACK
6
CONTINUOUS
10
1.92894
20
2.88386
11
1.8561
21
2.88386
0
LINE
8
BLACK
6
CONTINUOUS
10
1.09626
20
2.88386
11
1.09626
21
2.95669
0
LINE
8
BLACK
6
CONTINUOUS
10
1.09626
20
2.95669
11
1.08516
21
2.95669
0
LINE
8
BLACK
6
CONTINUOUS
10
1.08516
20
2.95669
11
1.08456
21
2.95652
0
LINE
8
BLACK
6
CONTINUOUS
10
1.08456
20
2.95652
11
1.08451
21
2.95646
0
LINE
8
BLACK
6
CONTINUOUS
10
1.08451
20
2.95646
11
1.08445
21
2.95616
0
LINE
8
BLACK
6
CONTINUOUS
10
1.08445
20
2.95616
11
1.08445
21
2.88225
0
LINE
8
BLACK
6
CONTINUOUS
10
1.08445
20
2.88225
11
1.08447
21
2.88196
0
LINE
8
BLACK
6
CONTINUOUS
10
1.08447
20
2.88196
11
1.08453
21
2.88144
0
LINE
8
BLACK
6
CONTINUOUS
10
1.08453
20
2.88144
11
1.08472
21
2.88073
0
LINE
8
BLACK
6
CONTINUOUS
10
1.08472
20
2.88073
11
1.08617
21
2.87747
0
LINE
8
BLACK
6
CONTINUOUS
10
1.08617
20
2.87747
11
1.08668
21
2.87673
0
LINE
8
BLACK
6
CONTINUOUS
10
1.08668
20
2.87673
11
1.08915
21
2.87427
0
LINE
8
BLACK
6
CONTINUOUS
10
1.08915
20
2.87427
11
1.08989
21
2.87376
0
LINE
8
BLACK
6
CONTINUOUS
10
1.08989
20
2.87376
11
1.09315
21
2.87232
0
LINE
8
BLACK
6
CONTINUOUS
10
1.09315
20
2.87232
11
1.09387
21
2.87212
0
LINE
8
BLACK
6
CONTINUOUS
10
1.09387
20
2.87212
11
1.09436
21
2.87206
0
LINE
8
BLACK
6
CONTINUOUS
10
1.09436
20
2.87206
11
1.09465
21
2.87205
0
LINE
8
BLACK
6
CONTINUOUS
10
1.09465
20
2.87205
11
1.16838
21
2.87205
0
LINE
8
BLACK
6
CONTINUOUS
10
1.16838
20
2.87205
11
1.16898
21
2.87222
0
LINE
8
BLACK
6
CONTINUOUS
10
1.16898
20
2.87222
11
1.16903
21
2.87228
0
LINE
8
BLACK
6
CONTINUOUS
10
1.16903
20
2.87228
11
1.16909
21
2.87258
0
LINE
8
BLACK
6
CONTINUOUS
10
1.16909
20
2.87258
11
1.16909
21
2.88386
0
LINE
8
BLACK
6
CONTINUOUS
10
1.16909
20
2.88386
11
1.09626
21
2.88386
0
LINE
8
BLACK
6
CONTINUOUS
10
3.44882
20
2.88583
11
3.44882
21
2.95866
0
LINE
8
BLACK
6
CONTINUOUS
10
3.44882
20
2.95866
11
3.43772
21
2.95866
0
LINE
8
BLACK
6
CONTINUOUS
10
3.43772
20
2.95866
11
3.43712
21
2.95849
0
LINE
8
BLACK
6
CONTINUOUS
10
3.43712
20
2.95849
11
3.43707
21
2.95843
0
LINE
8
BLACK
6
CONTINUOUS
10
3.43707
20
2.95843
11
3.43701
21
2.95813
0
LINE
8
BLACK
6
CONTINUOUS
10
3.43701
20
2.95813
11
3.43701
21
2.88422
0
LINE
8
BLACK
6
CONTINUOUS
10
3.43701
20
2.88422
11
3.43703
21
2.88393
0
LINE
8
BLACK
6
CONTINUOUS
10
3.43703
20
2.88393
11
3.43709
21
2.88341
0
LINE
8
BLACK
6
CONTINUOUS
10
3.43709
20
2.88341
11
3.43728
21
2.8827
0
LINE
8
BLACK
6
CONTINUOUS
10
3.43728
20
2.8827
11
3.43873
21
2.87944
0
LINE
8
BLACK
6
CONTINUOUS
10
3.43873
20
2.87944
11
3.43924
21
2.8787
0
LINE
8
BLACK
6
CONTINUOUS
10
3.43924
20
2.8787
11
3.44171
21
2.87624
0
LINE
8
BLACK
6
CONTINUOUS
10
3.44171
20
2.87624
11
3.44245
21
2.87573
0
LINE
8
BLACK
6
CONTINUOUS
10
3.44245
20
2.87573
11
3.44571
21
2.87428
0
LINE
8
BLACK
6
CONTINUOUS
10
3.44571
20
2.87428
11
3.44643
21
2.87409
0
LINE
8
BLACK
6
CONTINUOUS
10
3.44643
20
2.87409
11
3.44692
21
2.87403
0
LINE
8
BLACK
6
CONTINUOUS
10
3.44692
20
2.87403
11
3.44721
21
2.87402
0
LINE
8
BLACK
6
CONTINUOUS
10
3.44721
20
2.87402
11
3.52094
21
2.87402
0
LINE
8
BLACK
6
CONTINUOUS
10
3.52094
20
2.87402
11
3.52154
21
2.87419
0
LINE
8
BLACK
6
CONTINUOUS
10
3.52154
20
2.87419
11
3.52159
21
2.87425
0
LINE
8
BLACK
6
CONTINUOUS
10
3.52159
20
2.87425
11
3.52165
21
2.87455
0
LINE
8
BLACK
6
CONTINUOUS
10
3.52165
20
2.87455
11
3.52165
21
2.88583
0
LINE
8
BLACK
6
CONTINUOUS
10
3.52165
20
2.88583
11
3.44882
21
2.88583
0
LINE
8
BLACK
6
CONTINUOUS
10
2.68898
20
2.88583
11
2.68898
21
2.95866
0
LINE
8
BLACK
6
CONTINUOUS
10
2.68898
20
2.95866
11
2.67788
21
2.95866
0
LINE
8
BLACK
6
CONTINUOUS
10
2.67788
20
2.95866
11
2.67728
21
2.95849
0
LINE
8
BLACK
6
CONTINUOUS
10
2.67728
20
2.95849
11
2.67723
21
2.95843
0
LINE
8
BLACK
6
CONTINUOUS
10
2.67723
20
2.95843
11
2.67717
21
2.95813
0
LINE
8
BLACK
6
CONTINUOUS
10
2.67717
20
2.95813
11
2.67717
21
2.88422
0
LINE
8
BLACK
6
CONTINUOUS
10
2.67717
20
2.88422
11
2.67718
21
2.88393
0
LINE
8
BLACK
6
CONTINUOUS
10
2.67718
20
2.88393
11
2.67724
21
2.88341
0
LINE
8
BLACK
6
CONTINUOUS
10
2.67724
20
2.88341
11
2.67744
21
2.8827
0
LINE
8
BLACK
6
CONTINUOUS
10
2.67744
20
2.8827
11
2.67889
21
2.87944
0
LINE
8
BLACK
6
CONTINUOUS
10
2.67889
20
2.87944
11
2.6794
21
2.8787
0
LINE
8
BLACK
6
CONTINUOUS
10
2.6794
20
2.8787
11
2.68186
21
2.87624
0
LINE
8
BLACK
6
CONTINUOUS
10
2.68186
20
2.87624
11
2.68261
21
2.87573
0
LINE
8
BLACK
6
CONTINUOUS
10
2.68261
20
2.87573
11
2.68587
21
2.87428
0
LINE
8
BLACK
6
CONTINUOUS
10
2.68587
20
2.87428
11
2.68658
21
2.87409
0
LINE
8
BLACK
6
CONTINUOUS
10
2.68658
20
2.87409
11
2.68708
21
2.87403
0
LINE
8
BLACK
6
CONTINUOUS
10
2.68708
20
2.87403
11
2.68737
21
2.87402
0
LINE
8
BLACK
6
CONTINUOUS
10
2.68737
20
2.87402
11
2.7611
21
2.87402
0
LINE
8
BLACK
6
CONTINUOUS
10
2.7611
20
2.87402
11
2.7617
21
2.87419
0
LINE
8
BLACK
6
CONTINUOUS
10
2.7617
20
2.87419
11
2.76175
21
2.87425
0
LINE
8
BLACK
6
CONTINUOUS
10
2.76175
20
2.87425
11
2.76181
21
2.87455
0
LINE
8
BLACK
6
CONTINUOUS
10
2.76181
20
2.87455
11
2.76181
21
2.88583
0
LINE
8
BLACK
6
CONTINUOUS
10
2.76181
20
2.88583
11
2.68898
21
2.88583
0
LINE
8
BLACK
6
CONTINUOUS
10
1.18114
20
2.87211
11
1.18144
21
2.87205
0
LINE
8
BLACK
6
CONTINUOUS
10
1.18144
20
2.87205
11
1.25535
21
2.87205
0
LINE
8
BLACK
6
CONTINUOUS
10
1.25535
20
2.87205
11
1.25564
21
2.87206
0
LINE
8
BLACK
6
CONTINUOUS
10
1.25564
20
2.87206
11
1.25615
21
2.87213
0
LINE
8
BLACK
6
CONTINUOUS
10
1.25615
20
2.87213
11
1.25687
21
2.87232
0
LINE
8
BLACK
6
CONTINUOUS
10
1.25687
20
2.87232
11
1.26013
21
2.87377
0
LINE
8
BLACK
6
CONTINUOUS
10
1.26013
20
2.87377
11
1.26087
21
2.87428
0
LINE
8
BLACK
6
CONTINUOUS
10
1.26087
20
2.87428
11
1.26333
21
2.87675
0
LINE
8
BLACK
6
CONTINUOUS
10
1.26333
20
2.87675
11
1.26384
21
2.87749
0
LINE
8
BLACK
6
CONTINUOUS
10
1.26384
20
2.87749
11
1.26528
21
2.88075
0
LINE
8
BLACK
6
CONTINUOUS
10
1.26528
20
2.88075
11
1.26548
21
2.88146
0
LINE
8
BLACK
6
CONTINUOUS
10
1.26548
20
2.88146
11
1.26553
21
2.88196
0
LINE
8
BLACK
6
CONTINUOUS
10
1.26553
20
2.88196
11
1.26555
21
2.88225
0
LINE
8
BLACK
6
CONTINUOUS
10
1.26555
20
2.88225
11
1.26555
21
2.95598
0
LINE
8
BLACK
6
CONTINUOUS
10
1.26555
20
2.95598
11
1.26537
21
2.95658
0
LINE
8
BLACK
6
CONTINUOUS
10
1.26537
20
2.95658
11
1.26532
21
2.95663
0
LINE
8
BLACK
6
CONTINUOUS
10
1.26532
20
2.95663
11
1.26502
21
2.95669
0
LINE
8
BLACK
6
CONTINUOUS
10
1.26502
20
2.95669
11
1.25374
21
2.95669
0
LINE
8
BLACK
6
CONTINUOUS
10
1.25374
20
2.95669
11
1.25374
21
2.88386
0
LINE
8
BLACK
6
CONTINUOUS
10
1.25374
20
2.88386
11
1.18091
21
2.88386
0
LINE
8
BLACK
6
CONTINUOUS
10
1.18091
20
2.88386
11
1.18091
21
2.87276
0
LINE
8
BLACK
6
CONTINUOUS
10
1.18091
20
2.87276
11
1.18108
21
2.87216
0
LINE
8
BLACK
6
CONTINUOUS
10
1.18108
20
2.87216
11
1.18114
21
2.87211
0
LINE
8
BLACK
6
CONTINUOUS
10
0.421294
20
2.87211
11
0.421596
21
2.87205
0
LINE
8
BLACK
6
CONTINUOUS
10
0.421596
20
2.87205
11
0.495506
21
2.87205
0
LINE
8
BLACK
6
CONTINUOUS
10
0.495506
20
2.87205
11
0.495799
21
2.87206
0
LINE
8
BLACK
6
CONTINUOUS
10
0.495799
20
2.87206
11
0.496312
21
2.87213
0
LINE
8
BLACK
6
CONTINUOUS
10
0.496312
20
2.87213
11
0.497023
21
2.87232
0
LINE
8
BLACK
6
CONTINUOUS
10
0.497023
20
2.87232
11
0.500285
21
2.87377
0
LINE
8
BLACK
6
CONTINUOUS
10
0.500285
20
2.87377
11
0.501027
21
2.87428
0
LINE
8
BLACK
6
CONTINUOUS
10
0.501027
20
2.87428
11
0.503488
21
2.87675
0
LINE
8
BLACK
6
CONTINUOUS
10
0.503488
20
2.87675
11
0.503997
21
2.87749
0
LINE
8
BLACK
6
CONTINUOUS
10
0.503997
20
2.87749
11
0.50544
21
2.88075
0
LINE
8
BLACK
6
CONTINUOUS
10
0.50544
20
2.88075
11
0.505634
21
2.88146
0
LINE
8
BLACK
6
CONTINUOUS
10
0.505634
20
2.88146
11
0.505692
21
2.88196
0
LINE
8
BLACK
6
CONTINUOUS
10
0.505692
20
2.88196
11
0.505709
21
2.88225
0
LINE
8
BLACK
6
CONTINUOUS
10
0.505709
20
2.88225
11
0.505709
21
2.95598
0
LINE
8
BLACK
6
CONTINUOUS
10
0.505709
20
2.95598
11
0.505532
21
2.95658
0
LINE
8
BLACK
6
CONTINUOUS
10
0.505532
20
2.95658
11
0.505478
21
2.95663
0
LINE
8
BLACK
6
CONTINUOUS
10
0.505478
20
2.95663
11
0.505175
21
2.95669
0
LINE
8
BLACK
6
CONTINUOUS
10
0.505175
20
2.95669
11
0.493898
21
2.95669
0
LINE
8
BLACK
6
CONTINUOUS
10
0.493898
20
2.95669
11
0.493898
21
2.88386
0
LINE
8
BLACK
6
CONTINUOUS
10
0.493898
20
2.88386
11
0.421063
21
2.88386
0
LINE
8
BLACK
6
CONTINUOUS
10
0.421063
20
2.88386
11
0.421063
21
2.87276
0
LINE
8
BLACK
6
CONTINUOUS
10
0.421063
20
2.87276
11
0.421239
21
2.87216
0
LINE
8
BLACK
6
CONTINUOUS
10
0.421239
20
2.87216
11
0.421294
21
2.87211
0
LINE
8
BLACK
6
CONTINUOUS
10
2.77385
20
2.87408
11
2.77416
21
2.87402
0
LINE
8
BLACK
6
CONTINUOUS
10
2.77416
20
2.87402
11
2.84806
21
2.87402
0
LINE
8
BLACK
6
CONTINUOUS
10
2.84806
20
2.87402
11
2.84836
21
2.87403
0
LINE
8
BLACK
6
CONTINUOUS
10
2.84836
20
2.87403
11
2.84887
21
2.87409
0
LINE
8
BLACK
6
CONTINUOUS
10
2.84887
20
2.87409
11
2.84958
21
2.87429
0
LINE
8
BLACK
6
CONTINUOUS
10
2.84958
20
2.87429
11
2.85284
21
2.87574
0
LINE
8
BLACK
6
CONTINUOUS
10
2.85284
20
2.87574
11
2.85359
21
2.87625
0
LINE
8
BLACK
6
CONTINUOUS
10
2.85359
20
2.87625
11
2.85605
21
2.87871
0
LINE
8
BLACK
6
CONTINUOUS
10
2.85605
20
2.87871
11
2.85656
21
2.87946
0
LINE
8
BLACK
6
CONTINUOUS
10
2.85656
20
2.87946
11
2.858
21
2.88272
0
LINE
8
BLACK
6
CONTINUOUS
10
2.858
20
2.88272
11
2.85819
21
2.88343
0
LINE
8
BLACK
6
CONTINUOUS
10
2.85819
20
2.88343
11
2.85825
21
2.88393
0
LINE
8
BLACK
6
CONTINUOUS
10
2.85825
20
2.88393
11
2.85827
21
2.88422
0
LINE
8
BLACK
6
CONTINUOUS
10
2.85827
20
2.88422
11
2.85827
21
2.95795
0
LINE
8
BLACK
6
CONTINUOUS
10
2.85827
20
2.95795
11
2.85809
21
2.95855
0
LINE
8
BLACK
6
CONTINUOUS
10
2.85809
20
2.95855
11
2.85804
21
2.9586
0
LINE
8
BLACK
6
CONTINUOUS
10
2.85804
20
2.9586
11
2.85773
21
2.95866
0
LINE
8
BLACK
6
CONTINUOUS
10
2.85773
20
2.95866
11
2.84646
21
2.95866
0
LINE
8
BLACK
6
CONTINUOUS
10
2.84646
20
2.95866
11
2.84646
21
2.88583
0
LINE
8
BLACK
6
CONTINUOUS
10
2.84646
20
2.88583
11
2.77362
21
2.88583
0
LINE
8
BLACK
6
CONTINUOUS
10
2.77362
20
2.88583
11
2.77362
21
2.87473
0
LINE
8
BLACK
6
CONTINUOUS
10
2.77362
20
2.87473
11
2.7738
21
2.87413
0
LINE
8
BLACK
6
CONTINUOUS
10
2.7738
20
2.87413
11
2.77385
21
2.87408
0
LINE
8
BLACK
6
CONTINUOUS
10
1.94098
20
2.87211
11
1.94128
21
2.87205
0
LINE
8
BLACK
6
CONTINUOUS
10
1.94128
20
2.87205
11
2.01519
21
2.87205
0
LINE
8
BLACK
6
CONTINUOUS
10
2.01519
20
2.87205
11
2.01548
21
2.87206
0
LINE
8
BLACK
6
CONTINUOUS
10
2.01548
20
2.87206
11
2.016
21
2.87213
0
LINE
8
BLACK
6
CONTINUOUS
10
2.016
20
2.87213
11
2.01671
21
2.87232
0
LINE
8
BLACK
6
CONTINUOUS
10
2.01671
20
2.87232
11
2.01997
21
2.87377
0
LINE
8
BLACK
6
CONTINUOUS
10
2.01997
20
2.87377
11
2.02071
21
2.87428
0
LINE
8
BLACK
6
CONTINUOUS
10
2.02071
20
2.87428
11
2.02317
21
2.87675
0
LINE
8
BLACK
6
CONTINUOUS
10
2.02317
20
2.87675
11
2.02368
21
2.87749
0
LINE
8
BLACK
6
CONTINUOUS
10
2.02368
20
2.87749
11
2.02513
21
2.88075
0
LINE
8
BLACK
6
CONTINUOUS
10
2.02513
20
2.88075
11
2.02532
21
2.88146
0
LINE
8
BLACK
6
CONTINUOUS
10
2.02532
20
2.88146
11
2.02538
21
2.88196
0
LINE
8
BLACK
6
CONTINUOUS
10
2.02538
20
2.88196
11
2.02539
21
2.88225
0
LINE
8
BLACK
6
CONTINUOUS
10
2.02539
20
2.88225
11
2.02539
21
2.95598
0
LINE
8
BLACK
6
CONTINUOUS
10
2.02539
20
2.95598
11
2.02522
21
2.95658
0
LINE
8
BLACK
6
CONTINUOUS
10
2.02522
20
2.95658
11
2.02516
21
2.95663
0
LINE
8
BLACK
6
CONTINUOUS
10
2.02516
20
2.95663
11
2.02486
21
2.95669
0
LINE
8
BLACK
6
CONTINUOUS
10
2.02486
20
2.95669
11
2.01358
21
2.95669
0
LINE
8
BLACK
6
CONTINUOUS
10
2.01358
20
2.95669
11
2.01358
21
2.88386
0
LINE
8
BLACK
6
CONTINUOUS
10
2.01358
20
2.88386
11
1.94075
21
2.88386
0
LINE
8
BLACK
6
CONTINUOUS
10
1.94075
20
2.88386
11
1.94075
21
2.87276
0
LINE
8
BLACK
6
CONTINUOUS
10
1.94075
20
2.87276
11
1.94092
21
2.87216
0
LINE
8
BLACK
6
CONTINUOUS
10
1.94092
20
2.87216
11
1.94098
21
2.87211
0
CIRCLE
8
BLACK
10
3.29
20
0.875
40
0.00787402
0
CIRCLE
8
BLACK
10
1.13091
20
2.82
40
0.00787402
0
CIRCLE
8
BLACK
10
0.970455
20
2.82
40
0.00787402
0
CIRCLE
8
BLACK
10
3.365
20
0.91
40
0.00787402
0
CIRCLE
8
BLACK
10
3.45409
20
1.66
40
0.00787402
0
CIRCLE
8
BLACK
10
1.75955
20
0.54
40
0.00787402
0
CIRCLE
8
BLACK
10
3.13318
20
1.66
40
0.00787402
0
CIRCLE
8
BLACK
10
2.24091
20
0.54
40
0.00787402
0
CIRCLE
8
BLACK
10
2.895
20
0.86
40
0.00787402
0
CIRCLE
8
BLACK
10
3.325
20
1.12
40
0.00787402
0
CIRCLE
8
BLACK
10
3.44
20
0.91
40
0.00787402
0
CIRCLE
8
BLACK
10
3.53773
20
2.82
40
0.00787402
0
CIRCLE
8
BLACK
10
1.36818
20
1.66
40
0.00787402
0
CIRCLE
8
BLACK
10
3.0075
20
0.895
40
0.00787402
0
CIRCLE
8
BLACK
10
3.775
20
1.66
40
0.00787402
0
CIRCLE
8
BLACK
10
3.305
20
0.69
40
0.00787402
0
CIRCLE
8
BLACK
10
0.636364
20
0.54
40
0.00787402
0
CIRCLE
8
BLACK
10
0.726364
20
1.66
40
0.00787402
0
CIRCLE
8
BLACK
10
2.41455
20
2.82
40
0.00787402
0
CIRCLE
8
BLACK
10
3.2525
20
0.875
40
0.00787402
0
CIRCLE
8
BLACK
10
3.44
20
0.875
40
0.00787402
0
CIRCLE
8
BLACK
10
2.91
20
1.3
40
0.00787402
0
CIRCLE
8
BLACK
10
3.29364
20
1.66
40
0.00787402
0
CIRCLE
8
BLACK
10
2.01
20
1.66
40
0.00787402
0
CIRCLE
8
BLACK
10
3.275
20
0.72
40
0.00787402
0
CIRCLE
8
BLACK
10
2.92
20
0.08
40
0.00787402
0
CIRCLE
8
BLACK
10
0.925
20
0.08
40
0.00787402
0
CIRCLE
8
BLACK
10
2.81227
20
1.66
40
0.00787402
0
CIRCLE
8
BLACK
10
3.17
20
0.78
40
0.00787402
0
CIRCLE
8
BLACK
10
1.27818
20
0.54
40
0.00787402
0
CIRCLE
8
BLACK
10
2.9325
20
0.86
40
0.00787402
0
CIRCLE
8
BLACK
10
2.4975
20
0.08
40
0.00787402
0
CIRCLE
8
BLACK
10
3.295
20
1.09
40
0.00787402
0
CIRCLE
8
BLACK
10
0.81
20
0.08
40
0.00787402
0
CIRCLE
8
BLACK
10
3.205
20
1
40
0.00787402
0
CIRCLE
8
BLACK
10
3.52455
20
0.54
40
0.00787402
0
CIRCLE
8
BLACK
10
3.215
20
0.91
40
0.00787402
0
CIRCLE
8
BLACK
10
1.76
20
0.08
40
0.00787402
0
CIRCLE
8
BLACK
10
3.84545
20
0.54
40
0.00787402
0
CIRCLE
8
BLACK
10
3.29
20
0.61
40
0.00787402
0
CIRCLE
8
BLACK
10
0.475909
20
0.54
40
0.00787402
0
CIRCLE
8
BLACK
10
3.25
20
0.69
40
0.00787402
0
CIRCLE
8
BLACK
10
3.255
20
1.095
40
0.00787402
0
CIRCLE
8
BLACK
10
3.165
20
1
40
0.00787402
0
CIRCLE
8
BLACK
10
2.97273
20
1.66
40
0.00787402
0
CIRCLE
8
BLACK
10
3.295
20
1.215
40
0.00787402
0
CIRCLE
8
BLACK
10
2.88273
20
0.54
40
0.00787402
0
CIRCLE
8
BLACK
10
3.4025
20
0.875
40
0.00787402
0
CIRCLE
8
BLACK
10
2.17045
20
1.66
40
0.00787402
0
CIRCLE
8
BLACK
10
2.63
20
0.08
40
0.00787402
0
CIRCLE
8
BLACK
10
3.25
20
0.65
40
0.00787402
0
CIRCLE
8
BLACK
10
3.255
20
1.295
40
0.00787402
0
CIRCLE
8
BLACK
10
1.93318
20
2.82
40
0.00787402
0
CIRCLE
8
BLACK
10
3.235
20
1.03
40
0.00787402
0
CIRCLE
8
BLACK
10
0.315455
20
0.54
40
0.00787402
0
CIRCLE
8
BLACK
10
3.21682
20
2.82
40
0.00787402
0
CIRCLE
8
BLACK
10
3.21
20
0.78
40
0.00787402
0
CIRCLE
8
BLACK
10
2.72227
20
0.54
40
0.00787402
0
CIRCLE
8
BLACK
10
2.91
20
1.26
40
0.00787402
0
CIRCLE
8
BLACK
10
3.29
20
0.91
40
0.00787402
0
CIRCLE
8
BLACK
10
1.20773
20
1.66
40
0.00787402
0
CIRCLE
8
BLACK
10
3
20
0.985
40
0.00787402
0
CIRCLE
8
BLACK
10
3.29
20
0.65
40
0.00787402
0
CIRCLE
8
BLACK
10
1.68909
20
1.66
40
0.00787402
0
CIRCLE
8
BLACK
10
2.09364
20
2.82
40
0.00787402
0
CIRCLE
8
BLACK
10
2.895
20
0.895
40
0.00787402
0
CIRCLE
8
BLACK
10
3.3275
20
0.875
40
0.00787402
0
CIRCLE
8
BLACK
10
3.335
20
0.66
40
0.00787402
0
CIRCLE
8
BLACK
10
3.3275
20
0.91
40
0.00787402
0
CIRCLE
8
BLACK
10
3.265
20
1.06
40
0.00787402
0
CIRCLE
8
BLACK
10
1.59909
20
0.54
40
0.00787402
0
CIRCLE
8
BLACK
10
3.255
20
1.175
40
0.00787402
0
CIRCLE
8
BLACK
10
3.365
20
0.875
40
0.00787402
0
CIRCLE
8
BLACK
10
3.005
20
1.055
40
0.00787402
0
CIRCLE
8
BLACK
10
2.91
20
1.18
40
0.00787402
0
CIRCLE
8
BLACK
10
3.04
20
0.985
40
0.00787402
0
CIRCLE
8
BLACK
10
2.995
20
1.02
40
0.00787402
0
CIRCLE
8
BLACK
10
1.04
20
0.08
40
0.00787402
0
CIRCLE
8
BLACK
10
3.8
20
0.08
40
0.00787402
0
CIRCLE
8
BLACK
10
1.6475
20
0.08
40
0.00787402
0
CIRCLE
8
BLACK
10
2.1
20
0.08
40
0.00787402
0
CIRCLE
8
BLACK
10
2.49136
20
1.66
40
0.00787402
0
CIRCLE
8
BLACK
10
2.97
20
0.895
40
0.00787402
0
CIRCLE
8
BLACK
10
3.685
20
0.54
40
0.00787402
0
CIRCLE
8
BLACK
10
3.69818
20
2.82
40
0.00787402
0
CIRCLE
8
BLACK
10
1.45182
20
2.82
40
0.00787402
0
CIRCLE
8
BLACK
10
3.37727
20
2.82
40
0.00787402
0
CIRCLE
8
BLACK
10
3.61455
20
1.66
40
0.00787402
0
CIRCLE
8
BLACK
10
3.06667
20
0.08
40
0.00787402
0
CIRCLE
8
BLACK
10
1.43864
20
0.54
40
0.00787402
0
CIRCLE
8
BLACK
10
3.295
20
1.175
40
0.00787402
0
CIRCLE
8
BLACK
10
0.405455
20
1.66
40
0.00787402
0
CIRCLE
8
BLACK
10
2.08045
20
0.54
40
0.00787402
0
CIRCLE
8
BLACK
10
2.33091
20
1.66
40
0.00787402
0
CIRCLE
8
BLACK
10
0.695
20
0.08
40
0.00787402
0
CIRCLE
8
BLACK
10
3.255
20
1.215
40
0.00787402
0
CIRCLE
8
BLACK
10
2.97
20
0.86
40
0.00787402
0
CIRCLE
8
BLACK
10
2.89591
20
2.82
40
0.00787402
0
CIRCLE
8
BLACK
10
1.84955
20
1.66
40
0.00787402
0
CIRCLE
8
BLACK
10
3.215
20
0.875
40
0.00787402
0
CIRCLE
8
BLACK
10
2.56182
20
0.54
40
0.00787402
0
CIRCLE
8
BLACK
10
0.81
20
2.82
40
0.00787402
0
CIRCLE
8
BLACK
10
2.40136
20
0.54
40
0.00787402
0
CIRCLE
8
BLACK
10
2.365
20
0.08
40
0.00787402
0
CIRCLE
8
BLACK
10
0.565909
20
1.66
40
0.00787402
0
CIRCLE
8
BLACK
10
3.255
20
1.135
40
0.00787402
0
CIRCLE
8
BLACK
10
3.25
20
0.61
40
0.00787402
0
CIRCLE
8
BLACK
10
2.25409
20
2.82
40
0.00787402
0
CIRCLE
8
BLACK
10
2.575
20
2.82
40
0.00787402
0
CIRCLE
8
BLACK
10
3.36409
20
0.54
40
0.00787402
0
CIRCLE
8
BLACK
10
0.58
20
0.08
40
0.00787402
0
CIRCLE
8
BLACK
10
1.92
20
0.54
40
0.00787402
0
CIRCLE
8
BLACK
10
1.4225
20
0.08
40
0.00787402
0
CIRCLE
8
BLACK
10
3.4025
20
0.91
40
0.00787402
0
CIRCLE
8
BLACK
10
3.295
20
1.255
40
0.00787402
0
CIRCLE
8
BLACK
10
1.61227
20
2.82
40
0.00787402
0
CIRCLE
8
BLACK
10
1.29136
20
2.82
40
0.00787402
0
CIRCLE
8
BLACK
10
0.957273
20
0.54
40
0.00787402
0
CIRCLE
8
BLACK
10
3.04318
20
0.54
40
0.00787402
0
CIRCLE
8
BLACK
10
0.796818
20
0.54
40
0.00787402
0
CIRCLE
8
BLACK
10
1.31
20
0.08
40
0.00787402
0
CIRCLE
8
BLACK
10
2.73545
20
2.82
40
0.00787402
0
CIRCLE
8
BLACK
10
0.649545
20
2.82
40
0.00787402
0
CIRCLE
8
BLACK
10
2.2325
20
0.08
40
0.00787402
0
CIRCLE
8
BLACK
10
3.245
20
0.75
40
0.00787402
0
CIRCLE
8
BLACK
10
0.245
20
1.66
40
0.00787402
0
CIRCLE
8
BLACK
10
3.67
20
0.08
40
0.00787402
0
CIRCLE
8
BLACK
10
2.91
20
1.1
40
0.00787402
0
CIRCLE
8
BLACK
10
1.535
20
0.08
40
0.00787402
0
CIRCLE
8
BLACK
10
1.52864
20
1.66
40
0.00787402
0
CIRCLE
8
BLACK
10
0.886818
20
1.66
40
0.00787402
0
CIRCLE
8
BLACK
10
3.2525
20
0.91
40
0.00787402
0
CIRCLE
8
BLACK
10
3.03
20
1.02
40
0.00787402
0
CIRCLE
8
BLACK
10
3.20364
20
0.54
40
0.00787402
0
CIRCLE
8
BLACK
10
1.04727
20
1.66
40
0.00787402
0
CIRCLE
8
BLACK
10
1.77273
20
2.82
40
0.00787402
0
CIRCLE
8
BLACK
10
3.21333
20
0.08
40
0.00787402
0
CIRCLE
8
BLACK
10
3.0075
20
0.86
40
0.00787402
0
CIRCLE
8
BLACK
10
0.168182
20
2.82
40
0.00787402
0
CIRCLE
8
BLACK
10
2.65182
20
1.66
40
0.00787402
0
CIRCLE
8
BLACK
10
1.11773
20
0.54
40
0.00787402
0
CIRCLE
8
BLACK
10
3.295
20
1.295
40
0.00787402
0
CIRCLE
8
BLACK
10
2.91
20
1.14
40
0.00787402
0
CIRCLE
8
BLACK
10
3.36
20
0.08
40
0.00787402
0
CIRCLE
8
BLACK
10
3.05636
20
2.82
40
0.00787402
0
CIRCLE
8
BLACK
10
0.328636
20
2.82
40
0.00787402
0
CIRCLE
8
BLACK
10
3.295
20
1.135
40
0.00787402
0
CIRCLE
8
BLACK
10
3.255
20
1.255
40
0.00787402
0
CIRCLE
8
BLACK
10
2.9325
20
0.895
40
0.00787402
0
CIRCLE
8
BLACK
10
2.91
20
1.22
40
0.00787402
0
CIRCLE
8
BLACK
10
0.489091
20
2.82
40
0.00787402
  0
ENDSEC
  0
EOF
