  0
SECTION
  2
HEADER
  9
$ANGBASE
  50
0.0
  9
$ANGDIR
  70
1
  9
$MEASUREMENT
  70
0
  0
ENDSEC
  0
SECTION
  2
TABLES
  0
TABLE
  2
LTYPE
  70
4
  0
LTYPE
  5
40F
  2
CONTINUOUS
  70
0
  3
Solid line
  72
65
  73
0
  40
0.0
  0
LTYPE
  5
410
  2
DASHDOT
 70
0
  3
Dash Dot ____ _ ____ _
 72
65
 73
4
 40
2.0
 49
1.25
 49
-0.25
 49
0.25
 49
-0.25
  0
LTYPE
  5
411
  2
DASHED
 70
0
  3
Dashed __ __ __ __ __
 72
65
 73
2
 40
0.75
 49
0.5
 49
-0.25
  0
LTYPE
  5
43B
  2
DOTTED
 70
0
  3
Dotted .  .  .  .
 72
65
 73
2
 40
0.2
 49
0.0
 49
-0.2
  0
ENDTAB
  0
TABLE
  2
STYLE
  70
4
  0
STYLE
  2
KICAD
  70
0
  40
0
  41
1
  42
1
  50
0
  71
0
  3
isocp.shx
  0
STYLE
  2
KICADB
  70
0
  40
0
  41
1
  42
1
  50
0
  71
0
  3
isocp.shx
  0
STYLE
  2
KICADI
  70
0
  40
0
  41
1
  42
1
  50
15
  71
0
  3
isocp.shx
  0
STYLE
  2
KICADBI
  70
0
  40
0
  41
1
  42
1
  50
15
  71
0
  3
isocp.shx
  0
ENDTAB
  0
TABLE
  2
LAYER
  70
1
  0
LAYER
  2
BLACK
  70
0
  62
7
  6
CONTINUOUS
  0
ENDTAB
  0
ENDSEC
  0
SECTION
  2
ENTITIES
0
LINE
8
BLACK
6
CONTINUOUS
10
-0.00176776
20
0.00413776
11
-0.0025
21
0.00590551
0
LINE
8
BLACK
6
CONTINUOUS
10
-0.0025
20
0.00590551
11
-0.0025
21
3.06496
0
LINE
8
BLACK
6
CONTINUOUS
10
-0.0025
20
3.06496
11
-0.00176776
21
3.06673
0
LINE
8
BLACK
6
CONTINUOUS
10
-0.00176776
20
3.06673
11
0
21
3.06746
0
LINE
8
BLACK
6
CONTINUOUS
10
0
20
3.06746
11
2.35
21
3.06746
0
LINE
8
BLACK
6
CONTINUOUS
10
2.35
20
3.06746
11
2.35177
21
3.06673
0
LINE
8
BLACK
6
CONTINUOUS
10
2.35177
20
3.06673
11
2.3525
21
3.06496
0
LINE
8
BLACK
6
CONTINUOUS
10
2.3525
20
3.06496
11
2.3525
21
0.00590551
0
LINE
8
BLACK
6
CONTINUOUS
10
2.3525
20
0.00590551
11
2.35177
21
0.00413776
0
LINE
8
BLACK
6
CONTINUOUS
10
2.35177
20
0.00413776
11
2.35
21
0.00340551
0
LINE
8
BLACK
6
CONTINUOUS
10
2.35
20
0.00340551
11
0
21
0.00340551
0
LINE
8
BLACK
6
CONTINUOUS
10
0
20
0.00340551
11
-0.00176776
21
0.00413776
0
LINE
8
BLACK
6
CONTINUOUS
10
0.0025
20
3.06246
11
0.0025
21
0.00840551
0
LINE
8
BLACK
6
CONTINUOUS
10
0.0025
20
0.00840551
11
2.3475
21
0.00840551
0
LINE
8
BLACK
6
CONTINUOUS
10
2.3475
20
0.00840551
11
2.3475
21
3.06246
0
LINE
8
BLACK
6
CONTINUOUS
10
2.3475
20
3.06246
11
0.0025
21
3.06246
0
LINE
8
BLACK
6
CONTINUOUS
10
0.423967
20
0.667743
11
0.424719
21
0.665429
0
LINE
8
BLACK
6
CONTINUOUS
10
0.424719
20
0.665429
11
0.424719
21
0.63937
0
LINE
8
BLACK
6
CONTINUOUS
10
0.424719
20
0.63937
11
0.450778
21
0.63937
0
LINE
8
BLACK
6
CONTINUOUS
10
0.450778
20
0.63937
11
0.453092
21
0.638618
0
LINE
8
BLACK
6
CONTINUOUS
10
0.453092
20
0.638618
11
0.454522
21
0.63665
0
LINE
8
BLACK
6
CONTINUOUS
10
0.454522
20
0.63665
11
0.454522
21
0.634216
0
LINE
8
BLACK
6
CONTINUOUS
10
0.454522
20
0.634216
11
0.453092
21
0.632248
0
LINE
8
BLACK
6
CONTINUOUS
10
0.453092
20
0.632248
11
0.450778
21
0.631496
0
LINE
8
BLACK
6
CONTINUOUS
10
0.450778
20
0.631496
11
0.424719
21
0.631496
0
LINE
8
BLACK
6
CONTINUOUS
10
0.424719
20
0.631496
11
0.424719
21
0.605437
0
LINE
8
BLACK
6
CONTINUOUS
10
0.424719
20
0.605437
11
0.423967
21
0.603123
0
LINE
8
BLACK
6
CONTINUOUS
10
0.423967
20
0.603123
11
0.421998
21
0.601693
0
LINE
8
BLACK
6
CONTINUOUS
10
0.421998
20
0.601693
11
0.419565
21
0.601693
0
LINE
8
BLACK
6
CONTINUOUS
10
0.419565
20
0.601693
11
0.417597
21
0.603123
0
LINE
8
BLACK
6
CONTINUOUS
10
0.417597
20
0.603123
11
0.416845
21
0.605437
0
LINE
8
BLACK
6
CONTINUOUS
10
0.416845
20
0.605437
11
0.416845
21
0.631496
0
LINE
8
BLACK
6
CONTINUOUS
10
0.416845
20
0.631496
11
0.390786
21
0.631496
0
LINE
8
BLACK
6
CONTINUOUS
10
0.390786
20
0.631496
11
0.388471
21
0.632248
0
LINE
8
BLACK
6
CONTINUOUS
10
0.388471
20
0.632248
11
0.387041
21
0.634216
0
LINE
8
BLACK
6
CONTINUOUS
10
0.387041
20
0.634216
11
0.387041
21
0.63665
0
LINE
8
BLACK
6
CONTINUOUS
10
0.387041
20
0.63665
11
0.388471
21
0.638618
0
LINE
8
BLACK
6
CONTINUOUS
10
0.388471
20
0.638618
11
0.390786
21
0.63937
0
LINE
8
BLACK
6
CONTINUOUS
10
0.390786
20
0.63937
11
0.416845
21
0.63937
0
LINE
8
BLACK
6
CONTINUOUS
10
0.416845
20
0.63937
11
0.416845
21
0.665429
0
LINE
8
BLACK
6
CONTINUOUS
10
0.416845
20
0.665429
11
0.417597
21
0.667743
0
LINE
8
BLACK
6
CONTINUOUS
10
0.417597
20
0.667743
11
0.419565
21
0.669174
0
LINE
8
BLACK
6
CONTINUOUS
10
0.419565
20
0.669174
11
0.421998
21
0.669174
0
LINE
8
BLACK
6
CONTINUOUS
10
0.421998
20
0.669174
11
0.423967
21
0.667743
0
LINE
8
BLACK
6
CONTINUOUS
10
1.94365
20
0.667743
11
1.9444
21
0.665429
0
LINE
8
BLACK
6
CONTINUOUS
10
1.9444
20
0.665429
11
1.9444
21
0.63937
0
LINE
8
BLACK
6
CONTINUOUS
10
1.9444
20
0.63937
11
1.97046
21
0.63937
0
LINE
8
BLACK
6
CONTINUOUS
10
1.97046
20
0.63937
11
1.97278
21
0.638618
0
LINE
8
BLACK
6
CONTINUOUS
10
1.97278
20
0.638618
11
1.97421
21
0.63665
0
LINE
8
BLACK
6
CONTINUOUS
10
1.97421
20
0.63665
11
1.97421
21
0.634216
0
LINE
8
BLACK
6
CONTINUOUS
10
1.97421
20
0.634216
11
1.97278
21
0.632248
0
LINE
8
BLACK
6
CONTINUOUS
10
1.97278
20
0.632248
11
1.97046
21
0.631496
0
LINE
8
BLACK
6
CONTINUOUS
10
1.97046
20
0.631496
11
1.9444
21
0.631496
0
LINE
8
BLACK
6
CONTINUOUS
10
1.9444
20
0.631496
11
1.9444
21
0.605437
0
LINE
8
BLACK
6
CONTINUOUS
10
1.9444
20
0.605437
11
1.94365
21
0.603123
0
LINE
8
BLACK
6
CONTINUOUS
10
1.94365
20
0.603123
11
1.94168
21
0.601693
0
LINE
8
BLACK
6
CONTINUOUS
10
1.94168
20
0.601693
11
1.93925
21
0.601693
0
LINE
8
BLACK
6
CONTINUOUS
10
1.93925
20
0.601693
11
1.93728
21
0.603123
0
LINE
8
BLACK
6
CONTINUOUS
10
1.93728
20
0.603123
11
1.93653
21
0.605437
0
LINE
8
BLACK
6
CONTINUOUS
10
1.93653
20
0.605437
11
1.93653
21
0.631496
0
LINE
8
BLACK
6
CONTINUOUS
10
1.93653
20
0.631496
11
1.91047
21
0.631496
0
LINE
8
BLACK
6
CONTINUOUS
10
1.91047
20
0.631496
11
1.90816
21
0.632248
0
LINE
8
BLACK
6
CONTINUOUS
10
1.90816
20
0.632248
11
1.90673
21
0.634216
0
LINE
8
BLACK
6
CONTINUOUS
10
1.90673
20
0.634216
11
1.90673
21
0.63665
0
LINE
8
BLACK
6
CONTINUOUS
10
1.90673
20
0.63665
11
1.90816
21
0.638618
0
LINE
8
BLACK
6
CONTINUOUS
10
1.90816
20
0.638618
11
1.91047
21
0.63937
0
LINE
8
BLACK
6
CONTINUOUS
10
1.91047
20
0.63937
11
1.93653
21
0.63937
0
LINE
8
BLACK
6
CONTINUOUS
10
1.93653
20
0.63937
11
1.93653
21
0.665429
0
LINE
8
BLACK
6
CONTINUOUS
10
1.93653
20
0.665429
11
1.93728
21
0.667743
0
LINE
8
BLACK
6
CONTINUOUS
10
1.93728
20
0.667743
11
1.93925
21
0.669174
0
LINE
8
BLACK
6
CONTINUOUS
10
1.93925
20
0.669174
11
1.94168
21
0.669174
0
LINE
8
BLACK
6
CONTINUOUS
10
1.94168
20
0.669174
11
1.94365
21
0.667743
0
LINE
8
BLACK
6
CONTINUOUS
10
1.18381
20
0.667743
11
1.18456
21
0.665429
0
LINE
8
BLACK
6
CONTINUOUS
10
1.18456
20
0.665429
11
1.18456
21
0.63937
0
LINE
8
BLACK
6
CONTINUOUS
10
1.18456
20
0.63937
11
1.21062
21
0.63937
0
LINE
8
BLACK
6
CONTINUOUS
10
1.21062
20
0.63937
11
1.21293
21
0.638618
0
LINE
8
BLACK
6
CONTINUOUS
10
1.21293
20
0.638618
11
1.21436
21
0.63665
0
LINE
8
BLACK
6
CONTINUOUS
10
1.21436
20
0.63665
11
1.21436
21
0.634216
0
LINE
8
BLACK
6
CONTINUOUS
10
1.21436
20
0.634216
11
1.21293
21
0.632248
0
LINE
8
BLACK
6
CONTINUOUS
10
1.21293
20
0.632248
11
1.21062
21
0.631496
0
LINE
8
BLACK
6
CONTINUOUS
10
1.21062
20
0.631496
11
1.18456
21
0.631496
0
LINE
8
BLACK
6
CONTINUOUS
10
1.18456
20
0.631496
11
1.18456
21
0.605437
0
LINE
8
BLACK
6
CONTINUOUS
10
1.18456
20
0.605437
11
1.18381
21
0.603123
0
LINE
8
BLACK
6
CONTINUOUS
10
1.18381
20
0.603123
11
1.18184
21
0.601693
0
LINE
8
BLACK
6
CONTINUOUS
10
1.18184
20
0.601693
11
1.17941
21
0.601693
0
LINE
8
BLACK
6
CONTINUOUS
10
1.17941
20
0.601693
11
1.17744
21
0.603123
0
LINE
8
BLACK
6
CONTINUOUS
10
1.17744
20
0.603123
11
1.17669
21
0.605437
0
LINE
8
BLACK
6
CONTINUOUS
10
1.17669
20
0.605437
11
1.17669
21
0.631496
0
LINE
8
BLACK
6
CONTINUOUS
10
1.17669
20
0.631496
11
1.15063
21
0.631496
0
LINE
8
BLACK
6
CONTINUOUS
10
1.15063
20
0.631496
11
1.14831
21
0.632248
0
LINE
8
BLACK
6
CONTINUOUS
10
1.14831
20
0.632248
11
1.14688
21
0.634216
0
LINE
8
BLACK
6
CONTINUOUS
10
1.14688
20
0.634216
11
1.14688
21
0.63665
0
LINE
8
BLACK
6
CONTINUOUS
10
1.14688
20
0.63665
11
1.14831
21
0.638618
0
LINE
8
BLACK
6
CONTINUOUS
10
1.14831
20
0.638618
11
1.15063
21
0.63937
0
LINE
8
BLACK
6
CONTINUOUS
10
1.15063
20
0.63937
11
1.17669
21
0.63937
0
LINE
8
BLACK
6
CONTINUOUS
10
1.17669
20
0.63937
11
1.17669
21
0.665429
0
LINE
8
BLACK
6
CONTINUOUS
10
1.17669
20
0.665429
11
1.17744
21
0.667743
0
LINE
8
BLACK
6
CONTINUOUS
10
1.17744
20
0.667743
11
1.17941
21
0.669174
0
LINE
8
BLACK
6
CONTINUOUS
10
1.17941
20
0.669174
11
1.18184
21
0.669174
0
LINE
8
BLACK
6
CONTINUOUS
10
1.18184
20
0.669174
11
1.18381
21
0.667743
0
LINE
8
BLACK
6
CONTINUOUS
10
0.680467
20
1.1567
11
0.697397
21
1.15586
0
LINE
8
BLACK
6
CONTINUOUS
10
0.697397
20
1.15586
11
0.711256
21
1.15436
0
LINE
8
BLACK
6
CONTINUOUS
10
0.711256
20
1.15436
11
0.718646
21
1.15285
0
LINE
8
BLACK
6
CONTINUOUS
10
0.718646
20
1.15285
11
0.7422
21
1.14405
0
LINE
8
BLACK
6
CONTINUOUS
10
0.7422
20
1.14405
11
0.76276
21
1.132
0
LINE
8
BLACK
6
CONTINUOUS
10
0.76276
20
1.132
11
0.779577
21
1.11725
0
LINE
8
BLACK
6
CONTINUOUS
10
0.779577
20
1.11725
11
0.7919
21
1.10033
0
LINE
8
BLACK
6
CONTINUOUS
10
0.7919
20
1.10033
11
0.792574
21
1.09909
0
LINE
8
BLACK
6
CONTINUOUS
10
0.792574
20
1.09909
11
0.797565
21
1.08444
0
LINE
8
BLACK
6
CONTINUOUS
10
0.797565
20
1.08444
11
0.798961
21
1.06755
0
LINE
8
BLACK
6
CONTINUOUS
10
0.798961
20
1.06755
11
0.796804
21
1.05033
0
LINE
8
BLACK
6
CONTINUOUS
10
0.796804
20
1.05033
11
0.791165
21
1.03478
0
LINE
8
BLACK
6
CONTINUOUS
10
0.791165
20
1.03478
11
0.778821
21
1.01655
0
LINE
8
BLACK
6
CONTINUOUS
10
0.778821
20
1.01655
11
0.762107
21
0.999991
0
LINE
8
BLACK
6
CONTINUOUS
10
0.762107
20
0.999991
11
0.742108
21
0.985915
0
LINE
8
BLACK
6
CONTINUOUS
10
0.742108
20
0.985915
11
0.719913
21
0.975133
0
LINE
8
BLACK
6
CONTINUOUS
10
0.719913
20
0.975133
11
0.70464
21
0.970226
0
LINE
8
BLACK
6
CONTINUOUS
10
0.70464
20
0.970226
11
0.675809
21
0.965265
0
LINE
8
BLACK
6
CONTINUOUS
10
0.675809
20
0.965265
11
0.647937
21
0.96523
0
LINE
8
BLACK
6
CONTINUOUS
10
0.647937
20
0.96523
11
0.621623
21
0.970059
0
LINE
8
BLACK
6
CONTINUOUS
10
0.621623
20
0.970059
11
0.597469
21
0.97969
0
LINE
8
BLACK
6
CONTINUOUS
10
0.597469
20
0.97969
11
0.594001
21
0.981584
0
LINE
8
BLACK
6
CONTINUOUS
10
0.594001
20
0.981584
11
0.580829
21
0.987648
0
LINE
8
BLACK
6
CONTINUOUS
10
0.580829
20
0.987648
11
0.570246
21
0.989213
0
LINE
8
BLACK
6
CONTINUOUS
10
0.570246
20
0.989213
11
0.561664
21
0.986302
0
LINE
8
BLACK
6
CONTINUOUS
10
0.561664
20
0.986302
11
0.557724
21
0.982949
0
LINE
8
BLACK
6
CONTINUOUS
10
0.557724
20
0.982949
11
0.551119
21
0.972486
0
LINE
8
BLACK
6
CONTINUOUS
10
0.551119
20
0.972486
11
0.549333
21
0.960862
0
LINE
8
BLACK
6
CONTINUOUS
10
0.549333
20
0.960862
11
0.551992
21
0.948807
0
LINE
8
BLACK
6
CONTINUOUS
10
0.551992
20
0.948807
11
0.558723
21
0.937051
0
LINE
8
BLACK
6
CONTINUOUS
10
0.558723
20
0.937051
11
0.569154
21
0.926321
0
LINE
8
BLACK
6
CONTINUOUS
10
0.569154
20
0.926321
11
0.582909
21
0.917347
0
LINE
8
BLACK
6
CONTINUOUS
10
0.582909
20
0.917347
11
0.593686
21
0.91272
0
LINE
8
BLACK
6
CONTINUOUS
10
0.593686
20
0.91272
11
0.615703
21
0.907035
0
LINE
8
BLACK
6
CONTINUOUS
10
0.615703
20
0.907035
11
0.640895
21
0.903967
0
LINE
8
BLACK
6
CONTINUOUS
10
0.640895
20
0.903967
11
0.66757
21
0.903519
0
LINE
8
BLACK
6
CONTINUOUS
10
0.66757
20
0.903519
11
0.694037
21
0.905695
0
LINE
8
BLACK
6
CONTINUOUS
10
0.694037
20
0.905695
11
0.718604
21
0.910496
0
LINE
8
BLACK
6
CONTINUOUS
10
0.718604
20
0.910496
11
0.725552
21
0.912513
0
LINE
8
BLACK
6
CONTINUOUS
10
0.725552
20
0.912513
11
0.74226
21
0.918648
0
LINE
8
BLACK
6
CONTINUOUS
10
0.74226
20
0.918648
11
0.756082
21
0.925947
0
LINE
8
BLACK
6
CONTINUOUS
10
0.756082
20
0.925947
11
0.76877
21
0.935564
0
LINE
8
BLACK
6
CONTINUOUS
10
0.76877
20
0.935564
11
0.782077
21
0.948654
0
LINE
8
BLACK
6
CONTINUOUS
10
0.782077
20
0.948654
11
0.784634
21
0.951426
0
LINE
8
BLACK
6
CONTINUOUS
10
0.784634
20
0.951426
11
0.792478
21
0.959732
0
LINE
8
BLACK
6
CONTINUOUS
10
0.792478
20
0.959732
11
0.79893
21
0.966025
0
LINE
8
BLACK
6
CONTINUOUS
10
0.79893
20
0.966025
11
0.803129
21
0.969495
0
LINE
8
BLACK
6
CONTINUOUS
10
0.803129
20
0.969495
11
0.80423
21
0.969867
0
LINE
8
BLACK
6
CONTINUOUS
10
0.80423
20
0.969867
11
0.803825
21
0.966863
0
LINE
8
BLACK
6
CONTINUOUS
10
0.803825
20
0.966863
11
0.801369
21
0.960386
0
LINE
8
BLACK
6
CONTINUOUS
10
0.801369
20
0.960386
11
0.797459
21
0.951979
0
LINE
8
BLACK
6
CONTINUOUS
10
0.797459
20
0.951979
11
0.784183
21
0.931491
0
LINE
8
BLACK
6
CONTINUOUS
10
0.784183
20
0.931491
11
0.766497
21
0.91431
0
LINE
8
BLACK
6
CONTINUOUS
10
0.766497
20
0.91431
11
0.74444
21
0.900464
0
LINE
8
BLACK
6
CONTINUOUS
10
0.74444
20
0.900464
11
0.71805
21
0.889982
0
LINE
8
BLACK
6
CONTINUOUS
10
0.71805
20
0.889982
11
0.713122
21
0.888533
0
LINE
8
BLACK
6
CONTINUOUS
10
0.713122
20
0.888533
11
0.699214
21
0.88573
0
LINE
8
BLACK
6
CONTINUOUS
10
0.699214
20
0.88573
11
0.681571
21
0.883791
0
LINE
8
BLACK
6
CONTINUOUS
10
0.681571
20
0.883791
11
0.661764
21
0.882736
0
LINE
8
BLACK
6
CONTINUOUS
10
0.661764
20
0.882736
11
0.641363
21
0.88258
0
LINE
8
BLACK
6
CONTINUOUS
10
0.641363
20
0.88258
11
0.621936
21
0.883341
0
LINE
8
BLACK
6
CONTINUOUS
10
0.621936
20
0.883341
11
0.605055
21
0.885038
0
LINE
8
BLACK
6
CONTINUOUS
10
0.605055
20
0.885038
11
0.593956
21
0.887208
0
LINE
8
BLACK
6
CONTINUOUS
10
0.593956
20
0.887208
11
0.570689
21
0.895004
0
LINE
8
BLACK
6
CONTINUOUS
10
0.570689
20
0.895004
11
0.551722
21
0.904865
0
LINE
8
BLACK
6
CONTINUOUS
10
0.551722
20
0.904865
11
0.53605
21
0.917317
0
LINE
8
BLACK
6
CONTINUOUS
10
0.53605
20
0.917317
11
0.535531
21
0.917824
0
LINE
8
BLACK
6
CONTINUOUS
10
0.535531
20
0.917824
11
0.52186
21
0.934382
0
LINE
8
BLACK
6
CONTINUOUS
10
0.52186
20
0.934382
11
0.513648
21
0.951789
0
LINE
8
BLACK
6
CONTINUOUS
10
0.513648
20
0.951789
11
0.510897
21
0.970011
0
LINE
8
BLACK
6
CONTINUOUS
10
0.510897
20
0.970011
11
0.513612
21
0.989016
0
LINE
8
BLACK
6
CONTINUOUS
10
0.513612
20
0.989016
11
0.521797
21
1.00877
0
LINE
8
BLACK
6
CONTINUOUS
10
0.521797
20
1.00877
11
0.524309
21
1.01318
0
LINE
8
BLACK
6
CONTINUOUS
10
0.524309
20
1.01318
11
0.534056
21
1.02536
0
LINE
8
BLACK
6
CONTINUOUS
10
0.534056
20
1.02536
11
0.548245
21
1.03752
0
LINE
8
BLACK
6
CONTINUOUS
10
0.548245
20
1.03752
11
0.565819
21
1.04906
0
LINE
8
BLACK
6
CONTINUOUS
10
0.565819
20
1.04906
11
0.585723
21
1.05939
0
LINE
8
BLACK
6
CONTINUOUS
10
0.585723
20
1.05939
11
0.606903
21
1.06793
0
LINE
8
BLACK
6
CONTINUOUS
10
0.606903
20
1.06793
11
0.628302
21
1.07408
0
LINE
8
BLACK
6
CONTINUOUS
10
0.628302
20
1.07408
11
0.636494
21
1.07571
0
LINE
8
BLACK
6
CONTINUOUS
10
0.636494
20
1.07571
11
0.661437
21
1.07725
0
LINE
8
BLACK
6
CONTINUOUS
10
0.661437
20
1.07725
11
0.686339
21
1.07329
0
LINE
8
BLACK
6
CONTINUOUS
10
0.686339
20
1.07329
11
0.711274
21
1.06382
0
LINE
8
BLACK
6
CONTINUOUS
10
0.711274
20
1.06382
11
0.713122
21
1.0629
0
LINE
8
BLACK
6
CONTINUOUS
10
0.713122
20
1.0629
11
0.729242
21
1.05613
0
LINE
8
BLACK
6
CONTINUOUS
10
0.729242
20
1.05613
11
0.742247
21
1.05364
0
LINE
8
BLACK
6
CONTINUOUS
10
0.742247
20
1.05364
11
0.75201
21
1.05539
0
LINE
8
BLACK
6
CONTINUOUS
10
0.75201
20
1.05539
11
0.758402
21
1.06136
0
LINE
8
BLACK
6
CONTINUOUS
10
0.758402
20
1.06136
11
0.761297
21
1.0715
0
LINE
8
BLACK
6
CONTINUOUS
10
0.761297
20
1.0715
11
0.761464
21
1.07539
0
LINE
8
BLACK
6
CONTINUOUS
10
0.761464
20
1.07539
11
0.758823
21
1.09009
0
LINE
8
BLACK
6
CONTINUOUS
10
0.758823
20
1.09009
11
0.751376
21
1.104
0
LINE
8
BLACK
6
CONTINUOUS
10
0.751376
20
1.104
11
0.739838
21
1.11606
0
LINE
8
BLACK
6
CONTINUOUS
10
0.739838
20
1.11606
11
0.72821
21
1.12365
0
LINE
8
BLACK
6
CONTINUOUS
10
0.72821
20
1.12365
11
0.714169
21
1.12898
0
LINE
8
BLACK
6
CONTINUOUS
10
0.714169
20
1.12898
11
0.696125
21
1.13294
0
LINE
8
BLACK
6
CONTINUOUS
10
0.696125
20
1.13294
11
0.675447
21
1.13545
0
LINE
8
BLACK
6
CONTINUOUS
10
0.675447
20
1.13545
11
0.653504
21
1.13645
0
LINE
8
BLACK
6
CONTINUOUS
10
0.653504
20
1.13645
11
0.631664
21
1.13585
0
LINE
8
BLACK
6
CONTINUOUS
10
0.631664
20
1.13585
11
0.611296
21
1.13357
0
LINE
8
BLACK
6
CONTINUOUS
10
0.611296
20
1.13357
11
0.598481
21
1.13089
0
LINE
8
BLACK
6
CONTINUOUS
10
0.598481
20
1.13089
11
0.580231
21
1.12565
0
LINE
8
BLACK
6
CONTINUOUS
10
0.580231
20
1.12565
11
0.56599
21
1.12027
0
LINE
8
BLACK
6
CONTINUOUS
10
0.56599
20
1.12027
11
0.554281
21
1.11392
0
LINE
8
BLACK
6
CONTINUOUS
10
0.554281
20
1.11392
11
0.543629
21
1.1058
0
LINE
8
BLACK
6
CONTINUOUS
10
0.543629
20
1.1058
11
0.532557
21
1.09509
0
LINE
8
BLACK
6
CONTINUOUS
10
0.532557
20
1.09509
11
0.531492
21
1.09398
0
LINE
8
BLACK
6
CONTINUOUS
10
0.531492
20
1.09398
11
0.523543
21
1.08538
0
LINE
8
BLACK
6
CONTINUOUS
10
0.523543
20
1.08538
11
0.517281
21
1.07819
0
LINE
8
BLACK
6
CONTINUOUS
10
0.517281
20
1.07819
11
0.513538
21
1.07338
0
LINE
8
BLACK
6
CONTINUOUS
10
0.513538
20
1.07338
11
0.512845
21
1.07203
0
LINE
8
BLACK
6
CONTINUOUS
10
0.512845
20
1.07203
11
0.51073
21
1.06979
0
LINE
8
BLACK
6
CONTINUOUS
10
0.51073
20
1.06979
11
0.510083
21
1.06972
0
LINE
8
BLACK
6
CONTINUOUS
10
0.510083
20
1.06972
11
0.507411
21
1.07175
0
LINE
8
BLACK
6
CONTINUOUS
10
0.507411
20
1.07175
11
0.508179
21
1.07751
0
LINE
8
BLACK
6
CONTINUOUS
10
0.508179
20
1.07751
11
0.512236
21
1.08656
0
LINE
8
BLACK
6
CONTINUOUS
10
0.512236
20
1.08656
11
0.519429
21
1.09843
0
LINE
8
BLACK
6
CONTINUOUS
10
0.519429
20
1.09843
11
0.519942
21
1.0992
0
LINE
8
BLACK
6
CONTINUOUS
10
0.519942
20
1.0992
11
0.526133
21
1.10807
0
LINE
8
BLACK
6
CONTINUOUS
10
0.526133
20
1.10807
11
0.531436
21
1.11498
0
LINE
8
BLACK
6
CONTINUOUS
10
0.531436
20
1.11498
11
0.534934
21
1.11876
0
LINE
8
BLACK
6
CONTINUOUS
10
0.534934
20
1.11876
11
0.53548
21
1.1191
0
LINE
8
BLACK
6
CONTINUOUS
10
0.53548
20
1.1191
11
0.539512
21
1.12171
0
LINE
8
BLACK
6
CONTINUOUS
10
0.539512
20
1.12171
11
0.543663
21
1.1254
0
LINE
8
BLACK
6
CONTINUOUS
10
0.543663
20
1.1254
11
0.551198
21
1.1311
0
LINE
8
BLACK
6
CONTINUOUS
10
0.551198
20
1.1311
11
0.562526
21
1.13744
0
LINE
8
BLACK
6
CONTINUOUS
10
0.562526
20
1.13744
11
0.576095
21
1.14369
0
LINE
8
BLACK
6
CONTINUOUS
10
0.576095
20
1.14369
11
0.590353
21
1.14911
0
LINE
8
BLACK
6
CONTINUOUS
10
0.590353
20
1.14911
11
0.598481
21
1.15162
0
LINE
8
BLACK
6
CONTINUOUS
10
0.598481
20
1.15162
11
0.609881
21
1.15382
0
LINE
8
BLACK
6
CONTINUOUS
10
0.609881
20
1.15382
11
0.625173
21
1.15545
0
LINE
8
BLACK
6
CONTINUOUS
10
0.625173
20
1.15545
11
0.642962
21
1.15648
0
LINE
8
BLACK
6
CONTINUOUS
10
0.642962
20
1.15648
11
0.661858
21
1.1569
0
LINE
8
BLACK
6
CONTINUOUS
10
0.661858
20
1.1569
11
0.680467
21
1.1567
0
LINE
8
BLACK
6
CONTINUOUS
10
1.0024
20
1.0828
11
1.01166
21
1.08091
0
LINE
8
BLACK
6
CONTINUOUS
10
1.01166
20
1.08091
11
1.0155
21
1.07945
0
LINE
8
BLACK
6
CONTINUOUS
10
1.0155
20
1.07945
11
1.02449
21
1.07296
0
LINE
8
BLACK
6
CONTINUOUS
10
1.02449
20
1.07296
11
1.03137
21
1.0646
0
LINE
8
BLACK
6
CONTINUOUS
10
1.03137
20
1.0646
11
1.03479
21
1.0561
0
LINE
8
BLACK
6
CONTINUOUS
10
1.03479
20
1.0561
11
1.03494
21
1.05416
0
LINE
8
BLACK
6
CONTINUOUS
10
1.03494
20
1.05416
11
1.03421
21
1.04982
0
LINE
8
BLACK
6
CONTINUOUS
10
1.03421
20
1.04982
11
1.03095
21
1.04798
0
LINE
8
BLACK
6
CONTINUOUS
10
1.03095
20
1.04798
11
1.02469
21
1.04762
0
LINE
8
BLACK
6
CONTINUOUS
10
1.02469
20
1.04762
11
1.01598
21
1.04895
0
LINE
8
BLACK
6
CONTINUOUS
10
1.01598
20
1.04895
11
1.0096
21
1.05376
0
LINE
8
BLACK
6
CONTINUOUS
10
1.0096
20
1.05376
11
1.00849
21
1.05508
0
LINE
8
BLACK
6
CONTINUOUS
10
1.00849
20
1.05508
11
1.00127
21
1.0605
0
LINE
8
BLACK
6
CONTINUOUS
10
1.00127
20
1.0605
11
0.992139
21
1.06271
0
LINE
8
BLACK
6
CONTINUOUS
10
0.992139
20
1.06271
11
0.983248
21
1.0615
0
LINE
8
BLACK
6
CONTINUOUS
10
0.983248
20
1.0615
11
0.978174
21
1.05834
0
LINE
8
BLACK
6
CONTINUOUS
10
0.978174
20
1.05834
11
0.975366
21
1.05378
0
LINE
8
BLACK
6
CONTINUOUS
10
0.975366
20
1.05378
11
0.976582
21
1.04919
0
LINE
8
BLACK
6
CONTINUOUS
10
0.976582
20
1.04919
11
0.982206
21
1.04412
0
LINE
8
BLACK
6
CONTINUOUS
10
0.982206
20
1.04412
11
0.992621
21
1.03813
0
LINE
8
BLACK
6
CONTINUOUS
10
0.992621
20
1.03813
11
0.997528
21
1.0357
0
LINE
8
BLACK
6
CONTINUOUS
10
0.997528
20
1.0357
11
1.01077
21
1.02863
0
LINE
8
BLACK
6
CONTINUOUS
10
1.01077
20
1.02863
11
1.01947
21
1.02199
0
LINE
8
BLACK
6
CONTINUOUS
10
1.01947
20
1.02199
11
1.02444
21
1.01484
0
LINE
8
BLACK
6
CONTINUOUS
10
1.02444
20
1.01484
11
1.02648
21
1.00624
0
LINE
8
BLACK
6
CONTINUOUS
10
1.02648
20
1.00624
11
1.02666
21
1.0018
0
LINE
8
BLACK
6
CONTINUOUS
10
1.02666
20
1.0018
11
1.02408
21
0.988901
0
LINE
8
BLACK
6
CONTINUOUS
10
1.02408
20
0.988901
11
1.01661
21
0.978222
0
LINE
8
BLACK
6
CONTINUOUS
10
1.01661
20
0.978222
11
1.00721
21
0.971602
0
LINE
8
BLACK
6
CONTINUOUS
10
1.00721
20
0.971602
11
0.998279
21
0.968926
0
LINE
8
BLACK
6
CONTINUOUS
10
0.998279
20
0.968926
11
0.986315
21
0.967791
0
LINE
8
BLACK
6
CONTINUOUS
10
0.986315
20
0.967791
11
0.973598
21
0.968203
0
LINE
8
BLACK
6
CONTINUOUS
10
0.973598
20
0.968203
11
0.962406
21
0.970166
0
LINE
8
BLACK
6
CONTINUOUS
10
0.962406
20
0.970166
11
0.958642
21
0.971483
0
LINE
8
BLACK
6
CONTINUOUS
10
0.958642
20
0.971483
11
0.948611
21
0.9783
0
LINE
8
BLACK
6
CONTINUOUS
10
0.948611
20
0.9783
11
0.942493
21
0.987744
0
LINE
8
BLACK
6
CONTINUOUS
10
0.942493
20
0.987744
11
0.941022
21
0.995753
0
LINE
8
BLACK
6
CONTINUOUS
10
0.941022
20
0.995753
11
0.941517
21
1.00067
0
LINE
8
BLACK
6
CONTINUOUS
10
0.941517
20
1.00067
11
0.944048
21
1.00286
0
LINE
8
BLACK
6
CONTINUOUS
10
0.944048
20
1.00286
11
0.950185
21
1.00342
0
LINE
8
BLACK
6
CONTINUOUS
10
0.950185
20
1.00342
11
0.95214
21
1.00343
0
LINE
8
BLACK
6
CONTINUOUS
10
0.95214
20
1.00343
11
0.959785
21
1.00282
0
LINE
8
BLACK
6
CONTINUOUS
10
0.959785
20
1.00282
11
0.96389
21
1.00036
0
LINE
8
BLACK
6
CONTINUOUS
10
0.96389
20
1.00036
11
0.965787
21
0.996775
0
LINE
8
BLACK
6
CONTINUOUS
10
0.965787
20
0.996775
11
0.970554
21
0.991165
0
LINE
8
BLACK
6
CONTINUOUS
10
0.970554
20
0.991165
11
0.978395
21
0.988078
0
LINE
8
BLACK
6
CONTINUOUS
10
0.978395
20
0.988078
11
0.987432
21
0.987594
0
LINE
8
BLACK
6
CONTINUOUS
10
0.987432
20
0.987594
11
0.995783
21
0.989792
0
LINE
8
BLACK
6
CONTINUOUS
10
0.995783
20
0.989792
11
1.00157
21
0.994751
0
LINE
8
BLACK
6
CONTINUOUS
10
1.00157
20
0.994751
11
1.00186
21
0.995256
0
LINE
8
BLACK
6
CONTINUOUS
10
1.00186
20
0.995256
11
1.0035
21
1.0004
0
LINE
8
BLACK
6
CONTINUOUS
10
1.0035
20
1.0004
11
1.00195
21
1.00494
0
LINE
8
BLACK
6
CONTINUOUS
10
1.00195
20
1.00494
11
0.99658
21
1.00956
0
LINE
8
BLACK
6
CONTINUOUS
10
0.99658
20
1.00956
11
0.986785
21
1.01497
0
LINE
8
BLACK
6
CONTINUOUS
10
0.986785
20
1.01497
11
0.982276
21
1.01713
0
LINE
8
BLACK
6
CONTINUOUS
10
0.982276
20
1.01713
11
0.968426
21
1.02449
0
LINE
8
BLACK
6
CONTINUOUS
10
0.968426
20
1.02449
11
0.959277
21
1.03168
0
LINE
8
BLACK
6
CONTINUOUS
10
0.959277
20
1.03168
11
0.954093
21
1.03956
0
LINE
8
BLACK
6
CONTINUOUS
10
0.954093
20
1.03956
11
0.952141
21
1.04894
0
LINE
8
BLACK
6
CONTINUOUS
10
0.952141
20
1.04894
11
0.952072
21
1.05153
0
LINE
8
BLACK
6
CONTINUOUS
10
0.952072
20
1.05153
11
0.954315
21
1.0645
0
LINE
8
BLACK
6
CONTINUOUS
10
0.954315
20
1.0645
11
0.960955
21
1.0742
0
LINE
8
BLACK
6
CONTINUOUS
10
0.960955
20
1.0742
11
0.971859
21
1.08053
0
LINE
8
BLACK
6
CONTINUOUS
10
0.971859
20
1.08053
11
0.986892
21
1.08338
0
LINE
8
BLACK
6
CONTINUOUS
10
0.986892
20
1.08338
11
0.992127
21
1.08354
0
LINE
8
BLACK
6
CONTINUOUS
10
0.992127
20
1.08354
11
1.0024
21
1.0828
0
LINE
8
BLACK
6
CONTINUOUS
10
0.868089
20
1.08006
11
0.871812
21
1.0781
0
LINE
8
BLACK
6
CONTINUOUS
10
0.871812
20
1.0781
11
0.871961
21
1.07748
0
LINE
8
BLACK
6
CONTINUOUS
10
0.871961
20
1.07748
11
0.871451
21
1.07369
0
LINE
8
BLACK
6
CONTINUOUS
10
0.871451
20
1.07369
11
0.870051
21
1.06557
0
LINE
8
BLACK
6
CONTINUOUS
10
0.870051
20
1.06557
11
0.867956
21
1.05419
0
LINE
8
BLACK
6
CONTINUOUS
10
0.867956
20
1.05419
11
0.865363
21
1.04064
0
LINE
8
BLACK
6
CONTINUOUS
10
0.865363
20
1.04064
11
0.864464
21
1.03604
0
LINE
8
BLACK
6
CONTINUOUS
10
0.864464
20
1.03604
11
0.861534
21
1.0209
0
LINE
8
BLACK
6
CONTINUOUS
10
0.861534
20
1.0209
11
0.859655
21
1.01023
0
LINE
8
BLACK
6
CONTINUOUS
10
0.859655
20
1.01023
11
0.858768
21
1.00309
0
LINE
8
BLACK
6
CONTINUOUS
10
0.858768
20
1.00309
11
0.858813
21
0.998532
0
LINE
8
BLACK
6
CONTINUOUS
10
0.858813
20
0.998532
11
0.859731
21
0.995619
0
LINE
8
BLACK
6
CONTINUOUS
10
0.859731
20
0.995619
11
0.861461
21
0.993408
0
LINE
8
BLACK
6
CONTINUOUS
10
0.861461
20
0.993408
11
0.861738
21
0.993128
0
LINE
8
BLACK
6
CONTINUOUS
10
0.861738
20
0.993128
11
0.868848
21
0.989391
0
LINE
8
BLACK
6
CONTINUOUS
10
0.868848
20
0.989391
11
0.878331
21
0.988405
0
LINE
8
BLACK
6
CONTINUOUS
10
0.878331
20
0.988405
11
0.887789
21
0.990136
0
LINE
8
BLACK
6
CONTINUOUS
10
0.887789
20
0.990136
11
0.893868
21
0.993582
0
LINE
8
BLACK
6
CONTINUOUS
10
0.893868
20
0.993582
11
0.897855
21
0.998605
0
LINE
8
BLACK
6
CONTINUOUS
10
0.897855
20
0.998605
11
0.901481
21
1.00646
0
LINE
8
BLACK
6
CONTINUOUS
10
0.901481
20
1.00646
11
0.904955
21
1.01781
0
LINE
8
BLACK
6
CONTINUOUS
10
0.904955
20
1.01781
11
0.908486
21
1.03336
0
LINE
8
BLACK
6
CONTINUOUS
10
0.908486
20
1.03336
11
0.912057
21
1.05246
0
LINE
8
BLACK
6
CONTINUOUS
10
0.912057
20
1.05246
11
0.917004
21
1.08077
0
LINE
8
BLACK
6
CONTINUOUS
10
0.917004
20
1.08077
11
0.929013
21
1.08077
0
LINE
8
BLACK
6
CONTINUOUS
10
0.929013
20
1.08077
11
0.937395
21
1.08007
0
LINE
8
BLACK
6
CONTINUOUS
10
0.937395
20
1.08007
11
0.940868
21
1.07786
0
LINE
8
BLACK
6
CONTINUOUS
10
0.940868
20
1.07786
11
0.941022
21
1.07701
0
LINE
8
BLACK
6
CONTINUOUS
10
0.941022
20
1.07701
11
0.940353
21
1.07077
0
LINE
8
BLACK
6
CONTINUOUS
10
0.940353
20
1.07077
11
0.938555
21
1.06057
0
LINE
8
BLACK
6
CONTINUOUS
10
0.938555
20
1.06057
11
0.935942
21
1.04778
0
LINE
8
BLACK
6
CONTINUOUS
10
0.935942
20
1.04778
11
0.932826
21
1.03378
0
LINE
8
BLACK
6
CONTINUOUS
10
0.932826
20
1.03378
11
0.929522
21
1.01993
0
LINE
8
BLACK
6
CONTINUOUS
10
0.929522
20
1.01993
11
0.926342
21
1.00761
0
LINE
8
BLACK
6
CONTINUOUS
10
0.926342
20
1.00761
11
0.9236
21
0.9982
0
LINE
8
BLACK
6
CONTINUOUS
10
0.9236
20
0.9982
11
0.922066
21
0.993976
0
LINE
8
BLACK
6
CONTINUOUS
10
0.922066
20
0.993976
11
0.914823
21
0.981993
0
LINE
8
BLACK
6
CONTINUOUS
10
0.914823
20
0.981993
11
0.90506
21
0.974034
0
LINE
8
BLACK
6
CONTINUOUS
10
0.90506
20
0.974034
11
0.891935
21
0.969596
0
LINE
8
BLACK
6
CONTINUOUS
10
0.891935
20
0.969596
11
0.87888
21
0.968257
0
LINE
8
BLACK
6
CONTINUOUS
10
0.87888
20
0.968257
11
0.868261
21
0.968258
0
LINE
8
BLACK
6
CONTINUOUS
10
0.868261
20
0.968258
11
0.859202
21
0.968914
0
LINE
8
BLACK
6
CONTINUOUS
10
0.859202
20
0.968914
11
0.85378
21
0.970049
0
LINE
8
BLACK
6
CONTINUOUS
10
0.85378
20
0.970049
11
0.847188
21
0.97454
0
LINE
8
BLACK
6
CONTINUOUS
10
0.847188
20
0.97454
11
0.840582
21
0.981539
0
LINE
8
BLACK
6
CONTINUOUS
10
0.840582
20
0.981539
11
0.835454
21
0.989176
0
LINE
8
BLACK
6
CONTINUOUS
10
0.835454
20
0.989176
11
0.833291
21
0.995578
0
LINE
8
BLACK
6
CONTINUOUS
10
0.833291
20
0.995578
11
0.833287
21
0.995786
0
LINE
8
BLACK
6
CONTINUOUS
10
0.833287
20
0.995786
11
0.83378
21
1.00048
0
LINE
8
BLACK
6
CONTINUOUS
10
0.83378
20
1.00048
11
0.835135
21
1.00945
0
LINE
8
BLACK
6
CONTINUOUS
10
0.835135
20
1.00945
11
0.837164
21
1.02157
0
LINE
8
BLACK
6
CONTINUOUS
10
0.837164
20
1.02157
11
0.839682
21
1.03568
0
LINE
8
BLACK
6
CONTINUOUS
10
0.839682
20
1.03568
11
0.840696
21
1.04115
0
LINE
8
BLACK
6
CONTINUOUS
10
0.840696
20
1.04115
11
0.848106
21
1.08077
0
LINE
8
BLACK
6
CONTINUOUS
10
0.848106
20
1.08077
11
0.860033
21
1.08077
0
LINE
8
BLACK
6
CONTINUOUS
10
0.860033
20
1.08077
11
0.868089
21
1.08006
0
LINE
8
BLACK
6
CONTINUOUS
10
1.14217
20
1.07187
11
1.14147
21
1.06689
0
LINE
8
BLACK
6
CONTINUOUS
10
1.14147
20
1.06689
11
1.1397
21
1.06411
0
LINE
8
BLACK
6
CONTINUOUS
10
1.1397
20
1.06411
11
1.13551
21
1.06278
0
LINE
8
BLACK
6
CONTINUOUS
10
1.13551
20
1.06278
11
1.12753
21
1.06216
0
LINE
8
BLACK
6
CONTINUOUS
10
1.12753
20
1.06216
11
1.12439
21
1.062
0
LINE
8
BLACK
6
CONTINUOUS
10
1.12439
20
1.062
11
1.10747
21
1.06119
0
LINE
8
BLACK
6
CONTINUOUS
10
1.10747
20
1.06119
11
1.08944
21
0.970276
0
LINE
8
BLACK
6
CONTINUOUS
10
1.08944
20
0.970276
11
1.07739
21
0.970276
0
LINE
8
BLACK
6
CONTINUOUS
10
1.07739
20
0.970276
11
1.0701
21
0.970471
0
LINE
8
BLACK
6
CONTINUOUS
10
1.0701
20
0.970471
11
1.06581
21
0.970961
0
LINE
8
BLACK
6
CONTINUOUS
10
1.06581
20
0.970961
11
1.06533
21
0.971226
0
LINE
8
BLACK
6
CONTINUOUS
10
1.06533
20
0.971226
11
1.06585
21
0.974121
0
LINE
8
BLACK
6
CONTINUOUS
10
1.06585
20
0.974121
11
1.06728
21
0.981468
0
LINE
8
BLACK
6
CONTINUOUS
10
1.06728
20
0.981468
11
1.06944
21
0.992307
0
LINE
8
BLACK
6
CONTINUOUS
10
1.06944
20
0.992307
11
1.07212
21
1.00568
0
LINE
8
BLACK
6
CONTINUOUS
10
1.07212
20
1.00568
11
1.07362
21
1.01309
0
LINE
8
BLACK
6
CONTINUOUS
10
1.07362
20
1.01309
11
1.07652
21
1.02765
0
LINE
8
BLACK
6
CONTINUOUS
10
1.07652
20
1.02765
11
1.07898
21
1.04043
0
LINE
8
BLACK
6
CONTINUOUS
10
1.07898
20
1.04043
11
1.0808
21
1.0504
0
LINE
8
BLACK
6
CONTINUOUS
10
1.0808
20
1.0504
11
1.08178
21
1.05649
0
LINE
8
BLACK
6
CONTINUOUS
10
1.08178
20
1.05649
11
1.08191
21
1.05772
0
LINE
8
BLACK
6
CONTINUOUS
10
1.08191
20
1.05772
11
1.07986
21
1.06015
0
LINE
8
BLACK
6
CONTINUOUS
10
1.07986
20
1.06015
11
1.07332
21
1.06129
0
LINE
8
BLACK
6
CONTINUOUS
10
1.07332
20
1.06129
11
1.06792
21
1.06144
0
LINE
8
BLACK
6
CONTINUOUS
10
1.06792
20
1.06144
11
1.05393
21
1.06144
0
LINE
8
BLACK
6
CONTINUOUS
10
1.05393
20
1.06144
11
1.05566
21
1.07939
0
LINE
8
BLACK
6
CONTINUOUS
10
1.05566
20
1.07939
11
1.09935
21
1.08015
0
LINE
8
BLACK
6
CONTINUOUS
10
1.09935
20
1.08015
11
1.14304
21
1.08092
0
LINE
8
BLACK
6
CONTINUOUS
10
1.14304
20
1.08092
11
1.14217
21
1.07187
0
LINE
8
BLACK
6
CONTINUOUS
10
0.205468
20
1.88404
11
0.206366
21
1.88391
0
LINE
8
BLACK
6
CONTINUOUS
10
0.206366
20
1.88391
11
0.21124
21
1.88147
0
LINE
8
BLACK
6
CONTINUOUS
10
0.21124
20
1.88147
11
0.211695
21
1.88102
0
LINE
8
BLACK
6
CONTINUOUS
10
0.211695
20
1.88102
11
0.212264
21
1.88073
0
LINE
8
BLACK
6
CONTINUOUS
10
0.212264
20
1.88073
11
0.214701
21
1.8783
0
LINE
8
BLACK
6
CONTINUOUS
10
0.214701
20
1.8783
11
0.214991
21
1.87773
0
LINE
8
BLACK
6
CONTINUOUS
10
0.214991
20
1.87773
11
0.215438
21
1.87727
0
LINE
8
BLACK
6
CONTINUOUS
10
0.215438
20
1.87727
11
0.217876
21
1.8724
0
LINE
8
BLACK
6
CONTINUOUS
10
0.217876
20
1.8724
11
0.218011
21
1.8715
0
LINE
8
BLACK
6
CONTINUOUS
10
0.218011
20
1.8715
11
0.218291
21
1.87064
0
LINE
8
BLACK
6
CONTINUOUS
10
0.218291
20
1.87064
11
0.218291
21
1.86089
0
LINE
8
BLACK
6
CONTINUOUS
10
0.218291
20
1.86089
11
0.218011
21
1.86003
0
LINE
8
BLACK
6
CONTINUOUS
10
0.218011
20
1.86003
11
0.217876
21
1.85913
0
LINE
8
BLACK
6
CONTINUOUS
10
0.217876
20
1.85913
11
0.215438
21
1.85426
0
LINE
8
BLACK
6
CONTINUOUS
10
0.215438
20
1.85426
11
0.214991
21
1.8538
0
LINE
8
BLACK
6
CONTINUOUS
10
0.214991
20
1.8538
11
0.214701
21
1.85323
0
LINE
8
BLACK
6
CONTINUOUS
10
0.214701
20
1.85323
11
0.212264
21
1.8508
0
LINE
8
BLACK
6
CONTINUOUS
10
0.212264
20
1.8508
11
0.211695
21
1.85051
0
LINE
8
BLACK
6
CONTINUOUS
10
0.211695
20
1.85051
11
0.21124
21
1.85006
0
LINE
8
BLACK
6
CONTINUOUS
10
0.21124
20
1.85006
11
0.206366
21
1.84762
0
LINE
8
BLACK
6
CONTINUOUS
10
0.206366
20
1.84762
11
0.205468
21
1.84749
0
LINE
8
BLACK
6
CONTINUOUS
10
0.205468
20
1.84749
11
0.204605
21
1.8472
0
LINE
8
BLACK
6
CONTINUOUS
10
0.204605
20
1.8472
11
0.163173
21
1.8472
0
LINE
8
BLACK
6
CONTINUOUS
10
0.163173
20
1.8472
11
0.160859
21
1.84796
0
LINE
8
BLACK
6
CONTINUOUS
10
0.160859
20
1.84796
11
0.159429
21
1.84993
0
LINE
8
BLACK
6
CONTINUOUS
10
0.159429
20
1.84993
11
0.159429
21
1.85236
0
LINE
8
BLACK
6
CONTINUOUS
10
0.159429
20
1.85236
11
0.160859
21
1.85433
0
LINE
8
BLACK
6
CONTINUOUS
10
0.160859
20
1.85433
11
0.163173
21
1.85508
0
LINE
8
BLACK
6
CONTINUOUS
10
0.163173
20
1.85508
11
0.203676
21
1.85508
0
LINE
8
BLACK
6
CONTINUOUS
10
0.203676
20
1.85508
11
0.207148
21
1.85681
0
LINE
8
BLACK
6
CONTINUOUS
10
0.207148
20
1.85681
11
0.208681
21
1.85835
0
LINE
8
BLACK
6
CONTINUOUS
10
0.208681
20
1.85835
11
0.210417
21
1.86182
0
LINE
8
BLACK
6
CONTINUOUS
10
0.210417
20
1.86182
11
0.210417
21
1.86971
0
LINE
8
BLACK
6
CONTINUOUS
10
0.210417
20
1.86971
11
0.208681
21
1.87318
0
LINE
8
BLACK
6
CONTINUOUS
10
0.208681
20
1.87318
11
0.207148
21
1.87472
0
LINE
8
BLACK
6
CONTINUOUS
10
0.207148
20
1.87472
11
0.203676
21
1.87645
0
LINE
8
BLACK
6
CONTINUOUS
10
0.203676
20
1.87645
11
0.163173
21
1.87645
0
LINE
8
BLACK
6
CONTINUOUS
10
0.163173
20
1.87645
11
0.160859
21
1.8772
0
LINE
8
BLACK
6
CONTINUOUS
10
0.160859
20
1.8772
11
0.159429
21
1.87917
0
LINE
8
BLACK
6
CONTINUOUS
10
0.159429
20
1.87917
11
0.159429
21
1.8816
0
LINE
8
BLACK
6
CONTINUOUS
10
0.159429
20
1.8816
11
0.160859
21
1.88357
0
LINE
8
BLACK
6
CONTINUOUS
10
0.160859
20
1.88357
11
0.163173
21
1.88433
0
LINE
8
BLACK
6
CONTINUOUS
10
0.163173
20
1.88433
11
0.204605
21
1.88433
0
LINE
8
BLACK
6
CONTINUOUS
10
0.204605
20
1.88433
11
0.205468
21
1.88404
0
LINE
8
BLACK
6
CONTINUOUS
10
0.205468
20
1.93523
11
0.206366
21
1.93509
0
LINE
8
BLACK
6
CONTINUOUS
10
0.206366
20
1.93509
11
0.21124
21
1.93265
0
LINE
8
BLACK
6
CONTINUOUS
10
0.21124
20
1.93265
11
0.211695
21
1.93221
0
LINE
8
BLACK
6
CONTINUOUS
10
0.211695
20
1.93221
11
0.212264
21
1.93192
0
LINE
8
BLACK
6
CONTINUOUS
10
0.212264
20
1.93192
11
0.214701
21
1.92948
0
LINE
8
BLACK
6
CONTINUOUS
10
0.214701
20
1.92948
11
0.214991
21
1.92891
0
LINE
8
BLACK
6
CONTINUOUS
10
0.214991
20
1.92891
11
0.215438
21
1.92846
0
LINE
8
BLACK
6
CONTINUOUS
10
0.215438
20
1.92846
11
0.217876
21
1.92358
0
LINE
8
BLACK
6
CONTINUOUS
10
0.217876
20
1.92358
11
0.218011
21
1.92268
0
LINE
8
BLACK
6
CONTINUOUS
10
0.218011
20
1.92268
11
0.218291
21
1.92182
0
LINE
8
BLACK
6
CONTINUOUS
10
0.218291
20
1.92182
11
0.218291
21
1.90963
0
LINE
8
BLACK
6
CONTINUOUS
10
0.218291
20
1.90963
11
0.218094
21
1.90903
0
LINE
8
BLACK
6
CONTINUOUS
10
0.218094
20
1.90903
11
0.218089
21
1.90839
0
LINE
8
BLACK
6
CONTINUOUS
10
0.218089
20
1.90839
11
0.215652
21
1.90108
0
LINE
8
BLACK
6
CONTINUOUS
10
0.215652
20
1.90108
11
0.214207
21
1.89912
0
LINE
8
BLACK
6
CONTINUOUS
10
0.214207
20
1.89912
11
0.211887
21
1.89839
0
LINE
8
BLACK
6
CONTINUOUS
10
0.211887
20
1.89839
11
0.209579
21
1.89916
0
LINE
8
BLACK
6
CONTINUOUS
10
0.209579
20
1.89916
11
0.208163
21
1.90113
0
LINE
8
BLACK
6
CONTINUOUS
10
0.208163
20
1.90113
11
0.208182
21
1.90357
0
LINE
8
BLACK
6
CONTINUOUS
10
0.208182
20
1.90357
11
0.210417
21
1.91027
0
LINE
8
BLACK
6
CONTINUOUS
10
0.210417
20
1.91027
11
0.210417
21
1.92089
0
LINE
8
BLACK
6
CONTINUOUS
10
0.210417
20
1.92089
11
0.208681
21
1.92436
0
LINE
8
BLACK
6
CONTINUOUS
10
0.208681
20
1.92436
11
0.207148
21
1.9259
0
LINE
8
BLACK
6
CONTINUOUS
10
0.207148
20
1.9259
11
0.203676
21
1.92763
0
LINE
8
BLACK
6
CONTINUOUS
10
0.203676
20
1.92763
11
0.20066
21
1.92763
0
LINE
8
BLACK
6
CONTINUOUS
10
0.20066
20
1.92763
11
0.197189
21
1.9259
0
LINE
8
BLACK
6
CONTINUOUS
10
0.197189
20
1.9259
11
0.195655
21
1.92436
0
LINE
8
BLACK
6
CONTINUOUS
10
0.195655
20
1.92436
11
0.193697
21
1.92045
0
LINE
8
BLACK
6
CONTINUOUS
10
0.193697
20
1.92045
11
0.191364
21
1.91112
0
LINE
8
BLACK
6
CONTINUOUS
10
0.191364
20
1.91112
11
0.191132
21
1.91074
0
LINE
8
BLACK
6
CONTINUOUS
10
0.191132
20
1.91074
11
0.191066
21
1.91031
0
LINE
8
BLACK
6
CONTINUOUS
10
0.191066
20
1.91031
11
0.188629
21
1.90544
0
LINE
8
BLACK
6
CONTINUOUS
10
0.188629
20
1.90544
11
0.188181
21
1.90498
0
LINE
8
BLACK
6
CONTINUOUS
10
0.188181
20
1.90498
11
0.187892
21
1.90441
0
LINE
8
BLACK
6
CONTINUOUS
10
0.187892
20
1.90441
11
0.185454
21
1.90198
0
LINE
8
BLACK
6
CONTINUOUS
10
0.185454
20
1.90198
11
0.184886
21
1.90169
0
LINE
8
BLACK
6
CONTINUOUS
10
0.184886
20
1.90169
11
0.184431
21
1.90124
0
LINE
8
BLACK
6
CONTINUOUS
10
0.184431
20
1.90124
11
0.179557
21
1.8988
0
LINE
8
BLACK
6
CONTINUOUS
10
0.179557
20
1.8988
11
0.178659
21
1.89867
0
LINE
8
BLACK
6
CONTINUOUS
10
0.178659
20
1.89867
11
0.177796
21
1.89839
0
LINE
8
BLACK
6
CONTINUOUS
10
0.177796
20
1.89839
11
0.172922
21
1.89839
0
LINE
8
BLACK
6
CONTINUOUS
10
0.172922
20
1.89839
11
0.172059
21
1.89867
0
LINE
8
BLACK
6
CONTINUOUS
10
0.172059
20
1.89867
11
0.171161
21
1.8988
0
LINE
8
BLACK
6
CONTINUOUS
10
0.171161
20
1.8988
11
0.166287
21
1.90124
0
LINE
8
BLACK
6
CONTINUOUS
10
0.166287
20
1.90124
11
0.165832
21
1.90169
0
LINE
8
BLACK
6
CONTINUOUS
10
0.165832
20
1.90169
11
0.165264
21
1.90198
0
LINE
8
BLACK
6
CONTINUOUS
10
0.165264
20
1.90198
11
0.162826
21
1.90441
0
LINE
8
BLACK
6
CONTINUOUS
10
0.162826
20
1.90441
11
0.162537
21
1.90498
0
LINE
8
BLACK
6
CONTINUOUS
10
0.162537
20
1.90498
11
0.162089
21
1.90544
0
LINE
8
BLACK
6
CONTINUOUS
10
0.162089
20
1.90544
11
0.159652
21
1.91031
0
LINE
8
BLACK
6
CONTINUOUS
10
0.159652
20
1.91031
11
0.159516
21
1.91121
0
LINE
8
BLACK
6
CONTINUOUS
10
0.159516
20
1.91121
11
0.159236
21
1.91207
0
LINE
8
BLACK
6
CONTINUOUS
10
0.159236
20
1.91207
11
0.159236
21
1.92426
0
LINE
8
BLACK
6
CONTINUOUS
10
0.159236
20
1.92426
11
0.159433
21
1.92486
0
LINE
8
BLACK
6
CONTINUOUS
10
0.159433
20
1.92486
11
0.159438
21
1.9255
0
LINE
8
BLACK
6
CONTINUOUS
10
0.159438
20
1.9255
11
0.161875
21
1.93281
0
LINE
8
BLACK
6
CONTINUOUS
10
0.161875
20
1.93281
11
0.16332
21
1.93477
0
LINE
8
BLACK
6
CONTINUOUS
10
0.16332
20
1.93477
11
0.16564
21
1.93551
0
LINE
8
BLACK
6
CONTINUOUS
10
0.16564
20
1.93551
11
0.167948
21
1.93474
0
LINE
8
BLACK
6
CONTINUOUS
10
0.167948
20
1.93474
11
0.169364
21
1.93276
0
LINE
8
BLACK
6
CONTINUOUS
10
0.169364
20
1.93276
11
0.169345
21
1.93032
0
LINE
8
BLACK
6
CONTINUOUS
10
0.169345
20
1.93032
11
0.16711
21
1.92362
0
LINE
8
BLACK
6
CONTINUOUS
10
0.16711
20
1.92362
11
0.16711
21
1.913
0
LINE
8
BLACK
6
CONTINUOUS
10
0.16711
20
1.913
11
0.168846
21
1.90953
0
LINE
8
BLACK
6
CONTINUOUS
10
0.168846
20
1.90953
11
0.170379
21
1.908
0
LINE
8
BLACK
6
CONTINUOUS
10
0.170379
20
1.908
11
0.173851
21
1.90626
0
LINE
8
BLACK
6
CONTINUOUS
10
0.173851
20
1.90626
11
0.176867
21
1.90626
0
LINE
8
BLACK
6
CONTINUOUS
10
0.176867
20
1.90626
11
0.180338
21
1.908
0
LINE
8
BLACK
6
CONTINUOUS
10
0.180338
20
1.908
11
0.181872
21
1.90953
0
LINE
8
BLACK
6
CONTINUOUS
10
0.181872
20
1.90953
11
0.18383
21
1.91345
0
LINE
8
BLACK
6
CONTINUOUS
10
0.18383
20
1.91345
11
0.186163
21
1.92278
0
LINE
8
BLACK
6
CONTINUOUS
10
0.186163
20
1.92278
11
0.186395
21
1.92315
0
LINE
8
BLACK
6
CONTINUOUS
10
0.186395
20
1.92315
11
0.186461
21
1.92358
0
LINE
8
BLACK
6
CONTINUOUS
10
0.186461
20
1.92358
11
0.188898
21
1.92846
0
LINE
8
BLACK
6
CONTINUOUS
10
0.188898
20
1.92846
11
0.189346
21
1.92891
0
LINE
8
BLACK
6
CONTINUOUS
10
0.189346
20
1.92891
11
0.189635
21
1.92948
0
LINE
8
BLACK
6
CONTINUOUS
10
0.189635
20
1.92948
11
0.192073
21
1.93192
0
LINE
8
BLACK
6
CONTINUOUS
10
0.192073
20
1.93192
11
0.192641
21
1.93221
0
LINE
8
BLACK
6
CONTINUOUS
10
0.192641
20
1.93221
11
0.193096
21
1.93265
0
LINE
8
BLACK
6
CONTINUOUS
10
0.193096
20
1.93265
11
0.19797
21
1.93509
0
LINE
8
BLACK
6
CONTINUOUS
10
0.19797
20
1.93509
11
0.198868
21
1.93523
0
LINE
8
BLACK
6
CONTINUOUS
10
0.198868
20
1.93523
11
0.199731
21
1.93551
0
LINE
8
BLACK
6
CONTINUOUS
10
0.199731
20
1.93551
11
0.204605
21
1.93551
0
LINE
8
BLACK
6
CONTINUOUS
10
0.204605
20
1.93551
11
0.205468
21
1.93523
0
LINE
8
BLACK
6
CONTINUOUS
10
0.166358
20
1.97775
11
0.16711
21
1.97544
0
LINE
8
BLACK
6
CONTINUOUS
10
0.16711
20
1.97544
11
0.16711
21
1.96475
0
LINE
8
BLACK
6
CONTINUOUS
10
0.16711
20
1.96475
11
0.214354
21
1.96475
0
LINE
8
BLACK
6
CONTINUOUS
10
0.214354
20
1.96475
11
0.216668
21
1.964
0
LINE
8
BLACK
6
CONTINUOUS
10
0.216668
20
1.964
11
0.218098
21
1.96203
0
LINE
8
BLACK
6
CONTINUOUS
10
0.218098
20
1.96203
11
0.218098
21
1.9596
0
LINE
8
BLACK
6
CONTINUOUS
10
0.218098
20
1.9596
11
0.216668
21
1.95763
0
LINE
8
BLACK
6
CONTINUOUS
10
0.216668
20
1.95763
11
0.214354
21
1.95688
0
LINE
8
BLACK
6
CONTINUOUS
10
0.214354
20
1.95688
11
0.16711
21
1.95688
0
LINE
8
BLACK
6
CONTINUOUS
10
0.16711
20
1.95688
11
0.16711
21
1.94619
0
LINE
8
BLACK
6
CONTINUOUS
10
0.16711
20
1.94619
11
0.166358
21
1.94388
0
LINE
8
BLACK
6
CONTINUOUS
10
0.166358
20
1.94388
11
0.16439
21
1.94245
0
LINE
8
BLACK
6
CONTINUOUS
10
0.16439
20
1.94245
11
0.161956
21
1.94245
0
LINE
8
BLACK
6
CONTINUOUS
10
0.161956
20
1.94245
11
0.159988
21
1.94388
0
LINE
8
BLACK
6
CONTINUOUS
10
0.159988
20
1.94388
11
0.159236
21
1.94619
0
LINE
8
BLACK
6
CONTINUOUS
10
0.159236
20
1.94619
11
0.159236
21
1.97544
0
LINE
8
BLACK
6
CONTINUOUS
10
0.159236
20
1.97544
11
0.159988
21
1.97775
0
LINE
8
BLACK
6
CONTINUOUS
10
0.159988
20
1.97775
11
0.161956
21
1.97918
0
LINE
8
BLACK
6
CONTINUOUS
10
0.161956
20
1.97918
11
0.16439
21
1.97918
0
LINE
8
BLACK
6
CONTINUOUS
10
0.16439
20
1.97918
11
0.166358
21
1.97775
0
LINE
8
BLACK
6
CONTINUOUS
10
0.205468
20
2.02296
11
0.206366
21
2.02283
0
LINE
8
BLACK
6
CONTINUOUS
10
0.206366
20
2.02283
11
0.21124
21
2.02039
0
LINE
8
BLACK
6
CONTINUOUS
10
0.21124
20
2.02039
11
0.211695
21
2.01994
0
LINE
8
BLACK
6
CONTINUOUS
10
0.211695
20
2.01994
11
0.212264
21
2.01965
0
LINE
8
BLACK
6
CONTINUOUS
10
0.212264
20
2.01965
11
0.214701
21
2.01722
0
LINE
8
BLACK
6
CONTINUOUS
10
0.214701
20
2.01722
11
0.21499
21
2.01665
0
LINE
8
BLACK
6
CONTINUOUS
10
0.21499
20
2.01665
11
0.215438
21
2.01619
0
LINE
8
BLACK
6
CONTINUOUS
10
0.215438
20
2.01619
11
0.217876
21
2.01132
0
LINE
8
BLACK
6
CONTINUOUS
10
0.217876
20
2.01132
11
0.218011
21
2.01042
0
LINE
8
BLACK
6
CONTINUOUS
10
0.218011
20
2.01042
11
0.218291
21
2.00956
0
LINE
8
BLACK
6
CONTINUOUS
10
0.218291
20
2.00956
11
0.218291
21
1.99737
0
LINE
8
BLACK
6
CONTINUOUS
10
0.218291
20
1.99737
11
0.218011
21
1.99651
0
LINE
8
BLACK
6
CONTINUOUS
10
0.218011
20
1.99651
11
0.217876
21
1.99561
0
LINE
8
BLACK
6
CONTINUOUS
10
0.217876
20
1.99561
11
0.215438
21
1.99074
0
LINE
8
BLACK
6
CONTINUOUS
10
0.215438
20
1.99074
11
0.214991
21
1.99028
0
LINE
8
BLACK
6
CONTINUOUS
10
0.214991
20
1.99028
11
0.214701
21
1.98972
0
LINE
8
BLACK
6
CONTINUOUS
10
0.214701
20
1.98972
11
0.212264
21
1.98728
0
LINE
8
BLACK
6
CONTINUOUS
10
0.212264
20
1.98728
11
0.210096
21
1.98617
0
LINE
8
BLACK
6
CONTINUOUS
10
0.210096
20
1.98617
11
0.207692
21
1.98655
0
LINE
8
BLACK
6
CONTINUOUS
10
0.207692
20
1.98655
11
0.205972
21
1.98827
0
LINE
8
BLACK
6
CONTINUOUS
10
0.205972
20
1.98827
11
0.205591
21
1.99068
0
LINE
8
BLACK
6
CONTINUOUS
10
0.205591
20
1.99068
11
0.206696
21
1.99285
0
LINE
8
BLACK
6
CONTINUOUS
10
0.206696
20
1.99285
11
0.208681
21
1.99483
0
LINE
8
BLACK
6
CONTINUOUS
10
0.208681
20
1.99483
11
0.210417
21
1.9983
0
LINE
8
BLACK
6
CONTINUOUS
10
0.210417
20
1.9983
11
0.210417
21
2.00863
0
LINE
8
BLACK
6
CONTINUOUS
10
0.210417
20
2.00863
11
0.208681
21
2.0121
0
LINE
8
BLACK
6
CONTINUOUS
10
0.208681
20
2.0121
11
0.207148
21
2.01364
0
LINE
8
BLACK
6
CONTINUOUS
10
0.207148
20
2.01364
11
0.203676
21
2.01537
0
LINE
8
BLACK
6
CONTINUOUS
10
0.203676
20
2.01537
11
0.193349
21
2.01537
0
LINE
8
BLACK
6
CONTINUOUS
10
0.193349
20
2.01537
11
0.189877
21
2.01364
0
LINE
8
BLACK
6
CONTINUOUS
10
0.189877
20
2.01364
11
0.188343
21
2.0121
0
LINE
8
BLACK
6
CONTINUOUS
10
0.188343
20
2.0121
11
0.186608
21
2.00863
0
LINE
8
BLACK
6
CONTINUOUS
10
0.186608
20
2.00863
11
0.186608
21
1.9983
0
LINE
8
BLACK
6
CONTINUOUS
10
0.186608
20
1.9983
11
0.188344
21
1.99483
0
LINE
8
BLACK
6
CONTINUOUS
10
0.188344
20
1.99483
11
0.190329
21
1.99285
0
LINE
8
BLACK
6
CONTINUOUS
10
0.190329
20
1.99285
11
0.190832
21
1.99186
0
LINE
8
BLACK
6
CONTINUOUS
10
0.190832
20
1.99186
11
0.191392
21
1.9909
0
LINE
8
BLACK
6
CONTINUOUS
10
0.191392
20
1.9909
11
0.19138
21
1.99078
0
LINE
8
BLACK
6
CONTINUOUS
10
0.19138
20
1.99078
11
0.191434
21
1.99068
0
LINE
8
BLACK
6
CONTINUOUS
10
0.191434
20
1.99068
11
0.19126
21
1.98958
0
LINE
8
BLACK
6
CONTINUOUS
10
0.19126
20
1.98958
11
0.19115
21
1.98848
0
LINE
8
BLACK
6
CONTINUOUS
10
0.19115
20
1.98848
11
0.191071
21
1.98839
0
LINE
8
BLACK
6
CONTINUOUS
10
0.191071
20
1.98839
11
0.191053
21
1.98827
0
LINE
8
BLACK
6
CONTINUOUS
10
0.191053
20
1.98827
11
0.190269
21
1.98749
0
LINE
8
BLACK
6
CONTINUOUS
10
0.190269
20
1.98749
11
0.189531
21
1.98666
0
LINE
8
BLACK
6
CONTINUOUS
10
0.189531
20
1.98666
11
0.189416
21
1.98664
0
LINE
8
BLACK
6
CONTINUOUS
10
0.189416
20
1.98664
11
0.189332
21
1.98655
0
LINE
8
BLACK
6
CONTINUOUS
10
0.189332
20
1.98655
11
0.188237
21
1.98638
0
LINE
8
BLACK
6
CONTINUOUS
10
0.188237
20
1.98638
11
0.187153
21
1.98614
0
LINE
8
BLACK
6
CONTINUOUS
10
0.187153
20
1.98614
11
0.162781
21
1.98858
0
LINE
8
BLACK
6
CONTINUOUS
10
0.162781
20
1.98858
11
0.162387
21
1.98875
0
LINE
8
BLACK
6
CONTINUOUS
10
0.162387
20
1.98875
11
0.161956
21
1.98875
0
LINE
8
BLACK
6
CONTINUOUS
10
0.161956
20
1.98875
11
0.161298
21
1.98923
0
LINE
8
BLACK
6
CONTINUOUS
10
0.161298
20
1.98923
11
0.160553
21
1.98956
0
LINE
8
BLACK
6
CONTINUOUS
10
0.160553
20
1.98956
11
0.160336
21
1.98993
0
LINE
8
BLACK
6
CONTINUOUS
10
0.160336
20
1.98993
11
0.159988
21
1.99018
0
LINE
8
BLACK
6
CONTINUOUS
10
0.159988
20
1.99018
11
0.159737
21
1.99096
0
LINE
8
BLACK
6
CONTINUOUS
10
0.159737
20
1.99096
11
0.159326
21
1.99166
0
LINE
8
BLACK
6
CONTINUOUS
10
0.159326
20
1.99166
11
0.159369
21
1.99209
0
LINE
8
BLACK
6
CONTINUOUS
10
0.159369
20
1.99209
11
0.159236
21
1.9925
0
LINE
8
BLACK
6
CONTINUOUS
10
0.159236
20
1.9925
11
0.159236
21
2.01687
0
LINE
8
BLACK
6
CONTINUOUS
10
0.159236
20
2.01687
11
0.159988
21
2.01919
0
LINE
8
BLACK
6
CONTINUOUS
10
0.159988
20
2.01919
11
0.161956
21
2.02062
0
LINE
8
BLACK
6
CONTINUOUS
10
0.161956
20
2.02062
11
0.16439
21
2.02062
0
LINE
8
BLACK
6
CONTINUOUS
10
0.16439
20
2.02062
11
0.166358
21
2.01919
0
LINE
8
BLACK
6
CONTINUOUS
10
0.166358
20
2.01919
11
0.16711
21
2.01687
0
LINE
8
BLACK
6
CONTINUOUS
10
0.16711
20
2.01687
11
0.16711
21
1.99606
0
LINE
8
BLACK
6
CONTINUOUS
10
0.16711
20
1.99606
11
0.179546
21
1.99482
0
LINE
8
BLACK
6
CONTINUOUS
10
0.179546
20
1.99482
11
0.179149
21
1.99561
0
LINE
8
BLACK
6
CONTINUOUS
10
0.179149
20
1.99561
11
0.179014
21
1.99651
0
LINE
8
BLACK
6
CONTINUOUS
10
0.179014
20
1.99651
11
0.178734
21
1.99737
0
LINE
8
BLACK
6
CONTINUOUS
10
0.178734
20
1.99737
11
0.178734
21
2.00956
0
LINE
8
BLACK
6
CONTINUOUS
10
0.178734
20
2.00956
11
0.179014
21
2.01042
0
LINE
8
BLACK
6
CONTINUOUS
10
0.179014
20
2.01042
11
0.179149
21
2.01132
0
LINE
8
BLACK
6
CONTINUOUS
10
0.179149
20
2.01132
11
0.181586
21
2.01619
0
LINE
8
BLACK
6
CONTINUOUS
10
0.181586
20
2.01619
11
0.182034
21
2.01665
0
LINE
8
BLACK
6
CONTINUOUS
10
0.182034
20
2.01665
11
0.182324
21
2.01722
0
LINE
8
BLACK
6
CONTINUOUS
10
0.182324
20
2.01722
11
0.184761
21
2.01965
0
LINE
8
BLACK
6
CONTINUOUS
10
0.184761
20
2.01965
11
0.18533
21
2.01994
0
LINE
8
BLACK
6
CONTINUOUS
10
0.18533
20
2.01994
11
0.185784
21
2.02039
0
LINE
8
BLACK
6
CONTINUOUS
10
0.185784
20
2.02039
11
0.190659
21
2.02283
0
LINE
8
BLACK
6
CONTINUOUS
10
0.190659
20
2.02283
11
0.191556
21
2.02296
0
LINE
8
BLACK
6
CONTINUOUS
10
0.191556
20
2.02296
11
0.192419
21
2.02325
0
LINE
8
BLACK
6
CONTINUOUS
10
0.192419
20
2.02325
11
0.204605
21
2.02325
0
LINE
8
BLACK
6
CONTINUOUS
10
0.204605
20
2.02325
11
0.205468
21
2.02296
0
LINE
8
BLACK
6
CONTINUOUS
10
0.205468
20
2.07415
11
0.206366
21
2.07401
0
LINE
8
BLACK
6
CONTINUOUS
10
0.206366
20
2.07401
11
0.21124
21
2.07157
0
LINE
8
BLACK
6
CONTINUOUS
10
0.21124
20
2.07157
11
0.211695
21
2.07113
0
LINE
8
BLACK
6
CONTINUOUS
10
0.211695
20
2.07113
11
0.212264
21
2.07084
0
LINE
8
BLACK
6
CONTINUOUS
10
0.212264
20
2.07084
11
0.214701
21
2.0684
0
LINE
8
BLACK
6
CONTINUOUS
10
0.214701
20
2.0684
11
0.21499
21
2.06783
0
LINE
8
BLACK
6
CONTINUOUS
10
0.21499
20
2.06783
11
0.215438
21
2.06738
0
LINE
8
BLACK
6
CONTINUOUS
10
0.215438
20
2.06738
11
0.217876
21
2.0625
0
LINE
8
BLACK
6
CONTINUOUS
10
0.217876
20
2.0625
11
0.218011
21
2.0616
0
LINE
8
BLACK
6
CONTINUOUS
10
0.218011
20
2.0616
11
0.218291
21
2.06074
0
LINE
8
BLACK
6
CONTINUOUS
10
0.218291
20
2.06074
11
0.218291
21
2.04124
0
LINE
8
BLACK
6
CONTINUOUS
10
0.218291
20
2.04124
11
0.218098
21
2.04065
0
LINE
8
BLACK
6
CONTINUOUS
10
0.218098
20
2.04065
11
0.218098
21
2.04003
0
LINE
8
BLACK
6
CONTINUOUS
10
0.218098
20
2.04003
11
0.217732
21
2.03952
0
LINE
8
BLACK
6
CONTINUOUS
10
0.217732
20
2.03952
11
0.217539
21
2.03893
0
LINE
8
BLACK
6
CONTINUOUS
10
0.217539
20
2.03893
11
0.217035
21
2.03856
0
LINE
8
BLACK
6
CONTINUOUS
10
0.217035
20
2.03856
11
0.216668
21
2.03806
0
LINE
8
BLACK
6
CONTINUOUS
10
0.216668
20
2.03806
11
0.216075
21
2.03787
0
LINE
8
BLACK
6
CONTINUOUS
10
0.216075
20
2.03787
11
0.215571
21
2.0375
0
LINE
8
BLACK
6
CONTINUOUS
10
0.215571
20
2.0375
11
0.214947
21
2.0375
0
LINE
8
BLACK
6
CONTINUOUS
10
0.214947
20
2.0375
11
0.214354
21
2.03731
0
LINE
8
BLACK
6
CONTINUOUS
10
0.214354
20
2.03731
11
0.163173
21
2.03731
0
LINE
8
BLACK
6
CONTINUOUS
10
0.163173
20
2.03731
11
0.16258
21
2.0375
0
LINE
8
BLACK
6
CONTINUOUS
10
0.16258
20
2.0375
11
0.161956
21
2.0375
0
LINE
8
BLACK
6
CONTINUOUS
10
0.161956
20
2.0375
11
0.161452
21
2.03787
0
LINE
8
BLACK
6
CONTINUOUS
10
0.161452
20
2.03787
11
0.160859
21
2.03806
0
LINE
8
BLACK
6
CONTINUOUS
10
0.160859
20
2.03806
11
0.160492
21
2.03856
0
LINE
8
BLACK
6
CONTINUOUS
10
0.160492
20
2.03856
11
0.159988
21
2.03893
0
LINE
8
BLACK
6
CONTINUOUS
10
0.159988
20
2.03893
11
0.159795
21
2.03952
0
LINE
8
BLACK
6
CONTINUOUS
10
0.159795
20
2.03952
11
0.159429
21
2.04003
0
LINE
8
BLACK
6
CONTINUOUS
10
0.159429
20
2.04003
11
0.159429
21
2.04065
0
LINE
8
BLACK
6
CONTINUOUS
10
0.159429
20
2.04065
11
0.159236
21
2.04124
0
LINE
8
BLACK
6
CONTINUOUS
10
0.159236
20
2.04124
11
0.159236
21
2.0583
0
LINE
8
BLACK
6
CONTINUOUS
10
0.159236
20
2.0583
11
0.159516
21
2.05917
0
LINE
8
BLACK
6
CONTINUOUS
10
0.159516
20
2.05917
11
0.159652
21
2.06006
0
LINE
8
BLACK
6
CONTINUOUS
10
0.159652
20
2.06006
11
0.162089
21
2.06494
0
LINE
8
BLACK
6
CONTINUOUS
10
0.162089
20
2.06494
11
0.162537
21
2.06539
0
LINE
8
BLACK
6
CONTINUOUS
10
0.162537
20
2.06539
11
0.162826
21
2.06596
0
LINE
8
BLACK
6
CONTINUOUS
10
0.162826
20
2.06596
11
0.165264
21
2.0684
0
LINE
8
BLACK
6
CONTINUOUS
10
0.165264
20
2.0684
11
0.165832
21
2.06869
0
LINE
8
BLACK
6
CONTINUOUS
10
0.165832
20
2.06869
11
0.166287
21
2.06914
0
LINE
8
BLACK
6
CONTINUOUS
10
0.166287
20
2.06914
11
0.171161
21
2.07157
0
LINE
8
BLACK
6
CONTINUOUS
10
0.171161
20
2.07157
11
0.172059
21
2.07171
0
LINE
8
BLACK
6
CONTINUOUS
10
0.172059
20
2.07171
11
0.172922
21
2.07199
0
LINE
8
BLACK
6
CONTINUOUS
10
0.172922
20
2.07199
11
0.177796
21
2.07199
0
LINE
8
BLACK
6
CONTINUOUS
10
0.177796
20
2.07199
11
0.178659
21
2.07171
0
LINE
8
BLACK
6
CONTINUOUS
10
0.178659
20
2.07171
11
0.179557
21
2.07157
0
LINE
8
BLACK
6
CONTINUOUS
10
0.179557
20
2.07157
11
0.184431
21
2.06914
0
LINE
8
BLACK
6
CONTINUOUS
10
0.184431
20
2.06914
11
0.184886
21
2.06869
0
LINE
8
BLACK
6
CONTINUOUS
10
0.184886
20
2.06869
11
0.185454
21
2.0684
0
LINE
8
BLACK
6
CONTINUOUS
10
0.185454
20
2.0684
11
0.186564
21
2.06729
0
LINE
8
BLACK
6
CONTINUOUS
10
0.186564
20
2.06729
11
0.186786
21
2.06759
0
LINE
8
BLACK
6
CONTINUOUS
10
0.186786
20
2.06759
11
0.187198
21
2.0684
0
LINE
8
BLACK
6
CONTINUOUS
10
0.187198
20
2.0684
11
0.189636
21
2.07084
0
LINE
8
BLACK
6
CONTINUOUS
10
0.189636
20
2.07084
11
0.190204
21
2.07113
0
LINE
8
BLACK
6
CONTINUOUS
10
0.190204
20
2.07113
11
0.190659
21
2.07157
0
LINE
8
BLACK
6
CONTINUOUS
10
0.190659
20
2.07157
11
0.195533
21
2.07401
0
LINE
8
BLACK
6
CONTINUOUS
10
0.195533
20
2.07401
11
0.196431
21
2.07415
0
LINE
8
BLACK
6
CONTINUOUS
10
0.196431
20
2.07415
11
0.197294
21
2.07443
0
LINE
8
BLACK
6
CONTINUOUS
10
0.197294
20
2.07443
11
0.204605
21
2.07443
0
LINE
8
BLACK
6
CONTINUOUS
10
0.204605
20
2.07443
11
0.205468
21
2.07415
0
LINE
8
BLACK
6
CONTINUOUS
10
0.173851
20
2.06412
11
0.170379
21
2.06238
0
LINE
8
BLACK
6
CONTINUOUS
10
0.170379
20
2.06238
11
0.168846
21
2.06085
0
LINE
8
BLACK
6
CONTINUOUS
10
0.168846
20
2.06085
11
0.16711
21
2.05737
0
LINE
8
BLACK
6
CONTINUOUS
10
0.16711
20
2.05737
11
0.16711
21
2.04518
0
LINE
8
BLACK
6
CONTINUOUS
10
0.16711
20
2.04518
11
0.183608
21
2.04518
0
LINE
8
BLACK
6
CONTINUOUS
10
0.183608
20
2.04518
11
0.183608
21
2.05737
0
LINE
8
BLACK
6
CONTINUOUS
10
0.183608
20
2.05737
11
0.181872
21
2.06085
0
LINE
8
BLACK
6
CONTINUOUS
10
0.181872
20
2.06085
11
0.180338
21
2.06238
0
LINE
8
BLACK
6
CONTINUOUS
10
0.180338
20
2.06238
11
0.176867
21
2.06412
0
LINE
8
BLACK
6
CONTINUOUS
10
0.176867
20
2.06412
11
0.173851
21
2.06412
0
LINE
8
BLACK
6
CONTINUOUS
10
0.198223
20
2.06655
11
0.194751
21
2.06482
0
LINE
8
BLACK
6
CONTINUOUS
10
0.194751
20
2.06482
11
0.193423
21
2.06349
0
LINE
8
BLACK
6
CONTINUOUS
10
0.193423
20
2.06349
11
0.191482
21
2.05766
0
LINE
8
BLACK
6
CONTINUOUS
10
0.191482
20
2.05766
11
0.191482
21
2.04518
0
LINE
8
BLACK
6
CONTINUOUS
10
0.191482
20
2.04518
11
0.210417
21
2.04518
0
LINE
8
BLACK
6
CONTINUOUS
10
0.210417
20
2.04518
11
0.210417
21
2.05981
0
LINE
8
BLACK
6
CONTINUOUS
10
0.210417
20
2.05981
11
0.208681
21
2.06328
0
LINE
8
BLACK
6
CONTINUOUS
10
0.208681
20
2.06328
11
0.207148
21
2.06482
0
LINE
8
BLACK
6
CONTINUOUS
10
0.207148
20
2.06482
11
0.203676
21
2.06655
0
LINE
8
BLACK
6
CONTINUOUS
10
0.203676
20
2.06655
11
0.198223
21
2.06655
0
LINE
8
BLACK
6
CONTINUOUS
10
0.217522
20
2.12157
11
0.218291
21
2.11926
0
LINE
8
BLACK
6
CONTINUOUS
10
0.218291
20
2.11926
11
0.217557
21
2.11694
0
LINE
8
BLACK
6
CONTINUOUS
10
0.217557
20
2.11694
11
0.215599
21
2.1155
0
LINE
8
BLACK
6
CONTINUOUS
10
0.215599
20
2.1155
11
0.203668
21
2.11152
0
LINE
8
BLACK
6
CONTINUOUS
10
0.203668
20
2.11152
11
0.203668
21
2.09282
0
LINE
8
BLACK
6
CONTINUOUS
10
0.203668
20
2.09282
11
0.215599
21
2.08885
0
LINE
8
BLACK
6
CONTINUOUS
10
0.215599
20
2.08885
11
0.217557
21
2.0874
0
LINE
8
BLACK
6
CONTINUOUS
10
0.217557
20
2.0874
11
0.218291
21
2.08508
0
LINE
8
BLACK
6
CONTINUOUS
10
0.218291
20
2.08508
11
0.217522
21
2.08277
0
LINE
8
BLACK
6
CONTINUOUS
10
0.217522
20
2.08277
11
0.215542
21
2.08136
0
LINE
8
BLACK
6
CONTINUOUS
10
0.215542
20
2.08136
11
0.213109
21
2.08138
0
LINE
8
BLACK
6
CONTINUOUS
10
0.213109
20
2.08138
11
0.161928
21
2.09844
0
LINE
8
BLACK
6
CONTINUOUS
10
0.161928
20
2.09844
11
0.160972
21
2.09914
0
LINE
8
BLACK
6
CONTINUOUS
10
0.160972
20
2.09914
11
0.160006
21
2.09983
0
LINE
8
BLACK
6
CONTINUOUS
10
0.160006
20
2.09983
11
0.159996
21
2.09986
0
LINE
8
BLACK
6
CONTINUOUS
10
0.159996
20
2.09986
11
0.15997
21
2.09988
0
LINE
8
BLACK
6
CONTINUOUS
10
0.15997
20
2.09988
11
0.159612
21
2.10102
0
LINE
8
BLACK
6
CONTINUOUS
10
0.159612
20
2.10102
11
0.159236
21
2.10214
0
LINE
8
BLACK
6
CONTINUOUS
10
0.159236
20
2.10214
11
0.159246
21
2.10217
0
LINE
8
BLACK
6
CONTINUOUS
10
0.159246
20
2.10217
11
0.159236
21
2.1022
0
LINE
8
BLACK
6
CONTINUOUS
10
0.159236
20
2.1022
11
0.159612
21
2.10333
0
LINE
8
BLACK
6
CONTINUOUS
10
0.159612
20
2.10333
11
0.15997
21
2.10446
0
LINE
8
BLACK
6
CONTINUOUS
10
0.15997
20
2.10446
11
0.159996
21
2.10448
0
LINE
8
BLACK
6
CONTINUOUS
10
0.159996
20
2.10448
11
0.160006
21
2.10451
0
LINE
8
BLACK
6
CONTINUOUS
10
0.160006
20
2.10451
11
0.160972
21
2.1052
0
LINE
8
BLACK
6
CONTINUOUS
10
0.160972
20
2.1052
11
0.161928
21
2.10591
0
LINE
8
BLACK
6
CONTINUOUS
10
0.161928
20
2.10591
11
0.213109
21
2.12297
0
LINE
8
BLACK
6
CONTINUOUS
10
0.213109
20
2.12297
11
0.215542
21
2.12299
0
LINE
8
BLACK
6
CONTINUOUS
10
0.215542
20
2.12299
11
0.217522
21
2.12157
0
LINE
8
BLACK
6
CONTINUOUS
10
0.175623
20
2.10217
11
0.195794
21
2.09545
0
LINE
8
BLACK
6
CONTINUOUS
10
0.195794
20
2.09545
11
0.195794
21
2.1089
0
LINE
8
BLACK
6
CONTINUOUS
10
0.195794
20
2.1089
11
0.175623
21
2.10217
0
LINE
8
BLACK
6
CONTINUOUS
10
0.123067
20
2.14726
11
0.123964
21
2.14713
0
LINE
8
BLACK
6
CONTINUOUS
10
0.123964
20
2.14713
11
0.128839
21
2.14469
0
LINE
8
BLACK
6
CONTINUOUS
10
0.128839
20
2.14469
11
0.129294
21
2.14424
0
LINE
8
BLACK
6
CONTINUOUS
10
0.129294
20
2.14424
11
0.129862
21
2.14395
0
LINE
8
BLACK
6
CONTINUOUS
10
0.129862
20
2.14395
11
0.132299
21
2.14151
0
LINE
8
BLACK
6
CONTINUOUS
10
0.132299
20
2.14151
11
0.132589
21
2.14095
0
LINE
8
BLACK
6
CONTINUOUS
10
0.132589
20
2.14095
11
0.133037
21
2.14049
0
LINE
8
BLACK
6
CONTINUOUS
10
0.133037
20
2.14049
11
0.135474
21
2.13562
0
LINE
8
BLACK
6
CONTINUOUS
10
0.135474
20
2.13562
11
0.135609
21
2.13472
0
LINE
8
BLACK
6
CONTINUOUS
10
0.135609
20
2.13472
11
0.13589
21
2.13386
0
LINE
8
BLACK
6
CONTINUOUS
10
0.13589
20
2.13386
11
0.13589
21
2.12411
0
LINE
8
BLACK
6
CONTINUOUS
10
0.13589
20
2.12411
11
0.135609
21
2.12324
0
LINE
8
BLACK
6
CONTINUOUS
10
0.135609
20
2.12324
11
0.135474
21
2.12235
0
LINE
8
BLACK
6
CONTINUOUS
10
0.135474
20
2.12235
11
0.133037
21
2.11747
0
LINE
8
BLACK
6
CONTINUOUS
10
0.133037
20
2.11747
11
0.132589
21
2.11702
0
LINE
8
BLACK
6
CONTINUOUS
10
0.132589
20
2.11702
11
0.132299
21
2.11645
0
LINE
8
BLACK
6
CONTINUOUS
10
0.132299
20
2.11645
11
0.129862
21
2.11401
0
LINE
8
BLACK
6
CONTINUOUS
10
0.129862
20
2.11401
11
0.129294
21
2.11372
0
LINE
8
BLACK
6
CONTINUOUS
10
0.129294
20
2.11372
11
0.128839
21
2.11327
0
LINE
8
BLACK
6
CONTINUOUS
10
0.128839
20
2.11327
11
0.123964
21
2.11084
0
LINE
8
BLACK
6
CONTINUOUS
10
0.123964
20
2.11084
11
0.123067
21
2.1107
0
LINE
8
BLACK
6
CONTINUOUS
10
0.123067
20
2.1107
11
0.122204
21
2.11042
0
LINE
8
BLACK
6
CONTINUOUS
10
0.122204
20
2.11042
11
0.0807715
21
2.11042
0
LINE
8
BLACK
6
CONTINUOUS
10
0.0807715
20
2.11042
11
0.0784573
21
2.11117
0
LINE
8
BLACK
6
CONTINUOUS
10
0.0784573
20
2.11117
11
0.0770271
21
2.11314
0
LINE
8
BLACK
6
CONTINUOUS
10
0.0770271
20
2.11314
11
0.0770271
21
2.11558
0
LINE
8
BLACK
6
CONTINUOUS
10
0.0770271
20
2.11558
11
0.0784573
21
2.11754
0
LINE
8
BLACK
6
CONTINUOUS
10
0.0784573
20
2.11754
11
0.0807715
21
2.1183
0
LINE
8
BLACK
6
CONTINUOUS
10
0.0807715
20
2.1183
11
0.121274
21
2.1183
0
LINE
8
BLACK
6
CONTINUOUS
10
0.121274
20
2.1183
11
0.124746
21
2.12003
0
LINE
8
BLACK
6
CONTINUOUS
10
0.124746
20
2.12003
11
0.12628
21
2.12157
0
LINE
8
BLACK
6
CONTINUOUS
10
0.12628
20
2.12157
11
0.128016
21
2.12504
0
LINE
8
BLACK
6
CONTINUOUS
10
0.128016
20
2.12504
11
0.128016
21
2.13293
0
LINE
8
BLACK
6
CONTINUOUS
10
0.128016
20
2.13293
11
0.12628
21
2.1364
0
LINE
8
BLACK
6
CONTINUOUS
10
0.12628
20
2.1364
11
0.124746
21
2.13793
0
LINE
8
BLACK
6
CONTINUOUS
10
0.124746
20
2.13793
11
0.121274
21
2.13967
0
LINE
8
BLACK
6
CONTINUOUS
10
0.121274
20
2.13967
11
0.0807715
21
2.13967
0
LINE
8
BLACK
6
CONTINUOUS
10
0.0807715
20
2.13967
11
0.0784573
21
2.14042
0
LINE
8
BLACK
6
CONTINUOUS
10
0.0784573
20
2.14042
11
0.0770271
21
2.14239
0
LINE
8
BLACK
6
CONTINUOUS
10
0.0770271
20
2.14239
11
0.0770271
21
2.14482
0
LINE
8
BLACK
6
CONTINUOUS
10
0.0770271
20
2.14482
11
0.0784573
21
2.14679
0
LINE
8
BLACK
6
CONTINUOUS
10
0.0784573
20
2.14679
11
0.0807715
21
2.14754
0
LINE
8
BLACK
6
CONTINUOUS
10
0.0807715
20
2.14754
11
0.122204
21
2.14754
0
LINE
8
BLACK
6
CONTINUOUS
10
0.122204
20
2.14754
11
0.123067
21
2.14726
0
LINE
8
BLACK
6
CONTINUOUS
10
0.166358
20
2.16054
11
0.16711
21
2.15823
0
LINE
8
BLACK
6
CONTINUOUS
10
0.16711
20
2.15823
11
0.16711
21
2.14754
0
LINE
8
BLACK
6
CONTINUOUS
10
0.16711
20
2.14754
11
0.214354
21
2.14754
0
LINE
8
BLACK
6
CONTINUOUS
10
0.214354
20
2.14754
11
0.216668
21
2.14679
0
LINE
8
BLACK
6
CONTINUOUS
10
0.216668
20
2.14679
11
0.218098
21
2.14482
0
LINE
8
BLACK
6
CONTINUOUS
10
0.218098
20
2.14482
11
0.218098
21
2.14239
0
LINE
8
BLACK
6
CONTINUOUS
10
0.218098
20
2.14239
11
0.216668
21
2.14042
0
LINE
8
BLACK
6
CONTINUOUS
10
0.216668
20
2.14042
11
0.214354
21
2.13967
0
LINE
8
BLACK
6
CONTINUOUS
10
0.214354
20
2.13967
11
0.16711
21
2.13967
0
LINE
8
BLACK
6
CONTINUOUS
10
0.16711
20
2.13967
11
0.16711
21
2.12898
0
LINE
8
BLACK
6
CONTINUOUS
10
0.16711
20
2.12898
11
0.166358
21
2.12667
0
LINE
8
BLACK
6
CONTINUOUS
10
0.166358
20
2.12667
11
0.16439
21
2.12524
0
LINE
8
BLACK
6
CONTINUOUS
10
0.16439
20
2.12524
11
0.161956
21
2.12524
0
LINE
8
BLACK
6
CONTINUOUS
10
0.161956
20
2.12524
11
0.159988
21
2.12667
0
LINE
8
BLACK
6
CONTINUOUS
10
0.159988
20
2.12667
11
0.159236
21
2.12898
0
LINE
8
BLACK
6
CONTINUOUS
10
0.159236
20
2.12898
11
0.159236
21
2.15823
0
LINE
8
BLACK
6
CONTINUOUS
10
0.159236
20
2.15823
11
0.159988
21
2.16054
0
LINE
8
BLACK
6
CONTINUOUS
10
0.159988
20
2.16054
11
0.161956
21
2.16197
0
LINE
8
BLACK
6
CONTINUOUS
10
0.161956
20
2.16197
11
0.16439
21
2.16197
0
LINE
8
BLACK
6
CONTINUOUS
10
0.16439
20
2.16197
11
0.166358
21
2.16054
0
LINE
8
BLACK
6
CONTINUOUS
10
0.123067
20
2.19844
11
0.123964
21
2.19831
0
LINE
8
BLACK
6
CONTINUOUS
10
0.123964
20
2.19831
11
0.128839
21
2.19587
0
LINE
8
BLACK
6
CONTINUOUS
10
0.128839
20
2.19587
11
0.129294
21
2.19542
0
LINE
8
BLACK
6
CONTINUOUS
10
0.129294
20
2.19542
11
0.129862
21
2.19513
0
LINE
8
BLACK
6
CONTINUOUS
10
0.129862
20
2.19513
11
0.132299
21
2.1927
0
LINE
8
BLACK
6
CONTINUOUS
10
0.132299
20
2.1927
11
0.132589
21
2.19213
0
LINE
8
BLACK
6
CONTINUOUS
10
0.132589
20
2.19213
11
0.133037
21
2.19167
0
LINE
8
BLACK
6
CONTINUOUS
10
0.133037
20
2.19167
11
0.135474
21
2.1868
0
LINE
8
BLACK
6
CONTINUOUS
10
0.135474
20
2.1868
11
0.135609
21
2.1859
0
LINE
8
BLACK
6
CONTINUOUS
10
0.135609
20
2.1859
11
0.13589
21
2.18504
0
LINE
8
BLACK
6
CONTINUOUS
10
0.13589
20
2.18504
11
0.13589
21
2.17285
0
LINE
8
BLACK
6
CONTINUOUS
10
0.13589
20
2.17285
11
0.135692
21
2.17224
0
LINE
8
BLACK
6
CONTINUOUS
10
0.135692
20
2.17224
11
0.135688
21
2.17161
0
LINE
8
BLACK
6
CONTINUOUS
10
0.135688
20
2.17161
11
0.13325
21
2.16429
0
LINE
8
BLACK
6
CONTINUOUS
10
0.13325
20
2.16429
11
0.131805
21
2.16234
0
LINE
8
BLACK
6
CONTINUOUS
10
0.131805
20
2.16234
11
0.129485
21
2.1616
0
LINE
8
BLACK
6
CONTINUOUS
10
0.129485
20
2.1616
11
0.127177
21
2.16237
0
LINE
8
BLACK
6
CONTINUOUS
10
0.127177
20
2.16237
11
0.125762
21
2.16435
0
LINE
8
BLACK
6
CONTINUOUS
10
0.125762
20
2.16435
11
0.12578
21
2.16678
0
LINE
8
BLACK
6
CONTINUOUS
10
0.12578
20
2.16678
11
0.128016
21
2.17349
0
LINE
8
BLACK
6
CONTINUOUS
10
0.128016
20
2.17349
11
0.128016
21
2.18411
0
LINE
8
BLACK
6
CONTINUOUS
10
0.128016
20
2.18411
11
0.12628
21
2.18758
0
LINE
8
BLACK
6
CONTINUOUS
10
0.12628
20
2.18758
11
0.124746
21
2.18911
0
LINE
8
BLACK
6
CONTINUOUS
10
0.124746
20
2.18911
11
0.121274
21
2.19085
0
LINE
8
BLACK
6
CONTINUOUS
10
0.121274
20
2.19085
11
0.118259
21
2.19085
0
LINE
8
BLACK
6
CONTINUOUS
10
0.118259
20
2.19085
11
0.114787
21
2.18911
0
LINE
8
BLACK
6
CONTINUOUS
10
0.114787
20
2.18911
11
0.113253
21
2.18758
0
LINE
8
BLACK
6
CONTINUOUS
10
0.113253
20
2.18758
11
0.111295
21
2.18366
0
LINE
8
BLACK
6
CONTINUOUS
10
0.111295
20
2.18366
11
0.108963
21
2.17433
0
LINE
8
BLACK
6
CONTINUOUS
10
0.108963
20
2.17433
11
0.10873
21
2.17396
0
LINE
8
BLACK
6
CONTINUOUS
10
0.10873
20
2.17396
11
0.108665
21
2.17353
0
LINE
8
BLACK
6
CONTINUOUS
10
0.108665
20
2.17353
11
0.106228
21
2.16865
0
LINE
8
BLACK
6
CONTINUOUS
10
0.106228
20
2.16865
11
0.10578
21
2.1682
0
LINE
8
BLACK
6
CONTINUOUS
10
0.10578
20
2.1682
11
0.10549
21
2.16763
0
LINE
8
BLACK
6
CONTINUOUS
10
0.10549
20
2.16763
11
0.103053
21
2.16519
0
LINE
8
BLACK
6
CONTINUOUS
10
0.103053
20
2.16519
11
0.102484
21
2.1649
0
LINE
8
BLACK
6
CONTINUOUS
10
0.102484
20
2.1649
11
0.10203
21
2.16446
0
LINE
8
BLACK
6
CONTINUOUS
10
0.10203
20
2.16446
11
0.0971553
21
2.16202
0
LINE
8
BLACK
6
CONTINUOUS
10
0.0971553
20
2.16202
11
0.0962578
21
2.16188
0
LINE
8
BLACK
6
CONTINUOUS
10
0.0962578
20
2.16188
11
0.0953946
21
2.1616
0
LINE
8
BLACK
6
CONTINUOUS
10
0.0953946
20
2.1616
11
0.0905202
21
2.1616
0
LINE
8
BLACK
6
CONTINUOUS
10
0.0905202
20
2.1616
11
0.0896571
21
2.16188
0
LINE
8
BLACK
6
CONTINUOUS
10
0.0896571
20
2.16188
11
0.0887596
21
2.16202
0
LINE
8
BLACK
6
CONTINUOUS
10
0.0887596
20
2.16202
11
0.0838852
21
2.16446
0
LINE
8
BLACK
6
CONTINUOUS
10
0.0838852
20
2.16446
11
0.0834305
21
2.1649
0
LINE
8
BLACK
6
CONTINUOUS
10
0.0834305
20
2.1649
11
0.0828619
21
2.16519
0
LINE
8
BLACK
6
CONTINUOUS
10
0.0828619
20
2.16519
11
0.0804248
21
2.16763
0
LINE
8
BLACK
6
CONTINUOUS
10
0.0804248
20
2.16763
11
0.0801351
21
2.1682
0
LINE
8
BLACK
6
CONTINUOUS
10
0.0801351
20
2.1682
11
0.0796873
21
2.16865
0
LINE
8
BLACK
6
CONTINUOUS
10
0.0796873
20
2.16865
11
0.0772501
21
2.17353
0
LINE
8
BLACK
6
CONTINUOUS
10
0.0772501
20
2.17353
11
0.0771149
21
2.17443
0
LINE
8
BLACK
6
CONTINUOUS
10
0.0771149
20
2.17443
11
0.0768344
21
2.17529
0
LINE
8
BLACK
6
CONTINUOUS
10
0.0768344
20
2.17529
11
0.0768344
21
2.18747
0
LINE
8
BLACK
6
CONTINUOUS
10
0.0768344
20
2.18747
11
0.0770317
21
2.18808
0
LINE
8
BLACK
6
CONTINUOUS
10
0.0770317
20
2.18808
11
0.0770365
21
2.18872
0
LINE
8
BLACK
6
CONTINUOUS
10
0.0770365
20
2.18872
11
0.0794737
21
2.19603
0
LINE
8
BLACK
6
CONTINUOUS
10
0.0794737
20
2.19603
11
0.0809188
21
2.19799
0
LINE
8
BLACK
6
CONTINUOUS
10
0.0809188
20
2.19799
11
0.0832385
21
2.19872
0
LINE
8
BLACK
6
CONTINUOUS
10
0.0832385
20
2.19872
11
0.0855469
21
2.19795
0
LINE
8
BLACK
6
CONTINUOUS
10
0.0855469
20
2.19795
11
0.0869621
21
2.19597
0
LINE
8
BLACK
6
CONTINUOUS
10
0.0869621
20
2.19597
11
0.0869436
21
2.19354
0
LINE
8
BLACK
6
CONTINUOUS
10
0.0869436
20
2.19354
11
0.0847085
21
2.18684
0
LINE
8
BLACK
6
CONTINUOUS
10
0.0847085
20
2.18684
11
0.0847085
21
2.17622
0
LINE
8
BLACK
6
CONTINUOUS
10
0.0847085
20
2.17622
11
0.0864443
21
2.17275
0
LINE
8
BLACK
6
CONTINUOUS
10
0.0864443
20
2.17275
11
0.0879779
21
2.17121
0
LINE
8
BLACK
6
CONTINUOUS
10
0.0879779
20
2.17121
11
0.0914497
21
2.16948
0
LINE
8
BLACK
6
CONTINUOUS
10
0.0914497
20
2.16948
11
0.0944652
21
2.16948
0
LINE
8
BLACK
6
CONTINUOUS
10
0.0944652
20
2.16948
11
0.0979369
21
2.17121
0
LINE
8
BLACK
6
CONTINUOUS
10
0.0979369
20
2.17121
11
0.0994706
21
2.17275
0
LINE
8
BLACK
6
CONTINUOUS
10
0.0994706
20
2.17275
11
0.101429
21
2.17666
0
LINE
8
BLACK
6
CONTINUOUS
10
0.101429
20
2.17666
11
0.103761
21
2.18599
0
LINE
8
BLACK
6
CONTINUOUS
10
0.103761
20
2.18599
11
0.103994
21
2.18636
0
LINE
8
BLACK
6
CONTINUOUS
10
0.103994
20
2.18636
11
0.104059
21
2.1868
0
LINE
8
BLACK
6
CONTINUOUS
10
0.104059
20
2.1868
11
0.106496
21
2.19167
0
LINE
8
BLACK
6
CONTINUOUS
10
0.106496
20
2.19167
11
0.106944
21
2.19213
0
LINE
8
BLACK
6
CONTINUOUS
10
0.106944
20
2.19213
11
0.107234
21
2.1927
0
LINE
8
BLACK
6
CONTINUOUS
10
0.107234
20
2.1927
11
0.109671
21
2.19513
0
LINE
8
BLACK
6
CONTINUOUS
10
0.109671
20
2.19513
11
0.11024
21
2.19542
0
LINE
8
BLACK
6
CONTINUOUS
10
0.11024
20
2.19542
11
0.110694
21
2.19587
0
LINE
8
BLACK
6
CONTINUOUS
10
0.110694
20
2.19587
11
0.115569
21
2.19831
0
LINE
8
BLACK
6
CONTINUOUS
10
0.115569
20
2.19831
11
0.116466
21
2.19844
0
LINE
8
BLACK
6
CONTINUOUS
10
0.116466
20
2.19844
11
0.117329
21
2.19872
0
LINE
8
BLACK
6
CONTINUOUS
10
0.117329
20
2.19872
11
0.122204
21
2.19872
0
LINE
8
BLACK
6
CONTINUOUS
10
0.122204
20
2.19872
11
0.123067
21
2.19844
0
LINE
8
BLACK
6
CONTINUOUS
10
0.166358
20
2.19954
11
0.16711
21
2.19722
0
LINE
8
BLACK
6
CONTINUOUS
10
0.16711
20
2.19722
11
0.16711
21
2.18654
0
LINE
8
BLACK
6
CONTINUOUS
10
0.16711
20
2.18654
11
0.214354
21
2.18654
0
LINE
8
BLACK
6
CONTINUOUS
10
0.214354
20
2.18654
11
0.216668
21
2.18579
0
LINE
8
BLACK
6
CONTINUOUS
10
0.216668
20
2.18579
11
0.218098
21
2.18382
0
LINE
8
BLACK
6
CONTINUOUS
10
0.218098
20
2.18382
11
0.218098
21
2.18138
0
LINE
8
BLACK
6
CONTINUOUS
10
0.218098
20
2.18138
11
0.216668
21
2.17942
0
LINE
8
BLACK
6
CONTINUOUS
10
0.216668
20
2.17942
11
0.214354
21
2.17866
0
LINE
8
BLACK
6
CONTINUOUS
10
0.214354
20
2.17866
11
0.16711
21
2.17866
0
LINE
8
BLACK
6
CONTINUOUS
10
0.16711
20
2.17866
11
0.16711
21
2.16798
0
LINE
8
BLACK
6
CONTINUOUS
10
0.16711
20
2.16798
11
0.166358
21
2.16566
0
LINE
8
BLACK
6
CONTINUOUS
10
0.166358
20
2.16566
11
0.16439
21
2.16423
0
LINE
8
BLACK
6
CONTINUOUS
10
0.16439
20
2.16423
11
0.161956
21
2.16423
0
LINE
8
BLACK
6
CONTINUOUS
10
0.161956
20
2.16423
11
0.159988
21
2.16566
0
LINE
8
BLACK
6
CONTINUOUS
10
0.159988
20
2.16566
11
0.159236
21
2.16798
0
LINE
8
BLACK
6
CONTINUOUS
10
0.159236
20
2.16798
11
0.159236
21
2.19722
0
LINE
8
BLACK
6
CONTINUOUS
10
0.159236
20
2.19722
11
0.159988
21
2.19954
0
LINE
8
BLACK
6
CONTINUOUS
10
0.159988
20
2.19954
11
0.161956
21
2.20097
0
LINE
8
BLACK
6
CONTINUOUS
10
0.161956
20
2.20097
11
0.16439
21
2.20097
0
LINE
8
BLACK
6
CONTINUOUS
10
0.16439
20
2.20097
11
0.166358
21
2.19954
0
LINE
8
BLACK
6
CONTINUOUS
10
0.0839566
20
2.24097
11
0.0847085
21
2.23866
0
LINE
8
BLACK
6
CONTINUOUS
10
0.0847085
20
2.23866
11
0.0847085
21
2.22797
0
LINE
8
BLACK
6
CONTINUOUS
10
0.0847085
20
2.22797
11
0.131953
21
2.22797
0
LINE
8
BLACK
6
CONTINUOUS
10
0.131953
20
2.22797
11
0.134267
21
2.22722
0
LINE
8
BLACK
6
CONTINUOUS
10
0.134267
20
2.22722
11
0.135697
21
2.22525
0
LINE
8
BLACK
6
CONTINUOUS
10
0.135697
20
2.22525
11
0.135697
21
2.22282
0
LINE
8
BLACK
6
CONTINUOUS
10
0.135697
20
2.22282
11
0.134267
21
2.22085
0
LINE
8
BLACK
6
CONTINUOUS
10
0.134267
20
2.22085
11
0.131953
21
2.2201
0
LINE
8
BLACK
6
CONTINUOUS
10
0.131953
20
2.2201
11
0.0847085
21
2.2201
0
LINE
8
BLACK
6
CONTINUOUS
10
0.0847085
20
2.2201
11
0.0847085
21
2.20941
0
LINE
8
BLACK
6
CONTINUOUS
10
0.0847085
20
2.20941
11
0.0839566
21
2.2071
0
LINE
8
BLACK
6
CONTINUOUS
10
0.0839566
20
2.2071
11
0.0819881
21
2.20567
0
LINE
8
BLACK
6
CONTINUOUS
10
0.0819881
20
2.20567
11
0.0795548
21
2.20567
0
LINE
8
BLACK
6
CONTINUOUS
10
0.0795548
20
2.20567
11
0.0775863
21
2.2071
0
LINE
8
BLACK
6
CONTINUOUS
10
0.0775863
20
2.2071
11
0.0768344
21
2.20941
0
LINE
8
BLACK
6
CONTINUOUS
10
0.0768344
20
2.20941
11
0.0768344
21
2.23866
0
LINE
8
BLACK
6
CONTINUOUS
10
0.0768344
20
2.23866
11
0.0775863
21
2.24097
0
LINE
8
BLACK
6
CONTINUOUS
10
0.0775863
20
2.24097
11
0.0795548
21
2.2424
0
LINE
8
BLACK
6
CONTINUOUS
10
0.0795548
20
2.2424
11
0.0819881
21
2.2424
0
LINE
8
BLACK
6
CONTINUOUS
10
0.0819881
20
2.2424
11
0.0839566
21
2.24097
0
LINE
8
BLACK
6
CONTINUOUS
10
0.217539
20
2.24341
11
0.218291
21
2.24109
0
LINE
8
BLACK
6
CONTINUOUS
10
0.218291
20
2.24109
11
0.218291
21
2.21185
0
LINE
8
BLACK
6
CONTINUOUS
10
0.218291
20
2.21185
11
0.217539
21
2.20953
0
LINE
8
BLACK
6
CONTINUOUS
10
0.217539
20
2.20953
11
0.215571
21
2.2081
0
LINE
8
BLACK
6
CONTINUOUS
10
0.215571
20
2.2081
11
0.213138
21
2.2081
0
LINE
8
BLACK
6
CONTINUOUS
10
0.213138
20
2.2081
11
0.211169
21
2.20953
0
LINE
8
BLACK
6
CONTINUOUS
10
0.211169
20
2.20953
11
0.210417
21
2.21185
0
LINE
8
BLACK
6
CONTINUOUS
10
0.210417
20
2.21185
11
0.210417
21
2.22253
0
LINE
8
BLACK
6
CONTINUOUS
10
0.210417
20
2.22253
11
0.175115
21
2.22253
0
LINE
8
BLACK
6
CONTINUOUS
10
0.175115
20
2.22253
11
0.178143
21
2.2195
0
LINE
8
BLACK
6
CONTINUOUS
10
0.178143
20
2.2195
11
0.178433
21
2.21894
0
LINE
8
BLACK
6
CONTINUOUS
10
0.178433
20
2.21894
11
0.17888
21
2.21848
0
LINE
8
BLACK
6
CONTINUOUS
10
0.17888
20
2.21848
11
0.181318
21
2.21361
0
LINE
8
BLACK
6
CONTINUOUS
10
0.181318
20
2.21361
11
0.18168
21
2.2112
0
LINE
8
BLACK
6
CONTINUOUS
10
0.18168
20
2.2112
11
0.180559
21
2.20904
0
LINE
8
BLACK
6
CONTINUOUS
10
0.180559
20
2.20904
11
0.178382
21
2.20795
0
LINE
8
BLACK
6
CONTINUOUS
10
0.178382
20
2.20795
11
0.175982
21
2.20835
0
LINE
8
BLACK
6
CONTINUOUS
10
0.175982
20
2.20835
11
0.174275
21
2.21009
0
LINE
8
BLACK
6
CONTINUOUS
10
0.174275
20
2.21009
11
0.172123
21
2.21439
0
LINE
8
BLACK
6
CONTINUOUS
10
0.172123
20
2.21439
11
0.167976
21
2.21854
0
LINE
8
BLACK
6
CONTINUOUS
10
0.167976
20
2.21854
11
0.160989
21
2.22319
0
LINE
8
BLACK
6
CONTINUOUS
10
0.160989
20
2.22319
11
0.160938
21
2.22326
0
LINE
8
BLACK
6
CONTINUOUS
10
0.160938
20
2.22326
11
0.160859
21
2.22328
0
LINE
8
BLACK
6
CONTINUOUS
10
0.160859
20
2.22328
11
0.160188
21
2.22421
0
LINE
8
BLACK
6
CONTINUOUS
10
0.160188
20
2.22421
11
0.159481
21
2.2251
0
LINE
8
BLACK
6
CONTINUOUS
10
0.159481
20
2.2251
11
0.159477
21
2.22519
0
LINE
8
BLACK
6
CONTINUOUS
10
0.159477
20
2.22519
11
0.159429
21
2.22525
0
LINE
8
BLACK
6
CONTINUOUS
10
0.159429
20
2.22525
11
0.159429
21
2.22639
0
LINE
8
BLACK
6
CONTINUOUS
10
0.159429
20
2.22639
11
0.159383
21
2.22753
0
LINE
8
BLACK
6
CONTINUOUS
10
0.159383
20
2.22753
11
0.159429
21
2.2276
0
LINE
8
BLACK
6
CONTINUOUS
10
0.159429
20
2.2276
11
0.159429
21
2.22769
0
LINE
8
BLACK
6
CONTINUOUS
10
0.159429
20
2.22769
11
0.1601
21
2.22861
0
LINE
8
BLACK
6
CONTINUOUS
10
0.1601
20
2.22861
11
0.160732
21
2.22956
0
LINE
8
BLACK
6
CONTINUOUS
10
0.160732
20
2.22956
11
0.16081
21
2.22959
0
LINE
8
BLACK
6
CONTINUOUS
10
0.16081
20
2.22959
11
0.160859
21
2.22965
0
LINE
8
BLACK
6
CONTINUOUS
10
0.160859
20
2.22965
11
0.161944
21
2.23001
0
LINE
8
BLACK
6
CONTINUOUS
10
0.161944
20
2.23001
11
0.163014
21
2.2304
0
LINE
8
BLACK
6
CONTINUOUS
10
0.163014
20
2.2304
11
0.163094
21
2.23038
0
LINE
8
BLACK
6
CONTINUOUS
10
0.163094
20
2.23038
11
0.163173
21
2.23041
0
LINE
8
BLACK
6
CONTINUOUS
10
0.163173
20
2.23041
11
0.210417
21
2.23041
0
LINE
8
BLACK
6
CONTINUOUS
10
0.210417
20
2.23041
11
0.210417
21
2.24109
0
LINE
8
BLACK
6
CONTINUOUS
10
0.210417
20
2.24109
11
0.211169
21
2.24341
0
LINE
8
BLACK
6
CONTINUOUS
10
0.211169
20
2.24341
11
0.213138
21
2.24484
0
LINE
8
BLACK
6
CONTINUOUS
10
0.213138
20
2.24484
11
0.215571
21
2.24484
0
LINE
8
BLACK
6
CONTINUOUS
10
0.215571
20
2.24484
11
0.217539
21
2.24341
0
LINE
8
BLACK
6
CONTINUOUS
10
0.130687
20
2.26176
11
0.131303
21
2.26166
0
LINE
8
BLACK
6
CONTINUOUS
10
0.131303
20
2.26166
11
0.131744
21
2.26122
0
LINE
8
BLACK
6
CONTINUOUS
10
0.131744
20
2.26122
11
0.132299
21
2.26094
0
LINE
8
BLACK
6
CONTINUOUS
10
0.132299
20
2.26094
11
0.134736
21
2.2585
0
LINE
8
BLACK
6
CONTINUOUS
10
0.134736
20
2.2585
11
0.13502
21
2.25794
0
LINE
8
BLACK
6
CONTINUOUS
10
0.13502
20
2.25794
11
0.13546
21
2.2575
0
LINE
8
BLACK
6
CONTINUOUS
10
0.13546
20
2.2575
11
0.13551
21
2.25719
0
LINE
8
BLACK
6
CONTINUOUS
10
0.13551
20
2.25719
11
0.135697
21
2.25693
0
LINE
8
BLACK
6
CONTINUOUS
10
0.135697
20
2.25693
11
0.135697
21
2.25662
0
LINE
8
BLACK
6
CONTINUOUS
10
0.135697
20
2.25662
11
0.135841
21
2.25633
0
LINE
8
BLACK
6
CONTINUOUS
10
0.135841
20
2.25633
11
0.135744
21
2.25572
0
LINE
8
BLACK
6
CONTINUOUS
10
0.135744
20
2.25572
11
0.135841
21
2.2551
0
LINE
8
BLACK
6
CONTINUOUS
10
0.135841
20
2.2551
11
0.135697
21
2.25482
0
LINE
8
BLACK
6
CONTINUOUS
10
0.135697
20
2.25482
11
0.135697
21
2.2545
0
LINE
8
BLACK
6
CONTINUOUS
10
0.135697
20
2.2545
11
0.13551
21
2.25424
0
LINE
8
BLACK
6
CONTINUOUS
10
0.13551
20
2.25424
11
0.13546
21
2.25393
0
LINE
8
BLACK
6
CONTINUOUS
10
0.13546
20
2.25393
11
0.13502
21
2.25349
0
LINE
8
BLACK
6
CONTINUOUS
10
0.13502
20
2.25349
11
0.134736
21
2.25293
0
LINE
8
BLACK
6
CONTINUOUS
10
0.134736
20
2.25293
11
0.132299
21
2.2505
0
LINE
8
BLACK
6
CONTINUOUS
10
0.132299
20
2.2505
11
0.131744
21
2.25021
0
LINE
8
BLACK
6
CONTINUOUS
10
0.131744
20
2.25021
11
0.131303
21
2.24977
0
LINE
8
BLACK
6
CONTINUOUS
10
0.131303
20
2.24977
11
0.130687
21
2.24967
0
LINE
8
BLACK
6
CONTINUOUS
10
0.130687
20
2.24967
11
0.130131
21
2.24939
0
LINE
8
BLACK
6
CONTINUOUS
10
0.130131
20
2.24939
11
0.129515
21
2.24949
0
LINE
8
BLACK
6
CONTINUOUS
10
0.129515
20
2.24949
11
0.128899
21
2.24939
0
LINE
8
BLACK
6
CONTINUOUS
10
0.128899
20
2.24939
11
0.128344
21
2.24967
0
LINE
8
BLACK
6
CONTINUOUS
10
0.128344
20
2.24967
11
0.127728
21
2.24977
0
LINE
8
BLACK
6
CONTINUOUS
10
0.127728
20
2.24977
11
0.127287
21
2.25021
0
LINE
8
BLACK
6
CONTINUOUS
10
0.127287
20
2.25021
11
0.126731
21
2.2505
0
LINE
8
BLACK
6
CONTINUOUS
10
0.126731
20
2.2505
11
0.124294
21
2.25293
0
LINE
8
BLACK
6
CONTINUOUS
10
0.124294
20
2.25293
11
0.124011
21
2.25349
0
LINE
8
BLACK
6
CONTINUOUS
10
0.124011
20
2.25349
11
0.12357
21
2.25393
0
LINE
8
BLACK
6
CONTINUOUS
10
0.12357
20
2.25393
11
0.123521
21
2.25424
0
LINE
8
BLACK
6
CONTINUOUS
10
0.123521
20
2.25424
11
0.123334
21
2.2545
0
LINE
8
BLACK
6
CONTINUOUS
10
0.123334
20
2.2545
11
0.123334
21
2.25482
0
LINE
8
BLACK
6
CONTINUOUS
10
0.123334
20
2.25482
11
0.12319
21
2.2551
0
LINE
8
BLACK
6
CONTINUOUS
10
0.12319
20
2.2551
11
0.123287
21
2.25572
0
LINE
8
BLACK
6
CONTINUOUS
10
0.123287
20
2.25572
11
0.12319
21
2.25633
0
LINE
8
BLACK
6
CONTINUOUS
10
0.12319
20
2.25633
11
0.123334
21
2.25662
0
LINE
8
BLACK
6
CONTINUOUS
10
0.123334
20
2.25662
11
0.123334
21
2.25693
0
LINE
8
BLACK
6
CONTINUOUS
10
0.123334
20
2.25693
11
0.123521
21
2.25719
0
LINE
8
BLACK
6
CONTINUOUS
10
0.123521
20
2.25719
11
0.12357
21
2.2575
0
LINE
8
BLACK
6
CONTINUOUS
10
0.12357
20
2.2575
11
0.124011
21
2.25794
0
LINE
8
BLACK
6
CONTINUOUS
10
0.124011
20
2.25794
11
0.124294
21
2.2585
0
LINE
8
BLACK
6
CONTINUOUS
10
0.124294
20
2.2585
11
0.126731
21
2.26094
0
LINE
8
BLACK
6
CONTINUOUS
10
0.126731
20
2.26094
11
0.127287
21
2.26122
0
LINE
8
BLACK
6
CONTINUOUS
10
0.127287
20
2.26122
11
0.127728
21
2.26166
0
LINE
8
BLACK
6
CONTINUOUS
10
0.127728
20
2.26166
11
0.128344
21
2.26176
0
LINE
8
BLACK
6
CONTINUOUS
10
0.128344
20
2.26176
11
0.128899
21
2.26204
0
LINE
8
BLACK
6
CONTINUOUS
10
0.128899
20
2.26204
11
0.129515
21
2.26194
0
LINE
8
BLACK
6
CONTINUOUS
10
0.129515
20
2.26194
11
0.130131
21
2.26204
0
LINE
8
BLACK
6
CONTINUOUS
10
0.130131
20
2.26204
11
0.130687
21
2.26176
0
LINE
8
BLACK
6
CONTINUOUS
10
0.176222
20
2.29349
11
0.17712
21
2.29336
0
LINE
8
BLACK
6
CONTINUOUS
10
0.17712
20
2.29336
11
0.181994
21
2.29092
0
LINE
8
BLACK
6
CONTINUOUS
10
0.181994
20
2.29092
11
0.182449
21
2.29047
0
LINE
8
BLACK
6
CONTINUOUS
10
0.182449
20
2.29047
11
0.183017
21
2.29018
0
LINE
8
BLACK
6
CONTINUOUS
10
0.183017
20
2.29018
11
0.185108
21
2.28809
0
LINE
8
BLACK
6
CONTINUOUS
10
0.185108
20
2.28809
11
0.187198
21
2.29018
0
LINE
8
BLACK
6
CONTINUOUS
10
0.187198
20
2.29018
11
0.187767
21
2.29047
0
LINE
8
BLACK
6
CONTINUOUS
10
0.187767
20
2.29047
11
0.188221
21
2.29092
0
LINE
8
BLACK
6
CONTINUOUS
10
0.188221
20
2.29092
11
0.193096
21
2.29336
0
LINE
8
BLACK
6
CONTINUOUS
10
0.193096
20
2.29336
11
0.193993
21
2.29349
0
LINE
8
BLACK
6
CONTINUOUS
10
0.193993
20
2.29349
11
0.194857
21
2.29377
0
LINE
8
BLACK
6
CONTINUOUS
10
0.194857
20
2.29377
11
0.204605
21
2.29377
0
LINE
8
BLACK
6
CONTINUOUS
10
0.204605
20
2.29377
11
0.205468
21
2.29349
0
LINE
8
BLACK
6
CONTINUOUS
10
0.205468
20
2.29349
11
0.206366
21
2.29336
0
LINE
8
BLACK
6
CONTINUOUS
10
0.206366
20
2.29336
11
0.21124
21
2.29092
0
LINE
8
BLACK
6
CONTINUOUS
10
0.21124
20
2.29092
11
0.211695
21
2.29047
0
LINE
8
BLACK
6
CONTINUOUS
10
0.211695
20
2.29047
11
0.212264
21
2.29018
0
LINE
8
BLACK
6
CONTINUOUS
10
0.212264
20
2.29018
11
0.214701
21
2.28775
0
LINE
8
BLACK
6
CONTINUOUS
10
0.214701
20
2.28775
11
0.214991
21
2.28718
0
LINE
8
BLACK
6
CONTINUOUS
10
0.214991
20
2.28718
11
0.215438
21
2.28672
0
LINE
8
BLACK
6
CONTINUOUS
10
0.215438
20
2.28672
11
0.217876
21
2.28185
0
LINE
8
BLACK
6
CONTINUOUS
10
0.217876
20
2.28185
11
0.218011
21
2.28095
0
LINE
8
BLACK
6
CONTINUOUS
10
0.218011
20
2.28095
11
0.218291
21
2.28009
0
LINE
8
BLACK
6
CONTINUOUS
10
0.218291
20
2.28009
11
0.218291
21
2.27034
0
LINE
8
BLACK
6
CONTINUOUS
10
0.218291
20
2.27034
11
0.218011
21
2.26948
0
LINE
8
BLACK
6
CONTINUOUS
10
0.218011
20
2.26948
11
0.217876
21
2.26858
0
LINE
8
BLACK
6
CONTINUOUS
10
0.217876
20
2.26858
11
0.215438
21
2.2637
0
LINE
8
BLACK
6
CONTINUOUS
10
0.215438
20
2.2637
11
0.214991
21
2.26325
0
LINE
8
BLACK
6
CONTINUOUS
10
0.214991
20
2.26325
11
0.214701
21
2.26268
0
LINE
8
BLACK
6
CONTINUOUS
10
0.214701
20
2.26268
11
0.212264
21
2.26024
0
LINE
8
BLACK
6
CONTINUOUS
10
0.212264
20
2.26024
11
0.211695
21
2.25995
0
LINE
8
BLACK
6
CONTINUOUS
10
0.211695
20
2.25995
11
0.21124
21
2.25951
0
LINE
8
BLACK
6
CONTINUOUS
10
0.21124
20
2.25951
11
0.206366
21
2.25707
0
LINE
8
BLACK
6
CONTINUOUS
10
0.206366
20
2.25707
11
0.205468
21
2.25693
0
LINE
8
BLACK
6
CONTINUOUS
10
0.205468
20
2.25693
11
0.204605
21
2.25665
0
LINE
8
BLACK
6
CONTINUOUS
10
0.204605
20
2.25665
11
0.194857
21
2.25665
0
LINE
8
BLACK
6
CONTINUOUS
10
0.194857
20
2.25665
11
0.193993
21
2.25693
0
LINE
8
BLACK
6
CONTINUOUS
10
0.193993
20
2.25693
11
0.193096
21
2.25707
0
LINE
8
BLACK
6
CONTINUOUS
10
0.193096
20
2.25707
11
0.188221
21
2.25951
0
LINE
8
BLACK
6
CONTINUOUS
10
0.188221
20
2.25951
11
0.187767
21
2.25995
0
LINE
8
BLACK
6
CONTINUOUS
10
0.187767
20
2.25995
11
0.187198
21
2.26024
0
LINE
8
BLACK
6
CONTINUOUS
10
0.187198
20
2.26024
11
0.185108
21
2.26233
0
LINE
8
BLACK
6
CONTINUOUS
10
0.185108
20
2.26233
11
0.183017
21
2.26024
0
LINE
8
BLACK
6
CONTINUOUS
10
0.183017
20
2.26024
11
0.182449
21
2.25995
0
LINE
8
BLACK
6
CONTINUOUS
10
0.182449
20
2.25995
11
0.181994
21
2.25951
0
LINE
8
BLACK
6
CONTINUOUS
10
0.181994
20
2.25951
11
0.17712
21
2.25707
0
LINE
8
BLACK
6
CONTINUOUS
10
0.17712
20
2.25707
11
0.176222
21
2.25693
0
LINE
8
BLACK
6
CONTINUOUS
10
0.176222
20
2.25693
11
0.175359
21
2.25665
0
LINE
8
BLACK
6
CONTINUOUS
10
0.175359
20
2.25665
11
0.172922
21
2.25665
0
LINE
8
BLACK
6
CONTINUOUS
10
0.172922
20
2.25665
11
0.172059
21
2.25693
0
LINE
8
BLACK
6
CONTINUOUS
10
0.172059
20
2.25693
11
0.171161
21
2.25707
0
LINE
8
BLACK
6
CONTINUOUS
10
0.171161
20
2.25707
11
0.166287
21
2.25951
0
LINE
8
BLACK
6
CONTINUOUS
10
0.166287
20
2.25951
11
0.165832
21
2.25995
0
LINE
8
BLACK
6
CONTINUOUS
10
0.165832
20
2.25995
11
0.165264
21
2.26024
0
LINE
8
BLACK
6
CONTINUOUS
10
0.165264
20
2.26024
11
0.162826
21
2.26268
0
LINE
8
BLACK
6
CONTINUOUS
10
0.162826
20
2.26268
11
0.162537
21
2.26325
0
LINE
8
BLACK
6
CONTINUOUS
10
0.162537
20
2.26325
11
0.162089
21
2.2637
0
LINE
8
BLACK
6
CONTINUOUS
10
0.162089
20
2.2637
11
0.159652
21
2.26858
0
LINE
8
BLACK
6
CONTINUOUS
10
0.159652
20
2.26858
11
0.159516
21
2.26948
0
LINE
8
BLACK
6
CONTINUOUS
10
0.159516
20
2.26948
11
0.159236
21
2.27034
0
LINE
8
BLACK
6
CONTINUOUS
10
0.159236
20
2.27034
11
0.159236
21
2.28009
0
LINE
8
BLACK
6
CONTINUOUS
10
0.159236
20
2.28009
11
0.159516
21
2.28095
0
LINE
8
BLACK
6
CONTINUOUS
10
0.159516
20
2.28095
11
0.159652
21
2.28185
0
LINE
8
BLACK
6
CONTINUOUS
10
0.159652
20
2.28185
11
0.162089
21
2.28672
0
LINE
8
BLACK
6
CONTINUOUS
10
0.162089
20
2.28672
11
0.162537
21
2.28718
0
LINE
8
BLACK
6
CONTINUOUS
10
0.162537
20
2.28718
11
0.162826
21
2.28775
0
LINE
8
BLACK
6
CONTINUOUS
10
0.162826
20
2.28775
11
0.165264
21
2.29018
0
LINE
8
BLACK
6
CONTINUOUS
10
0.165264
20
2.29018
11
0.165832
21
2.29047
0
LINE
8
BLACK
6
CONTINUOUS
10
0.165832
20
2.29047
11
0.166287
21
2.29092
0
LINE
8
BLACK
6
CONTINUOUS
10
0.166287
20
2.29092
11
0.171161
21
2.29336
0
LINE
8
BLACK
6
CONTINUOUS
10
0.171161
20
2.29336
11
0.172059
21
2.29349
0
LINE
8
BLACK
6
CONTINUOUS
10
0.172059
20
2.29349
11
0.172922
21
2.29377
0
LINE
8
BLACK
6
CONTINUOUS
10
0.172922
20
2.29377
11
0.175359
21
2.29377
0
LINE
8
BLACK
6
CONTINUOUS
10
0.175359
20
2.29377
11
0.176222
21
2.29349
0
LINE
8
BLACK
6
CONTINUOUS
10
0.195786
20
2.2859
11
0.192314
21
2.28416
0
LINE
8
BLACK
6
CONTINUOUS
10
0.192314
20
2.28416
11
0.190781
21
2.28263
0
LINE
8
BLACK
6
CONTINUOUS
10
0.190781
20
2.28263
11
0.189045
21
2.27916
0
LINE
8
BLACK
6
CONTINUOUS
10
0.189045
20
2.27916
11
0.189045
21
2.27127
0
LINE
8
BLACK
6
CONTINUOUS
10
0.189045
20
2.27127
11
0.190781
21
2.2678
0
LINE
8
BLACK
6
CONTINUOUS
10
0.190781
20
2.2678
11
0.192314
21
2.26626
0
LINE
8
BLACK
6
CONTINUOUS
10
0.192314
20
2.26626
11
0.195786
21
2.26453
0
LINE
8
BLACK
6
CONTINUOUS
10
0.195786
20
2.26453
11
0.203676
21
2.26453
0
LINE
8
BLACK
6
CONTINUOUS
10
0.203676
20
2.26453
11
0.207148
21
2.26626
0
LINE
8
BLACK
6
CONTINUOUS
10
0.207148
20
2.26626
11
0.208681
21
2.2678
0
LINE
8
BLACK
6
CONTINUOUS
10
0.208681
20
2.2678
11
0.210417
21
2.27127
0
LINE
8
BLACK
6
CONTINUOUS
10
0.210417
20
2.27127
11
0.210417
21
2.27916
0
LINE
8
BLACK
6
CONTINUOUS
10
0.210417
20
2.27916
11
0.208681
21
2.28263
0
LINE
8
BLACK
6
CONTINUOUS
10
0.208681
20
2.28263
11
0.207148
21
2.28416
0
LINE
8
BLACK
6
CONTINUOUS
10
0.207148
20
2.28416
11
0.203676
21
2.2859
0
LINE
8
BLACK
6
CONTINUOUS
10
0.203676
20
2.2859
11
0.195786
21
2.2859
0
LINE
8
BLACK
6
CONTINUOUS
10
0.173851
20
2.2859
11
0.170379
21
2.28416
0
LINE
8
BLACK
6
CONTINUOUS
10
0.170379
20
2.28416
11
0.168846
21
2.28263
0
LINE
8
BLACK
6
CONTINUOUS
10
0.168846
20
2.28263
11
0.16711
21
2.27916
0
LINE
8
BLACK
6
CONTINUOUS
10
0.16711
20
2.27916
11
0.16711
21
2.27127
0
LINE
8
BLACK
6
CONTINUOUS
10
0.16711
20
2.27127
11
0.168846
21
2.2678
0
LINE
8
BLACK
6
CONTINUOUS
10
0.168846
20
2.2678
11
0.170379
21
2.26626
0
LINE
8
BLACK
6
CONTINUOUS
10
0.170379
20
2.26626
11
0.173851
21
2.26453
0
LINE
8
BLACK
6
CONTINUOUS
10
0.173851
20
2.26453
11
0.17443
21
2.26453
0
LINE
8
BLACK
6
CONTINUOUS
10
0.17443
20
2.26453
11
0.177901
21
2.26626
0
LINE
8
BLACK
6
CONTINUOUS
10
0.177901
20
2.26626
11
0.179435
21
2.2678
0
LINE
8
BLACK
6
CONTINUOUS
10
0.179435
20
2.2678
11
0.181171
21
2.27127
0
LINE
8
BLACK
6
CONTINUOUS
10
0.181171
20
2.27127
11
0.181171
21
2.27916
0
LINE
8
BLACK
6
CONTINUOUS
10
0.181171
20
2.27916
11
0.179435
21
2.28263
0
LINE
8
BLACK
6
CONTINUOUS
10
0.179435
20
2.28263
11
0.177901
21
2.28416
0
LINE
8
BLACK
6
CONTINUOUS
10
0.177901
20
2.28416
11
0.17443
21
2.2859
0
LINE
8
BLACK
6
CONTINUOUS
10
0.17443
20
2.2859
11
0.173851
21
2.2859
0
LINE
8
BLACK
6
CONTINUOUS
10
0.129862
20
2.31212
11
0.132299
21
2.30968
0
LINE
8
BLACK
6
CONTINUOUS
10
0.132299
20
2.30968
11
0.132711
21
2.30887
0
LINE
8
BLACK
6
CONTINUOUS
10
0.132711
20
2.30887
11
0.13325
21
2.30814
0
LINE
8
BLACK
6
CONTINUOUS
10
0.13325
20
2.30814
11
0.135688
21
2.30083
0
LINE
8
BLACK
6
CONTINUOUS
10
0.135688
20
2.30083
11
0.135692
21
2.30019
0
LINE
8
BLACK
6
CONTINUOUS
10
0.135692
20
2.30019
11
0.13589
21
2.29959
0
LINE
8
BLACK
6
CONTINUOUS
10
0.13589
20
2.29959
11
0.13589
21
2.29471
0
LINE
8
BLACK
6
CONTINUOUS
10
0.13589
20
2.29471
11
0.135692
21
2.2941
0
LINE
8
BLACK
6
CONTINUOUS
10
0.135692
20
2.2941
11
0.135688
21
2.29347
0
LINE
8
BLACK
6
CONTINUOUS
10
0.135688
20
2.29347
11
0.13325
21
2.28615
0
LINE
8
BLACK
6
CONTINUOUS
10
0.13325
20
2.28615
11
0.132711
21
2.28542
0
LINE
8
BLACK
6
CONTINUOUS
10
0.132711
20
2.28542
11
0.132299
21
2.28462
0
LINE
8
BLACK
6
CONTINUOUS
10
0.132299
20
2.28462
11
0.127425
21
2.27974
0
LINE
8
BLACK
6
CONTINUOUS
10
0.127425
20
2.27974
11
0.126856
21
2.27945
0
LINE
8
BLACK
6
CONTINUOUS
10
0.126856
20
2.27945
11
0.126402
21
2.279
0
LINE
8
BLACK
6
CONTINUOUS
10
0.126402
20
2.279
11
0.121527
21
2.27657
0
LINE
8
BLACK
6
CONTINUOUS
10
0.121527
20
2.27657
11
0.121093
21
2.2765
0
LINE
8
BLACK
6
CONTINUOUS
10
0.121093
20
2.2765
11
0.120721
21
2.27627
0
LINE
8
BLACK
6
CONTINUOUS
10
0.120721
20
2.27627
11
0.110973
21
2.27383
0
LINE
8
BLACK
6
CONTINUOUS
10
0.110973
20
2.27383
11
0.110484
21
2.27387
0
LINE
8
BLACK
6
CONTINUOUS
10
0.110484
20
2.27387
11
0.110018
21
2.27371
0
LINE
8
BLACK
6
CONTINUOUS
10
0.110018
20
2.27371
11
0.102706
21
2.27371
0
LINE
8
BLACK
6
CONTINUOUS
10
0.102706
20
2.27371
11
0.10224
21
2.27387
0
LINE
8
BLACK
6
CONTINUOUS
10
0.10224
20
2.27387
11
0.101751
21
2.27383
0
LINE
8
BLACK
6
CONTINUOUS
10
0.101751
20
2.27383
11
0.0920026
21
2.27627
0
LINE
8
BLACK
6
CONTINUOUS
10
0.0920026
20
2.27627
11
0.0916306
21
2.2765
0
LINE
8
BLACK
6
CONTINUOUS
10
0.0916306
20
2.2765
11
0.0911968
21
2.27657
0
LINE
8
BLACK
6
CONTINUOUS
10
0.0911968
20
2.27657
11
0.0863224
21
2.279
0
LINE
8
BLACK
6
CONTINUOUS
10
0.0863224
20
2.279
11
0.0858677
21
2.27945
0
LINE
8
BLACK
6
CONTINUOUS
10
0.0858677
20
2.27945
11
0.0852991
21
2.27974
0
LINE
8
BLACK
6
CONTINUOUS
10
0.0852991
20
2.27974
11
0.0804248
21
2.28462
0
LINE
8
BLACK
6
CONTINUOUS
10
0.0804248
20
2.28462
11
0.0800128
21
2.28542
0
LINE
8
BLACK
6
CONTINUOUS
10
0.0800128
20
2.28542
11
0.0794737
21
2.28615
0
LINE
8
BLACK
6
CONTINUOUS
10
0.0794737
20
2.28615
11
0.0770365
21
2.29347
0
LINE
8
BLACK
6
CONTINUOUS
10
0.0770365
20
2.29347
11
0.0770317
21
2.2941
0
LINE
8
BLACK
6
CONTINUOUS
10
0.0770317
20
2.2941
11
0.0768344
21
2.29471
0
LINE
8
BLACK
6
CONTINUOUS
10
0.0768344
20
2.29471
11
0.0768344
21
2.29959
0
LINE
8
BLACK
6
CONTINUOUS
10
0.0768344
20
2.29959
11
0.0770317
21
2.30019
0
LINE
8
BLACK
6
CONTINUOUS
10
0.0770317
20
2.30019
11
0.0770365
21
2.30083
0
LINE
8
BLACK
6
CONTINUOUS
10
0.0770365
20
2.30083
11
0.0794737
21
2.30814
0
LINE
8
BLACK
6
CONTINUOUS
10
0.0794737
20
2.30814
11
0.0800127
21
2.30887
0
LINE
8
BLACK
6
CONTINUOUS
10
0.0800127
20
2.30887
11
0.0804248
21
2.30968
0
LINE
8
BLACK
6
CONTINUOUS
10
0.0804248
20
2.30968
11
0.0828619
21
2.31212
0
LINE
8
BLACK
6
CONTINUOUS
10
0.0828619
20
2.31212
11
0.0850299
21
2.31322
0
LINE
8
BLACK
6
CONTINUOUS
10
0.0850299
20
2.31322
11
0.0874331
21
2.31284
0
LINE
8
BLACK
6
CONTINUOUS
10
0.0874331
20
2.31284
11
0.0891537
21
2.31112
0
LINE
8
BLACK
6
CONTINUOUS
10
0.0891537
20
2.31112
11
0.0895344
21
2.30872
0
LINE
8
BLACK
6
CONTINUOUS
10
0.0895344
20
2.30872
11
0.0884297
21
2.30655
0
LINE
8
BLACK
6
CONTINUOUS
10
0.0884297
20
2.30655
11
0.0866497
21
2.30477
0
LINE
8
BLACK
6
CONTINUOUS
10
0.0866497
20
2.30477
11
0.0847085
21
2.29895
0
LINE
8
BLACK
6
CONTINUOUS
10
0.0847085
20
2.29895
11
0.0847085
21
2.29535
0
LINE
8
BLACK
6
CONTINUOUS
10
0.0847085
20
2.29535
11
0.0866497
21
2.28953
0
LINE
8
BLACK
6
CONTINUOUS
10
0.0866497
20
2.28953
11
0.0904151
21
2.28576
0
LINE
8
BLACK
6
CONTINUOUS
10
0.0904151
20
2.28576
11
0.0943315
21
2.2838
0
LINE
8
BLACK
6
CONTINUOUS
10
0.0943315
20
2.2838
11
0.103191
21
2.28159
0
LINE
8
BLACK
6
CONTINUOUS
10
0.103191
20
2.28159
11
0.109533
21
2.28159
0
LINE
8
BLACK
6
CONTINUOUS
10
0.109533
20
2.28159
11
0.118392
21
2.2838
0
LINE
8
BLACK
6
CONTINUOUS
10
0.118392
20
2.2838
11
0.122309
21
2.28576
0
LINE
8
BLACK
6
CONTINUOUS
10
0.122309
20
2.28576
11
0.126074
21
2.28953
0
LINE
8
BLACK
6
CONTINUOUS
10
0.126074
20
2.28953
11
0.128016
21
2.29535
0
LINE
8
BLACK
6
CONTINUOUS
10
0.128016
20
2.29535
11
0.128016
21
2.29895
0
LINE
8
BLACK
6
CONTINUOUS
10
0.128016
20
2.29895
11
0.126074
21
2.30477
0
LINE
8
BLACK
6
CONTINUOUS
10
0.126074
20
2.30477
11
0.124294
21
2.30655
0
LINE
8
BLACK
6
CONTINUOUS
10
0.124294
20
2.30655
11
0.12319
21
2.30872
0
LINE
8
BLACK
6
CONTINUOUS
10
0.12319
20
2.30872
11
0.12357
21
2.31112
0
LINE
8
BLACK
6
CONTINUOUS
10
0.12357
20
2.31112
11
0.125291
21
2.31284
0
LINE
8
BLACK
6
CONTINUOUS
10
0.125291
20
2.31284
11
0.127694
21
2.31322
0
LINE
8
BLACK
6
CONTINUOUS
10
0.127694
20
2.31322
11
0.129862
21
2.31212
0
LINE
8
BLACK
6
CONTINUOUS
10
0.205468
20
2.34224
11
0.206366
21
2.3421
0
LINE
8
BLACK
6
CONTINUOUS
10
0.206366
20
2.3421
11
0.21124
21
2.33967
0
LINE
8
BLACK
6
CONTINUOUS
10
0.21124
20
2.33967
11
0.211695
21
2.33922
0
LINE
8
BLACK
6
CONTINUOUS
10
0.211695
20
2.33922
11
0.212264
21
2.33893
0
LINE
8
BLACK
6
CONTINUOUS
10
0.212264
20
2.33893
11
0.214701
21
2.33649
0
LINE
8
BLACK
6
CONTINUOUS
10
0.214701
20
2.33649
11
0.214991
21
2.33592
0
LINE
8
BLACK
6
CONTINUOUS
10
0.214991
20
2.33592
11
0.215438
21
2.33547
0
LINE
8
BLACK
6
CONTINUOUS
10
0.215438
20
2.33547
11
0.217876
21
2.33059
0
LINE
8
BLACK
6
CONTINUOUS
10
0.217876
20
2.33059
11
0.218011
21
2.3297
0
LINE
8
BLACK
6
CONTINUOUS
10
0.218011
20
2.3297
11
0.218291
21
2.32883
0
LINE
8
BLACK
6
CONTINUOUS
10
0.218291
20
2.32883
11
0.218291
21
2.31908
0
LINE
8
BLACK
6
CONTINUOUS
10
0.218291
20
2.31908
11
0.218011
21
2.31822
0
LINE
8
BLACK
6
CONTINUOUS
10
0.218011
20
2.31822
11
0.217876
21
2.31732
0
LINE
8
BLACK
6
CONTINUOUS
10
0.217876
20
2.31732
11
0.215438
21
2.31245
0
LINE
8
BLACK
6
CONTINUOUS
10
0.215438
20
2.31245
11
0.214991
21
2.31199
0
LINE
8
BLACK
6
CONTINUOUS
10
0.214991
20
2.31199
11
0.214701
21
2.31142
0
LINE
8
BLACK
6
CONTINUOUS
10
0.214701
20
2.31142
11
0.212264
21
2.30899
0
LINE
8
BLACK
6
CONTINUOUS
10
0.212264
20
2.30899
11
0.211695
21
2.3087
0
LINE
8
BLACK
6
CONTINUOUS
10
0.211695
20
2.3087
11
0.21124
21
2.30825
0
LINE
8
BLACK
6
CONTINUOUS
10
0.21124
20
2.30825
11
0.206366
21
2.30581
0
LINE
8
BLACK
6
CONTINUOUS
10
0.206366
20
2.30581
11
0.205469
21
2.30568
0
LINE
8
BLACK
6
CONTINUOUS
10
0.205469
20
2.30568
11
0.204605
21
2.3054
0
LINE
8
BLACK
6
CONTINUOUS
10
0.204605
20
2.3054
11
0.185108
21
2.3054
0
LINE
8
BLACK
6
CONTINUOUS
10
0.185108
20
2.3054
11
0.184642
21
2.30555
0
LINE
8
BLACK
6
CONTINUOUS
10
0.184642
20
2.30555
11
0.184153
21
2.30552
0
LINE
8
BLACK
6
CONTINUOUS
10
0.184153
20
2.30552
11
0.174404
21
2.30795
0
LINE
8
BLACK
6
CONTINUOUS
10
0.174404
20
2.30795
11
0.173829
21
2.30831
0
LINE
8
BLACK
6
CONTINUOUS
10
0.173829
20
2.30831
11
0.173175
21
2.3085
0
LINE
8
BLACK
6
CONTINUOUS
10
0.173175
20
2.3085
11
0.165864
21
2.31337
0
LINE
8
BLACK
6
CONTINUOUS
10
0.165864
20
2.31337
11
0.165617
21
2.31368
0
LINE
8
BLACK
6
CONTINUOUS
10
0.165617
20
2.31368
11
0.165264
21
2.31386
0
LINE
8
BLACK
6
CONTINUOUS
10
0.165264
20
2.31386
11
0.162826
21
2.3163
0
LINE
8
BLACK
6
CONTINUOUS
10
0.162826
20
2.3163
11
0.162537
21
2.31687
0
LINE
8
BLACK
6
CONTINUOUS
10
0.162537
20
2.31687
11
0.162089
21
2.31732
0
LINE
8
BLACK
6
CONTINUOUS
10
0.162089
20
2.31732
11
0.159652
21
2.3222
0
LINE
8
BLACK
6
CONTINUOUS
10
0.159652
20
2.3222
11
0.159516
21
2.32309
0
LINE
8
BLACK
6
CONTINUOUS
10
0.159516
20
2.32309
11
0.159236
21
2.32396
0
LINE
8
BLACK
6
CONTINUOUS
10
0.159236
20
2.32396
11
0.159236
21
2.33371
0
LINE
8
BLACK
6
CONTINUOUS
10
0.159236
20
2.33371
11
0.159988
21
2.33602
0
LINE
8
BLACK
6
CONTINUOUS
10
0.159988
20
2.33602
11
0.161956
21
2.33745
0
LINE
8
BLACK
6
CONTINUOUS
10
0.161956
20
2.33745
11
0.16439
21
2.33745
0
LINE
8
BLACK
6
CONTINUOUS
10
0.16439
20
2.33745
11
0.166358
21
2.33602
0
LINE
8
BLACK
6
CONTINUOUS
10
0.166358
20
2.33602
11
0.16711
21
2.33371
0
LINE
8
BLACK
6
CONTINUOUS
10
0.16711
20
2.33371
11
0.16711
21
2.32489
0
LINE
8
BLACK
6
CONTINUOUS
10
0.16711
20
2.32489
11
0.168846
21
2.32142
0
LINE
8
BLACK
6
CONTINUOUS
10
0.168846
20
2.32142
11
0.170556
21
2.31971
0
LINE
8
BLACK
6
CONTINUOUS
10
0.170556
20
2.31971
11
0.176975
21
2.31543
0
LINE
8
BLACK
6
CONTINUOUS
10
0.176975
20
2.31543
11
0.180544
21
2.31453
0
LINE
8
BLACK
6
CONTINUOUS
10
0.180544
20
2.31453
11
0.179149
21
2.31732
0
LINE
8
BLACK
6
CONTINUOUS
10
0.179149
20
2.31732
11
0.179014
21
2.31822
0
LINE
8
BLACK
6
CONTINUOUS
10
0.179014
20
2.31822
11
0.178734
21
2.31908
0
LINE
8
BLACK
6
CONTINUOUS
10
0.178734
20
2.31908
11
0.178734
21
2.32883
0
LINE
8
BLACK
6
CONTINUOUS
10
0.178734
20
2.32883
11
0.179014
21
2.3297
0
LINE
8
BLACK
6
CONTINUOUS
10
0.179014
20
2.3297
11
0.179149
21
2.33059
0
LINE
8
BLACK
6
CONTINUOUS
10
0.179149
20
2.33059
11
0.181586
21
2.33547
0
LINE
8
BLACK
6
CONTINUOUS
10
0.181586
20
2.33547
11
0.182034
21
2.33592
0
LINE
8
BLACK
6
CONTINUOUS
10
0.182034
20
2.33592
11
0.182324
21
2.33649
0
LINE
8
BLACK
6
CONTINUOUS
10
0.182324
20
2.33649
11
0.184761
21
2.33893
0
LINE
8
BLACK
6
CONTINUOUS
10
0.184761
20
2.33893
11
0.18533
21
2.33922
0
LINE
8
BLACK
6
CONTINUOUS
10
0.18533
20
2.33922
11
0.185784
21
2.33967
0
LINE
8
BLACK
6
CONTINUOUS
10
0.185784
20
2.33967
11
0.190659
21
2.3421
0
LINE
8
BLACK
6
CONTINUOUS
10
0.190659
20
2.3421
11
0.191556
21
2.34224
0
LINE
8
BLACK
6
CONTINUOUS
10
0.191556
20
2.34224
11
0.192419
21
2.34252
0
LINE
8
BLACK
6
CONTINUOUS
10
0.192419
20
2.34252
11
0.204605
21
2.34252
0
LINE
8
BLACK
6
CONTINUOUS
10
0.204605
20
2.34252
11
0.205468
21
2.34224
0
LINE
8
BLACK
6
CONTINUOUS
10
0.193349
20
2.33464
11
0.189877
21
2.33291
0
LINE
8
BLACK
6
CONTINUOUS
10
0.189877
20
2.33291
11
0.188344
21
2.33137
0
LINE
8
BLACK
6
CONTINUOUS
10
0.188344
20
2.33137
11
0.186608
21
2.3279
0
LINE
8
BLACK
6
CONTINUOUS
10
0.186608
20
2.3279
11
0.186608
21
2.32001
0
LINE
8
BLACK
6
CONTINUOUS
10
0.186608
20
2.32001
11
0.188343
21
2.31654
0
LINE
8
BLACK
6
CONTINUOUS
10
0.188343
20
2.31654
11
0.189877
21
2.31501
0
LINE
8
BLACK
6
CONTINUOUS
10
0.189877
20
2.31501
11
0.193349
21
2.31327
0
LINE
8
BLACK
6
CONTINUOUS
10
0.193349
20
2.31327
11
0.203676
21
2.31327
0
LINE
8
BLACK
6
CONTINUOUS
10
0.203676
20
2.31327
11
0.207148
21
2.31501
0
LINE
8
BLACK
6
CONTINUOUS
10
0.207148
20
2.31501
11
0.208681
21
2.31654
0
LINE
8
BLACK
6
CONTINUOUS
10
0.208681
20
2.31654
11
0.210417
21
2.32001
0
LINE
8
BLACK
6
CONTINUOUS
10
0.210417
20
2.32001
11
0.210417
21
2.3279
0
LINE
8
BLACK
6
CONTINUOUS
10
0.210417
20
2.3279
11
0.208681
21
2.33137
0
LINE
8
BLACK
6
CONTINUOUS
10
0.208681
20
2.33137
11
0.207148
21
2.33291
0
LINE
8
BLACK
6
CONTINUOUS
10
0.207148
20
2.33291
11
0.203676
21
2.33464
0
LINE
8
BLACK
6
CONTINUOUS
10
0.203676
20
2.33464
11
0.193349
21
2.33464
0
LINE
8
BLACK
6
CONTINUOUS
10
0.0812873
20
2.36426
11
0.0819881
21
2.36426
0
LINE
8
BLACK
6
CONTINUOUS
10
0.0819881
20
2.36426
11
0.0824298
21
2.36394
0
LINE
8
BLACK
6
CONTINUOUS
10
0.0824298
20
2.36394
11
0.0829553
21
2.36379
0
LINE
8
BLACK
6
CONTINUOUS
10
0.0829553
20
2.36379
11
0.128016
21
2.33375
0
LINE
8
BLACK
6
CONTINUOUS
10
0.128016
20
2.33375
11
0.128016
21
2.36052
0
LINE
8
BLACK
6
CONTINUOUS
10
0.128016
20
2.36052
11
0.128767
21
2.36283
0
LINE
8
BLACK
6
CONTINUOUS
10
0.128767
20
2.36283
11
0.130736
21
2.36426
0
LINE
8
BLACK
6
CONTINUOUS
10
0.130736
20
2.36426
11
0.133169
21
2.36426
0
LINE
8
BLACK
6
CONTINUOUS
10
0.133169
20
2.36426
11
0.135138
21
2.36283
0
LINE
8
BLACK
6
CONTINUOUS
10
0.135138
20
2.36283
11
0.13589
21
2.36052
0
LINE
8
BLACK
6
CONTINUOUS
10
0.13589
20
2.36052
11
0.13589
21
2.32639
0
LINE
8
BLACK
6
CONTINUOUS
10
0.13589
20
2.32639
11
0.135721
21
2.32588
0
LINE
8
BLACK
6
CONTINUOUS
10
0.135721
20
2.32588
11
0.135743
21
2.32533
0
LINE
8
BLACK
6
CONTINUOUS
10
0.135743
20
2.32533
11
0.135354
21
2.32475
0
LINE
8
BLACK
6
CONTINUOUS
10
0.135354
20
2.32475
11
0.135138
21
2.32408
0
LINE
8
BLACK
6
CONTINUOUS
10
0.135138
20
2.32408
11
0.134696
21
2.32376
0
LINE
8
BLACK
6
CONTINUOUS
10
0.134696
20
2.32376
11
0.134393
21
2.32331
0
LINE
8
BLACK
6
CONTINUOUS
10
0.134393
20
2.32331
11
0.133736
21
2.32306
0
LINE
8
BLACK
6
CONTINUOUS
10
0.133736
20
2.32306
11
0.133169
21
2.32265
0
LINE
8
BLACK
6
CONTINUOUS
10
0.133169
20
2.32265
11
0.132623
21
2.32265
0
LINE
8
BLACK
6
CONTINUOUS
10
0.132623
20
2.32265
11
0.132111
21
2.32246
0
LINE
8
BLACK
6
CONTINUOUS
10
0.132111
20
2.32246
11
0.131437
21
2.32265
0
LINE
8
BLACK
6
CONTINUOUS
10
0.131437
20
2.32265
11
0.130736
21
2.32265
0
LINE
8
BLACK
6
CONTINUOUS
10
0.130736
20
2.32265
11
0.130294
21
2.32297
0
LINE
8
BLACK
6
CONTINUOUS
10
0.130294
20
2.32297
11
0.129769
21
2.32312
0
LINE
8
BLACK
6
CONTINUOUS
10
0.129769
20
2.32312
11
0.0847085
21
2.35316
0
LINE
8
BLACK
6
CONTINUOUS
10
0.0847085
20
2.35316
11
0.0847085
21
2.32639
0
LINE
8
BLACK
6
CONTINUOUS
10
0.0847085
20
2.32639
11
0.0839566
21
2.32408
0
LINE
8
BLACK
6
CONTINUOUS
10
0.0839566
20
2.32408
11
0.0819881
21
2.32265
0
LINE
8
BLACK
6
CONTINUOUS
10
0.0819881
20
2.32265
11
0.0795548
21
2.32265
0
LINE
8
BLACK
6
CONTINUOUS
10
0.0795548
20
2.32265
11
0.0775863
21
2.32408
0
LINE
8
BLACK
6
CONTINUOUS
10
0.0775863
20
2.32408
11
0.0768344
21
2.32639
0
LINE
8
BLACK
6
CONTINUOUS
10
0.0768344
20
2.32639
11
0.0768344
21
2.36052
0
LINE
8
BLACK
6
CONTINUOUS
10
0.0768344
20
2.36052
11
0.0770031
21
2.36103
0
LINE
8
BLACK
6
CONTINUOUS
10
0.0770031
20
2.36103
11
0.0769811
21
2.36158
0
LINE
8
BLACK
6
CONTINUOUS
10
0.0769811
20
2.36158
11
0.0773698
21
2.36216
0
LINE
8
BLACK
6
CONTINUOUS
10
0.0773698
20
2.36216
11
0.0775863
21
2.36283
0
LINE
8
BLACK
6
CONTINUOUS
10
0.0775863
20
2.36283
11
0.078028
21
2.36315
0
LINE
8
BLACK
6
CONTINUOUS
10
0.078028
20
2.36315
11
0.0783308
21
2.3636
0
LINE
8
BLACK
6
CONTINUOUS
10
0.0783308
20
2.3636
11
0.078988
21
2.36385
0
LINE
8
BLACK
6
CONTINUOUS
10
0.078988
20
2.36385
11
0.0795548
21
2.36426
0
LINE
8
BLACK
6
CONTINUOUS
10
0.0795548
20
2.36426
11
0.0801008
21
2.36426
0
LINE
8
BLACK
6
CONTINUOUS
10
0.0801008
20
2.36426
11
0.0806128
21
2.36445
0
LINE
8
BLACK
6
CONTINUOUS
10
0.0806128
20
2.36445
11
0.0812873
21
2.36426
0
LINE
8
BLACK
6
CONTINUOUS
10
0.205468
20
2.39098
11
0.206366
21
2.39085
0
LINE
8
BLACK
6
CONTINUOUS
10
0.206366
20
2.39085
11
0.21124
21
2.38841
0
LINE
8
BLACK
6
CONTINUOUS
10
0.21124
20
2.38841
11
0.211695
21
2.38796
0
LINE
8
BLACK
6
CONTINUOUS
10
0.211695
20
2.38796
11
0.212264
21
2.38767
0
LINE
8
BLACK
6
CONTINUOUS
10
0.212264
20
2.38767
11
0.214701
21
2.38523
0
LINE
8
BLACK
6
CONTINUOUS
10
0.214701
20
2.38523
11
0.21499
21
2.38467
0
LINE
8
BLACK
6
CONTINUOUS
10
0.21499
20
2.38467
11
0.215438
21
2.38421
0
LINE
8
BLACK
6
CONTINUOUS
10
0.215438
20
2.38421
11
0.217876
21
2.37934
0
LINE
8
BLACK
6
CONTINUOUS
10
0.217876
20
2.37934
11
0.218011
21
2.37844
0
LINE
8
BLACK
6
CONTINUOUS
10
0.218011
20
2.37844
11
0.218291
21
2.37758
0
LINE
8
BLACK
6
CONTINUOUS
10
0.218291
20
2.37758
11
0.218291
21
2.36539
0
LINE
8
BLACK
6
CONTINUOUS
10
0.218291
20
2.36539
11
0.218011
21
2.36453
0
LINE
8
BLACK
6
CONTINUOUS
10
0.218011
20
2.36453
11
0.217876
21
2.36363
0
LINE
8
BLACK
6
CONTINUOUS
10
0.217876
20
2.36363
11
0.215438
21
2.35875
0
LINE
8
BLACK
6
CONTINUOUS
10
0.215438
20
2.35875
11
0.214991
21
2.3583
0
LINE
8
BLACK
6
CONTINUOUS
10
0.214991
20
2.3583
11
0.214701
21
2.35773
0
LINE
8
BLACK
6
CONTINUOUS
10
0.214701
20
2.35773
11
0.212264
21
2.35529
0
LINE
8
BLACK
6
CONTINUOUS
10
0.212264
20
2.35529
11
0.210096
21
2.35419
0
LINE
8
BLACK
6
CONTINUOUS
10
0.210096
20
2.35419
11
0.207692
21
2.35457
0
LINE
8
BLACK
6
CONTINUOUS
10
0.207692
20
2.35457
11
0.205972
21
2.35629
0
LINE
8
BLACK
6
CONTINUOUS
10
0.205972
20
2.35629
11
0.205591
21
2.35869
0
LINE
8
BLACK
6
CONTINUOUS
10
0.205591
20
2.35869
11
0.206696
21
2.36086
0
LINE
8
BLACK
6
CONTINUOUS
10
0.206696
20
2.36086
11
0.208681
21
2.36285
0
LINE
8
BLACK
6
CONTINUOUS
10
0.208681
20
2.36285
11
0.210417
21
2.36632
0
LINE
8
BLACK
6
CONTINUOUS
10
0.210417
20
2.36632
11
0.210417
21
2.37665
0
LINE
8
BLACK
6
CONTINUOUS
10
0.210417
20
2.37665
11
0.208681
21
2.38012
0
LINE
8
BLACK
6
CONTINUOUS
10
0.208681
20
2.38012
11
0.207148
21
2.38165
0
LINE
8
BLACK
6
CONTINUOUS
10
0.207148
20
2.38165
11
0.203676
21
2.38339
0
LINE
8
BLACK
6
CONTINUOUS
10
0.203676
20
2.38339
11
0.193349
21
2.38339
0
LINE
8
BLACK
6
CONTINUOUS
10
0.193349
20
2.38339
11
0.189877
21
2.38165
0
LINE
8
BLACK
6
CONTINUOUS
10
0.189877
20
2.38165
11
0.188343
21
2.38012
0
LINE
8
BLACK
6
CONTINUOUS
10
0.188343
20
2.38012
11
0.186608
21
2.37665
0
LINE
8
BLACK
6
CONTINUOUS
10
0.186608
20
2.37665
11
0.186608
21
2.36632
0
LINE
8
BLACK
6
CONTINUOUS
10
0.186608
20
2.36632
11
0.188344
21
2.36285
0
LINE
8
BLACK
6
CONTINUOUS
10
0.188344
20
2.36285
11
0.190329
21
2.36086
0
LINE
8
BLACK
6
CONTINUOUS
10
0.190329
20
2.36086
11
0.190832
21
2.35987
0
LINE
8
BLACK
6
CONTINUOUS
10
0.190832
20
2.35987
11
0.191392
21
2.35892
0
LINE
8
BLACK
6
CONTINUOUS
10
0.191392
20
2.35892
11
0.19138
21
2.3588
0
LINE
8
BLACK
6
CONTINUOUS
10
0.19138
20
2.3588
11
0.191434
21
2.35869
0
LINE
8
BLACK
6
CONTINUOUS
10
0.191434
20
2.35869
11
0.19126
21
2.3576
0
LINE
8
BLACK
6
CONTINUOUS
10
0.19126
20
2.3576
11
0.19115
21
2.3565
0
LINE
8
BLACK
6
CONTINUOUS
10
0.19115
20
2.3565
11
0.191071
21
2.35641
0
LINE
8
BLACK
6
CONTINUOUS
10
0.191071
20
2.35641
11
0.191053
21
2.35629
0
LINE
8
BLACK
6
CONTINUOUS
10
0.191053
20
2.35629
11
0.190269
21
2.35551
0
LINE
8
BLACK
6
CONTINUOUS
10
0.190269
20
2.35551
11
0.189531
21
2.35468
0
LINE
8
BLACK
6
CONTINUOUS
10
0.189531
20
2.35468
11
0.189416
21
2.35465
0
LINE
8
BLACK
6
CONTINUOUS
10
0.189416
20
2.35465
11
0.189332
21
2.35457
0
LINE
8
BLACK
6
CONTINUOUS
10
0.189332
20
2.35457
11
0.188237
21
2.3544
0
LINE
8
BLACK
6
CONTINUOUS
10
0.188237
20
2.3544
11
0.187153
21
2.35416
0
LINE
8
BLACK
6
CONTINUOUS
10
0.187153
20
2.35416
11
0.162781
21
2.3566
0
LINE
8
BLACK
6
CONTINUOUS
10
0.162781
20
2.3566
11
0.162387
21
2.35677
0
LINE
8
BLACK
6
CONTINUOUS
10
0.162387
20
2.35677
11
0.161956
21
2.35677
0
LINE
8
BLACK
6
CONTINUOUS
10
0.161956
20
2.35677
11
0.161298
21
2.35725
0
LINE
8
BLACK
6
CONTINUOUS
10
0.161298
20
2.35725
11
0.160553
21
2.35758
0
LINE
8
BLACK
6
CONTINUOUS
10
0.160553
20
2.35758
11
0.160336
21
2.35795
0
LINE
8
BLACK
6
CONTINUOUS
10
0.160336
20
2.35795
11
0.159988
21
2.3582
0
LINE
8
BLACK
6
CONTINUOUS
10
0.159988
20
2.3582
11
0.159737
21
2.35898
0
LINE
8
BLACK
6
CONTINUOUS
10
0.159737
20
2.35898
11
0.159326
21
2.35968
0
LINE
8
BLACK
6
CONTINUOUS
10
0.159326
20
2.35968
11
0.159369
21
2.36011
0
LINE
8
BLACK
6
CONTINUOUS
10
0.159369
20
2.36011
11
0.159236
21
2.36052
0
LINE
8
BLACK
6
CONTINUOUS
10
0.159236
20
2.36052
11
0.159236
21
2.38489
0
LINE
8
BLACK
6
CONTINUOUS
10
0.159236
20
2.38489
11
0.159988
21
2.3872
0
LINE
8
BLACK
6
CONTINUOUS
10
0.159988
20
2.3872
11
0.161956
21
2.38863
0
LINE
8
BLACK
6
CONTINUOUS
10
0.161956
20
2.38863
11
0.16439
21
2.38863
0
LINE
8
BLACK
6
CONTINUOUS
10
0.16439
20
2.38863
11
0.166358
21
2.3872
0
LINE
8
BLACK
6
CONTINUOUS
10
0.166358
20
2.3872
11
0.16711
21
2.38489
0
LINE
8
BLACK
6
CONTINUOUS
10
0.16711
20
2.38489
11
0.16711
21
2.36408
0
LINE
8
BLACK
6
CONTINUOUS
10
0.16711
20
2.36408
11
0.179546
21
2.36283
0
LINE
8
BLACK
6
CONTINUOUS
10
0.179546
20
2.36283
11
0.179149
21
2.36363
0
LINE
8
BLACK
6
CONTINUOUS
10
0.179149
20
2.36363
11
0.179014
21
2.36453
0
LINE
8
BLACK
6
CONTINUOUS
10
0.179014
20
2.36453
11
0.178734
21
2.36539
0
LINE
8
BLACK
6
CONTINUOUS
10
0.178734
20
2.36539
11
0.178734
21
2.37758
0
LINE
8
BLACK
6
CONTINUOUS
10
0.178734
20
2.37758
11
0.179014
21
2.37844
0
LINE
8
BLACK
6
CONTINUOUS
10
0.179014
20
2.37844
11
0.179149
21
2.37934
0
LINE
8
BLACK
6
CONTINUOUS
10
0.179149
20
2.37934
11
0.181586
21
2.38421
0
LINE
8
BLACK
6
CONTINUOUS
10
0.181586
20
2.38421
11
0.182034
21
2.38467
0
LINE
8
BLACK
6
CONTINUOUS
10
0.182034
20
2.38467
11
0.182324
21
2.38523
0
LINE
8
BLACK
6
CONTINUOUS
10
0.182324
20
2.38523
11
0.184761
21
2.38767
0
LINE
8
BLACK
6
CONTINUOUS
10
0.184761
20
2.38767
11
0.18533
21
2.38796
0
LINE
8
BLACK
6
CONTINUOUS
10
0.18533
20
2.38796
11
0.185784
21
2.38841
0
LINE
8
BLACK
6
CONTINUOUS
10
0.185784
20
2.38841
11
0.190659
21
2.39085
0
LINE
8
BLACK
6
CONTINUOUS
10
0.190659
20
2.39085
11
0.191556
21
2.39098
0
LINE
8
BLACK
6
CONTINUOUS
10
0.191556
20
2.39098
11
0.192419
21
2.39126
0
LINE
8
BLACK
6
CONTINUOUS
10
0.192419
20
2.39126
11
0.204605
21
2.39126
0
LINE
8
BLACK
6
CONTINUOUS
10
0.204605
20
2.39126
11
0.205468
21
2.39098
0
LINE
8
BLACK
6
CONTINUOUS
10
0.423967
20
2.46774
11
0.424719
21
2.46543
0
LINE
8
BLACK
6
CONTINUOUS
10
0.424719
20
2.46543
11
0.424719
21
2.40544
0
LINE
8
BLACK
6
CONTINUOUS
10
0.424719
20
2.40544
11
0.423967
21
2.40312
0
LINE
8
BLACK
6
CONTINUOUS
10
0.423967
20
2.40312
11
0.421998
21
2.40169
0
LINE
8
BLACK
6
CONTINUOUS
10
0.421998
20
2.40169
11
0.419565
21
2.40169
0
LINE
8
BLACK
6
CONTINUOUS
10
0.419565
20
2.40169
11
0.417597
21
2.40312
0
LINE
8
BLACK
6
CONTINUOUS
10
0.417597
20
2.40312
11
0.416845
21
2.40544
0
LINE
8
BLACK
6
CONTINUOUS
10
0.416845
20
2.40544
11
0.416845
21
2.46543
0
LINE
8
BLACK
6
CONTINUOUS
10
0.416845
20
2.46543
11
0.417597
21
2.46774
0
LINE
8
BLACK
6
CONTINUOUS
10
0.417597
20
2.46774
11
0.419565
21
2.46917
0
LINE
8
BLACK
6
CONTINUOUS
10
0.419565
20
2.46917
11
0.421998
21
2.46917
0
LINE
8
BLACK
6
CONTINUOUS
10
0.421998
20
2.46917
11
0.423967
21
2.46774
0
LINE
8
BLACK
6
CONTINUOUS
10
1.18381
20
2.46774
11
1.18456
21
2.46543
0
LINE
8
BLACK
6
CONTINUOUS
10
1.18456
20
2.46543
11
1.18456
21
2.40544
0
LINE
8
BLACK
6
CONTINUOUS
10
1.18456
20
2.40544
11
1.18381
21
2.40312
0
LINE
8
BLACK
6
CONTINUOUS
10
1.18381
20
2.40312
11
1.18184
21
2.40169
0
LINE
8
BLACK
6
CONTINUOUS
10
1.18184
20
2.40169
11
1.17941
21
2.40169
0
LINE
8
BLACK
6
CONTINUOUS
10
1.17941
20
2.40169
11
1.17744
21
2.40312
0
LINE
8
BLACK
6
CONTINUOUS
10
1.17744
20
2.40312
11
1.17669
21
2.40544
0
LINE
8
BLACK
6
CONTINUOUS
10
1.17669
20
2.40544
11
1.17669
21
2.46543
0
LINE
8
BLACK
6
CONTINUOUS
10
1.17669
20
2.46543
11
1.17744
21
2.46774
0
LINE
8
BLACK
6
CONTINUOUS
10
1.17744
20
2.46774
11
1.17941
21
2.46917
0
LINE
8
BLACK
6
CONTINUOUS
10
1.17941
20
2.46917
11
1.18184
21
2.46917
0
LINE
8
BLACK
6
CONTINUOUS
10
1.18184
20
2.46917
11
1.18381
21
2.46774
0
LINE
8
BLACK
6
CONTINUOUS
10
1.94365
20
2.46774
11
1.9444
21
2.46543
0
LINE
8
BLACK
6
CONTINUOUS
10
1.9444
20
2.46543
11
1.9444
21
2.40544
0
LINE
8
BLACK
6
CONTINUOUS
10
1.9444
20
2.40544
11
1.94365
21
2.40312
0
LINE
8
BLACK
6
CONTINUOUS
10
1.94365
20
2.40312
11
1.94168
21
2.40169
0
LINE
8
BLACK
6
CONTINUOUS
10
1.94168
20
2.40169
11
1.93925
21
2.40169
0
LINE
8
BLACK
6
CONTINUOUS
10
1.93925
20
2.40169
11
1.93728
21
2.40312
0
LINE
8
BLACK
6
CONTINUOUS
10
1.93728
20
2.40312
11
1.93653
21
2.40544
0
LINE
8
BLACK
6
CONTINUOUS
10
1.93653
20
2.40544
11
1.93653
21
2.46543
0
LINE
8
BLACK
6
CONTINUOUS
10
1.93653
20
2.46543
11
1.93728
21
2.46774
0
LINE
8
BLACK
6
CONTINUOUS
10
1.93728
20
2.46774
11
1.93925
21
2.46917
0
LINE
8
BLACK
6
CONTINUOUS
10
1.93925
20
2.46917
11
1.94168
21
2.46917
0
LINE
8
BLACK
6
CONTINUOUS
10
1.94168
20
2.46917
11
1.94365
21
2.46774
0
LINE
8
BLACK
6
CONTINUOUS
10
0.195323
20
2.43985
11
0.195811
21
2.43989
0
LINE
8
BLACK
6
CONTINUOUS
10
0.195811
20
2.43989
11
0.20556
21
2.43745
0
LINE
8
BLACK
6
CONTINUOUS
10
0.20556
20
2.43745
11
0.205932
21
2.43722
0
LINE
8
BLACK
6
CONTINUOUS
10
0.205932
20
2.43722
11
0.206366
21
2.43715
0
LINE
8
BLACK
6
CONTINUOUS
10
0.206366
20
2.43715
11
0.21124
21
2.43472
0
LINE
8
BLACK
6
CONTINUOUS
10
0.21124
20
2.43472
11
0.211695
21
2.43427
0
LINE
8
BLACK
6
CONTINUOUS
10
0.211695
20
2.43427
11
0.212264
21
2.43398
0
LINE
8
BLACK
6
CONTINUOUS
10
0.212264
20
2.43398
11
0.214701
21
2.43154
0
LINE
8
BLACK
6
CONTINUOUS
10
0.214701
20
2.43154
11
0.214991
21
2.43097
0
LINE
8
BLACK
6
CONTINUOUS
10
0.214991
20
2.43097
11
0.215438
21
2.43052
0
LINE
8
BLACK
6
CONTINUOUS
10
0.215438
20
2.43052
11
0.217876
21
2.42564
0
LINE
8
BLACK
6
CONTINUOUS
10
0.217876
20
2.42564
11
0.218011
21
2.42475
0
LINE
8
BLACK
6
CONTINUOUS
10
0.218011
20
2.42475
11
0.218291
21
2.42388
0
LINE
8
BLACK
6
CONTINUOUS
10
0.218291
20
2.42388
11
0.218291
21
2.41901
0
LINE
8
BLACK
6
CONTINUOUS
10
0.218291
20
2.41901
11
0.218011
21
2.41815
0
LINE
8
BLACK
6
CONTINUOUS
10
0.218011
20
2.41815
11
0.217876
21
2.41725
0
LINE
8
BLACK
6
CONTINUOUS
10
0.217876
20
2.41725
11
0.215438
21
2.41237
0
LINE
8
BLACK
6
CONTINUOUS
10
0.215438
20
2.41237
11
0.21499
21
2.41192
0
LINE
8
BLACK
6
CONTINUOUS
10
0.21499
20
2.41192
11
0.214701
21
2.41135
0
LINE
8
BLACK
6
CONTINUOUS
10
0.214701
20
2.41135
11
0.212264
21
2.40891
0
LINE
8
BLACK
6
CONTINUOUS
10
0.212264
20
2.40891
11
0.211695
21
2.40862
0
LINE
8
BLACK
6
CONTINUOUS
10
0.211695
20
2.40862
11
0.21124
21
2.40818
0
LINE
8
BLACK
6
CONTINUOUS
10
0.21124
20
2.40818
11
0.206366
21
2.40574
0
LINE
8
BLACK
6
CONTINUOUS
10
0.206366
20
2.40574
11
0.205932
21
2.40567
0
LINE
8
BLACK
6
CONTINUOUS
10
0.205932
20
2.40567
11
0.20556
21
2.40544
0
LINE
8
BLACK
6
CONTINUOUS
10
0.20556
20
2.40544
11
0.195811
21
2.403
0
LINE
8
BLACK
6
CONTINUOUS
10
0.195811
20
2.403
11
0.195323
21
2.40304
0
LINE
8
BLACK
6
CONTINUOUS
10
0.195323
20
2.40304
11
0.194857
21
2.40289
0
LINE
8
BLACK
6
CONTINUOUS
10
0.194857
20
2.40289
11
0.182671
21
2.40289
0
LINE
8
BLACK
6
CONTINUOUS
10
0.182671
20
2.40289
11
0.182205
21
2.40304
0
LINE
8
BLACK
6
CONTINUOUS
10
0.182205
20
2.40304
11
0.181716
21
2.403
0
LINE
8
BLACK
6
CONTINUOUS
10
0.181716
20
2.403
11
0.171967
21
2.40544
0
LINE
8
BLACK
6
CONTINUOUS
10
0.171967
20
2.40544
11
0.171595
21
2.40567
0
LINE
8
BLACK
6
CONTINUOUS
10
0.171595
20
2.40567
11
0.171161
21
2.40574
0
LINE
8
BLACK
6
CONTINUOUS
10
0.171161
20
2.40574
11
0.166287
21
2.40818
0
LINE
8
BLACK
6
CONTINUOUS
10
0.166287
20
2.40818
11
0.165832
21
2.40862
0
LINE
8
BLACK
6
CONTINUOUS
10
0.165832
20
2.40862
11
0.165264
21
2.40891
0
LINE
8
BLACK
6
CONTINUOUS
10
0.165264
20
2.40891
11
0.162826
21
2.41135
0
LINE
8
BLACK
6
CONTINUOUS
10
0.162826
20
2.41135
11
0.162537
21
2.41192
0
LINE
8
BLACK
6
CONTINUOUS
10
0.162537
20
2.41192
11
0.162089
21
2.41237
0
LINE
8
BLACK
6
CONTINUOUS
10
0.162089
20
2.41237
11
0.159652
21
2.41725
0
LINE
8
BLACK
6
CONTINUOUS
10
0.159652
20
2.41725
11
0.159516
21
2.41815
0
LINE
8
BLACK
6
CONTINUOUS
10
0.159516
20
2.41815
11
0.159236
21
2.41901
0
LINE
8
BLACK
6
CONTINUOUS
10
0.159236
20
2.41901
11
0.159236
21
2.42388
0
LINE
8
BLACK
6
CONTINUOUS
10
0.159236
20
2.42388
11
0.159516
21
2.42475
0
LINE
8
BLACK
6
CONTINUOUS
10
0.159516
20
2.42475
11
0.159652
21
2.42564
0
LINE
8
BLACK
6
CONTINUOUS
10
0.159652
20
2.42564
11
0.162089
21
2.43052
0
LINE
8
BLACK
6
CONTINUOUS
10
0.162089
20
2.43052
11
0.162537
21
2.43097
0
LINE
8
BLACK
6
CONTINUOUS
10
0.162537
20
2.43097
11
0.162826
21
2.43154
0
LINE
8
BLACK
6
CONTINUOUS
10
0.162826
20
2.43154
11
0.165264
21
2.43398
0
LINE
8
BLACK
6
CONTINUOUS
10
0.165264
20
2.43398
11
0.165832
21
2.43427
0
LINE
8
BLACK
6
CONTINUOUS
10
0.165832
20
2.43427
11
0.166287
21
2.43472
0
LINE
8
BLACK
6
CONTINUOUS
10
0.166287
20
2.43472
11
0.171161
21
2.43715
0
LINE
8
BLACK
6
CONTINUOUS
10
0.171161
20
2.43715
11
0.171595
21
2.43722
0
LINE
8
BLACK
6
CONTINUOUS
10
0.171595
20
2.43722
11
0.171967
21
2.43745
0
LINE
8
BLACK
6
CONTINUOUS
10
0.171967
20
2.43745
11
0.181716
21
2.43989
0
LINE
8
BLACK
6
CONTINUOUS
10
0.181716
20
2.43989
11
0.182205
21
2.43985
0
LINE
8
BLACK
6
CONTINUOUS
10
0.182205
20
2.43985
11
0.182671
21
2.44001
0
LINE
8
BLACK
6
CONTINUOUS
10
0.182671
20
2.44001
11
0.194857
21
2.44001
0
LINE
8
BLACK
6
CONTINUOUS
10
0.194857
20
2.44001
11
0.195323
21
2.43985
0
LINE
8
BLACK
6
CONTINUOUS
10
0.183155
20
2.43213
11
0.174296
21
2.42992
0
LINE
8
BLACK
6
CONTINUOUS
10
0.174296
20
2.42992
11
0.170379
21
2.42796
0
LINE
8
BLACK
6
CONTINUOUS
10
0.170379
20
2.42796
11
0.168846
21
2.42643
0
LINE
8
BLACK
6
CONTINUOUS
10
0.168846
20
2.42643
11
0.16711
21
2.42295
0
LINE
8
BLACK
6
CONTINUOUS
10
0.16711
20
2.42295
11
0.16711
21
2.41994
0
LINE
8
BLACK
6
CONTINUOUS
10
0.16711
20
2.41994
11
0.168846
21
2.41647
0
LINE
8
BLACK
6
CONTINUOUS
10
0.168846
20
2.41647
11
0.170379
21
2.41493
0
LINE
8
BLACK
6
CONTINUOUS
10
0.170379
20
2.41493
11
0.174296
21
2.41297
0
LINE
8
BLACK
6
CONTINUOUS
10
0.174296
20
2.41297
11
0.183155
21
2.41076
0
LINE
8
BLACK
6
CONTINUOUS
10
0.183155
20
2.41076
11
0.194372
21
2.41076
0
LINE
8
BLACK
6
CONTINUOUS
10
0.194372
20
2.41076
11
0.203231
21
2.41297
0
LINE
8
BLACK
6
CONTINUOUS
10
0.203231
20
2.41297
11
0.207148
21
2.41493
0
LINE
8
BLACK
6
CONTINUOUS
10
0.207148
20
2.41493
11
0.208681
21
2.41647
0
LINE
8
BLACK
6
CONTINUOUS
10
0.208681
20
2.41647
11
0.210417
21
2.41994
0
LINE
8
BLACK
6
CONTINUOUS
10
0.210417
20
2.41994
11
0.210417
21
2.42295
0
LINE
8
BLACK
6
CONTINUOUS
10
0.210417
20
2.42295
11
0.208681
21
2.42642
0
LINE
8
BLACK
6
CONTINUOUS
10
0.208681
20
2.42642
11
0.207148
21
2.42796
0
LINE
8
BLACK
6
CONTINUOUS
10
0.207148
20
2.42796
11
0.203231
21
2.42992
0
LINE
8
BLACK
6
CONTINUOUS
10
0.203231
20
2.42992
11
0.194372
21
2.43213
0
LINE
8
BLACK
6
CONTINUOUS
10
0.194372
20
2.43213
11
0.183155
21
2.43213
0
LINE
8
BLACK
6
CONTINUOUS
10
0.164418
20
2.48855
11
0.215599
21
2.47149
0
LINE
8
BLACK
6
CONTINUOUS
10
0.215599
20
2.47149
11
0.216556
21
2.47078
0
LINE
8
BLACK
6
CONTINUOUS
10
0.216556
20
2.47078
11
0.217522
21
2.47009
0
LINE
8
BLACK
6
CONTINUOUS
10
0.217522
20
2.47009
11
0.217531
21
2.47006
0
LINE
8
BLACK
6
CONTINUOUS
10
0.217531
20
2.47006
11
0.217557
21
2.47004
0
LINE
8
BLACK
6
CONTINUOUS
10
0.217557
20
2.47004
11
0.217916
21
2.46891
0
LINE
8
BLACK
6
CONTINUOUS
10
0.217916
20
2.46891
11
0.218291
21
2.46778
0
LINE
8
BLACK
6
CONTINUOUS
10
0.218291
20
2.46778
11
0.218282
21
2.46775
0
LINE
8
BLACK
6
CONTINUOUS
10
0.218282
20
2.46775
11
0.218291
21
2.46772
0
LINE
8
BLACK
6
CONTINUOUS
10
0.218291
20
2.46772
11
0.217915
21
2.46659
0
LINE
8
BLACK
6
CONTINUOUS
10
0.217915
20
2.46659
11
0.217557
21
2.46546
0
LINE
8
BLACK
6
CONTINUOUS
10
0.217557
20
2.46546
11
0.217532
21
2.46544
0
LINE
8
BLACK
6
CONTINUOUS
10
0.217532
20
2.46544
11
0.217522
21
2.46541
0
LINE
8
BLACK
6
CONTINUOUS
10
0.217522
20
2.46541
11
0.216553
21
2.46472
0
LINE
8
BLACK
6
CONTINUOUS
10
0.216553
20
2.46472
11
0.215599
21
2.46402
0
LINE
8
BLACK
6
CONTINUOUS
10
0.215599
20
2.46402
11
0.164418
21
2.44696
0
LINE
8
BLACK
6
CONTINUOUS
10
0.164418
20
2.44696
11
0.161985
21
2.44694
0
LINE
8
BLACK
6
CONTINUOUS
10
0.161985
20
2.44694
11
0.160006
21
2.44835
0
LINE
8
BLACK
6
CONTINUOUS
10
0.160006
20
2.44835
11
0.159236
21
2.45066
0
LINE
8
BLACK
6
CONTINUOUS
10
0.159236
20
2.45066
11
0.15997
21
2.45298
0
LINE
8
BLACK
6
CONTINUOUS
10
0.15997
20
2.45298
11
0.161928
21
2.45443
0
LINE
8
BLACK
6
CONTINUOUS
10
0.161928
20
2.45443
11
0.201904
21
2.46775
0
LINE
8
BLACK
6
CONTINUOUS
10
0.201904
20
2.46775
11
0.161928
21
2.48108
0
LINE
8
BLACK
6
CONTINUOUS
10
0.161928
20
2.48108
11
0.15997
21
2.48252
0
LINE
8
BLACK
6
CONTINUOUS
10
0.15997
20
2.48252
11
0.159236
21
2.48484
0
LINE
8
BLACK
6
CONTINUOUS
10
0.159236
20
2.48484
11
0.160006
21
2.48715
0
LINE
8
BLACK
6
CONTINUOUS
10
0.160006
20
2.48715
11
0.161985
21
2.48857
0
LINE
8
BLACK
6
CONTINUOUS
10
0.161985
20
2.48857
11
0.164418
21
2.48855
0
LINE
8
BLACK
6
CONTINUOUS
10
0.195323
20
2.53247
11
0.195811
21
2.5325
0
LINE
8
BLACK
6
CONTINUOUS
10
0.195811
20
2.5325
11
0.20556
21
2.53006
0
LINE
8
BLACK
6
CONTINUOUS
10
0.20556
20
2.53006
11
0.205932
21
2.52983
0
LINE
8
BLACK
6
CONTINUOUS
10
0.205932
20
2.52983
11
0.206366
21
2.52977
0
LINE
8
BLACK
6
CONTINUOUS
10
0.206366
20
2.52977
11
0.21124
21
2.52733
0
LINE
8
BLACK
6
CONTINUOUS
10
0.21124
20
2.52733
11
0.211695
21
2.52688
0
LINE
8
BLACK
6
CONTINUOUS
10
0.211695
20
2.52688
11
0.212264
21
2.52659
0
LINE
8
BLACK
6
CONTINUOUS
10
0.212264
20
2.52659
11
0.214701
21
2.52415
0
LINE
8
BLACK
6
CONTINUOUS
10
0.214701
20
2.52415
11
0.214991
21
2.52359
0
LINE
8
BLACK
6
CONTINUOUS
10
0.214991
20
2.52359
11
0.215438
21
2.52313
0
LINE
8
BLACK
6
CONTINUOUS
10
0.215438
20
2.52313
11
0.217876
21
2.51826
0
LINE
8
BLACK
6
CONTINUOUS
10
0.217876
20
2.51826
11
0.218011
21
2.51736
0
LINE
8
BLACK
6
CONTINUOUS
10
0.218011
20
2.51736
11
0.218291
21
2.5165
0
LINE
8
BLACK
6
CONTINUOUS
10
0.218291
20
2.5165
11
0.218291
21
2.51162
0
LINE
8
BLACK
6
CONTINUOUS
10
0.218291
20
2.51162
11
0.218011
21
2.51076
0
LINE
8
BLACK
6
CONTINUOUS
10
0.218011
20
2.51076
11
0.217876
21
2.50986
0
LINE
8
BLACK
6
CONTINUOUS
10
0.217876
20
2.50986
11
0.215438
21
2.50499
0
LINE
8
BLACK
6
CONTINUOUS
10
0.215438
20
2.50499
11
0.21499
21
2.50453
0
LINE
8
BLACK
6
CONTINUOUS
10
0.21499
20
2.50453
11
0.214701
21
2.50396
0
LINE
8
BLACK
6
CONTINUOUS
10
0.214701
20
2.50396
11
0.212264
21
2.50153
0
LINE
8
BLACK
6
CONTINUOUS
10
0.212264
20
2.50153
11
0.211695
21
2.50124
0
LINE
8
BLACK
6
CONTINUOUS
10
0.211695
20
2.50124
11
0.21124
21
2.50079
0
LINE
8
BLACK
6
CONTINUOUS
10
0.21124
20
2.50079
11
0.206366
21
2.49835
0
LINE
8
BLACK
6
CONTINUOUS
10
0.206366
20
2.49835
11
0.205932
21
2.49829
0
LINE
8
BLACK
6
CONTINUOUS
10
0.205932
20
2.49829
11
0.20556
21
2.49805
0
LINE
8
BLACK
6
CONTINUOUS
10
0.20556
20
2.49805
11
0.195811
21
2.49562
0
LINE
8
BLACK
6
CONTINUOUS
10
0.195811
20
2.49562
11
0.195323
21
2.49565
0
LINE
8
BLACK
6
CONTINUOUS
10
0.195323
20
2.49565
11
0.194857
21
2.4955
0
LINE
8
BLACK
6
CONTINUOUS
10
0.194857
20
2.4955
11
0.182671
21
2.4955
0
LINE
8
BLACK
6
CONTINUOUS
10
0.182671
20
2.4955
11
0.182205
21
2.49565
0
LINE
8
BLACK
6
CONTINUOUS
10
0.182205
20
2.49565
11
0.181716
21
2.49562
0
LINE
8
BLACK
6
CONTINUOUS
10
0.181716
20
2.49562
11
0.171967
21
2.49805
0
LINE
8
BLACK
6
CONTINUOUS
10
0.171967
20
2.49805
11
0.171595
21
2.49829
0
LINE
8
BLACK
6
CONTINUOUS
10
0.171595
20
2.49829
11
0.171161
21
2.49835
0
LINE
8
BLACK
6
CONTINUOUS
10
0.171161
20
2.49835
11
0.166287
21
2.50079
0
LINE
8
BLACK
6
CONTINUOUS
10
0.166287
20
2.50079
11
0.165832
21
2.50124
0
LINE
8
BLACK
6
CONTINUOUS
10
0.165832
20
2.50124
11
0.165264
21
2.50153
0
LINE
8
BLACK
6
CONTINUOUS
10
0.165264
20
2.50153
11
0.162826
21
2.50396
0
LINE
8
BLACK
6
CONTINUOUS
10
0.162826
20
2.50396
11
0.162537
21
2.50453
0
LINE
8
BLACK
6
CONTINUOUS
10
0.162537
20
2.50453
11
0.162089
21
2.50499
0
LINE
8
BLACK
6
CONTINUOUS
10
0.162089
20
2.50499
11
0.159652
21
2.50986
0
LINE
8
BLACK
6
CONTINUOUS
10
0.159652
20
2.50986
11
0.159516
21
2.51076
0
LINE
8
BLACK
6
CONTINUOUS
10
0.159516
20
2.51076
11
0.159236
21
2.51162
0
LINE
8
BLACK
6
CONTINUOUS
10
0.159236
20
2.51162
11
0.159236
21
2.5165
0
LINE
8
BLACK
6
CONTINUOUS
10
0.159236
20
2.5165
11
0.159516
21
2.51736
0
LINE
8
BLACK
6
CONTINUOUS
10
0.159516
20
2.51736
11
0.159652
21
2.51826
0
LINE
8
BLACK
6
CONTINUOUS
10
0.159652
20
2.51826
11
0.162089
21
2.52313
0
LINE
8
BLACK
6
CONTINUOUS
10
0.162089
20
2.52313
11
0.162537
21
2.52359
0
LINE
8
BLACK
6
CONTINUOUS
10
0.162537
20
2.52359
11
0.162826
21
2.52415
0
LINE
8
BLACK
6
CONTINUOUS
10
0.162826
20
2.52415
11
0.165264
21
2.52659
0
LINE
8
BLACK
6
CONTINUOUS
10
0.165264
20
2.52659
11
0.165832
21
2.52688
0
LINE
8
BLACK
6
CONTINUOUS
10
0.165832
20
2.52688
11
0.166287
21
2.52733
0
LINE
8
BLACK
6
CONTINUOUS
10
0.166287
20
2.52733
11
0.171161
21
2.52977
0
LINE
8
BLACK
6
CONTINUOUS
10
0.171161
20
2.52977
11
0.171595
21
2.52983
0
LINE
8
BLACK
6
CONTINUOUS
10
0.171595
20
2.52983
11
0.171967
21
2.53006
0
LINE
8
BLACK
6
CONTINUOUS
10
0.171967
20
2.53006
11
0.181716
21
2.5325
0
LINE
8
BLACK
6
CONTINUOUS
10
0.181716
20
2.5325
11
0.182205
21
2.53247
0
LINE
8
BLACK
6
CONTINUOUS
10
0.182205
20
2.53247
11
0.182671
21
2.53262
0
LINE
8
BLACK
6
CONTINUOUS
10
0.182671
20
2.53262
11
0.194857
21
2.53262
0
LINE
8
BLACK
6
CONTINUOUS
10
0.194857
20
2.53262
11
0.195323
21
2.53247
0
LINE
8
BLACK
6
CONTINUOUS
10
0.183155
20
2.52475
11
0.174296
21
2.52253
0
LINE
8
BLACK
6
CONTINUOUS
10
0.174296
20
2.52253
11
0.170379
21
2.52057
0
LINE
8
BLACK
6
CONTINUOUS
10
0.170379
20
2.52057
11
0.168846
21
2.51904
0
LINE
8
BLACK
6
CONTINUOUS
10
0.168846
20
2.51904
11
0.16711
21
2.51557
0
LINE
8
BLACK
6
CONTINUOUS
10
0.16711
20
2.51557
11
0.16711
21
2.51255
0
LINE
8
BLACK
6
CONTINUOUS
10
0.16711
20
2.51255
11
0.168846
21
2.50908
0
LINE
8
BLACK
6
CONTINUOUS
10
0.168846
20
2.50908
11
0.170379
21
2.50755
0
LINE
8
BLACK
6
CONTINUOUS
10
0.170379
20
2.50755
11
0.174296
21
2.50559
0
LINE
8
BLACK
6
CONTINUOUS
10
0.174296
20
2.50559
11
0.183155
21
2.50337
0
LINE
8
BLACK
6
CONTINUOUS
10
0.183155
20
2.50337
11
0.194372
21
2.50337
0
LINE
8
BLACK
6
CONTINUOUS
10
0.194372
20
2.50337
11
0.203231
21
2.50559
0
LINE
8
BLACK
6
CONTINUOUS
10
0.203231
20
2.50559
11
0.207148
21
2.50755
0
LINE
8
BLACK
6
CONTINUOUS
10
0.207148
20
2.50755
11
0.208681
21
2.50908
0
LINE
8
BLACK
6
CONTINUOUS
10
0.208681
20
2.50908
11
0.210417
21
2.51255
0
LINE
8
BLACK
6
CONTINUOUS
10
0.210417
20
2.51255
11
0.210417
21
2.51557
0
LINE
8
BLACK
6
CONTINUOUS
10
0.210417
20
2.51557
11
0.208681
21
2.51904
0
LINE
8
BLACK
6
CONTINUOUS
10
0.208681
20
2.51904
11
0.207148
21
2.52057
0
LINE
8
BLACK
6
CONTINUOUS
10
0.207148
20
2.52057
11
0.203231
21
2.52253
0
LINE
8
BLACK
6
CONTINUOUS
10
0.203231
20
2.52253
11
0.194372
21
2.52475
0
LINE
8
BLACK
6
CONTINUOUS
10
0.194372
20
2.52475
11
0.183155
21
2.52475
0
LINE
8
BLACK
6
CONTINUOUS
10
0.217539
20
2.57974
11
0.218291
21
2.57743
0
LINE
8
BLACK
6
CONTINUOUS
10
0.218291
20
2.57743
11
0.218291
21
2.54818
0
LINE
8
BLACK
6
CONTINUOUS
10
0.218291
20
2.54818
11
0.217539
21
2.54587
0
LINE
8
BLACK
6
CONTINUOUS
10
0.217539
20
2.54587
11
0.215571
21
2.54444
0
LINE
8
BLACK
6
CONTINUOUS
10
0.215571
20
2.54444
11
0.213138
21
2.54444
0
LINE
8
BLACK
6
CONTINUOUS
10
0.213138
20
2.54444
11
0.211169
21
2.54587
0
LINE
8
BLACK
6
CONTINUOUS
10
0.211169
20
2.54587
11
0.210417
21
2.54818
0
LINE
8
BLACK
6
CONTINUOUS
10
0.210417
20
2.54818
11
0.210417
21
2.55887
0
LINE
8
BLACK
6
CONTINUOUS
10
0.210417
20
2.55887
11
0.175115
21
2.55887
0
LINE
8
BLACK
6
CONTINUOUS
10
0.175115
20
2.55887
11
0.178143
21
2.55584
0
LINE
8
BLACK
6
CONTINUOUS
10
0.178143
20
2.55584
11
0.178433
21
2.55527
0
LINE
8
BLACK
6
CONTINUOUS
10
0.178433
20
2.55527
11
0.17888
21
2.55481
0
LINE
8
BLACK
6
CONTINUOUS
10
0.17888
20
2.55481
11
0.181318
21
2.54994
0
LINE
8
BLACK
6
CONTINUOUS
10
0.181318
20
2.54994
11
0.18168
21
2.54753
0
LINE
8
BLACK
6
CONTINUOUS
10
0.18168
20
2.54753
11
0.180559
21
2.54537
0
LINE
8
BLACK
6
CONTINUOUS
10
0.180559
20
2.54537
11
0.178382
21
2.54429
0
LINE
8
BLACK
6
CONTINUOUS
10
0.178382
20
2.54429
11
0.175982
21
2.54469
0
LINE
8
BLACK
6
CONTINUOUS
10
0.175982
20
2.54469
11
0.174275
21
2.54642
0
LINE
8
BLACK
6
CONTINUOUS
10
0.174275
20
2.54642
11
0.172123
21
2.55072
0
LINE
8
BLACK
6
CONTINUOUS
10
0.172123
20
2.55072
11
0.167976
21
2.55487
0
LINE
8
BLACK
6
CONTINUOUS
10
0.167976
20
2.55487
11
0.160989
21
2.55953
0
LINE
8
BLACK
6
CONTINUOUS
10
0.160989
20
2.55953
11
0.160938
21
2.55959
0
LINE
8
BLACK
6
CONTINUOUS
10
0.160938
20
2.55959
11
0.160859
21
2.55962
0
LINE
8
BLACK
6
CONTINUOUS
10
0.160859
20
2.55962
11
0.160188
21
2.56054
0
LINE
8
BLACK
6
CONTINUOUS
10
0.160188
20
2.56054
11
0.159481
21
2.56144
0
LINE
8
BLACK
6
CONTINUOUS
10
0.159481
20
2.56144
11
0.159477
21
2.56152
0
LINE
8
BLACK
6
CONTINUOUS
10
0.159477
20
2.56152
11
0.159429
21
2.56159
0
LINE
8
BLACK
6
CONTINUOUS
10
0.159429
20
2.56159
11
0.159429
21
2.56273
0
LINE
8
BLACK
6
CONTINUOUS
10
0.159429
20
2.56273
11
0.159383
21
2.56387
0
LINE
8
BLACK
6
CONTINUOUS
10
0.159383
20
2.56387
11
0.159429
21
2.56394
0
LINE
8
BLACK
6
CONTINUOUS
10
0.159429
20
2.56394
11
0.159429
21
2.56402
0
LINE
8
BLACK
6
CONTINUOUS
10
0.159429
20
2.56402
11
0.1601
21
2.56494
0
LINE
8
BLACK
6
CONTINUOUS
10
0.1601
20
2.56494
11
0.160732
21
2.56589
0
LINE
8
BLACK
6
CONTINUOUS
10
0.160732
20
2.56589
11
0.16081
21
2.56592
0
LINE
8
BLACK
6
CONTINUOUS
10
0.16081
20
2.56592
11
0.160859
21
2.56599
0
LINE
8
BLACK
6
CONTINUOUS
10
0.160859
20
2.56599
11
0.161944
21
2.56634
0
LINE
8
BLACK
6
CONTINUOUS
10
0.161944
20
2.56634
11
0.163014
21
2.56674
0
LINE
8
BLACK
6
CONTINUOUS
10
0.163014
20
2.56674
11
0.163094
21
2.56671
0
LINE
8
BLACK
6
CONTINUOUS
10
0.163094
20
2.56671
11
0.163173
21
2.56674
0
LINE
8
BLACK
6
CONTINUOUS
10
0.163173
20
2.56674
11
0.210417
21
2.56674
0
LINE
8
BLACK
6
CONTINUOUS
10
0.210417
20
2.56674
11
0.210417
21
2.57743
0
LINE
8
BLACK
6
CONTINUOUS
10
0.210417
20
2.57743
11
0.211169
21
2.57974
0
LINE
8
BLACK
6
CONTINUOUS
10
0.211169
20
2.57974
11
0.213138
21
2.58117
0
LINE
8
BLACK
6
CONTINUOUS
10
0.213138
20
2.58117
11
0.215571
21
2.58117
0
LINE
8
BLACK
6
CONTINUOUS
10
0.215571
20
2.58117
11
0.217539
21
2.57974
0
LINE
8
BLACK
6
CONTINUOUS
10
0.217522
20
2.62851
11
0.218291
21
2.6262
0
LINE
8
BLACK
6
CONTINUOUS
10
0.218291
20
2.6262
11
0.217557
21
2.62388
0
LINE
8
BLACK
6
CONTINUOUS
10
0.217557
20
2.62388
11
0.215599
21
2.62243
0
LINE
8
BLACK
6
CONTINUOUS
10
0.215599
20
2.62243
11
0.203668
21
2.61846
0
LINE
8
BLACK
6
CONTINUOUS
10
0.203668
20
2.61846
11
0.203668
21
2.59976
0
LINE
8
BLACK
6
CONTINUOUS
10
0.203668
20
2.59976
11
0.215599
21
2.59578
0
LINE
8
BLACK
6
CONTINUOUS
10
0.215599
20
2.59578
11
0.217557
21
2.59434
0
LINE
8
BLACK
6
CONTINUOUS
10
0.217557
20
2.59434
11
0.218291
21
2.59202
0
LINE
8
BLACK
6
CONTINUOUS
10
0.218291
20
2.59202
11
0.217522
21
2.58971
0
LINE
8
BLACK
6
CONTINUOUS
10
0.217522
20
2.58971
11
0.215542
21
2.5883
0
LINE
8
BLACK
6
CONTINUOUS
10
0.215542
20
2.5883
11
0.213109
21
2.58831
0
LINE
8
BLACK
6
CONTINUOUS
10
0.213109
20
2.58831
11
0.161928
21
2.60537
0
LINE
8
BLACK
6
CONTINUOUS
10
0.161928
20
2.60537
11
0.160972
21
2.60608
0
LINE
8
BLACK
6
CONTINUOUS
10
0.160972
20
2.60608
11
0.160006
21
2.60677
0
LINE
8
BLACK
6
CONTINUOUS
10
0.160006
20
2.60677
11
0.159996
21
2.6068
0
LINE
8
BLACK
6
CONTINUOUS
10
0.159996
20
2.6068
11
0.15997
21
2.60682
0
LINE
8
BLACK
6
CONTINUOUS
10
0.15997
20
2.60682
11
0.159612
21
2.60795
0
LINE
8
BLACK
6
CONTINUOUS
10
0.159612
20
2.60795
11
0.159236
21
2.60908
0
LINE
8
BLACK
6
CONTINUOUS
10
0.159236
20
2.60908
11
0.159246
21
2.60911
0
LINE
8
BLACK
6
CONTINUOUS
10
0.159246
20
2.60911
11
0.159236
21
2.60914
0
LINE
8
BLACK
6
CONTINUOUS
10
0.159236
20
2.60914
11
0.159612
21
2.61027
0
LINE
8
BLACK
6
CONTINUOUS
10
0.159612
20
2.61027
11
0.15997
21
2.6114
0
LINE
8
BLACK
6
CONTINUOUS
10
0.15997
20
2.6114
11
0.159996
21
2.61142
0
LINE
8
BLACK
6
CONTINUOUS
10
0.159996
20
2.61142
11
0.160006
21
2.61145
0
LINE
8
BLACK
6
CONTINUOUS
10
0.160006
20
2.61145
11
0.160972
21
2.61214
0
LINE
8
BLACK
6
CONTINUOUS
10
0.160972
20
2.61214
11
0.161928
21
2.61284
0
LINE
8
BLACK
6
CONTINUOUS
10
0.161928
20
2.61284
11
0.213109
21
2.6299
0
LINE
8
BLACK
6
CONTINUOUS
10
0.213109
20
2.6299
11
0.215542
21
2.62992
0
LINE
8
BLACK
6
CONTINUOUS
10
0.215542
20
2.62992
11
0.217522
21
2.62851
0
LINE
8
BLACK
6
CONTINUOUS
10
0.175623
20
2.60911
11
0.195794
21
2.60239
0
LINE
8
BLACK
6
CONTINUOUS
10
0.195794
20
2.60239
11
0.195794
21
2.61583
0
LINE
8
BLACK
6
CONTINUOUS
10
0.195794
20
2.61583
11
0.175623
21
2.60911
0
LINE
8
BLACK
6
CONTINUOUS
10
2.35433
20
0.00413776
11
2.3536
21
0.00590551
0
LINE
8
BLACK
6
CONTINUOUS
10
2.3536
20
0.00590551
11
2.3536
21
3.06496
0
LINE
8
BLACK
6
CONTINUOUS
10
2.3536
20
3.06496
11
2.35433
21
3.06673
0
LINE
8
BLACK
6
CONTINUOUS
10
2.35433
20
3.06673
11
2.3561
21
3.06746
0
LINE
8
BLACK
6
CONTINUOUS
10
2.3561
20
3.06746
11
3.93917
21
3.06746
0
LINE
8
BLACK
6
CONTINUOUS
10
3.93917
20
3.06746
11
3.94094
21
3.06673
0
LINE
8
BLACK
6
CONTINUOUS
10
3.94094
20
3.06673
11
3.94167
21
3.06496
0
LINE
8
BLACK
6
CONTINUOUS
10
3.94167
20
3.06496
11
3.94167
21
0.00590551
0
LINE
8
BLACK
6
CONTINUOUS
10
3.94167
20
0.00590551
11
3.94094
21
0.00413776
0
LINE
8
BLACK
6
CONTINUOUS
10
3.94094
20
0.00413776
11
3.93917
21
0.00340551
0
LINE
8
BLACK
6
CONTINUOUS
10
3.93917
20
0.00340551
11
2.3561
21
0.00340551
0
LINE
8
BLACK
6
CONTINUOUS
10
2.3561
20
0.00340551
11
2.35433
21
0.00413776
0
LINE
8
BLACK
6
CONTINUOUS
10
2.3586
20
3.06246
11
2.3586
21
0.00840551
0
LINE
8
BLACK
6
CONTINUOUS
10
2.3586
20
0.00840551
11
3.93667
21
0.00840551
0
LINE
8
BLACK
6
CONTINUOUS
10
3.93667
20
0.00840551
11
3.93667
21
3.06246
0
LINE
8
BLACK
6
CONTINUOUS
10
3.93667
20
3.06246
11
2.3586
21
3.06246
0
LINE
8
BLACK
6
CONTINUOUS
10
3.79794
20
0.214908
11
3.79857
21
0.214903
0
LINE
8
BLACK
6
CONTINUOUS
10
3.79857
20
0.214903
11
3.80589
21
0.212466
0
LINE
8
BLACK
6
CONTINUOUS
10
3.80589
20
0.212466
11
3.80662
21
0.211927
0
LINE
8
BLACK
6
CONTINUOUS
10
3.80662
20
0.211927
11
3.80742
21
0.211515
0
LINE
8
BLACK
6
CONTINUOUS
10
3.80742
20
0.211515
11
3.8123
21
0.20664
0
LINE
8
BLACK
6
CONTINUOUS
10
3.8123
20
0.20664
11
3.81271
21
0.205832
0
LINE
8
BLACK
6
CONTINUOUS
10
3.81271
20
0.205832
11
3.81325
21
0.205101
0
LINE
8
BLACK
6
CONTINUOUS
10
3.81325
20
0.205101
11
3.81569
21
0.19779
0
LINE
8
BLACK
6
CONTINUOUS
10
3.81569
20
0.19779
11
3.81569
21
0.197152
0
LINE
8
BLACK
6
CONTINUOUS
10
3.81569
20
0.197152
11
3.81589
21
0.196545
0
LINE
8
BLACK
6
CONTINUOUS
10
3.81589
20
0.196545
11
3.81589
21
0.19167
0
LINE
8
BLACK
6
CONTINUOUS
10
3.81589
20
0.19167
11
3.81514
21
0.189356
0
LINE
8
BLACK
6
CONTINUOUS
10
3.81514
20
0.189356
11
3.81317
21
0.187926
0
LINE
8
BLACK
6
CONTINUOUS
10
3.81317
20
0.187926
11
3.81074
21
0.187926
0
LINE
8
BLACK
6
CONTINUOUS
10
3.81074
20
0.187926
11
3.80877
21
0.189356
0
LINE
8
BLACK
6
CONTINUOUS
10
3.80877
20
0.189356
11
3.80802
21
0.19167
0
LINE
8
BLACK
6
CONTINUOUS
10
3.80802
20
0.19167
11
3.80802
21
0.195906
0
LINE
8
BLACK
6
CONTINUOUS
10
3.80802
20
0.195906
11
3.80607
21
0.20173
0
LINE
8
BLACK
6
CONTINUOUS
10
3.80607
20
0.20173
11
3.80251
21
0.20529
0
LINE
8
BLACK
6
CONTINUOUS
10
3.80251
20
0.20529
11
3.79669
21
0.207231
0
LINE
8
BLACK
6
CONTINUOUS
10
3.79669
20
0.207231
11
3.76077
21
0.207231
0
LINE
8
BLACK
6
CONTINUOUS
10
3.76077
20
0.207231
11
3.75846
21
0.207983
0
LINE
8
BLACK
6
CONTINUOUS
10
3.75846
20
0.207983
11
3.75703
21
0.209951
0
LINE
8
BLACK
6
CONTINUOUS
10
3.75703
20
0.209951
11
3.75703
21
0.212385
0
LINE
8
BLACK
6
CONTINUOUS
10
3.75703
20
0.212385
11
3.75846
21
0.214353
0
LINE
8
BLACK
6
CONTINUOUS
10
3.75846
20
0.214353
11
3.76077
21
0.215105
0
LINE
8
BLACK
6
CONTINUOUS
10
3.76077
20
0.215105
11
3.79733
21
0.215105
0
LINE
8
BLACK
6
CONTINUOUS
10
3.79733
20
0.215105
11
3.79794
21
0.214908
0
LINE
8
BLACK
6
CONTINUOUS
10
3.8584
20
0.250247
11
3.85904
21
0.250242
0
LINE
8
BLACK
6
CONTINUOUS
10
3.85904
20
0.250242
11
3.86635
21
0.247805
0
LINE
8
BLACK
6
CONTINUOUS
10
3.86635
20
0.247805
11
3.86708
21
0.247266
0
LINE
8
BLACK
6
CONTINUOUS
10
3.86708
20
0.247266
11
3.86789
21
0.246854
0
LINE
8
BLACK
6
CONTINUOUS
10
3.86789
20
0.246854
11
3.89042
21
0.224329
0
LINE
8
BLACK
6
CONTINUOUS
10
3.89042
20
0.224329
11
3.89042
21
0.246507
0
LINE
8
BLACK
6
CONTINUOUS
10
3.89042
20
0.246507
11
3.89117
21
0.248821
0
LINE
8
BLACK
6
CONTINUOUS
10
3.89117
20
0.248821
11
3.89314
21
0.250252
0
LINE
8
BLACK
6
CONTINUOUS
10
3.89314
20
0.250252
11
3.89557
21
0.250252
0
LINE
8
BLACK
6
CONTINUOUS
10
3.89557
20
0.250252
11
3.89754
21
0.248821
0
LINE
8
BLACK
6
CONTINUOUS
10
3.89754
20
0.248821
11
3.89829
21
0.246507
0
LINE
8
BLACK
6
CONTINUOUS
10
3.89829
20
0.246507
11
3.89829
21
0.214824
0
LINE
8
BLACK
6
CONTINUOUS
10
3.89829
20
0.214824
11
3.89801
21
0.213947
0
LINE
8
BLACK
6
CONTINUOUS
10
3.89801
20
0.213947
11
3.89786
21
0.213036
0
LINE
8
BLACK
6
CONTINUOUS
10
3.89786
20
0.213036
11
3.89764
21
0.212812
0
LINE
8
BLACK
6
CONTINUOUS
10
3.89764
20
0.212812
11
3.89754
21
0.21251
0
LINE
8
BLACK
6
CONTINUOUS
10
3.89754
20
0.21251
11
3.89679
21
0.211968
0
LINE
8
BLACK
6
CONTINUOUS
10
3.89679
20
0.211968
11
3.89614
21
0.211316
0
LINE
8
BLACK
6
CONTINUOUS
10
3.89614
20
0.211316
11
3.89583
21
0.211266
0
LINE
8
BLACK
6
CONTINUOUS
10
3.89583
20
0.211266
11
3.89557
21
0.211079
0
LINE
8
BLACK
6
CONTINUOUS
10
3.89557
20
0.211079
11
3.89465
21
0.211079
0
LINE
8
BLACK
6
CONTINUOUS
10
3.89465
20
0.211079
11
3.89374
21
0.210935
0
LINE
8
BLACK
6
CONTINUOUS
10
3.89374
20
0.210935
11
3.89346
21
0.211079
0
LINE
8
BLACK
6
CONTINUOUS
10
3.89346
20
0.211079
11
3.89314
21
0.211079
0
LINE
8
BLACK
6
CONTINUOUS
10
3.89314
20
0.211079
11
3.89239
21
0.211621
0
LINE
8
BLACK
6
CONTINUOUS
10
3.89239
20
0.211621
11
3.89157
21
0.21204
0
LINE
8
BLACK
6
CONTINUOUS
10
3.89157
20
0.21204
11
3.86298
21
0.240629
0
LINE
8
BLACK
6
CONTINUOUS
10
3.86298
20
0.240629
11
3.85716
21
0.24257
0
LINE
8
BLACK
6
CONTINUOUS
10
3.85716
20
0.24257
11
3.85385
21
0.24257
0
LINE
8
BLACK
6
CONTINUOUS
10
3.85385
20
0.24257
11
3.85038
21
0.240834
0
LINE
8
BLACK
6
CONTINUOUS
10
3.85038
20
0.240834
11
3.84885
21
0.239301
0
LINE
8
BLACK
6
CONTINUOUS
10
3.84885
20
0.239301
11
3.84711
21
0.235829
0
LINE
8
BLACK
6
CONTINUOUS
10
3.84711
20
0.235829
11
3.84711
21
0.225502
0
LINE
8
BLACK
6
CONTINUOUS
10
3.84711
20
0.225502
11
3.84885
21
0.22203
0
LINE
8
BLACK
6
CONTINUOUS
10
3.84885
20
0.22203
11
3.85083
21
0.220045
0
LINE
8
BLACK
6
CONTINUOUS
10
3.85083
20
0.220045
11
3.85194
21
0.217877
0
LINE
8
BLACK
6
CONTINUOUS
10
3.85194
20
0.217877
11
3.85156
21
0.215474
0
LINE
8
BLACK
6
CONTINUOUS
10
3.85156
20
0.215474
11
3.84983
21
0.213753
0
LINE
8
BLACK
6
CONTINUOUS
10
3.84983
20
0.213753
11
3.84743
21
0.213372
0
LINE
8
BLACK
6
CONTINUOUS
10
3.84743
20
0.213372
11
3.84526
21
0.214477
0
LINE
8
BLACK
6
CONTINUOUS
10
3.84526
20
0.214477
11
3.84283
21
0.216914
0
LINE
8
BLACK
6
CONTINUOUS
10
3.84283
20
0.216914
11
3.84254
21
0.217483
0
LINE
8
BLACK
6
CONTINUOUS
10
3.84254
20
0.217483
11
3.84209
21
0.217937
0
LINE
8
BLACK
6
CONTINUOUS
10
3.84209
20
0.217937
11
3.83965
21
0.222812
0
LINE
8
BLACK
6
CONTINUOUS
10
3.83965
20
0.222812
11
3.83952
21
0.223709
0
LINE
8
BLACK
6
CONTINUOUS
10
3.83952
20
0.223709
11
3.83924
21
0.224573
0
LINE
8
BLACK
6
CONTINUOUS
10
3.83924
20
0.224573
11
3.83924
21
0.236759
0
LINE
8
BLACK
6
CONTINUOUS
10
3.83924
20
0.236759
11
3.83952
21
0.237622
0
LINE
8
BLACK
6
CONTINUOUS
10
3.83952
20
0.237622
11
3.83965
21
0.238519
0
LINE
8
BLACK
6
CONTINUOUS
10
3.83965
20
0.238519
11
3.84209
21
0.243394
0
LINE
8
BLACK
6
CONTINUOUS
10
3.84209
20
0.243394
11
3.84254
21
0.243848
0
LINE
8
BLACK
6
CONTINUOUS
10
3.84254
20
0.243848
11
3.84283
21
0.244417
0
LINE
8
BLACK
6
CONTINUOUS
10
3.84283
20
0.244417
11
3.84526
21
0.246854
0
LINE
8
BLACK
6
CONTINUOUS
10
3.84526
20
0.246854
11
3.84583
21
0.247144
0
LINE
8
BLACK
6
CONTINUOUS
10
3.84583
20
0.247144
11
3.84629
21
0.247591
0
LINE
8
BLACK
6
CONTINUOUS
10
3.84629
20
0.247591
11
3.85116
21
0.250029
0
LINE
8
BLACK
6
CONTINUOUS
10
3.85116
20
0.250029
11
3.85206
21
0.250164
0
LINE
8
BLACK
6
CONTINUOUS
10
3.85206
20
0.250164
11
3.85292
21
0.250444
0
LINE
8
BLACK
6
CONTINUOUS
10
3.85292
20
0.250444
11
3.8578
21
0.250444
0
LINE
8
BLACK
6
CONTINUOUS
10
3.8578
20
0.250444
11
3.8584
21
0.250247
0
LINE
8
BLACK
6
CONTINUOUS
10
3.81512
20
0.264687
11
3.81589
21
0.262379
0
LINE
8
BLACK
6
CONTINUOUS
10
3.81589
20
0.262379
11
3.81516
21
0.260059
0
LINE
8
BLACK
6
CONTINUOUS
10
3.81516
20
0.260059
11
3.8132
21
0.258614
0
LINE
8
BLACK
6
CONTINUOUS
10
3.8132
20
0.258614
11
3.80127
21
0.254637
0
LINE
8
BLACK
6
CONTINUOUS
10
3.80127
20
0.254637
11
3.80127
21
0.23594
0
LINE
8
BLACK
6
CONTINUOUS
10
3.80127
20
0.23594
11
3.8132
21
0.231963
0
LINE
8
BLACK
6
CONTINUOUS
10
3.8132
20
0.231963
11
3.81516
21
0.230518
0
LINE
8
BLACK
6
CONTINUOUS
10
3.81516
20
0.230518
11
3.81589
21
0.228198
0
LINE
8
BLACK
6
CONTINUOUS
10
3.81589
20
0.228198
11
3.81512
21
0.22589
0
LINE
8
BLACK
6
CONTINUOUS
10
3.81512
20
0.22589
11
3.81314
21
0.224475
0
LINE
8
BLACK
6
CONTINUOUS
10
3.81314
20
0.224475
11
3.81071
21
0.224493
0
LINE
8
BLACK
6
CONTINUOUS
10
3.81071
20
0.224493
11
3.75953
21
0.241554
0
LINE
8
BLACK
6
CONTINUOUS
10
3.75953
20
0.241554
11
3.75857
21
0.242259
0
LINE
8
BLACK
6
CONTINUOUS
10
3.75857
20
0.242259
11
3.7576
21
0.242951
0
LINE
8
BLACK
6
CONTINUOUS
10
3.7576
20
0.242951
11
3.75759
21
0.24298
0
LINE
8
BLACK
6
CONTINUOUS
10
3.75759
20
0.24298
11
3.75757
21
0.242999
0
LINE
8
BLACK
6
CONTINUOUS
10
3.75757
20
0.242999
11
3.75721
21
0.244133
0
LINE
8
BLACK
6
CONTINUOUS
10
3.75721
20
0.244133
11
3.75683
21
0.245259
0
LINE
8
BLACK
6
CONTINUOUS
10
3.75683
20
0.245259
11
3.75684
21
0.245289
0
LINE
8
BLACK
6
CONTINUOUS
10
3.75684
20
0.245289
11
3.75683
21
0.245319
0
LINE
8
BLACK
6
CONTINUOUS
10
3.75683
20
0.245319
11
3.75721
21
0.246445
0
LINE
8
BLACK
6
CONTINUOUS
10
3.75721
20
0.246445
11
3.75757
21
0.247579
0
LINE
8
BLACK
6
CONTINUOUS
10
3.75757
20
0.247579
11
3.75759
21
0.247597
0
LINE
8
BLACK
6
CONTINUOUS
10
3.75759
20
0.247597
11
3.7576
21
0.247627
0
LINE
8
BLACK
6
CONTINUOUS
10
3.7576
20
0.247627
11
3.75857
21
0.248318
0
LINE
8
BLACK
6
CONTINUOUS
10
3.75857
20
0.248318
11
3.75953
21
0.249024
0
LINE
8
BLACK
6
CONTINUOUS
10
3.75953
20
0.249024
11
3.81071
21
0.266084
0
LINE
8
BLACK
6
CONTINUOUS
10
3.81071
20
0.266084
11
3.81314
21
0.266103
0
LINE
8
BLACK
6
CONTINUOUS
10
3.81314
20
0.266103
11
3.81512
21
0.264687
0
LINE
8
BLACK
6
CONTINUOUS
10
3.77322
20
0.245289
11
3.79339
21
0.238565
0
LINE
8
BLACK
6
CONTINUOUS
10
3.79339
20
0.238565
11
3.79339
21
0.252012
0
LINE
8
BLACK
6
CONTINUOUS
10
3.79339
20
0.252012
11
3.77322
21
0.245289
0
LINE
8
BLACK
6
CONTINUOUS
10
3.87532
20
0.299037
11
3.87581
21
0.299071
0
LINE
8
BLACK
6
CONTINUOUS
10
3.87581
20
0.299071
11
3.88556
21
0.296634
0
LINE
8
BLACK
6
CONTINUOUS
10
3.88556
20
0.296634
11
3.88593
21
0.296401
0
LINE
8
BLACK
6
CONTINUOUS
10
3.88593
20
0.296401
11
3.88637
21
0.296335
0
LINE
8
BLACK
6
CONTINUOUS
10
3.88637
20
0.296335
11
3.89124
21
0.293898
0
LINE
8
BLACK
6
CONTINUOUS
10
3.89124
20
0.293898
11
3.8917
21
0.29345
0
LINE
8
BLACK
6
CONTINUOUS
10
3.8917
20
0.29345
11
3.89226
21
0.293161
0
LINE
8
BLACK
6
CONTINUOUS
10
3.89226
20
0.293161
11
3.8947
21
0.290724
0
LINE
8
BLACK
6
CONTINUOUS
10
3.8947
20
0.290724
11
3.89499
21
0.290155
0
LINE
8
BLACK
6
CONTINUOUS
10
3.89499
20
0.290155
11
3.89544
21
0.2897
0
LINE
8
BLACK
6
CONTINUOUS
10
3.89544
20
0.2897
11
3.89788
21
0.284826
0
LINE
8
BLACK
6
CONTINUOUS
10
3.89788
20
0.284826
11
3.89801
21
0.283928
0
LINE
8
BLACK
6
CONTINUOUS
10
3.89801
20
0.283928
11
3.89829
21
0.283065
0
LINE
8
BLACK
6
CONTINUOUS
10
3.89829
20
0.283065
11
3.89829
21
0.278191
0
LINE
8
BLACK
6
CONTINUOUS
10
3.89829
20
0.278191
11
3.89801
21
0.277328
0
LINE
8
BLACK
6
CONTINUOUS
10
3.89801
20
0.277328
11
3.89788
21
0.27643
0
LINE
8
BLACK
6
CONTINUOUS
10
3.89788
20
0.27643
11
3.89544
21
0.271556
0
LINE
8
BLACK
6
CONTINUOUS
10
3.89544
20
0.271556
11
3.89499
21
0.271101
0
LINE
8
BLACK
6
CONTINUOUS
10
3.89499
20
0.271101
11
3.8947
21
0.270533
0
LINE
8
BLACK
6
CONTINUOUS
10
3.8947
20
0.270533
11
3.89226
21
0.268095
0
LINE
8
BLACK
6
CONTINUOUS
10
3.89226
20
0.268095
11
3.8917
21
0.267806
0
LINE
8
BLACK
6
CONTINUOUS
10
3.8917
20
0.267806
11
3.89124
21
0.267358
0
LINE
8
BLACK
6
CONTINUOUS
10
3.89124
20
0.267358
11
3.88637
21
0.264921
0
LINE
8
BLACK
6
CONTINUOUS
10
3.88637
20
0.264921
11
3.88593
21
0.264855
0
LINE
8
BLACK
6
CONTINUOUS
10
3.88593
20
0.264855
11
3.88556
21
0.264623
0
LINE
8
BLACK
6
CONTINUOUS
10
3.88556
20
0.264623
11
3.87581
21
0.262185
0
LINE
8
BLACK
6
CONTINUOUS
10
3.87581
20
0.262185
11
3.87532
21
0.262219
0
LINE
8
BLACK
6
CONTINUOUS
10
3.87532
20
0.262219
11
3.87486
21
0.262068
0
LINE
8
BLACK
6
CONTINUOUS
10
3.87486
20
0.262068
11
3.86267
21
0.262068
0
LINE
8
BLACK
6
CONTINUOUS
10
3.86267
20
0.262068
11
3.8622
21
0.262219
0
LINE
8
BLACK
6
CONTINUOUS
10
3.8622
20
0.262219
11
3.86172
21
0.262185
0
LINE
8
BLACK
6
CONTINUOUS
10
3.86172
20
0.262185
11
3.85197
21
0.264623
0
LINE
8
BLACK
6
CONTINUOUS
10
3.85197
20
0.264623
11
3.8516
21
0.264855
0
LINE
8
BLACK
6
CONTINUOUS
10
3.8516
20
0.264855
11
3.85116
21
0.264921
0
LINE
8
BLACK
6
CONTINUOUS
10
3.85116
20
0.264921
11
3.84629
21
0.267358
0
LINE
8
BLACK
6
CONTINUOUS
10
3.84629
20
0.267358
11
3.84583
21
0.267806
0
LINE
8
BLACK
6
CONTINUOUS
10
3.84583
20
0.267806
11
3.84526
21
0.268095
0
LINE
8
BLACK
6
CONTINUOUS
10
3.84526
20
0.268095
11
3.84283
21
0.270533
0
LINE
8
BLACK
6
CONTINUOUS
10
3.84283
20
0.270533
11
3.84254
21
0.271101
0
LINE
8
BLACK
6
CONTINUOUS
10
3.84254
20
0.271101
11
3.84209
21
0.271556
0
LINE
8
BLACK
6
CONTINUOUS
10
3.84209
20
0.271556
11
3.83965
21
0.27643
0
LINE
8
BLACK
6
CONTINUOUS
10
3.83965
20
0.27643
11
3.83952
21
0.277328
0
LINE
8
BLACK
6
CONTINUOUS
10
3.83952
20
0.277328
11
3.83924
21
0.278191
0
LINE
8
BLACK
6
CONTINUOUS
10
3.83924
20
0.278191
11
3.83924
21
0.283065
0
LINE
8
BLACK
6
CONTINUOUS
10
3.83924
20
0.283065
11
3.83952
21
0.283928
0
LINE
8
BLACK
6
CONTINUOUS
10
3.83952
20
0.283928
11
3.83965
21
0.284826
0
LINE
8
BLACK
6
CONTINUOUS
10
3.83965
20
0.284826
11
3.84209
21
0.2897
0
LINE
8
BLACK
6
CONTINUOUS
10
3.84209
20
0.2897
11
3.84254
21
0.290155
0
LINE
8
BLACK
6
CONTINUOUS
10
3.84254
20
0.290155
11
3.84283
21
0.290724
0
LINE
8
BLACK
6
CONTINUOUS
10
3.84283
20
0.290724
11
3.84526
21
0.293161
0
LINE
8
BLACK
6
CONTINUOUS
10
3.84526
20
0.293161
11
3.84583
21
0.29345
0
LINE
8
BLACK
6
CONTINUOUS
10
3.84583
20
0.29345
11
3.84629
21
0.293898
0
LINE
8
BLACK
6
CONTINUOUS
10
3.84629
20
0.293898
11
3.85116
21
0.296335
0
LINE
8
BLACK
6
CONTINUOUS
10
3.85116
20
0.296335
11
3.8516
21
0.296401
0
LINE
8
BLACK
6
CONTINUOUS
10
3.8516
20
0.296401
11
3.85197
21
0.296634
0
LINE
8
BLACK
6
CONTINUOUS
10
3.85197
20
0.296634
11
3.86172
21
0.299071
0
LINE
8
BLACK
6
CONTINUOUS
10
3.86172
20
0.299071
11
3.8622
21
0.299037
0
LINE
8
BLACK
6
CONTINUOUS
10
3.8622
20
0.299037
11
3.86267
21
0.299188
0
LINE
8
BLACK
6
CONTINUOUS
10
3.86267
20
0.299188
11
3.87486
21
0.299188
0
LINE
8
BLACK
6
CONTINUOUS
10
3.87486
20
0.299188
11
3.87532
21
0.299037
0
LINE
8
BLACK
6
CONTINUOUS
10
3.86316
20
0.291314
11
3.8543
21
0.289099
0
LINE
8
BLACK
6
CONTINUOUS
10
3.8543
20
0.289099
11
3.85038
21
0.287141
0
LINE
8
BLACK
6
CONTINUOUS
10
3.85038
20
0.287141
11
3.84885
21
0.285608
0
LINE
8
BLACK
6
CONTINUOUS
10
3.84885
20
0.285608
11
3.84711
21
0.282136
0
LINE
8
BLACK
6
CONTINUOUS
10
3.84711
20
0.282136
11
3.84711
21
0.27912
0
LINE
8
BLACK
6
CONTINUOUS
10
3.84711
20
0.27912
11
3.84885
21
0.275649
0
LINE
8
BLACK
6
CONTINUOUS
10
3.84885
20
0.275649
11
3.85038
21
0.274115
0
LINE
8
BLACK
6
CONTINUOUS
10
3.85038
20
0.274115
11
3.8543
21
0.272157
0
LINE
8
BLACK
6
CONTINUOUS
10
3.8543
20
0.272157
11
3.86316
21
0.269942
0
LINE
8
BLACK
6
CONTINUOUS
10
3.86316
20
0.269942
11
3.87437
21
0.269942
0
LINE
8
BLACK
6
CONTINUOUS
10
3.87437
20
0.269942
11
3.88323
21
0.272157
0
LINE
8
BLACK
6
CONTINUOUS
10
3.88323
20
0.272157
11
3.88715
21
0.274115
0
LINE
8
BLACK
6
CONTINUOUS
10
3.88715
20
0.274115
11
3.88868
21
0.275649
0
LINE
8
BLACK
6
CONTINUOUS
10
3.88868
20
0.275649
11
3.89042
21
0.27912
0
LINE
8
BLACK
6
CONTINUOUS
10
3.89042
20
0.27912
11
3.89042
21
0.282136
0
LINE
8
BLACK
6
CONTINUOUS
10
3.89042
20
0.282136
11
3.88868
21
0.285608
0
LINE
8
BLACK
6
CONTINUOUS
10
3.88868
20
0.285608
11
3.88715
21
0.287141
0
LINE
8
BLACK
6
CONTINUOUS
10
3.88715
20
0.287141
11
3.88323
21
0.289099
0
LINE
8
BLACK
6
CONTINUOUS
10
3.88323
20
0.289099
11
3.87437
21
0.291314
0
LINE
8
BLACK
6
CONTINUOUS
10
3.87437
20
0.291314
11
3.86316
21
0.291314
0
LINE
8
BLACK
6
CONTINUOUS
10
3.80986
20
0.31144
11
3.8123
21
0.309003
0
LINE
8
BLACK
6
CONTINUOUS
10
3.8123
20
0.309003
11
3.81271
21
0.308194
0
LINE
8
BLACK
6
CONTINUOUS
10
3.81271
20
0.308194
11
3.81325
21
0.307464
0
LINE
8
BLACK
6
CONTINUOUS
10
3.81325
20
0.307464
11
3.81569
21
0.300152
0
LINE
8
BLACK
6
CONTINUOUS
10
3.81569
20
0.300152
11
3.81569
21
0.299514
0
LINE
8
BLACK
6
CONTINUOUS
10
3.81569
20
0.299514
11
3.81589
21
0.298907
0
LINE
8
BLACK
6
CONTINUOUS
10
3.81589
20
0.298907
11
3.81589
21
0.294033
0
LINE
8
BLACK
6
CONTINUOUS
10
3.81589
20
0.294033
11
3.81569
21
0.293426
0
LINE
8
BLACK
6
CONTINUOUS
10
3.81569
20
0.293426
11
3.81569
21
0.292788
0
LINE
8
BLACK
6
CONTINUOUS
10
3.81569
20
0.292788
11
3.81325
21
0.285476
0
LINE
8
BLACK
6
CONTINUOUS
10
3.81325
20
0.285476
11
3.81271
21
0.284746
0
LINE
8
BLACK
6
CONTINUOUS
10
3.81271
20
0.284746
11
3.8123
21
0.283937
0
LINE
8
BLACK
6
CONTINUOUS
10
3.8123
20
0.283937
11
3.80742
21
0.279063
0
LINE
8
BLACK
6
CONTINUOUS
10
3.80742
20
0.279063
11
3.80686
21
0.278773
0
LINE
8
BLACK
6
CONTINUOUS
10
3.80686
20
0.278773
11
3.8064
21
0.278325
0
LINE
8
BLACK
6
CONTINUOUS
10
3.8064
20
0.278325
11
3.80153
21
0.275888
0
LINE
8
BLACK
6
CONTINUOUS
10
3.80153
20
0.275888
11
3.80109
21
0.275823
0
LINE
8
BLACK
6
CONTINUOUS
10
3.80109
20
0.275823
11
3.80072
21
0.27559
0
LINE
8
BLACK
6
CONTINUOUS
10
3.80072
20
0.27559
11
3.79097
21
0.273153
0
LINE
8
BLACK
6
CONTINUOUS
10
3.79097
20
0.273153
11
3.79048
21
0.273187
0
LINE
8
BLACK
6
CONTINUOUS
10
3.79048
20
0.273187
11
3.79002
21
0.273035
0
LINE
8
BLACK
6
CONTINUOUS
10
3.79002
20
0.273035
11
3.78271
21
0.273035
0
LINE
8
BLACK
6
CONTINUOUS
10
3.78271
20
0.273035
11
3.78224
21
0.273187
0
LINE
8
BLACK
6
CONTINUOUS
10
3.78224
20
0.273187
11
3.78175
21
0.273153
0
LINE
8
BLACK
6
CONTINUOUS
10
3.78175
20
0.273153
11
3.772
21
0.27559
0
LINE
8
BLACK
6
CONTINUOUS
10
3.772
20
0.27559
11
3.77163
21
0.275823
0
LINE
8
BLACK
6
CONTINUOUS
10
3.77163
20
0.275823
11
3.7712
21
0.275888
0
LINE
8
BLACK
6
CONTINUOUS
10
3.7712
20
0.275888
11
3.76632
21
0.278325
0
LINE
8
BLACK
6
CONTINUOUS
10
3.76632
20
0.278325
11
3.76587
21
0.278773
0
LINE
8
BLACK
6
CONTINUOUS
10
3.76587
20
0.278773
11
3.7653
21
0.279063
0
LINE
8
BLACK
6
CONTINUOUS
10
3.7653
20
0.279063
11
3.76042
21
0.283937
0
LINE
8
BLACK
6
CONTINUOUS
10
3.76042
20
0.283937
11
3.76001
21
0.284746
0
LINE
8
BLACK
6
CONTINUOUS
10
3.76001
20
0.284746
11
3.75947
21
0.285476
0
LINE
8
BLACK
6
CONTINUOUS
10
3.75947
20
0.285476
11
3.75704
21
0.292788
0
LINE
8
BLACK
6
CONTINUOUS
10
3.75704
20
0.292788
11
3.75703
21
0.293426
0
LINE
8
BLACK
6
CONTINUOUS
10
3.75703
20
0.293426
11
3.75683
21
0.294033
0
LINE
8
BLACK
6
CONTINUOUS
10
3.75683
20
0.294033
11
3.75683
21
0.298907
0
LINE
8
BLACK
6
CONTINUOUS
10
3.75683
20
0.298907
11
3.75703
21
0.299514
0
LINE
8
BLACK
6
CONTINUOUS
10
3.75703
20
0.299514
11
3.75704
21
0.300152
0
LINE
8
BLACK
6
CONTINUOUS
10
3.75704
20
0.300152
11
3.75947
21
0.307464
0
LINE
8
BLACK
6
CONTINUOUS
10
3.75947
20
0.307464
11
3.76001
21
0.308194
0
LINE
8
BLACK
6
CONTINUOUS
10
3.76001
20
0.308194
11
3.76042
21
0.309002
0
LINE
8
BLACK
6
CONTINUOUS
10
3.76042
20
0.309002
11
3.76286
21
0.31144
0
LINE
8
BLACK
6
CONTINUOUS
10
3.76286
20
0.31144
11
3.76503
21
0.312544
0
LINE
8
BLACK
6
CONTINUOUS
10
3.76503
20
0.312544
11
3.76743
21
0.312164
0
LINE
8
BLACK
6
CONTINUOUS
10
3.76743
20
0.312164
11
3.76915
21
0.310443
0
LINE
8
BLACK
6
CONTINUOUS
10
3.76915
20
0.310443
11
3.76953
21
0.30804
0
LINE
8
BLACK
6
CONTINUOUS
10
3.76953
20
0.30804
11
3.76843
21
0.305872
0
LINE
8
BLACK
6
CONTINUOUS
10
3.76843
20
0.305872
11
3.76665
21
0.304092
0
LINE
8
BLACK
6
CONTINUOUS
10
3.76665
20
0.304092
11
3.76471
21
0.298268
0
LINE
8
BLACK
6
CONTINUOUS
10
3.76471
20
0.298268
11
3.76471
21
0.294671
0
LINE
8
BLACK
6
CONTINUOUS
10
3.76471
20
0.294671
11
3.76665
21
0.288848
0
LINE
8
BLACK
6
CONTINUOUS
10
3.76665
20
0.288848
11
3.77042
21
0.285082
0
LINE
8
BLACK
6
CONTINUOUS
10
3.77042
20
0.285082
11
3.77433
21
0.283124
0
LINE
8
BLACK
6
CONTINUOUS
10
3.77433
20
0.283124
11
3.78319
21
0.280909
0
LINE
8
BLACK
6
CONTINUOUS
10
3.78319
20
0.280909
11
3.78953
21
0.280909
0
LINE
8
BLACK
6
CONTINUOUS
10
3.78953
20
0.280909
11
3.79839
21
0.283124
0
LINE
8
BLACK
6
CONTINUOUS
10
3.79839
20
0.283124
11
3.80231
21
0.285082
0
LINE
8
BLACK
6
CONTINUOUS
10
3.80231
20
0.285082
11
3.80607
21
0.288848
0
LINE
8
BLACK
6
CONTINUOUS
10
3.80607
20
0.288848
11
3.80802
21
0.294671
0
LINE
8
BLACK
6
CONTINUOUS
10
3.80802
20
0.294671
11
3.80802
21
0.298268
0
LINE
8
BLACK
6
CONTINUOUS
10
3.80802
20
0.298268
11
3.80607
21
0.304092
0
LINE
8
BLACK
6
CONTINUOUS
10
3.80607
20
0.304092
11
3.80429
21
0.305872
0
LINE
8
BLACK
6
CONTINUOUS
10
3.80429
20
0.305872
11
3.80319
21
0.30804
0
LINE
8
BLACK
6
CONTINUOUS
10
3.80319
20
0.30804
11
3.80357
21
0.310443
0
LINE
8
BLACK
6
CONTINUOUS
10
3.80357
20
0.310443
11
3.80529
21
0.312164
0
LINE
8
BLACK
6
CONTINUOUS
10
3.80529
20
0.312164
11
3.80769
21
0.312544
0
LINE
8
BLACK
6
CONTINUOUS
10
3.80769
20
0.312544
11
3.80986
21
0.31144
0
LINE
8
BLACK
6
CONTINUOUS
10
3.8584
20
0.347735
11
3.85904
21
0.34773
0
LINE
8
BLACK
6
CONTINUOUS
10
3.85904
20
0.34773
11
3.86635
21
0.345293
0
LINE
8
BLACK
6
CONTINUOUS
10
3.86635
20
0.345293
11
3.86708
21
0.344754
0
LINE
8
BLACK
6
CONTINUOUS
10
3.86708
20
0.344754
11
3.86789
21
0.344342
0
LINE
8
BLACK
6
CONTINUOUS
10
3.86789
20
0.344342
11
3.89042
21
0.321816
0
LINE
8
BLACK
6
CONTINUOUS
10
3.89042
20
0.321816
11
3.89042
21
0.343995
0
LINE
8
BLACK
6
CONTINUOUS
10
3.89042
20
0.343995
11
3.89117
21
0.346309
0
LINE
8
BLACK
6
CONTINUOUS
10
3.89117
20
0.346309
11
3.89314
21
0.347739
0
LINE
8
BLACK
6
CONTINUOUS
10
3.89314
20
0.347739
11
3.89557
21
0.347739
0
LINE
8
BLACK
6
CONTINUOUS
10
3.89557
20
0.347739
11
3.89754
21
0.346309
0
LINE
8
BLACK
6
CONTINUOUS
10
3.89754
20
0.346309
11
3.89829
21
0.343995
0
LINE
8
BLACK
6
CONTINUOUS
10
3.89829
20
0.343995
11
3.89829
21
0.312312
0
LINE
8
BLACK
6
CONTINUOUS
10
3.89829
20
0.312312
11
3.89801
21
0.311435
0
LINE
8
BLACK
6
CONTINUOUS
10
3.89801
20
0.311435
11
3.89786
21
0.310524
0
LINE
8
BLACK
6
CONTINUOUS
10
3.89786
20
0.310524
11
3.89764
21
0.3103
0
LINE
8
BLACK
6
CONTINUOUS
10
3.89764
20
0.3103
11
3.89754
21
0.309997
0
LINE
8
BLACK
6
CONTINUOUS
10
3.89754
20
0.309997
11
3.89679
21
0.309456
0
LINE
8
BLACK
6
CONTINUOUS
10
3.89679
20
0.309456
11
3.89614
21
0.308804
0
LINE
8
BLACK
6
CONTINUOUS
10
3.89614
20
0.308804
11
3.89583
21
0.308754
0
LINE
8
BLACK
6
CONTINUOUS
10
3.89583
20
0.308754
11
3.89557
21
0.308567
0
LINE
8
BLACK
6
CONTINUOUS
10
3.89557
20
0.308567
11
3.89465
21
0.308567
0
LINE
8
BLACK
6
CONTINUOUS
10
3.89465
20
0.308567
11
3.89374
21
0.308423
0
LINE
8
BLACK
6
CONTINUOUS
10
3.89374
20
0.308423
11
3.89346
21
0.308567
0
LINE
8
BLACK
6
CONTINUOUS
10
3.89346
20
0.308567
11
3.89314
21
0.308567
0
LINE
8
BLACK
6
CONTINUOUS
10
3.89314
20
0.308567
11
3.89239
21
0.309109
0
LINE
8
BLACK
6
CONTINUOUS
10
3.89239
20
0.309109
11
3.89157
21
0.309528
0
LINE
8
BLACK
6
CONTINUOUS
10
3.89157
20
0.309528
11
3.86298
21
0.338117
0
LINE
8
BLACK
6
CONTINUOUS
10
3.86298
20
0.338117
11
3.85716
21
0.340058
0
LINE
8
BLACK
6
CONTINUOUS
10
3.85716
20
0.340058
11
3.85385
21
0.340058
0
LINE
8
BLACK
6
CONTINUOUS
10
3.85385
20
0.340058
11
3.85038
21
0.338322
0
LINE
8
BLACK
6
CONTINUOUS
10
3.85038
20
0.338322
11
3.84885
21
0.336789
0
LINE
8
BLACK
6
CONTINUOUS
10
3.84885
20
0.336789
11
3.84711
21
0.333317
0
LINE
8
BLACK
6
CONTINUOUS
10
3.84711
20
0.333317
11
3.84711
21
0.32299
0
LINE
8
BLACK
6
CONTINUOUS
10
3.84711
20
0.32299
11
3.84885
21
0.319518
0
LINE
8
BLACK
6
CONTINUOUS
10
3.84885
20
0.319518
11
3.85083
21
0.317533
0
LINE
8
BLACK
6
CONTINUOUS
10
3.85083
20
0.317533
11
3.85194
21
0.315365
0
LINE
8
BLACK
6
CONTINUOUS
10
3.85194
20
0.315365
11
3.85156
21
0.312961
0
LINE
8
BLACK
6
CONTINUOUS
10
3.85156
20
0.312961
11
3.84983
21
0.311241
0
LINE
8
BLACK
6
CONTINUOUS
10
3.84983
20
0.311241
11
3.84743
21
0.31086
0
LINE
8
BLACK
6
CONTINUOUS
10
3.84743
20
0.31086
11
3.84526
21
0.311965
0
LINE
8
BLACK
6
CONTINUOUS
10
3.84526
20
0.311965
11
3.84283
21
0.314402
0
LINE
8
BLACK
6
CONTINUOUS
10
3.84283
20
0.314402
11
3.84254
21
0.314971
0
LINE
8
BLACK
6
CONTINUOUS
10
3.84254
20
0.314971
11
3.84209
21
0.315425
0
LINE
8
BLACK
6
CONTINUOUS
10
3.84209
20
0.315425
11
3.83965
21
0.3203
0
LINE
8
BLACK
6
CONTINUOUS
10
3.83965
20
0.3203
11
3.83952
21
0.321197
0
LINE
8
BLACK
6
CONTINUOUS
10
3.83952
20
0.321197
11
3.83924
21
0.32206
0
LINE
8
BLACK
6
CONTINUOUS
10
3.83924
20
0.32206
11
3.83924
21
0.334246
0
LINE
8
BLACK
6
CONTINUOUS
10
3.83924
20
0.334246
11
3.83952
21
0.335109
0
LINE
8
BLACK
6
CONTINUOUS
10
3.83952
20
0.335109
11
3.83965
21
0.336007
0
LINE
8
BLACK
6
CONTINUOUS
10
3.83965
20
0.336007
11
3.84209
21
0.340881
0
LINE
8
BLACK
6
CONTINUOUS
10
3.84209
20
0.340881
11
3.84254
21
0.341336
0
LINE
8
BLACK
6
CONTINUOUS
10
3.84254
20
0.341336
11
3.84283
21
0.341905
0
LINE
8
BLACK
6
CONTINUOUS
10
3.84283
20
0.341905
11
3.84526
21
0.344342
0
LINE
8
BLACK
6
CONTINUOUS
10
3.84526
20
0.344342
11
3.84583
21
0.344631
0
LINE
8
BLACK
6
CONTINUOUS
10
3.84583
20
0.344631
11
3.84629
21
0.345079
0
LINE
8
BLACK
6
CONTINUOUS
10
3.84629
20
0.345079
11
3.85116
21
0.347517
0
LINE
8
BLACK
6
CONTINUOUS
10
3.85116
20
0.347517
11
3.85206
21
0.347652
0
LINE
8
BLACK
6
CONTINUOUS
10
3.85206
20
0.347652
11
3.85292
21
0.347932
0
LINE
8
BLACK
6
CONTINUOUS
10
3.85292
20
0.347932
11
3.8578
21
0.347932
0
LINE
8
BLACK
6
CONTINUOUS
10
3.8578
20
0.347932
11
3.8584
21
0.347735
0
LINE
8
BLACK
6
CONTINUOUS
10
3.81427
20
0.363022
11
3.8157
21
0.361054
0
LINE
8
BLACK
6
CONTINUOUS
10
3.8157
20
0.361054
11
3.8157
21
0.35862
0
LINE
8
BLACK
6
CONTINUOUS
10
3.8157
20
0.35862
11
3.81427
21
0.356652
0
LINE
8
BLACK
6
CONTINUOUS
10
3.81427
20
0.356652
11
3.81195
21
0.3559
0
LINE
8
BLACK
6
CONTINUOUS
10
3.81195
20
0.3559
11
3.78908
21
0.3559
0
LINE
8
BLACK
6
CONTINUOUS
10
3.78908
20
0.3559
11
3.78908
21
0.334528
0
LINE
8
BLACK
6
CONTINUOUS
10
3.78908
20
0.334528
11
3.81195
21
0.334528
0
LINE
8
BLACK
6
CONTINUOUS
10
3.81195
20
0.334528
11
3.81427
21
0.333776
0
LINE
8
BLACK
6
CONTINUOUS
10
3.81427
20
0.333776
11
3.8157
21
0.331807
0
LINE
8
BLACK
6
CONTINUOUS
10
3.8157
20
0.331807
11
3.8157
21
0.329374
0
LINE
8
BLACK
6
CONTINUOUS
10
3.8157
20
0.329374
11
3.81427
21
0.327405
0
LINE
8
BLACK
6
CONTINUOUS
10
3.81427
20
0.327405
11
3.81195
21
0.326654
0
LINE
8
BLACK
6
CONTINUOUS
10
3.81195
20
0.326654
11
3.76077
21
0.326654
0
LINE
8
BLACK
6
CONTINUOUS
10
3.76077
20
0.326654
11
3.75846
21
0.327405
0
LINE
8
BLACK
6
CONTINUOUS
10
3.75846
20
0.327405
11
3.75703
21
0.329374
0
LINE
8
BLACK
6
CONTINUOUS
10
3.75703
20
0.329374
11
3.75703
21
0.331807
0
LINE
8
BLACK
6
CONTINUOUS
10
3.75703
20
0.331807
11
3.75846
21
0.333776
0
LINE
8
BLACK
6
CONTINUOUS
10
3.75846
20
0.333776
11
3.76077
21
0.334528
0
LINE
8
BLACK
6
CONTINUOUS
10
3.76077
20
0.334528
11
3.78121
21
0.334528
0
LINE
8
BLACK
6
CONTINUOUS
10
3.78121
20
0.334528
11
3.78121
21
0.3559
0
LINE
8
BLACK
6
CONTINUOUS
10
3.78121
20
0.3559
11
3.76077
21
0.3559
0
LINE
8
BLACK
6
CONTINUOUS
10
3.76077
20
0.3559
11
3.75846
21
0.356652
0
LINE
8
BLACK
6
CONTINUOUS
10
3.75846
20
0.356652
11
3.75703
21
0.35862
0
LINE
8
BLACK
6
CONTINUOUS
10
3.75703
20
0.35862
11
3.75703
21
0.361054
0
LINE
8
BLACK
6
CONTINUOUS
10
3.75703
20
0.361054
11
3.75846
21
0.363022
0
LINE
8
BLACK
6
CONTINUOUS
10
3.75846
20
0.363022
11
3.76077
21
0.363774
0
LINE
8
BLACK
6
CONTINUOUS
10
3.76077
20
0.363774
11
3.81195
21
0.363774
0
LINE
8
BLACK
6
CONTINUOUS
10
3.81195
20
0.363774
11
3.81427
21
0.363022
0
LINE
8
BLACK
6
CONTINUOUS
10
3.8584
20
0.396479
11
3.85904
21
0.396474
0
LINE
8
BLACK
6
CONTINUOUS
10
3.85904
20
0.396474
11
3.86635
21
0.394037
0
LINE
8
BLACK
6
CONTINUOUS
10
3.86635
20
0.394037
11
3.86708
21
0.393498
0
LINE
8
BLACK
6
CONTINUOUS
10
3.86708
20
0.393498
11
3.86789
21
0.393086
0
LINE
8
BLACK
6
CONTINUOUS
10
3.86789
20
0.393086
11
3.89042
21
0.37056
0
LINE
8
BLACK
6
CONTINUOUS
10
3.89042
20
0.37056
11
3.89042
21
0.392739
0
LINE
8
BLACK
6
CONTINUOUS
10
3.89042
20
0.392739
11
3.89117
21
0.395053
0
LINE
8
BLACK
6
CONTINUOUS
10
3.89117
20
0.395053
11
3.89314
21
0.396483
0
LINE
8
BLACK
6
CONTINUOUS
10
3.89314
20
0.396483
11
3.89557
21
0.396483
0
LINE
8
BLACK
6
CONTINUOUS
10
3.89557
20
0.396483
11
3.89754
21
0.395053
0
LINE
8
BLACK
6
CONTINUOUS
10
3.89754
20
0.395053
11
3.89829
21
0.392739
0
LINE
8
BLACK
6
CONTINUOUS
10
3.89829
20
0.392739
11
3.89829
21
0.361056
0
LINE
8
BLACK
6
CONTINUOUS
10
3.89829
20
0.361056
11
3.89801
21
0.360179
0
LINE
8
BLACK
6
CONTINUOUS
10
3.89801
20
0.360179
11
3.89786
21
0.359268
0
LINE
8
BLACK
6
CONTINUOUS
10
3.89786
20
0.359268
11
3.89764
21
0.359044
0
LINE
8
BLACK
6
CONTINUOUS
10
3.89764
20
0.359044
11
3.89754
21
0.358741
0
LINE
8
BLACK
6
CONTINUOUS
10
3.89754
20
0.358741
11
3.89679
21
0.358199
0
LINE
8
BLACK
6
CONTINUOUS
10
3.89679
20
0.358199
11
3.89614
21
0.357548
0
LINE
8
BLACK
6
CONTINUOUS
10
3.89614
20
0.357548
11
3.89583
21
0.357498
0
LINE
8
BLACK
6
CONTINUOUS
10
3.89583
20
0.357498
11
3.89557
21
0.357311
0
LINE
8
BLACK
6
CONTINUOUS
10
3.89557
20
0.357311
11
3.89465
21
0.357311
0
LINE
8
BLACK
6
CONTINUOUS
10
3.89465
20
0.357311
11
3.89374
21
0.357167
0
LINE
8
BLACK
6
CONTINUOUS
10
3.89374
20
0.357167
11
3.89346
21
0.357311
0
LINE
8
BLACK
6
CONTINUOUS
10
3.89346
20
0.357311
11
3.89314
21
0.357311
0
LINE
8
BLACK
6
CONTINUOUS
10
3.89314
20
0.357311
11
3.89239
21
0.357853
0
LINE
8
BLACK
6
CONTINUOUS
10
3.89239
20
0.357853
11
3.89157
21
0.358272
0
LINE
8
BLACK
6
CONTINUOUS
10
3.89157
20
0.358272
11
3.86298
21
0.386861
0
LINE
8
BLACK
6
CONTINUOUS
10
3.86298
20
0.386861
11
3.85716
21
0.388802
0
LINE
8
BLACK
6
CONTINUOUS
10
3.85716
20
0.388802
11
3.85385
21
0.388802
0
LINE
8
BLACK
6
CONTINUOUS
10
3.85385
20
0.388802
11
3.85038
21
0.387066
0
LINE
8
BLACK
6
CONTINUOUS
10
3.85038
20
0.387066
11
3.84885
21
0.385533
0
LINE
8
BLACK
6
CONTINUOUS
10
3.84885
20
0.385533
11
3.84711
21
0.382061
0
LINE
8
BLACK
6
CONTINUOUS
10
3.84711
20
0.382061
11
3.84711
21
0.371734
0
LINE
8
BLACK
6
CONTINUOUS
10
3.84711
20
0.371734
11
3.84885
21
0.368262
0
LINE
8
BLACK
6
CONTINUOUS
10
3.84885
20
0.368262
11
3.85083
21
0.366277
0
LINE
8
BLACK
6
CONTINUOUS
10
3.85083
20
0.366277
11
3.85194
21
0.364109
0
LINE
8
BLACK
6
CONTINUOUS
10
3.85194
20
0.364109
11
3.85156
21
0.361705
0
LINE
8
BLACK
6
CONTINUOUS
10
3.85156
20
0.361705
11
3.84983
21
0.359985
0
LINE
8
BLACK
6
CONTINUOUS
10
3.84983
20
0.359985
11
3.84743
21
0.359604
0
LINE
8
BLACK
6
CONTINUOUS
10
3.84743
20
0.359604
11
3.84526
21
0.360709
0
LINE
8
BLACK
6
CONTINUOUS
10
3.84526
20
0.360709
11
3.84283
21
0.363146
0
LINE
8
BLACK
6
CONTINUOUS
10
3.84283
20
0.363146
11
3.84254
21
0.363715
0
LINE
8
BLACK
6
CONTINUOUS
10
3.84254
20
0.363715
11
3.84209
21
0.364169
0
LINE
8
BLACK
6
CONTINUOUS
10
3.84209
20
0.364169
11
3.83965
21
0.369044
0
LINE
8
BLACK
6
CONTINUOUS
10
3.83965
20
0.369044
11
3.83952
21
0.369941
0
LINE
8
BLACK
6
CONTINUOUS
10
3.83952
20
0.369941
11
3.83924
21
0.370804
0
LINE
8
BLACK
6
CONTINUOUS
10
3.83924
20
0.370804
11
3.83924
21
0.38299
0
LINE
8
BLACK
6
CONTINUOUS
10
3.83924
20
0.38299
11
3.83952
21
0.383853
0
LINE
8
BLACK
6
CONTINUOUS
10
3.83952
20
0.383853
11
3.83965
21
0.384751
0
LINE
8
BLACK
6
CONTINUOUS
10
3.83965
20
0.384751
11
3.84209
21
0.389625
0
LINE
8
BLACK
6
CONTINUOUS
10
3.84209
20
0.389625
11
3.84254
21
0.39008
0
LINE
8
BLACK
6
CONTINUOUS
10
3.84254
20
0.39008
11
3.84283
21
0.390649
0
LINE
8
BLACK
6
CONTINUOUS
10
3.84283
20
0.390649
11
3.84526
21
0.393086
0
LINE
8
BLACK
6
CONTINUOUS
10
3.84526
20
0.393086
11
3.84583
21
0.393375
0
LINE
8
BLACK
6
CONTINUOUS
10
3.84583
20
0.393375
11
3.84629
21
0.393823
0
LINE
8
BLACK
6
CONTINUOUS
10
3.84629
20
0.393823
11
3.85116
21
0.39626
0
LINE
8
BLACK
6
CONTINUOUS
10
3.85116
20
0.39626
11
3.85206
21
0.396396
0
LINE
8
BLACK
6
CONTINUOUS
10
3.85206
20
0.396396
11
3.85292
21
0.396676
0
LINE
8
BLACK
6
CONTINUOUS
10
3.85292
20
0.396676
11
3.8578
21
0.396676
0
LINE
8
BLACK
6
CONTINUOUS
10
3.8578
20
0.396676
11
3.8584
21
0.396479
0
LINE
8
BLACK
6
CONTINUOUS
10
3.79536
20
0.419678
11
3.79585
21
0.419712
0
LINE
8
BLACK
6
CONTINUOUS
10
3.79585
20
0.419712
11
3.8056
21
0.417275
0
LINE
8
BLACK
6
CONTINUOUS
10
3.8056
20
0.417275
11
3.80649
21
0.416717
0
LINE
8
BLACK
6
CONTINUOUS
10
3.80649
20
0.416717
11
3.80742
21
0.416239
0
LINE
8
BLACK
6
CONTINUOUS
10
3.80742
20
0.416239
11
3.8123
21
0.411365
0
LINE
8
BLACK
6
CONTINUOUS
10
3.8123
20
0.411365
11
3.81259
21
0.410796
0
LINE
8
BLACK
6
CONTINUOUS
10
3.81259
20
0.410796
11
3.81304
21
0.410341
0
LINE
8
BLACK
6
CONTINUOUS
10
3.81304
20
0.410341
11
3.81547
21
0.405467
0
LINE
8
BLACK
6
CONTINUOUS
10
3.81547
20
0.405467
11
3.81561
21
0.40457
0
LINE
8
BLACK
6
CONTINUOUS
10
3.81561
20
0.40457
11
3.81589
21
0.403706
0
LINE
8
BLACK
6
CONTINUOUS
10
3.81589
20
0.403706
11
3.81589
21
0.393958
0
LINE
8
BLACK
6
CONTINUOUS
10
3.81589
20
0.393958
11
3.81561
21
0.393095
0
LINE
8
BLACK
6
CONTINUOUS
10
3.81561
20
0.393095
11
3.81547
21
0.392197
0
LINE
8
BLACK
6
CONTINUOUS
10
3.81547
20
0.392197
11
3.81304
21
0.387323
0
LINE
8
BLACK
6
CONTINUOUS
10
3.81304
20
0.387323
11
3.81259
21
0.386868
0
LINE
8
BLACK
6
CONTINUOUS
10
3.81259
20
0.386868
11
3.8123
21
0.386299
0
LINE
8
BLACK
6
CONTINUOUS
10
3.8123
20
0.386299
11
3.80742
21
0.381425
0
LINE
8
BLACK
6
CONTINUOUS
10
3.80742
20
0.381425
11
3.80649
21
0.380947
0
LINE
8
BLACK
6
CONTINUOUS
10
3.80649
20
0.380947
11
3.8056
21
0.380389
0
LINE
8
BLACK
6
CONTINUOUS
10
3.8056
20
0.380389
11
3.79585
21
0.377952
0
LINE
8
BLACK
6
CONTINUOUS
10
3.79585
20
0.377952
11
3.79536
21
0.377986
0
LINE
8
BLACK
6
CONTINUOUS
10
3.79536
20
0.377986
11
3.79489
21
0.377835
0
LINE
8
BLACK
6
CONTINUOUS
10
3.79489
20
0.377835
11
3.77783
21
0.377835
0
LINE
8
BLACK
6
CONTINUOUS
10
3.77783
20
0.377835
11
3.77737
21
0.377986
0
LINE
8
BLACK
6
CONTINUOUS
10
3.77737
20
0.377986
11
3.77688
21
0.377952
0
LINE
8
BLACK
6
CONTINUOUS
10
3.77688
20
0.377952
11
3.76713
21
0.380389
0
LINE
8
BLACK
6
CONTINUOUS
10
3.76713
20
0.380389
11
3.76624
21
0.380947
0
LINE
8
BLACK
6
CONTINUOUS
10
3.76624
20
0.380947
11
3.7653
21
0.381425
0
LINE
8
BLACK
6
CONTINUOUS
10
3.7653
20
0.381425
11
3.76042
21
0.386299
0
LINE
8
BLACK
6
CONTINUOUS
10
3.76042
20
0.386299
11
3.76014
21
0.386868
0
LINE
8
BLACK
6
CONTINUOUS
10
3.76014
20
0.386868
11
3.75969
21
0.387323
0
LINE
8
BLACK
6
CONTINUOUS
10
3.75969
20
0.387323
11
3.75725
21
0.392197
0
LINE
8
BLACK
6
CONTINUOUS
10
3.75725
20
0.392197
11
3.75711
21
0.393095
0
LINE
8
BLACK
6
CONTINUOUS
10
3.75711
20
0.393095
11
3.75683
21
0.393958
0
LINE
8
BLACK
6
CONTINUOUS
10
3.75683
20
0.393958
11
3.75683
21
0.403706
0
LINE
8
BLACK
6
CONTINUOUS
10
3.75683
20
0.403706
11
3.75711
21
0.40457
0
LINE
8
BLACK
6
CONTINUOUS
10
3.75711
20
0.40457
11
3.75725
21
0.405467
0
LINE
8
BLACK
6
CONTINUOUS
10
3.75725
20
0.405467
11
3.75969
21
0.410342
0
LINE
8
BLACK
6
CONTINUOUS
10
3.75969
20
0.410342
11
3.76014
21
0.410796
0
LINE
8
BLACK
6
CONTINUOUS
10
3.76014
20
0.410796
11
3.76042
21
0.411365
0
LINE
8
BLACK
6
CONTINUOUS
10
3.76042
20
0.411365
11
3.7653
21
0.416239
0
LINE
8
BLACK
6
CONTINUOUS
10
3.7653
20
0.416239
11
3.76624
21
0.416717
0
LINE
8
BLACK
6
CONTINUOUS
10
3.76624
20
0.416717
11
3.76713
21
0.417275
0
LINE
8
BLACK
6
CONTINUOUS
10
3.76713
20
0.417275
11
3.77688
21
0.419712
0
LINE
8
BLACK
6
CONTINUOUS
10
3.77688
20
0.419712
11
3.77737
21
0.419678
0
LINE
8
BLACK
6
CONTINUOUS
10
3.77737
20
0.419678
11
3.77783
21
0.419829
0
LINE
8
BLACK
6
CONTINUOUS
10
3.77783
20
0.419829
11
3.79489
21
0.419829
0
LINE
8
BLACK
6
CONTINUOUS
10
3.79489
20
0.419829
11
3.79536
21
0.419678
0
LINE
8
BLACK
6
CONTINUOUS
10
3.77832
20
0.411955
11
3.7701
21
0.4099
0
LINE
8
BLACK
6
CONTINUOUS
10
3.7701
20
0.4099
11
3.76644
21
0.406249
0
LINE
8
BLACK
6
CONTINUOUS
10
3.76644
20
0.406249
11
3.76471
21
0.402777
0
LINE
8
BLACK
6
CONTINUOUS
10
3.76471
20
0.402777
11
3.76471
21
0.394887
0
LINE
8
BLACK
6
CONTINUOUS
10
3.76471
20
0.394887
11
3.76644
21
0.391415
0
LINE
8
BLACK
6
CONTINUOUS
10
3.76644
20
0.391415
11
3.7701
21
0.387764
0
LINE
8
BLACK
6
CONTINUOUS
10
3.7701
20
0.387764
11
3.77832
21
0.385709
0
LINE
8
BLACK
6
CONTINUOUS
10
3.77832
20
0.385709
11
3.79441
21
0.385709
0
LINE
8
BLACK
6
CONTINUOUS
10
3.79441
20
0.385709
11
3.80263
21
0.387764
0
LINE
8
BLACK
6
CONTINUOUS
10
3.80263
20
0.387764
11
3.80628
21
0.391415
0
LINE
8
BLACK
6
CONTINUOUS
10
3.80628
20
0.391415
11
3.80802
21
0.394887
0
LINE
8
BLACK
6
CONTINUOUS
10
3.80802
20
0.394887
11
3.80802
21
0.402777
0
LINE
8
BLACK
6
CONTINUOUS
10
3.80802
20
0.402777
11
3.80628
21
0.406249
0
LINE
8
BLACK
6
CONTINUOUS
10
3.80628
20
0.406249
11
3.80263
21
0.4099
0
LINE
8
BLACK
6
CONTINUOUS
10
3.80263
20
0.4099
11
3.79441
21
0.411955
0
LINE
8
BLACK
6
CONTINUOUS
10
3.79441
20
0.411955
11
3.77832
21
0.411955
0
LINE
8
BLACK
6
CONTINUOUS
10
3.53501
20
0.665377
11
3.53576
21
0.663063
0
LINE
8
BLACK
6
CONTINUOUS
10
3.53576
20
0.663063
11
3.53576
21
0.637004
0
LINE
8
BLACK
6
CONTINUOUS
10
3.53576
20
0.637004
11
3.56182
21
0.637004
0
LINE
8
BLACK
6
CONTINUOUS
10
3.56182
20
0.637004
11
3.56414
21
0.636252
0
LINE
8
BLACK
6
CONTINUOUS
10
3.56414
20
0.636252
11
3.56557
21
0.634284
0
LINE
8
BLACK
6
CONTINUOUS
10
3.56557
20
0.634284
11
3.56557
21
0.63185
0
LINE
8
BLACK
6
CONTINUOUS
10
3.56557
20
0.63185
11
3.56414
21
0.629882
0
LINE
8
BLACK
6
CONTINUOUS
10
3.56414
20
0.629882
11
3.56182
21
0.62913
0
LINE
8
BLACK
6
CONTINUOUS
10
3.56182
20
0.62913
11
3.53576
21
0.62913
0
LINE
8
BLACK
6
CONTINUOUS
10
3.53576
20
0.62913
11
3.53576
21
0.603071
0
LINE
8
BLACK
6
CONTINUOUS
10
3.53576
20
0.603071
11
3.53501
21
0.600757
0
LINE
8
BLACK
6
CONTINUOUS
10
3.53501
20
0.600757
11
3.53304
21
0.599326
0
LINE
8
BLACK
6
CONTINUOUS
10
3.53304
20
0.599326
11
3.53061
21
0.599326
0
LINE
8
BLACK
6
CONTINUOUS
10
3.53061
20
0.599326
11
3.52864
21
0.600757
0
LINE
8
BLACK
6
CONTINUOUS
10
3.52864
20
0.600757
11
3.52789
21
0.603071
0
LINE
8
BLACK
6
CONTINUOUS
10
3.52789
20
0.603071
11
3.52789
21
0.62913
0
LINE
8
BLACK
6
CONTINUOUS
10
3.52789
20
0.62913
11
3.50183
21
0.62913
0
LINE
8
BLACK
6
CONTINUOUS
10
3.50183
20
0.62913
11
3.49952
21
0.629882
0
LINE
8
BLACK
6
CONTINUOUS
10
3.49952
20
0.629882
11
3.49809
21
0.63185
0
LINE
8
BLACK
6
CONTINUOUS
10
3.49809
20
0.63185
11
3.49809
21
0.634284
0
LINE
8
BLACK
6
CONTINUOUS
10
3.49809
20
0.634284
11
3.49952
21
0.636252
0
LINE
8
BLACK
6
CONTINUOUS
10
3.49952
20
0.636252
11
3.50183
21
0.637004
0
LINE
8
BLACK
6
CONTINUOUS
10
3.50183
20
0.637004
11
3.52789
21
0.637004
0
LINE
8
BLACK
6
CONTINUOUS
10
3.52789
20
0.637004
11
3.52789
21
0.663063
0
LINE
8
BLACK
6
CONTINUOUS
10
3.52789
20
0.663063
11
3.52864
21
0.665377
0
LINE
8
BLACK
6
CONTINUOUS
10
3.52864
20
0.665377
11
3.53061
21
0.666808
0
LINE
8
BLACK
6
CONTINUOUS
10
3.53061
20
0.666808
11
3.53304
21
0.666808
0
LINE
8
BLACK
6
CONTINUOUS
10
3.53304
20
0.666808
11
3.53501
21
0.665377
0
LINE
8
BLACK
6
CONTINUOUS
10
2.77517
20
0.665377
11
2.77592
21
0.663063
0
LINE
8
BLACK
6
CONTINUOUS
10
2.77592
20
0.663063
11
2.77592
21
0.637004
0
LINE
8
BLACK
6
CONTINUOUS
10
2.77592
20
0.637004
11
2.80198
21
0.637004
0
LINE
8
BLACK
6
CONTINUOUS
10
2.80198
20
0.637004
11
2.8043
21
0.636252
0
LINE
8
BLACK
6
CONTINUOUS
10
2.8043
20
0.636252
11
2.80573
21
0.634284
0
LINE
8
BLACK
6
CONTINUOUS
10
2.80573
20
0.634284
11
2.80573
21
0.63185
0
LINE
8
BLACK
6
CONTINUOUS
10
2.80573
20
0.63185
11
2.8043
21
0.629882
0
LINE
8
BLACK
6
CONTINUOUS
10
2.8043
20
0.629882
11
2.80198
21
0.62913
0
LINE
8
BLACK
6
CONTINUOUS
10
2.80198
20
0.62913
11
2.77592
21
0.62913
0
LINE
8
BLACK
6
CONTINUOUS
10
2.77592
20
0.62913
11
2.77592
21
0.603071
0
LINE
8
BLACK
6
CONTINUOUS
10
2.77592
20
0.603071
11
2.77517
21
0.600757
0
LINE
8
BLACK
6
CONTINUOUS
10
2.77517
20
0.600757
11
2.7732
21
0.599326
0
LINE
8
BLACK
6
CONTINUOUS
10
2.7732
20
0.599326
11
2.77077
21
0.599326
0
LINE
8
BLACK
6
CONTINUOUS
10
2.77077
20
0.599326
11
2.7688
21
0.600757
0
LINE
8
BLACK
6
CONTINUOUS
10
2.7688
20
0.600757
11
2.76805
21
0.603071
0
LINE
8
BLACK
6
CONTINUOUS
10
2.76805
20
0.603071
11
2.76805
21
0.62913
0
LINE
8
BLACK
6
CONTINUOUS
10
2.76805
20
0.62913
11
2.74199
21
0.62913
0
LINE
8
BLACK
6
CONTINUOUS
10
2.74199
20
0.62913
11
2.73967
21
0.629882
0
LINE
8
BLACK
6
CONTINUOUS
10
2.73967
20
0.629882
11
2.73824
21
0.63185
0
LINE
8
BLACK
6
CONTINUOUS
10
2.73824
20
0.63185
11
2.73824
21
0.634284
0
LINE
8
BLACK
6
CONTINUOUS
10
2.73824
20
0.634284
11
2.73967
21
0.636252
0
LINE
8
BLACK
6
CONTINUOUS
10
2.73967
20
0.636252
11
2.74199
21
0.637004
0
LINE
8
BLACK
6
CONTINUOUS
10
2.74199
20
0.637004
11
2.76805
21
0.637004
0
LINE
8
BLACK
6
CONTINUOUS
10
2.76805
20
0.637004
11
2.76805
21
0.663063
0
LINE
8
BLACK
6
CONTINUOUS
10
2.76805
20
0.663063
11
2.7688
21
0.665377
0
LINE
8
BLACK
6
CONTINUOUS
10
2.7688
20
0.665377
11
2.77077
21
0.666808
0
LINE
8
BLACK
6
CONTINUOUS
10
2.77077
20
0.666808
11
2.7732
21
0.666808
0
LINE
8
BLACK
6
CONTINUOUS
10
2.7732
20
0.666808
11
2.77517
21
0.665377
0
LINE
8
BLACK
6
CONTINUOUS
10
3.00132
20
1.53121
11
3.00146
21
1.5311
0
LINE
8
BLACK
6
CONTINUOUS
10
3.00146
20
1.5311
11
3.00163
21
1.53108
0
LINE
8
BLACK
6
CONTINUOUS
10
3.00163
20
1.53108
11
3.00538
21
1.52921
0
LINE
8
BLACK
6
CONTINUOUS
10
3.00538
20
1.52921
11
3.00609
21
1.52868
0
LINE
8
BLACK
6
CONTINUOUS
10
3.00609
20
1.52868
11
3.00615
21
1.52865
0
LINE
8
BLACK
6
CONTINUOUS
10
3.00615
20
1.52865
11
3.00802
21
1.52678
0
LINE
8
BLACK
6
CONTINUOUS
10
3.00802
20
1.52678
11
3.00853
21
1.52606
0
LINE
8
BLACK
6
CONTINUOUS
10
3.00853
20
1.52606
11
3.00858
21
1.52601
0
LINE
8
BLACK
6
CONTINUOUS
10
3.00858
20
1.52601
11
3.01045
21
1.52226
0
LINE
8
BLACK
6
CONTINUOUS
10
3.01045
20
1.52226
11
3.01074
21
1.52128
0
LINE
8
BLACK
6
CONTINUOUS
10
3.01074
20
1.52128
11
3.0107
21
1.52111
0
LINE
8
BLACK
6
CONTINUOUS
10
3.0107
20
1.52111
11
3.01076
21
1.52094
0
LINE
8
BLACK
6
CONTINUOUS
10
3.01076
20
1.52094
11
3.01076
21
1.50594
0
LINE
8
BLACK
6
CONTINUOUS
10
3.01076
20
1.50594
11
3.0107
21
1.50556
0
LINE
8
BLACK
6
CONTINUOUS
10
3.0107
20
1.50556
11
3.01072
21
1.50543
0
LINE
8
BLACK
6
CONTINUOUS
10
3.01072
20
1.50543
11
3.01065
21
1.50532
0
LINE
8
BLACK
6
CONTINUOUS
10
3.01065
20
1.50532
11
3.01058
21
1.50493
0
LINE
8
BLACK
6
CONTINUOUS
10
3.01058
20
1.50493
11
3.01009
21
1.50435
0
LINE
8
BLACK
6
CONTINUOUS
10
3.01009
20
1.50435
11
3.00971
21
1.50368
0
LINE
8
BLACK
6
CONTINUOUS
10
3.00971
20
1.50368
11
3.00946
21
1.50359
0
LINE
8
BLACK
6
CONTINUOUS
10
3.00946
20
1.50359
11
3.00929
21
1.50339
0
LINE
8
BLACK
6
CONTINUOUS
10
3.00929
20
1.50339
11
3.00853
21
1.50325
0
LINE
8
BLACK
6
CONTINUOUS
10
3.00853
20
1.50325
11
3.00781
21
1.50299
0
LINE
8
BLACK
6
CONTINUOUS
10
3.00781
20
1.50299
11
2.96844
21
1.50299
0
LINE
8
BLACK
6
CONTINUOUS
10
2.96844
20
1.50299
11
2.96806
21
1.50306
0
LINE
8
BLACK
6
CONTINUOUS
10
2.96806
20
1.50306
11
2.96793
21
1.50304
0
LINE
8
BLACK
6
CONTINUOUS
10
2.96793
20
1.50304
11
2.96781
21
1.5031
0
LINE
8
BLACK
6
CONTINUOUS
10
2.96781
20
1.5031
11
2.96743
21
1.50317
0
LINE
8
BLACK
6
CONTINUOUS
10
2.96743
20
1.50317
11
2.96684
21
1.50366
0
LINE
8
BLACK
6
CONTINUOUS
10
2.96684
20
1.50366
11
2.96618
21
1.50405
0
LINE
8
BLACK
6
CONTINUOUS
10
2.96618
20
1.50405
11
2.96609
21
1.5043
0
LINE
8
BLACK
6
CONTINUOUS
10
2.96609
20
1.5043
11
2.96588
21
1.50447
0
LINE
8
BLACK
6
CONTINUOUS
10
2.96588
20
1.50447
11
2.96575
21
1.50522
0
LINE
8
BLACK
6
CONTINUOUS
10
2.96575
20
1.50522
11
2.96549
21
1.50594
0
LINE
8
BLACK
6
CONTINUOUS
10
2.96549
20
1.50594
11
2.96549
21
1.51907
0
LINE
8
BLACK
6
CONTINUOUS
10
2.96549
20
1.51907
11
2.96567
21
1.52008
0
LINE
8
BLACK
6
CONTINUOUS
10
2.96567
20
1.52008
11
2.96578
21
1.52021
0
LINE
8
BLACK
6
CONTINUOUS
10
2.96578
20
1.52021
11
2.9658
21
1.52039
0
LINE
8
BLACK
6
CONTINUOUS
10
2.9658
20
1.52039
11
2.96767
21
1.52414
0
LINE
8
BLACK
6
CONTINUOUS
10
2.96767
20
1.52414
11
2.9682
21
1.52485
0
LINE
8
BLACK
6
CONTINUOUS
10
2.9682
20
1.52485
11
2.96823
21
1.5249
0
LINE
8
BLACK
6
CONTINUOUS
10
2.96823
20
1.5249
11
2.9701
21
1.52678
0
LINE
8
BLACK
6
CONTINUOUS
10
2.9701
20
1.52678
11
2.97082
21
1.52728
0
LINE
8
BLACK
6
CONTINUOUS
10
2.97082
20
1.52728
11
2.97087
21
1.52733
0
LINE
8
BLACK
6
CONTINUOUS
10
2.97087
20
1.52733
11
2.97462
21
1.52921
0
LINE
8
BLACK
6
CONTINUOUS
10
2.97462
20
1.52921
11
2.9756
21
1.5295
0
LINE
8
BLACK
6
CONTINUOUS
10
2.9756
20
1.5295
11
2.97577
21
1.52946
0
LINE
8
BLACK
6
CONTINUOUS
10
2.97577
20
1.52946
11
2.97594
21
1.52952
0
LINE
8
BLACK
6
CONTINUOUS
10
2.97594
20
1.52952
11
2.97969
21
1.52952
0
LINE
8
BLACK
6
CONTINUOUS
10
2.97969
20
1.52952
11
2.9807
21
1.52934
0
LINE
8
BLACK
6
CONTINUOUS
10
2.9807
20
1.52934
11
2.98083
21
1.52923
0
LINE
8
BLACK
6
CONTINUOUS
10
2.98083
20
1.52923
11
2.98101
21
1.52921
0
LINE
8
BLACK
6
CONTINUOUS
10
2.98101
20
1.52921
11
2.98476
21
1.52733
0
LINE
8
BLACK
6
CONTINUOUS
10
2.98476
20
1.52733
11
2.98547
21
1.52681
0
LINE
8
BLACK
6
CONTINUOUS
10
2.98547
20
1.52681
11
2.98553
21
1.52678
0
LINE
8
BLACK
6
CONTINUOUS
10
2.98553
20
1.52678
11
2.98641
21
1.5259
0
LINE
8
BLACK
6
CONTINUOUS
10
2.98641
20
1.5259
11
2.98675
21
1.52653
0
LINE
8
BLACK
6
CONTINUOUS
10
2.98675
20
1.52653
11
2.9869
21
1.52662
0
LINE
8
BLACK
6
CONTINUOUS
10
2.9869
20
1.52662
11
2.98697
21
1.52678
0
LINE
8
BLACK
6
CONTINUOUS
10
2.98697
20
1.52678
11
2.98885
21
1.52865
0
LINE
8
BLACK
6
CONTINUOUS
10
2.98885
20
1.52865
11
2.98957
21
1.52916
0
LINE
8
BLACK
6
CONTINUOUS
10
2.98957
20
1.52916
11
2.98962
21
1.52921
0
LINE
8
BLACK
6
CONTINUOUS
10
2.98962
20
1.52921
11
2.99337
21
1.53108
0
LINE
8
BLACK
6
CONTINUOUS
10
2.99337
20
1.53108
11
2.99435
21
1.53137
0
LINE
8
BLACK
6
CONTINUOUS
10
2.99435
20
1.53137
11
2.99452
21
1.53133
0
LINE
8
BLACK
6
CONTINUOUS
10
2.99452
20
1.53133
11
2.99469
21
1.53139
0
LINE
8
BLACK
6
CONTINUOUS
10
2.99469
20
1.53139
11
3.00031
21
1.53139
0
LINE
8
BLACK
6
CONTINUOUS
10
3.00031
20
1.53139
11
3.00132
21
1.53121
0
LINE
8
BLACK
6
CONTINUOUS
10
2.97664
20
1.52361
11
2.97394
21
1.52226
0
LINE
8
BLACK
6
CONTINUOUS
10
2.97394
20
1.52226
11
2.97274
21
1.52107
0
LINE
8
BLACK
6
CONTINUOUS
10
2.97274
20
1.52107
11
2.97139
21
1.51837
0
LINE
8
BLACK
6
CONTINUOUS
10
2.97139
20
1.51837
11
2.97139
21
1.5089
0
LINE
8
BLACK
6
CONTINUOUS
10
2.97139
20
1.5089
11
2.98424
21
1.5089
0
LINE
8
BLACK
6
CONTINUOUS
10
2.98424
20
1.5089
11
2.98424
21
1.51837
0
LINE
8
BLACK
6
CONTINUOUS
10
2.98424
20
1.51837
11
2.98289
21
1.52107
0
LINE
8
BLACK
6
CONTINUOUS
10
2.98289
20
1.52107
11
2.98169
21
1.52226
0
LINE
8
BLACK
6
CONTINUOUS
10
2.98169
20
1.52226
11
2.97899
21
1.52361
0
LINE
8
BLACK
6
CONTINUOUS
10
2.97899
20
1.52361
11
2.97664
21
1.52361
0
LINE
8
BLACK
6
CONTINUOUS
10
2.99538
20
1.52549
11
2.99269
21
1.52414
0
LINE
8
BLACK
6
CONTINUOUS
10
2.99269
20
1.52414
11
2.99164
21
1.5231
0
LINE
8
BLACK
6
CONTINUOUS
10
2.99164
20
1.5231
11
2.99014
21
1.51859
0
LINE
8
BLACK
6
CONTINUOUS
10
2.99014
20
1.51859
11
2.99014
21
1.5089
0
LINE
8
BLACK
6
CONTINUOUS
10
2.99014
20
1.5089
11
3.00486
21
1.5089
0
LINE
8
BLACK
6
CONTINUOUS
10
3.00486
20
1.5089
11
3.00486
21
1.52024
0
LINE
8
BLACK
6
CONTINUOUS
10
3.00486
20
1.52024
11
3.00351
21
1.52294
0
LINE
8
BLACK
6
CONTINUOUS
10
3.00351
20
1.52294
11
3.00231
21
1.52414
0
LINE
8
BLACK
6
CONTINUOUS
10
3.00231
20
1.52414
11
2.99961
21
1.52549
0
LINE
8
BLACK
6
CONTINUOUS
10
2.99961
20
1.52549
11
2.99538
21
1.52549
0
LINE
8
BLACK
6
CONTINUOUS
10
2.9707
20
1.56408
11
2.97139
21
1.56219
0
LINE
8
BLACK
6
CONTINUOUS
10
2.97139
20
1.56219
11
2.97139
21
1.55389
0
LINE
8
BLACK
6
CONTINUOUS
10
2.97139
20
1.55389
11
3.00781
21
1.55389
0
LINE
8
BLACK
6
CONTINUOUS
10
3.00781
20
1.55389
11
3.00882
21
1.55371
0
LINE
8
BLACK
6
CONTINUOUS
10
3.00882
20
1.55371
11
3.01037
21
1.55241
0
LINE
8
BLACK
6
CONTINUOUS
10
3.01037
20
1.55241
11
3.01072
21
1.55042
0
LINE
8
BLACK
6
CONTINUOUS
10
3.01072
20
1.55042
11
3.00971
21
1.54868
0
LINE
8
BLACK
6
CONTINUOUS
10
3.00971
20
1.54868
11
3.00781
21
1.54798
0
LINE
8
BLACK
6
CONTINUOUS
10
3.00781
20
1.54798
11
2.97139
21
1.54798
0
LINE
8
BLACK
6
CONTINUOUS
10
2.97139
20
1.54798
11
2.97139
21
1.53969
0
LINE
8
BLACK
6
CONTINUOUS
10
2.97139
20
1.53969
11
2.97121
21
1.53868
0
LINE
8
BLACK
6
CONTINUOUS
10
2.97121
20
1.53868
11
2.96992
21
1.53713
0
LINE
8
BLACK
6
CONTINUOUS
10
2.96992
20
1.53713
11
2.96793
21
1.53678
0
LINE
8
BLACK
6
CONTINUOUS
10
2.96793
20
1.53678
11
2.96618
21
1.53779
0
LINE
8
BLACK
6
CONTINUOUS
10
2.96618
20
1.53779
11
2.96549
21
1.53969
0
LINE
8
BLACK
6
CONTINUOUS
10
2.96549
20
1.53969
11
2.96549
21
1.56219
0
LINE
8
BLACK
6
CONTINUOUS
10
2.96549
20
1.56219
11
2.96567
21
1.5632
0
LINE
8
BLACK
6
CONTINUOUS
10
2.96567
20
1.5632
11
2.96696
21
1.56474
0
LINE
8
BLACK
6
CONTINUOUS
10
2.96696
20
1.56474
11
2.96895
21
1.56509
0
LINE
8
BLACK
6
CONTINUOUS
10
2.96895
20
1.56509
11
2.9707
21
1.56408
0
LINE
8
BLACK
6
CONTINUOUS
10
3.01007
20
1.59783
11
3.01076
21
1.59593
0
LINE
8
BLACK
6
CONTINUOUS
10
3.01076
20
1.59593
11
3.01076
21
1.57343
0
LINE
8
BLACK
6
CONTINUOUS
10
3.01076
20
1.57343
11
3.01058
21
1.57242
0
LINE
8
BLACK
6
CONTINUOUS
10
3.01058
20
1.57242
11
3.00929
21
1.57088
0
LINE
8
BLACK
6
CONTINUOUS
10
3.00929
20
1.57088
11
3.0073
21
1.57053
0
LINE
8
BLACK
6
CONTINUOUS
10
3.0073
20
1.57053
11
3.00555
21
1.57154
0
LINE
8
BLACK
6
CONTINUOUS
10
3.00555
20
1.57154
11
3.00486
21
1.57343
0
LINE
8
BLACK
6
CONTINUOUS
10
3.00486
20
1.57343
11
3.00486
21
1.58173
0
LINE
8
BLACK
6
CONTINUOUS
10
3.00486
20
1.58173
11
2.97744
21
1.58173
0
LINE
8
BLACK
6
CONTINUOUS
10
2.97744
20
1.58173
11
2.9799
21
1.57927
0
LINE
8
BLACK
6
CONTINUOUS
10
2.9799
20
1.57927
11
2.98041
21
1.57855
0
LINE
8
BLACK
6
CONTINUOUS
10
2.98041
20
1.57855
11
2.98046
21
1.5785
0
LINE
8
BLACK
6
CONTINUOUS
10
2.98046
20
1.5785
11
2.98233
21
1.57476
0
LINE
8
BLACK
6
CONTINUOUS
10
2.98233
20
1.57476
11
2.98262
21
1.57377
0
LINE
8
BLACK
6
CONTINUOUS
10
2.98262
20
1.57377
11
2.98215
21
1.57181
0
LINE
8
BLACK
6
CONTINUOUS
10
2.98215
20
1.57181
11
2.98053
21
1.5706
0
LINE
8
BLACK
6
CONTINUOUS
10
2.98053
20
1.5706
11
2.97851
21
1.57073
0
LINE
8
BLACK
6
CONTINUOUS
10
2.97851
20
1.57073
11
2.97705
21
1.57211
0
LINE
8
BLACK
6
CONTINUOUS
10
2.97705
20
1.57211
11
2.97539
21
1.57544
0
LINE
8
BLACK
6
CONTINUOUS
10
2.97539
20
1.57544
11
2.97218
21
1.57864
0
LINE
8
BLACK
6
CONTINUOUS
10
2.97218
20
1.57864
11
2.9668
21
1.58223
0
LINE
8
BLACK
6
CONTINUOUS
10
2.9668
20
1.58223
11
2.96606
21
1.58293
0
LINE
8
BLACK
6
CONTINUOUS
10
2.96606
20
1.58293
11
2.96601
21
1.5831
0
LINE
8
BLACK
6
CONTINUOUS
10
2.96601
20
1.5831
11
2.96588
21
1.58321
0
LINE
8
BLACK
6
CONTINUOUS
10
2.96588
20
1.58321
11
2.96573
21
1.58405
0
LINE
8
BLACK
6
CONTINUOUS
10
2.96573
20
1.58405
11
2.96549
21
1.58487
0
LINE
8
BLACK
6
CONTINUOUS
10
2.96549
20
1.58487
11
2.96556
21
1.58503
0
LINE
8
BLACK
6
CONTINUOUS
10
2.96556
20
1.58503
11
2.96553
21
1.5852
0
LINE
8
BLACK
6
CONTINUOUS
10
2.96553
20
1.5852
11
2.96596
21
1.58594
0
LINE
8
BLACK
6
CONTINUOUS
10
2.96596
20
1.58594
11
2.96631
21
1.58672
0
LINE
8
BLACK
6
CONTINUOUS
10
2.96631
20
1.58672
11
2.96646
21
1.5868
0
LINE
8
BLACK
6
CONTINUOUS
10
2.96646
20
1.5868
11
2.96654
21
1.58695
0
LINE
8
BLACK
6
CONTINUOUS
10
2.96654
20
1.58695
11
2.96735
21
1.58724
0
LINE
8
BLACK
6
CONTINUOUS
10
2.96735
20
1.58724
11
2.96812
21
1.58762
0
LINE
8
BLACK
6
CONTINUOUS
10
2.96812
20
1.58762
11
2.96828
21
1.58758
0
LINE
8
BLACK
6
CONTINUOUS
10
2.96828
20
1.58758
11
2.96844
21
1.58764
0
LINE
8
BLACK
6
CONTINUOUS
10
2.96844
20
1.58764
11
3.00486
21
1.58764
0
LINE
8
BLACK
6
CONTINUOUS
10
3.00486
20
1.58764
11
3.00486
21
1.59593
0
LINE
8
BLACK
6
CONTINUOUS
10
3.00486
20
1.59593
11
3.00504
21
1.59694
0
LINE
8
BLACK
6
CONTINUOUS
10
3.00504
20
1.59694
11
3.00633
21
1.59849
0
LINE
8
BLACK
6
CONTINUOUS
10
3.00633
20
1.59849
11
3.00832
21
1.59884
0
LINE
8
BLACK
6
CONTINUOUS
10
3.00832
20
1.59884
11
3.01007
21
1.59783
0
LINE
8
BLACK
6
CONTINUOUS
10
2.77653
20
2.46774
11
2.77728
21
2.46543
0
LINE
8
BLACK
6
CONTINUOUS
10
2.77728
20
2.46543
11
2.77728
21
2.40544
0
LINE
8
BLACK
6
CONTINUOUS
10
2.77728
20
2.40544
11
2.77653
21
2.40312
0
LINE
8
BLACK
6
CONTINUOUS
10
2.77653
20
2.40312
11
2.77456
21
2.40169
0
LINE
8
BLACK
6
CONTINUOUS
10
2.77456
20
2.40169
11
2.77212
21
2.40169
0
LINE
8
BLACK
6
CONTINUOUS
10
2.77212
20
2.40169
11
2.77016
21
2.40312
0
LINE
8
BLACK
6
CONTINUOUS
10
2.77016
20
2.40312
11
2.7694
21
2.40544
0
LINE
8
BLACK
6
CONTINUOUS
10
2.7694
20
2.40544
11
2.7694
21
2.46543
0
LINE
8
BLACK
6
CONTINUOUS
10
2.7694
20
2.46543
11
2.77016
21
2.46774
0
LINE
8
BLACK
6
CONTINUOUS
10
2.77016
20
2.46774
11
2.77212
21
2.46917
0
LINE
8
BLACK
6
CONTINUOUS
10
2.77212
20
2.46917
11
2.77456
21
2.46917
0
LINE
8
BLACK
6
CONTINUOUS
10
2.77456
20
2.46917
11
2.77653
21
2.46774
0
LINE
8
BLACK
6
CONTINUOUS
10
3.53637
20
2.46774
11
3.53712
21
2.46543
0
LINE
8
BLACK
6
CONTINUOUS
10
3.53712
20
2.46543
11
3.53712
21
2.40544
0
LINE
8
BLACK
6
CONTINUOUS
10
3.53712
20
2.40544
11
3.53637
21
2.40312
0
LINE
8
BLACK
6
CONTINUOUS
10
3.53637
20
2.40312
11
3.5344
21
2.40169
0
LINE
8
BLACK
6
CONTINUOUS
10
3.5344
20
2.40169
11
3.53197
21
2.40169
0
LINE
8
BLACK
6
CONTINUOUS
10
3.53197
20
2.40169
11
3.53
21
2.40312
0
LINE
8
BLACK
6
CONTINUOUS
10
3.53
20
2.40312
11
3.52925
21
2.40544
0
LINE
8
BLACK
6
CONTINUOUS
10
3.52925
20
2.40544
11
3.52925
21
2.46543
0
LINE
8
BLACK
6
CONTINUOUS
10
3.52925
20
2.46543
11
3.53
21
2.46774
0
LINE
8
BLACK
6
CONTINUOUS
10
3.53
20
2.46774
11
3.53197
21
2.46917
0
LINE
8
BLACK
6
CONTINUOUS
10
3.53197
20
2.46917
11
3.5344
21
2.46917
0
LINE
8
BLACK
6
CONTINUOUS
10
3.5344
20
2.46917
11
3.53637
21
2.46774
  0
ENDSEC
  0
EOF
