  0
SECTION
  2
HEADER
  9
$ANGBASE
  50
0.0
  9
$ANGDIR
  70
1
  9
$MEASUREMENT
  70
0
  0
ENDSEC
  0
SECTION
  2
TABLES
  0
TABLE
  2
LTYPE
  70
4
  0
LTYPE
  5
40F
  2
CONTINUOUS
  70
0
  3
Solid line
  72
65
  73
0
  40
0.0
  0
LTYPE
  5
410
  2
DASHDOT
 70
0
  3
Dash Dot ____ _ ____ _
 72
65
 73
4
 40
2.0
 49
1.25
 49
-0.25
 49
0.25
 49
-0.25
  0
LTYPE
  5
411
  2
DASHED
 70
0
  3
Dashed __ __ __ __ __
 72
65
 73
2
 40
0.75
 49
0.5
 49
-0.25
  0
LTYPE
  5
43B
  2
DOTTED
 70
0
  3
Dotted .  .  .  .
 72
65
 73
2
 40
0.2
 49
0.0
 49
-0.2
  0
ENDTAB
  0
TABLE
  2
STYLE
  70
4
  0
STYLE
  2
KICAD
  70
0
  40
0
  41
1
  42
1
  50
0
  71
0
  3
isocp.shx
  0
STYLE
  2
KICADB
  70
0
  40
0
  41
1
  42
1
  50
0
  71
0
  3
isocp.shx
  0
STYLE
  2
KICADI
  70
0
  40
0
  41
1
  42
1
  50
15
  71
0
  3
isocp.shx
  0
STYLE
  2
KICADBI
  70
0
  40
0
  41
1
  42
1
  50
15
  71
0
  3
isocp.shx
  0
ENDTAB
  0
TABLE
  2
LAYER
  70
1
  0
LAYER
  2
BLACK
  70
0
  62
7
  6
CONTINUOUS
  0
ENDTAB
  0
ENDSEC
  0
SECTION
  2
ENTITIES
0
LINE
8
BLACK
6
CONTINUOUS
10
-0.00176776
20
0.00413776
11
-0.0025
21
0.00590551
0
LINE
8
BLACK
6
CONTINUOUS
10
-0.0025
20
0.00590551
11
-0.0025
21
3.06496
0
LINE
8
BLACK
6
CONTINUOUS
10
-0.0025
20
3.06496
11
-0.00176776
21
3.06673
0
LINE
8
BLACK
6
CONTINUOUS
10
-0.00176776
20
3.06673
11
0
21
3.06746
0
LINE
8
BLACK
6
CONTINUOUS
10
0
20
3.06746
11
2.35
21
3.06746
0
LINE
8
BLACK
6
CONTINUOUS
10
2.35
20
3.06746
11
2.35177
21
3.06673
0
LINE
8
BLACK
6
CONTINUOUS
10
2.35177
20
3.06673
11
2.3525
21
3.06496
0
LINE
8
BLACK
6
CONTINUOUS
10
2.3525
20
3.06496
11
2.3525
21
0.00590551
0
LINE
8
BLACK
6
CONTINUOUS
10
2.3525
20
0.00590551
11
2.35177
21
0.00413776
0
LINE
8
BLACK
6
CONTINUOUS
10
2.35177
20
0.00413776
11
2.35
21
0.00340551
0
LINE
8
BLACK
6
CONTINUOUS
10
2.35
20
0.00340551
11
0
21
0.00340551
0
LINE
8
BLACK
6
CONTINUOUS
10
0
20
0.00340551
11
-0.00176776
21
0.00413776
0
LINE
8
BLACK
6
CONTINUOUS
10
0.0025
20
3.06246
11
0.0025
21
0.00840551
0
LINE
8
BLACK
6
CONTINUOUS
10
0.0025
20
0.00840551
11
2.3475
21
0.00840551
0
LINE
8
BLACK
6
CONTINUOUS
10
2.3475
20
0.00840551
11
2.3475
21
3.06246
0
LINE
8
BLACK
6
CONTINUOUS
10
2.3475
20
3.06246
11
0.0025
21
3.06246
0
LINE
8
BLACK
6
CONTINUOUS
10
1.94365
20
0.667743
11
1.9444
21
0.665429
0
LINE
8
BLACK
6
CONTINUOUS
10
1.9444
20
0.665429
11
1.9444
21
0.63937
0
LINE
8
BLACK
6
CONTINUOUS
10
1.9444
20
0.63937
11
1.97046
21
0.63937
0
LINE
8
BLACK
6
CONTINUOUS
10
1.97046
20
0.63937
11
1.97278
21
0.638618
0
LINE
8
BLACK
6
CONTINUOUS
10
1.97278
20
0.638618
11
1.97421
21
0.63665
0
LINE
8
BLACK
6
CONTINUOUS
10
1.97421
20
0.63665
11
1.97421
21
0.634216
0
LINE
8
BLACK
6
CONTINUOUS
10
1.97421
20
0.634216
11
1.97278
21
0.632248
0
LINE
8
BLACK
6
CONTINUOUS
10
1.97278
20
0.632248
11
1.97046
21
0.631496
0
LINE
8
BLACK
6
CONTINUOUS
10
1.97046
20
0.631496
11
1.9444
21
0.631496
0
LINE
8
BLACK
6
CONTINUOUS
10
1.9444
20
0.631496
11
1.9444
21
0.605437
0
LINE
8
BLACK
6
CONTINUOUS
10
1.9444
20
0.605437
11
1.94365
21
0.603123
0
LINE
8
BLACK
6
CONTINUOUS
10
1.94365
20
0.603123
11
1.94168
21
0.601693
0
LINE
8
BLACK
6
CONTINUOUS
10
1.94168
20
0.601693
11
1.93925
21
0.601693
0
LINE
8
BLACK
6
CONTINUOUS
10
1.93925
20
0.601693
11
1.93728
21
0.603123
0
LINE
8
BLACK
6
CONTINUOUS
10
1.93728
20
0.603123
11
1.93653
21
0.605437
0
LINE
8
BLACK
6
CONTINUOUS
10
1.93653
20
0.605437
11
1.93653
21
0.631496
0
LINE
8
BLACK
6
CONTINUOUS
10
1.93653
20
0.631496
11
1.91047
21
0.631496
0
LINE
8
BLACK
6
CONTINUOUS
10
1.91047
20
0.631496
11
1.90816
21
0.632248
0
LINE
8
BLACK
6
CONTINUOUS
10
1.90816
20
0.632248
11
1.90673
21
0.634216
0
LINE
8
BLACK
6
CONTINUOUS
10
1.90673
20
0.634216
11
1.90673
21
0.63665
0
LINE
8
BLACK
6
CONTINUOUS
10
1.90673
20
0.63665
11
1.90816
21
0.638618
0
LINE
8
BLACK
6
CONTINUOUS
10
1.90816
20
0.638618
11
1.91047
21
0.63937
0
LINE
8
BLACK
6
CONTINUOUS
10
1.91047
20
0.63937
11
1.93653
21
0.63937
0
LINE
8
BLACK
6
CONTINUOUS
10
1.93653
20
0.63937
11
1.93653
21
0.665429
0
LINE
8
BLACK
6
CONTINUOUS
10
1.93653
20
0.665429
11
1.93728
21
0.667743
0
LINE
8
BLACK
6
CONTINUOUS
10
1.93728
20
0.667743
11
1.93925
21
0.669174
0
LINE
8
BLACK
6
CONTINUOUS
10
1.93925
20
0.669174
11
1.94168
21
0.669174
0
LINE
8
BLACK
6
CONTINUOUS
10
1.94168
20
0.669174
11
1.94365
21
0.667743
0
LINE
8
BLACK
6
CONTINUOUS
10
1.18381
20
0.667743
11
1.18456
21
0.665429
0
LINE
8
BLACK
6
CONTINUOUS
10
1.18456
20
0.665429
11
1.18456
21
0.63937
0
LINE
8
BLACK
6
CONTINUOUS
10
1.18456
20
0.63937
11
1.21062
21
0.63937
0
LINE
8
BLACK
6
CONTINUOUS
10
1.21062
20
0.63937
11
1.21293
21
0.638618
0
LINE
8
BLACK
6
CONTINUOUS
10
1.21293
20
0.638618
11
1.21436
21
0.63665
0
LINE
8
BLACK
6
CONTINUOUS
10
1.21436
20
0.63665
11
1.21436
21
0.634216
0
LINE
8
BLACK
6
CONTINUOUS
10
1.21436
20
0.634216
11
1.21293
21
0.632248
0
LINE
8
BLACK
6
CONTINUOUS
10
1.21293
20
0.632248
11
1.21062
21
0.631496
0
LINE
8
BLACK
6
CONTINUOUS
10
1.21062
20
0.631496
11
1.18456
21
0.631496
0
LINE
8
BLACK
6
CONTINUOUS
10
1.18456
20
0.631496
11
1.18456
21
0.605437
0
LINE
8
BLACK
6
CONTINUOUS
10
1.18456
20
0.605437
11
1.18381
21
0.603123
0
LINE
8
BLACK
6
CONTINUOUS
10
1.18381
20
0.603123
11
1.18184
21
0.601693
0
LINE
8
BLACK
6
CONTINUOUS
10
1.18184
20
0.601693
11
1.17941
21
0.601693
0
LINE
8
BLACK
6
CONTINUOUS
10
1.17941
20
0.601693
11
1.17744
21
0.603123
0
LINE
8
BLACK
6
CONTINUOUS
10
1.17744
20
0.603123
11
1.17669
21
0.605437
0
LINE
8
BLACK
6
CONTINUOUS
10
1.17669
20
0.605437
11
1.17669
21
0.631496
0
LINE
8
BLACK
6
CONTINUOUS
10
1.17669
20
0.631496
11
1.15063
21
0.631496
0
LINE
8
BLACK
6
CONTINUOUS
10
1.15063
20
0.631496
11
1.14831
21
0.632248
0
LINE
8
BLACK
6
CONTINUOUS
10
1.14831
20
0.632248
11
1.14688
21
0.634216
0
LINE
8
BLACK
6
CONTINUOUS
10
1.14688
20
0.634216
11
1.14688
21
0.63665
0
LINE
8
BLACK
6
CONTINUOUS
10
1.14688
20
0.63665
11
1.14831
21
0.638618
0
LINE
8
BLACK
6
CONTINUOUS
10
1.14831
20
0.638618
11
1.15063
21
0.63937
0
LINE
8
BLACK
6
CONTINUOUS
10
1.15063
20
0.63937
11
1.17669
21
0.63937
0
LINE
8
BLACK
6
CONTINUOUS
10
1.17669
20
0.63937
11
1.17669
21
0.665429
0
LINE
8
BLACK
6
CONTINUOUS
10
1.17669
20
0.665429
11
1.17744
21
0.667743
0
LINE
8
BLACK
6
CONTINUOUS
10
1.17744
20
0.667743
11
1.17941
21
0.669174
0
LINE
8
BLACK
6
CONTINUOUS
10
1.17941
20
0.669174
11
1.18184
21
0.669174
0
LINE
8
BLACK
6
CONTINUOUS
10
1.18184
20
0.669174
11
1.18381
21
0.667743
0
LINE
8
BLACK
6
CONTINUOUS
10
0.423967
20
0.667743
11
0.424719
21
0.665429
0
LINE
8
BLACK
6
CONTINUOUS
10
0.424719
20
0.665429
11
0.424719
21
0.63937
0
LINE
8
BLACK
6
CONTINUOUS
10
0.424719
20
0.63937
11
0.450778
21
0.63937
0
LINE
8
BLACK
6
CONTINUOUS
10
0.450778
20
0.63937
11
0.453092
21
0.638618
0
LINE
8
BLACK
6
CONTINUOUS
10
0.453092
20
0.638618
11
0.454522
21
0.63665
0
LINE
8
BLACK
6
CONTINUOUS
10
0.454522
20
0.63665
11
0.454522
21
0.634216
0
LINE
8
BLACK
6
CONTINUOUS
10
0.454522
20
0.634216
11
0.453092
21
0.632248
0
LINE
8
BLACK
6
CONTINUOUS
10
0.453092
20
0.632248
11
0.450778
21
0.631496
0
LINE
8
BLACK
6
CONTINUOUS
10
0.450778
20
0.631496
11
0.424719
21
0.631496
0
LINE
8
BLACK
6
CONTINUOUS
10
0.424719
20
0.631496
11
0.424719
21
0.605437
0
LINE
8
BLACK
6
CONTINUOUS
10
0.424719
20
0.605437
11
0.423967
21
0.603123
0
LINE
8
BLACK
6
CONTINUOUS
10
0.423967
20
0.603123
11
0.421998
21
0.601693
0
LINE
8
BLACK
6
CONTINUOUS
10
0.421998
20
0.601693
11
0.419565
21
0.601693
0
LINE
8
BLACK
6
CONTINUOUS
10
0.419565
20
0.601693
11
0.417597
21
0.603123
0
LINE
8
BLACK
6
CONTINUOUS
10
0.417597
20
0.603123
11
0.416845
21
0.605437
0
LINE
8
BLACK
6
CONTINUOUS
10
0.416845
20
0.605437
11
0.416845
21
0.631496
0
LINE
8
BLACK
6
CONTINUOUS
10
0.416845
20
0.631496
11
0.390786
21
0.631496
0
LINE
8
BLACK
6
CONTINUOUS
10
0.390786
20
0.631496
11
0.388471
21
0.632248
0
LINE
8
BLACK
6
CONTINUOUS
10
0.388471
20
0.632248
11
0.387041
21
0.634216
0
LINE
8
BLACK
6
CONTINUOUS
10
0.387041
20
0.634216
11
0.387041
21
0.63665
0
LINE
8
BLACK
6
CONTINUOUS
10
0.387041
20
0.63665
11
0.388471
21
0.638618
0
LINE
8
BLACK
6
CONTINUOUS
10
0.388471
20
0.638618
11
0.390786
21
0.63937
0
LINE
8
BLACK
6
CONTINUOUS
10
0.390786
20
0.63937
11
0.416845
21
0.63937
0
LINE
8
BLACK
6
CONTINUOUS
10
0.416845
20
0.63937
11
0.416845
21
0.665429
0
LINE
8
BLACK
6
CONTINUOUS
10
0.416845
20
0.665429
11
0.417597
21
0.667743
0
LINE
8
BLACK
6
CONTINUOUS
10
0.417597
20
0.667743
11
0.419565
21
0.669174
0
LINE
8
BLACK
6
CONTINUOUS
10
0.419565
20
0.669174
11
0.421998
21
0.669174
0
LINE
8
BLACK
6
CONTINUOUS
10
0.421998
20
0.669174
11
0.423967
21
0.667743
0
LINE
8
BLACK
6
CONTINUOUS
10
1.94365
20
2.46774
11
1.9444
21
2.46543
0
LINE
8
BLACK
6
CONTINUOUS
10
1.9444
20
2.46543
11
1.9444
21
2.40544
0
LINE
8
BLACK
6
CONTINUOUS
10
1.9444
20
2.40544
11
1.94365
21
2.40312
0
LINE
8
BLACK
6
CONTINUOUS
10
1.94365
20
2.40312
11
1.94168
21
2.40169
0
LINE
8
BLACK
6
CONTINUOUS
10
1.94168
20
2.40169
11
1.93925
21
2.40169
0
LINE
8
BLACK
6
CONTINUOUS
10
1.93925
20
2.40169
11
1.93728
21
2.40312
0
LINE
8
BLACK
6
CONTINUOUS
10
1.93728
20
2.40312
11
1.93653
21
2.40544
0
LINE
8
BLACK
6
CONTINUOUS
10
1.93653
20
2.40544
11
1.93653
21
2.46543
0
LINE
8
BLACK
6
CONTINUOUS
10
1.93653
20
2.46543
11
1.93728
21
2.46774
0
LINE
8
BLACK
6
CONTINUOUS
10
1.93728
20
2.46774
11
1.93925
21
2.46917
0
LINE
8
BLACK
6
CONTINUOUS
10
1.93925
20
2.46917
11
1.94168
21
2.46917
0
LINE
8
BLACK
6
CONTINUOUS
10
1.94168
20
2.46917
11
1.94365
21
2.46774
0
LINE
8
BLACK
6
CONTINUOUS
10
0.423967
20
2.46774
11
0.424719
21
2.46543
0
LINE
8
BLACK
6
CONTINUOUS
10
0.424719
20
2.46543
11
0.424719
21
2.40544
0
LINE
8
BLACK
6
CONTINUOUS
10
0.424719
20
2.40544
11
0.423967
21
2.40312
0
LINE
8
BLACK
6
CONTINUOUS
10
0.423967
20
2.40312
11
0.421998
21
2.40169
0
LINE
8
BLACK
6
CONTINUOUS
10
0.421998
20
2.40169
11
0.419565
21
2.40169
0
LINE
8
BLACK
6
CONTINUOUS
10
0.419565
20
2.40169
11
0.417597
21
2.40312
0
LINE
8
BLACK
6
CONTINUOUS
10
0.417597
20
2.40312
11
0.416845
21
2.40544
0
LINE
8
BLACK
6
CONTINUOUS
10
0.416845
20
2.40544
11
0.416845
21
2.46543
0
LINE
8
BLACK
6
CONTINUOUS
10
0.416845
20
2.46543
11
0.417597
21
2.46774
0
LINE
8
BLACK
6
CONTINUOUS
10
0.417597
20
2.46774
11
0.419565
21
2.46917
0
LINE
8
BLACK
6
CONTINUOUS
10
0.419565
20
2.46917
11
0.421998
21
2.46917
0
LINE
8
BLACK
6
CONTINUOUS
10
0.421998
20
2.46917
11
0.423967
21
2.46774
0
LINE
8
BLACK
6
CONTINUOUS
10
1.18381
20
2.46774
11
1.18456
21
2.46543
0
LINE
8
BLACK
6
CONTINUOUS
10
1.18456
20
2.46543
11
1.18456
21
2.40544
0
LINE
8
BLACK
6
CONTINUOUS
10
1.18456
20
2.40544
11
1.18381
21
2.40312
0
LINE
8
BLACK
6
CONTINUOUS
10
1.18381
20
2.40312
11
1.18184
21
2.40169
0
LINE
8
BLACK
6
CONTINUOUS
10
1.18184
20
2.40169
11
1.17941
21
2.40169
0
LINE
8
BLACK
6
CONTINUOUS
10
1.17941
20
2.40169
11
1.17744
21
2.40312
0
LINE
8
BLACK
6
CONTINUOUS
10
1.17744
20
2.40312
11
1.17669
21
2.40544
0
LINE
8
BLACK
6
CONTINUOUS
10
1.17669
20
2.40544
11
1.17669
21
2.46543
0
LINE
8
BLACK
6
CONTINUOUS
10
1.17669
20
2.46543
11
1.17744
21
2.46774
0
LINE
8
BLACK
6
CONTINUOUS
10
1.17744
20
2.46774
11
1.17941
21
2.46917
0
LINE
8
BLACK
6
CONTINUOUS
10
1.17941
20
2.46917
11
1.18184
21
2.46917
0
LINE
8
BLACK
6
CONTINUOUS
10
1.18184
20
2.46917
11
1.18381
21
2.46774
0
LINE
8
BLACK
6
CONTINUOUS
10
2.35433
20
0.00413776
11
2.3536
21
0.00590551
0
LINE
8
BLACK
6
CONTINUOUS
10
2.3536
20
0.00590551
11
2.3536
21
3.06496
0
LINE
8
BLACK
6
CONTINUOUS
10
2.3536
20
3.06496
11
2.35433
21
3.06673
0
LINE
8
BLACK
6
CONTINUOUS
10
2.35433
20
3.06673
11
2.3561
21
3.06746
0
LINE
8
BLACK
6
CONTINUOUS
10
2.3561
20
3.06746
11
3.93917
21
3.06746
0
LINE
8
BLACK
6
CONTINUOUS
10
3.93917
20
3.06746
11
3.94094
21
3.06673
0
LINE
8
BLACK
6
CONTINUOUS
10
3.94094
20
3.06673
11
3.94167
21
3.06496
0
LINE
8
BLACK
6
CONTINUOUS
10
3.94167
20
3.06496
11
3.94167
21
0.00590551
0
LINE
8
BLACK
6
CONTINUOUS
10
3.94167
20
0.00590551
11
3.94094
21
0.00413776
0
LINE
8
BLACK
6
CONTINUOUS
10
3.94094
20
0.00413776
11
3.93917
21
0.00340551
0
LINE
8
BLACK
6
CONTINUOUS
10
3.93917
20
0.00340551
11
2.3561
21
0.00340551
0
LINE
8
BLACK
6
CONTINUOUS
10
2.3561
20
0.00340551
11
2.35433
21
0.00413776
0
LINE
8
BLACK
6
CONTINUOUS
10
2.3586
20
3.06246
11
2.3586
21
0.00840551
0
LINE
8
BLACK
6
CONTINUOUS
10
2.3586
20
0.00840551
11
3.93667
21
0.00840551
0
LINE
8
BLACK
6
CONTINUOUS
10
3.93667
20
0.00840551
11
3.93667
21
3.06246
0
LINE
8
BLACK
6
CONTINUOUS
10
3.93667
20
3.06246
11
2.3586
21
3.06246
0
LINE
8
BLACK
6
CONTINUOUS
10
2.77653
20
0.667743
11
2.77728
21
0.665429
0
LINE
8
BLACK
6
CONTINUOUS
10
2.77728
20
0.665429
11
2.77728
21
0.63937
0
LINE
8
BLACK
6
CONTINUOUS
10
2.77728
20
0.63937
11
2.80334
21
0.63937
0
LINE
8
BLACK
6
CONTINUOUS
10
2.80334
20
0.63937
11
2.80565
21
0.638618
0
LINE
8
BLACK
6
CONTINUOUS
10
2.80565
20
0.638618
11
2.80708
21
0.63665
0
LINE
8
BLACK
6
CONTINUOUS
10
2.80708
20
0.63665
11
2.80708
21
0.634216
0
LINE
8
BLACK
6
CONTINUOUS
10
2.80708
20
0.634216
11
2.80565
21
0.632248
0
LINE
8
BLACK
6
CONTINUOUS
10
2.80565
20
0.632248
11
2.80334
21
0.631496
0
LINE
8
BLACK
6
CONTINUOUS
10
2.80334
20
0.631496
11
2.77728
21
0.631496
0
LINE
8
BLACK
6
CONTINUOUS
10
2.77728
20
0.631496
11
2.77728
21
0.605437
0
LINE
8
BLACK
6
CONTINUOUS
10
2.77728
20
0.605437
11
2.77653
21
0.603123
0
LINE
8
BLACK
6
CONTINUOUS
10
2.77653
20
0.603123
11
2.77456
21
0.601693
0
LINE
8
BLACK
6
CONTINUOUS
10
2.77456
20
0.601693
11
2.77212
21
0.601693
0
LINE
8
BLACK
6
CONTINUOUS
10
2.77212
20
0.601693
11
2.77016
21
0.603123
0
LINE
8
BLACK
6
CONTINUOUS
10
2.77016
20
0.603123
11
2.7694
21
0.605437
0
LINE
8
BLACK
6
CONTINUOUS
10
2.7694
20
0.605437
11
2.7694
21
0.631496
0
LINE
8
BLACK
6
CONTINUOUS
10
2.7694
20
0.631496
11
2.74334
21
0.631496
0
LINE
8
BLACK
6
CONTINUOUS
10
2.74334
20
0.631496
11
2.74103
21
0.632248
0
LINE
8
BLACK
6
CONTINUOUS
10
2.74103
20
0.632248
11
2.7396
21
0.634216
0
LINE
8
BLACK
6
CONTINUOUS
10
2.7396
20
0.634216
11
2.7396
21
0.63665
0
LINE
8
BLACK
6
CONTINUOUS
10
2.7396
20
0.63665
11
2.74103
21
0.638618
0
LINE
8
BLACK
6
CONTINUOUS
10
2.74103
20
0.638618
11
2.74334
21
0.63937
0
LINE
8
BLACK
6
CONTINUOUS
10
2.74334
20
0.63937
11
2.7694
21
0.63937
0
LINE
8
BLACK
6
CONTINUOUS
10
2.7694
20
0.63937
11
2.7694
21
0.665429
0
LINE
8
BLACK
6
CONTINUOUS
10
2.7694
20
0.665429
11
2.77016
21
0.667743
0
LINE
8
BLACK
6
CONTINUOUS
10
2.77016
20
0.667743
11
2.77212
21
0.669174
0
LINE
8
BLACK
6
CONTINUOUS
10
2.77212
20
0.669174
11
2.77456
21
0.669174
0
LINE
8
BLACK
6
CONTINUOUS
10
2.77456
20
0.669174
11
2.77653
21
0.667743
0
LINE
8
BLACK
6
CONTINUOUS
10
3.53637
20
0.667743
11
3.53712
21
0.665429
0
LINE
8
BLACK
6
CONTINUOUS
10
3.53712
20
0.665429
11
3.53712
21
0.63937
0
LINE
8
BLACK
6
CONTINUOUS
10
3.53712
20
0.63937
11
3.56318
21
0.63937
0
LINE
8
BLACK
6
CONTINUOUS
10
3.56318
20
0.63937
11
3.56549
21
0.638618
0
LINE
8
BLACK
6
CONTINUOUS
10
3.56549
20
0.638618
11
3.56692
21
0.63665
0
LINE
8
BLACK
6
CONTINUOUS
10
3.56692
20
0.63665
11
3.56692
21
0.634216
0
LINE
8
BLACK
6
CONTINUOUS
10
3.56692
20
0.634216
11
3.56549
21
0.632248
0
LINE
8
BLACK
6
CONTINUOUS
10
3.56549
20
0.632248
11
3.56318
21
0.631496
0
LINE
8
BLACK
6
CONTINUOUS
10
3.56318
20
0.631496
11
3.53712
21
0.631496
0
LINE
8
BLACK
6
CONTINUOUS
10
3.53712
20
0.631496
11
3.53712
21
0.605437
0
LINE
8
BLACK
6
CONTINUOUS
10
3.53712
20
0.605437
11
3.53637
21
0.603123
0
LINE
8
BLACK
6
CONTINUOUS
10
3.53637
20
0.603123
11
3.5344
21
0.601693
0
LINE
8
BLACK
6
CONTINUOUS
10
3.5344
20
0.601693
11
3.53197
21
0.601693
0
LINE
8
BLACK
6
CONTINUOUS
10
3.53197
20
0.601693
11
3.53
21
0.603123
0
LINE
8
BLACK
6
CONTINUOUS
10
3.53
20
0.603123
11
3.52925
21
0.605437
0
LINE
8
BLACK
6
CONTINUOUS
10
3.52925
20
0.605437
11
3.52925
21
0.631496
0
LINE
8
BLACK
6
CONTINUOUS
10
3.52925
20
0.631496
11
3.50319
21
0.631496
0
LINE
8
BLACK
6
CONTINUOUS
10
3.50319
20
0.631496
11
3.50087
21
0.632248
0
LINE
8
BLACK
6
CONTINUOUS
10
3.50087
20
0.632248
11
3.49944
21
0.634216
0
LINE
8
BLACK
6
CONTINUOUS
10
3.49944
20
0.634216
11
3.49944
21
0.63665
0
LINE
8
BLACK
6
CONTINUOUS
10
3.49944
20
0.63665
11
3.50087
21
0.638618
0
LINE
8
BLACK
6
CONTINUOUS
10
3.50087
20
0.638618
11
3.50319
21
0.63937
0
LINE
8
BLACK
6
CONTINUOUS
10
3.50319
20
0.63937
11
3.52925
21
0.63937
0
LINE
8
BLACK
6
CONTINUOUS
10
3.52925
20
0.63937
11
3.52925
21
0.665429
0
LINE
8
BLACK
6
CONTINUOUS
10
3.52925
20
0.665429
11
3.53
21
0.667743
0
LINE
8
BLACK
6
CONTINUOUS
10
3.53
20
0.667743
11
3.53197
21
0.669174
0
LINE
8
BLACK
6
CONTINUOUS
10
3.53197
20
0.669174
11
3.5344
21
0.669174
0
LINE
8
BLACK
6
CONTINUOUS
10
3.5344
20
0.669174
11
3.53637
21
0.667743
0
LINE
8
BLACK
6
CONTINUOUS
10
3.26646
20
1.38073
11
3.26667
21
1.38055
0
LINE
8
BLACK
6
CONTINUOUS
10
3.26667
20
1.38055
11
3.26694
21
1.3805
0
LINE
8
BLACK
6
CONTINUOUS
10
3.26694
20
1.3805
11
3.26742
21
1.37992
0
LINE
8
BLACK
6
CONTINUOUS
10
3.26742
20
1.37992
11
3.26801
21
1.37943
0
LINE
8
BLACK
6
CONTINUOUS
10
3.26801
20
1.37943
11
3.26805
21
1.37916
0
LINE
8
BLACK
6
CONTINUOUS
10
3.26805
20
1.37916
11
3.26823
21
1.37895
0
LINE
8
BLACK
6
CONTINUOUS
10
3.26823
20
1.37895
11
3.26822
21
1.37819
0
LINE
8
BLACK
6
CONTINUOUS
10
3.26822
20
1.37819
11
3.26836
21
1.37744
0
LINE
8
BLACK
6
CONTINUOUS
10
3.26836
20
1.37744
11
3.26822
21
1.3772
0
LINE
8
BLACK
6
CONTINUOUS
10
3.26822
20
1.3772
11
3.26822
21
1.37693
0
LINE
8
BLACK
6
CONTINUOUS
10
3.26822
20
1.37693
11
3.26773
21
1.37635
0
LINE
8
BLACK
6
CONTINUOUS
10
3.26773
20
1.37635
11
3.26735
21
1.37569
0
LINE
8
BLACK
6
CONTINUOUS
10
3.26735
20
1.37569
11
3.26709
21
1.3756
0
LINE
8
BLACK
6
CONTINUOUS
10
3.26709
20
1.3756
11
3.26691
21
1.37539
0
LINE
8
BLACK
6
CONTINUOUS
10
3.26691
20
1.37539
11
3.2372
21
1.35841
0
LINE
8
BLACK
6
CONTINUOUS
10
3.2372
20
1.35841
11
3.26545
21
1.35841
0
LINE
8
BLACK
6
CONTINUOUS
10
3.26545
20
1.35841
11
3.26646
21
1.35823
0
LINE
8
BLACK
6
CONTINUOUS
10
3.26646
20
1.35823
11
3.26801
21
1.35693
0
LINE
8
BLACK
6
CONTINUOUS
10
3.26801
20
1.35693
11
3.26836
21
1.35494
0
LINE
8
BLACK
6
CONTINUOUS
10
3.26836
20
1.35494
11
3.26735
21
1.35319
0
LINE
8
BLACK
6
CONTINUOUS
10
3.26735
20
1.35319
11
3.26545
21
1.3525
0
LINE
8
BLACK
6
CONTINUOUS
10
3.26545
20
1.3525
11
3.22608
21
1.3525
0
LINE
8
BLACK
6
CONTINUOUS
10
3.22608
20
1.3525
11
3.22507
21
1.35268
0
LINE
8
BLACK
6
CONTINUOUS
10
3.22507
20
1.35268
11
3.22486
21
1.35286
0
LINE
8
BLACK
6
CONTINUOUS
10
3.22486
20
1.35286
11
3.22459
21
1.35291
0
LINE
8
BLACK
6
CONTINUOUS
10
3.22459
20
1.35291
11
3.2241
21
1.35349
0
LINE
8
BLACK
6
CONTINUOUS
10
3.2241
20
1.35349
11
3.22352
21
1.35398
0
LINE
8
BLACK
6
CONTINUOUS
10
3.22352
20
1.35398
11
3.22347
21
1.35425
0
LINE
8
BLACK
6
CONTINUOUS
10
3.22347
20
1.35425
11
3.2233
21
1.35446
0
LINE
8
BLACK
6
CONTINUOUS
10
3.2233
20
1.35446
11
3.2233
21
1.35522
0
LINE
8
BLACK
6
CONTINUOUS
10
3.2233
20
1.35522
11
3.22317
21
1.35597
0
LINE
8
BLACK
6
CONTINUOUS
10
3.22317
20
1.35597
11
3.22331
21
1.3562
0
LINE
8
BLACK
6
CONTINUOUS
10
3.22331
20
1.3562
11
3.22331
21
1.35648
0
LINE
8
BLACK
6
CONTINUOUS
10
3.22331
20
1.35648
11
3.2238
21
1.35706
0
LINE
8
BLACK
6
CONTINUOUS
10
3.2238
20
1.35706
11
3.22418
21
1.35772
0
LINE
8
BLACK
6
CONTINUOUS
10
3.22418
20
1.35772
11
3.22444
21
1.35781
0
LINE
8
BLACK
6
CONTINUOUS
10
3.22444
20
1.35781
11
3.22461
21
1.35802
0
LINE
8
BLACK
6
CONTINUOUS
10
3.22461
20
1.35802
11
3.25433
21
1.375
0
LINE
8
BLACK
6
CONTINUOUS
10
3.25433
20
1.375
11
3.22608
21
1.375
0
LINE
8
BLACK
6
CONTINUOUS
10
3.22608
20
1.375
11
3.22507
21
1.37518
0
LINE
8
BLACK
6
CONTINUOUS
10
3.22507
20
1.37518
11
3.22352
21
1.37648
0
LINE
8
BLACK
6
CONTINUOUS
10
3.22352
20
1.37648
11
3.22317
21
1.37847
0
LINE
8
BLACK
6
CONTINUOUS
10
3.22317
20
1.37847
11
3.22418
21
1.38021
0
LINE
8
BLACK
6
CONTINUOUS
10
3.22418
20
1.38021
11
3.22608
21
1.38091
0
LINE
8
BLACK
6
CONTINUOUS
10
3.22608
20
1.38091
11
3.26545
21
1.38091
0
LINE
8
BLACK
6
CONTINUOUS
10
3.26545
20
1.38091
11
3.26646
21
1.38073
0
LINE
8
BLACK
6
CONTINUOUS
10
3.26379
20
1.42129
11
3.26566
21
1.41941
0
LINE
8
BLACK
6
CONTINUOUS
10
3.26566
20
1.41941
11
3.26625
21
1.41857
0
LINE
8
BLACK
6
CONTINUOUS
10
3.26625
20
1.41857
11
3.26626
21
1.41839
0
LINE
8
BLACK
6
CONTINUOUS
10
3.26626
20
1.41839
11
3.26637
21
1.41826
0
LINE
8
BLACK
6
CONTINUOUS
10
3.26637
20
1.41826
11
3.26825
21
1.41263
0
LINE
8
BLACK
6
CONTINUOUS
10
3.26825
20
1.41263
11
3.26838
21
1.41176
0
LINE
8
BLACK
6
CONTINUOUS
10
3.26838
20
1.41176
11
3.2684
21
1.4117
0
LINE
8
BLACK
6
CONTINUOUS
10
3.2684
20
1.4117
11
3.2684
21
1.40795
0
LINE
8
BLACK
6
CONTINUOUS
10
3.2684
20
1.40795
11
3.26825
21
1.40708
0
LINE
8
BLACK
6
CONTINUOUS
10
3.26825
20
1.40708
11
3.26825
21
1.40702
0
LINE
8
BLACK
6
CONTINUOUS
10
3.26825
20
1.40702
11
3.26637
21
1.40139
0
LINE
8
BLACK
6
CONTINUOUS
10
3.26637
20
1.40139
11
3.26589
21
1.40049
0
LINE
8
BLACK
6
CONTINUOUS
10
3.26589
20
1.40049
11
3.26574
21
1.4004
0
LINE
8
BLACK
6
CONTINUOUS
10
3.26574
20
1.4004
11
3.26566
21
1.40024
0
LINE
8
BLACK
6
CONTINUOUS
10
3.26566
20
1.40024
11
3.26191
21
1.39649
0
LINE
8
BLACK
6
CONTINUOUS
10
3.26191
20
1.39649
11
3.26119
21
1.39598
0
LINE
8
BLACK
6
CONTINUOUS
10
3.26119
20
1.39598
11
3.26114
21
1.39593
0
LINE
8
BLACK
6
CONTINUOUS
10
3.26114
20
1.39593
11
3.25739
21
1.39406
0
LINE
8
BLACK
6
CONTINUOUS
10
3.25739
20
1.39406
11
3.25691
21
1.39391
0
LINE
8
BLACK
6
CONTINUOUS
10
3.25691
20
1.39391
11
3.25679
21
1.39384
0
LINE
8
BLACK
6
CONTINUOUS
10
3.25679
20
1.39384
11
3.24929
21
1.39196
0
LINE
8
BLACK
6
CONTINUOUS
10
3.24929
20
1.39196
11
3.2487
21
1.39192
0
LINE
8
BLACK
6
CONTINUOUS
10
3.2487
20
1.39192
11
3.24858
21
1.39187
0
LINE
8
BLACK
6
CONTINUOUS
10
3.24858
20
1.39187
11
3.24295
21
1.39187
0
LINE
8
BLACK
6
CONTINUOUS
10
3.24295
20
1.39187
11
3.24237
21
1.39198
0
LINE
8
BLACK
6
CONTINUOUS
10
3.24237
20
1.39198
11
3.24223
21
1.39196
0
LINE
8
BLACK
6
CONTINUOUS
10
3.24223
20
1.39196
11
3.23474
21
1.39384
0
LINE
8
BLACK
6
CONTINUOUS
10
3.23474
20
1.39384
11
3.23427
21
1.39404
0
LINE
8
BLACK
6
CONTINUOUS
10
3.23427
20
1.39404
11
3.23413
21
1.39406
0
LINE
8
BLACK
6
CONTINUOUS
10
3.23413
20
1.39406
11
3.23038
21
1.39593
0
LINE
8
BLACK
6
CONTINUOUS
10
3.23038
20
1.39593
11
3.22967
21
1.39646
0
LINE
8
BLACK
6
CONTINUOUS
10
3.22967
20
1.39646
11
3.22961
21
1.39649
0
LINE
8
BLACK
6
CONTINUOUS
10
3.22961
20
1.39649
11
3.22586
21
1.40024
0
LINE
8
BLACK
6
CONTINUOUS
10
3.22586
20
1.40024
11
3.22528
21
1.40108
0
LINE
8
BLACK
6
CONTINUOUS
10
3.22528
20
1.40108
11
3.22526
21
1.40125
0
LINE
8
BLACK
6
CONTINUOUS
10
3.22526
20
1.40125
11
3.22515
21
1.40139
0
LINE
8
BLACK
6
CONTINUOUS
10
3.22515
20
1.40139
11
3.22328
21
1.40702
0
LINE
8
BLACK
6
CONTINUOUS
10
3.22328
20
1.40702
11
3.22315
21
1.40789
0
LINE
8
BLACK
6
CONTINUOUS
10
3.22315
20
1.40789
11
3.22313
21
1.40795
0
LINE
8
BLACK
6
CONTINUOUS
10
3.22313
20
1.40795
11
3.22313
21
1.4117
0
LINE
8
BLACK
6
CONTINUOUS
10
3.22313
20
1.4117
11
3.22328
21
1.41257
0
LINE
8
BLACK
6
CONTINUOUS
10
3.22328
20
1.41257
11
3.22328
21
1.41263
0
LINE
8
BLACK
6
CONTINUOUS
10
3.22328
20
1.41263
11
3.22515
21
1.41826
0
LINE
8
BLACK
6
CONTINUOUS
10
3.22515
20
1.41826
11
3.22564
21
1.41916
0
LINE
8
BLACK
6
CONTINUOUS
10
3.22564
20
1.41916
11
3.22579
21
1.41925
0
LINE
8
BLACK
6
CONTINUOUS
10
3.22579
20
1.41925
11
3.22586
21
1.41941
0
LINE
8
BLACK
6
CONTINUOUS
10
3.22586
20
1.41941
11
3.22774
21
1.42129
0
LINE
8
BLACK
6
CONTINUOUS
10
3.22774
20
1.42129
11
3.22858
21
1.42187
0
LINE
8
BLACK
6
CONTINUOUS
10
3.22858
20
1.42187
11
3.23059
21
1.42205
0
LINE
8
BLACK
6
CONTINUOUS
10
3.23059
20
1.42205
11
3.23225
21
1.42089
0
LINE
8
BLACK
6
CONTINUOUS
10
3.23225
20
1.42089
11
3.23277
21
1.41894
0
LINE
8
BLACK
6
CONTINUOUS
10
3.23277
20
1.41894
11
3.23192
21
1.41711
0
LINE
8
BLACK
6
CONTINUOUS
10
3.23192
20
1.41711
11
3.23053
21
1.41573
0
LINE
8
BLACK
6
CONTINUOUS
10
3.23053
20
1.41573
11
3.22903
21
1.41122
0
LINE
8
BLACK
6
CONTINUOUS
10
3.22903
20
1.41122
11
3.22903
21
1.40843
0
LINE
8
BLACK
6
CONTINUOUS
10
3.22903
20
1.40843
11
3.23053
21
1.40392
0
LINE
8
BLACK
6
CONTINUOUS
10
3.23053
20
1.40392
11
3.23345
21
1.401
0
LINE
8
BLACK
6
CONTINUOUS
10
3.23345
20
1.401
11
3.23648
21
1.39949
0
LINE
8
BLACK
6
CONTINUOUS
10
3.23648
20
1.39949
11
3.24331
21
1.39778
0
LINE
8
BLACK
6
CONTINUOUS
10
3.24331
20
1.39778
11
3.24821
21
1.39778
0
LINE
8
BLACK
6
CONTINUOUS
10
3.24821
20
1.39778
11
3.25504
21
1.39949
0
LINE
8
BLACK
6
CONTINUOUS
10
3.25504
20
1.39949
11
3.25807
21
1.401
0
LINE
8
BLACK
6
CONTINUOUS
10
3.25807
20
1.401
11
3.26099
21
1.40392
0
LINE
8
BLACK
6
CONTINUOUS
10
3.26099
20
1.40392
11
3.2625
21
1.40843
0
LINE
8
BLACK
6
CONTINUOUS
10
3.2625
20
1.40843
11
3.2625
21
1.41122
0
LINE
8
BLACK
6
CONTINUOUS
10
3.2625
20
1.41122
11
3.26099
21
1.41573
0
LINE
8
BLACK
6
CONTINUOUS
10
3.26099
20
1.41573
11
3.25961
21
1.41711
0
LINE
8
BLACK
6
CONTINUOUS
10
3.25961
20
1.41711
11
3.25902
21
1.41795
0
LINE
8
BLACK
6
CONTINUOUS
10
3.25902
20
1.41795
11
3.25885
21
1.41996
0
LINE
8
BLACK
6
CONTINUOUS
10
3.25885
20
1.41996
11
3.26
21
1.42162
0
LINE
8
BLACK
6
CONTINUOUS
10
3.26
20
1.42162
11
3.26196
21
1.42214
0
LINE
8
BLACK
6
CONTINUOUS
10
3.26196
20
1.42214
11
3.26379
21
1.42129
0
LINE
8
BLACK
6
CONTINUOUS
10
3.24021
20
1.46134
11
3.24035
21
1.46123
0
LINE
8
BLACK
6
CONTINUOUS
10
3.24035
20
1.46123
11
3.24052
21
1.46121
0
LINE
8
BLACK
6
CONTINUOUS
10
3.24052
20
1.46121
11
3.24427
21
1.45933
0
LINE
8
BLACK
6
CONTINUOUS
10
3.24427
20
1.45933
11
3.24498
21
1.45881
0
LINE
8
BLACK
6
CONTINUOUS
10
3.24498
20
1.45881
11
3.24504
21
1.45878
0
LINE
8
BLACK
6
CONTINUOUS
10
3.24504
20
1.45878
11
3.24691
21
1.45691
0
LINE
8
BLACK
6
CONTINUOUS
10
3.24691
20
1.45691
11
3.24742
21
1.45618
0
LINE
8
BLACK
6
CONTINUOUS
10
3.24742
20
1.45618
11
3.24747
21
1.45614
0
LINE
8
BLACK
6
CONTINUOUS
10
3.24747
20
1.45614
11
3.24934
21
1.45239
0
LINE
8
BLACK
6
CONTINUOUS
10
3.24934
20
1.45239
11
3.24963
21
1.45141
0
LINE
8
BLACK
6
CONTINUOUS
10
3.24963
20
1.45141
11
3.24959
21
1.45123
0
LINE
8
BLACK
6
CONTINUOUS
10
3.24959
20
1.45123
11
3.24964
21
1.45111
0
LINE
8
BLACK
6
CONTINUOUS
10
3.24964
20
1.45111
11
3.26375
21
1.46099
0
LINE
8
BLACK
6
CONTINUOUS
10
3.26375
20
1.46099
11
3.26468
21
1.46142
0
LINE
8
BLACK
6
CONTINUOUS
10
3.26468
20
1.46142
11
3.2667
21
1.46124
0
LINE
8
BLACK
6
CONTINUOUS
10
3.2667
20
1.46124
11
3.26812
21
1.45982
0
LINE
8
BLACK
6
CONTINUOUS
10
3.26812
20
1.45982
11
3.2683
21
1.4578
0
LINE
8
BLACK
6
CONTINUOUS
10
3.2683
20
1.4578
11
3.26714
21
1.45615
0
LINE
8
BLACK
6
CONTINUOUS
10
3.26714
20
1.45615
11
3.24965
21
1.44391
0
LINE
8
BLACK
6
CONTINUOUS
10
3.24965
20
1.44391
11
3.24965
21
1.43902
0
LINE
8
BLACK
6
CONTINUOUS
10
3.24965
20
1.43902
11
3.26545
21
1.43902
0
LINE
8
BLACK
6
CONTINUOUS
10
3.26545
20
1.43902
11
3.26646
21
1.43885
0
LINE
8
BLACK
6
CONTINUOUS
10
3.26646
20
1.43885
11
3.26801
21
1.43755
0
LINE
8
BLACK
6
CONTINUOUS
10
3.26801
20
1.43755
11
3.26836
21
1.43556
0
LINE
8
BLACK
6
CONTINUOUS
10
3.26836
20
1.43556
11
3.26735
21
1.43381
0
LINE
8
BLACK
6
CONTINUOUS
10
3.26735
20
1.43381
11
3.26545
21
1.43312
0
LINE
8
BLACK
6
CONTINUOUS
10
3.26545
20
1.43312
11
3.22608
21
1.43312
0
LINE
8
BLACK
6
CONTINUOUS
10
3.22608
20
1.43312
11
3.22569
21
1.43319
0
LINE
8
BLACK
6
CONTINUOUS
10
3.22569
20
1.43319
11
3.22557
21
1.43316
0
LINE
8
BLACK
6
CONTINUOUS
10
3.22557
20
1.43316
11
3.22545
21
1.43323
0
LINE
8
BLACK
6
CONTINUOUS
10
3.22545
20
1.43323
11
3.22507
21
1.4333
0
LINE
8
BLACK
6
CONTINUOUS
10
3.22507
20
1.4333
11
3.22448
21
1.43379
0
LINE
8
BLACK
6
CONTINUOUS
10
3.22448
20
1.43379
11
3.22382
21
1.43417
0
LINE
8
BLACK
6
CONTINUOUS
10
3.22382
20
1.43417
11
3.22372
21
1.43442
0
LINE
8
BLACK
6
CONTINUOUS
10
3.22372
20
1.43442
11
3.22352
21
1.43459
0
LINE
8
BLACK
6
CONTINUOUS
10
3.22352
20
1.43459
11
3.22339
21
1.43535
0
LINE
8
BLACK
6
CONTINUOUS
10
3.22339
20
1.43535
11
3.22313
21
1.43607
0
LINE
8
BLACK
6
CONTINUOUS
10
3.22313
20
1.43607
11
3.22313
21
1.45107
0
LINE
8
BLACK
6
CONTINUOUS
10
3.22313
20
1.45107
11
3.2233
21
1.45208
0
LINE
8
BLACK
6
CONTINUOUS
10
3.2233
20
1.45208
11
3.22342
21
1.45221
0
LINE
8
BLACK
6
CONTINUOUS
10
3.22342
20
1.45221
11
3.22344
21
1.45239
0
LINE
8
BLACK
6
CONTINUOUS
10
3.22344
20
1.45239
11
3.22531
21
1.45614
0
LINE
8
BLACK
6
CONTINUOUS
10
3.22531
20
1.45614
11
3.22584
21
1.45685
0
LINE
8
BLACK
6
CONTINUOUS
10
3.22584
20
1.45685
11
3.22586
21
1.45691
0
LINE
8
BLACK
6
CONTINUOUS
10
3.22586
20
1.45691
11
3.22774
21
1.45878
0
LINE
8
BLACK
6
CONTINUOUS
10
3.22774
20
1.45878
11
3.22846
21
1.45929
0
LINE
8
BLACK
6
CONTINUOUS
10
3.22846
20
1.45929
11
3.22851
21
1.45933
0
LINE
8
BLACK
6
CONTINUOUS
10
3.22851
20
1.45933
11
3.23226
21
1.46121
0
LINE
8
BLACK
6
CONTINUOUS
10
3.23226
20
1.46121
11
3.23324
21
1.4615
0
LINE
8
BLACK
6
CONTINUOUS
10
3.23324
20
1.4615
11
3.23341
21
1.46146
0
LINE
8
BLACK
6
CONTINUOUS
10
3.23341
20
1.46146
11
3.23358
21
1.46152
0
LINE
8
BLACK
6
CONTINUOUS
10
3.23358
20
1.46152
11
3.2392
21
1.46152
0
LINE
8
BLACK
6
CONTINUOUS
10
3.2392
20
1.46152
11
3.24021
21
1.46134
0
LINE
8
BLACK
6
CONTINUOUS
10
3.23427
20
1.45561
11
3.23158
21
1.45427
0
LINE
8
BLACK
6
CONTINUOUS
10
3.23158
20
1.45427
11
3.23038
21
1.45307
0
LINE
8
BLACK
6
CONTINUOUS
10
3.23038
20
1.45307
11
3.22903
21
1.45037
0
LINE
8
BLACK
6
CONTINUOUS
10
3.22903
20
1.45037
11
3.22903
21
1.43902
0
LINE
8
BLACK
6
CONTINUOUS
10
3.22903
20
1.43902
11
3.24375
21
1.43902
0
LINE
8
BLACK
6
CONTINUOUS
10
3.24375
20
1.43902
11
3.24375
21
1.45037
0
LINE
8
BLACK
6
CONTINUOUS
10
3.24375
20
1.45037
11
3.2424
21
1.45307
0
LINE
8
BLACK
6
CONTINUOUS
10
3.2424
20
1.45307
11
3.2412
21
1.45427
0
LINE
8
BLACK
6
CONTINUOUS
10
3.2412
20
1.45427
11
3.2385
21
1.45561
0
LINE
8
BLACK
6
CONTINUOUS
10
3.2385
20
1.45561
11
3.23427
21
1.45561
0
LINE
8
BLACK
6
CONTINUOUS
10
3.26771
20
1.49796
11
3.2684
21
1.49606
0
LINE
8
BLACK
6
CONTINUOUS
10
3.2684
20
1.49606
11
3.2684
21
1.47357
0
LINE
8
BLACK
6
CONTINUOUS
10
3.2684
20
1.47357
11
3.26822
21
1.47256
0
LINE
8
BLACK
6
CONTINUOUS
10
3.26822
20
1.47256
11
3.26692
21
1.47101
0
LINE
8
BLACK
6
CONTINUOUS
10
3.26692
20
1.47101
11
3.26494
21
1.47066
0
LINE
8
BLACK
6
CONTINUOUS
10
3.26494
20
1.47066
11
3.26319
21
1.47167
0
LINE
8
BLACK
6
CONTINUOUS
10
3.26319
20
1.47167
11
3.2625
21
1.47357
0
LINE
8
BLACK
6
CONTINUOUS
10
3.2625
20
1.47357
11
3.2625
21
1.48186
0
LINE
8
BLACK
6
CONTINUOUS
10
3.2625
20
1.48186
11
3.23508
21
1.48186
0
LINE
8
BLACK
6
CONTINUOUS
10
3.23508
20
1.48186
11
3.23754
21
1.4794
0
LINE
8
BLACK
6
CONTINUOUS
10
3.23754
20
1.4794
11
3.23805
21
1.47868
0
LINE
8
BLACK
6
CONTINUOUS
10
3.23805
20
1.47868
11
3.23809
21
1.47864
0
LINE
8
BLACK
6
CONTINUOUS
10
3.23809
20
1.47864
11
3.23997
21
1.47489
0
LINE
8
BLACK
6
CONTINUOUS
10
3.23997
20
1.47489
11
3.24026
21
1.4739
0
LINE
8
BLACK
6
CONTINUOUS
10
3.24026
20
1.4739
11
3.23979
21
1.47194
0
LINE
8
BLACK
6
CONTINUOUS
10
3.23979
20
1.47194
11
3.23817
21
1.47074
0
LINE
8
BLACK
6
CONTINUOUS
10
3.23817
20
1.47074
11
3.23615
21
1.47086
0
LINE
8
BLACK
6
CONTINUOUS
10
3.23615
20
1.47086
11
3.23469
21
1.47225
0
LINE
8
BLACK
6
CONTINUOUS
10
3.23469
20
1.47225
11
3.23303
21
1.47557
0
LINE
8
BLACK
6
CONTINUOUS
10
3.23303
20
1.47557
11
3.22982
21
1.47877
0
LINE
8
BLACK
6
CONTINUOUS
10
3.22982
20
1.47877
11
3.22444
21
1.48236
0
LINE
8
BLACK
6
CONTINUOUS
10
3.22444
20
1.48236
11
3.2237
21
1.48307
0
LINE
8
BLACK
6
CONTINUOUS
10
3.2237
20
1.48307
11
3.22365
21
1.48323
0
LINE
8
BLACK
6
CONTINUOUS
10
3.22365
20
1.48323
11
3.22352
21
1.48334
0
LINE
8
BLACK
6
CONTINUOUS
10
3.22352
20
1.48334
11
3.22337
21
1.48418
0
LINE
8
BLACK
6
CONTINUOUS
10
3.22337
20
1.48418
11
3.22313
21
1.485
0
LINE
8
BLACK
6
CONTINUOUS
10
3.22313
20
1.485
11
3.2232
21
1.48516
0
LINE
8
BLACK
6
CONTINUOUS
10
3.2232
20
1.48516
11
3.22317
21
1.48533
0
LINE
8
BLACK
6
CONTINUOUS
10
3.22317
20
1.48533
11
3.2236
21
1.48607
0
LINE
8
BLACK
6
CONTINUOUS
10
3.2236
20
1.48607
11
3.22394
21
1.48685
0
LINE
8
BLACK
6
CONTINUOUS
10
3.22394
20
1.48685
11
3.2241
21
1.48693
0
LINE
8
BLACK
6
CONTINUOUS
10
3.2241
20
1.48693
11
3.22418
21
1.48708
0
LINE
8
BLACK
6
CONTINUOUS
10
3.22418
20
1.48708
11
3.22499
21
1.48737
0
LINE
8
BLACK
6
CONTINUOUS
10
3.22499
20
1.48737
11
3.22575
21
1.48775
0
LINE
8
BLACK
6
CONTINUOUS
10
3.22575
20
1.48775
11
3.22592
21
1.48771
0
LINE
8
BLACK
6
CONTINUOUS
10
3.22592
20
1.48771
11
3.22608
21
1.48777
0
LINE
8
BLACK
6
CONTINUOUS
10
3.22608
20
1.48777
11
3.2625
21
1.48777
0
LINE
8
BLACK
6
CONTINUOUS
10
3.2625
20
1.48777
11
3.2625
21
1.49606
0
LINE
8
BLACK
6
CONTINUOUS
10
3.2625
20
1.49606
11
3.26267
21
1.49707
0
LINE
8
BLACK
6
CONTINUOUS
10
3.26267
20
1.49707
11
3.26397
21
1.49862
0
LINE
8
BLACK
6
CONTINUOUS
10
3.26397
20
1.49862
11
3.26596
21
1.49897
0
LINE
8
BLACK
6
CONTINUOUS
10
3.26596
20
1.49897
11
3.26771
21
1.49796
0
LINE
8
BLACK
6
CONTINUOUS
10
3.00132
20
1.53121
11
3.00146
21
1.5311
0
LINE
8
BLACK
6
CONTINUOUS
10
3.00146
20
1.5311
11
3.00163
21
1.53108
0
LINE
8
BLACK
6
CONTINUOUS
10
3.00163
20
1.53108
11
3.00538
21
1.52921
0
LINE
8
BLACK
6
CONTINUOUS
10
3.00538
20
1.52921
11
3.00609
21
1.52868
0
LINE
8
BLACK
6
CONTINUOUS
10
3.00609
20
1.52868
11
3.00615
21
1.52865
0
LINE
8
BLACK
6
CONTINUOUS
10
3.00615
20
1.52865
11
3.00802
21
1.52678
0
LINE
8
BLACK
6
CONTINUOUS
10
3.00802
20
1.52678
11
3.00853
21
1.52606
0
LINE
8
BLACK
6
CONTINUOUS
10
3.00853
20
1.52606
11
3.00858
21
1.52601
0
LINE
8
BLACK
6
CONTINUOUS
10
3.00858
20
1.52601
11
3.01045
21
1.52226
0
LINE
8
BLACK
6
CONTINUOUS
10
3.01045
20
1.52226
11
3.01074
21
1.52128
0
LINE
8
BLACK
6
CONTINUOUS
10
3.01074
20
1.52128
11
3.0107
21
1.52111
0
LINE
8
BLACK
6
CONTINUOUS
10
3.0107
20
1.52111
11
3.01076
21
1.52094
0
LINE
8
BLACK
6
CONTINUOUS
10
3.01076
20
1.52094
11
3.01076
21
1.50594
0
LINE
8
BLACK
6
CONTINUOUS
10
3.01076
20
1.50594
11
3.0107
21
1.50556
0
LINE
8
BLACK
6
CONTINUOUS
10
3.0107
20
1.50556
11
3.01072
21
1.50543
0
LINE
8
BLACK
6
CONTINUOUS
10
3.01072
20
1.50543
11
3.01065
21
1.50532
0
LINE
8
BLACK
6
CONTINUOUS
10
3.01065
20
1.50532
11
3.01058
21
1.50493
0
LINE
8
BLACK
6
CONTINUOUS
10
3.01058
20
1.50493
11
3.01009
21
1.50435
0
LINE
8
BLACK
6
CONTINUOUS
10
3.01009
20
1.50435
11
3.00971
21
1.50368
0
LINE
8
BLACK
6
CONTINUOUS
10
3.00971
20
1.50368
11
3.00946
21
1.50359
0
LINE
8
BLACK
6
CONTINUOUS
10
3.00946
20
1.50359
11
3.00929
21
1.50339
0
LINE
8
BLACK
6
CONTINUOUS
10
3.00929
20
1.50339
11
3.00853
21
1.50325
0
LINE
8
BLACK
6
CONTINUOUS
10
3.00853
20
1.50325
11
3.00781
21
1.50299
0
LINE
8
BLACK
6
CONTINUOUS
10
3.00781
20
1.50299
11
2.96844
21
1.50299
0
LINE
8
BLACK
6
CONTINUOUS
10
2.96844
20
1.50299
11
2.96806
21
1.50306
0
LINE
8
BLACK
6
CONTINUOUS
10
2.96806
20
1.50306
11
2.96793
21
1.50304
0
LINE
8
BLACK
6
CONTINUOUS
10
2.96793
20
1.50304
11
2.96781
21
1.5031
0
LINE
8
BLACK
6
CONTINUOUS
10
2.96781
20
1.5031
11
2.96743
21
1.50317
0
LINE
8
BLACK
6
CONTINUOUS
10
2.96743
20
1.50317
11
2.96684
21
1.50366
0
LINE
8
BLACK
6
CONTINUOUS
10
2.96684
20
1.50366
11
2.96618
21
1.50405
0
LINE
8
BLACK
6
CONTINUOUS
10
2.96618
20
1.50405
11
2.96609
21
1.5043
0
LINE
8
BLACK
6
CONTINUOUS
10
2.96609
20
1.5043
11
2.96588
21
1.50447
0
LINE
8
BLACK
6
CONTINUOUS
10
2.96588
20
1.50447
11
2.96575
21
1.50522
0
LINE
8
BLACK
6
CONTINUOUS
10
2.96575
20
1.50522
11
2.96549
21
1.50594
0
LINE
8
BLACK
6
CONTINUOUS
10
2.96549
20
1.50594
11
2.96549
21
1.51907
0
LINE
8
BLACK
6
CONTINUOUS
10
2.96549
20
1.51907
11
2.96567
21
1.52008
0
LINE
8
BLACK
6
CONTINUOUS
10
2.96567
20
1.52008
11
2.96578
21
1.52021
0
LINE
8
BLACK
6
CONTINUOUS
10
2.96578
20
1.52021
11
2.9658
21
1.52039
0
LINE
8
BLACK
6
CONTINUOUS
10
2.9658
20
1.52039
11
2.96767
21
1.52414
0
LINE
8
BLACK
6
CONTINUOUS
10
2.96767
20
1.52414
11
2.9682
21
1.52485
0
LINE
8
BLACK
6
CONTINUOUS
10
2.9682
20
1.52485
11
2.96823
21
1.5249
0
LINE
8
BLACK
6
CONTINUOUS
10
2.96823
20
1.5249
11
2.9701
21
1.52678
0
LINE
8
BLACK
6
CONTINUOUS
10
2.9701
20
1.52678
11
2.97082
21
1.52728
0
LINE
8
BLACK
6
CONTINUOUS
10
2.97082
20
1.52728
11
2.97087
21
1.52733
0
LINE
8
BLACK
6
CONTINUOUS
10
2.97087
20
1.52733
11
2.97462
21
1.52921
0
LINE
8
BLACK
6
CONTINUOUS
10
2.97462
20
1.52921
11
2.9756
21
1.5295
0
LINE
8
BLACK
6
CONTINUOUS
10
2.9756
20
1.5295
11
2.97577
21
1.52946
0
LINE
8
BLACK
6
CONTINUOUS
10
2.97577
20
1.52946
11
2.97594
21
1.52952
0
LINE
8
BLACK
6
CONTINUOUS
10
2.97594
20
1.52952
11
2.97969
21
1.52952
0
LINE
8
BLACK
6
CONTINUOUS
10
2.97969
20
1.52952
11
2.9807
21
1.52934
0
LINE
8
BLACK
6
CONTINUOUS
10
2.9807
20
1.52934
11
2.98083
21
1.52923
0
LINE
8
BLACK
6
CONTINUOUS
10
2.98083
20
1.52923
11
2.98101
21
1.52921
0
LINE
8
BLACK
6
CONTINUOUS
10
2.98101
20
1.52921
11
2.98476
21
1.52733
0
LINE
8
BLACK
6
CONTINUOUS
10
2.98476
20
1.52733
11
2.98547
21
1.52681
0
LINE
8
BLACK
6
CONTINUOUS
10
2.98547
20
1.52681
11
2.98553
21
1.52678
0
LINE
8
BLACK
6
CONTINUOUS
10
2.98553
20
1.52678
11
2.98641
21
1.5259
0
LINE
8
BLACK
6
CONTINUOUS
10
2.98641
20
1.5259
11
2.98675
21
1.52653
0
LINE
8
BLACK
6
CONTINUOUS
10
2.98675
20
1.52653
11
2.9869
21
1.52662
0
LINE
8
BLACK
6
CONTINUOUS
10
2.9869
20
1.52662
11
2.98697
21
1.52678
0
LINE
8
BLACK
6
CONTINUOUS
10
2.98697
20
1.52678
11
2.98885
21
1.52865
0
LINE
8
BLACK
6
CONTINUOUS
10
2.98885
20
1.52865
11
2.98957
21
1.52916
0
LINE
8
BLACK
6
CONTINUOUS
10
2.98957
20
1.52916
11
2.98962
21
1.52921
0
LINE
8
BLACK
6
CONTINUOUS
10
2.98962
20
1.52921
11
2.99337
21
1.53108
0
LINE
8
BLACK
6
CONTINUOUS
10
2.99337
20
1.53108
11
2.99435
21
1.53137
0
LINE
8
BLACK
6
CONTINUOUS
10
2.99435
20
1.53137
11
2.99452
21
1.53133
0
LINE
8
BLACK
6
CONTINUOUS
10
2.99452
20
1.53133
11
2.99469
21
1.53139
0
LINE
8
BLACK
6
CONTINUOUS
10
2.99469
20
1.53139
11
3.00031
21
1.53139
0
LINE
8
BLACK
6
CONTINUOUS
10
3.00031
20
1.53139
11
3.00132
21
1.53121
0
LINE
8
BLACK
6
CONTINUOUS
10
2.97664
20
1.52361
11
2.97394
21
1.52226
0
LINE
8
BLACK
6
CONTINUOUS
10
2.97394
20
1.52226
11
2.97274
21
1.52107
0
LINE
8
BLACK
6
CONTINUOUS
10
2.97274
20
1.52107
11
2.97139
21
1.51837
0
LINE
8
BLACK
6
CONTINUOUS
10
2.97139
20
1.51837
11
2.97139
21
1.5089
0
LINE
8
BLACK
6
CONTINUOUS
10
2.97139
20
1.5089
11
2.98424
21
1.5089
0
LINE
8
BLACK
6
CONTINUOUS
10
2.98424
20
1.5089
11
2.98424
21
1.51837
0
LINE
8
BLACK
6
CONTINUOUS
10
2.98424
20
1.51837
11
2.98289
21
1.52107
0
LINE
8
BLACK
6
CONTINUOUS
10
2.98289
20
1.52107
11
2.98169
21
1.52226
0
LINE
8
BLACK
6
CONTINUOUS
10
2.98169
20
1.52226
11
2.97899
21
1.52361
0
LINE
8
BLACK
6
CONTINUOUS
10
2.97899
20
1.52361
11
2.97664
21
1.52361
0
LINE
8
BLACK
6
CONTINUOUS
10
2.99538
20
1.52549
11
2.99269
21
1.52414
0
LINE
8
BLACK
6
CONTINUOUS
10
2.99269
20
1.52414
11
2.99164
21
1.5231
0
LINE
8
BLACK
6
CONTINUOUS
10
2.99164
20
1.5231
11
2.99014
21
1.51859
0
LINE
8
BLACK
6
CONTINUOUS
10
2.99014
20
1.51859
11
2.99014
21
1.5089
0
LINE
8
BLACK
6
CONTINUOUS
10
2.99014
20
1.5089
11
3.00486
21
1.5089
0
LINE
8
BLACK
6
CONTINUOUS
10
3.00486
20
1.5089
11
3.00486
21
1.52024
0
LINE
8
BLACK
6
CONTINUOUS
10
3.00486
20
1.52024
11
3.00351
21
1.52294
0
LINE
8
BLACK
6
CONTINUOUS
10
3.00351
20
1.52294
11
3.00231
21
1.52414
0
LINE
8
BLACK
6
CONTINUOUS
10
3.00231
20
1.52414
11
2.99961
21
1.52549
0
LINE
8
BLACK
6
CONTINUOUS
10
2.99961
20
1.52549
11
2.99538
21
1.52549
0
LINE
8
BLACK
6
CONTINUOUS
10
3.23646
20
1.53633
11
3.2366
21
1.53622
0
LINE
8
BLACK
6
CONTINUOUS
10
3.2366
20
1.53622
11
3.23677
21
1.5362
0
LINE
8
BLACK
6
CONTINUOUS
10
3.23677
20
1.5362
11
3.24052
21
1.53432
0
LINE
8
BLACK
6
CONTINUOUS
10
3.24052
20
1.53432
11
3.24123
21
1.5338
0
LINE
8
BLACK
6
CONTINUOUS
10
3.24123
20
1.5338
11
3.24129
21
1.53377
0
LINE
8
BLACK
6
CONTINUOUS
10
3.24129
20
1.53377
11
3.24295
21
1.53211
0
LINE
8
BLACK
6
CONTINUOUS
10
3.24295
20
1.53211
11
3.24461
21
1.53377
0
LINE
8
BLACK
6
CONTINUOUS
10
3.24461
20
1.53377
11
3.24534
21
1.53428
0
LINE
8
BLACK
6
CONTINUOUS
10
3.24534
20
1.53428
11
3.24538
21
1.53432
0
LINE
8
BLACK
6
CONTINUOUS
10
3.24538
20
1.53432
11
3.24913
21
1.5362
0
LINE
8
BLACK
6
CONTINUOUS
10
3.24913
20
1.5362
11
3.25011
21
1.53649
0
LINE
8
BLACK
6
CONTINUOUS
10
3.25011
20
1.53649
11
3.25028
21
1.53645
0
LINE
8
BLACK
6
CONTINUOUS
10
3.25028
20
1.53645
11
3.25045
21
1.53651
0
LINE
8
BLACK
6
CONTINUOUS
10
3.25045
20
1.53651
11
3.25795
21
1.53651
0
LINE
8
BLACK
6
CONTINUOUS
10
3.25795
20
1.53651
11
3.25896
21
1.53633
0
LINE
8
BLACK
6
CONTINUOUS
10
3.25896
20
1.53633
11
3.25909
21
1.53622
0
LINE
8
BLACK
6
CONTINUOUS
10
3.25909
20
1.53622
11
3.25927
21
1.5362
0
LINE
8
BLACK
6
CONTINUOUS
10
3.25927
20
1.5362
11
3.26302
21
1.53432
0
LINE
8
BLACK
6
CONTINUOUS
10
3.26302
20
1.53432
11
3.26373
21
1.5338
0
LINE
8
BLACK
6
CONTINUOUS
10
3.26373
20
1.5338
11
3.26379
21
1.53377
0
LINE
8
BLACK
6
CONTINUOUS
10
3.26379
20
1.53377
11
3.26566
21
1.5319
0
LINE
8
BLACK
6
CONTINUOUS
10
3.26566
20
1.5319
11
3.26617
21
1.53117
0
LINE
8
BLACK
6
CONTINUOUS
10
3.26617
20
1.53117
11
3.26621
21
1.53113
0
LINE
8
BLACK
6
CONTINUOUS
10
3.26621
20
1.53113
11
3.26809
21
1.52738
0
LINE
8
BLACK
6
CONTINUOUS
10
3.26809
20
1.52738
11
3.26838
21
1.5264
0
LINE
8
BLACK
6
CONTINUOUS
10
3.26838
20
1.5264
11
3.26834
21
1.52623
0
LINE
8
BLACK
6
CONTINUOUS
10
3.26834
20
1.52623
11
3.2684
21
1.52606
0
LINE
8
BLACK
6
CONTINUOUS
10
3.2684
20
1.52606
11
3.2684
21
1.51856
0
LINE
8
BLACK
6
CONTINUOUS
10
3.2684
20
1.51856
11
3.26822
21
1.51755
0
LINE
8
BLACK
6
CONTINUOUS
10
3.26822
20
1.51755
11
3.26811
21
1.51742
0
LINE
8
BLACK
6
CONTINUOUS
10
3.26811
20
1.51742
11
3.26809
21
1.51724
0
LINE
8
BLACK
6
CONTINUOUS
10
3.26809
20
1.51724
11
3.26621
21
1.51349
0
LINE
8
BLACK
6
CONTINUOUS
10
3.26621
20
1.51349
11
3.26569
21
1.51278
0
LINE
8
BLACK
6
CONTINUOUS
10
3.26569
20
1.51278
11
3.26566
21
1.51272
0
LINE
8
BLACK
6
CONTINUOUS
10
3.26566
20
1.51272
11
3.26379
21
1.51085
0
LINE
8
BLACK
6
CONTINUOUS
10
3.26379
20
1.51085
11
3.26306
21
1.51034
0
LINE
8
BLACK
6
CONTINUOUS
10
3.26306
20
1.51034
11
3.26302
21
1.51029
0
LINE
8
BLACK
6
CONTINUOUS
10
3.26302
20
1.51029
11
3.25927
21
1.50842
0
LINE
8
BLACK
6
CONTINUOUS
10
3.25927
20
1.50842
11
3.25829
21
1.50813
0
LINE
8
BLACK
6
CONTINUOUS
10
3.25829
20
1.50813
11
3.25811
21
1.50817
0
LINE
8
BLACK
6
CONTINUOUS
10
3.25811
20
1.50817
11
3.25795
21
1.50811
0
LINE
8
BLACK
6
CONTINUOUS
10
3.25795
20
1.50811
11
3.25045
21
1.50811
0
LINE
8
BLACK
6
CONTINUOUS
10
3.25045
20
1.50811
11
3.24944
21
1.50829
0
LINE
8
BLACK
6
CONTINUOUS
10
3.24944
20
1.50829
11
3.2493
21
1.5084
0
LINE
8
BLACK
6
CONTINUOUS
10
3.2493
20
1.5084
11
3.24913
21
1.50842
0
LINE
8
BLACK
6
CONTINUOUS
10
3.24913
20
1.50842
11
3.24538
21
1.51029
0
LINE
8
BLACK
6
CONTINUOUS
10
3.24538
20
1.51029
11
3.24467
21
1.51082
0
LINE
8
BLACK
6
CONTINUOUS
10
3.24467
20
1.51082
11
3.24461
21
1.51085
0
LINE
8
BLACK
6
CONTINUOUS
10
3.24461
20
1.51085
11
3.24295
21
1.51251
0
LINE
8
BLACK
6
CONTINUOUS
10
3.24295
20
1.51251
11
3.24129
21
1.51085
0
LINE
8
BLACK
6
CONTINUOUS
10
3.24129
20
1.51085
11
3.24057
21
1.51034
0
LINE
8
BLACK
6
CONTINUOUS
10
3.24057
20
1.51034
11
3.24052
21
1.51029
0
LINE
8
BLACK
6
CONTINUOUS
10
3.24052
20
1.51029
11
3.23677
21
1.50842
0
LINE
8
BLACK
6
CONTINUOUS
10
3.23677
20
1.50842
11
3.23579
21
1.50813
0
LINE
8
BLACK
6
CONTINUOUS
10
3.23579
20
1.50813
11
3.23562
21
1.50817
0
LINE
8
BLACK
6
CONTINUOUS
10
3.23562
20
1.50817
11
3.23545
21
1.50811
0
LINE
8
BLACK
6
CONTINUOUS
10
3.23545
20
1.50811
11
3.23358
21
1.50811
0
LINE
8
BLACK
6
CONTINUOUS
10
3.23358
20
1.50811
11
3.23257
21
1.50829
0
LINE
8
BLACK
6
CONTINUOUS
10
3.23257
20
1.50829
11
3.23243
21
1.5084
0
LINE
8
BLACK
6
CONTINUOUS
10
3.23243
20
1.5084
11
3.23226
21
1.50842
0
LINE
8
BLACK
6
CONTINUOUS
10
3.23226
20
1.50842
11
3.22851
21
1.51029
0
LINE
8
BLACK
6
CONTINUOUS
10
3.22851
20
1.51029
11
3.2278
21
1.51082
0
LINE
8
BLACK
6
CONTINUOUS
10
3.2278
20
1.51082
11
3.22774
21
1.51085
0
LINE
8
BLACK
6
CONTINUOUS
10
3.22774
20
1.51085
11
3.22586
21
1.51272
0
LINE
8
BLACK
6
CONTINUOUS
10
3.22586
20
1.51272
11
3.22536
21
1.51345
0
LINE
8
BLACK
6
CONTINUOUS
10
3.22536
20
1.51345
11
3.22531
21
1.51349
0
LINE
8
BLACK
6
CONTINUOUS
10
3.22531
20
1.51349
11
3.22344
21
1.51724
0
LINE
8
BLACK
6
CONTINUOUS
10
3.22344
20
1.51724
11
3.22314
21
1.51822
0
LINE
8
BLACK
6
CONTINUOUS
10
3.22314
20
1.51822
11
3.22319
21
1.51839
0
LINE
8
BLACK
6
CONTINUOUS
10
3.22319
20
1.51839
11
3.22313
21
1.51856
0
LINE
8
BLACK
6
CONTINUOUS
10
3.22313
20
1.51856
11
3.22313
21
1.52606
0
LINE
8
BLACK
6
CONTINUOUS
10
3.22313
20
1.52606
11
3.2233
21
1.52707
0
LINE
8
BLACK
6
CONTINUOUS
10
3.2233
20
1.52707
11
3.22342
21
1.5272
0
LINE
8
BLACK
6
CONTINUOUS
10
3.22342
20
1.5272
11
3.22344
21
1.52738
0
LINE
8
BLACK
6
CONTINUOUS
10
3.22344
20
1.52738
11
3.22531
21
1.53113
0
LINE
8
BLACK
6
CONTINUOUS
10
3.22531
20
1.53113
11
3.22584
21
1.53184
0
LINE
8
BLACK
6
CONTINUOUS
10
3.22584
20
1.53184
11
3.22586
21
1.5319
0
LINE
8
BLACK
6
CONTINUOUS
10
3.22586
20
1.5319
11
3.22774
21
1.53377
0
LINE
8
BLACK
6
CONTINUOUS
10
3.22774
20
1.53377
11
3.22846
21
1.53428
0
LINE
8
BLACK
6
CONTINUOUS
10
3.22846
20
1.53428
11
3.22851
21
1.53432
0
LINE
8
BLACK
6
CONTINUOUS
10
3.22851
20
1.53432
11
3.23226
21
1.5362
0
LINE
8
BLACK
6
CONTINUOUS
10
3.23226
20
1.5362
11
3.23324
21
1.53649
0
LINE
8
BLACK
6
CONTINUOUS
10
3.23324
20
1.53649
11
3.23341
21
1.53645
0
LINE
8
BLACK
6
CONTINUOUS
10
3.23341
20
1.53645
11
3.23358
21
1.53651
0
LINE
8
BLACK
6
CONTINUOUS
10
3.23358
20
1.53651
11
3.23545
21
1.53651
0
LINE
8
BLACK
6
CONTINUOUS
10
3.23545
20
1.53651
11
3.23646
21
1.53633
0
LINE
8
BLACK
6
CONTINUOUS
10
3.25115
20
1.53061
11
3.24845
21
1.52926
0
LINE
8
BLACK
6
CONTINUOUS
10
3.24845
20
1.52926
11
3.24725
21
1.52806
0
LINE
8
BLACK
6
CONTINUOUS
10
3.24725
20
1.52806
11
3.2459
21
1.52536
0
LINE
8
BLACK
6
CONTINUOUS
10
3.2459
20
1.52536
11
3.2459
21
1.51926
0
LINE
8
BLACK
6
CONTINUOUS
10
3.2459
20
1.51926
11
3.24725
21
1.51656
0
LINE
8
BLACK
6
CONTINUOUS
10
3.24725
20
1.51656
11
3.24845
21
1.51536
0
LINE
8
BLACK
6
CONTINUOUS
10
3.24845
20
1.51536
11
3.25115
21
1.51401
0
LINE
8
BLACK
6
CONTINUOUS
10
3.25115
20
1.51401
11
3.25725
21
1.51401
0
LINE
8
BLACK
6
CONTINUOUS
10
3.25725
20
1.51401
11
3.25995
21
1.51536
0
LINE
8
BLACK
6
CONTINUOUS
10
3.25995
20
1.51536
11
3.26115
21
1.51656
0
LINE
8
BLACK
6
CONTINUOUS
10
3.26115
20
1.51656
11
3.2625
21
1.51926
0
LINE
8
BLACK
6
CONTINUOUS
10
3.2625
20
1.51926
11
3.2625
21
1.52536
0
LINE
8
BLACK
6
CONTINUOUS
10
3.2625
20
1.52536
11
3.26115
21
1.52806
0
LINE
8
BLACK
6
CONTINUOUS
10
3.26115
20
1.52806
11
3.25995
21
1.52926
0
LINE
8
BLACK
6
CONTINUOUS
10
3.25995
20
1.52926
11
3.25725
21
1.53061
0
LINE
8
BLACK
6
CONTINUOUS
10
3.25725
20
1.53061
11
3.25115
21
1.53061
0
LINE
8
BLACK
6
CONTINUOUS
10
3.23427
20
1.53061
11
3.23158
21
1.52926
0
LINE
8
BLACK
6
CONTINUOUS
10
3.23158
20
1.52926
11
3.23038
21
1.52806
0
LINE
8
BLACK
6
CONTINUOUS
10
3.23038
20
1.52806
11
3.22903
21
1.52536
0
LINE
8
BLACK
6
CONTINUOUS
10
3.22903
20
1.52536
11
3.22903
21
1.51926
0
LINE
8
BLACK
6
CONTINUOUS
10
3.22903
20
1.51926
11
3.23038
21
1.51656
0
LINE
8
BLACK
6
CONTINUOUS
10
3.23038
20
1.51656
11
3.23158
21
1.51536
0
LINE
8
BLACK
6
CONTINUOUS
10
3.23158
20
1.51536
11
3.23427
21
1.51401
0
LINE
8
BLACK
6
CONTINUOUS
10
3.23427
20
1.51401
11
3.23475
21
1.51401
0
LINE
8
BLACK
6
CONTINUOUS
10
3.23475
20
1.51401
11
3.23745
21
1.51536
0
LINE
8
BLACK
6
CONTINUOUS
10
3.23745
20
1.51536
11
3.23865
21
1.51656
0
LINE
8
BLACK
6
CONTINUOUS
10
3.23865
20
1.51656
11
3.24
21
1.51926
0
LINE
8
BLACK
6
CONTINUOUS
10
3.24
20
1.51926
11
3.24
21
1.52536
0
LINE
8
BLACK
6
CONTINUOUS
10
3.24
20
1.52536
11
3.23865
21
1.52806
0
LINE
8
BLACK
6
CONTINUOUS
10
3.23865
20
1.52806
11
3.23745
21
1.52926
0
LINE
8
BLACK
6
CONTINUOUS
10
3.23745
20
1.52926
11
3.23475
21
1.53061
0
LINE
8
BLACK
6
CONTINUOUS
10
3.23475
20
1.53061
11
3.23427
21
1.53061
0
LINE
8
BLACK
6
CONTINUOUS
10
2.9707
20
1.56408
11
2.97139
21
1.56219
0
LINE
8
BLACK
6
CONTINUOUS
10
2.97139
20
1.56219
11
2.97139
21
1.55389
0
LINE
8
BLACK
6
CONTINUOUS
10
2.97139
20
1.55389
11
3.00781
21
1.55389
0
LINE
8
BLACK
6
CONTINUOUS
10
3.00781
20
1.55389
11
3.00882
21
1.55371
0
LINE
8
BLACK
6
CONTINUOUS
10
3.00882
20
1.55371
11
3.01037
21
1.55241
0
LINE
8
BLACK
6
CONTINUOUS
10
3.01037
20
1.55241
11
3.01072
21
1.55042
0
LINE
8
BLACK
6
CONTINUOUS
10
3.01072
20
1.55042
11
3.00971
21
1.54868
0
LINE
8
BLACK
6
CONTINUOUS
10
3.00971
20
1.54868
11
3.00781
21
1.54798
0
LINE
8
BLACK
6
CONTINUOUS
10
3.00781
20
1.54798
11
2.97139
21
1.54798
0
LINE
8
BLACK
6
CONTINUOUS
10
2.97139
20
1.54798
11
2.97139
21
1.53969
0
LINE
8
BLACK
6
CONTINUOUS
10
2.97139
20
1.53969
11
2.97121
21
1.53868
0
LINE
8
BLACK
6
CONTINUOUS
10
2.97121
20
1.53868
11
2.96992
21
1.53713
0
LINE
8
BLACK
6
CONTINUOUS
10
2.96992
20
1.53713
11
2.96793
21
1.53678
0
LINE
8
BLACK
6
CONTINUOUS
10
2.96793
20
1.53678
11
2.96618
21
1.53779
0
LINE
8
BLACK
6
CONTINUOUS
10
2.96618
20
1.53779
11
2.96549
21
1.53969
0
LINE
8
BLACK
6
CONTINUOUS
10
2.96549
20
1.53969
11
2.96549
21
1.56219
0
LINE
8
BLACK
6
CONTINUOUS
10
2.96549
20
1.56219
11
2.96567
21
1.5632
0
LINE
8
BLACK
6
CONTINUOUS
10
2.96567
20
1.5632
11
2.96696
21
1.56474
0
LINE
8
BLACK
6
CONTINUOUS
10
2.96696
20
1.56474
11
2.96895
21
1.56509
0
LINE
8
BLACK
6
CONTINUOUS
10
2.96895
20
1.56509
11
2.9707
21
1.56408
0
LINE
8
BLACK
6
CONTINUOUS
10
3.25896
20
1.57383
11
3.25909
21
1.57371
0
LINE
8
BLACK
6
CONTINUOUS
10
3.25909
20
1.57371
11
3.25927
21
1.57369
0
LINE
8
BLACK
6
CONTINUOUS
10
3.25927
20
1.57369
11
3.26302
21
1.57182
0
LINE
8
BLACK
6
CONTINUOUS
10
3.26302
20
1.57182
11
3.26373
21
1.57129
0
LINE
8
BLACK
6
CONTINUOUS
10
3.26373
20
1.57129
11
3.26379
21
1.57127
0
LINE
8
BLACK
6
CONTINUOUS
10
3.26379
20
1.57127
11
3.26566
21
1.56939
0
LINE
8
BLACK
6
CONTINUOUS
10
3.26566
20
1.56939
11
3.26617
21
1.56867
0
LINE
8
BLACK
6
CONTINUOUS
10
3.26617
20
1.56867
11
3.26621
21
1.56862
0
LINE
8
BLACK
6
CONTINUOUS
10
3.26621
20
1.56862
11
3.26809
21
1.56488
0
LINE
8
BLACK
6
CONTINUOUS
10
3.26809
20
1.56488
11
3.26838
21
1.56389
0
LINE
8
BLACK
6
CONTINUOUS
10
3.26838
20
1.56389
11
3.26834
21
1.56372
0
LINE
8
BLACK
6
CONTINUOUS
10
3.26834
20
1.56372
11
3.2684
21
1.56355
0
LINE
8
BLACK
6
CONTINUOUS
10
3.2684
20
1.56355
11
3.2684
21
1.55606
0
LINE
8
BLACK
6
CONTINUOUS
10
3.2684
20
1.55606
11
3.26822
21
1.55505
0
LINE
8
BLACK
6
CONTINUOUS
10
3.26822
20
1.55505
11
3.26811
21
1.55491
0
LINE
8
BLACK
6
CONTINUOUS
10
3.26811
20
1.55491
11
3.26809
21
1.55473
0
LINE
8
BLACK
6
CONTINUOUS
10
3.26809
20
1.55473
11
3.26621
21
1.55099
0
LINE
8
BLACK
6
CONTINUOUS
10
3.26621
20
1.55099
11
3.26569
21
1.55028
0
LINE
8
BLACK
6
CONTINUOUS
10
3.26569
20
1.55028
11
3.26566
21
1.55022
0
LINE
8
BLACK
6
CONTINUOUS
10
3.26566
20
1.55022
11
3.26379
21
1.54834
0
LINE
8
BLACK
6
CONTINUOUS
10
3.26379
20
1.54834
11
3.26306
21
1.54784
0
LINE
8
BLACK
6
CONTINUOUS
10
3.26306
20
1.54784
11
3.26302
21
1.54779
0
LINE
8
BLACK
6
CONTINUOUS
10
3.26302
20
1.54779
11
3.25927
21
1.54592
0
LINE
8
BLACK
6
CONTINUOUS
10
3.25927
20
1.54592
11
3.25829
21
1.54562
0
LINE
8
BLACK
6
CONTINUOUS
10
3.25829
20
1.54562
11
3.25811
21
1.54566
0
LINE
8
BLACK
6
CONTINUOUS
10
3.25811
20
1.54566
11
3.25795
21
1.5456
0
LINE
8
BLACK
6
CONTINUOUS
10
3.25795
20
1.5456
11
3.24295
21
1.5456
0
LINE
8
BLACK
6
CONTINUOUS
10
3.24295
20
1.5456
11
3.24237
21
1.54571
0
LINE
8
BLACK
6
CONTINUOUS
10
3.24237
20
1.54571
11
3.24223
21
1.54569
0
LINE
8
BLACK
6
CONTINUOUS
10
3.24223
20
1.54569
11
3.23474
21
1.54757
0
LINE
8
BLACK
6
CONTINUOUS
10
3.23474
20
1.54757
11
3.23383
21
1.54797
0
LINE
8
BLACK
6
CONTINUOUS
10
3.23383
20
1.54797
11
3.23381
21
1.54797
0
LINE
8
BLACK
6
CONTINUOUS
10
3.23381
20
1.54797
11
3.22819
21
1.55172
0
LINE
8
BLACK
6
CONTINUOUS
10
3.22819
20
1.55172
11
3.22786
21
1.55203
0
LINE
8
BLACK
6
CONTINUOUS
10
3.22786
20
1.55203
11
3.22774
21
1.55209
0
LINE
8
BLACK
6
CONTINUOUS
10
3.22774
20
1.55209
11
3.22586
21
1.55397
0
LINE
8
BLACK
6
CONTINUOUS
10
3.22586
20
1.55397
11
3.22536
21
1.55469
0
LINE
8
BLACK
6
CONTINUOUS
10
3.22536
20
1.55469
11
3.22531
21
1.55473
0
LINE
8
BLACK
6
CONTINUOUS
10
3.22531
20
1.55473
11
3.22344
21
1.55848
0
LINE
8
BLACK
6
CONTINUOUS
10
3.22344
20
1.55848
11
3.22314
21
1.55947
0
LINE
8
BLACK
6
CONTINUOUS
10
3.22314
20
1.55947
11
3.22319
21
1.55964
0
LINE
8
BLACK
6
CONTINUOUS
10
3.22319
20
1.55964
11
3.22313
21
1.55981
0
LINE
8
BLACK
6
CONTINUOUS
10
3.22313
20
1.55981
11
3.22313
21
1.5673
0
LINE
8
BLACK
6
CONTINUOUS
10
3.22313
20
1.5673
11
3.2233
21
1.56831
0
LINE
8
BLACK
6
CONTINUOUS
10
3.2233
20
1.56831
11
3.2246
21
1.56986
0
LINE
8
BLACK
6
CONTINUOUS
10
3.2246
20
1.56986
11
3.22659
21
1.57021
0
LINE
8
BLACK
6
CONTINUOUS
10
3.22659
20
1.57021
11
3.22834
21
1.5692
0
LINE
8
BLACK
6
CONTINUOUS
10
3.22834
20
1.5692
11
3.22903
21
1.5673
0
LINE
8
BLACK
6
CONTINUOUS
10
3.22903
20
1.5673
11
3.22903
21
1.5605
0
LINE
8
BLACK
6
CONTINUOUS
10
3.22903
20
1.5605
11
3.23038
21
1.5578
0
LINE
8
BLACK
6
CONTINUOUS
10
3.23038
20
1.5578
11
3.23171
21
1.55648
0
LINE
8
BLACK
6
CONTINUOUS
10
3.23171
20
1.55648
11
3.23666
21
1.55317
0
LINE
8
BLACK
6
CONTINUOUS
10
3.23666
20
1.55317
11
3.23958
21
1.55244
0
LINE
8
BLACK
6
CONTINUOUS
10
3.23958
20
1.55244
11
3.23844
21
1.55473
0
LINE
8
BLACK
6
CONTINUOUS
10
3.23844
20
1.55473
11
3.23814
21
1.55572
0
LINE
8
BLACK
6
CONTINUOUS
10
3.23814
20
1.55572
11
3.23818
21
1.55589
0
LINE
8
BLACK
6
CONTINUOUS
10
3.23818
20
1.55589
11
3.23812
21
1.55606
0
LINE
8
BLACK
6
CONTINUOUS
10
3.23812
20
1.55606
11
3.23812
21
1.56355
0
LINE
8
BLACK
6
CONTINUOUS
10
3.23812
20
1.56355
11
3.2383
21
1.56456
0
LINE
8
BLACK
6
CONTINUOUS
10
3.2383
20
1.56456
11
3.23841
21
1.5647
0
LINE
8
BLACK
6
CONTINUOUS
10
3.23841
20
1.5647
11
3.23844
21
1.56488
0
LINE
8
BLACK
6
CONTINUOUS
10
3.23844
20
1.56488
11
3.24031
21
1.56862
0
LINE
8
BLACK
6
CONTINUOUS
10
3.24031
20
1.56862
11
3.24084
21
1.56933
0
LINE
8
BLACK
6
CONTINUOUS
10
3.24084
20
1.56933
11
3.24086
21
1.56939
0
LINE
8
BLACK
6
CONTINUOUS
10
3.24086
20
1.56939
11
3.24274
21
1.57127
0
LINE
8
BLACK
6
CONTINUOUS
10
3.24274
20
1.57127
11
3.24346
21
1.57177
0
LINE
8
BLACK
6
CONTINUOUS
10
3.24346
20
1.57177
11
3.24351
21
1.57182
0
LINE
8
BLACK
6
CONTINUOUS
10
3.24351
20
1.57182
11
3.24725
21
1.57369
0
LINE
8
BLACK
6
CONTINUOUS
10
3.24725
20
1.57369
11
3.24824
21
1.57399
0
LINE
8
BLACK
6
CONTINUOUS
10
3.24824
20
1.57399
11
3.24841
21
1.57395
0
LINE
8
BLACK
6
CONTINUOUS
10
3.24841
20
1.57395
11
3.24858
21
1.57401
0
LINE
8
BLACK
6
CONTINUOUS
10
3.24858
20
1.57401
11
3.25795
21
1.57401
0
LINE
8
BLACK
6
CONTINUOUS
10
3.25795
20
1.57401
11
3.25896
21
1.57383
0
LINE
8
BLACK
6
CONTINUOUS
10
3.24927
20
1.5681
11
3.24657
21
1.56675
0
LINE
8
BLACK
6
CONTINUOUS
10
3.24657
20
1.56675
11
3.24538
21
1.56556
0
LINE
8
BLACK
6
CONTINUOUS
10
3.24538
20
1.56556
11
3.24403
21
1.56286
0
LINE
8
BLACK
6
CONTINUOUS
10
3.24403
20
1.56286
11
3.24403
21
1.55675
0
LINE
8
BLACK
6
CONTINUOUS
10
3.24403
20
1.55675
11
3.24538
21
1.55406
0
LINE
8
BLACK
6
CONTINUOUS
10
3.24538
20
1.55406
11
3.24657
21
1.55286
0
LINE
8
BLACK
6
CONTINUOUS
10
3.24657
20
1.55286
11
3.24927
21
1.55151
0
LINE
8
BLACK
6
CONTINUOUS
10
3.24927
20
1.55151
11
3.25725
21
1.55151
0
LINE
8
BLACK
6
CONTINUOUS
10
3.25725
20
1.55151
11
3.25995
21
1.55286
0
LINE
8
BLACK
6
CONTINUOUS
10
3.25995
20
1.55286
11
3.26115
21
1.55406
0
LINE
8
BLACK
6
CONTINUOUS
10
3.26115
20
1.55406
11
3.2625
21
1.55675
0
LINE
8
BLACK
6
CONTINUOUS
10
3.2625
20
1.55675
11
3.2625
21
1.56286
0
LINE
8
BLACK
6
CONTINUOUS
10
3.2625
20
1.56286
11
3.26115
21
1.56556
0
LINE
8
BLACK
6
CONTINUOUS
10
3.26115
20
1.56556
11
3.25995
21
1.56675
0
LINE
8
BLACK
6
CONTINUOUS
10
3.25995
20
1.56675
11
3.25725
21
1.5681
0
LINE
8
BLACK
6
CONTINUOUS
10
3.25725
20
1.5681
11
3.24927
21
1.5681
0
LINE
8
BLACK
6
CONTINUOUS
10
3.01007
20
1.59783
11
3.01076
21
1.59593
0
LINE
8
BLACK
6
CONTINUOUS
10
3.01076
20
1.59593
11
3.01076
21
1.57343
0
LINE
8
BLACK
6
CONTINUOUS
10
3.01076
20
1.57343
11
3.01058
21
1.57242
0
LINE
8
BLACK
6
CONTINUOUS
10
3.01058
20
1.57242
11
3.00929
21
1.57088
0
LINE
8
BLACK
6
CONTINUOUS
10
3.00929
20
1.57088
11
3.0073
21
1.57053
0
LINE
8
BLACK
6
CONTINUOUS
10
3.0073
20
1.57053
11
3.00555
21
1.57154
0
LINE
8
BLACK
6
CONTINUOUS
10
3.00555
20
1.57154
11
3.00486
21
1.57343
0
LINE
8
BLACK
6
CONTINUOUS
10
3.00486
20
1.57343
11
3.00486
21
1.58173
0
LINE
8
BLACK
6
CONTINUOUS
10
3.00486
20
1.58173
11
2.97744
21
1.58173
0
LINE
8
BLACK
6
CONTINUOUS
10
2.97744
20
1.58173
11
2.9799
21
1.57927
0
LINE
8
BLACK
6
CONTINUOUS
10
2.9799
20
1.57927
11
2.98041
21
1.57855
0
LINE
8
BLACK
6
CONTINUOUS
10
2.98041
20
1.57855
11
2.98046
21
1.5785
0
LINE
8
BLACK
6
CONTINUOUS
10
2.98046
20
1.5785
11
2.98233
21
1.57476
0
LINE
8
BLACK
6
CONTINUOUS
10
2.98233
20
1.57476
11
2.98262
21
1.57377
0
LINE
8
BLACK
6
CONTINUOUS
10
2.98262
20
1.57377
11
2.98215
21
1.57181
0
LINE
8
BLACK
6
CONTINUOUS
10
2.98215
20
1.57181
11
2.98053
21
1.5706
0
LINE
8
BLACK
6
CONTINUOUS
10
2.98053
20
1.5706
11
2.97851
21
1.57073
0
LINE
8
BLACK
6
CONTINUOUS
10
2.97851
20
1.57073
11
2.97705
21
1.57211
0
LINE
8
BLACK
6
CONTINUOUS
10
2.97705
20
1.57211
11
2.97539
21
1.57544
0
LINE
8
BLACK
6
CONTINUOUS
10
2.97539
20
1.57544
11
2.97218
21
1.57864
0
LINE
8
BLACK
6
CONTINUOUS
10
2.97218
20
1.57864
11
2.9668
21
1.58223
0
LINE
8
BLACK
6
CONTINUOUS
10
2.9668
20
1.58223
11
2.96606
21
1.58293
0
LINE
8
BLACK
6
CONTINUOUS
10
2.96606
20
1.58293
11
2.96601
21
1.5831
0
LINE
8
BLACK
6
CONTINUOUS
10
2.96601
20
1.5831
11
2.96588
21
1.58321
0
LINE
8
BLACK
6
CONTINUOUS
10
2.96588
20
1.58321
11
2.96573
21
1.58405
0
LINE
8
BLACK
6
CONTINUOUS
10
2.96573
20
1.58405
11
2.96549
21
1.58487
0
LINE
8
BLACK
6
CONTINUOUS
10
2.96549
20
1.58487
11
2.96556
21
1.58503
0
LINE
8
BLACK
6
CONTINUOUS
10
2.96556
20
1.58503
11
2.96553
21
1.5852
0
LINE
8
BLACK
6
CONTINUOUS
10
2.96553
20
1.5852
11
2.96596
21
1.58594
0
LINE
8
BLACK
6
CONTINUOUS
10
2.96596
20
1.58594
11
2.96631
21
1.58672
0
LINE
8
BLACK
6
CONTINUOUS
10
2.96631
20
1.58672
11
2.96646
21
1.5868
0
LINE
8
BLACK
6
CONTINUOUS
10
2.96646
20
1.5868
11
2.96654
21
1.58695
0
LINE
8
BLACK
6
CONTINUOUS
10
2.96654
20
1.58695
11
2.96735
21
1.58724
0
LINE
8
BLACK
6
CONTINUOUS
10
2.96735
20
1.58724
11
2.96812
21
1.58762
0
LINE
8
BLACK
6
CONTINUOUS
10
2.96812
20
1.58762
11
2.96828
21
1.58758
0
LINE
8
BLACK
6
CONTINUOUS
10
2.96828
20
1.58758
11
2.96844
21
1.58764
0
LINE
8
BLACK
6
CONTINUOUS
10
2.96844
20
1.58764
11
3.00486
21
1.58764
0
LINE
8
BLACK
6
CONTINUOUS
10
3.00486
20
1.58764
11
3.00486
21
1.59593
0
LINE
8
BLACK
6
CONTINUOUS
10
3.00486
20
1.59593
11
3.00504
21
1.59694
0
LINE
8
BLACK
6
CONTINUOUS
10
3.00504
20
1.59694
11
3.00633
21
1.59849
0
LINE
8
BLACK
6
CONTINUOUS
10
3.00633
20
1.59849
11
3.00832
21
1.59884
0
LINE
8
BLACK
6
CONTINUOUS
10
3.00832
20
1.59884
11
3.01007
21
1.59783
0
LINE
8
BLACK
6
CONTINUOUS
10
3.25896
20
1.61132
11
3.25909
21
1.61121
0
LINE
8
BLACK
6
CONTINUOUS
10
3.25909
20
1.61121
11
3.25927
21
1.61119
0
LINE
8
BLACK
6
CONTINUOUS
10
3.25927
20
1.61119
11
3.26302
21
1.60932
0
LINE
8
BLACK
6
CONTINUOUS
10
3.26302
20
1.60932
11
3.26373
21
1.60879
0
LINE
8
BLACK
6
CONTINUOUS
10
3.26373
20
1.60879
11
3.26379
21
1.60876
0
LINE
8
BLACK
6
CONTINUOUS
10
3.26379
20
1.60876
11
3.26566
21
1.60689
0
LINE
8
BLACK
6
CONTINUOUS
10
3.26566
20
1.60689
11
3.26617
21
1.60616
0
LINE
8
BLACK
6
CONTINUOUS
10
3.26617
20
1.60616
11
3.26621
21
1.60612
0
LINE
8
BLACK
6
CONTINUOUS
10
3.26621
20
1.60612
11
3.26809
21
1.60237
0
LINE
8
BLACK
6
CONTINUOUS
10
3.26809
20
1.60237
11
3.26838
21
1.60139
0
LINE
8
BLACK
6
CONTINUOUS
10
3.26838
20
1.60139
11
3.26834
21
1.60122
0
LINE
8
BLACK
6
CONTINUOUS
10
3.26834
20
1.60122
11
3.2684
21
1.60105
0
LINE
8
BLACK
6
CONTINUOUS
10
3.2684
20
1.60105
11
3.2684
21
1.59168
0
LINE
8
BLACK
6
CONTINUOUS
10
3.2684
20
1.59168
11
3.26822
21
1.59067
0
LINE
8
BLACK
6
CONTINUOUS
10
3.26822
20
1.59067
11
3.26811
21
1.59053
0
LINE
8
BLACK
6
CONTINUOUS
10
3.26811
20
1.59053
11
3.26809
21
1.59036
0
LINE
8
BLACK
6
CONTINUOUS
10
3.26809
20
1.59036
11
3.26621
21
1.58661
0
LINE
8
BLACK
6
CONTINUOUS
10
3.26621
20
1.58661
11
3.26569
21
1.5859
0
LINE
8
BLACK
6
CONTINUOUS
10
3.26569
20
1.5859
11
3.26566
21
1.58584
0
LINE
8
BLACK
6
CONTINUOUS
10
3.26566
20
1.58584
11
3.26379
21
1.58396
0
LINE
8
BLACK
6
CONTINUOUS
10
3.26379
20
1.58396
11
3.26295
21
1.58338
0
LINE
8
BLACK
6
CONTINUOUS
10
3.26295
20
1.58338
11
3.26093
21
1.5832
0
LINE
8
BLACK
6
CONTINUOUS
10
3.26093
20
1.5832
11
3.25928
21
1.58436
0
LINE
8
BLACK
6
CONTINUOUS
10
3.25928
20
1.58436
11
3.25876
21
1.58631
0
LINE
8
BLACK
6
CONTINUOUS
10
3.25876
20
1.58631
11
3.25961
21
1.58814
0
LINE
8
BLACK
6
CONTINUOUS
10
3.25961
20
1.58814
11
3.26115
21
1.58968
0
LINE
8
BLACK
6
CONTINUOUS
10
3.26115
20
1.58968
11
3.2625
21
1.59237
0
LINE
8
BLACK
6
CONTINUOUS
10
3.2625
20
1.59237
11
3.2625
21
1.60035
0
LINE
8
BLACK
6
CONTINUOUS
10
3.2625
20
1.60035
11
3.26115
21
1.60305
0
LINE
8
BLACK
6
CONTINUOUS
10
3.26115
20
1.60305
11
3.25995
21
1.60425
0
LINE
8
BLACK
6
CONTINUOUS
10
3.25995
20
1.60425
11
3.25725
21
1.6056
0
LINE
8
BLACK
6
CONTINUOUS
10
3.25725
20
1.6056
11
3.24927
21
1.6056
0
LINE
8
BLACK
6
CONTINUOUS
10
3.24927
20
1.6056
11
3.24657
21
1.60425
0
LINE
8
BLACK
6
CONTINUOUS
10
3.24657
20
1.60425
11
3.24538
21
1.60305
0
LINE
8
BLACK
6
CONTINUOUS
10
3.24538
20
1.60305
11
3.24403
21
1.60035
0
LINE
8
BLACK
6
CONTINUOUS
10
3.24403
20
1.60035
11
3.24403
21
1.59237
0
LINE
8
BLACK
6
CONTINUOUS
10
3.24403
20
1.59237
11
3.24538
21
1.58968
0
LINE
8
BLACK
6
CONTINUOUS
10
3.24538
20
1.58968
11
3.24691
21
1.58814
0
LINE
8
BLACK
6
CONTINUOUS
10
3.24691
20
1.58814
11
3.2475
21
1.5873
0
LINE
8
BLACK
6
CONTINUOUS
10
3.2475
20
1.5873
11
3.2475
21
1.58728
0
LINE
8
BLACK
6
CONTINUOUS
10
3.2475
20
1.58728
11
3.24752
21
1.58727
0
LINE
8
BLACK
6
CONTINUOUS
10
3.24752
20
1.58727
11
3.24759
21
1.58628
0
LINE
8
BLACK
6
CONTINUOUS
10
3.24759
20
1.58628
11
3.24768
21
1.58529
0
LINE
8
BLACK
6
CONTINUOUS
10
3.24768
20
1.58529
11
3.24767
21
1.58527
0
LINE
8
BLACK
6
CONTINUOUS
10
3.24767
20
1.58527
11
3.24767
21
1.58525
0
LINE
8
BLACK
6
CONTINUOUS
10
3.24767
20
1.58525
11
3.24709
21
1.58445
0
LINE
8
BLACK
6
CONTINUOUS
10
3.24709
20
1.58445
11
3.24652
21
1.58363
0
LINE
8
BLACK
6
CONTINUOUS
10
3.24652
20
1.58363
11
3.2465
21
1.58363
0
LINE
8
BLACK
6
CONTINUOUS
10
3.2465
20
1.58363
11
3.24649
21
1.58361
0
LINE
8
BLACK
6
CONTINUOUS
10
3.24649
20
1.58361
11
3.24553
21
1.58337
0
LINE
8
BLACK
6
CONTINUOUS
10
3.24553
20
1.58337
11
3.24457
21
1.58311
0
LINE
8
BLACK
6
CONTINUOUS
10
3.24457
20
1.58311
11
3.24455
21
1.58312
0
LINE
8
BLACK
6
CONTINUOUS
10
3.24455
20
1.58312
11
3.24453
21
1.58311
0
LINE
8
BLACK
6
CONTINUOUS
10
3.24453
20
1.58311
11
3.22578
21
1.58499
0
LINE
8
BLACK
6
CONTINUOUS
10
3.22578
20
1.58499
11
3.22563
21
1.58503
0
LINE
8
BLACK
6
CONTINUOUS
10
3.22563
20
1.58503
11
3.22557
21
1.58502
0
LINE
8
BLACK
6
CONTINUOUS
10
3.22557
20
1.58502
11
3.22546
21
1.58508
0
LINE
8
BLACK
6
CONTINUOUS
10
3.22546
20
1.58508
11
3.2248
21
1.58527
0
LINE
8
BLACK
6
CONTINUOUS
10
3.2248
20
1.58527
11
3.22436
21
1.58571
0
LINE
8
BLACK
6
CONTINUOUS
10
3.22436
20
1.58571
11
3.22382
21
1.58603
0
LINE
8
BLACK
6
CONTINUOUS
10
3.22382
20
1.58603
11
3.22367
21
1.58642
0
LINE
8
BLACK
6
CONTINUOUS
10
3.22367
20
1.58642
11
3.22339
21
1.58671
0
LINE
8
BLACK
6
CONTINUOUS
10
3.22339
20
1.58671
11
3.22334
21
1.58734
0
LINE
8
BLACK
6
CONTINUOUS
10
3.22334
20
1.58734
11
3.22313
21
1.58793
0
LINE
8
BLACK
6
CONTINUOUS
10
3.22313
20
1.58793
11
3.22313
21
1.60667
0
LINE
8
BLACK
6
CONTINUOUS
10
3.22313
20
1.60667
11
3.2233
21
1.60768
0
LINE
8
BLACK
6
CONTINUOUS
10
3.2233
20
1.60768
11
3.2246
21
1.60923
0
LINE
8
BLACK
6
CONTINUOUS
10
3.2246
20
1.60923
11
3.22659
21
1.60958
0
LINE
8
BLACK
6
CONTINUOUS
10
3.22659
20
1.60958
11
3.22834
21
1.60857
0
LINE
8
BLACK
6
CONTINUOUS
10
3.22834
20
1.60857
11
3.22903
21
1.60667
0
LINE
8
BLACK
6
CONTINUOUS
10
3.22903
20
1.60667
11
3.22903
21
1.5906
0
LINE
8
BLACK
6
CONTINUOUS
10
3.22903
20
1.5906
11
3.2388
21
1.58962
0
LINE
8
BLACK
6
CONTINUOUS
10
3.2388
20
1.58962
11
3.23844
21
1.59036
0
LINE
8
BLACK
6
CONTINUOUS
10
3.23844
20
1.59036
11
3.23814
21
1.59134
0
LINE
8
BLACK
6
CONTINUOUS
10
3.23814
20
1.59134
11
3.23818
21
1.59151
0
LINE
8
BLACK
6
CONTINUOUS
10
3.23818
20
1.59151
11
3.23812
21
1.59168
0
LINE
8
BLACK
6
CONTINUOUS
10
3.23812
20
1.59168
11
3.23812
21
1.60105
0
LINE
8
BLACK
6
CONTINUOUS
10
3.23812
20
1.60105
11
3.2383
21
1.60206
0
LINE
8
BLACK
6
CONTINUOUS
10
3.2383
20
1.60206
11
3.23841
21
1.6022
0
LINE
8
BLACK
6
CONTINUOUS
10
3.23841
20
1.6022
11
3.23844
21
1.60237
0
LINE
8
BLACK
6
CONTINUOUS
10
3.23844
20
1.60237
11
3.24031
21
1.60612
0
LINE
8
BLACK
6
CONTINUOUS
10
3.24031
20
1.60612
11
3.24084
21
1.60683
0
LINE
8
BLACK
6
CONTINUOUS
10
3.24084
20
1.60683
11
3.24086
21
1.60689
0
LINE
8
BLACK
6
CONTINUOUS
10
3.24086
20
1.60689
11
3.24274
21
1.60876
0
LINE
8
BLACK
6
CONTINUOUS
10
3.24274
20
1.60876
11
3.24346
21
1.60927
0
LINE
8
BLACK
6
CONTINUOUS
10
3.24346
20
1.60927
11
3.24351
21
1.60932
0
LINE
8
BLACK
6
CONTINUOUS
10
3.24351
20
1.60932
11
3.24725
21
1.61119
0
LINE
8
BLACK
6
CONTINUOUS
10
3.24725
20
1.61119
11
3.24824
21
1.61148
0
LINE
8
BLACK
6
CONTINUOUS
10
3.24824
20
1.61148
11
3.24841
21
1.61144
0
LINE
8
BLACK
6
CONTINUOUS
10
3.24841
20
1.61144
11
3.24858
21
1.6115
0
LINE
8
BLACK
6
CONTINUOUS
10
3.24858
20
1.6115
11
3.25795
21
1.6115
0
LINE
8
BLACK
6
CONTINUOUS
10
3.25795
20
1.6115
11
3.25896
21
1.61132
0
LINE
8
BLACK
6
CONTINUOUS
10
3.25103
20
1.64889
11
3.25117
21
1.64891
0
LINE
8
BLACK
6
CONTINUOUS
10
3.25117
20
1.64891
11
3.25867
21
1.64703
0
LINE
8
BLACK
6
CONTINUOUS
10
3.25867
20
1.64703
11
3.25913
21
1.64683
0
LINE
8
BLACK
6
CONTINUOUS
10
3.25913
20
1.64683
11
3.25927
21
1.64681
0
LINE
8
BLACK
6
CONTINUOUS
10
3.25927
20
1.64681
11
3.26302
21
1.64494
0
LINE
8
BLACK
6
CONTINUOUS
10
3.26302
20
1.64494
11
3.26373
21
1.64441
0
LINE
8
BLACK
6
CONTINUOUS
10
3.26373
20
1.64441
11
3.26379
21
1.64438
0
LINE
8
BLACK
6
CONTINUOUS
10
3.26379
20
1.64438
11
3.26566
21
1.64251
0
LINE
8
BLACK
6
CONTINUOUS
10
3.26566
20
1.64251
11
3.26617
21
1.64178
0
LINE
8
BLACK
6
CONTINUOUS
10
3.26617
20
1.64178
11
3.26621
21
1.64174
0
LINE
8
BLACK
6
CONTINUOUS
10
3.26621
20
1.64174
11
3.26809
21
1.63799
0
LINE
8
BLACK
6
CONTINUOUS
10
3.26809
20
1.63799
11
3.26838
21
1.63701
0
LINE
8
BLACK
6
CONTINUOUS
10
3.26838
20
1.63701
11
3.26834
21
1.63684
0
LINE
8
BLACK
6
CONTINUOUS
10
3.26834
20
1.63684
11
3.2684
21
1.63667
0
LINE
8
BLACK
6
CONTINUOUS
10
3.2684
20
1.63667
11
3.2684
21
1.63292
0
LINE
8
BLACK
6
CONTINUOUS
10
3.2684
20
1.63292
11
3.26822
21
1.63191
0
LINE
8
BLACK
6
CONTINUOUS
10
3.26822
20
1.63191
11
3.26811
21
1.63178
0
LINE
8
BLACK
6
CONTINUOUS
10
3.26811
20
1.63178
11
3.26809
21
1.6316
0
LINE
8
BLACK
6
CONTINUOUS
10
3.26809
20
1.6316
11
3.26621
21
1.62785
0
LINE
8
BLACK
6
CONTINUOUS
10
3.26621
20
1.62785
11
3.26569
21
1.62714
0
LINE
8
BLACK
6
CONTINUOUS
10
3.26569
20
1.62714
11
3.26566
21
1.62708
0
LINE
8
BLACK
6
CONTINUOUS
10
3.26566
20
1.62708
11
3.26379
21
1.62521
0
LINE
8
BLACK
6
CONTINUOUS
10
3.26379
20
1.62521
11
3.26306
21
1.6247
0
LINE
8
BLACK
6
CONTINUOUS
10
3.26306
20
1.6247
11
3.26302
21
1.62466
0
LINE
8
BLACK
6
CONTINUOUS
10
3.26302
20
1.62466
11
3.25927
21
1.62278
0
LINE
8
BLACK
6
CONTINUOUS
10
3.25927
20
1.62278
11
3.25878
21
1.62264
0
LINE
8
BLACK
6
CONTINUOUS
10
3.25878
20
1.62264
11
3.25867
21
1.62256
0
LINE
8
BLACK
6
CONTINUOUS
10
3.25867
20
1.62256
11
3.25117
21
1.62068
0
LINE
8
BLACK
6
CONTINUOUS
10
3.25117
20
1.62068
11
3.25058
21
1.62064
0
LINE
8
BLACK
6
CONTINUOUS
10
3.25058
20
1.62064
11
3.25045
21
1.62059
0
LINE
8
BLACK
6
CONTINUOUS
10
3.25045
20
1.62059
11
3.24108
21
1.62059
0
LINE
8
BLACK
6
CONTINUOUS
10
3.24108
20
1.62059
11
3.2405
21
1.6207
0
LINE
8
BLACK
6
CONTINUOUS
10
3.2405
20
1.6207
11
3.24036
21
1.62068
0
LINE
8
BLACK
6
CONTINUOUS
10
3.24036
20
1.62068
11
3.23286
21
1.62256
0
LINE
8
BLACK
6
CONTINUOUS
10
3.23286
20
1.62256
11
3.2324
21
1.62276
0
LINE
8
BLACK
6
CONTINUOUS
10
3.2324
20
1.62276
11
3.23226
21
1.62278
0
LINE
8
BLACK
6
CONTINUOUS
10
3.23226
20
1.62278
11
3.22851
21
1.62466
0
LINE
8
BLACK
6
CONTINUOUS
10
3.22851
20
1.62466
11
3.2278
21
1.62518
0
LINE
8
BLACK
6
CONTINUOUS
10
3.2278
20
1.62518
11
3.22774
21
1.62521
0
LINE
8
BLACK
6
CONTINUOUS
10
3.22774
20
1.62521
11
3.22586
21
1.62708
0
LINE
8
BLACK
6
CONTINUOUS
10
3.22586
20
1.62708
11
3.22536
21
1.62781
0
LINE
8
BLACK
6
CONTINUOUS
10
3.22536
20
1.62781
11
3.22531
21
1.62785
0
LINE
8
BLACK
6
CONTINUOUS
10
3.22531
20
1.62785
11
3.22344
21
1.6316
0
LINE
8
BLACK
6
CONTINUOUS
10
3.22344
20
1.6316
11
3.22314
21
1.63258
0
LINE
8
BLACK
6
CONTINUOUS
10
3.22314
20
1.63258
11
3.22319
21
1.63275
0
LINE
8
BLACK
6
CONTINUOUS
10
3.22319
20
1.63275
11
3.22313
21
1.63292
0
LINE
8
BLACK
6
CONTINUOUS
10
3.22313
20
1.63292
11
3.22313
21
1.63667
0
LINE
8
BLACK
6
CONTINUOUS
10
3.22313
20
1.63667
11
3.2233
21
1.63768
0
LINE
8
BLACK
6
CONTINUOUS
10
3.2233
20
1.63768
11
3.22342
21
1.63782
0
LINE
8
BLACK
6
CONTINUOUS
10
3.22342
20
1.63782
11
3.22344
21
1.63799
0
LINE
8
BLACK
6
CONTINUOUS
10
3.22344
20
1.63799
11
3.22531
21
1.64174
0
LINE
8
BLACK
6
CONTINUOUS
10
3.22531
20
1.64174
11
3.22584
21
1.64245
0
LINE
8
BLACK
6
CONTINUOUS
10
3.22584
20
1.64245
11
3.22586
21
1.64251
0
LINE
8
BLACK
6
CONTINUOUS
10
3.22586
20
1.64251
11
3.22774
21
1.64438
0
LINE
8
BLACK
6
CONTINUOUS
10
3.22774
20
1.64438
11
3.22846
21
1.64489
0
LINE
8
BLACK
6
CONTINUOUS
10
3.22846
20
1.64489
11
3.22851
21
1.64494
0
LINE
8
BLACK
6
CONTINUOUS
10
3.22851
20
1.64494
11
3.23226
21
1.64681
0
LINE
8
BLACK
6
CONTINUOUS
10
3.23226
20
1.64681
11
3.23274
21
1.64696
0
LINE
8
BLACK
6
CONTINUOUS
10
3.23274
20
1.64696
11
3.23286
21
1.64703
0
LINE
8
BLACK
6
CONTINUOUS
10
3.23286
20
1.64703
11
3.24036
21
1.64891
0
LINE
8
BLACK
6
CONTINUOUS
10
3.24036
20
1.64891
11
3.24095
21
1.64895
0
LINE
8
BLACK
6
CONTINUOUS
10
3.24095
20
1.64895
11
3.24108
21
1.649
0
LINE
8
BLACK
6
CONTINUOUS
10
3.24108
20
1.649
11
3.25045
21
1.649
0
LINE
8
BLACK
6
CONTINUOUS
10
3.25045
20
1.649
11
3.25103
21
1.64889
0
LINE
8
BLACK
6
CONTINUOUS
10
3.24144
20
1.64309
11
3.23461
21
1.64138
0
LINE
8
BLACK
6
CONTINUOUS
10
3.23461
20
1.64138
11
3.23158
21
1.63987
0
LINE
8
BLACK
6
CONTINUOUS
10
3.23158
20
1.63987
11
3.23038
21
1.63867
0
LINE
8
BLACK
6
CONTINUOUS
10
3.23038
20
1.63867
11
3.22903
21
1.63597
0
LINE
8
BLACK
6
CONTINUOUS
10
3.22903
20
1.63597
11
3.22903
21
1.63362
0
LINE
8
BLACK
6
CONTINUOUS
10
3.22903
20
1.63362
11
3.23038
21
1.63092
0
LINE
8
BLACK
6
CONTINUOUS
10
3.23038
20
1.63092
11
3.23158
21
1.62972
0
LINE
8
BLACK
6
CONTINUOUS
10
3.23158
20
1.62972
11
3.23461
21
1.62821
0
LINE
8
BLACK
6
CONTINUOUS
10
3.23461
20
1.62821
11
3.24144
21
1.6265
0
LINE
8
BLACK
6
CONTINUOUS
10
3.24144
20
1.6265
11
3.25009
21
1.6265
0
LINE
8
BLACK
6
CONTINUOUS
10
3.25009
20
1.6265
11
3.25692
21
1.62821
0
LINE
8
BLACK
6
CONTINUOUS
10
3.25692
20
1.62821
11
3.25995
21
1.62972
0
LINE
8
BLACK
6
CONTINUOUS
10
3.25995
20
1.62972
11
3.26115
21
1.63092
0
LINE
8
BLACK
6
CONTINUOUS
10
3.26115
20
1.63092
11
3.2625
21
1.63362
0
LINE
8
BLACK
6
CONTINUOUS
10
3.2625
20
1.63362
11
3.2625
21
1.63597
0
LINE
8
BLACK
6
CONTINUOUS
10
3.2625
20
1.63597
11
3.26115
21
1.63867
0
LINE
8
BLACK
6
CONTINUOUS
10
3.26115
20
1.63867
11
3.25995
21
1.63987
0
LINE
8
BLACK
6
CONTINUOUS
10
3.25995
20
1.63987
11
3.25692
21
1.64138
0
LINE
8
BLACK
6
CONTINUOUS
10
3.25692
20
1.64138
11
3.25009
21
1.64309
0
LINE
8
BLACK
6
CONTINUOUS
10
3.25009
20
1.64309
11
3.24144
21
1.64309
0
LINE
8
BLACK
6
CONTINUOUS
10
3.25896
20
1.68819
11
3.25909
21
1.68808
0
LINE
8
BLACK
6
CONTINUOUS
10
3.25909
20
1.68808
11
3.25927
21
1.68806
0
LINE
8
BLACK
6
CONTINUOUS
10
3.25927
20
1.68806
11
3.26302
21
1.68618
0
LINE
8
BLACK
6
CONTINUOUS
10
3.26302
20
1.68618
11
3.26373
21
1.68565
0
LINE
8
BLACK
6
CONTINUOUS
10
3.26373
20
1.68565
11
3.26379
21
1.68563
0
LINE
8
BLACK
6
CONTINUOUS
10
3.26379
20
1.68563
11
3.26566
21
1.68375
0
LINE
8
BLACK
6
CONTINUOUS
10
3.26566
20
1.68375
11
3.26617
21
1.68303
0
LINE
8
BLACK
6
CONTINUOUS
10
3.26617
20
1.68303
11
3.26621
21
1.68299
0
LINE
8
BLACK
6
CONTINUOUS
10
3.26621
20
1.68299
11
3.26809
21
1.67924
0
LINE
8
BLACK
6
CONTINUOUS
10
3.26809
20
1.67924
11
3.26838
21
1.67825
0
LINE
8
BLACK
6
CONTINUOUS
10
3.26838
20
1.67825
11
3.26834
21
1.67808
0
LINE
8
BLACK
6
CONTINUOUS
10
3.26834
20
1.67808
11
3.2684
21
1.67792
0
LINE
8
BLACK
6
CONTINUOUS
10
3.2684
20
1.67792
11
3.2684
21
1.66292
0
LINE
8
BLACK
6
CONTINUOUS
10
3.2684
20
1.66292
11
3.26833
21
1.66253
0
LINE
8
BLACK
6
CONTINUOUS
10
3.26833
20
1.66253
11
3.26836
21
1.6624
0
LINE
8
BLACK
6
CONTINUOUS
10
3.26836
20
1.6624
11
3.26829
21
1.66229
0
LINE
8
BLACK
6
CONTINUOUS
10
3.26829
20
1.66229
11
3.26822
21
1.66191
0
LINE
8
BLACK
6
CONTINUOUS
10
3.26822
20
1.66191
11
3.26773
21
1.66132
0
LINE
8
BLACK
6
CONTINUOUS
10
3.26773
20
1.66132
11
3.26735
21
1.66066
0
LINE
8
BLACK
6
CONTINUOUS
10
3.26735
20
1.66066
11
3.2671
21
1.66056
0
LINE
8
BLACK
6
CONTINUOUS
10
3.2671
20
1.66056
11
3.26692
21
1.66036
0
LINE
8
BLACK
6
CONTINUOUS
10
3.26692
20
1.66036
11
3.26617
21
1.66023
0
LINE
8
BLACK
6
CONTINUOUS
10
3.26617
20
1.66023
11
3.26545
21
1.65996
0
LINE
8
BLACK
6
CONTINUOUS
10
3.26545
20
1.65996
11
3.22608
21
1.65996
0
LINE
8
BLACK
6
CONTINUOUS
10
3.22608
20
1.65996
11
3.22569
21
1.66003
0
LINE
8
BLACK
6
CONTINUOUS
10
3.22569
20
1.66003
11
3.22557
21
1.66001
0
LINE
8
BLACK
6
CONTINUOUS
10
3.22557
20
1.66001
11
3.22545
21
1.66007
0
LINE
8
BLACK
6
CONTINUOUS
10
3.22545
20
1.66007
11
3.22507
21
1.66014
0
LINE
8
BLACK
6
CONTINUOUS
10
3.22507
20
1.66014
11
3.22448
21
1.66064
0
LINE
8
BLACK
6
CONTINUOUS
10
3.22448
20
1.66064
11
3.22382
21
1.66102
0
LINE
8
BLACK
6
CONTINUOUS
10
3.22382
20
1.66102
11
3.22372
21
1.66127
0
LINE
8
BLACK
6
CONTINUOUS
10
3.22372
20
1.66127
11
3.22352
21
1.66144
0
LINE
8
BLACK
6
CONTINUOUS
10
3.22352
20
1.66144
11
3.22339
21
1.6622
0
LINE
8
BLACK
6
CONTINUOUS
10
3.22339
20
1.6622
11
3.22313
21
1.66292
0
LINE
8
BLACK
6
CONTINUOUS
10
3.22313
20
1.66292
11
3.22313
21
1.67604
0
LINE
8
BLACK
6
CONTINUOUS
10
3.22313
20
1.67604
11
3.2233
21
1.67705
0
LINE
8
BLACK
6
CONTINUOUS
10
3.2233
20
1.67705
11
3.22342
21
1.67719
0
LINE
8
BLACK
6
CONTINUOUS
10
3.22342
20
1.67719
11
3.22344
21
1.67736
0
LINE
8
BLACK
6
CONTINUOUS
10
3.22344
20
1.67736
11
3.22531
21
1.68111
0
LINE
8
BLACK
6
CONTINUOUS
10
3.22531
20
1.68111
11
3.22584
21
1.68182
0
LINE
8
BLACK
6
CONTINUOUS
10
3.22584
20
1.68182
11
3.22586
21
1.68188
0
LINE
8
BLACK
6
CONTINUOUS
10
3.22586
20
1.68188
11
3.22774
21
1.68375
0
LINE
8
BLACK
6
CONTINUOUS
10
3.22774
20
1.68375
11
3.22846
21
1.68426
0
LINE
8
BLACK
6
CONTINUOUS
10
3.22846
20
1.68426
11
3.22851
21
1.68431
0
LINE
8
BLACK
6
CONTINUOUS
10
3.22851
20
1.68431
11
3.23226
21
1.68618
0
LINE
8
BLACK
6
CONTINUOUS
10
3.23226
20
1.68618
11
3.23324
21
1.68647
0
LINE
8
BLACK
6
CONTINUOUS
10
3.23324
20
1.68647
11
3.23341
21
1.68643
0
LINE
8
BLACK
6
CONTINUOUS
10
3.23341
20
1.68643
11
3.23358
21
1.68649
0
LINE
8
BLACK
6
CONTINUOUS
10
3.23358
20
1.68649
11
3.23733
21
1.68649
0
LINE
8
BLACK
6
CONTINUOUS
10
3.23733
20
1.68649
11
3.23834
21
1.68631
0
LINE
8
BLACK
6
CONTINUOUS
10
3.23834
20
1.68631
11
3.23847
21
1.6862
0
LINE
8
BLACK
6
CONTINUOUS
10
3.23847
20
1.6862
11
3.23865
21
1.68618
0
LINE
8
BLACK
6
CONTINUOUS
10
3.23865
20
1.68618
11
3.2424
21
1.68431
0
LINE
8
BLACK
6
CONTINUOUS
10
3.2424
20
1.68431
11
3.24311
21
1.68378
0
LINE
8
BLACK
6
CONTINUOUS
10
3.24311
20
1.68378
11
3.24316
21
1.68375
0
LINE
8
BLACK
6
CONTINUOUS
10
3.24316
20
1.68375
11
3.24405
21
1.68287
0
LINE
8
BLACK
6
CONTINUOUS
10
3.24405
20
1.68287
11
3.24439
21
1.6835
0
LINE
8
BLACK
6
CONTINUOUS
10
3.24439
20
1.6835
11
3.24454
21
1.68359
0
LINE
8
BLACK
6
CONTINUOUS
10
3.24454
20
1.68359
11
3.24461
21
1.68375
0
LINE
8
BLACK
6
CONTINUOUS
10
3.24461
20
1.68375
11
3.24649
21
1.68563
0
LINE
8
BLACK
6
CONTINUOUS
10
3.24649
20
1.68563
11
3.24721
21
1.68613
0
LINE
8
BLACK
6
CONTINUOUS
10
3.24721
20
1.68613
11
3.24725
21
1.68618
0
LINE
8
BLACK
6
CONTINUOUS
10
3.24725
20
1.68618
11
3.251
21
1.68806
0
LINE
8
BLACK
6
CONTINUOUS
10
3.251
20
1.68806
11
3.25199
21
1.68835
0
LINE
8
BLACK
6
CONTINUOUS
10
3.25199
20
1.68835
11
3.25216
21
1.68831
0
LINE
8
BLACK
6
CONTINUOUS
10
3.25216
20
1.68831
11
3.25232
21
1.68837
0
LINE
8
BLACK
6
CONTINUOUS
10
3.25232
20
1.68837
11
3.25795
21
1.68837
0
LINE
8
BLACK
6
CONTINUOUS
10
3.25795
20
1.68837
11
3.25896
21
1.68819
0
LINE
8
BLACK
6
CONTINUOUS
10
3.23427
20
1.68059
11
3.23158
21
1.67924
0
LINE
8
BLACK
6
CONTINUOUS
10
3.23158
20
1.67924
11
3.23038
21
1.67804
0
LINE
8
BLACK
6
CONTINUOUS
10
3.23038
20
1.67804
11
3.22903
21
1.67534
0
LINE
8
BLACK
6
CONTINUOUS
10
3.22903
20
1.67534
11
3.22903
21
1.66587
0
LINE
8
BLACK
6
CONTINUOUS
10
3.22903
20
1.66587
11
3.24187
21
1.66587
0
LINE
8
BLACK
6
CONTINUOUS
10
3.24187
20
1.66587
11
3.24187
21
1.67534
0
LINE
8
BLACK
6
CONTINUOUS
10
3.24187
20
1.67534
11
3.24052
21
1.67804
0
LINE
8
BLACK
6
CONTINUOUS
10
3.24052
20
1.67804
11
3.23933
21
1.67924
0
LINE
8
BLACK
6
CONTINUOUS
10
3.23933
20
1.67924
11
3.23663
21
1.68059
0
LINE
8
BLACK
6
CONTINUOUS
10
3.23663
20
1.68059
11
3.23427
21
1.68059
0
LINE
8
BLACK
6
CONTINUOUS
10
3.25302
20
1.68246
11
3.25032
21
1.68111
0
LINE
8
BLACK
6
CONTINUOUS
10
3.25032
20
1.68111
11
3.24928
21
1.68007
0
LINE
8
BLACK
6
CONTINUOUS
10
3.24928
20
1.68007
11
3.24778
21
1.67556
0
LINE
8
BLACK
6
CONTINUOUS
10
3.24778
20
1.67556
11
3.24778
21
1.66587
0
LINE
8
BLACK
6
CONTINUOUS
10
3.24778
20
1.66587
11
3.2625
21
1.66587
0
LINE
8
BLACK
6
CONTINUOUS
10
3.2625
20
1.66587
11
3.2625
21
1.67722
0
LINE
8
BLACK
6
CONTINUOUS
10
3.2625
20
1.67722
11
3.26115
21
1.67992
0
LINE
8
BLACK
6
CONTINUOUS
10
3.26115
20
1.67992
11
3.25995
21
1.68111
0
LINE
8
BLACK
6
CONTINUOUS
10
3.25995
20
1.68111
11
3.25725
21
1.68246
0
LINE
8
BLACK
6
CONTINUOUS
10
3.25725
20
1.68246
11
3.25302
21
1.68246
0
LINE
8
BLACK
6
CONTINUOUS
10
3.26771
20
1.72293
11
3.2684
21
1.72103
0
LINE
8
BLACK
6
CONTINUOUS
10
3.2684
20
1.72103
11
3.2684
21
1.70229
0
LINE
8
BLACK
6
CONTINUOUS
10
3.2684
20
1.70229
11
3.26833
21
1.7019
0
LINE
8
BLACK
6
CONTINUOUS
10
3.26833
20
1.7019
11
3.26836
21
1.70177
0
LINE
8
BLACK
6
CONTINUOUS
10
3.26836
20
1.70177
11
3.26829
21
1.70166
0
LINE
8
BLACK
6
CONTINUOUS
10
3.26829
20
1.70166
11
3.26822
21
1.70128
0
LINE
8
BLACK
6
CONTINUOUS
10
3.26822
20
1.70128
11
3.26773
21
1.70069
0
LINE
8
BLACK
6
CONTINUOUS
10
3.26773
20
1.70069
11
3.26735
21
1.70003
0
LINE
8
BLACK
6
CONTINUOUS
10
3.26735
20
1.70003
11
3.2671
21
1.69993
0
LINE
8
BLACK
6
CONTINUOUS
10
3.2671
20
1.69993
11
3.26692
21
1.69973
0
LINE
8
BLACK
6
CONTINUOUS
10
3.26692
20
1.69973
11
3.26617
21
1.6996
0
LINE
8
BLACK
6
CONTINUOUS
10
3.26617
20
1.6996
11
3.26545
21
1.69933
0
LINE
8
BLACK
6
CONTINUOUS
10
3.26545
20
1.69933
11
3.22608
21
1.69933
0
LINE
8
BLACK
6
CONTINUOUS
10
3.22608
20
1.69933
11
3.22507
21
1.69951
0
LINE
8
BLACK
6
CONTINUOUS
10
3.22507
20
1.69951
11
3.22352
21
1.70081
0
LINE
8
BLACK
6
CONTINUOUS
10
3.22352
20
1.70081
11
3.22317
21
1.7028
0
LINE
8
BLACK
6
CONTINUOUS
10
3.22317
20
1.7028
11
3.22418
21
1.70455
0
LINE
8
BLACK
6
CONTINUOUS
10
3.22418
20
1.70455
11
3.22608
21
1.70524
0
LINE
8
BLACK
6
CONTINUOUS
10
3.22608
20
1.70524
11
3.2625
21
1.70524
0
LINE
8
BLACK
6
CONTINUOUS
10
3.2625
20
1.70524
11
3.2625
21
1.72103
0
LINE
8
BLACK
6
CONTINUOUS
10
3.2625
20
1.72103
11
3.26267
21
1.72204
0
LINE
8
BLACK
6
CONTINUOUS
10
3.26267
20
1.72204
11
3.26397
21
1.72359
0
LINE
8
BLACK
6
CONTINUOUS
10
3.26397
20
1.72359
11
3.26596
21
1.72394
0
LINE
8
BLACK
6
CONTINUOUS
10
3.26596
20
1.72394
11
3.26771
21
1.72293
0
LINE
8
BLACK
6
CONTINUOUS
10
3.53637
20
2.46774
11
3.53712
21
2.46543
0
LINE
8
BLACK
6
CONTINUOUS
10
3.53712
20
2.46543
11
3.53712
21
2.40544
0
LINE
8
BLACK
6
CONTINUOUS
10
3.53712
20
2.40544
11
3.53637
21
2.40312
0
LINE
8
BLACK
6
CONTINUOUS
10
3.53637
20
2.40312
11
3.5344
21
2.40169
0
LINE
8
BLACK
6
CONTINUOUS
10
3.5344
20
2.40169
11
3.53197
21
2.40169
0
LINE
8
BLACK
6
CONTINUOUS
10
3.53197
20
2.40169
11
3.53
21
2.40312
0
LINE
8
BLACK
6
CONTINUOUS
10
3.53
20
2.40312
11
3.52925
21
2.40544
0
LINE
8
BLACK
6
CONTINUOUS
10
3.52925
20
2.40544
11
3.52925
21
2.46543
0
LINE
8
BLACK
6
CONTINUOUS
10
3.52925
20
2.46543
11
3.53
21
2.46774
0
LINE
8
BLACK
6
CONTINUOUS
10
3.53
20
2.46774
11
3.53197
21
2.46917
0
LINE
8
BLACK
6
CONTINUOUS
10
3.53197
20
2.46917
11
3.5344
21
2.46917
0
LINE
8
BLACK
6
CONTINUOUS
10
3.5344
20
2.46917
11
3.53637
21
2.46774
0
LINE
8
BLACK
6
CONTINUOUS
10
2.77653
20
2.46774
11
2.77728
21
2.46543
0
LINE
8
BLACK
6
CONTINUOUS
10
2.77728
20
2.46543
11
2.77728
21
2.40544
0
LINE
8
BLACK
6
CONTINUOUS
10
2.77728
20
2.40544
11
2.77653
21
2.40312
0
LINE
8
BLACK
6
CONTINUOUS
10
2.77653
20
2.40312
11
2.77456
21
2.40169
0
LINE
8
BLACK
6
CONTINUOUS
10
2.77456
20
2.40169
11
2.77212
21
2.40169
0
LINE
8
BLACK
6
CONTINUOUS
10
2.77212
20
2.40169
11
2.77016
21
2.40312
0
LINE
8
BLACK
6
CONTINUOUS
10
2.77016
20
2.40312
11
2.7694
21
2.40544
0
LINE
8
BLACK
6
CONTINUOUS
10
2.7694
20
2.40544
11
2.7694
21
2.46543
0
LINE
8
BLACK
6
CONTINUOUS
10
2.7694
20
2.46543
11
2.77016
21
2.46774
0
LINE
8
BLACK
6
CONTINUOUS
10
2.77016
20
2.46774
11
2.77212
21
2.46917
0
LINE
8
BLACK
6
CONTINUOUS
10
2.77212
20
2.46917
11
2.77456
21
2.46917
0
LINE
8
BLACK
6
CONTINUOUS
10
2.77456
20
2.46917
11
2.77653
21
2.46774
  0
ENDSEC
  0
EOF
