  0
SECTION
  2
HEADER
  9
$ANGBASE
  50
0.0
  9
$ANGDIR
  70
1
  9
$MEASUREMENT
  70
0
  0
ENDSEC
  0
SECTION
  2
TABLES
  0
TABLE
  2
LTYPE
  70
4
  0
LTYPE
  5
40F
  2
CONTINUOUS
  70
0
  3
Solid line
  72
65
  73
0
  40
0.0
  0
LTYPE
  5
410
  2
DASHDOT
 70
0
  3
Dash Dot ____ _ ____ _
 72
65
 73
4
 40
2.0
 49
1.25
 49
-0.25
 49
0.25
 49
-0.25
  0
LTYPE
  5
411
  2
DASHED
 70
0
  3
Dashed __ __ __ __ __
 72
65
 73
2
 40
0.75
 49
0.5
 49
-0.25
  0
LTYPE
  5
43B
  2
DOTTED
 70
0
  3
Dotted .  .  .  .
 72
65
 73
2
 40
0.2
 49
0.0
 49
-0.2
  0
ENDTAB
  0
TABLE
  2
STYLE
  70
4
  0
STYLE
  2
KICAD
  70
0
  40
0
  41
1
  42
1
  50
0
  71
0
  3
isocp.shx
  0
STYLE
  2
KICADB
  70
0
  40
0
  41
1
  42
1
  50
0
  71
0
  3
isocp.shx
  0
STYLE
  2
KICADI
  70
0
  40
0
  41
1
  42
1
  50
15
  71
0
  3
isocp.shx
  0
STYLE
  2
KICADBI
  70
0
  40
0
  41
1
  42
1
  50
15
  71
0
  3
isocp.shx
  0
ENDTAB
  0
TABLE
  2
LAYER
  70
1
  0
LAYER
  2
BLACK
  70
0
  62
7
  6
CONTINUOUS
  0
ENDTAB
  0
ENDSEC
  0
SECTION
  2
ENTITIES
0
LINE
8
BLACK
6
CONTINUOUS
10
3.68332
20
0.123477
11
3.68303
21
0.124173
0
LINE
8
BLACK
6
CONTINUOUS
10
3.68303
20
0.124173
11
3.68303
21
0.495827
0
LINE
8
BLACK
6
CONTINUOUS
10
3.68303
20
0.495827
11
3.68332
21
0.496523
0
LINE
8
BLACK
6
CONTINUOUS
10
3.68332
20
0.496523
11
3.68402
21
0.496811
0
LINE
8
BLACK
6
CONTINUOUS
10
3.68402
20
0.496811
11
3.93598
21
0.496811
0
LINE
8
BLACK
6
CONTINUOUS
10
3.93598
20
0.496811
11
3.93668
21
0.496523
0
LINE
8
BLACK
6
CONTINUOUS
10
3.93668
20
0.496523
11
3.93697
21
0.495827
0
LINE
8
BLACK
6
CONTINUOUS
10
3.93697
20
0.495827
11
3.93697
21
0.124173
0
LINE
8
BLACK
6
CONTINUOUS
10
3.93697
20
0.124173
11
3.93668
21
0.123477
0
LINE
8
BLACK
6
CONTINUOUS
10
3.93668
20
0.123477
11
3.93598
21
0.123189
0
LINE
8
BLACK
6
CONTINUOUS
10
3.93598
20
0.123189
11
3.68402
21
0.123189
0
LINE
8
BLACK
6
CONTINUOUS
10
3.68402
20
0.123189
11
3.68332
21
0.123477
0
LINE
8
BLACK
6
CONTINUOUS
10
3.685
20
0.494843
11
3.685
21
0.125157
0
LINE
8
BLACK
6
CONTINUOUS
10
3.685
20
0.125157
11
3.935
21
0.125157
0
LINE
8
BLACK
6
CONTINUOUS
10
3.935
20
0.125157
11
3.935
21
0.494843
0
LINE
8
BLACK
6
CONTINUOUS
10
3.935
20
0.494843
11
3.685
21
0.494843
0
LINE
8
BLACK
6
CONTINUOUS
10
3.09237
20
0.570721
11
3.09209
21
0.571417
0
LINE
8
BLACK
6
CONTINUOUS
10
3.09209
20
0.571417
11
3.09209
21
0.648583
0
LINE
8
BLACK
6
CONTINUOUS
10
3.09209
20
0.648583
11
3.09237
21
0.649279
0
LINE
8
BLACK
6
CONTINUOUS
10
3.09237
20
0.649279
11
3.09307
21
0.649567
0
LINE
8
BLACK
6
CONTINUOUS
10
3.09307
20
0.649567
11
3.22693
21
0.649567
0
LINE
8
BLACK
6
CONTINUOUS
10
3.22693
20
0.649567
11
3.22763
21
0.649279
0
LINE
8
BLACK
6
CONTINUOUS
10
3.22763
20
0.649279
11
3.22791
21
0.648583
0
LINE
8
BLACK
6
CONTINUOUS
10
3.22791
20
0.648583
11
3.22791
21
0.571417
0
LINE
8
BLACK
6
CONTINUOUS
10
3.22791
20
0.571417
11
3.22763
21
0.570721
0
LINE
8
BLACK
6
CONTINUOUS
10
3.22763
20
0.570721
11
3.22693
21
0.570433
0
LINE
8
BLACK
6
CONTINUOUS
10
3.22693
20
0.570433
11
3.09307
21
0.570433
0
LINE
8
BLACK
6
CONTINUOUS
10
3.09307
20
0.570433
11
3.09237
21
0.570721
0
LINE
8
BLACK
6
CONTINUOUS
10
3.09406
20
0.647598
11
3.09406
21
0.572402
0
LINE
8
BLACK
6
CONTINUOUS
10
3.09406
20
0.572402
11
3.22594
21
0.572402
0
LINE
8
BLACK
6
CONTINUOUS
10
3.22594
20
0.572402
11
3.22594
21
0.647598
0
LINE
8
BLACK
6
CONTINUOUS
10
3.22594
20
0.647598
11
3.09406
21
0.647598
0
LINE
8
BLACK
6
CONTINUOUS
10
2.92993
20
0.660091
11
2.92965
21
0.660787
0
LINE
8
BLACK
6
CONTINUOUS
10
2.92965
20
0.660787
11
2.92965
21
0.759213
0
LINE
8
BLACK
6
CONTINUOUS
10
2.92965
20
0.759213
11
2.92993
21
0.759909
0
LINE
8
BLACK
6
CONTINUOUS
10
2.92993
20
0.759909
11
2.93063
21
0.760197
0
LINE
8
BLACK
6
CONTINUOUS
10
2.93063
20
0.760197
11
3.06055
21
0.760197
0
LINE
8
BLACK
6
CONTINUOUS
10
3.06055
20
0.760197
11
3.06125
21
0.759909
0
LINE
8
BLACK
6
CONTINUOUS
10
3.06125
20
0.759909
11
3.06154
21
0.759213
0
LINE
8
BLACK
6
CONTINUOUS
10
3.06154
20
0.759213
11
3.06154
21
0.660787
0
LINE
8
BLACK
6
CONTINUOUS
10
3.06154
20
0.660787
11
3.06125
21
0.660091
0
LINE
8
BLACK
6
CONTINUOUS
10
3.06125
20
0.660091
11
3.06055
21
0.659803
0
LINE
8
BLACK
6
CONTINUOUS
10
3.06055
20
0.659803
11
2.93063
21
0.659803
0
LINE
8
BLACK
6
CONTINUOUS
10
2.93063
20
0.659803
11
2.92993
21
0.660091
0
LINE
8
BLACK
6
CONTINUOUS
10
2.93161
20
0.758228
11
2.93161
21
0.661772
0
LINE
8
BLACK
6
CONTINUOUS
10
2.93161
20
0.661772
11
3.05957
21
0.661772
0
LINE
8
BLACK
6
CONTINUOUS
10
3.05957
20
0.661772
11
3.05957
21
0.758228
0
LINE
8
BLACK
6
CONTINUOUS
10
3.05957
20
0.758228
11
2.93161
21
0.758228
0
LINE
8
BLACK
6
CONTINUOUS
10
3.09237
20
0.670721
11
3.09209
21
0.671417
0
LINE
8
BLACK
6
CONTINUOUS
10
3.09209
20
0.671417
11
3.09209
21
0.748583
0
LINE
8
BLACK
6
CONTINUOUS
10
3.09209
20
0.748583
11
3.09237
21
0.749279
0
LINE
8
BLACK
6
CONTINUOUS
10
3.09237
20
0.749279
11
3.09307
21
0.749567
0
LINE
8
BLACK
6
CONTINUOUS
10
3.09307
20
0.749567
11
3.22693
21
0.749567
0
LINE
8
BLACK
6
CONTINUOUS
10
3.22693
20
0.749567
11
3.22763
21
0.749279
0
LINE
8
BLACK
6
CONTINUOUS
10
3.22763
20
0.749279
11
3.22791
21
0.748583
0
LINE
8
BLACK
6
CONTINUOUS
10
3.22791
20
0.748583
11
3.22791
21
0.671417
0
LINE
8
BLACK
6
CONTINUOUS
10
3.22791
20
0.671417
11
3.22763
21
0.670721
0
LINE
8
BLACK
6
CONTINUOUS
10
3.22763
20
0.670721
11
3.22693
21
0.670433
0
LINE
8
BLACK
6
CONTINUOUS
10
3.22693
20
0.670433
11
3.09307
21
0.670433
0
LINE
8
BLACK
6
CONTINUOUS
10
3.09307
20
0.670433
11
3.09237
21
0.670721
0
LINE
8
BLACK
6
CONTINUOUS
10
3.09406
20
0.747598
11
3.09406
21
0.672402
0
LINE
8
BLACK
6
CONTINUOUS
10
3.09406
20
0.672402
11
3.22594
21
0.672402
0
LINE
8
BLACK
6
CONTINUOUS
10
3.22594
20
0.672402
11
3.22594
21
0.747598
0
LINE
8
BLACK
6
CONTINUOUS
10
3.22594
20
0.747598
11
3.09406
21
0.747598
0
LINE
8
BLACK
6
CONTINUOUS
10
3.02875
20
0.806587
11
3.02846
21
0.807283
0
LINE
8
BLACK
6
CONTINUOUS
10
3.02846
20
0.807283
11
3.02846
21
0.976575
0
LINE
8
BLACK
6
CONTINUOUS
10
3.02846
20
0.976575
11
3.02875
21
0.977271
0
LINE
8
BLACK
6
CONTINUOUS
10
3.02875
20
0.977271
11
3.02945
21
0.977559
0
LINE
8
BLACK
6
CONTINUOUS
10
3.02945
20
0.977559
11
3.18929
21
0.977559
0
LINE
8
BLACK
6
CONTINUOUS
10
3.18929
20
0.977559
11
3.18999
21
0.977271
0
LINE
8
BLACK
6
CONTINUOUS
10
3.18999
20
0.977271
11
3.19028
21
0.976575
0
LINE
8
BLACK
6
CONTINUOUS
10
3.19028
20
0.976575
11
3.19028
21
0.807283
0
LINE
8
BLACK
6
CONTINUOUS
10
3.19028
20
0.807283
11
3.18999
21
0.806587
0
LINE
8
BLACK
6
CONTINUOUS
10
3.18999
20
0.806587
11
3.18929
21
0.806299
0
LINE
8
BLACK
6
CONTINUOUS
10
3.18929
20
0.806299
11
3.02945
21
0.806299
0
LINE
8
BLACK
6
CONTINUOUS
10
3.02945
20
0.806299
11
3.02875
21
0.806587
0
LINE
8
BLACK
6
CONTINUOUS
10
3.03043
20
0.975591
11
3.03043
21
0.808268
0
LINE
8
BLACK
6
CONTINUOUS
10
3.03043
20
0.808268
11
3.18831
21
0.808268
0
LINE
8
BLACK
6
CONTINUOUS
10
3.18831
20
0.808268
11
3.18831
21
0.975591
0
LINE
8
BLACK
6
CONTINUOUS
10
3.18831
20
0.975591
11
3.03043
21
0.975591
0
LINE
8
BLACK
6
CONTINUOUS
10
2.90072
20
0.912375
11
2.90043
21
0.913071
0
LINE
8
BLACK
6
CONTINUOUS
10
2.90043
20
0.913071
11
2.90043
21
1.04693
0
LINE
8
BLACK
6
CONTINUOUS
10
2.90043
20
1.04693
11
2.90072
21
1.04763
0
LINE
8
BLACK
6
CONTINUOUS
10
2.90072
20
1.04763
11
2.90142
21
1.04791
0
LINE
8
BLACK
6
CONTINUOUS
10
2.90142
20
1.04791
11
2.97858
21
1.04791
0
LINE
8
BLACK
6
CONTINUOUS
10
2.97858
20
1.04791
11
2.97928
21
1.04763
0
LINE
8
BLACK
6
CONTINUOUS
10
2.97928
20
1.04763
11
2.97957
21
1.04693
0
LINE
8
BLACK
6
CONTINUOUS
10
2.97957
20
1.04693
11
2.97957
21
0.913071
0
LINE
8
BLACK
6
CONTINUOUS
10
2.97957
20
0.913071
11
2.97928
21
0.912375
0
LINE
8
BLACK
6
CONTINUOUS
10
2.97928
20
0.912375
11
2.97858
21
0.912087
0
LINE
8
BLACK
6
CONTINUOUS
10
2.97858
20
0.912087
11
2.90142
21
0.912087
0
LINE
8
BLACK
6
CONTINUOUS
10
2.90142
20
0.912087
11
2.90072
21
0.912375
0
LINE
8
BLACK
6
CONTINUOUS
10
2.9024
20
1.04594
11
2.9024
21
0.914055
0
LINE
8
BLACK
6
CONTINUOUS
10
2.9024
20
0.914055
11
2.9776
21
0.914055
0
LINE
8
BLACK
6
CONTINUOUS
10
2.9776
20
0.914055
11
2.9776
21
1.04594
0
LINE
8
BLACK
6
CONTINUOUS
10
2.9776
20
1.04594
11
2.9024
21
1.04594
0
LINE
8
BLACK
6
CONTINUOUS
10
3.02946
20
0.981273
11
3.02917
21
0.981969
0
LINE
8
BLACK
6
CONTINUOUS
10
3.02917
20
0.981969
11
3.02917
21
1.02134
0
LINE
8
BLACK
6
CONTINUOUS
10
3.02917
20
1.02134
11
3.02946
21
1.02203
0
LINE
8
BLACK
6
CONTINUOUS
10
3.02946
20
1.02203
11
3.03016
21
1.02232
0
LINE
8
BLACK
6
CONTINUOUS
10
3.03016
20
1.02232
11
3.1089
21
1.02232
0
LINE
8
BLACK
6
CONTINUOUS
10
3.1089
20
1.02232
11
3.10959
21
1.02203
0
LINE
8
BLACK
6
CONTINUOUS
10
3.10959
20
1.02203
11
3.10988
21
1.02134
0
LINE
8
BLACK
6
CONTINUOUS
10
3.10988
20
1.02134
11
3.10988
21
0.981969
0
LINE
8
BLACK
6
CONTINUOUS
10
3.10988
20
0.981969
11
3.10959
21
0.981273
0
LINE
8
BLACK
6
CONTINUOUS
10
3.10959
20
0.981273
11
3.1089
21
0.980984
0
LINE
8
BLACK
6
CONTINUOUS
10
3.1089
20
0.980984
11
3.03016
21
0.980984
0
LINE
8
BLACK
6
CONTINUOUS
10
3.03016
20
0.980984
11
3.02946
21
0.981273
0
LINE
8
BLACK
6
CONTINUOUS
10
3.03114
20
1.02035
11
3.03114
21
0.982953
0
LINE
8
BLACK
6
CONTINUOUS
10
3.03114
20
0.982953
11
3.10791
21
0.982953
0
LINE
8
BLACK
6
CONTINUOUS
10
3.10791
20
0.982953
11
3.10791
21
1.02035
0
LINE
8
BLACK
6
CONTINUOUS
10
3.10791
20
1.02035
11
3.03114
21
1.02035
0
LINE
8
BLACK
6
CONTINUOUS
10
3.09237
20
1.04072
11
3.09209
21
1.04142
0
LINE
8
BLACK
6
CONTINUOUS
10
3.09209
20
1.04142
11
3.09209
21
1.11858
0
LINE
8
BLACK
6
CONTINUOUS
10
3.09209
20
1.11858
11
3.09237
21
1.11928
0
LINE
8
BLACK
6
CONTINUOUS
10
3.09237
20
1.11928
11
3.09307
21
1.11957
0
LINE
8
BLACK
6
CONTINUOUS
10
3.09307
20
1.11957
11
3.22693
21
1.11957
0
LINE
8
BLACK
6
CONTINUOUS
10
3.22693
20
1.11957
11
3.22763
21
1.11928
0
LINE
8
BLACK
6
CONTINUOUS
10
3.22763
20
1.11928
11
3.22791
21
1.11858
0
LINE
8
BLACK
6
CONTINUOUS
10
3.22791
20
1.11858
11
3.22791
21
1.04142
0
LINE
8
BLACK
6
CONTINUOUS
10
3.22791
20
1.04142
11
3.22763
21
1.04072
0
LINE
8
BLACK
6
CONTINUOUS
10
3.22763
20
1.04072
11
3.22693
21
1.04043
0
LINE
8
BLACK
6
CONTINUOUS
10
3.22693
20
1.04043
11
3.09307
21
1.04043
0
LINE
8
BLACK
6
CONTINUOUS
10
3.09307
20
1.04043
11
3.09237
21
1.04072
0
LINE
8
BLACK
6
CONTINUOUS
10
3.09406
20
1.1176
11
3.09406
21
1.0424
0
LINE
8
BLACK
6
CONTINUOUS
10
3.09406
20
1.0424
11
3.22594
21
1.0424
0
LINE
8
BLACK
6
CONTINUOUS
10
3.22594
20
1.0424
11
3.22594
21
1.1176
0
LINE
8
BLACK
6
CONTINUOUS
10
3.22594
20
1.1176
11
3.09406
21
1.1176
0
LINE
8
BLACK
6
CONTINUOUS
10
2.93645
20
1.06072
11
2.93616
21
1.06142
0
LINE
8
BLACK
6
CONTINUOUS
10
2.93616
20
1.06142
11
2.93616
21
1.13858
0
LINE
8
BLACK
6
CONTINUOUS
10
2.93616
20
1.13858
11
2.93645
21
1.13928
0
LINE
8
BLACK
6
CONTINUOUS
10
2.93645
20
1.13928
11
2.93715
21
1.13957
0
LINE
8
BLACK
6
CONTINUOUS
10
2.93715
20
1.13957
11
3.071
21
1.13957
0
LINE
8
BLACK
6
CONTINUOUS
10
3.071
20
1.13957
11
3.0717
21
1.13928
0
LINE
8
BLACK
6
CONTINUOUS
10
3.0717
20
1.13928
11
3.07199
21
1.13858
0
LINE
8
BLACK
6
CONTINUOUS
10
3.07199
20
1.13858
11
3.07199
21
1.06142
0
LINE
8
BLACK
6
CONTINUOUS
10
3.07199
20
1.06142
11
3.0717
21
1.06072
0
LINE
8
BLACK
6
CONTINUOUS
10
3.0717
20
1.06072
11
3.071
21
1.06043
0
LINE
8
BLACK
6
CONTINUOUS
10
3.071
20
1.06043
11
2.93715
21
1.06043
0
LINE
8
BLACK
6
CONTINUOUS
10
2.93715
20
1.06043
11
2.93645
21
1.06072
0
LINE
8
BLACK
6
CONTINUOUS
10
2.93813
20
1.1376
11
2.93813
21
1.0624
0
LINE
8
BLACK
6
CONTINUOUS
10
2.93813
20
1.0624
11
3.07002
21
1.0624
0
LINE
8
BLACK
6
CONTINUOUS
10
3.07002
20
1.0624
11
3.07002
21
1.1376
0
LINE
8
BLACK
6
CONTINUOUS
10
3.07002
20
1.1376
11
2.93813
21
1.1376
0
LINE
8
BLACK
6
CONTINUOUS
10
3.09237
20
1.13072
11
3.09209
21
1.13142
0
LINE
8
BLACK
6
CONTINUOUS
10
3.09209
20
1.13142
11
3.09209
21
1.20858
0
LINE
8
BLACK
6
CONTINUOUS
10
3.09209
20
1.20858
11
3.09237
21
1.20928
0
LINE
8
BLACK
6
CONTINUOUS
10
3.09237
20
1.20928
11
3.09307
21
1.20957
0
LINE
8
BLACK
6
CONTINUOUS
10
3.09307
20
1.20957
11
3.22693
21
1.20957
0
LINE
8
BLACK
6
CONTINUOUS
10
3.22693
20
1.20957
11
3.22763
21
1.20928
0
LINE
8
BLACK
6
CONTINUOUS
10
3.22763
20
1.20928
11
3.22791
21
1.20858
0
LINE
8
BLACK
6
CONTINUOUS
10
3.22791
20
1.20858
11
3.22791
21
1.13142
0
LINE
8
BLACK
6
CONTINUOUS
10
3.22791
20
1.13142
11
3.22763
21
1.13072
0
LINE
8
BLACK
6
CONTINUOUS
10
3.22763
20
1.13072
11
3.22693
21
1.13043
0
LINE
8
BLACK
6
CONTINUOUS
10
3.22693
20
1.13043
11
3.09307
21
1.13043
0
LINE
8
BLACK
6
CONTINUOUS
10
3.09307
20
1.13043
11
3.09237
21
1.13072
0
LINE
8
BLACK
6
CONTINUOUS
10
3.09406
20
1.2076
11
3.09406
21
1.1324
0
LINE
8
BLACK
6
CONTINUOUS
10
3.09406
20
1.1324
11
3.22594
21
1.1324
0
LINE
8
BLACK
6
CONTINUOUS
10
3.22594
20
1.1324
11
3.22594
21
1.2076
0
LINE
8
BLACK
6
CONTINUOUS
10
3.22594
20
1.2076
11
3.09406
21
1.2076
0
LINE
8
BLACK
6
CONTINUOUS
10
2.93724
20
1.1619
11
2.93695
21
1.1626
0
LINE
8
BLACK
6
CONTINUOUS
10
2.93695
20
1.1626
11
2.93695
21
1.2374
0
LINE
8
BLACK
6
CONTINUOUS
10
2.93695
20
1.2374
11
2.93724
21
1.2381
0
LINE
8
BLACK
6
CONTINUOUS
10
2.93724
20
1.2381
11
2.93793
21
1.23839
0
LINE
8
BLACK
6
CONTINUOUS
10
2.93793
20
1.23839
11
3.07022
21
1.23839
0
LINE
8
BLACK
6
CONTINUOUS
10
3.07022
20
1.23839
11
3.07091
21
1.2381
0
LINE
8
BLACK
6
CONTINUOUS
10
3.07091
20
1.2381
11
3.0712
21
1.2374
0
LINE
8
BLACK
6
CONTINUOUS
10
3.0712
20
1.2374
11
3.0712
21
1.1626
0
LINE
8
BLACK
6
CONTINUOUS
10
3.0712
20
1.1626
11
3.07091
21
1.1619
0
LINE
8
BLACK
6
CONTINUOUS
10
3.07091
20
1.1619
11
3.07022
21
1.16161
0
LINE
8
BLACK
6
CONTINUOUS
10
3.07022
20
1.16161
11
2.93793
21
1.16161
0
LINE
8
BLACK
6
CONTINUOUS
10
2.93793
20
1.16161
11
2.93724
21
1.1619
0
LINE
8
BLACK
6
CONTINUOUS
10
2.93892
20
1.23642
11
2.93892
21
1.16358
0
LINE
8
BLACK
6
CONTINUOUS
10
2.93892
20
1.16358
11
3.06923
21
1.16358
0
LINE
8
BLACK
6
CONTINUOUS
10
3.06923
20
1.16358
11
3.06923
21
1.23642
0
LINE
8
BLACK
6
CONTINUOUS
10
3.06923
20
1.23642
11
2.93892
21
1.23642
0
LINE
8
BLACK
6
CONTINUOUS
10
3.09237
20
1.22072
11
3.09209
21
1.22142
0
LINE
8
BLACK
6
CONTINUOUS
10
3.09209
20
1.22142
11
3.09209
21
1.29858
0
LINE
8
BLACK
6
CONTINUOUS
10
3.09209
20
1.29858
11
3.09237
21
1.29928
0
LINE
8
BLACK
6
CONTINUOUS
10
3.09237
20
1.29928
11
3.09307
21
1.29957
0
LINE
8
BLACK
6
CONTINUOUS
10
3.09307
20
1.29957
11
3.22693
21
1.29957
0
LINE
8
BLACK
6
CONTINUOUS
10
3.22693
20
1.29957
11
3.22763
21
1.29928
0
LINE
8
BLACK
6
CONTINUOUS
10
3.22763
20
1.29928
11
3.22791
21
1.29858
0
LINE
8
BLACK
6
CONTINUOUS
10
3.22791
20
1.29858
11
3.22791
21
1.22142
0
LINE
8
BLACK
6
CONTINUOUS
10
3.22791
20
1.22142
11
3.22763
21
1.22072
0
LINE
8
BLACK
6
CONTINUOUS
10
3.22763
20
1.22072
11
3.22693
21
1.22043
0
LINE
8
BLACK
6
CONTINUOUS
10
3.22693
20
1.22043
11
3.09307
21
1.22043
0
LINE
8
BLACK
6
CONTINUOUS
10
3.09307
20
1.22043
11
3.09237
21
1.22072
0
LINE
8
BLACK
6
CONTINUOUS
10
3.09406
20
1.2976
11
3.09406
21
1.2224
0
LINE
8
BLACK
6
CONTINUOUS
10
3.09406
20
1.2224
11
3.22594
21
1.2224
0
LINE
8
BLACK
6
CONTINUOUS
10
3.22594
20
1.2224
11
3.22594
21
1.2976
0
LINE
8
BLACK
6
CONTINUOUS
10
3.22594
20
1.2976
11
3.09406
21
1.2976
0
LINE
8
BLACK
6
CONTINUOUS
10
2.93816
20
1.2519
11
2.93787
21
1.2526
0
LINE
8
BLACK
6
CONTINUOUS
10
2.93787
20
1.2526
11
2.93787
21
1.3274
0
LINE
8
BLACK
6
CONTINUOUS
10
2.93787
20
1.3274
11
2.93816
21
1.3281
0
LINE
8
BLACK
6
CONTINUOUS
10
2.93816
20
1.3281
11
2.93886
21
1.32839
0
LINE
8
BLACK
6
CONTINUOUS
10
2.93886
20
1.32839
11
3.07114
21
1.32839
0
LINE
8
BLACK
6
CONTINUOUS
10
3.07114
20
1.32839
11
3.07184
21
1.3281
0
LINE
8
BLACK
6
CONTINUOUS
10
3.07184
20
1.3281
11
3.07213
21
1.3274
0
LINE
8
BLACK
6
CONTINUOUS
10
3.07213
20
1.3274
11
3.07213
21
1.2526
0
LINE
8
BLACK
6
CONTINUOUS
10
3.07213
20
1.2526
11
3.07184
21
1.2519
0
LINE
8
BLACK
6
CONTINUOUS
10
3.07184
20
1.2519
11
3.07114
21
1.25161
0
LINE
8
BLACK
6
CONTINUOUS
10
3.07114
20
1.25161
11
2.93886
21
1.25161
0
LINE
8
BLACK
6
CONTINUOUS
10
2.93886
20
1.25161
11
2.93816
21
1.2519
0
LINE
8
BLACK
6
CONTINUOUS
10
2.93984
20
1.32642
11
2.93984
21
1.25358
0
LINE
8
BLACK
6
CONTINUOUS
10
2.93984
20
1.25358
11
3.07016
21
1.25358
0
LINE
8
BLACK
6
CONTINUOUS
10
3.07016
20
1.25358
11
3.07016
21
1.32642
0
LINE
8
BLACK
6
CONTINUOUS
10
3.07016
20
1.32642
11
2.93984
21
1.32642
0
LINE
8
BLACK
6
CONTINUOUS
10
2.93816
20
1.3419
11
2.93787
21
1.3426
0
LINE
8
BLACK
6
CONTINUOUS
10
2.93787
20
1.3426
11
2.93787
21
1.4174
0
LINE
8
BLACK
6
CONTINUOUS
10
2.93787
20
1.4174
11
2.93816
21
1.4181
0
LINE
8
BLACK
6
CONTINUOUS
10
2.93816
20
1.4181
11
2.93886
21
1.41839
0
LINE
8
BLACK
6
CONTINUOUS
10
2.93886
20
1.41839
11
3.07114
21
1.41839
0
LINE
8
BLACK
6
CONTINUOUS
10
3.07114
20
1.41839
11
3.07184
21
1.4181
0
LINE
8
BLACK
6
CONTINUOUS
10
3.07184
20
1.4181
11
3.07213
21
1.4174
0
LINE
8
BLACK
6
CONTINUOUS
10
3.07213
20
1.4174
11
3.07213
21
1.3426
0
LINE
8
BLACK
6
CONTINUOUS
10
3.07213
20
1.3426
11
3.07184
21
1.3419
0
LINE
8
BLACK
6
CONTINUOUS
10
3.07184
20
1.3419
11
3.07114
21
1.34161
0
LINE
8
BLACK
6
CONTINUOUS
10
3.07114
20
1.34161
11
2.93886
21
1.34161
0
LINE
8
BLACK
6
CONTINUOUS
10
2.93886
20
1.34161
11
2.93816
21
1.3419
0
LINE
8
BLACK
6
CONTINUOUS
10
2.93984
20
1.41642
11
2.93984
21
1.34358
0
LINE
8
BLACK
6
CONTINUOUS
10
2.93984
20
1.34358
11
3.07016
21
1.34358
0
LINE
8
BLACK
6
CONTINUOUS
10
3.07016
20
1.34358
11
3.07016
21
1.41642
0
LINE
8
BLACK
6
CONTINUOUS
10
3.07016
20
1.41642
11
2.93984
21
1.41642
0
LINE
8
BLACK
6
CONTINUOUS
10
3.68332
20
1.81584
11
3.68303
21
1.81654
0
LINE
8
BLACK
6
CONTINUOUS
10
3.68303
20
1.81654
11
3.68303
21
2.13937
0
LINE
8
BLACK
6
CONTINUOUS
10
3.68303
20
2.13937
11
3.68332
21
2.14007
0
LINE
8
BLACK
6
CONTINUOUS
10
3.68332
20
2.14007
11
3.68402
21
2.14035
0
LINE
8
BLACK
6
CONTINUOUS
10
3.68402
20
2.14035
11
3.93598
21
2.14035
0
LINE
8
BLACK
6
CONTINUOUS
10
3.93598
20
2.14035
11
3.93668
21
2.14007
0
LINE
8
BLACK
6
CONTINUOUS
10
3.93668
20
2.14007
11
3.93697
21
2.13937
0
LINE
8
BLACK
6
CONTINUOUS
10
3.93697
20
2.13937
11
3.93697
21
1.81654
0
LINE
8
BLACK
6
CONTINUOUS
10
3.93697
20
1.81654
11
3.93668
21
1.81584
0
LINE
8
BLACK
6
CONTINUOUS
10
3.93668
20
1.81584
11
3.93598
21
1.81555
0
LINE
8
BLACK
6
CONTINUOUS
10
3.93598
20
1.81555
11
3.68402
21
1.81555
0
LINE
8
BLACK
6
CONTINUOUS
10
3.68402
20
1.81555
11
3.68332
21
1.81584
0
LINE
8
BLACK
6
CONTINUOUS
10
3.685
20
2.13839
11
3.685
21
1.81752
0
LINE
8
BLACK
6
CONTINUOUS
10
3.685
20
1.81752
11
3.935
21
1.81752
0
LINE
8
BLACK
6
CONTINUOUS
10
3.935
20
1.81752
11
3.935
21
2.13839
0
LINE
8
BLACK
6
CONTINUOUS
10
3.935
20
2.13839
11
3.685
21
2.13839
0
LINE
8
BLACK
6
CONTINUOUS
10
3.68332
20
2.15289
11
3.68303
21
2.15358
0
LINE
8
BLACK
6
CONTINUOUS
10
3.68303
20
2.15358
11
3.68303
21
2.47642
0
LINE
8
BLACK
6
CONTINUOUS
10
3.68303
20
2.47642
11
3.68332
21
2.47711
0
LINE
8
BLACK
6
CONTINUOUS
10
3.68332
20
2.47711
11
3.68402
21
2.4774
0
LINE
8
BLACK
6
CONTINUOUS
10
3.68402
20
2.4774
11
3.93598
21
2.4774
0
LINE
8
BLACK
6
CONTINUOUS
10
3.93598
20
2.4774
11
3.93668
21
2.47711
0
LINE
8
BLACK
6
CONTINUOUS
10
3.93668
20
2.47711
11
3.93697
21
2.47642
0
LINE
8
BLACK
6
CONTINUOUS
10
3.93697
20
2.47642
11
3.93697
21
2.15358
0
LINE
8
BLACK
6
CONTINUOUS
10
3.93697
20
2.15358
11
3.93668
21
2.15289
0
LINE
8
BLACK
6
CONTINUOUS
10
3.93668
20
2.15289
11
3.93598
21
2.1526
0
LINE
8
BLACK
6
CONTINUOUS
10
3.93598
20
2.1526
11
3.68402
21
2.1526
0
LINE
8
BLACK
6
CONTINUOUS
10
3.68402
20
2.1526
11
3.68332
21
2.15289
0
LINE
8
BLACK
6
CONTINUOUS
10
3.685
20
2.47543
11
3.685
21
2.15457
0
LINE
8
BLACK
6
CONTINUOUS
10
3.685
20
2.15457
11
3.935
21
2.15457
0
LINE
8
BLACK
6
CONTINUOUS
10
3.935
20
2.15457
11
3.935
21
2.47543
0
LINE
8
BLACK
6
CONTINUOUS
10
3.935
20
2.47543
11
3.685
21
2.47543
  0
ENDSEC
  0
EOF
