  0
SECTION
  2
HEADER
  9
$ANGBASE
  50
0.0
  9
$ANGDIR
  70
1
  9
$MEASUREMENT
  70
0
  0
ENDSEC
  0
SECTION
  2
TABLES
  0
TABLE
  2
LTYPE
  70
4
  0
LTYPE
  5
40F
  2
CONTINUOUS
  70
0
  3
Solid line
  72
65
  73
0
  40
0.0
  0
LTYPE
  5
410
  2
DASHDOT
 70
0
  3
Dash Dot ____ _ ____ _
 72
65
 73
4
 40
2.0
 49
1.25
 49
-0.25
 49
0.25
 49
-0.25
  0
LTYPE
  5
411
  2
DASHED
 70
0
  3
Dashed __ __ __ __ __
 72
65
 73
2
 40
0.75
 49
0.5
 49
-0.25
  0
LTYPE
  5
43B
  2
DOTTED
 70
0
  3
Dotted .  .  .  .
 72
65
 73
2
 40
0.2
 49
0.0
 49
-0.2
  0
ENDTAB
  0
TABLE
  2
STYLE
  70
4
  0
STYLE
  2
KICAD
  70
0
  40
0
  41
1
  42
1
  50
0
  71
0
  3
isocp.shx
  0
STYLE
  2
KICADB
  70
0
  40
0
  41
1
  42
1
  50
0
  71
0
  3
isocp.shx
  0
STYLE
  2
KICADI
  70
0
  40
0
  41
1
  42
1
  50
15
  71
0
  3
isocp.shx
  0
STYLE
  2
KICADBI
  70
0
  40
0
  41
1
  42
1
  50
15
  71
0
  3
isocp.shx
  0
ENDTAB
  0
TABLE
  2
LAYER
  70
1
  0
LAYER
  2
BLACK
  70
0
  62
7
  6
CONTINUOUS
  0
ENDTAB
  0
ENDSEC
  0
SECTION
  2
ENTITIES
0
LINE
8
BLACK
6
CONTINUOUS
10
3.60931
20
0.192314
11
3.61187
21
0.190607
0
LINE
8
BLACK
6
CONTINUOUS
10
3.61187
20
0.190607
11
3.61357
21
0.188053
0
LINE
8
BLACK
6
CONTINUOUS
10
3.61357
20
0.188053
11
3.61417
21
0.185039
0
LINE
8
BLACK
6
CONTINUOUS
10
3.61417
20
0.185039
11
3.61417
21
0.0275591
0
LINE
8
BLACK
6
CONTINUOUS
10
3.61417
20
0.0275591
11
3.61357
21
0.0245458
0
LINE
8
BLACK
6
CONTINUOUS
10
3.61357
20
0.0245458
11
3.61187
21
0.0219913
0
LINE
8
BLACK
6
CONTINUOUS
10
3.61187
20
0.0219913
11
3.60931
21
0.0202844
0
LINE
8
BLACK
6
CONTINUOUS
10
3.60931
20
0.0202844
11
3.6063
21
0.019685
0
LINE
8
BLACK
6
CONTINUOUS
10
3.6063
20
0.019685
11
3.44882
21
0.019685
0
LINE
8
BLACK
6
CONTINUOUS
10
3.44882
20
0.019685
11
3.44581
21
0.0202844
0
LINE
8
BLACK
6
CONTINUOUS
10
3.44581
20
0.0202844
11
3.44325
21
0.0219913
0
LINE
8
BLACK
6
CONTINUOUS
10
3.44325
20
0.0219913
11
3.44154
21
0.0245458
0
LINE
8
BLACK
6
CONTINUOUS
10
3.44154
20
0.0245458
11
3.44094
21
0.0275591
0
LINE
8
BLACK
6
CONTINUOUS
10
3.44094
20
0.0275591
11
3.44094
21
0.185039
0
LINE
8
BLACK
6
CONTINUOUS
10
3.44094
20
0.185039
11
3.44154
21
0.188053
0
LINE
8
BLACK
6
CONTINUOUS
10
3.44154
20
0.188053
11
3.44325
21
0.190607
0
LINE
8
BLACK
6
CONTINUOUS
10
3.44325
20
0.190607
11
3.44581
21
0.192314
0
LINE
8
BLACK
6
CONTINUOUS
10
3.44581
20
0.192314
11
3.44882
21
0.192913
0
LINE
8
BLACK
6
CONTINUOUS
10
3.44882
20
0.192913
11
3.6063
21
0.192913
0
LINE
8
BLACK
6
CONTINUOUS
10
3.6063
20
0.192913
11
3.60931
21
0.192314
0
LINE
8
BLACK
6
CONTINUOUS
10
2.84947
20
0.192314
11
2.85202
21
0.190607
0
LINE
8
BLACK
6
CONTINUOUS
10
2.85202
20
0.190607
11
2.85373
21
0.188053
0
LINE
8
BLACK
6
CONTINUOUS
10
2.85373
20
0.188053
11
2.85433
21
0.185039
0
LINE
8
BLACK
6
CONTINUOUS
10
2.85433
20
0.185039
11
2.85433
21
0.0275591
0
LINE
8
BLACK
6
CONTINUOUS
10
2.85433
20
0.0275591
11
2.85373
21
0.0245458
0
LINE
8
BLACK
6
CONTINUOUS
10
2.85373
20
0.0245458
11
2.85202
21
0.0219913
0
LINE
8
BLACK
6
CONTINUOUS
10
2.85202
20
0.0219913
11
2.84947
21
0.0202844
0
LINE
8
BLACK
6
CONTINUOUS
10
2.84947
20
0.0202844
11
2.84646
21
0.019685
0
LINE
8
BLACK
6
CONTINUOUS
10
2.84646
20
0.019685
11
2.68898
21
0.019685
0
LINE
8
BLACK
6
CONTINUOUS
10
2.68898
20
0.019685
11
2.68596
21
0.0202844
0
LINE
8
BLACK
6
CONTINUOUS
10
2.68596
20
0.0202844
11
2.68341
21
0.0219913
0
LINE
8
BLACK
6
CONTINUOUS
10
2.68341
20
0.0219913
11
2.6817
21
0.0245458
0
LINE
8
BLACK
6
CONTINUOUS
10
2.6817
20
0.0245458
11
2.6811
21
0.0275591
0
LINE
8
BLACK
6
CONTINUOUS
10
2.6811
20
0.0275591
11
2.6811
21
0.185039
0
LINE
8
BLACK
6
CONTINUOUS
10
2.6811
20
0.185039
11
2.6817
21
0.188053
0
LINE
8
BLACK
6
CONTINUOUS
10
2.6817
20
0.188053
11
2.68341
21
0.190607
0
LINE
8
BLACK
6
CONTINUOUS
10
2.68341
20
0.190607
11
2.68596
21
0.192314
0
LINE
8
BLACK
6
CONTINUOUS
10
2.68596
20
0.192314
11
2.68898
21
0.192913
0
LINE
8
BLACK
6
CONTINUOUS
10
2.68898
20
0.192913
11
2.84646
21
0.192913
0
LINE
8
BLACK
6
CONTINUOUS
10
2.84646
20
0.192913
11
2.84947
21
0.192314
0
LINE
8
BLACK
6
CONTINUOUS
10
0.496911
20
0.194283
11
0.499465
21
0.192576
0
LINE
8
BLACK
6
CONTINUOUS
10
0.499465
20
0.192576
11
0.501172
21
0.190021
0
LINE
8
BLACK
6
CONTINUOUS
10
0.501172
20
0.190021
11
0.501772
21
0.187008
0
LINE
8
BLACK
6
CONTINUOUS
10
0.501772
20
0.187008
11
0.501772
21
0.0295276
0
LINE
8
BLACK
6
CONTINUOUS
10
0.501772
20
0.0295276
11
0.501172
21
0.0265143
0
LINE
8
BLACK
6
CONTINUOUS
10
0.501172
20
0.0265143
11
0.499465
21
0.0239598
0
LINE
8
BLACK
6
CONTINUOUS
10
0.499465
20
0.0239598
11
0.496911
21
0.0222529
0
LINE
8
BLACK
6
CONTINUOUS
10
0.496911
20
0.0222529
11
0.493898
21
0.0216535
0
LINE
8
BLACK
6
CONTINUOUS
10
0.493898
20
0.0216535
11
0.336417
21
0.0216535
0
LINE
8
BLACK
6
CONTINUOUS
10
0.336417
20
0.0216535
11
0.333404
21
0.0222529
0
LINE
8
BLACK
6
CONTINUOUS
10
0.333404
20
0.0222529
11
0.33085
21
0.0239598
0
LINE
8
BLACK
6
CONTINUOUS
10
0.33085
20
0.0239598
11
0.329143
21
0.0265143
0
LINE
8
BLACK
6
CONTINUOUS
10
0.329143
20
0.0265143
11
0.328543
21
0.0295276
0
LINE
8
BLACK
6
CONTINUOUS
10
0.328543
20
0.0295276
11
0.328543
21
0.187008
0
LINE
8
BLACK
6
CONTINUOUS
10
0.328543
20
0.187008
11
0.329143
21
0.190021
0
LINE
8
BLACK
6
CONTINUOUS
10
0.329143
20
0.190021
11
0.33085
21
0.192576
0
LINE
8
BLACK
6
CONTINUOUS
10
0.33085
20
0.192576
11
0.333404
21
0.194283
0
LINE
8
BLACK
6
CONTINUOUS
10
0.333404
20
0.194283
11
0.336417
21
0.194882
0
LINE
8
BLACK
6
CONTINUOUS
10
0.336417
20
0.194882
11
0.493898
21
0.194882
0
LINE
8
BLACK
6
CONTINUOUS
10
0.493898
20
0.194882
11
0.496911
21
0.194283
0
LINE
8
BLACK
6
CONTINUOUS
10
1.25675
20
0.194283
11
1.25931
21
0.192576
0
LINE
8
BLACK
6
CONTINUOUS
10
1.25931
20
0.192576
11
1.26101
21
0.190021
0
LINE
8
BLACK
6
CONTINUOUS
10
1.26101
20
0.190021
11
1.26161
21
0.187008
0
LINE
8
BLACK
6
CONTINUOUS
10
1.26161
20
0.187008
11
1.26161
21
0.0295276
0
LINE
8
BLACK
6
CONTINUOUS
10
1.26161
20
0.0295276
11
1.26101
21
0.0265143
0
LINE
8
BLACK
6
CONTINUOUS
10
1.26101
20
0.0265143
11
1.25931
21
0.0239598
0
LINE
8
BLACK
6
CONTINUOUS
10
1.25931
20
0.0239598
11
1.25675
21
0.0222529
0
LINE
8
BLACK
6
CONTINUOUS
10
1.25675
20
0.0222529
11
1.25374
21
0.0216535
0
LINE
8
BLACK
6
CONTINUOUS
10
1.25374
20
0.0216535
11
1.09626
21
0.0216535
0
LINE
8
BLACK
6
CONTINUOUS
10
1.09626
20
0.0216535
11
1.09325
21
0.0222529
0
LINE
8
BLACK
6
CONTINUOUS
10
1.09325
20
0.0222529
11
1.09069
21
0.0239598
0
LINE
8
BLACK
6
CONTINUOUS
10
1.09069
20
0.0239598
11
1.08899
21
0.0265143
0
LINE
8
BLACK
6
CONTINUOUS
10
1.08899
20
0.0265143
11
1.08839
21
0.0295276
0
LINE
8
BLACK
6
CONTINUOUS
10
1.08839
20
0.0295276
11
1.08839
21
0.187008
0
LINE
8
BLACK
6
CONTINUOUS
10
1.08839
20
0.187008
11
1.08899
21
0.190021
0
LINE
8
BLACK
6
CONTINUOUS
10
1.08899
20
0.190021
11
1.09069
21
0.192576
0
LINE
8
BLACK
6
CONTINUOUS
10
1.09069
20
0.192576
11
1.09325
21
0.194283
0
LINE
8
BLACK
6
CONTINUOUS
10
1.09325
20
0.194283
11
1.09626
21
0.194882
0
LINE
8
BLACK
6
CONTINUOUS
10
1.09626
20
0.194882
11
1.25374
21
0.194882
0
LINE
8
BLACK
6
CONTINUOUS
10
1.25374
20
0.194882
11
1.25675
21
0.194283
0
LINE
8
BLACK
6
CONTINUOUS
10
2.0166
20
0.194283
11
2.01915
21
0.192576
0
LINE
8
BLACK
6
CONTINUOUS
10
2.01915
20
0.192576
11
2.02086
21
0.190021
0
LINE
8
BLACK
6
CONTINUOUS
10
2.02086
20
0.190021
11
2.02146
21
0.187008
0
LINE
8
BLACK
6
CONTINUOUS
10
2.02146
20
0.187008
11
2.02146
21
0.0295276
0
LINE
8
BLACK
6
CONTINUOUS
10
2.02146
20
0.0295276
11
2.02086
21
0.0265143
0
LINE
8
BLACK
6
CONTINUOUS
10
2.02086
20
0.0265143
11
2.01915
21
0.0239598
0
LINE
8
BLACK
6
CONTINUOUS
10
2.01915
20
0.0239598
11
2.0166
21
0.0222529
0
LINE
8
BLACK
6
CONTINUOUS
10
2.0166
20
0.0222529
11
2.01358
21
0.0216535
0
LINE
8
BLACK
6
CONTINUOUS
10
2.01358
20
0.0216535
11
1.8561
21
0.0216535
0
LINE
8
BLACK
6
CONTINUOUS
10
1.8561
20
0.0216535
11
1.85309
21
0.0222529
0
LINE
8
BLACK
6
CONTINUOUS
10
1.85309
20
0.0222529
11
1.85053
21
0.0239598
0
LINE
8
BLACK
6
CONTINUOUS
10
1.85053
20
0.0239598
11
1.84883
21
0.0265143
0
LINE
8
BLACK
6
CONTINUOUS
10
1.84883
20
0.0265143
11
1.84823
21
0.0295276
0
LINE
8
BLACK
6
CONTINUOUS
10
1.84823
20
0.0295276
11
1.84823
21
0.187008
0
LINE
8
BLACK
6
CONTINUOUS
10
1.84823
20
0.187008
11
1.84883
21
0.190021
0
LINE
8
BLACK
6
CONTINUOUS
10
1.84883
20
0.190021
11
1.85053
21
0.192576
0
LINE
8
BLACK
6
CONTINUOUS
10
1.85053
20
0.192576
11
1.85309
21
0.194283
0
LINE
8
BLACK
6
CONTINUOUS
10
1.85309
20
0.194283
11
1.8561
21
0.194882
0
LINE
8
BLACK
6
CONTINUOUS
10
1.8561
20
0.194882
11
2.01358
21
0.194882
0
LINE
8
BLACK
6
CONTINUOUS
10
2.01358
20
0.194882
11
2.0166
21
0.194283
0
LINE
8
BLACK
6
CONTINUOUS
10
2.77389
20
0.511148
11
2.78426
21
0.509459
0
LINE
8
BLACK
6
CONTINUOUS
10
2.78426
20
0.509459
11
2.79426
21
0.506257
0
LINE
8
BLACK
6
CONTINUOUS
10
2.79426
20
0.506257
11
2.80368
21
0.501611
0
LINE
8
BLACK
6
CONTINUOUS
10
2.80368
20
0.501611
11
2.81231
21
0.495625
0
LINE
8
BLACK
6
CONTINUOUS
10
2.81231
20
0.495625
11
2.81996
21
0.488428
0
LINE
8
BLACK
6
CONTINUOUS
10
2.81996
20
0.488428
11
2.82647
21
0.480179
0
LINE
8
BLACK
6
CONTINUOUS
10
2.82647
20
0.480179
11
2.83168
21
0.47106
0
LINE
8
BLACK
6
CONTINUOUS
10
2.83168
20
0.47106
11
2.83549
21
0.46127
0
LINE
8
BLACK
6
CONTINUOUS
10
2.83549
20
0.46127
11
2.8378
21
0.451026
0
LINE
8
BLACK
6
CONTINUOUS
10
2.8378
20
0.451026
11
2.83858
21
0.440551
0
LINE
8
BLACK
6
CONTINUOUS
10
2.83858
20
0.440551
11
2.83849
21
0.436842
0
LINE
8
BLACK
6
CONTINUOUS
10
2.83849
20
0.436842
11
2.83716
21
0.426423
0
LINE
8
BLACK
6
CONTINUOUS
10
2.83716
20
0.426423
11
2.83431
21
0.416314
0
LINE
8
BLACK
6
CONTINUOUS
10
2.83431
20
0.416314
11
2.82999
21
0.406737
0
LINE
8
BLACK
6
CONTINUOUS
10
2.82999
20
0.406737
11
2.82431
21
0.397903
0
LINE
8
BLACK
6
CONTINUOUS
10
2.82431
20
0.397903
11
2.81739
21
0.390006
0
LINE
8
BLACK
6
CONTINUOUS
10
2.81739
20
0.390006
11
2.80937
21
0.383219
0
LINE
8
BLACK
6
CONTINUOUS
10
2.80937
20
0.383219
11
2.80044
21
0.377692
0
LINE
8
BLACK
6
CONTINUOUS
10
2.80044
20
0.377692
11
2.79079
21
0.373546
0
LINE
8
BLACK
6
CONTINUOUS
10
2.79079
20
0.373546
11
2.78063
21
0.370872
0
LINE
8
BLACK
6
CONTINUOUS
10
2.78063
20
0.370872
11
2.77019
21
0.369728
0
LINE
8
BLACK
6
CONTINUOUS
10
2.77019
20
0.369728
11
2.75969
21
0.370141
0
LINE
8
BLACK
6
CONTINUOUS
10
2.75969
20
0.370141
11
2.74938
21
0.3721
0
LINE
8
BLACK
6
CONTINUOUS
10
2.74938
20
0.3721
11
2.73946
21
0.375563
0
LINE
8
BLACK
6
CONTINUOUS
10
2.73946
20
0.375563
11
2.73016
21
0.380453
0
LINE
8
BLACK
6
CONTINUOUS
10
2.73016
20
0.380453
11
2.72169
21
0.386664
0
LINE
8
BLACK
6
CONTINUOUS
10
2.72169
20
0.386664
11
2.71423
21
0.394059
0
LINE
8
BLACK
6
CONTINUOUS
10
2.71423
20
0.394059
11
2.70795
21
0.402475
0
LINE
8
BLACK
6
CONTINUOUS
10
2.70795
20
0.402475
11
2.70298
21
0.411727
0
LINE
8
BLACK
6
CONTINUOUS
10
2.70298
20
0.411727
11
2.69943
21
0.421613
0
LINE
8
BLACK
6
CONTINUOUS
10
2.69943
20
0.421613
11
2.69738
21
0.431915
0
LINE
8
BLACK
6
CONTINUOUS
10
2.69738
20
0.431915
11
2.69687
21
0.442406
0
LINE
8
BLACK
6
CONTINUOUS
10
2.69687
20
0.442406
11
2.69793
21
0.452857
0
LINE
8
BLACK
6
CONTINUOUS
10
2.69793
20
0.452857
11
2.70051
21
0.463037
0
LINE
8
BLACK
6
CONTINUOUS
10
2.70051
20
0.463037
11
2.70457
21
0.472724
0
LINE
8
BLACK
6
CONTINUOUS
10
2.70457
20
0.472724
11
2.71002
21
0.481703
0
LINE
8
BLACK
6
CONTINUOUS
10
2.71002
20
0.481703
11
2.71674
21
0.489779
0
LINE
8
BLACK
6
CONTINUOUS
10
2.71674
20
0.489779
11
2.72458
21
0.496773
0
LINE
8
BLACK
6
CONTINUOUS
10
2.72458
20
0.496773
11
2.73336
21
0.502532
0
LINE
8
BLACK
6
CONTINUOUS
10
2.73336
20
0.502532
11
2.7429
21
0.50693
0
LINE
8
BLACK
6
CONTINUOUS
10
2.7429
20
0.50693
11
2.75298
21
0.509869
0
LINE
8
BLACK
6
CONTINUOUS
10
2.75298
20
0.509869
11
2.76339
21
0.511285
0
LINE
8
BLACK
6
CONTINUOUS
10
2.76339
20
0.511285
11
2.77389
21
0.511148
0
LINE
8
BLACK
6
CONTINUOUS
10
3.53374
20
0.511148
11
3.5441
21
0.509459
0
LINE
8
BLACK
6
CONTINUOUS
10
3.5441
20
0.509459
11
3.55411
21
0.506257
0
LINE
8
BLACK
6
CONTINUOUS
10
3.55411
20
0.506257
11
3.56353
21
0.501611
0
LINE
8
BLACK
6
CONTINUOUS
10
3.56353
20
0.501611
11
3.57216
21
0.495625
0
LINE
8
BLACK
6
CONTINUOUS
10
3.57216
20
0.495625
11
3.57981
21
0.488428
0
LINE
8
BLACK
6
CONTINUOUS
10
3.57981
20
0.488428
11
3.58631
21
0.480179
0
LINE
8
BLACK
6
CONTINUOUS
10
3.58631
20
0.480179
11
3.59152
21
0.47106
0
LINE
8
BLACK
6
CONTINUOUS
10
3.59152
20
0.47106
11
3.59533
21
0.46127
0
LINE
8
BLACK
6
CONTINUOUS
10
3.59533
20
0.46127
11
3.59765
21
0.451026
0
LINE
8
BLACK
6
CONTINUOUS
10
3.59765
20
0.451026
11
3.59843
21
0.440551
0
LINE
8
BLACK
6
CONTINUOUS
10
3.59843
20
0.440551
11
3.59833
21
0.436842
0
LINE
8
BLACK
6
CONTINUOUS
10
3.59833
20
0.436842
11
3.597
21
0.426423
0
LINE
8
BLACK
6
CONTINUOUS
10
3.597
20
0.426423
11
3.59415
21
0.416314
0
LINE
8
BLACK
6
CONTINUOUS
10
3.59415
20
0.416314
11
3.58984
21
0.406737
0
LINE
8
BLACK
6
CONTINUOUS
10
3.58984
20
0.406737
11
3.58416
21
0.397903
0
LINE
8
BLACK
6
CONTINUOUS
10
3.58416
20
0.397903
11
3.57723
21
0.390006
0
LINE
8
BLACK
6
CONTINUOUS
10
3.57723
20
0.390006
11
3.56921
21
0.383219
0
LINE
8
BLACK
6
CONTINUOUS
10
3.56921
20
0.383219
11
3.56028
21
0.377692
0
LINE
8
BLACK
6
CONTINUOUS
10
3.56028
20
0.377692
11
3.55063
21
0.373546
0
LINE
8
BLACK
6
CONTINUOUS
10
3.55063
20
0.373546
11
3.54047
21
0.370872
0
LINE
8
BLACK
6
CONTINUOUS
10
3.54047
20
0.370872
11
3.53003
21
0.369728
0
LINE
8
BLACK
6
CONTINUOUS
10
3.53003
20
0.369728
11
3.51954
21
0.370141
0
LINE
8
BLACK
6
CONTINUOUS
10
3.51954
20
0.370141
11
3.50922
21
0.3721
0
LINE
8
BLACK
6
CONTINUOUS
10
3.50922
20
0.3721
11
3.4993
21
0.375563
0
LINE
8
BLACK
6
CONTINUOUS
10
3.4993
20
0.375563
11
3.49001
21
0.380453
0
LINE
8
BLACK
6
CONTINUOUS
10
3.49001
20
0.380453
11
3.48154
21
0.386664
0
LINE
8
BLACK
6
CONTINUOUS
10
3.48154
20
0.386664
11
3.47408
21
0.394059
0
LINE
8
BLACK
6
CONTINUOUS
10
3.47408
20
0.394059
11
3.46779
21
0.402475
0
LINE
8
BLACK
6
CONTINUOUS
10
3.46779
20
0.402475
11
3.46282
21
0.411727
0
LINE
8
BLACK
6
CONTINUOUS
10
3.46282
20
0.411727
11
3.45927
21
0.421613
0
LINE
8
BLACK
6
CONTINUOUS
10
3.45927
20
0.421613
11
3.45722
21
0.431915
0
LINE
8
BLACK
6
CONTINUOUS
10
3.45722
20
0.431915
11
3.45672
21
0.442406
0
LINE
8
BLACK
6
CONTINUOUS
10
3.45672
20
0.442406
11
3.45777
21
0.452857
0
LINE
8
BLACK
6
CONTINUOUS
10
3.45777
20
0.452857
11
3.46035
21
0.463037
0
LINE
8
BLACK
6
CONTINUOUS
10
3.46035
20
0.463037
11
3.46442
21
0.472724
0
LINE
8
BLACK
6
CONTINUOUS
10
3.46442
20
0.472724
11
3.46987
21
0.481703
0
LINE
8
BLACK
6
CONTINUOUS
10
3.46987
20
0.481703
11
3.47658
21
0.489779
0
LINE
8
BLACK
6
CONTINUOUS
10
3.47658
20
0.489779
11
3.48442
21
0.496773
0
LINE
8
BLACK
6
CONTINUOUS
10
3.48442
20
0.496773
11
3.4932
21
0.502532
0
LINE
8
BLACK
6
CONTINUOUS
10
3.4932
20
0.502532
11
3.50274
21
0.50693
0
LINE
8
BLACK
6
CONTINUOUS
10
3.50274
20
0.50693
11
3.51283
21
0.509869
0
LINE
8
BLACK
6
CONTINUOUS
10
3.51283
20
0.509869
11
3.52323
21
0.511285
0
LINE
8
BLACK
6
CONTINUOUS
10
3.52323
20
0.511285
11
3.53374
21
0.511148
0
LINE
8
BLACK
6
CONTINUOUS
10
0.421334
20
0.511344
11
0.431701
21
0.509656
0
LINE
8
BLACK
6
CONTINUOUS
10
0.431701
20
0.509656
11
0.441704
21
0.506454
0
LINE
8
BLACK
6
CONTINUOUS
10
0.441704
20
0.506454
11
0.451125
21
0.501808
0
LINE
8
BLACK
6
CONTINUOUS
10
0.451125
20
0.501808
11
0.459755
21
0.495821
0
LINE
8
BLACK
6
CONTINUOUS
10
0.459755
20
0.495821
11
0.467405
21
0.488624
0
LINE
8
BLACK
6
CONTINUOUS
10
0.467405
20
0.488624
11
0.473908
21
0.480376
0
LINE
8
BLACK
6
CONTINUOUS
10
0.473908
20
0.480376
11
0.47912
21
0.471257
0
LINE
8
BLACK
6
CONTINUOUS
10
0.47912
20
0.471257
11
0.482927
21
0.461467
0
LINE
8
BLACK
6
CONTINUOUS
10
0.482927
20
0.461467
11
0.485245
21
0.451223
0
LINE
8
BLACK
6
CONTINUOUS
10
0.485245
20
0.451223
11
0.486024
21
0.440748
0
LINE
8
BLACK
6
CONTINUOUS
10
0.486024
20
0.440748
11
0.485926
21
0.437039
0
LINE
8
BLACK
6
CONTINUOUS
10
0.485926
20
0.437039
11
0.484601
21
0.42662
0
LINE
8
BLACK
6
CONTINUOUS
10
0.484601
20
0.42662
11
0.48175
21
0.41651
0
LINE
8
BLACK
6
CONTINUOUS
10
0.48175
20
0.41651
11
0.477436
21
0.406934
0
LINE
8
BLACK
6
CONTINUOUS
10
0.477436
20
0.406934
11
0.471754
21
0.3981
0
LINE
8
BLACK
6
CONTINUOUS
10
0.471754
20
0.3981
11
0.464828
21
0.390203
0
LINE
8
BLACK
6
CONTINUOUS
10
0.464828
20
0.390203
11
0.456812
21
0.383416
0
LINE
8
BLACK
6
CONTINUOUS
10
0.456812
20
0.383416
11
0.44788
21
0.377889
0
LINE
8
BLACK
6
CONTINUOUS
10
0.44788
20
0.377889
11
0.438229
21
0.373743
0
LINE
8
BLACK
6
CONTINUOUS
10
0.438229
20
0.373743
11
0.428072
21
0.371069
0
LINE
8
BLACK
6
CONTINUOUS
10
0.428072
20
0.371069
11
0.417631
21
0.369925
0
LINE
8
BLACK
6
CONTINUOUS
10
0.417631
20
0.369925
11
0.407135
21
0.370337
0
LINE
8
BLACK
6
CONTINUOUS
10
0.407135
20
0.370337
11
0.396816
21
0.372297
0
LINE
8
BLACK
6
CONTINUOUS
10
0.396816
20
0.372297
11
0.3869
21
0.37576
0
LINE
8
BLACK
6
CONTINUOUS
10
0.3869
20
0.37576
11
0.377604
21
0.38065
0
LINE
8
BLACK
6
CONTINUOUS
10
0.377604
20
0.38065
11
0.369134
21
0.386861
0
LINE
8
BLACK
6
CONTINUOUS
10
0.369134
20
0.386861
11
0.361674
21
0.394256
0
LINE
8
BLACK
6
CONTINUOUS
10
0.361674
20
0.394256
11
0.35539
21
0.402672
0
LINE
8
BLACK
6
CONTINUOUS
10
0.35539
20
0.402672
11
0.350418
21
0.411924
0
LINE
8
BLACK
6
CONTINUOUS
10
0.350418
20
0.411924
11
0.346869
21
0.42181
0
LINE
8
BLACK
6
CONTINUOUS
10
0.346869
20
0.42181
11
0.34482
21
0.432112
0
LINE
8
BLACK
6
CONTINUOUS
10
0.34482
20
0.432112
11
0.344316
21
0.442603
0
LINE
8
BLACK
6
CONTINUOUS
10
0.344316
20
0.442603
11
0.345368
21
0.453054
0
LINE
8
BLACK
6
CONTINUOUS
10
0.345368
20
0.453054
11
0.347953
21
0.463234
0
LINE
8
BLACK
6
CONTINUOUS
10
0.347953
20
0.463234
11
0.352015
21
0.472921
0
LINE
8
BLACK
6
CONTINUOUS
10
0.352015
20
0.472921
11
0.357464
21
0.4819
0
LINE
8
BLACK
6
CONTINUOUS
10
0.357464
20
0.4819
11
0.364181
21
0.489976
0
LINE
8
BLACK
6
CONTINUOUS
10
0.364181
20
0.489976
11
0.372017
21
0.49697
0
LINE
8
BLACK
6
CONTINUOUS
10
0.372017
20
0.49697
11
0.380801
21
0.502729
0
LINE
8
BLACK
6
CONTINUOUS
10
0.380801
20
0.502729
11
0.39034
21
0.507126
0
LINE
8
BLACK
6
CONTINUOUS
10
0.39034
20
0.507126
11
0.400424
21
0.510066
0
LINE
8
BLACK
6
CONTINUOUS
10
0.400424
20
0.510066
11
0.410831
21
0.511482
0
LINE
8
BLACK
6
CONTINUOUS
10
0.410831
20
0.511482
11
0.421334
21
0.511344
0
LINE
8
BLACK
6
CONTINUOUS
10
1.94102
20
0.511344
11
1.95139
21
0.509656
0
LINE
8
BLACK
6
CONTINUOUS
10
1.95139
20
0.509656
11
1.96139
21
0.506454
0
LINE
8
BLACK
6
CONTINUOUS
10
1.96139
20
0.506454
11
1.97081
21
0.501808
0
LINE
8
BLACK
6
CONTINUOUS
10
1.97081
20
0.501808
11
1.97944
21
0.495821
0
LINE
8
BLACK
6
CONTINUOUS
10
1.97944
20
0.495821
11
1.98709
21
0.488624
0
LINE
8
BLACK
6
CONTINUOUS
10
1.98709
20
0.488624
11
1.99359
21
0.480376
0
LINE
8
BLACK
6
CONTINUOUS
10
1.99359
20
0.480376
11
1.99881
21
0.471257
0
LINE
8
BLACK
6
CONTINUOUS
10
1.99881
20
0.471257
11
2.00261
21
0.461467
0
LINE
8
BLACK
6
CONTINUOUS
10
2.00261
20
0.461467
11
2.00493
21
0.451223
0
LINE
8
BLACK
6
CONTINUOUS
10
2.00493
20
0.451223
11
2.00571
21
0.440748
0
LINE
8
BLACK
6
CONTINUOUS
10
2.00571
20
0.440748
11
2.00561
21
0.437039
0
LINE
8
BLACK
6
CONTINUOUS
10
2.00561
20
0.437039
11
2.00429
21
0.42662
0
LINE
8
BLACK
6
CONTINUOUS
10
2.00429
20
0.42662
11
2.00143
21
0.41651
0
LINE
8
BLACK
6
CONTINUOUS
10
2.00143
20
0.41651
11
1.99712
21
0.406934
0
LINE
8
BLACK
6
CONTINUOUS
10
1.99712
20
0.406934
11
1.99144
21
0.3981
0
LINE
8
BLACK
6
CONTINUOUS
10
1.99144
20
0.3981
11
1.98451
21
0.390203
0
LINE
8
BLACK
6
CONTINUOUS
10
1.98451
20
0.390203
11
1.9765
21
0.383416
0
LINE
8
BLACK
6
CONTINUOUS
10
1.9765
20
0.383416
11
1.96756
21
0.377889
0
LINE
8
BLACK
6
CONTINUOUS
10
1.96756
20
0.377889
11
1.95791
21
0.373743
0
LINE
8
BLACK
6
CONTINUOUS
10
1.95791
20
0.373743
11
1.94776
21
0.371069
0
LINE
8
BLACK
6
CONTINUOUS
10
1.94776
20
0.371069
11
1.93732
21
0.369925
0
LINE
8
BLACK
6
CONTINUOUS
10
1.93732
20
0.369925
11
1.92682
21
0.370337
0
LINE
8
BLACK
6
CONTINUOUS
10
1.92682
20
0.370337
11
1.9165
21
0.372297
0
LINE
8
BLACK
6
CONTINUOUS
10
1.9165
20
0.372297
11
1.90658
21
0.37576
0
LINE
8
BLACK
6
CONTINUOUS
10
1.90658
20
0.37576
11
1.89729
21
0.38065
0
LINE
8
BLACK
6
CONTINUOUS
10
1.89729
20
0.38065
11
1.88882
21
0.386861
0
LINE
8
BLACK
6
CONTINUOUS
10
1.88882
20
0.386861
11
1.88136
21
0.394256
0
LINE
8
BLACK
6
CONTINUOUS
10
1.88136
20
0.394256
11
1.87507
21
0.402672
0
LINE
8
BLACK
6
CONTINUOUS
10
1.87507
20
0.402672
11
1.8701
21
0.411924
0
LINE
8
BLACK
6
CONTINUOUS
10
1.8701
20
0.411924
11
1.86655
21
0.42181
0
LINE
8
BLACK
6
CONTINUOUS
10
1.86655
20
0.42181
11
1.8645
21
0.432112
0
LINE
8
BLACK
6
CONTINUOUS
10
1.8645
20
0.432112
11
1.864
21
0.442603
0
LINE
8
BLACK
6
CONTINUOUS
10
1.864
20
0.442603
11
1.86505
21
0.453054
0
LINE
8
BLACK
6
CONTINUOUS
10
1.86505
20
0.453054
11
1.86764
21
0.463234
0
LINE
8
BLACK
6
CONTINUOUS
10
1.86764
20
0.463234
11
1.8717
21
0.472921
0
LINE
8
BLACK
6
CONTINUOUS
10
1.8717
20
0.472921
11
1.87715
21
0.4819
0
LINE
8
BLACK
6
CONTINUOUS
10
1.87715
20
0.4819
11
1.88387
21
0.489976
0
LINE
8
BLACK
6
CONTINUOUS
10
1.88387
20
0.489976
11
1.8917
21
0.49697
0
LINE
8
BLACK
6
CONTINUOUS
10
1.8917
20
0.49697
11
1.90049
21
0.502729
0
LINE
8
BLACK
6
CONTINUOUS
10
1.90049
20
0.502729
11
1.91002
21
0.507126
0
LINE
8
BLACK
6
CONTINUOUS
10
1.91002
20
0.507126
11
1.92011
21
0.510066
0
LINE
8
BLACK
6
CONTINUOUS
10
1.92011
20
0.510066
11
1.93052
21
0.511482
0
LINE
8
BLACK
6
CONTINUOUS
10
1.93052
20
0.511482
11
1.94102
21
0.511344
0
LINE
8
BLACK
6
CONTINUOUS
10
1.18118
20
0.511344
11
1.19154
21
0.509656
0
LINE
8
BLACK
6
CONTINUOUS
10
1.19154
20
0.509656
11
1.20155
21
0.506454
0
LINE
8
BLACK
6
CONTINUOUS
10
1.20155
20
0.506454
11
1.21097
21
0.501808
0
LINE
8
BLACK
6
CONTINUOUS
10
1.21097
20
0.501808
11
1.2196
21
0.495821
0
LINE
8
BLACK
6
CONTINUOUS
10
1.2196
20
0.495821
11
1.22725
21
0.488624
0
LINE
8
BLACK
6
CONTINUOUS
10
1.22725
20
0.488624
11
1.23375
21
0.480376
0
LINE
8
BLACK
6
CONTINUOUS
10
1.23375
20
0.480376
11
1.23896
21
0.471257
0
LINE
8
BLACK
6
CONTINUOUS
10
1.23896
20
0.471257
11
1.24277
21
0.461467
0
LINE
8
BLACK
6
CONTINUOUS
10
1.24277
20
0.461467
11
1.24509
21
0.451223
0
LINE
8
BLACK
6
CONTINUOUS
10
1.24509
20
0.451223
11
1.24587
21
0.440748
0
LINE
8
BLACK
6
CONTINUOUS
10
1.24587
20
0.440748
11
1.24577
21
0.437039
0
LINE
8
BLACK
6
CONTINUOUS
10
1.24577
20
0.437039
11
1.24444
21
0.42662
0
LINE
8
BLACK
6
CONTINUOUS
10
1.24444
20
0.42662
11
1.24159
21
0.41651
0
LINE
8
BLACK
6
CONTINUOUS
10
1.24159
20
0.41651
11
1.23728
21
0.406934
0
LINE
8
BLACK
6
CONTINUOUS
10
1.23728
20
0.406934
11
1.2316
21
0.3981
0
LINE
8
BLACK
6
CONTINUOUS
10
1.2316
20
0.3981
11
1.22467
21
0.390203
0
LINE
8
BLACK
6
CONTINUOUS
10
1.22467
20
0.390203
11
1.21665
21
0.383416
0
LINE
8
BLACK
6
CONTINUOUS
10
1.21665
20
0.383416
11
1.20772
21
0.377889
0
LINE
8
BLACK
6
CONTINUOUS
10
1.20772
20
0.377889
11
1.19807
21
0.373743
0
LINE
8
BLACK
6
CONTINUOUS
10
1.19807
20
0.373743
11
1.18791
21
0.371069
0
LINE
8
BLACK
6
CONTINUOUS
10
1.18791
20
0.371069
11
1.17747
21
0.369925
0
LINE
8
BLACK
6
CONTINUOUS
10
1.17747
20
0.369925
11
1.16698
21
0.370337
0
LINE
8
BLACK
6
CONTINUOUS
10
1.16698
20
0.370337
11
1.15666
21
0.372297
0
LINE
8
BLACK
6
CONTINUOUS
10
1.15666
20
0.372297
11
1.14674
21
0.37576
0
LINE
8
BLACK
6
CONTINUOUS
10
1.14674
20
0.37576
11
1.13745
21
0.38065
0
LINE
8
BLACK
6
CONTINUOUS
10
1.13745
20
0.38065
11
1.12898
21
0.386861
0
LINE
8
BLACK
6
CONTINUOUS
10
1.12898
20
0.386861
11
1.12152
21
0.394256
0
LINE
8
BLACK
6
CONTINUOUS
10
1.12152
20
0.394256
11
1.11523
21
0.402672
0
LINE
8
BLACK
6
CONTINUOUS
10
1.11523
20
0.402672
11
1.11026
21
0.411924
0
LINE
8
BLACK
6
CONTINUOUS
10
1.11026
20
0.411924
11
1.10671
21
0.42181
0
LINE
8
BLACK
6
CONTINUOUS
10
1.10671
20
0.42181
11
1.10466
21
0.432112
0
LINE
8
BLACK
6
CONTINUOUS
10
1.10466
20
0.432112
11
1.10416
21
0.442603
0
LINE
8
BLACK
6
CONTINUOUS
10
1.10416
20
0.442603
11
1.10521
21
0.453054
0
LINE
8
BLACK
6
CONTINUOUS
10
1.10521
20
0.453054
11
1.1078
21
0.463234
0
LINE
8
BLACK
6
CONTINUOUS
10
1.1078
20
0.463234
11
1.11186
21
0.472921
0
LINE
8
BLACK
6
CONTINUOUS
10
1.11186
20
0.472921
11
1.11731
21
0.4819
0
LINE
8
BLACK
6
CONTINUOUS
10
1.11731
20
0.4819
11
1.12402
21
0.489976
0
LINE
8
BLACK
6
CONTINUOUS
10
1.12402
20
0.489976
11
1.13186
21
0.49697
0
LINE
8
BLACK
6
CONTINUOUS
10
1.13186
20
0.49697
11
1.14064
21
0.502729
0
LINE
8
BLACK
6
CONTINUOUS
10
1.14064
20
0.502729
11
1.15018
21
0.507126
0
LINE
8
BLACK
6
CONTINUOUS
10
1.15018
20
0.507126
11
1.16027
21
0.510066
0
LINE
8
BLACK
6
CONTINUOUS
10
1.16027
20
0.510066
11
1.17067
21
0.511482
0
LINE
8
BLACK
6
CONTINUOUS
10
1.17067
20
0.511482
11
1.18118
21
0.511344
0
LINE
8
BLACK
6
CONTINUOUS
10
3.13196
20
0.931083
11
3.13731
21
0.929484
0
LINE
8
BLACK
6
CONTINUOUS
10
3.13731
20
0.929484
11
3.142
21
0.926448
0
LINE
8
BLACK
6
CONTINUOUS
10
3.142
20
0.926448
11
3.14564
21
0.92222
0
LINE
8
BLACK
6
CONTINUOUS
10
3.14564
20
0.92222
11
3.14795
21
0.917139
0
LINE
8
BLACK
6
CONTINUOUS
10
3.14795
20
0.917139
11
3.14874
21
0.911614
0
LINE
8
BLACK
6
CONTINUOUS
10
3.14874
20
0.911614
11
3.14873
21
0.911133
0
LINE
8
BLACK
6
CONTINUOUS
10
3.14873
20
0.911133
11
3.14781
21
0.905629
0
LINE
8
BLACK
6
CONTINUOUS
10
3.14781
20
0.905629
11
3.14537
21
0.900606
0
LINE
8
BLACK
6
CONTINUOUS
10
3.14537
20
0.900606
11
3.14163
21
0.896469
0
LINE
8
BLACK
6
CONTINUOUS
10
3.14163
20
0.896469
11
3.13687
21
0.893548
0
LINE
8
BLACK
6
CONTINUOUS
10
3.13687
20
0.893548
11
3.13149
21
0.89208
0
LINE
8
BLACK
6
CONTINUOUS
10
3.13149
20
0.89208
11
3.12903
21
0.892125
0
LINE
8
BLACK
6
CONTINUOUS
10
3.12903
20
0.892125
11
3.12906
21
0.891929
0
LINE
8
BLACK
6
CONTINUOUS
10
3.12906
20
0.891929
11
3.12905
21
0.891731
0
LINE
8
BLACK
6
CONTINUOUS
10
3.12905
20
0.891731
11
3.13196
21
0.891713
0
LINE
8
BLACK
6
CONTINUOUS
10
3.13196
20
0.891713
11
3.13731
21
0.890114
0
LINE
8
BLACK
6
CONTINUOUS
10
3.13731
20
0.890114
11
3.142
21
0.887078
0
LINE
8
BLACK
6
CONTINUOUS
10
3.142
20
0.887078
11
3.14564
21
0.88285
0
LINE
8
BLACK
6
CONTINUOUS
10
3.14564
20
0.88285
11
3.14795
21
0.877769
0
LINE
8
BLACK
6
CONTINUOUS
10
3.14795
20
0.877769
11
3.14874
21
0.872244
0
LINE
8
BLACK
6
CONTINUOUS
10
3.14874
20
0.872244
11
3.14873
21
0.871763
0
LINE
8
BLACK
6
CONTINUOUS
10
3.14873
20
0.871763
11
3.14781
21
0.866259
0
LINE
8
BLACK
6
CONTINUOUS
10
3.14781
20
0.866259
11
3.14537
21
0.861236
0
LINE
8
BLACK
6
CONTINUOUS
10
3.14537
20
0.861236
11
3.14163
21
0.857098
0
LINE
8
BLACK
6
CONTINUOUS
10
3.14163
20
0.857098
11
3.13687
21
0.854178
0
LINE
8
BLACK
6
CONTINUOUS
10
3.13687
20
0.854178
11
3.13149
21
0.85271
0
LINE
8
BLACK
6
CONTINUOUS
10
3.13149
20
0.85271
11
3.12591
21
0.852812
0
LINE
8
BLACK
6
CONTINUOUS
10
3.12591
20
0.852812
11
3.12058
21
0.854477
0
LINE
8
BLACK
6
CONTINUOUS
10
3.12058
20
0.854477
11
3.11593
21
0.857569
0
LINE
8
BLACK
6
CONTINUOUS
10
3.11593
20
0.857569
11
3.11234
21
0.861842
0
LINE
8
BLACK
6
CONTINUOUS
10
3.11234
20
0.861842
11
3.1101
21
0.86695
0
LINE
8
BLACK
6
CONTINUOUS
10
3.1101
20
0.86695
11
3.10938
21
0.872439
0
LINE
8
BLACK
6
CONTINUOUS
10
3.10938
20
0.872439
11
3.10934
21
0.87244
0
LINE
8
BLACK
6
CONTINUOUS
10
3.10934
20
0.87244
11
3.10937
21
0.872244
0
LINE
8
BLACK
6
CONTINUOUS
10
3.10937
20
0.872244
11
3.10936
21
0.871763
0
LINE
8
BLACK
6
CONTINUOUS
10
3.10936
20
0.871763
11
3.10844
21
0.866259
0
LINE
8
BLACK
6
CONTINUOUS
10
3.10844
20
0.866259
11
3.106
21
0.861236
0
LINE
8
BLACK
6
CONTINUOUS
10
3.106
20
0.861236
11
3.10226
21
0.857098
0
LINE
8
BLACK
6
CONTINUOUS
10
3.10226
20
0.857098
11
3.0975
21
0.854178
0
LINE
8
BLACK
6
CONTINUOUS
10
3.0975
20
0.854178
11
3.09212
21
0.85271
0
LINE
8
BLACK
6
CONTINUOUS
10
3.09212
20
0.85271
11
3.08654
21
0.852812
0
LINE
8
BLACK
6
CONTINUOUS
10
3.08654
20
0.852812
11
3.08121
21
0.854477
0
LINE
8
BLACK
6
CONTINUOUS
10
3.08121
20
0.854477
11
3.07656
21
0.857569
0
LINE
8
BLACK
6
CONTINUOUS
10
3.07656
20
0.857569
11
3.07297
21
0.861842
0
LINE
8
BLACK
6
CONTINUOUS
10
3.07297
20
0.861842
11
3.07073
21
0.86695
0
LINE
8
BLACK
6
CONTINUOUS
10
3.07073
20
0.86695
11
3.07
21
0.872485
0
LINE
8
BLACK
6
CONTINUOUS
10
3.07
20
0.872485
11
3.07086
21
0.877999
0
LINE
8
BLACK
6
CONTINUOUS
10
3.07086
20
0.877999
11
3.07323
21
0.883052
0
LINE
8
BLACK
6
CONTINUOUS
10
3.07323
20
0.883052
11
3.07693
21
0.887235
0
LINE
8
BLACK
6
CONTINUOUS
10
3.07693
20
0.887235
11
3.08165
21
0.890213
0
LINE
8
BLACK
6
CONTINUOUS
10
3.08165
20
0.890213
11
3.08701
21
0.891747
0
LINE
8
BLACK
6
CONTINUOUS
10
3.08701
20
0.891747
11
3.08974
21
0.89173
0
LINE
8
BLACK
6
CONTINUOUS
10
3.08974
20
0.89173
11
3.08969
21
0.892125
0
LINE
8
BLACK
6
CONTINUOUS
10
3.08969
20
0.892125
11
3.08654
21
0.892182
0
LINE
8
BLACK
6
CONTINUOUS
10
3.08654
20
0.892182
11
3.08121
21
0.893847
0
LINE
8
BLACK
6
CONTINUOUS
10
3.08121
20
0.893847
11
3.07656
21
0.896939
0
LINE
8
BLACK
6
CONTINUOUS
10
3.07656
20
0.896939
11
3.07297
21
0.901212
0
LINE
8
BLACK
6
CONTINUOUS
10
3.07297
20
0.901212
11
3.07073
21
0.90632
0
LINE
8
BLACK
6
CONTINUOUS
10
3.07073
20
0.90632
11
3.07
21
0.911855
0
LINE
8
BLACK
6
CONTINUOUS
10
3.07
20
0.911855
11
3.07086
21
0.91737
0
LINE
8
BLACK
6
CONTINUOUS
10
3.07086
20
0.91737
11
3.07323
21
0.922422
0
LINE
8
BLACK
6
CONTINUOUS
10
3.07323
20
0.922422
11
3.07693
21
0.926605
0
LINE
8
BLACK
6
CONTINUOUS
10
3.07693
20
0.926605
11
3.08165
21
0.929583
0
LINE
8
BLACK
6
CONTINUOUS
10
3.08165
20
0.929583
11
3.08701
21
0.931117
0
LINE
8
BLACK
6
CONTINUOUS
10
3.08701
20
0.931117
11
3.09259
21
0.931083
0
LINE
8
BLACK
6
CONTINUOUS
10
3.09259
20
0.931083
11
3.09794
21
0.929484
0
LINE
8
BLACK
6
CONTINUOUS
10
3.09794
20
0.929484
11
3.10263
21
0.926448
0
LINE
8
BLACK
6
CONTINUOUS
10
3.10263
20
0.926448
11
3.10627
21
0.92222
0
LINE
8
BLACK
6
CONTINUOUS
10
3.10627
20
0.92222
11
3.10858
21
0.917139
0
LINE
8
BLACK
6
CONTINUOUS
10
3.10858
20
0.917139
11
3.10937
21
0.911614
0
LINE
8
BLACK
6
CONTINUOUS
10
3.10937
20
0.911614
11
3.10937
21
0.911416
0
LINE
8
BLACK
6
CONTINUOUS
10
3.10937
20
0.911416
11
3.10943
21
0.911415
0
LINE
8
BLACK
6
CONTINUOUS
10
3.10943
20
0.911415
11
3.10937
21
0.911855
0
LINE
8
BLACK
6
CONTINUOUS
10
3.10937
20
0.911855
11
3.11023
21
0.91737
0
LINE
8
BLACK
6
CONTINUOUS
10
3.11023
20
0.91737
11
3.1126
21
0.922422
0
LINE
8
BLACK
6
CONTINUOUS
10
3.1126
20
0.922422
11
3.1163
21
0.926605
0
LINE
8
BLACK
6
CONTINUOUS
10
3.1163
20
0.926605
11
3.12102
21
0.929583
0
LINE
8
BLACK
6
CONTINUOUS
10
3.12102
20
0.929583
11
3.12638
21
0.931117
0
LINE
8
BLACK
6
CONTINUOUS
10
3.12638
20
0.931117
11
3.13196
21
0.931083
0
LINE
8
BLACK
6
CONTINUOUS
10
0.421334
20
2.70071
11
0.431701
21
2.69903
0
LINE
8
BLACK
6
CONTINUOUS
10
0.431701
20
2.69903
11
0.441704
21
2.69582
0
LINE
8
BLACK
6
CONTINUOUS
10
0.441704
20
2.69582
11
0.451125
21
2.69118
0
LINE
8
BLACK
6
CONTINUOUS
10
0.451125
20
2.69118
11
0.459755
21
2.68519
0
LINE
8
BLACK
6
CONTINUOUS
10
0.459755
20
2.68519
11
0.467405
21
2.67799
0
LINE
8
BLACK
6
CONTINUOUS
10
0.467405
20
2.67799
11
0.473908
21
2.66975
0
LINE
8
BLACK
6
CONTINUOUS
10
0.473908
20
2.66975
11
0.47912
21
2.66063
0
LINE
8
BLACK
6
CONTINUOUS
10
0.47912
20
2.66063
11
0.482927
21
2.65084
0
LINE
8
BLACK
6
CONTINUOUS
10
0.482927
20
2.65084
11
0.485245
21
2.64059
0
LINE
8
BLACK
6
CONTINUOUS
10
0.485245
20
2.64059
11
0.486024
21
2.63012
0
LINE
8
BLACK
6
CONTINUOUS
10
0.486024
20
2.63012
11
0.485926
21
2.62641
0
LINE
8
BLACK
6
CONTINUOUS
10
0.485926
20
2.62641
11
0.484601
21
2.61599
0
LINE
8
BLACK
6
CONTINUOUS
10
0.484601
20
2.61599
11
0.48175
21
2.60588
0
LINE
8
BLACK
6
CONTINUOUS
10
0.48175
20
2.60588
11
0.477436
21
2.5963
0
LINE
8
BLACK
6
CONTINUOUS
10
0.477436
20
2.5963
11
0.471754
21
2.58747
0
LINE
8
BLACK
6
CONTINUOUS
10
0.471754
20
2.58747
11
0.464828
21
2.57957
0
LINE
8
BLACK
6
CONTINUOUS
10
0.464828
20
2.57957
11
0.456812
21
2.57279
0
LINE
8
BLACK
6
CONTINUOUS
10
0.456812
20
2.57279
11
0.44788
21
2.56726
0
LINE
8
BLACK
6
CONTINUOUS
10
0.44788
20
2.56726
11
0.438229
21
2.56311
0
LINE
8
BLACK
6
CONTINUOUS
10
0.438229
20
2.56311
11
0.428072
21
2.56044
0
LINE
8
BLACK
6
CONTINUOUS
10
0.428072
20
2.56044
11
0.417631
21
2.5593
0
LINE
8
BLACK
6
CONTINUOUS
10
0.417631
20
2.5593
11
0.407135
21
2.55971
0
LINE
8
BLACK
6
CONTINUOUS
10
0.407135
20
2.55971
11
0.396816
21
2.56167
0
LINE
8
BLACK
6
CONTINUOUS
10
0.396816
20
2.56167
11
0.3869
21
2.56513
0
LINE
8
BLACK
6
CONTINUOUS
10
0.3869
20
2.56513
11
0.377604
21
2.57002
0
LINE
8
BLACK
6
CONTINUOUS
10
0.377604
20
2.57002
11
0.369134
21
2.57623
0
LINE
8
BLACK
6
CONTINUOUS
10
0.369134
20
2.57623
11
0.361674
21
2.58363
0
LINE
8
BLACK
6
CONTINUOUS
10
0.361674
20
2.58363
11
0.35539
21
2.59204
0
LINE
8
BLACK
6
CONTINUOUS
10
0.35539
20
2.59204
11
0.350418
21
2.60129
0
LINE
8
BLACK
6
CONTINUOUS
10
0.350418
20
2.60129
11
0.346869
21
2.61118
0
LINE
8
BLACK
6
CONTINUOUS
10
0.346869
20
2.61118
11
0.34482
21
2.62148
0
LINE
8
BLACK
6
CONTINUOUS
10
0.34482
20
2.62148
11
0.344316
21
2.63197
0
LINE
8
BLACK
6
CONTINUOUS
10
0.344316
20
2.63197
11
0.345368
21
2.64242
0
LINE
8
BLACK
6
CONTINUOUS
10
0.345368
20
2.64242
11
0.347953
21
2.6526
0
LINE
8
BLACK
6
CONTINUOUS
10
0.347953
20
2.6526
11
0.352015
21
2.66229
0
LINE
8
BLACK
6
CONTINUOUS
10
0.352015
20
2.66229
11
0.357464
21
2.67127
0
LINE
8
BLACK
6
CONTINUOUS
10
0.357464
20
2.67127
11
0.364181
21
2.67935
0
LINE
8
BLACK
6
CONTINUOUS
10
0.364181
20
2.67935
11
0.372017
21
2.68634
0
LINE
8
BLACK
6
CONTINUOUS
10
0.372017
20
2.68634
11
0.380801
21
2.6921
0
LINE
8
BLACK
6
CONTINUOUS
10
0.380801
20
2.6921
11
0.39034
21
2.6965
0
LINE
8
BLACK
6
CONTINUOUS
10
0.39034
20
2.6965
11
0.400424
21
2.69944
0
LINE
8
BLACK
6
CONTINUOUS
10
0.400424
20
2.69944
11
0.410831
21
2.70085
0
LINE
8
BLACK
6
CONTINUOUS
10
0.410831
20
2.70085
11
0.421334
21
2.70071
0
LINE
8
BLACK
6
CONTINUOUS
10
1.18118
20
2.70071
11
1.19154
21
2.69903
0
LINE
8
BLACK
6
CONTINUOUS
10
1.19154
20
2.69903
11
1.20155
21
2.69582
0
LINE
8
BLACK
6
CONTINUOUS
10
1.20155
20
2.69582
11
1.21097
21
2.69118
0
LINE
8
BLACK
6
CONTINUOUS
10
1.21097
20
2.69118
11
1.2196
21
2.68519
0
LINE
8
BLACK
6
CONTINUOUS
10
1.2196
20
2.68519
11
1.22725
21
2.67799
0
LINE
8
BLACK
6
CONTINUOUS
10
1.22725
20
2.67799
11
1.23375
21
2.66975
0
LINE
8
BLACK
6
CONTINUOUS
10
1.23375
20
2.66975
11
1.23896
21
2.66063
0
LINE
8
BLACK
6
CONTINUOUS
10
1.23896
20
2.66063
11
1.24277
21
2.65084
0
LINE
8
BLACK
6
CONTINUOUS
10
1.24277
20
2.65084
11
1.24509
21
2.64059
0
LINE
8
BLACK
6
CONTINUOUS
10
1.24509
20
2.64059
11
1.24587
21
2.63012
0
LINE
8
BLACK
6
CONTINUOUS
10
1.24587
20
2.63012
11
1.24577
21
2.62641
0
LINE
8
BLACK
6
CONTINUOUS
10
1.24577
20
2.62641
11
1.24444
21
2.61599
0
LINE
8
BLACK
6
CONTINUOUS
10
1.24444
20
2.61599
11
1.24159
21
2.60588
0
LINE
8
BLACK
6
CONTINUOUS
10
1.24159
20
2.60588
11
1.23728
21
2.5963
0
LINE
8
BLACK
6
CONTINUOUS
10
1.23728
20
2.5963
11
1.2316
21
2.58747
0
LINE
8
BLACK
6
CONTINUOUS
10
1.2316
20
2.58747
11
1.22467
21
2.57957
0
LINE
8
BLACK
6
CONTINUOUS
10
1.22467
20
2.57957
11
1.21665
21
2.57279
0
LINE
8
BLACK
6
CONTINUOUS
10
1.21665
20
2.57279
11
1.20772
21
2.56726
0
LINE
8
BLACK
6
CONTINUOUS
10
1.20772
20
2.56726
11
1.19807
21
2.56311
0
LINE
8
BLACK
6
CONTINUOUS
10
1.19807
20
2.56311
11
1.18791
21
2.56044
0
LINE
8
BLACK
6
CONTINUOUS
10
1.18791
20
2.56044
11
1.17747
21
2.5593
0
LINE
8
BLACK
6
CONTINUOUS
10
1.17747
20
2.5593
11
1.16698
21
2.55971
0
LINE
8
BLACK
6
CONTINUOUS
10
1.16698
20
2.55971
11
1.15666
21
2.56167
0
LINE
8
BLACK
6
CONTINUOUS
10
1.15666
20
2.56167
11
1.14674
21
2.56513
0
LINE
8
BLACK
6
CONTINUOUS
10
1.14674
20
2.56513
11
1.13745
21
2.57002
0
LINE
8
BLACK
6
CONTINUOUS
10
1.13745
20
2.57002
11
1.12898
21
2.57623
0
LINE
8
BLACK
6
CONTINUOUS
10
1.12898
20
2.57623
11
1.12152
21
2.58363
0
LINE
8
BLACK
6
CONTINUOUS
10
1.12152
20
2.58363
11
1.11523
21
2.59204
0
LINE
8
BLACK
6
CONTINUOUS
10
1.11523
20
2.59204
11
1.11026
21
2.60129
0
LINE
8
BLACK
6
CONTINUOUS
10
1.11026
20
2.60129
11
1.10671
21
2.61118
0
LINE
8
BLACK
6
CONTINUOUS
10
1.10671
20
2.61118
11
1.10466
21
2.62148
0
LINE
8
BLACK
6
CONTINUOUS
10
1.10466
20
2.62148
11
1.10416
21
2.63197
0
LINE
8
BLACK
6
CONTINUOUS
10
1.10416
20
2.63197
11
1.10521
21
2.64242
0
LINE
8
BLACK
6
CONTINUOUS
10
1.10521
20
2.64242
11
1.1078
21
2.6526
0
LINE
8
BLACK
6
CONTINUOUS
10
1.1078
20
2.6526
11
1.11186
21
2.66229
0
LINE
8
BLACK
6
CONTINUOUS
10
1.11186
20
2.66229
11
1.11731
21
2.67127
0
LINE
8
BLACK
6
CONTINUOUS
10
1.11731
20
2.67127
11
1.12402
21
2.67935
0
LINE
8
BLACK
6
CONTINUOUS
10
1.12402
20
2.67935
11
1.13186
21
2.68634
0
LINE
8
BLACK
6
CONTINUOUS
10
1.13186
20
2.68634
11
1.14064
21
2.6921
0
LINE
8
BLACK
6
CONTINUOUS
10
1.14064
20
2.6921
11
1.15018
21
2.6965
0
LINE
8
BLACK
6
CONTINUOUS
10
1.15018
20
2.6965
11
1.16027
21
2.69944
0
LINE
8
BLACK
6
CONTINUOUS
10
1.16027
20
2.69944
11
1.17067
21
2.70085
0
LINE
8
BLACK
6
CONTINUOUS
10
1.17067
20
2.70085
11
1.18118
21
2.70071
0
LINE
8
BLACK
6
CONTINUOUS
10
1.94102
20
2.70071
11
1.95139
21
2.69903
0
LINE
8
BLACK
6
CONTINUOUS
10
1.95139
20
2.69903
11
1.96139
21
2.69582
0
LINE
8
BLACK
6
CONTINUOUS
10
1.96139
20
2.69582
11
1.97081
21
2.69118
0
LINE
8
BLACK
6
CONTINUOUS
10
1.97081
20
2.69118
11
1.97944
21
2.68519
0
LINE
8
BLACK
6
CONTINUOUS
10
1.97944
20
2.68519
11
1.98709
21
2.67799
0
LINE
8
BLACK
6
CONTINUOUS
10
1.98709
20
2.67799
11
1.99359
21
2.66975
0
LINE
8
BLACK
6
CONTINUOUS
10
1.99359
20
2.66975
11
1.99881
21
2.66063
0
LINE
8
BLACK
6
CONTINUOUS
10
1.99881
20
2.66063
11
2.00261
21
2.65084
0
LINE
8
BLACK
6
CONTINUOUS
10
2.00261
20
2.65084
11
2.00493
21
2.64059
0
LINE
8
BLACK
6
CONTINUOUS
10
2.00493
20
2.64059
11
2.00571
21
2.63012
0
LINE
8
BLACK
6
CONTINUOUS
10
2.00571
20
2.63012
11
2.00561
21
2.62641
0
LINE
8
BLACK
6
CONTINUOUS
10
2.00561
20
2.62641
11
2.00429
21
2.61599
0
LINE
8
BLACK
6
CONTINUOUS
10
2.00429
20
2.61599
11
2.00143
21
2.60588
0
LINE
8
BLACK
6
CONTINUOUS
10
2.00143
20
2.60588
11
1.99712
21
2.5963
0
LINE
8
BLACK
6
CONTINUOUS
10
1.99712
20
2.5963
11
1.99144
21
2.58747
0
LINE
8
BLACK
6
CONTINUOUS
10
1.99144
20
2.58747
11
1.98451
21
2.57957
0
LINE
8
BLACK
6
CONTINUOUS
10
1.98451
20
2.57957
11
1.9765
21
2.57279
0
LINE
8
BLACK
6
CONTINUOUS
10
1.9765
20
2.57279
11
1.96756
21
2.56726
0
LINE
8
BLACK
6
CONTINUOUS
10
1.96756
20
2.56726
11
1.95791
21
2.56311
0
LINE
8
BLACK
6
CONTINUOUS
10
1.95791
20
2.56311
11
1.94776
21
2.56044
0
LINE
8
BLACK
6
CONTINUOUS
10
1.94776
20
2.56044
11
1.93732
21
2.5593
0
LINE
8
BLACK
6
CONTINUOUS
10
1.93732
20
2.5593
11
1.92682
21
2.55971
0
LINE
8
BLACK
6
CONTINUOUS
10
1.92682
20
2.55971
11
1.9165
21
2.56167
0
LINE
8
BLACK
6
CONTINUOUS
10
1.9165
20
2.56167
11
1.90658
21
2.56513
0
LINE
8
BLACK
6
CONTINUOUS
10
1.90658
20
2.56513
11
1.89729
21
2.57002
0
LINE
8
BLACK
6
CONTINUOUS
10
1.89729
20
2.57002
11
1.88882
21
2.57623
0
LINE
8
BLACK
6
CONTINUOUS
10
1.88882
20
2.57623
11
1.88136
21
2.58363
0
LINE
8
BLACK
6
CONTINUOUS
10
1.88136
20
2.58363
11
1.87507
21
2.59204
0
LINE
8
BLACK
6
CONTINUOUS
10
1.87507
20
2.59204
11
1.8701
21
2.60129
0
LINE
8
BLACK
6
CONTINUOUS
10
1.8701
20
2.60129
11
1.86655
21
2.61118
0
LINE
8
BLACK
6
CONTINUOUS
10
1.86655
20
2.61118
11
1.8645
21
2.62148
0
LINE
8
BLACK
6
CONTINUOUS
10
1.8645
20
2.62148
11
1.864
21
2.63197
0
LINE
8
BLACK
6
CONTINUOUS
10
1.864
20
2.63197
11
1.86505
21
2.64242
0
LINE
8
BLACK
6
CONTINUOUS
10
1.86505
20
2.64242
11
1.86764
21
2.6526
0
LINE
8
BLACK
6
CONTINUOUS
10
1.86764
20
2.6526
11
1.8717
21
2.66229
0
LINE
8
BLACK
6
CONTINUOUS
10
1.8717
20
2.66229
11
1.87715
21
2.67127
0
LINE
8
BLACK
6
CONTINUOUS
10
1.87715
20
2.67127
11
1.88387
21
2.67935
0
LINE
8
BLACK
6
CONTINUOUS
10
1.88387
20
2.67935
11
1.8917
21
2.68634
0
LINE
8
BLACK
6
CONTINUOUS
10
1.8917
20
2.68634
11
1.90049
21
2.6921
0
LINE
8
BLACK
6
CONTINUOUS
10
1.90049
20
2.6921
11
1.91002
21
2.6965
0
LINE
8
BLACK
6
CONTINUOUS
10
1.91002
20
2.6965
11
1.92011
21
2.69944
0
LINE
8
BLACK
6
CONTINUOUS
10
1.92011
20
2.69944
11
1.93052
21
2.70085
0
LINE
8
BLACK
6
CONTINUOUS
10
1.93052
20
2.70085
11
1.94102
21
2.70071
0
LINE
8
BLACK
6
CONTINUOUS
10
2.77389
20
2.70091
11
2.78426
21
2.69922
0
LINE
8
BLACK
6
CONTINUOUS
10
2.78426
20
2.69922
11
2.79426
21
2.69602
0
LINE
8
BLACK
6
CONTINUOUS
10
2.79426
20
2.69602
11
2.80368
21
2.69138
0
LINE
8
BLACK
6
CONTINUOUS
10
2.80368
20
2.69138
11
2.81231
21
2.68539
0
LINE
8
BLACK
6
CONTINUOUS
10
2.81231
20
2.68539
11
2.81996
21
2.67819
0
LINE
8
BLACK
6
CONTINUOUS
10
2.81996
20
2.67819
11
2.82647
21
2.66994
0
LINE
8
BLACK
6
CONTINUOUS
10
2.82647
20
2.66994
11
2.83168
21
2.66082
0
LINE
8
BLACK
6
CONTINUOUS
10
2.83168
20
2.66082
11
2.83549
21
2.65103
0
LINE
8
BLACK
6
CONTINUOUS
10
2.83549
20
2.65103
11
2.8378
21
2.64079
0
LINE
8
BLACK
6
CONTINUOUS
10
2.8378
20
2.64079
11
2.83858
21
2.63031
0
LINE
8
BLACK
6
CONTINUOUS
10
2.83858
20
2.63031
11
2.83849
21
2.62661
0
LINE
8
BLACK
6
CONTINUOUS
10
2.83849
20
2.62661
11
2.83716
21
2.61619
0
LINE
8
BLACK
6
CONTINUOUS
10
2.83716
20
2.61619
11
2.83431
21
2.60608
0
LINE
8
BLACK
6
CONTINUOUS
10
2.83431
20
2.60608
11
2.82999
21
2.5965
0
LINE
8
BLACK
6
CONTINUOUS
10
2.82999
20
2.5965
11
2.82431
21
2.58767
0
LINE
8
BLACK
6
CONTINUOUS
10
2.82431
20
2.58767
11
2.81739
21
2.57977
0
LINE
8
BLACK
6
CONTINUOUS
10
2.81739
20
2.57977
11
2.80937
21
2.57298
0
LINE
8
BLACK
6
CONTINUOUS
10
2.80937
20
2.57298
11
2.80044
21
2.56746
0
LINE
8
BLACK
6
CONTINUOUS
10
2.80044
20
2.56746
11
2.79079
21
2.56331
0
LINE
8
BLACK
6
CONTINUOUS
10
2.79079
20
2.56331
11
2.78063
21
2.56064
0
LINE
8
BLACK
6
CONTINUOUS
10
2.78063
20
2.56064
11
2.77019
21
2.55949
0
LINE
8
BLACK
6
CONTINUOUS
10
2.77019
20
2.55949
11
2.75969
21
2.5599
0
LINE
8
BLACK
6
CONTINUOUS
10
2.75969
20
2.5599
11
2.74938
21
2.56186
0
LINE
8
BLACK
6
CONTINUOUS
10
2.74938
20
2.56186
11
2.73946
21
2.56533
0
LINE
8
BLACK
6
CONTINUOUS
10
2.73946
20
2.56533
11
2.73016
21
2.57022
0
LINE
8
BLACK
6
CONTINUOUS
10
2.73016
20
2.57022
11
2.72169
21
2.57643
0
LINE
8
BLACK
6
CONTINUOUS
10
2.72169
20
2.57643
11
2.71423
21
2.58382
0
LINE
8
BLACK
6
CONTINUOUS
10
2.71423
20
2.58382
11
2.70795
21
2.59224
0
LINE
8
BLACK
6
CONTINUOUS
10
2.70795
20
2.59224
11
2.70298
21
2.60149
0
LINE
8
BLACK
6
CONTINUOUS
10
2.70298
20
2.60149
11
2.69943
21
2.61138
0
LINE
8
BLACK
6
CONTINUOUS
10
2.69943
20
2.61138
11
2.69738
21
2.62168
0
LINE
8
BLACK
6
CONTINUOUS
10
2.69738
20
2.62168
11
2.69687
21
2.63217
0
LINE
8
BLACK
6
CONTINUOUS
10
2.69687
20
2.63217
11
2.69793
21
2.64262
0
LINE
8
BLACK
6
CONTINUOUS
10
2.69793
20
2.64262
11
2.70051
21
2.6528
0
LINE
8
BLACK
6
CONTINUOUS
10
2.70051
20
2.6528
11
2.70457
21
2.66249
0
LINE
8
BLACK
6
CONTINUOUS
10
2.70457
20
2.66249
11
2.71002
21
2.67147
0
LINE
8
BLACK
6
CONTINUOUS
10
2.71002
20
2.67147
11
2.71674
21
2.67954
0
LINE
8
BLACK
6
CONTINUOUS
10
2.71674
20
2.67954
11
2.72458
21
2.68654
0
LINE
8
BLACK
6
CONTINUOUS
10
2.72458
20
2.68654
11
2.73336
21
2.6923
0
LINE
8
BLACK
6
CONTINUOUS
10
2.73336
20
2.6923
11
2.7429
21
2.69669
0
LINE
8
BLACK
6
CONTINUOUS
10
2.7429
20
2.69669
11
2.75298
21
2.69963
0
LINE
8
BLACK
6
CONTINUOUS
10
2.75298
20
2.69963
11
2.76339
21
2.70105
0
LINE
8
BLACK
6
CONTINUOUS
10
2.76339
20
2.70105
11
2.77389
21
2.70091
0
LINE
8
BLACK
6
CONTINUOUS
10
3.53374
20
2.70091
11
3.5441
21
2.69922
0
LINE
8
BLACK
6
CONTINUOUS
10
3.5441
20
2.69922
11
3.55411
21
2.69602
0
LINE
8
BLACK
6
CONTINUOUS
10
3.55411
20
2.69602
11
3.56353
21
2.69138
0
LINE
8
BLACK
6
CONTINUOUS
10
3.56353
20
2.69138
11
3.57216
21
2.68539
0
LINE
8
BLACK
6
CONTINUOUS
10
3.57216
20
2.68539
11
3.57981
21
2.67819
0
LINE
8
BLACK
6
CONTINUOUS
10
3.57981
20
2.67819
11
3.58631
21
2.66994
0
LINE
8
BLACK
6
CONTINUOUS
10
3.58631
20
2.66994
11
3.59152
21
2.66082
0
LINE
8
BLACK
6
CONTINUOUS
10
3.59152
20
2.66082
11
3.59533
21
2.65103
0
LINE
8
BLACK
6
CONTINUOUS
10
3.59533
20
2.65103
11
3.59765
21
2.64079
0
LINE
8
BLACK
6
CONTINUOUS
10
3.59765
20
2.64079
11
3.59843
21
2.63031
0
LINE
8
BLACK
6
CONTINUOUS
10
3.59843
20
2.63031
11
3.59833
21
2.62661
0
LINE
8
BLACK
6
CONTINUOUS
10
3.59833
20
2.62661
11
3.597
21
2.61619
0
LINE
8
BLACK
6
CONTINUOUS
10
3.597
20
2.61619
11
3.59415
21
2.60608
0
LINE
8
BLACK
6
CONTINUOUS
10
3.59415
20
2.60608
11
3.58984
21
2.5965
0
LINE
8
BLACK
6
CONTINUOUS
10
3.58984
20
2.5965
11
3.58416
21
2.58767
0
LINE
8
BLACK
6
CONTINUOUS
10
3.58416
20
2.58767
11
3.57723
21
2.57977
0
LINE
8
BLACK
6
CONTINUOUS
10
3.57723
20
2.57977
11
3.56921
21
2.57298
0
LINE
8
BLACK
6
CONTINUOUS
10
3.56921
20
2.57298
11
3.56028
21
2.56746
0
LINE
8
BLACK
6
CONTINUOUS
10
3.56028
20
2.56746
11
3.55063
21
2.56331
0
LINE
8
BLACK
6
CONTINUOUS
10
3.55063
20
2.56331
11
3.54047
21
2.56064
0
LINE
8
BLACK
6
CONTINUOUS
10
3.54047
20
2.56064
11
3.53003
21
2.55949
0
LINE
8
BLACK
6
CONTINUOUS
10
3.53003
20
2.55949
11
3.51954
21
2.5599
0
LINE
8
BLACK
6
CONTINUOUS
10
3.51954
20
2.5599
11
3.50922
21
2.56186
0
LINE
8
BLACK
6
CONTINUOUS
10
3.50922
20
2.56186
11
3.4993
21
2.56533
0
LINE
8
BLACK
6
CONTINUOUS
10
3.4993
20
2.56533
11
3.49001
21
2.57022
0
LINE
8
BLACK
6
CONTINUOUS
10
3.49001
20
2.57022
11
3.48154
21
2.57643
0
LINE
8
BLACK
6
CONTINUOUS
10
3.48154
20
2.57643
11
3.47408
21
2.58382
0
LINE
8
BLACK
6
CONTINUOUS
10
3.47408
20
2.58382
11
3.46779
21
2.59224
0
LINE
8
BLACK
6
CONTINUOUS
10
3.46779
20
2.59224
11
3.46282
21
2.60149
0
LINE
8
BLACK
6
CONTINUOUS
10
3.46282
20
2.60149
11
3.45927
21
2.61138
0
LINE
8
BLACK
6
CONTINUOUS
10
3.45927
20
2.61138
11
3.45722
21
2.62168
0
LINE
8
BLACK
6
CONTINUOUS
10
3.45722
20
2.62168
11
3.45672
21
2.63217
0
LINE
8
BLACK
6
CONTINUOUS
10
3.45672
20
2.63217
11
3.45777
21
2.64262
0
LINE
8
BLACK
6
CONTINUOUS
10
3.45777
20
2.64262
11
3.46035
21
2.6528
0
LINE
8
BLACK
6
CONTINUOUS
10
3.46035
20
2.6528
11
3.46442
21
2.66249
0
LINE
8
BLACK
6
CONTINUOUS
10
3.46442
20
2.66249
11
3.46987
21
2.67147
0
LINE
8
BLACK
6
CONTINUOUS
10
3.46987
20
2.67147
11
3.47658
21
2.67954
0
LINE
8
BLACK
6
CONTINUOUS
10
3.47658
20
2.67954
11
3.48442
21
2.68654
0
LINE
8
BLACK
6
CONTINUOUS
10
3.48442
20
2.68654
11
3.4932
21
2.6923
0
LINE
8
BLACK
6
CONTINUOUS
10
3.4932
20
2.6923
11
3.50274
21
2.69669
0
LINE
8
BLACK
6
CONTINUOUS
10
3.50274
20
2.69669
11
3.51283
21
2.69963
0
LINE
8
BLACK
6
CONTINUOUS
10
3.51283
20
2.69963
11
3.52323
21
2.70105
0
LINE
8
BLACK
6
CONTINUOUS
10
3.52323
20
2.70105
11
3.53374
21
2.70091
0
LINE
8
BLACK
6
CONTINUOUS
10
2.0166
20
3.04861
11
2.01915
21
3.04691
0
LINE
8
BLACK
6
CONTINUOUS
10
2.01915
20
3.04691
11
2.02086
21
3.04435
0
LINE
8
BLACK
6
CONTINUOUS
10
2.02086
20
3.04435
11
2.02146
21
3.04134
0
LINE
8
BLACK
6
CONTINUOUS
10
2.02146
20
3.04134
11
2.02146
21
2.88386
0
LINE
8
BLACK
6
CONTINUOUS
10
2.02146
20
2.88386
11
2.02086
21
2.88084
0
LINE
8
BLACK
6
CONTINUOUS
10
2.02086
20
2.88084
11
2.01915
21
2.87829
0
LINE
8
BLACK
6
CONTINUOUS
10
2.01915
20
2.87829
11
2.0166
21
2.87658
0
LINE
8
BLACK
6
CONTINUOUS
10
2.0166
20
2.87658
11
2.01358
21
2.87598
0
LINE
8
BLACK
6
CONTINUOUS
10
2.01358
20
2.87598
11
1.8561
21
2.87598
0
LINE
8
BLACK
6
CONTINUOUS
10
1.8561
20
2.87598
11
1.85309
21
2.87658
0
LINE
8
BLACK
6
CONTINUOUS
10
1.85309
20
2.87658
11
1.85053
21
2.87829
0
LINE
8
BLACK
6
CONTINUOUS
10
1.85053
20
2.87829
11
1.84883
21
2.88084
0
LINE
8
BLACK
6
CONTINUOUS
10
1.84883
20
2.88084
11
1.84823
21
2.88386
0
LINE
8
BLACK
6
CONTINUOUS
10
1.84823
20
2.88386
11
1.84823
21
3.04134
0
LINE
8
BLACK
6
CONTINUOUS
10
1.84823
20
3.04134
11
1.84883
21
3.04435
0
LINE
8
BLACK
6
CONTINUOUS
10
1.84883
20
3.04435
11
1.85053
21
3.04691
0
LINE
8
BLACK
6
CONTINUOUS
10
1.85053
20
3.04691
11
1.85309
21
3.04861
0
LINE
8
BLACK
6
CONTINUOUS
10
1.85309
20
3.04861
11
1.8561
21
3.04921
0
LINE
8
BLACK
6
CONTINUOUS
10
1.8561
20
3.04921
11
2.01358
21
3.04921
0
LINE
8
BLACK
6
CONTINUOUS
10
2.01358
20
3.04921
11
2.0166
21
3.04861
0
LINE
8
BLACK
6
CONTINUOUS
10
1.25675
20
3.04861
11
1.25931
21
3.04691
0
LINE
8
BLACK
6
CONTINUOUS
10
1.25931
20
3.04691
11
1.26101
21
3.04435
0
LINE
8
BLACK
6
CONTINUOUS
10
1.26101
20
3.04435
11
1.26161
21
3.04134
0
LINE
8
BLACK
6
CONTINUOUS
10
1.26161
20
3.04134
11
1.26161
21
2.88386
0
LINE
8
BLACK
6
CONTINUOUS
10
1.26161
20
2.88386
11
1.26101
21
2.88084
0
LINE
8
BLACK
6
CONTINUOUS
10
1.26101
20
2.88084
11
1.25931
21
2.87829
0
LINE
8
BLACK
6
CONTINUOUS
10
1.25931
20
2.87829
11
1.25675
21
2.87658
0
LINE
8
BLACK
6
CONTINUOUS
10
1.25675
20
2.87658
11
1.25374
21
2.87598
0
LINE
8
BLACK
6
CONTINUOUS
10
1.25374
20
2.87598
11
1.09626
21
2.87598
0
LINE
8
BLACK
6
CONTINUOUS
10
1.09626
20
2.87598
11
1.09325
21
2.87658
0
LINE
8
BLACK
6
CONTINUOUS
10
1.09325
20
2.87658
11
1.09069
21
2.87829
0
LINE
8
BLACK
6
CONTINUOUS
10
1.09069
20
2.87829
11
1.08899
21
2.88084
0
LINE
8
BLACK
6
CONTINUOUS
10
1.08899
20
2.88084
11
1.08839
21
2.88386
0
LINE
8
BLACK
6
CONTINUOUS
10
1.08839
20
2.88386
11
1.08839
21
3.04134
0
LINE
8
BLACK
6
CONTINUOUS
10
1.08839
20
3.04134
11
1.08899
21
3.04435
0
LINE
8
BLACK
6
CONTINUOUS
10
1.08899
20
3.04435
11
1.09069
21
3.04691
0
LINE
8
BLACK
6
CONTINUOUS
10
1.09069
20
3.04691
11
1.09325
21
3.04861
0
LINE
8
BLACK
6
CONTINUOUS
10
1.09325
20
3.04861
11
1.09626
21
3.04921
0
LINE
8
BLACK
6
CONTINUOUS
10
1.09626
20
3.04921
11
1.25374
21
3.04921
0
LINE
8
BLACK
6
CONTINUOUS
10
1.25374
20
3.04921
11
1.25675
21
3.04861
0
LINE
8
BLACK
6
CONTINUOUS
10
0.496911
20
3.04861
11
0.499465
21
3.04691
0
LINE
8
BLACK
6
CONTINUOUS
10
0.499465
20
3.04691
11
0.501172
21
3.04435
0
LINE
8
BLACK
6
CONTINUOUS
10
0.501172
20
3.04435
11
0.501772
21
3.04134
0
LINE
8
BLACK
6
CONTINUOUS
10
0.501772
20
3.04134
11
0.501772
21
2.88386
0
LINE
8
BLACK
6
CONTINUOUS
10
0.501772
20
2.88386
11
0.501172
21
2.88084
0
LINE
8
BLACK
6
CONTINUOUS
10
0.501172
20
2.88084
11
0.499465
21
2.87829
0
LINE
8
BLACK
6
CONTINUOUS
10
0.499465
20
2.87829
11
0.496911
21
2.87658
0
LINE
8
BLACK
6
CONTINUOUS
10
0.496911
20
2.87658
11
0.493898
21
2.87598
0
LINE
8
BLACK
6
CONTINUOUS
10
0.493898
20
2.87598
11
0.336417
21
2.87598
0
LINE
8
BLACK
6
CONTINUOUS
10
0.336417
20
2.87598
11
0.333404
21
2.87658
0
LINE
8
BLACK
6
CONTINUOUS
10
0.333404
20
2.87658
11
0.33085
21
2.87829
0
LINE
8
BLACK
6
CONTINUOUS
10
0.33085
20
2.87829
11
0.329143
21
2.88084
0
LINE
8
BLACK
6
CONTINUOUS
10
0.329143
20
2.88084
11
0.328543
21
2.88386
0
LINE
8
BLACK
6
CONTINUOUS
10
0.328543
20
2.88386
11
0.328543
21
3.04134
0
LINE
8
BLACK
6
CONTINUOUS
10
0.328543
20
3.04134
11
0.329143
21
3.04435
0
LINE
8
BLACK
6
CONTINUOUS
10
0.329143
20
3.04435
11
0.33085
21
3.04691
0
LINE
8
BLACK
6
CONTINUOUS
10
0.33085
20
3.04691
11
0.333404
21
3.04861
0
LINE
8
BLACK
6
CONTINUOUS
10
0.333404
20
3.04861
11
0.336417
21
3.04921
0
LINE
8
BLACK
6
CONTINUOUS
10
0.336417
20
3.04921
11
0.493898
21
3.04921
0
LINE
8
BLACK
6
CONTINUOUS
10
0.493898
20
3.04921
11
0.496911
21
3.04861
0
LINE
8
BLACK
6
CONTINUOUS
10
2.84947
20
3.05058
11
2.85202
21
3.04887
0
LINE
8
BLACK
6
CONTINUOUS
10
2.85202
20
3.04887
11
2.85373
21
3.04632
0
LINE
8
BLACK
6
CONTINUOUS
10
2.85373
20
3.04632
11
2.85433
21
3.04331
0
LINE
8
BLACK
6
CONTINUOUS
10
2.85433
20
3.04331
11
2.85433
21
2.88583
0
LINE
8
BLACK
6
CONTINUOUS
10
2.85433
20
2.88583
11
2.85373
21
2.88281
0
LINE
8
BLACK
6
CONTINUOUS
10
2.85373
20
2.88281
11
2.85202
21
2.88026
0
LINE
8
BLACK
6
CONTINUOUS
10
2.85202
20
2.88026
11
2.84947
21
2.87855
0
LINE
8
BLACK
6
CONTINUOUS
10
2.84947
20
2.87855
11
2.84646
21
2.87795
0
LINE
8
BLACK
6
CONTINUOUS
10
2.84646
20
2.87795
11
2.68898
21
2.87795
0
LINE
8
BLACK
6
CONTINUOUS
10
2.68898
20
2.87795
11
2.68596
21
2.87855
0
LINE
8
BLACK
6
CONTINUOUS
10
2.68596
20
2.87855
11
2.68341
21
2.88026
0
LINE
8
BLACK
6
CONTINUOUS
10
2.68341
20
2.88026
11
2.6817
21
2.88281
0
LINE
8
BLACK
6
CONTINUOUS
10
2.6817
20
2.88281
11
2.6811
21
2.88583
0
LINE
8
BLACK
6
CONTINUOUS
10
2.6811
20
2.88583
11
2.6811
21
3.04331
0
LINE
8
BLACK
6
CONTINUOUS
10
2.6811
20
3.04331
11
2.6817
21
3.04632
0
LINE
8
BLACK
6
CONTINUOUS
10
2.6817
20
3.04632
11
2.68341
21
3.04887
0
LINE
8
BLACK
6
CONTINUOUS
10
2.68341
20
3.04887
11
2.68596
21
3.05058
0
LINE
8
BLACK
6
CONTINUOUS
10
2.68596
20
3.05058
11
2.68898
21
3.05118
0
LINE
8
BLACK
6
CONTINUOUS
10
2.68898
20
3.05118
11
2.84646
21
3.05118
0
LINE
8
BLACK
6
CONTINUOUS
10
2.84646
20
3.05118
11
2.84947
21
3.05058
0
LINE
8
BLACK
6
CONTINUOUS
10
3.60931
20
3.05058
11
3.61187
21
3.04887
0
LINE
8
BLACK
6
CONTINUOUS
10
3.61187
20
3.04887
11
3.61357
21
3.04632
0
LINE
8
BLACK
6
CONTINUOUS
10
3.61357
20
3.04632
11
3.61417
21
3.04331
0
LINE
8
BLACK
6
CONTINUOUS
10
3.61417
20
3.04331
11
3.61417
21
2.88583
0
LINE
8
BLACK
6
CONTINUOUS
10
3.61417
20
2.88583
11
3.61357
21
2.88281
0
LINE
8
BLACK
6
CONTINUOUS
10
3.61357
20
2.88281
11
3.61187
21
2.88026
0
LINE
8
BLACK
6
CONTINUOUS
10
3.61187
20
2.88026
11
3.60931
21
2.87855
0
LINE
8
BLACK
6
CONTINUOUS
10
3.60931
20
2.87855
11
3.6063
21
2.87795
0
LINE
8
BLACK
6
CONTINUOUS
10
3.6063
20
2.87795
11
3.44882
21
2.87795
0
LINE
8
BLACK
6
CONTINUOUS
10
3.44882
20
2.87795
11
3.44581
21
2.87855
0
LINE
8
BLACK
6
CONTINUOUS
10
3.44581
20
2.87855
11
3.44325
21
2.88026
0
LINE
8
BLACK
6
CONTINUOUS
10
3.44325
20
2.88026
11
3.44154
21
2.88281
0
LINE
8
BLACK
6
CONTINUOUS
10
3.44154
20
2.88281
11
3.44094
21
2.88583
0
LINE
8
BLACK
6
CONTINUOUS
10
3.44094
20
2.88583
11
3.44094
21
3.04331
0
LINE
8
BLACK
6
CONTINUOUS
10
3.44094
20
3.04331
11
3.44154
21
3.04632
0
LINE
8
BLACK
6
CONTINUOUS
10
3.44154
20
3.04632
11
3.44325
21
3.04887
0
LINE
8
BLACK
6
CONTINUOUS
10
3.44325
20
3.04887
11
3.44581
21
3.05058
0
LINE
8
BLACK
6
CONTINUOUS
10
3.44581
20
3.05058
11
3.44882
21
3.05118
0
LINE
8
BLACK
6
CONTINUOUS
10
3.44882
20
3.05118
11
3.6063
21
3.05118
0
LINE
8
BLACK
6
CONTINUOUS
10
3.6063
20
3.05118
11
3.60931
21
3.05058
  0
ENDSEC
  0
EOF
