<?xml version='1.0' encoding='ASCII' standalone='yes'?>
<svg xmlns:svg="http://www.w3.org/2000/svg" xmlns="http://www.w3.org/2000/svg" xmlns:xlink="http://www.w3.org/1999/xlink" version="1.1" width="29.700220cm" height="21.000720cm" viewBox="0 0 2970022 2100072">
<title>SVG Picture created as UST5BATT18650V01-B_Fab.svg date 2023/03/28 16:47:38 </title>
  <desc>Picture generated by PCBNEW </desc>
<g style="fill:#000084; fill-opacity:1.000000;stroke:#000084; stroke-opacity:1.000000; stroke-linecap:round; stroke-linejoin:round;" transform="translate(0 0) scale(1 1)">
</g>
<g style="fill:#000084; fill-opacity:0.0;  stroke:#000084; stroke-width:0.000000; stroke-opacity:1;  stroke-linecap:round; stroke-linejoin:round;">
</g>
<g style="fill:#000084; fill-opacity:0.0;  stroke:#000084; stroke-width:4025.559105; stroke-opacity:1;  stroke-linecap:round; stroke-linejoin:round;">
<g transform="rotate(-90.000000 926444.534185 1050331.196166)">
<text x="926444.534185" y="1063749.726518" transform="scale(-1 1) translate(-1852889.068371 0)" textLength="62209.541214" font-size="35782.738658" lengthAdjust="spacingAndGlyphs" text-anchor="middle" opacity="0.01" style="font-family:monospace">BT2</text>
</g>
<g class="stroked-text"><desc>BT2</desc>
<path d="M924527 1029244 L925805 1033078 L927083 1034356 L929639 1035634 L933473 1035634 L936029 1034356 L937307 1033078 L938585 1030522 L938585 1020299 L911748 1020299 L911748 1029244 L913026 1031800 L914303 1033078 L916859 1034356 L919415 1034356 L921971 1033078 L923249 1031800 L924527 1029244 L924527 1020299 "/>
<path d="M911748 1043302 L911748 1058637 "/>
<path d="M938585 1050970 L911748 1050970 "/>
<path d="M914303 1066305 L913026 1067583 L911748 1070139 L911748 1076529 L913026 1079085 L914303 1080363 L916859 1081641 L919415 1081641 L923249 1080363 L938585 1065027 L938585 1081641 "/>
</g><g transform="rotate(-90.000000 1723838.768051 1050035.988498)">
<text x="1723838.768051" y="1063454.518850" transform="scale(-1 1) translate(-3447677.536102 0)" textLength="300198.072843" font-size="35782.738658" lengthAdjust="spacingAndGlyphs" text-anchor="middle" opacity="0.01" style="font-family:monospace">INR18650-MJ1</text>
</g>
<g class="stroked-text"><desc>INR18650-MJ1</desc>
<path d="M1735979 903710 L1709142 903710 "/>
<path d="M1735979 916489 L1709142 916489 L1735979 931825 L1709142 931825 "/>
<path d="M1735979 959940 L1723199 950994 "/>
<path d="M1735979 944604 L1709142 944604 L1709142 954828 L1710420 957384 L1711698 958662 L1714254 959940 L1718087 959940 L1720643 958662 L1721921 957384 L1723199 954828 L1723199 944604 "/>
<path d="M1735979 985499 L1735979 970163 "/>
<path d="M1735979 977831 L1709142 977831 L1712976 975275 L1715532 972719 L1716810 970163 "/>
<path d="M1720643 1000834 L1719365 998278 L1718087 997000 L1715532 995722 L1714254 995722 L1711698 997000 L1710420 998278 L1709142 1000834 L1709142 1005946 L1710420 1008502 L1711698 1009780 L1714254 1011058 L1715532 1011058 L1718087 1009780 L1719365 1008502 L1720643 1005946 L1720643 1000834 L1721921 998278 L1723199 997000 L1725755 995722 L1730867 995722 L1733423 997000 L1734701 998278 L1735979 1000834 L1735979 1005946 L1734701 1008502 L1733423 1009780 L1730867 1011058 L1725755 1011058 L1723199 1009780 L1721921 1008502 L1720643 1005946 "/>
<path d="M1709142 1034061 L1709142 1028949 L1710420 1026393 L1711698 1025115 L1715532 1022559 L1720643 1021281 L1730867 1021281 L1733423 1022559 L1734701 1023837 L1735979 1026393 L1735979 1031505 L1734701 1034061 L1733423 1035339 L1730867 1036617 L1724477 1036617 L1721921 1035339 L1720643 1034061 L1719365 1031505 L1719365 1026393 L1720643 1023837 L1721921 1022559 L1724477 1021281 "/>
<path d="M1709142 1060898 L1709142 1048119 L1721921 1046841 L1720643 1048119 L1719365 1050674 L1719365 1057064 L1720643 1059620 L1721921 1060898 L1724477 1062176 L1730867 1062176 L1733423 1060898 L1734701 1059620 L1735979 1057064 L1735979 1050674 L1734701 1048119 L1733423 1046841 "/>
<path d="M1709142 1078789 L1709142 1081345 L1710420 1083901 L1711698 1085179 L1714254 1086457 L1719365 1087735 L1725755 1087735 L1730867 1086457 L1733423 1085179 L1734701 1083901 L1735979 1081345 L1735979 1078789 L1734701 1076234 L1733423 1074956 L1730867 1073678 L1725755 1072400 L1719365 1072400 L1714254 1073678 L1711698 1074956 L1710420 1076234 L1709142 1078789 "/>
<path d="M1725755 1099237 L1725755 1119684 "/>
<path d="M1735979 1132464 L1709142 1132464 L1728311 1141409 L1709142 1150355 L1735979 1150355 "/>
<path d="M1709142 1170802 L1728311 1170802 L1732145 1169524 L1734701 1166968 L1735979 1163135 L1735979 1160579 "/>
<path d="M1735979 1197639 L1735979 1182304 "/>
<path d="M1735979 1189972 L1709142 1189972 L1712976 1187416 L1715532 1184860 L1716810 1182304 "/>
</g></g>
<g style="fill:#000084; fill-opacity:0.0;  stroke:#000084; stroke-width:8179.936102; stroke-opacity:1;  stroke-linecap:round; stroke-linejoin:round;">
<g transform="rotate(-90.000000 1874356.355272 140313.304792)">
<text x="1874356.355272" y="160763.145048" transform="scale(-1 1) translate(-3748712.710543 0)" textLength="68775.711182" font-size="54532.907348" lengthAdjust="spacingAndGlyphs" text-anchor="middle" opacity="0.01" style="font-family:monospace">F2</text>
</g>
<g class="stroked-text"><desc>F2</desc>
<path d="M1871434 126680 L1871434 113046 "/>
<path d="M1892858 113046 L1851958 113046 L1851958 132522 "/>
<path d="M1855854 146156 L1853906 148103 L1851958 151998 L1851958 161736 L1853906 165632 L1855854 167579 L1859749 169527 L1863644 169527 L1869487 167579 L1892858 144208 L1892858 169527 "/>
</g></g>
<g style="fill:#000084; fill-opacity:0.01;  stroke:#000084; stroke-width:2146.964856; stroke-opacity:1;  stroke-linecap:round; stroke-linejoin:round;">
<text x="2279542.297764" y="1367196.371885" transform="scale(-1 1) translate(-4559084.595527 0)" textLength="15564.153355" font-size="17891.355911" lengthAdjust="spacingAndGlyphs" text-anchor="middle" opacity="0.01" style="font-family:monospace">C5</text>
<g class="stroked-text"><desc>C5</desc>
<path d="M2281778 1365279 L2282417 1365918 L2284334 1366557 L2285612 1366557 L2287529 1365918 L2288807 1364640 L2289446 1363362 L2290085 1360806 L2290085 1358889 L2289446 1356333 L2288807 1355055 L2287529 1353777 L2285612 1353138 L2284334 1353138 L2282417 1353777 L2281778 1354416 "/>
<path d="M2269638 1353138 L2276027 1353138 L2276666 1359528 L2276027 1358889 L2274749 1358250 L2271555 1358250 L2270277 1358889 L2269638 1359528 L2268999 1360806 L2268999 1364001 L2269638 1365279 L2270277 1365918 L2271555 1366557 L2274749 1366557 L2276027 1365918 L2276666 1365279 "/>
</g></g>
<g style="fill:#000084; fill-opacity:0.01;  stroke:#000084; stroke-width:4025.559105; stroke-opacity:1;  stroke-linecap:round; stroke-linejoin:round;">
<text x="2217870.732268" y="1459515.860703" transform="scale(-1 1) translate(-4435741.464537 0)" textLength="360148.255591" font-size="35782.738658" lengthAdjust="spacingAndGlyphs" text-anchor="middle" opacity="0.01" style="font-family:monospace">Jumper_2_Bridged</text>
<g class="stroked-text"><desc>Jumper_2_Bridged</desc>
<path d="M2385282 1431400 L2385282 1450570 L2386560 1454404 L2389116 1456959 L2392950 1458237 L2395506 1458237 "/>
<path d="M2361001 1440346 L2361001 1458237 "/>
<path d="M2372503 1440346 L2372503 1454404 L2371225 1456959 L2368669 1458237 L2364835 1458237 L2362279 1456959 L2361001 1455681 "/>
<path d="M2348222 1458237 L2348222 1440346 "/>
<path d="M2348222 1442902 L2346944 1441624 L2344388 1440346 L2340554 1440346 L2337998 1441624 L2336720 1444180 L2336720 1458237 "/>
<path d="M2336720 1444180 L2335442 1441624 L2332886 1440346 L2329052 1440346 L2326496 1441624 L2325218 1444180 L2325218 1458237 "/>
<path d="M2312439 1440346 L2312439 1467183 "/>
<path d="M2312439 1441624 L2309883 1440346 L2304771 1440346 L2302215 1441624 L2300937 1442902 L2299659 1445458 L2299659 1453126 L2300937 1455681 L2302215 1456959 L2304771 1458237 L2309883 1458237 L2312439 1456959 "/>
<path d="M2277934 1456959 L2280490 1458237 L2285602 1458237 L2288158 1456959 L2289436 1454404 L2289436 1444180 L2288158 1441624 L2285602 1440346 L2280490 1440346 L2277934 1441624 L2276656 1444180 L2276656 1446736 L2289436 1449292 "/>
<path d="M2265155 1458237 L2265155 1440346 "/>
<path d="M2265155 1445458 L2263877 1442902 L2262599 1441624 L2260043 1440346 L2257487 1440346 "/>
<path d="M2254931 1460793 L2234484 1460793 "/>
<path d="M2229372 1433956 L2228094 1432678 L2225538 1431400 L2219148 1431400 L2216592 1432678 L2215314 1433956 L2214036 1436512 L2214036 1439068 L2215314 1442902 L2230650 1458237 L2214036 1458237 "/>
<path d="M2208925 1460793 L2188477 1460793 "/>
<path d="M2173142 1444180 L2169308 1445458 L2168030 1446736 L2166752 1449292 L2166752 1453126 L2168030 1455681 L2169308 1456959 L2171864 1458237 L2182087 1458237 L2182087 1431400 L2173142 1431400 L2170586 1432678 L2169308 1433956 L2168030 1436512 L2168030 1439068 L2169308 1441624 L2170586 1442902 L2173142 1444180 L2182087 1444180 "/>
<path d="M2155250 1458237 L2155250 1440346 "/>
<path d="M2155250 1445458 L2153972 1442902 L2152694 1441624 L2150139 1440346 L2147583 1440346 "/>
<path d="M2138637 1458237 L2138637 1440346 "/>
<path d="M2138637 1431400 L2139915 1432678 L2138637 1433956 L2137359 1432678 L2138637 1431400 L2138637 1433956 "/>
<path d="M2114356 1458237 L2114356 1431400 "/>
<path d="M2114356 1456959 L2116912 1458237 L2122024 1458237 L2124579 1456959 L2125857 1455681 L2127135 1453126 L2127135 1445458 L2125857 1442902 L2124579 1441624 L2122024 1440346 L2116912 1440346 L2114356 1441624 "/>
<path d="M2090075 1440346 L2090075 1462071 L2091353 1464627 L2092631 1465905 L2095187 1467183 L2099020 1467183 L2101576 1465905 "/>
<path d="M2090075 1456959 L2092631 1458237 L2097742 1458237 L2100298 1456959 L2101576 1455681 L2102854 1453126 L2102854 1445458 L2101576 1442902 L2100298 1441624 L2097742 1440346 L2092631 1440346 L2090075 1441624 "/>
<path d="M2067072 1456959 L2069627 1458237 L2074739 1458237 L2077295 1456959 L2078573 1454404 L2078573 1444180 L2077295 1441624 L2074739 1440346 L2069627 1440346 L2067072 1441624 L2065794 1444180 L2065794 1446736 L2078573 1449292 "/>
<path d="M2042790 1458237 L2042790 1431400 "/>
<path d="M2042790 1456959 L2045346 1458237 L2050458 1458237 L2053014 1456959 L2054292 1455681 L2055570 1453126 L2055570 1445458 L2054292 1442902 L2053014 1441624 L2050458 1440346 L2045346 1440346 L2042790 1441624 "/>
</g></g>
<g style="fill:#000084; fill-opacity:0.0;  stroke:#000084; stroke-width:8179.936102; stroke-opacity:1;  stroke-linecap:round; stroke-linejoin:round;">
<g transform="rotate(-90.000000 1066185.109265 1960349.087540)">
<text x="1066185.109265" y="1980798.927796" transform="scale(-1 1) translate(-2132370.218530 0)" textLength="68775.711182" font-size="54532.907348" lengthAdjust="spacingAndGlyphs" text-anchor="middle" opacity="0.01" style="font-family:monospace">F7</text>
</g>
<g class="stroked-text"><desc>F7</desc>
<path d="M1063263 1946715 L1063263 1933082 "/>
<path d="M1084687 1933082 L1043787 1933082 L1043787 1952558 "/>
<path d="M1043787 1964244 L1043787 1991510 L1084687 1973982 "/>
</g></g>
<g style="fill:#000084; fill-opacity:0.01;  stroke:#000084; stroke-width:2146.964856; stroke-opacity:1;  stroke-linecap:round; stroke-linejoin:round;">
<text x="2279542.297764" y="1619411.068371" transform="scale(-1 1) translate(-4559084.595527 0)" textLength="15564.153355" font-size="17891.355911" lengthAdjust="spacingAndGlyphs" text-anchor="middle" opacity="0.01" style="font-family:monospace">C2</text>
<g class="stroked-text"><desc>C2</desc>
<path d="M2281778 1617494 L2282417 1618133 L2284334 1618772 L2285612 1618772 L2287529 1618133 L2288807 1616855 L2289446 1615577 L2290085 1613021 L2290085 1611104 L2289446 1608548 L2288807 1607270 L2287529 1605992 L2285612 1605353 L2284334 1605353 L2282417 1605992 L2281778 1606631 "/>
<path d="M2276666 1606631 L2276027 1605992 L2274749 1605353 L2271555 1605353 L2270277 1605992 L2269638 1606631 L2268999 1607909 L2268999 1609187 L2269638 1611104 L2277305 1618772 L2268999 1618772 "/>
</g></g>
<g style="fill:#000084; fill-opacity:0.0;  stroke:#000084; stroke-width:4025.559105; stroke-opacity:1;  stroke-linecap:round; stroke-linejoin:round;">
<g transform="rotate(-90.000000 2827286.706709 518635.349521)">
<text x="2827286.706709" y="532053.879872" transform="scale(-1 1) translate(-5654573.413419 0)" textLength="325643.444089" font-size="35782.738658" lengthAdjust="spacingAndGlyphs" text-anchor="middle" opacity="0.01" style="font-family:monospace">SM03B-GHS-TB</text>
</g>
<g class="stroked-text"><desc>SM03B-GHS-TB</desc>
<path d="M2838149 359529 L2839427 363363 L2839427 369753 L2838149 372309 L2836871 373587 L2834315 374865 L2831759 374865 L2829203 373587 L2827925 372309 L2826647 369753 L2825369 364641 L2824091 362085 L2822813 360807 L2820257 359529 L2817702 359529 L2815146 360807 L2813868 362085 L2812590 364641 L2812590 371031 L2813868 374865 "/>
<path d="M2839427 386366 L2812590 386366 L2831759 395312 L2812590 404258 L2839427 404258 "/>
<path d="M2812590 422149 L2812590 424705 L2813868 427261 L2815146 428539 L2817702 429817 L2822813 431095 L2829203 431095 L2834315 429817 L2836871 428539 L2838149 427261 L2839427 424705 L2839427 422149 L2838149 419593 L2836871 418315 L2834315 417037 L2829203 415759 L2822813 415759 L2817702 417037 L2815146 418315 L2813868 419593 L2812590 422149 "/>
<path d="M2812590 440041 L2812590 456654 L2822813 447708 L2822813 451542 L2824091 454098 L2825369 455376 L2827925 456654 L2834315 456654 L2836871 455376 L2838149 454098 L2839427 451542 L2839427 443874 L2838149 441319 L2836871 440041 "/>
<path d="M2825369 477101 L2826647 480935 L2827925 482213 L2830481 483491 L2834315 483491 L2836871 482213 L2838149 480935 L2839427 478379 L2839427 468156 L2812590 468156 L2812590 477101 L2813868 479657 L2815146 480935 L2817702 482213 L2820257 482213 L2822813 480935 L2824091 479657 L2825369 477101 L2825369 468156 "/>
<path d="M2829203 494993 L2829203 515440 "/>
<path d="M2813868 542277 L2812590 539721 L2812590 535887 L2813868 532053 L2816424 529497 L2818979 528219 L2824091 526942 L2827925 526942 L2833037 528219 L2835593 529497 L2838149 532053 L2839427 535887 L2839427 538443 L2838149 542277 L2836871 543555 L2827925 543555 L2827925 538443 "/>
<path d="M2839427 555057 L2812590 555057 "/>
<path d="M2825369 555057 L2825369 570392 "/>
<path d="M2839427 570392 L2812590 570392 "/>
<path d="M2838149 581894 L2839427 585728 L2839427 592117 L2838149 594673 L2836871 595951 L2834315 597229 L2831759 597229 L2829203 595951 L2827925 594673 L2826647 592117 L2825369 587005 L2824091 584450 L2822813 583172 L2820257 581894 L2817702 581894 L2815146 583172 L2813868 584450 L2812590 587005 L2812590 593395 L2813868 597229 "/>
<path d="M2829203 608731 L2829203 629178 "/>
<path d="M2812590 638124 L2812590 653459 "/>
<path d="M2839427 645791 L2812590 645791 "/>
<path d="M2825369 671350 L2826647 675184 L2827925 676462 L2830481 677740 L2834315 677740 L2836871 676462 L2838149 675184 L2839427 672628 L2839427 662405 L2812590 662405 L2812590 671350 L2813868 673906 L2815146 675184 L2817702 676462 L2820257 676462 L2822813 675184 L2824091 673906 L2825369 671350 L2825369 662405 "/>
</g><g transform="rotate(-90.000000 2722622.169968 518635.349521)">
<text x="2722622.169968" y="532053.879872" transform="scale(-1 1) translate(-5445244.339936 0)" textLength="40773.170607" font-size="35782.738658" lengthAdjust="spacingAndGlyphs" text-anchor="middle" opacity="0.01" style="font-family:monospace">J2</text>
</g>
<g class="stroked-text"><desc>J2</desc>
<path d="M2707925 509689 L2727094 509689 L2730928 508411 L2733484 505855 L2734762 502021 L2734762 499466 "/>
<path d="M2710481 521191 L2709203 522469 L2707925 525025 L2707925 531414 L2709203 533970 L2710481 535248 L2713037 536526 L2715593 536526 L2719427 535248 L2734762 519913 L2734762 536526 "/>
</g></g>
<g style="fill:#000084; fill-opacity:0.0;  stroke:#000084; stroke-width:8179.936102; stroke-opacity:1;  stroke-linecap:round; stroke-linejoin:round;">
<g transform="rotate(-90.000000 2389627.920767 140313.304792)">
<text x="2389627.920767" y="160763.145048" transform="scale(-1 1) translate(-4779255.841534 0)" textLength="68775.711182" font-size="54532.907348" lengthAdjust="spacingAndGlyphs" text-anchor="middle" opacity="0.01" style="font-family:monospace">F4</text>
</g>
<g class="stroked-text"><desc>F4</desc>
<path d="M2386706 126680 L2386706 113046 "/>
<path d="M2408130 113046 L2367230 113046 L2367230 132522 "/>
<path d="M2380863 165632 L2408130 165632 "/>
<path d="M2365282 155894 L2394496 146156 L2394496 171474 "/>
</g><g transform="rotate(-90.000000 790139.102875 140313.304792)">
<text x="790139.102875" y="160763.145048" transform="scale(-1 1) translate(-1580278.205751 0)" textLength="63375.021086" font-size="54532.907348" lengthAdjust="spacingAndGlyphs" text-anchor="middle" opacity="0.01" style="font-family:monospace">F8</text>
</g>
<g class="stroked-text"><desc>F8</desc>
<path d="M787217 126680 L787217 113046 "/>
<path d="M808641 113046 L767741 113046 L767741 132522 "/>
<path d="M785270 153946 L783322 150051 L781374 148103 L777479 146156 L775532 146156 L771636 148103 L769689 150051 L767741 153946 L767741 161736 L769689 165632 L771636 167579 L775532 169527 L777479 169527 L781374 167579 L783322 165632 L785270 161736 L785270 153946 L787217 150051 L789165 148103 L793060 146156 L800850 146156 L804746 148103 L806693 150051 L808641 153946 L808641 161736 L806693 165632 L804746 167579 L800850 169527 L793060 169527 L789165 167579 L787217 165632 L785270 161736 "/>
</g></g>
<g style="fill:#000084; fill-opacity:0.01;  stroke:#000084; stroke-width:2146.964856; stroke-opacity:1;  stroke-linecap:round; stroke-linejoin:round;">
<text x="2173254.118850" y="1285397.010863" transform="scale(-1 1) translate(-4346508.237700 0)" textLength="15564.153355" font-size="17891.355911" lengthAdjust="spacingAndGlyphs" text-anchor="middle" opacity="0.01" style="font-family:monospace">R3</text>
<g class="stroked-text"><desc>R3</desc>
<path d="M2175490 1284758 L2179963 1278368 "/>
<path d="M2183158 1284758 L2183158 1271339 L2178046 1271339 L2176768 1271978 L2176129 1272617 L2175490 1273895 L2175490 1275812 L2176129 1277090 L2176768 1277729 L2178046 1278368 L2183158 1278368 "/>
<path d="M2171017 1271339 L2162710 1271339 L2167183 1276451 L2165266 1276451 L2163988 1277090 L2163349 1277729 L2162710 1279007 L2162710 1282202 L2163349 1283480 L2163988 1284119 L2165266 1284758 L2169100 1284758 L2170378 1284119 L2171017 1283480 "/>
</g></g>
<g style="fill:#000084; fill-opacity:0.0;  stroke:#000084; stroke-width:8179.936102; stroke-opacity:1;  stroke-linecap:round; stroke-linejoin:round;">
<g transform="rotate(-90.000000 548605.556550 140313.304792)">
<text x="548605.556550" y="160763.145048" transform="scale(-1 1) translate(-1097211.113099 0)" textLength="71217.883706" font-size="54532.907348" lengthAdjust="spacingAndGlyphs" text-anchor="middle" opacity="0.01" style="font-family:monospace">F6</text>
</g>
<g class="stroked-text"><desc>F6</desc>
<path d="M545684 126680 L545684 113046 "/>
<path d="M567107 113046 L526208 113046 L526208 132522 "/>
<path d="M526208 165632 L526208 157841 L528155 153946 L530103 151998 L535946 148103 L543736 146156 L559317 146156 L563212 148103 L565160 150051 L567107 153946 L567107 161736 L565160 165632 L563212 167579 L559317 169527 L549579 169527 L545684 167579 L543736 165632 L541788 161736 L541788 153946 L543736 150051 L545684 148103 L549579 146156 "/>
</g></g>
<g style="fill:#000084; fill-opacity:0.01;  stroke:#000084; stroke-width:2146.964856; stroke-opacity:1;  stroke-linecap:round; stroke-linejoin:round;">
<text x="2173254.118850" y="1353563.145048" transform="scale(-1 1) translate(-4346508.237700 0)" textLength="15564.153355" font-size="17891.355911" lengthAdjust="spacingAndGlyphs" text-anchor="middle" opacity="0.01" style="font-family:monospace">C4</text>
<g class="stroked-text"><desc>C4</desc>
<path d="M2175490 1351646 L2176129 1352285 L2178046 1352924 L2179324 1352924 L2181241 1352285 L2182519 1351007 L2183158 1349729 L2183797 1347173 L2183797 1345256 L2183158 1342700 L2182519 1341422 L2181241 1340144 L2179324 1339505 L2178046 1339505 L2176129 1340144 L2175490 1340783 "/>
<path d="M2163988 1343978 L2163988 1352924 "/>
<path d="M2167183 1338866 L2170378 1348451 L2162072 1348451 "/>
</g></g>
<g style="fill:#000084; fill-opacity:0.0;  stroke:#000084; stroke-width:8179.936102; stroke-opacity:1;  stroke-linecap:round; stroke-linejoin:round;">
<g transform="rotate(-90.000000 1584247.729073 1960349.087540)">
<text x="1584247.729073" y="1980798.927796" transform="scale(-1 1) translate(-3168495.458147 0)" textLength="71217.883706" font-size="54532.907348" lengthAdjust="spacingAndGlyphs" text-anchor="middle" opacity="0.01" style="font-family:monospace">F9</text>
</g>
<g class="stroked-text"><desc>F9</desc>
<path d="M1581326 1946715 L1581326 1933082 "/>
<path d="M1602749 1933082 L1561850 1933082 L1561850 1952558 "/>
<path d="M1602749 1970087 L1602749 1977877 L1600802 1981772 L1598854 1983720 L1593011 1987615 L1585221 1989563 L1569640 1989563 L1565745 1987615 L1563797 1985667 L1561850 1981772 L1561850 1973982 L1563797 1970087 L1565745 1968139 L1569640 1966191 L1579378 1966191 L1583273 1968139 L1585221 1970087 L1587169 1973982 L1587169 1981772 L1585221 1985667 L1583273 1987615 L1579378 1989563 "/>
</g></g>
<g style="fill:#000084; fill-opacity:0.01;  stroke:#000084; stroke-width:2146.964856; stroke-opacity:1;  stroke-linecap:round; stroke-linejoin:round;">
<text x="2173884.789776" y="1162697.969329" transform="scale(-1 1) translate(-4347769.579553 0)" textLength="15564.153355" font-size="17891.355911" lengthAdjust="spacingAndGlyphs" text-anchor="middle" opacity="0.01" style="font-family:monospace">R1</text>
<g class="stroked-text"><desc>R1</desc>
<path d="M2176121 1162058 L2180594 1155669 "/>
<path d="M2183788 1162058 L2183788 1148640 L2178677 1148640 L2177399 1149279 L2176760 1149918 L2176121 1151196 L2176121 1153113 L2176760 1154391 L2177399 1155030 L2178677 1155669 L2183788 1155669 "/>
<path d="M2163341 1162058 L2171009 1162058 "/>
<path d="M2167175 1162058 L2167175 1148640 L2168453 1150557 L2169731 1151835 L2171009 1152474 "/>
</g><text x="2279542.297764" y="1244497.330351" transform="scale(-1 1) translate(-4559084.595527 0)" textLength="23407.015974" font-size="17891.355911" lengthAdjust="spacingAndGlyphs" text-anchor="middle" opacity="0.01" style="font-family:monospace">C7</text>
<g class="stroked-text"><desc>C7</desc>
<path d="M2281778 1242580 L2282417 1243219 L2284334 1243858 L2285612 1243858 L2287529 1243219 L2288807 1241941 L2289446 1240663 L2290085 1238107 L2290085 1236190 L2289446 1233634 L2288807 1232356 L2287529 1231078 L2285612 1230439 L2284334 1230439 L2282417 1231078 L2281778 1231717 "/>
<path d="M2277305 1230439 L2268360 1230439 L2274110 1243858 "/>
</g></g>
<g style="fill:#000084; fill-opacity:0.0;  stroke:#000084; stroke-width:8179.936102; stroke-opacity:1;  stroke-linecap:round; stroke-linejoin:round;">
<g transform="rotate(-90.000000 1310778.080511 140313.304792)">
<text x="1310778.080511" y="160763.145048" transform="scale(-1 1) translate(-2621556.161022 0)" textLength="110169.971885" font-size="54532.907348" lengthAdjust="spacingAndGlyphs" text-anchor="middle" opacity="0.01" style="font-family:monospace">F10</text>
</g>
<g class="stroked-text"><desc>F10</desc>
<path d="M1307856 107204 L1307856 93570 "/>
<path d="M1329280 93570 L1288380 93570 L1288380 113046 "/>
<path d="M1329280 150051 L1329280 126680 "/>
<path d="M1329280 138365 L1288380 138365 L1294223 134470 L1298118 130575 L1300066 126680 "/>
<path d="M1288380 175370 L1288380 179265 L1290328 183160 L1292275 185108 L1296171 187055 L1303961 189003 L1313699 189003 L1321489 187055 L1325385 185108 L1327332 183160 L1329280 179265 L1329280 175370 L1327332 171474 L1325385 169527 L1321489 167579 L1313699 165632 L1303961 165632 L1296171 167579 L1292275 169527 L1290328 171474 L1288380 175370 "/>
</g></g>
<g style="fill:#000084; fill-opacity:0.0;  stroke:#000084; stroke-width:2146.964856; stroke-opacity:1;  stroke-linecap:round; stroke-linejoin:round;">
<g transform="rotate(-90.000000 2129576.802556 1428653.240895)">
<text x="2129576.802556" y="1435362.506070" transform="scale(-1 1) translate(-4259153.605112 0)" textLength="15564.153355" font-size="17891.355911" lengthAdjust="spacingAndGlyphs" text-anchor="middle" opacity="0.01" style="font-family:monospace">C3</text>
</g>
<g class="stroked-text"><desc>C3</desc>
<path d="M2134369 1426416 L2135008 1425777 L2135647 1423860 L2135647 1422582 L2135008 1420665 L2133730 1419388 L2132452 1418749 L2129896 1418110 L2127979 1418110 L2125423 1418749 L2124145 1419388 L2122867 1420665 L2122228 1422582 L2122228 1423860 L2122867 1425777 L2123506 1426416 "/>
<path d="M2122228 1430889 L2122228 1439196 L2127340 1434723 L2127340 1436640 L2127979 1437918 L2128618 1438557 L2129896 1439196 L2133091 1439196 L2134369 1438557 L2135008 1437918 L2135647 1436640 L2135647 1432806 L2135008 1431528 L2134369 1430889 "/>
</g></g>
<g style="fill:#000084; fill-opacity:0.0;  stroke:#000084; stroke-width:8051.118211; stroke-opacity:1;  stroke-linecap:round; stroke-linejoin:round;">
<g transform="rotate(-90.000000 2518123.767412 1490002.761661)">
<text x="2518123.767412" y="1510452.601917" transform="scale(-1 1) translate(-5036247.534824 0)" textLength="69270.291374" font-size="54532.907348" lengthAdjust="spacingAndGlyphs" text-anchor="middle" opacity="0.01" style="font-family:monospace">L1</text>
</g>
<g class="stroked-text"><desc>L1</desc>
<path d="M2536625 1483186 L2536625 1463710 L2495726 1463710 "/>
<path d="M2536625 1518242 L2536625 1494871 "/>
<path d="M2536625 1506557 L2495726 1506557 L2501569 1502662 L2505464 1498766 L2507411 1494871 "/>
</g></g>
<g style="fill:#000084; fill-opacity:0.01;  stroke:#000084; stroke-width:2146.964856; stroke-opacity:1;  stroke-linecap:round; stroke-linejoin:round;">
<text x="2279542.297764" y="1305846.851118" transform="scale(-1 1) translate(-4559084.595527 0)" textLength="15731.616613" font-size="17891.355911" lengthAdjust="spacingAndGlyphs" text-anchor="middle" opacity="0.01" style="font-family:monospace">C6</text>
<g class="stroked-text"><desc>C6</desc>
<path d="M2281778 1303929 L2282417 1304568 L2284334 1305207 L2285612 1305207 L2287529 1304568 L2288807 1303290 L2289446 1302012 L2290085 1299457 L2290085 1297540 L2289446 1294984 L2288807 1293706 L2287529 1292428 L2285612 1291789 L2284334 1291789 L2282417 1292428 L2281778 1293067 "/>
<path d="M2270277 1291789 L2272833 1291789 L2274110 1292428 L2274749 1293067 L2276027 1294984 L2276666 1297540 L2276666 1302651 L2276027 1303929 L2275388 1304568 L2274110 1305207 L2271555 1305207 L2270277 1304568 L2269638 1303929 L2268999 1302651 L2268999 1299457 L2269638 1298179 L2270277 1297540 L2271555 1296901 L2274110 1296901 L2275388 1297540 L2276027 1298179 L2276666 1299457 "/>
</g></g>
<g style="fill:#000084; fill-opacity:0.0;  stroke:#000084; stroke-width:8179.936102; stroke-opacity:1;  stroke-linecap:round; stroke-linejoin:round;">
<g transform="rotate(-90.000000 2389198.527796 1959812.346326)">
<text x="2389198.527796" y="1980262.186581" transform="scale(-1 1) translate(-4778397.055591 0)" textLength="71217.883706" font-size="54532.907348" lengthAdjust="spacingAndGlyphs" text-anchor="middle" opacity="0.01" style="font-family:monospace">F3</text>
</g>
<g class="stroked-text"><desc>F3</desc>
<path d="M2386277 1946179 L2386277 1932545 "/>
<path d="M2407700 1932545 L2366801 1932545 L2366801 1952021 "/>
<path d="M2366801 1963707 L2366801 1989026 L2382381 1975393 L2382381 1981235 L2384329 1985131 L2386277 1987078 L2390172 1989026 L2399910 1989026 L2403805 1987078 L2405753 1985131 L2407700 1981235 L2407700 1969550 L2405753 1965655 L2403805 1963707 "/>
</g></g>
<g style="fill:#000084; fill-opacity:0.01;  stroke:#000084; stroke-width:2146.964856; stroke-opacity:1;  stroke-linecap:round; stroke-linejoin:round;">
<text x="2279542.297764" y="1687577.202556" transform="scale(-1 1) translate(-4559084.595527 0)" textLength="15564.153355" font-size="17891.355911" lengthAdjust="spacingAndGlyphs" text-anchor="middle" opacity="0.01" style="font-family:monospace">C1</text>
<g class="stroked-text"><desc>C1</desc>
<path d="M2281778 1685660 L2282417 1686299 L2284334 1686938 L2285612 1686938 L2287529 1686299 L2288807 1685021 L2289446 1683743 L2290085 1681187 L2290085 1679270 L2289446 1676714 L2288807 1675436 L2287529 1674158 L2285612 1673519 L2284334 1673519 L2282417 1674158 L2281778 1674797 "/>
<path d="M2268999 1686938 L2276666 1686938 "/>
<path d="M2272833 1686938 L2272833 1673519 L2274110 1675436 L2275388 1676714 L2276666 1677353 "/>
</g><text x="2173884.789776" y="1224047.490096" transform="scale(-1 1) translate(-4347769.579553 0)" textLength="23407.015974" font-size="17891.355911" lengthAdjust="spacingAndGlyphs" text-anchor="middle" opacity="0.01" style="font-family:monospace">R2</text>
<g class="stroked-text"><desc>R2</desc>
<path d="M2176121 1223408 L2180594 1217018 "/>
<path d="M2183788 1223408 L2183788 1209989 L2178677 1209989 L2177399 1210628 L2176760 1211267 L2176121 1212545 L2176121 1214462 L2176760 1215740 L2177399 1216379 L2178677 1217018 L2183788 1217018 "/>
<path d="M2171009 1211267 L2170370 1210628 L2169092 1209989 L2165897 1209989 L2164619 1210628 L2163980 1211267 L2163341 1212545 L2163341 1213823 L2163980 1215740 L2171648 1223408 L2163341 1223408 "/>
</g></g>
<g style="fill:#000084; fill-opacity:0.0;  stroke:#000084; stroke-width:2415.335463; stroke-opacity:1;  stroke-linecap:round; stroke-linejoin:round;">
<g transform="rotate(-90.000000 2245029.837700 1488687.745687)">
<text x="2245029.837700" y="1496738.863898" transform="scale(-1 1) translate(-4490059.675399 0)" textLength="27879.868371" font-size="21469.648562" lengthAdjust="spacingAndGlyphs" text-anchor="middle" opacity="0.01" style="font-family:monospace">X1</text>
</g>
<g class="stroked-text"><desc>X1</desc>
<path d="M2236211 1475652 L2252314 1486387 "/>
<path d="M2236211 1486387 L2252314 1475652 "/>
<path d="M2252314 1500956 L2252314 1491754 "/>
<path d="M2252314 1496355 L2236211 1496355 L2238512 1494821 L2240045 1493288 L2240812 1491754 "/>
</g></g>
<g style="fill:#000084; fill-opacity:0.0;  stroke:#000084; stroke-width:4025.559105; stroke-opacity:1;  stroke-linecap:round; stroke-linejoin:round;">
<g transform="rotate(-90.000000 2827286.706709 1885366.339936)">
<text x="2827286.706709" y="1898784.870288" transform="scale(-1 1) translate(-5654573.413419 0)" textLength="325294.562300" font-size="35782.738658" lengthAdjust="spacingAndGlyphs" text-anchor="middle" opacity="0.01" style="font-family:monospace">SM04B-GHS-TB</text>
</g>
<g class="stroked-text"><desc>SM04B-GHS-TB</desc>
<path d="M2838149 1726260 L2839427 1730094 L2839427 1736484 L2838149 1739040 L2836871 1740318 L2834315 1741596 L2831759 1741596 L2829203 1740318 L2827925 1739040 L2826647 1736484 L2825369 1731372 L2824091 1728816 L2822813 1727538 L2820257 1726260 L2817702 1726260 L2815146 1727538 L2813868 1728816 L2812590 1731372 L2812590 1737762 L2813868 1741596 "/>
<path d="M2839427 1753097 L2812590 1753097 L2831759 1762043 L2812590 1770989 L2839427 1770989 "/>
<path d="M2812590 1788880 L2812590 1791436 L2813868 1793992 L2815146 1795270 L2817702 1796548 L2822813 1797826 L2829203 1797826 L2834315 1796548 L2836871 1795270 L2838149 1793992 L2839427 1791436 L2839427 1788880 L2838149 1786324 L2836871 1785046 L2834315 1783768 L2829203 1782490 L2822813 1782490 L2817702 1783768 L2815146 1785046 L2813868 1786324 L2812590 1788880 "/>
<path d="M2821535 1820829 L2839427 1820829 "/>
<path d="M2811312 1814439 L2830481 1808050 L2830481 1824663 "/>
<path d="M2825369 1843832 L2826647 1847666 L2827925 1848944 L2830481 1850222 L2834315 1850222 L2836871 1848944 L2838149 1847666 L2839427 1845110 L2839427 1834887 L2812590 1834887 L2812590 1843832 L2813868 1846388 L2815146 1847666 L2817702 1848944 L2820257 1848944 L2822813 1847666 L2824091 1846388 L2825369 1843832 L2825369 1834887 "/>
<path d="M2829203 1861724 L2829203 1882171 "/>
<path d="M2813868 1909008 L2812590 1906452 L2812590 1902618 L2813868 1898784 L2816424 1896228 L2818979 1894950 L2824091 1893673 L2827925 1893673 L2833037 1894950 L2835593 1896228 L2838149 1898784 L2839427 1902618 L2839427 1905174 L2838149 1909008 L2836871 1910286 L2827925 1910286 L2827925 1905174 "/>
<path d="M2839427 1921788 L2812590 1921788 "/>
<path d="M2825369 1921788 L2825369 1937123 "/>
<path d="M2839427 1937123 L2812590 1937123 "/>
<path d="M2838149 1948625 L2839427 1952458 L2839427 1958848 L2838149 1961404 L2836871 1962682 L2834315 1963960 L2831759 1963960 L2829203 1962682 L2827925 1961404 L2826647 1958848 L2825369 1953736 L2824091 1951181 L2822813 1949903 L2820257 1948625 L2817702 1948625 L2815146 1949903 L2813868 1951181 L2812590 1953736 L2812590 1960126 L2813868 1963960 "/>
<path d="M2829203 1975462 L2829203 1995909 "/>
<path d="M2812590 2004855 L2812590 2020190 "/>
<path d="M2839427 2012522 L2812590 2012522 "/>
<path d="M2825369 2038081 L2826647 2041915 L2827925 2043193 L2830481 2044471 L2834315 2044471 L2836871 2043193 L2838149 2041915 L2839427 2039359 L2839427 2029136 L2812590 2029136 L2812590 2038081 L2813868 2040637 L2815146 2041915 L2817702 2043193 L2820257 2043193 L2822813 2041915 L2824091 2040637 L2825369 2038081 L2825369 2029136 "/>
</g><g transform="rotate(-90.000000 2722622.169968 1885366.339936)">
<text x="2722622.169968" y="1898784.870288" transform="scale(-1 1) translate(-5445244.339936 0)" textLength="40773.170607" font-size="35782.738658" lengthAdjust="spacingAndGlyphs" text-anchor="middle" opacity="0.01" style="font-family:monospace">J1</text>
</g>
<g class="stroked-text"><desc>J1</desc>
<path d="M2707925 1876420 L2727094 1876420 L2730928 1875142 L2733484 1872586 L2734762 1868752 L2734762 1866197 "/>
<path d="M2734762 1903257 L2734762 1887922 "/>
<path d="M2734762 1895589 L2707925 1895589 L2711759 1893034 L2714315 1890478 L2715593 1887922 "/>
</g><g transform="rotate(-90.000000 2617957.633227 748387.426198)">
<text x="2617957.633227" y="761805.956550" transform="scale(-1 1) translate(-5235915.266454 0)" textLength="323201.271565" font-size="35782.738658" lengthAdjust="spacingAndGlyphs" text-anchor="middle" opacity="0.01" style="font-family:monospace">SM03B-GHS-TB</text>
</g>
<g class="stroked-text"><desc>SM03B-GHS-TB</desc>
<path d="M2628820 589281 L2630098 593115 L2630098 599505 L2628820 602061 L2627542 603339 L2624986 604617 L2622430 604617 L2619874 603339 L2618596 602061 L2617318 599505 L2616040 594393 L2614762 591837 L2613484 590559 L2610928 589281 L2608372 589281 L2605817 590559 L2604539 591837 L2603261 594393 L2603261 600783 L2604539 604617 "/>
<path d="M2630098 616119 L2603261 616119 L2622430 625064 L2603261 634010 L2630098 634010 "/>
<path d="M2603261 651901 L2603261 654457 L2604539 657013 L2605817 658291 L2608372 659569 L2613484 660847 L2619874 660847 L2624986 659569 L2627542 658291 L2628820 657013 L2630098 654457 L2630098 651901 L2628820 649345 L2627542 648067 L2624986 646789 L2619874 645512 L2613484 645512 L2608372 646789 L2605817 648067 L2604539 649345 L2603261 651901 "/>
<path d="M2603261 669793 L2603261 686406 L2613484 677460 L2613484 681294 L2614762 683850 L2616040 685128 L2618596 686406 L2624986 686406 L2627542 685128 L2628820 683850 L2630098 681294 L2630098 673627 L2628820 671071 L2627542 669793 "/>
<path d="M2616040 706853 L2617318 710687 L2618596 711965 L2621152 713243 L2624986 713243 L2627542 711965 L2628820 710687 L2630098 708131 L2630098 697908 L2603261 697908 L2603261 706853 L2604539 709409 L2605817 710687 L2608372 711965 L2610928 711965 L2613484 710687 L2614762 709409 L2616040 706853 L2616040 697908 "/>
<path d="M2619874 724745 L2619874 745192 "/>
<path d="M2604539 772029 L2603261 769473 L2603261 765639 L2604539 761805 L2607095 759250 L2609650 757972 L2614762 756694 L2618596 756694 L2623708 757972 L2626264 759250 L2628820 761805 L2630098 765639 L2630098 768195 L2628820 772029 L2627542 773307 L2618596 773307 L2618596 768195 "/>
<path d="M2630098 784809 L2603261 784809 "/>
<path d="M2616040 784809 L2616040 800144 "/>
<path d="M2630098 800144 L2603261 800144 "/>
<path d="M2628820 811646 L2630098 815480 L2630098 821869 L2628820 824425 L2627542 825703 L2624986 826981 L2622430 826981 L2619874 825703 L2618596 824425 L2617318 821869 L2616040 816758 L2614762 814202 L2613484 812924 L2610928 811646 L2608372 811646 L2605817 812924 L2604539 814202 L2603261 816758 L2603261 823147 L2604539 826981 "/>
<path d="M2619874 838483 L2619874 858930 "/>
<path d="M2603261 867876 L2603261 883211 "/>
<path d="M2630098 875543 L2603261 875543 "/>
<path d="M2616040 901103 L2617318 904936 L2618596 906214 L2621152 907492 L2624986 907492 L2627542 906214 L2628820 904936 L2630098 902381 L2630098 892157 L2603261 892157 L2603261 901103 L2604539 903658 L2605817 904936 L2608372 906214 L2610928 906214 L2613484 904936 L2614762 903658 L2616040 901103 L2616040 892157 "/>
</g><g transform="rotate(-90.000000 2722622.169968 886732.474121)">
<text x="2722622.169968" y="900151.004473" transform="scale(-1 1) translate(-5445244.339936 0)" textLength="40773.170607" font-size="35782.738658" lengthAdjust="spacingAndGlyphs" text-anchor="middle" opacity="0.01" style="font-family:monospace">J3</text>
</g>
<g class="stroked-text"><desc>J3</desc>
<path d="M2707925 877786 L2727094 877786 L2730928 876508 L2733484 873952 L2734762 870119 L2734762 867563 "/>
<path d="M2707925 888010 L2707925 904623 L2718149 895678 L2718149 899512 L2719427 902067 L2720705 903345 L2723261 904623 L2729650 904623 L2732206 903345 L2733484 902067 L2734762 899512 L2734762 891844 L2733484 889288 L2732206 888010 "/>
</g></g>
<g style="fill:#000084; fill-opacity:0.0;  stroke:#000084; stroke-width:8179.936102; stroke-opacity:1;  stroke-linecap:round; stroke-linejoin:round;">
<g transform="rotate(-90.000000 546834.310543 1959812.346326)">
<text x="546834.310543" y="1980262.186581" transform="scale(-1 1) translate(-1093668.621086 0)" textLength="68775.711182" font-size="54532.907348" lengthAdjust="spacingAndGlyphs" text-anchor="middle" opacity="0.01" style="font-family:monospace">F5</text>
</g>
<g class="stroked-text"><desc>F5</desc>
<path d="M543912 1946179 L543912 1932545 "/>
<path d="M565336 1932545 L524436 1932545 L524436 1952021 "/>
<path d="M524436 1987078 L524436 1967602 L543912 1965655 L541965 1967602 L540017 1971497 L540017 1981235 L541965 1985131 L543912 1987078 L547808 1989026 L557546 1989026 L561441 1987078 L563388 1985131 L565336 1981235 L565336 1971497 L563388 1967602 L561441 1965655 "/>
</g><g transform="rotate(-90.000000 2155716.099681 1959812.346326)">
<text x="2155716.099681" y="1980262.186581" transform="scale(-1 1) translate(-4311432.199361 0)" textLength="63375.021086" font-size="54532.907348" lengthAdjust="spacingAndGlyphs" text-anchor="middle" opacity="0.01" style="font-family:monospace">F1</text>
</g>
<g class="stroked-text"><desc>F1</desc>
<path d="M2152794 1946179 L2152794 1932545 "/>
<path d="M2174218 1932545 L2133318 1932545 L2133318 1952021 "/>
<path d="M2174218 1989026 L2174218 1965655 "/>
<path d="M2174218 1977340 L2133318 1977340 L2139161 1973445 L2143056 1969550 L2145004 1965655 "/>
</g><g transform="rotate(-90.000000 2289767.217891 1094639.183387)">
<text x="2289767.217891" y="1115089.023642" transform="scale(-1 1) translate(-4579534.435783 0)" textLength="102327.109265" font-size="54532.907348" lengthAdjust="spacingAndGlyphs" text-anchor="middle" opacity="0.01" style="font-family:monospace">F11</text>
</g>
<g class="stroked-text"><desc>F11</desc>
<path d="M2286845 1061529 L2286845 1047896 "/>
<path d="M2308269 1047896 L2267369 1047896 L2267369 1067372 "/>
<path d="M2308269 1104377 L2308269 1081005 "/>
<path d="M2308269 1092691 L2267369 1092691 L2273212 1088796 L2277107 1084901 L2279055 1081005 "/>
<path d="M2308269 1143329 L2308269 1119958 "/>
<path d="M2308269 1131643 L2267369 1131643 L2273212 1127748 L2277107 1123853 L2279055 1119958 "/>
</g></g>
<g style="fill:#000084; fill-opacity:0.0;  stroke:#000084; stroke-width:4025.559105; stroke-opacity:1;  stroke-linecap:round; stroke-linejoin:round;">
<path d="M1922072 61922 L1922072 218704 "/>
<path d="M1826640 61922 L1826640 218704 "/>
<path d="M1826640 218704 L1922072 218704 "/>
<path d="M1826640 61922 L1922072 61922 "/>
</g>
<g style="fill:#000084; fill-opacity:0.0;  stroke:#000084; stroke-width:2683.706070; stroke-opacity:1;  stroke-linecap:round; stroke-linejoin:round;">
<path d="M2306379 1343713 L2252705 1343713 "/>
<path d="M2252705 1343713 L2252705 1377260 "/>
<path d="M2306379 1377260 L2306379 1343713 "/>
<path d="M2252705 1377260 L2306379 1377260 "/>
</g>
<g style="fill:#000084; fill-opacity:0.0;  stroke:#000084; stroke-width:4025.559105; stroke-opacity:1;  stroke-linecap:round; stroke-linejoin:round;">
<path d="M1018468 2038740 L1113901 2038740 "/>
<path d="M1018468 1881958 L1113901 1881958 "/>
<path d="M1018468 1881958 L1018468 2038740 "/>
<path d="M1113901 1881958 L1113901 2038740 "/>
</g>
<g style="fill:#000084; fill-opacity:0.0;  stroke:#000084; stroke-width:2683.706070; stroke-opacity:1;  stroke-linecap:round; stroke-linejoin:round;">
<path d="M2306379 1629474 L2306379 1595928 "/>
<path d="M2306379 1595928 L2252705 1595928 "/>
<path d="M2252705 1629474 L2306379 1629474 "/>
<path d="M2252705 1595928 L2252705 1629474 "/>
<path d="M2698659 485089 L2679682 498507 "/>
<path d="M2679682 424705 L2788372 424705 "/>
<path d="M2679682 424705 L2679682 612565 "/>
<path d="M2788372 424705 L2788372 612565 "/>
<path d="M2679682 471670 L2698659 485089 "/>
<path d="M2679682 612565 L2788372 612565 "/>
</g>
<g style="fill:#000084; fill-opacity:0.0;  stroke:#000084; stroke-width:4025.559105; stroke-opacity:1;  stroke-linecap:round; stroke-linejoin:round;">
<path d="M2437344 61922 L2437344 218704 "/>
<path d="M2341911 61922 L2437344 61922 "/>
<path d="M2341911 218704 L2437344 218704 "/>
<path d="M2341911 61922 L2341911 218704 "/>
<path d="M742422 61922 L742422 218704 "/>
<path d="M837855 61922 L837855 218704 "/>
<path d="M742422 218704 L837855 218704 "/>
<path d="M742422 61922 L837855 61922 "/>
</g>
<g style="fill:#000084; fill-opacity:0.0;  stroke:#000084; stroke-width:2683.706070; stroke-opacity:1;  stroke-linecap:round; stroke-linejoin:round;">
<path d="M2200091 1261914 L2146417 1261914 "/>
<path d="M2146417 1261914 L2146417 1295460 "/>
<path d="M2146417 1295460 L2200091 1295460 "/>
<path d="M2200091 1295460 L2200091 1261914 "/>
</g>
<g style="fill:#000084; fill-opacity:0.0;  stroke:#000084; stroke-width:4025.559105; stroke-opacity:1;  stroke-linecap:round; stroke-linejoin:round;">
<path d="M596321 61922 L596321 218704 "/>
<path d="M500889 218704 L596321 218704 "/>
<path d="M500889 61922 L500889 218704 "/>
<path d="M500889 61922 L596321 61922 "/>
</g>
<g style="fill:#000084; fill-opacity:0.0;  stroke:#000084; stroke-width:2683.706070; stroke-opacity:1;  stroke-linecap:round; stroke-linejoin:round;">
<path d="M2200091 1363627 L2200091 1330080 "/>
<path d="M2146417 1363627 L2200091 1363627 "/>
<path d="M2200091 1330080 L2146417 1330080 "/>
<path d="M2146417 1330080 L2146417 1363627 "/>
</g>
<g style="fill:#000084; fill-opacity:0.0;  stroke:#000084; stroke-width:4025.559105; stroke-opacity:1;  stroke-linecap:round; stroke-linejoin:round;">
<path d="M1536531 1881958 L1536531 2038740 "/>
<path d="M1631964 1881958 L1631964 2038740 "/>
<path d="M1536531 1881958 L1631964 1881958 "/>
<path d="M1536531 2038740 L1631964 2038740 "/>
</g>
<g style="fill:#000084; fill-opacity:0.0;  stroke:#000084; stroke-width:2683.706070; stroke-opacity:1;  stroke-linecap:round; stroke-linejoin:round;">
<path d="M2200721 1139215 L2147047 1139215 "/>
<path d="M2147047 1139215 L2147047 1172761 "/>
<path d="M2147047 1172761 L2200721 1172761 "/>
<path d="M2200721 1172761 L2200721 1139215 "/>
<path d="M2252705 1221014 L2252705 1254561 "/>
<path d="M2252705 1254561 L2306379 1254561 "/>
<path d="M2306379 1254561 L2306379 1221014 "/>
<path d="M2306379 1221014 L2252705 1221014 "/>
</g>
<g style="fill:#000084; fill-opacity:0.0;  stroke:#000084; stroke-width:4025.559105; stroke-opacity:1;  stroke-linecap:round; stroke-linejoin:round;">
<path d="M1263061 218704 L1358494 218704 "/>
<path d="M1263061 61922 L1263061 218704 "/>
<path d="M1358494 61922 L1358494 218704 "/>
<path d="M1263061 61922 L1358494 61922 "/>
</g>
<g style="fill:#000084; fill-opacity:0.0;  stroke:#000084; stroke-width:2683.706070; stroke-opacity:1;  stroke-linecap:round; stroke-linejoin:round;">
<path d="M2112803 1401816 L2112803 1455490 "/>
<path d="M2146349 1401816 L2112803 1401816 "/>
<path d="M2112803 1455490 L2146349 1455490 "/>
<path d="M2146349 1455490 L2146349 1401816 "/>
</g>
<g style="fill:#000084; fill-opacity:0.0;  stroke:#000084; stroke-width:4025.559105; stroke-opacity:1;  stroke-linecap:round; stroke-linejoin:round;">
<path d="M2343618 1664379 L2343618 1315497 "/>
<path d="M2692500 1664379 L2343618 1664379 "/>
<path d="M2692500 1315497 L2692500 1664379 "/>
<path d="M2343618 1315497 L2692500 1315497 "/>
</g>
<g style="fill:#000084; fill-opacity:0.0;  stroke:#000084; stroke-width:2683.706070; stroke-opacity:1;  stroke-linecap:round; stroke-linejoin:round;">
<path d="M2252705 1315910 L2306379 1315910 "/>
<path d="M2306379 1282364 L2252705 1282364 "/>
<path d="M2306379 1315910 L2306379 1282364 "/>
<path d="M2252705 1282364 L2252705 1315910 "/>
</g>
<g style="fill:#000084; fill-opacity:0.0;  stroke:#000084; stroke-width:4025.559105; stroke-opacity:1;  stroke-linecap:round; stroke-linejoin:round;">
<path d="M2436914 1881421 L2436914 2038203 "/>
<path d="M2341482 2038203 L2436914 2038203 "/>
<path d="M2341482 1881421 L2341482 2038203 "/>
<path d="M2341482 1881421 L2436914 1881421 "/>
</g>
<g style="fill:#000084; fill-opacity:0.0;  stroke:#000084; stroke-width:2683.706070; stroke-opacity:1;  stroke-linecap:round; stroke-linejoin:round;">
<path d="M2306379 1664094 L2252705 1664094 "/>
<path d="M2252705 1664094 L2252705 1697641 "/>
<path d="M2306379 1697641 L2306379 1664094 "/>
<path d="M2252705 1697641 L2306379 1697641 "/>
<path d="M2200721 1234111 L2200721 1200565 "/>
<path d="M2147047 1200565 L2147047 1234111 "/>
<path d="M2147047 1234111 L2200721 1234111 "/>
<path d="M2200721 1200565 L2147047 1200565 "/>
<path d="M2287298 1509821 L2287298 1446419 "/>
<path d="M2202761 1530956 L2266164 1530956 "/>
<path d="M2287298 1446419 L2202761 1446419 "/>
<path d="M2202761 1446419 L2202761 1530956 "/>
<path d="M2287298 1509821 L2266164 1530956 "/>
<path d="M2679682 1774663 L2679682 1996069 "/>
<path d="M2679682 1821628 L2698659 1835046 "/>
<path d="M2679682 1996069 L2788372 1996069 "/>
<path d="M2698659 1835046 L2679682 1848465 "/>
<path d="M2788372 1774663 L2788372 1996069 "/>
<path d="M2679682 1774663 L2788372 1774663 "/>
<path d="M2765561 842317 L2656871 842317 "/>
<path d="M2765561 795352 L2746584 781933 "/>
<path d="M2746584 781933 L2765561 768515 "/>
<path d="M2765561 842317 L2765561 654457 "/>
<path d="M2656871 842317 L2656871 654457 "/>
<path d="M2765561 654457 L2656871 654457 "/>
</g>
<g style="fill:#000084; fill-opacity:0.0;  stroke:#000084; stroke-width:4025.559105; stroke-opacity:1;  stroke-linecap:round; stroke-linejoin:round;">
<path d="M594550 1881421 L594550 2038203 "/>
<path d="M499118 1881421 L499118 2038203 "/>
<path d="M499118 1881421 L594550 1881421 "/>
<path d="M499118 2038203 L594550 2038203 "/>
<path d="M2203432 1881421 L2203432 2038203 "/>
<path d="M2107999 2038203 L2203432 2038203 "/>
<path d="M2107999 1881421 L2203432 1881421 "/>
<path d="M2107999 1881421 L2107999 2038203 "/>
<path d="M2337483 1173030 L2337483 1016248 "/>
<path d="M2337483 1016248 L2242050 1016248 "/>
<path d="M2337483 1173030 L2242050 1173030 "/>
<path d="M2242050 1173030 L2242050 1016248 "/>
<g>
</g>
<g>
</g>
<g>
</g>
<g>
</g>
<g>
</g>
<g>
</g>
<g>
</g>
<g>
</g>
<g>
</g>
<g>
</g>
<g>
</g>
<g>
</g>
<g>
</g>
<g>
</g>
<g>
</g>
<g>
</g>
<g>
</g>
<g>
</g>
<g>
</g>
<g>
</g>
<g>
</g>
<g>
</g>
<g>
</g>
<g>
</g>
<g>
</g>
<g>
</g>
<g>
</g>
<g>
</g>
<g>
</g>
<g>
</g>
<g>
</g>
<g>
</g>
<g>
</g>
<g>
</g>
<g>
</g>
</g> 
<svg:g><svg:g><svg:title>SVG Picture created as UST5BATT18650V01-Edge_Cuts.svg date 2023/03/28 16:47:38 </svg:title>
  <svg:desc>Picture generated by PCBNEW </svg:desc>
<svg:g style="fill:#C2C200; fill-opacity:1.000000;stroke:#C2C200; stroke-opacity:1.000000; stroke-linecap:round; stroke-linejoin:round;" transform="translate(0 0) scale(1 1)">
</svg:g>
<svg:g style="fill:#C2C200; fill-opacity:0.0;  stroke:#C2C200; stroke-width:0.000000; stroke-opacity:1;  stroke-linecap:round; stroke-linejoin:round;">
</svg:g>
<svg:g style="fill:#C2C200; fill-opacity:0.0;  stroke:#C2C200; stroke-width:1341.853035; stroke-opacity:1;  stroke-linecap:round; stroke-linejoin:round;">
<svg:path d="M125492 2096681 L2809198 2096681 "/>
<svg:path d="M2809198 2096681 L2809198 3390 "/>
<svg:path d="M2809198 3390 L125492 3390 "/>
<svg:path d="M125492 3390 L125492 2096681 "/>
<svg:g>
</svg:g>
<svg:g>
</svg:g>
<svg:g>
</svg:g>
<svg:g>
</svg:g>
<svg:g>
</svg:g>
<svg:g>
</svg:g>
<svg:g>
</svg:g>
<svg:g>
</svg:g>
<svg:g>
</svg:g>
<svg:g>
</svg:g>
<svg:g>
</svg:g>
<svg:g>
</svg:g>
<svg:g>
</svg:g>
<svg:g>
</svg:g>
<svg:g>
</svg:g>
<svg:g>
</svg:g>
<svg:g>
</svg:g>
<svg:g>
</svg:g>
<svg:g>
</svg:g>
<svg:g>
</svg:g>
<svg:g>
</svg:g>
<svg:g>
</svg:g>
<svg:g>
</svg:g>
<svg:g>
</svg:g>
<svg:g>
</svg:g>
<svg:g>
</svg:g>
<svg:g>
</svg:g>
<svg:g>
</svg:g>
<svg:g>
</svg:g>
<svg:g>
</svg:g>
<svg:g>
</svg:g>
<svg:g>
</svg:g>
<svg:g>
</svg:g>
<svg:g>
</svg:g>
<svg:g>
</svg:g>
</svg:g> 
</svg:g></svg:g></svg>
